<svg width="222" height="17" viewBox="0 0 222 17" fill="none" xmlns="http://www.w3.org/2000/svg">
    <path d="M27 4H221.5" stroke="black" stroke-opacity="0.2" stroke-width="6"/>
    <path d="M27 14H100" stroke="black" stroke-opacity="0.2" stroke-width="6"/>
    <rect y="1" width="16" height="16" rx="4" fill="white" fill-opacity="0.5"/>
    <rect x="1" y="2" width="14" height="14" rx="3" stroke="black" stroke-opacity="0.2" stroke-width="2"/>
    <path d="M7.25579 5.5423C6.72687 4.5726 5.51199 4.21528 4.5423 4.74421C3.5726 5.27313 3.21528 6.48801 3.74421 7.4577L7.25579 5.5423ZM18.5239 3.2953C19.2393 2.45368 19.1369 1.19149 18.2953 0.476121C17.4537 -0.239251 16.1915 -0.136912 15.4761 0.704703L18.5239 3.2953ZM3.74421 7.4577L5.35009 10.4018L8.86167 8.48641L7.25579 5.5423L3.74421 7.4577ZM11.9094 11.077L18.5239 3.2953L15.4761 0.704703L8.86167 8.48641L11.9094 11.077ZM5.35009 10.4018C6.69411 12.8658 10.0916 13.2156 11.9094 11.077L8.86167 8.48641L8.86167 8.48641L5.35009 10.4018Z" fill="#69BE28"/>
</svg>
