<svg width="90" height="32" viewBox="0 0 90 32" fill="none" xmlns="http://www.w3.org/2000/svg">
<path fill-rule="evenodd" clip-rule="evenodd" d="M27.6554 13.6392C25.2778 13.2638 22.7751 13.2638 20.1472 13.1386C16.393 13.0135 12.6389 13.0135 9.00991 13.0135C6.00661 13.1386 3.0033 13.2638 0.250275 13.514L0 15.5162C9.13505 15.3911 18.6455 15.3911 27.7806 15.5162C27.7806 14.8906 27.6554 14.2649 27.6554 13.6392Z" fill="#FD7203"/>
<path fill-rule="evenodd" clip-rule="evenodd" d="M3.12772 16.5172L2.87744 18.6445C6.3813 18.8948 10.2606 19.0199 14.1398 19.0199C18.7699 19.0199 23.5252 18.8948 27.6547 18.2691C27.7798 17.6434 27.7798 17.0177 27.7798 16.5172C19.771 16.6423 11.2617 16.6423 3.12772 16.5172Z" fill="#FAA61A"/>
<path fill-rule="evenodd" clip-rule="evenodd" d="M12.7646 1C11.2629 1 9.76128 1.25028 8.38477 1.62569V2.0011C11.3881 1.37541 15.5176 1.50055 18.3958 2.12624C16.6439 1.37541 14.7668 1 12.7646 1Z" fill="#00498F"/>
<path fill-rule="evenodd" clip-rule="evenodd" d="M23.5258 5.63034C19.8969 4.12869 14.3908 3.75328 9.26015 4.12869L9.13501 5.75548C14.7662 5.38007 21.0231 5.63034 25.0275 7.38227C24.5269 6.75658 24.1515 6.13089 23.5258 5.63034Z" fill="#0F77C1"/>
<path fill-rule="evenodd" clip-rule="evenodd" d="M20.2727 3.00237C17.8951 2.25155 14.8918 1.87613 11.7633 2.12641L11.6382 3.25265C15.8929 3.12751 19.647 3.50292 22.6503 4.7543C21.8995 4.12861 21.1486 3.50292 20.2727 3.00237Z" fill="#019ADD"/>
<path fill-rule="evenodd" clip-rule="evenodd" d="M25.6531 8.25808C23.2754 7.25697 20.3973 6.88156 17.2688 6.63129L17.0186 8.63349C20.3973 8.88376 24.0263 9.13404 26.529 10.01C26.2787 9.50945 26.0285 8.88376 25.6531 8.25808Z" fill="#00498F"/>
<path fill-rule="evenodd" clip-rule="evenodd" d="M18.646 12.0124C21.7744 12.0124 24.7777 12.2626 27.4056 12.7632C27.2805 12.1375 27.1554 11.5118 26.9051 11.0113C24.6526 10.2604 21.7744 9.88503 18.8963 9.75989L18.646 12.0124Z" fill="#FD7203"/>
<path fill-rule="evenodd" clip-rule="evenodd" d="M27.5316 19.1449C24.7785 19.8957 21.525 19.8957 18.3965 20.146L18.1462 22.2733C21.2747 22.0231 24.5283 21.8979 27.031 21.022C27.1562 20.3963 27.4064 19.7706 27.5316 19.1449Z" fill="#00498F"/>
<path fill-rule="evenodd" clip-rule="evenodd" d="M13.6397 23.5245L13.3894 25.5267C18.0195 25.4016 22.3993 25.1513 25.778 23.6496C26.0283 23.1491 26.4037 22.5234 26.654 21.8977C23.1501 23.1491 18.3949 23.3994 13.6397 23.5245Z" fill="#0F77C1"/>
<path fill-rule="evenodd" clip-rule="evenodd" d="M15.7666 26.4031L15.5164 28.0299H15.6415C18.6448 27.7796 21.3978 27.4042 23.6503 26.4031C24.1509 25.9026 24.6514 25.2769 25.152 24.6512C22.6492 25.7774 19.2705 26.1528 15.7666 26.4031Z" fill="#019ADD"/>
<path fill-rule="evenodd" clip-rule="evenodd" d="M11.1365 28.7804L10.8862 29.9067C14.3901 30.157 17.7688 29.7815 20.3967 29.0307C21.2727 28.5302 22.0235 28.0296 22.7743 27.4039C19.6459 28.5302 15.3912 29.0307 11.1365 28.7804Z" fill="#00498F"/>
<path fill-rule="evenodd" clip-rule="evenodd" d="M7.13295 29.7816L7.00781 30.0319C8.75974 30.7827 10.7619 31.1581 12.7641 31.1581C14.8915 31.1581 16.8937 30.6576 18.6456 29.9068C15.2669 30.7827 10.3865 30.6576 7.13295 29.7816Z" fill="#019ADD"/>
<path fill-rule="evenodd" clip-rule="evenodd" d="M33.7119 18.1246L33.8907 16.5157H89.13L88.9512 18.1246H33.7119Z" fill="#FD7203"/>
<path fill-rule="evenodd" clip-rule="evenodd" d="M70.0015 12.0462L70.1802 10.7948H73.2193C73.3981 10.7948 73.5768 10.9736 73.5768 11.1524L73.3981 11.6887C73.3981 11.8674 73.2193 12.0462 73.0405 12.0462H70.0015ZM55.1637 13.2976L55.5213 11.1524H57.1302C57.3089 11.1524 57.4877 11.3311 57.4877 11.5099L57.3089 12.94C57.3089 13.1188 57.1302 13.2976 56.9514 13.2976H55.1637ZM51.4096 12.94L51.5884 11.5099C51.5884 11.3311 51.7671 11.1524 51.9459 11.1524H53.5548L53.376 13.2976H51.7671C51.5884 13.2976 51.4096 13.1188 51.4096 12.94ZM62.1357 13.8339C61.9569 13.8339 61.7781 13.6551 61.7781 13.4763C61.7781 13.2976 61.7781 13.2976 61.7781 13.2976L62.1357 11.1524C62.1357 10.9736 62.3144 10.7948 62.4932 10.7948H65.1747C65.3535 10.7948 65.5323 10.9736 65.5323 11.1524L65.1747 13.4763C65.1747 13.6551 64.996 13.8339 64.8172 13.8339H62.1357ZM84.4817 13.8339C84.3029 13.8339 84.1242 13.6551 84.1242 13.4763V13.2976C84.1242 13.1188 84.3029 12.94 84.4817 12.94C85.5543 12.94 86.6269 12.94 87.5207 12.94H87.6995L87.5207 13.6551V13.8339H84.4817ZM61.9569 9.36468C61.4206 9.36468 61.0631 9.54345 60.7055 9.72222C60.5268 10.0798 60.348 10.4373 60.348 10.9736L59.8117 13.6551C59.8117 13.8339 59.8117 13.8339 59.8117 14.0127C59.8117 14.1914 59.9905 14.549 60.1692 14.7277C60.348 15.0853 60.7055 15.0853 61.2418 15.0853H65.5323C66.0686 15.0853 66.4261 14.9065 66.6049 14.7277C66.9624 14.549 67.1412 14.0127 67.1412 13.6551L67.4987 10.7948V10.6161C67.4987 10.2585 67.4987 10.0798 67.32 9.72222C67.1412 9.54345 66.7836 9.36468 66.2473 9.36468H61.9569ZM41.5774 15.0853H43.5438L43.9013 12.94H46.7616L46.4041 15.0853H48.3705L49.0856 9.36468H47.1192L46.9404 11.5099H44.0801L44.2589 9.36468H42.2924L41.5774 15.0853ZM34.0691 15.0853H39.4321C39.9684 15.0853 40.326 14.9065 40.6835 14.7277C40.8623 14.3702 41.041 14.0127 41.041 13.6551L41.3986 10.9736C41.3986 10.7948 41.3986 10.6161 41.3986 10.6161C41.3986 10.2585 41.3986 10.0798 41.2198 9.72222C41.041 9.54345 40.6835 9.36468 40.1472 9.36468H34.7842L34.6054 10.7948H39.0746C39.2534 10.7948 39.4321 10.9736 39.4321 11.1524V11.5099H36.2143L36.0355 12.94H39.2534L39.0746 13.4763C39.0746 13.6551 38.8958 13.8339 38.7171 13.8339H34.2479L34.0691 15.0853ZM74.1131 9.36468H68.3926L67.6775 15.0853H69.6439L69.8227 13.4763H73.7556C74.2919 13.4763 74.6494 13.2976 74.8282 12.94C75.1858 12.7613 75.3645 12.4037 75.3645 11.8674L75.5433 10.7948V10.6161C75.5433 10.2585 75.3645 10.0798 75.1858 9.72222C75.007 9.54345 74.6494 9.36468 74.1131 9.36468ZM76.0796 10.7948H78.4036L77.8673 15.0853H79.8337L80.37 10.7948H82.5152L82.694 9.36468H76.2584L76.0796 10.7948ZM82.694 12.0462C82.3365 12.4037 82.1577 12.7613 82.1577 13.2976C82.1577 13.4763 82.1577 13.6551 82.1577 13.6551C82.1577 14.0127 82.1577 14.3702 82.3365 14.549C82.694 14.9065 83.0515 15.0853 83.7666 15.0853H89.3084L89.8447 10.9736C89.8447 10.7948 89.8447 10.6161 89.8447 10.6161C89.8447 10.2585 89.8447 10.0798 89.666 9.72222C89.4872 9.54345 89.1297 9.36468 88.5934 9.36468H83.4091V10.7948H87.6995C87.8783 10.7948 87.8783 10.9736 87.8783 11.1524V11.5099H86.9844H84.3029C83.5879 11.5099 83.0515 11.6887 82.694 12.0462ZM58.2028 9.72222H55.7V9.18591H53.9123L53.7336 9.72222H51.4096C50.8733 9.72222 50.337 9.90099 50.1582 10.2585C49.8007 10.4373 49.6219 10.7948 49.6219 11.3311L49.4431 13.2976V13.4763C49.4431 13.8339 49.4431 14.1914 49.6219 14.3702C49.8007 14.549 50.1582 14.7277 50.6945 14.7277H53.1973L53.0185 15.264H54.985L55.1637 14.7277H57.4877C58.024 14.7277 58.5603 14.549 58.7391 14.3702C59.0966 14.0127 59.0966 13.6551 59.2754 13.2976L59.4542 11.3311C59.4542 11.1524 59.4542 11.1524 59.4542 10.9736C59.4542 10.6161 59.4542 10.4373 59.2754 10.2585C59.0966 9.90099 58.7391 9.72222 58.2028 9.72222Z" fill="#00498F"/>
<path d="M35.0846 19.8804C34.9966 19.9013 34.926 19.9325 34.8727 19.9742C34.8195 20.0136 34.75 20.0946 34.6643 20.2174L34.2961 20.7419L34.8311 22.0028H34.3587L33.9106 20.919H33.6084L33.4555 22.0028H33.0005L33.3374 19.6025H33.7925L33.6535 20.5751H33.9384L34.3309 20.002C34.405 19.8932 34.471 19.811 34.5289 19.7554C34.5868 19.6975 34.6481 19.6546 34.713 19.6269C34.7801 19.5991 34.8693 19.5736 34.9804 19.5504L35.0846 19.8804Z" fill="#00498F"/>
<path d="M36.3031 19.5504C36.5833 19.5504 36.8021 19.6361 36.9596 19.8075C37.117 19.9765 37.1958 20.2174 37.1958 20.53C37.1958 20.7685 37.1553 21.0047 37.0742 21.2386C36.9932 21.4702 36.8612 21.6647 36.6782 21.8222C36.4953 21.9773 36.2602 22.0549 35.9731 22.0549C35.6929 22.0549 35.474 21.9704 35.3166 21.8013C35.1591 21.6299 35.0804 21.3891 35.0804 21.0788C35.0804 20.8426 35.1209 20.6087 35.2019 20.3771C35.283 20.1433 35.415 19.9476 35.5979 19.7901C35.7809 19.6303 36.0159 19.5504 36.3031 19.5504ZM36.2753 19.9013C36.097 19.9013 35.9534 19.9673 35.8446 20.0993C35.7357 20.2289 35.6593 20.3864 35.6153 20.5717C35.5713 20.7546 35.5493 20.9329 35.5493 21.1066C35.5493 21.5049 35.6987 21.704 35.9974 21.704C36.178 21.704 36.3216 21.6392 36.4281 21.5095C36.537 21.3775 36.6134 21.2201 36.6574 21.0371C36.7014 20.8519 36.7234 20.6712 36.7234 20.4952C36.7234 20.2891 36.6852 20.1386 36.6087 20.0437C36.5346 19.9487 36.4235 19.9013 36.2753 19.9013Z" fill="#00498F"/>
<path d="M38.4623 19.6025C38.7379 19.6025 38.9509 19.6581 39.1014 19.7693C39.2543 19.8781 39.3307 20.0402 39.3307 20.2556C39.3307 20.4154 39.2948 20.5636 39.223 20.7002C39.1535 20.8368 39.0401 20.9491 38.8826 21.0371C38.7275 21.1228 38.5283 21.1656 38.2852 21.1656H38.0038L37.8857 22.0028H37.4307L37.7676 19.6025H38.4623ZM38.2852 20.8218C38.4936 20.8218 38.6406 20.7685 38.7263 20.662C38.812 20.5555 38.8548 20.4246 38.8548 20.2695C38.8548 20.1537 38.8178 20.0703 38.7437 20.0194C38.6719 19.9661 38.5654 19.9395 38.4241 19.9395H38.174L38.0524 20.8218H38.2852Z" fill="#00498F"/>
<path d="M41.533 19.6025L41.196 22.0028H40.741L41.0258 19.9673H40.1956L39.9108 22.0028H39.4558L39.7927 19.6025H41.533Z" fill="#00498F"/>
<path d="M42.9958 19.5504C43.276 19.5504 43.4948 19.6361 43.6523 19.8075C43.8098 19.9765 43.8885 20.2174 43.8885 20.53C43.8885 20.7685 43.848 21.0047 43.7669 21.2386C43.6859 21.4702 43.5539 21.6647 43.371 21.8222C43.188 21.9773 42.953 22.0549 42.6658 22.0549C42.3856 22.0549 42.1668 21.9704 42.0093 21.8013C41.8518 21.6299 41.7731 21.3891 41.7731 21.0788C41.7731 20.8426 41.8136 20.6087 41.8947 20.3771C41.9757 20.1433 42.1077 19.9476 42.2907 19.7901C42.4736 19.6303 42.7087 19.5504 42.9958 19.5504ZM42.968 19.9013C42.7897 19.9013 42.6461 19.9673 42.5373 20.0993C42.4285 20.2289 42.352 20.3864 42.308 20.5717C42.264 20.7546 42.242 20.9329 42.242 21.1066C42.242 21.5049 42.3914 21.704 42.6901 21.704C42.8708 21.704 43.0143 21.6392 43.1209 21.5095C43.2297 21.3775 43.3061 21.2201 43.3501 21.0371C43.3941 20.8519 43.4161 20.6712 43.4161 20.4952C43.4161 20.2891 43.3779 20.1386 43.3015 20.0437C43.2274 19.9487 43.1162 19.9013 42.968 19.9013Z" fill="#00498F"/>
<path d="M45.155 19.6025C45.4306 19.6025 45.6437 19.6581 45.7942 19.7693C45.947 19.8781 46.0234 20.0402 46.0234 20.2556C46.0234 20.4154 45.9875 20.5636 45.9158 20.7002C45.8463 20.8368 45.7328 20.9491 45.5753 21.0371C45.4202 21.1228 45.221 21.1656 44.9779 21.1656H44.6965L44.5784 22.0028H44.1234L44.4603 19.6025H45.155ZM44.9779 20.8218C45.1863 20.8218 45.3333 20.7685 45.419 20.662C45.5047 20.5555 45.5476 20.4246 45.5476 20.2695C45.5476 20.1537 45.5105 20.0703 45.4364 20.0194C45.3646 19.9661 45.2581 19.9395 45.1168 19.9395H44.8667L44.7452 20.8218H44.9779Z" fill="#00498F"/>
<path d="M47.199 22.0028L47.1295 21.447H46.3376L46.1153 22.0028H45.6429L46.7197 19.6025H47.2754L47.6749 22.0028H47.199ZM46.4765 21.0996H47.0879L46.9454 19.936L46.4765 21.0996Z" fill="#00498F"/>
<path d="M49.6215 19.6025L49.5208 19.9673H48.9025L48.6177 22.0028H48.1626L48.4475 19.9673H47.8083L47.8604 19.6025H49.6215Z" fill="#00498F"/>
<path d="M51.3287 22.0028H50.884L51.0265 20.9711C51.0728 20.6655 51.1411 20.3494 51.2314 20.0228L50.1511 22.0028H49.578L49.9149 19.6025H50.3595L50.2136 20.6272C50.1835 20.831 50.1523 21.0059 50.1199 21.1518C50.0898 21.2953 50.0539 21.4377 50.0122 21.579L51.1029 19.6025H51.6656L51.3287 22.0028Z" fill="#00498F"/>
<path d="M53.2116 20.7349C53.3551 20.7604 53.4709 20.8125 53.5589 20.8912C53.6469 20.9677 53.6909 21.0834 53.6909 21.2386C53.6909 21.4702 53.6064 21.6554 53.4373 21.7944C53.2683 21.9333 52.9904 22.0028 52.6037 22.0028H51.8847L52.2216 19.6025H52.9059C53.1676 19.6025 53.3725 19.6465 53.5207 19.7345C53.6689 19.8225 53.743 19.9592 53.743 20.1444C53.743 20.3042 53.6921 20.4339 53.5902 20.5335C53.4906 20.633 53.3644 20.7002 53.2116 20.7349ZM52.6245 19.9395L52.5342 20.589H52.8086C52.9545 20.589 53.0691 20.5531 53.1525 20.4814C53.2359 20.4096 53.2776 20.31 53.2776 20.1826C53.2776 20.0923 53.2451 20.0298 53.1803 19.9951C53.1178 19.958 53.0286 19.9395 52.9128 19.9395H52.6245ZM52.6349 21.6589C52.8526 21.6589 53.0043 21.6195 53.09 21.5408C53.178 21.4621 53.222 21.3521 53.222 21.2108C53.222 21.0093 53.0854 20.9086 52.8121 20.9086H52.4891L52.3848 21.6589H52.6349Z" fill="#00498F"/>
<path d="M54.4394 22.0028H53.9878L54.3247 19.6025H54.7798L54.6408 20.5647H55.4849L55.6204 19.6025H56.0754L55.7385 22.0028H55.2834L55.4328 20.9294H54.5922L54.4394 22.0028Z" fill="#00498F"/>
<path d="M57.2045 20.4501C57.4708 20.4501 57.6769 20.508 57.8228 20.6238C57.9687 20.7372 58.0417 20.904 58.0417 21.124C58.0417 21.2768 58.0069 21.4204 57.9375 21.5547C57.868 21.6867 57.7557 21.7944 57.6005 21.8777C57.4454 21.9611 57.2451 22.0028 56.9996 22.0028H56.2945L56.6314 19.6025H57.0864L56.9683 20.4501H57.2045ZM58.4932 19.6025H58.9483L58.6113 22.0028H58.1563L58.4932 19.6025ZM57.0239 21.6589C57.2207 21.6589 57.3597 21.6091 57.4407 21.5095C57.5218 21.41 57.5623 21.2884 57.5623 21.1448C57.5623 21.0198 57.5276 20.9283 57.4581 20.8704C57.3886 20.8125 57.2856 20.7836 57.149 20.7836H56.9197L56.7981 21.6589H57.0239Z" fill="#00498F"/>
<path d="M60.9183 22.0028H60.4737L60.6161 20.9711C60.6624 20.6655 60.7307 20.3494 60.821 20.0228L59.7408 22.0028H59.1676L59.5046 19.6025H59.9492L59.8033 20.6272C59.7732 20.831 59.7419 21.0059 59.7095 21.1518C59.6794 21.2953 59.6435 21.4377 59.6018 21.579L60.6925 19.6025H61.2552L60.9183 22.0028ZM60.4077 19.3524C60.2502 19.3524 60.1275 19.3084 60.0395 19.2204C59.9515 19.1301 59.9063 19.012 59.904 18.8661L60.1611 18.8314C60.1703 18.9032 60.197 18.9553 60.241 18.9877C60.285 19.0178 60.3463 19.0329 60.4251 19.0329C60.5895 19.0329 60.7018 18.9622 60.762 18.821L61.0156 18.8835C60.9831 19.0294 60.9125 19.144 60.8037 19.2274C60.6972 19.3108 60.5652 19.3524 60.4077 19.3524Z" fill="#00498F"/>
<path d="M63.5348 19.5504C63.8127 19.5504 64.0408 19.6396 64.2191 19.8179L63.969 20.061C63.9018 20.0078 63.8347 19.9684 63.7675 19.9429C63.7003 19.9175 63.6274 19.9047 63.5487 19.9047C63.375 19.9047 63.2326 19.9661 63.1214 20.0888C63.0103 20.2116 62.9304 20.3633 62.8817 20.5439C62.8331 20.7222 62.8088 20.9017 62.8088 21.0823C62.8088 21.2884 62.8505 21.4412 62.9338 21.5408C63.0172 21.6381 63.1318 21.6867 63.2777 21.6867C63.3727 21.6867 63.4595 21.6693 63.5382 21.6346C63.617 21.5998 63.7015 21.5501 63.7918 21.4852L63.9759 21.77C63.8787 21.8534 63.7663 21.9217 63.639 21.975C63.5139 22.0282 63.375 22.0549 63.2222 22.0549C62.9512 22.0549 62.7359 21.9692 62.5761 21.7978C62.4163 21.6265 62.3364 21.3833 62.3364 21.0684C62.3364 20.8322 62.3781 20.5983 62.4614 20.3667C62.5448 20.1328 62.6768 19.9383 62.8574 19.7832C63.0381 19.628 63.2638 19.5504 63.5348 19.5504Z" fill="#00498F"/>
<path d="M66.0837 19.6025L65.983 19.9673H65.3647L65.0798 22.0028H64.6248L64.9096 19.9673H64.2705L64.3226 19.6025H66.0837Z" fill="#00498F"/>
<path d="M67.1246 22.0028L67.0551 21.447H66.2631L66.0408 22.0028H65.5684L66.6452 19.6025H67.201L67.6005 22.0028H67.1246ZM66.4021 21.0996H67.0134L66.871 19.936L66.4021 21.0996Z" fill="#00498F"/>
<path d="M68.3133 22.0028H67.8617L68.1987 19.6025H68.6537L68.5148 20.5647H69.3588L69.4943 19.6025H69.9494L69.6124 22.0028H69.1574L69.3067 20.9294H68.4661L68.3133 22.0028Z" fill="#00498F"/>
<path d="M71.7767 21.6415H71.9712L71.8461 22.5516H71.5196L71.537 22.0028H70.2935L70.1198 22.5516H69.7933L69.9183 21.6415H70.0607C70.1279 21.5883 70.1823 21.5211 70.224 21.4401C70.268 21.359 70.3097 21.2536 70.349 21.124C70.3884 20.9943 70.4498 20.7743 70.5331 20.464L70.5713 20.3216L70.7624 19.6025H72.0615L71.7767 21.6415ZM71.5683 19.9534H71.1028L71.0125 20.3181C70.9361 20.6238 70.8712 20.8577 70.818 21.0198C70.767 21.1819 70.7126 21.3104 70.6547 21.4053C70.5968 21.5003 70.525 21.579 70.4393 21.6415H71.3321L71.5683 19.9534Z" fill="#00498F"/>
<path d="M73.5561 22.0028L73.4866 21.447H72.6947L72.4724 22.0028H72L73.0768 19.6025H73.6325L74.032 22.0028H73.5561ZM72.8336 21.0996H73.445L73.3025 19.936L72.8336 21.0996Z" fill="#00498F"/>
<path d="M75.3249 19.6025C75.6005 19.6025 75.8135 19.6581 75.9641 19.7693C76.1169 19.8781 76.1933 20.0402 76.1933 20.2556C76.1933 20.4154 76.1574 20.5636 76.0856 20.7002C76.0162 20.8368 75.9027 20.9491 75.7452 21.0371C75.5901 21.1228 75.3909 21.1656 75.1478 21.1656H74.8664L74.7483 22.0028H74.2933L74.6302 19.6025H75.3249ZM75.1478 20.8218C75.3562 20.8218 75.5032 20.7685 75.5889 20.662C75.6746 20.5555 75.7174 20.4246 75.7174 20.2695C75.7174 20.1537 75.6804 20.0703 75.6063 20.0194C75.5345 19.9661 75.428 19.9395 75.2867 19.9395H75.0366L74.915 20.8218H75.1478Z" fill="#00498F"/>
<path d="M78.0886 19.6025L77.9878 19.9673H77.3695L77.0847 22.0028H76.6297L76.9145 19.9673H76.2754L76.3275 19.6025H78.0886Z" fill="#00498F"/>
<path d="M80.1055 19.5504C80.3834 19.5504 80.6115 19.6396 80.7898 19.8179L80.5397 20.061C80.4725 20.0078 80.4054 19.9684 80.3382 19.9429C80.2711 19.9175 80.1981 19.9047 80.1194 19.9047C79.9457 19.9047 79.8033 19.9661 79.6921 20.0888C79.581 20.2116 79.5011 20.3633 79.4525 20.5439C79.4038 20.7222 79.3795 20.9017 79.3795 21.0823C79.3795 21.2884 79.4212 21.4412 79.5046 21.5408C79.5879 21.6381 79.7026 21.6867 79.8484 21.6867C79.9434 21.6867 80.0302 21.6693 80.109 21.6346C80.1877 21.5998 80.2722 21.5501 80.3625 21.4852L80.5466 21.77C80.4494 21.8534 80.3371 21.9217 80.2097 21.975C80.0846 22.0282 79.9457 22.0549 79.7929 22.0549C79.5219 22.0549 79.3066 21.9692 79.1468 21.7978C78.987 21.6265 78.9071 21.3833 78.9071 21.0684C78.9071 20.8322 78.9488 20.5983 79.0322 20.3667C79.1155 20.1328 79.2475 19.9383 79.4281 19.7832C79.6088 19.628 79.8345 19.5504 80.1055 19.5504Z" fill="#00498F"/>
<path d="M82.1569 20.7349C82.3004 20.7604 82.4162 20.8125 82.5042 20.8912C82.5922 20.9677 82.6362 21.0834 82.6362 21.2386C82.6362 21.4702 82.5517 21.6554 82.3827 21.7944C82.2136 21.9333 81.9357 22.0028 81.549 22.0028H80.83L81.1669 19.6025H81.8512C82.1129 19.6025 82.3178 19.6465 82.466 19.7345C82.6142 19.8225 82.6883 19.9592 82.6883 20.1444C82.6883 20.3042 82.6374 20.4339 82.5355 20.5335C82.4359 20.633 82.3097 20.7002 82.1569 20.7349ZM81.5698 19.9395L81.4795 20.589H81.7539C81.8998 20.589 82.0145 20.5531 82.0978 20.4814C82.1812 20.4096 82.2229 20.31 82.2229 20.1826C82.2229 20.0923 82.1905 20.0298 82.1256 19.9951C82.0631 19.958 81.9739 19.9395 81.8582 19.9395H81.5698ZM81.5803 21.6589C81.7979 21.6589 81.9496 21.6195 82.0353 21.5408C82.1233 21.4621 82.1673 21.3521 82.1673 21.2108C82.1673 21.0093 82.0307 20.9086 81.7574 20.9086H81.4344L81.3302 21.6589H81.5803Z" fill="#00498F"/>
<path d="M84.8123 19.6025L84.4754 22.0028H84.0203L84.1454 21.1031L83.7563 21.0962L83.2145 22.0028H82.7212L83.3569 21.0024C83.2481 20.9514 83.1647 20.8785 83.1068 20.7836C83.0489 20.6886 83.02 20.5775 83.02 20.4501C83.02 20.3065 83.0535 20.171 83.1207 20.0437C83.1878 19.914 83.3002 19.8086 83.4576 19.7276C83.6151 19.6442 83.8212 19.6025 84.0759 19.6025H84.8123ZM84.3086 19.936H84.0551C83.8559 19.936 83.7135 19.9846 83.6278 20.0819C83.5421 20.1768 83.4993 20.2973 83.4993 20.4431C83.4993 20.5497 83.5294 20.6307 83.5896 20.6863C83.6521 20.7396 83.7378 20.7662 83.8467 20.7662H84.194L84.3086 19.936Z" fill="#00498F"/>
<path d="M85.943 19.5504C86.163 19.5504 86.3332 19.6025 86.4536 19.7067C86.5764 19.811 86.6377 19.9476 86.6377 20.1166C86.6377 20.2741 86.5856 20.4061 86.4814 20.5126C86.3795 20.6191 86.2348 20.6921 86.0472 20.7314C86.2024 20.7477 86.3251 20.7998 86.4154 20.8878C86.5081 20.9758 86.5544 21.0962 86.5544 21.249C86.5544 21.4088 86.5104 21.5501 86.4224 21.6728C86.3367 21.7932 86.2186 21.887 86.0681 21.9541C85.9175 22.0213 85.7497 22.0549 85.5644 22.0549C85.3954 22.0549 85.2495 22.0271 85.1267 21.9715C85.004 21.9136 84.8963 21.8291 84.8037 21.7179L85.0816 21.4817C85.2043 21.6253 85.3664 21.6971 85.5679 21.6971C85.7416 21.6971 85.8701 21.6543 85.9534 21.5686C86.0391 21.4829 86.082 21.3741 86.082 21.2421C86.082 21.0198 85.943 20.9086 85.6651 20.9086H85.4185L85.5192 20.5647H85.7068C85.8411 20.5647 85.95 20.5277 86.0333 20.4536C86.119 20.3771 86.1619 20.2787 86.1619 20.1583C86.1619 19.9846 86.0646 19.8978 85.8701 19.8978C85.6941 19.8978 85.5123 19.9696 85.3247 20.1132L85.1233 19.8561C85.371 19.6523 85.6443 19.5504 85.943 19.5504Z" fill="#00498F"/>
<path d="M88.6017 22.0028H88.1571L88.2995 20.9711C88.3459 20.6655 88.4142 20.3494 88.5045 20.0228L87.4242 22.0028H86.8511L87.188 19.6025H87.6326L87.4867 20.6272C87.4566 20.831 87.4254 21.0059 87.3929 21.1518C87.3628 21.2953 87.3269 21.4377 87.2853 21.579L88.376 19.6025H88.9387L88.6017 22.0028Z" fill="#00498F"/>
</svg>
