<svg width="32" height="32" viewBox="0 0 32 32" fill="none" xmlns="http://www.w3.org/2000/svg">
    <path fill-rule="evenodd" clip-rule="evenodd" d="M14.5 5.98438C9.24609 5.98438 4.98633 10.2441 4.98633 15.5C4.98633 20.7559 9.24609 25.0156 14.5 25.0156V27C8.14844 27 3 21.8506 3 15.5C3 9.14941 8.14844 4 14.5 4C20.3281 4 25.1436 8.33496 25.8975 13.9561L27.748 11.8418L29.2529 13.1592L25.0947 17.9111L20.3418 13.7529L21.6592 12.248L23.9307 14.2354C23.3125 9.57715 19.3252 5.98438 14.5 5.98438ZM14 10H16V15V17H14H7V15H14V10ZM22.4775 26.999H17.2969V25.7295L19.04 23.9668C19.5381 23.4463 19.8633 23.0908 20.0166 22.9023C20.1035 22.793 20.1748 22.6934 20.2314 22.6025C20.2744 22.5332 20.3086 22.4688 20.334 22.4092C20.3955 22.2725 20.4268 22.1289 20.4268 21.9795C20.4268 21.7939 20.3662 21.6475 20.2461 21.54C20.2051 21.5039 20.1592 21.4736 20.1074 21.4492C20.0059 21.4023 19.8828 21.3789 19.7383 21.3789C19.5137 21.3789 19.2861 21.4443 19.0547 21.5742C19.0234 21.5908 18.9922 21.6094 18.96 21.6289L18.8896 21.6729L18.8096 21.7266C18.7734 21.751 18.7363 21.7764 18.6992 21.8037C18.6475 21.8418 18.5938 21.8818 18.5391 21.9248C18.4551 21.9902 18.3682 22.0625 18.2783 22.1406L17.2188 20.9004C17.3945 20.7441 17.5557 20.6084 17.7041 20.4951C17.8672 20.3701 18.0146 20.2705 18.1465 20.1973C18.3975 20.0537 18.6689 19.9453 18.9619 19.8701C19.2578 19.7949 19.5898 19.7578 19.958 19.7578C20.4199 19.7578 20.832 19.8389 21.1934 20.002C21.2402 20.0234 21.2852 20.0459 21.3291 20.0684C21.4014 20.1064 21.4697 20.1475 21.5352 20.1914C21.6016 20.2363 21.665 20.2852 21.7236 20.3369C21.7588 20.3672 21.792 20.3994 21.8232 20.4326C21.8516 20.4619 21.8789 20.4922 21.9053 20.5225C21.9531 20.5791 21.9971 20.6377 22.0381 20.7002C22.0947 20.7842 22.1436 20.8711 22.1846 20.9609C22.2266 21.0547 22.2598 21.1514 22.2852 21.251C22.3223 21.3975 22.3408 21.5508 22.3408 21.7109C22.3408 21.9912 22.3047 22.25 22.2334 22.4873C22.165 22.7246 22.0576 22.959 21.9111 23.1904C21.8203 23.3311 21.7109 23.4766 21.584 23.627C21.5049 23.7207 21.4189 23.8164 21.3252 23.9131C21.084 24.167 20.5684 24.6484 19.7773 25.3584V25.4072H22.4775V26.999ZM28.5664 25.6172H27.7803V26.999H25.876V25.6172H23.0293V24.2012L25.998 19.8604H27.7803V24.1768H28.5664V25.6172ZM25.876 24.1768V23.3467C25.876 23.1904 25.8809 22.9805 25.8906 22.7168L25.9082 22.4053L25.917 22.3037L25.9199 22.2969H25.8662C25.7559 22.5479 25.6299 22.7822 25.4902 23L24.6992 24.1768H25.876Z" fill="black"/>
</svg>
