<svg width="32" height="32" viewBox="0 0 32 32" fill="none" xmlns="http://www.w3.org/2000/svg">
    <path fill-rule="evenodd" clip-rule="evenodd" d="M16 28C17.1046 28 18 27.1046 18 26C18 24.8954 17.1046 24 16 24C14.8954 24 14 24.8954 14 26C14 27.1046 14.8954 28 16 28ZM16 30C18.2091 30 20 28.2091 20 26C20 23.7909 18.2091 22 16 22C13.7909 22 12 23.7909 12 26C12 28.2091 13.7909 30 16 30Z" fill="black"/>
    <path fill-rule="evenodd" clip-rule="evenodd" d="M18 6C18 7.10449 17.1045 8 16 8C14.8955 8 14 7.10449 14 6C14 4.89551 14.8955 4 16 4C16.4688 4 16.8994 4.16113 17.2402 4.43164C17.7031 4.79785 18 5.36426 18 6ZM18.0322 9.44629C17.4365 9.79785 16.7422 10 16 10C15.2578 10 14.5635 9.79785 13.9678 9.44629L9.44629 13.9678C9.79785 14.5635 10 15.2578 10 16C10 18.209 8.20898 20 6 20C3.79102 20 2 18.209 2 16C2 13.791 3.79102 12 6 12C6.74121 12 7.43555 12.2021 8.03125 12.5537L12.5537 8.03223C12.5176 7.97168 12.4834 7.91016 12.4502 7.84668L12.3896 7.72461C12.1396 7.20312 12 6.61816 12 6C12 3.79102 13.791 2 16 2C18.209 2 20 3.79102 20 6C20 6.74219 19.7979 7.43652 19.4463 8.03223L23.9678 12.5537C24.5635 12.2021 25.2578 12 26 12C28.209 12 30 13.791 30 16C30 18.209 28.209 20 26 20C23.791 20 22 18.209 22 16C22 15.2578 22.2021 14.5635 22.5537 13.9678L18.0322 9.44629ZM7.13672 17.6455C7.6582 17.2842 8 16.6826 8 16C8 14.8955 7.10449 14 6 14C5.77539 14 5.56055 14.0371 5.35938 14.1055C5.15039 14.1758 4.95703 14.2793 4.78613 14.4111C4.30859 14.7764 4 15.3525 4 16C4 17.1045 4.89551 18 6 18C6.42188 18 6.81348 17.8691 7.13672 17.6455ZM28 16C28 17.1045 27.1045 18 26 18C24.8955 18 24 17.1045 24 16C24 15.3037 24.3564 14.6904 24.8965 14.332C25.2129 14.1221 25.5918 14 26 14C27.1045 14 28 14.8955 28 16Z" fill="black"/>
    <path fill-rule="evenodd" clip-rule="evenodd" d="M17 12H15V15H12V17H15V20H17V17H20V15H17V12Z" fill="black"/>
</svg>
