<svg width="32" height="32" viewBox="0 0 32 32" fill="none" xmlns="http://www.w3.org/2000/svg">
    <path fill-rule="evenodd" clip-rule="evenodd" d="M2 4H30V20H26V18H28V6H4V18H6V20H2V4ZM9.23084 15.3174L10.5126 16.6907C12.1128 18.4052 11.9955 21.0989 10.2522 22.6679C9.29762 23.527 9.28245 25.019 10.2194 25.8974L11.6837 27.2702L10.3158 28.7292L8.85151 27.3564C7.05997 25.6769 7.08898 22.8241 8.91431 21.1813C9.82599 20.3608 9.88735 18.952 9.05045 18.0553L7.76873 16.682L9.23084 15.3174ZM16.5126 16.6907L15.2308 15.3174L13.7687 16.682L15.0505 18.0553C15.8873 18.952 15.826 20.3608 14.9143 21.1813C13.089 22.8241 13.06 25.6769 14.8515 27.3564L16.3158 28.7292L17.6837 27.2702L16.2194 25.8974C15.2825 25.019 15.2976 23.527 16.2522 22.6679C17.9955 21.0989 18.1128 18.4052 16.5126 16.6907ZM21.2308 15.3174L22.5126 16.6907C24.1128 18.4052 23.9955 21.0989 22.2522 22.6679C21.2976 23.527 21.2825 25.019 22.2194 25.8974L23.6837 27.2702L22.3158 28.7292L20.8515 27.3564C19.06 25.6769 19.089 22.8241 20.9143 21.1813C21.826 20.3608 21.8873 18.952 21.0505 18.0553L19.7687 16.682L21.2308 15.3174ZM26 12H6V14H26V12Z" fill="black"/>
</svg>
