<svg width="32" height="32" viewBox="0 0 32 32" fill="none" xmlns="http://www.w3.org/2000/svg">
    <path fill-rule="evenodd" clip-rule="evenodd"
          d="M18 6.25926V4L16 3L14 4V6.25926C14 6.25926 8.91667 7.88889 8.5 9.92593C8.08333 11.963 7.66667 20 7.66667 20H6V25H26V20H24.3333C24.3333 20 23.9167 11.963 23.5 9.92593C23.0833 7.88889 18 6.25926 18 6.25926ZM24 22H22.4343L22.336 20.1035L22.336 20.1024L22.3314 20.0153L22.3176 19.7596C22.3055 19.5379 22.2877 19.2183 22.2651 18.8283C22.2198 18.0477 22.1551 16.9871 22.0777 15.8646C21.9217 13.6047 21.7265 11.3088 21.5546 10.3981C21.5298 10.3632 21.4406 10.2404 21.196 10.0396C20.8236 9.73395 20.2964 9.41634 19.6987 9.11724C19.1143 8.82477 18.5305 8.58349 18.0868 8.41395C17.867 8.32995 17.6864 8.26537 17.5633 8.22264C17.5019 8.20131 17.4551 8.18553 17.4253 8.1756L17.3936 8.16516L17.3894 8.16378L17.3884 8.16345L16 7.71835L14.6122 8.16327L14.6111 8.1636L14.6064 8.16516L14.5747 8.1756C14.5449 8.18553 14.4981 8.20131 14.4367 8.22264C14.3136 8.26537 14.133 8.32995 13.9132 8.41395C13.4695 8.58349 12.8857 8.82477 12.3013 9.11724C11.7036 9.41634 11.1764 9.73395 10.804 10.0396C10.5594 10.2404 10.4702 10.3632 10.4454 10.3981C10.2735 11.3088 10.0783 13.6047 9.92234 15.8646C9.84486 16.9871 9.78022 18.0477 9.73492 18.8283C9.71229 19.2183 9.69451 19.5379 9.68241 19.7596L9.66946 20H16V22H9.56567H9H8V23H24V22ZM12.666 26C12.666 27.8076 14.1582 29.2734 15.999 29.2734C17.8398 29.2734 19.333 27.8076 19.333 26H12.666Z"
          fill="black"/>
</svg>
