<svg width="32" height="32" viewBox="0 0 32 32" fill="none" xmlns="http://www.w3.org/2000/svg">
    <path fill-rule="evenodd" clip-rule="evenodd" d="M12 10V14V22H14H16.9092C18.0342 22 18.9912 21.6035 19.7949 20.8906C20.5176 20.1777 21 19.1484 21 18.04C21 16.9307 20.5176 15.9014 19.7949 15.1885C18.9912 14.3965 18.0342 14 16.9092 14H14V12H20V10H12ZM14 16V20H16.9092C17.4971 20 17.9775 19.8154 18.4258 19.4316C18.7764 19.0674 19 18.5566 19 18.04C19 17.5059 18.7617 16.9775 18.3906 16.6123C17.957 16.1855 17.5029 16 16.9092 16H14Z" fill="black"/>
    <path fill-rule="evenodd" clip-rule="evenodd" d="M16 27C22.0751 27 27 22.0751 27 16C27 9.92487 22.0751 5 16 5C9.92487 5 5 9.92487 5 16C5 22.0751 9.92487 27 16 27ZM16 29C23.1797 29 29 23.1797 29 16C29 8.8203 23.1797 3 16 3C8.8203 3 3 8.8203 3 16C3 23.1797 8.8203 29 16 29Z" fill="black"/>
</svg>
