<svg width="32" height="32" viewBox="0 0 32 32" fill="none" xmlns="http://www.w3.org/2000/svg">
    <path d="M15.0002 17.0003V12.0003H17.0002V15.0001L19 15L19.0001 17L15.0002 17.0003Z" fill="black"/>
    <path fill-rule="evenodd" clip-rule="evenodd" d="M2 10C2 11.1947 2.52376 12.2671 3.35418 13C2.52376 13.7329 2 14.8053 2 16C2 17.1947 2.52376 18.2671 3.35418 19C2.52376 19.7329 2 20.8053 2 22C2 24.2091 3.79086 26 6 26H26C28.2091 26 30 24.2091 30 22C30 20.8053 29.4762 19.7329 28.6458 19C29.4762 18.2671 30 17.1947 30 16C30 14.8053 29.4762 13.7329 28.6458 13C29.4762 12.2671 30 11.1947 30 10C30 7.79086 28.2091 6 26 6H6C3.79086 6 2 7.79086 2 10ZM8 8H23V10H25V8H26C27.1046 8 28 8.89543 28 10C28 11.1046 27.1046 12 26 12H21.7453C20.4804 10.1865 18.3787 9 16 9C13.6213 9 11.5196 10.1865 10.2547 12H6C4.89543 12 4 11.1046 4 10C4 8.89543 4.89543 8 6 8V10H8V8ZM22.7101 14C22.8987 14.6337 23 15.305 23 16C23 16.695 22.8987 17.3663 22.7101 18H26C27.1046 18 28 17.1046 28 16C28 14.8954 27.1046 14 26 14H22.7101ZM21.7453 20C20.4804 21.8135 18.3787 23 16 23C13.6213 23 11.5196 21.8135 10.2547 20H6C4.89543 20 4 20.8954 4 22C4 23.1046 4.89543 24 6 24L6 22H8V24H23V22H25V24H26C27.1046 24 28 23.1046 28 22C28 20.8954 27.1046 20 26 20H21.7453ZM9.28988 18C9.10128 17.3663 9 16.695 9 16C9 15.305 9.10128 14.6337 9.28988 14H6C4.89543 14 4 14.8954 4 16C4 17.1046 4.89543 18 6 18H9.28988ZM21 16C21 18.7614 18.7614 21 16 21C13.2386 21 11 18.7614 11 16C11 13.2386 13.2386 11 16 11C18.7614 11 21 13.2386 21 16Z" fill="black"/>
</svg>
