<svg width="32" height="32" viewBox="0 0 32 32" fill="none" xmlns="http://www.w3.org/2000/svg">
    <path d="M17.9785 9.29297C17.9927 9.19727 18 9.09961 18 9C18 7.89551 17.1045 7 16 7C14.8955 7 14 7.89551 14 9C14 9.09961 14.0073 9.19727 14.0215 9.29297C13.3687 9.49023 12.7476 9.78271 12.1699 10.1572C12.0596 9.79102 12 9.40234 12 9C12 6.79102 13.791 5 16 5C18.209 5 20 6.79102 20 9C20 9.40234 19.9404 9.79102 19.8301 10.1572C19.2524 9.78271 18.6313 9.49023 17.9785 9.29297Z" fill="black"/>
    <rect x="13" y="17" width="2" height="2" fill="black"/>
    <rect x="17" y="17" width="2" height="2" fill="black"/>
    <path fill-rule="evenodd" clip-rule="evenodd" d="M16 26C19.0059 26 22 22.9775 22 18.5C22 17.1973 21.7471 16.0176 21.3135 15H17V13H20.0654C18.9482 11.7285 17.4756 11 16 11C14.5244 11 13.0518 11.7285 11.9346 13H15V15H10.6865C10.2529 16.0176 10 17.1973 10 18.5C10 22.9775 12.9941 26 16 26ZM16 28C18.6924 28 21.0732 26.4209 22.5234 24H25.1494L27.376 25.7812L28.625 24.2197L25.8516 22H23.4395C23.6113 21.4844 23.7471 20.9463 23.8418 20.3906C23.8623 20.2725 23.8799 20.1543 23.8965 20.0352C23.9102 19.9346 23.9229 19.833 23.9336 19.7305C23.96 19.4893 23.9785 19.2461 23.9893 19H29V17H23.9014C23.79 16.1689 23.5879 15.373 23.3076 14.6279L25.5869 13H28.5332V11H24.9463L22.4092 12.8125C20.9502 10.498 18.6221 9 16 9C13.3652 9 11.0293 10.5127 9.57129 12.8457L6.80273 11H3.5V13H6.19727L8.68164 14.6562C8.40723 15.3906 8.20898 16.1748 8.09961 16.9941L3 17V19H8.01074C8.02051 19.2188 8.03613 19.4355 8.05762 19.6494C8.08691 19.9375 8.12695 20.2217 8.17773 20.502C8.21484 20.7041 8.25684 20.9033 8.30371 21.1006C8.37695 21.4072 8.46289 21.707 8.56055 22H6.14844L3.375 24.2197L4.62402 25.7812L6.85059 24H9.47656C10.9268 26.4209 13.3076 28 16 28Z" fill="black"/>
    <rect x="17" y="3" width="2" height="2" fill="black"/>
    <rect x="13" y="3" width="2" height="2" fill="black"/>
    <rect x="17" y="21" width="2" height="2" fill="black"/>
    <rect x="13" y="21" width="2" height="2" fill="black"/>
</svg>
