<svg width="32" height="32" viewBox="0 0 32 32" fill="none" xmlns="http://www.w3.org/2000/svg">
    <path d="M11 17H9V19H11V17Z" fill="black"/>
    <path d="M13 17H15V19H13V17Z" fill="black"/>
    <path d="M19 17H17V19H19V17Z" fill="black"/>
    <path d="M21 17H23V19H21V17Z" fill="black"/>
    <path d="M11 21H9V23H11V21Z" fill="black"/>
    <path d="M13 21H15V23H13V21Z" fill="black"/>
    <path d="M19 21H17V23H19V21Z" fill="black"/>
    <path d="M21 21H23V23H21V21Z" fill="black"/>
    <path d="M23 13H9V15H23V13Z" fill="black"/>
    <path fill-rule="evenodd" clip-rule="evenodd" d="M11 5H9V7H4V23C4 25.209 5.79102 27 8 27H24C26.209 27 28 25.209 28 23V7H23V5H21V7H11V5ZM21 11V9H11V11H9V9H6V23C6 24.1045 6.89551 25 8 25H24C25.1045 25 26 24.1045 26 23V9H23V11H21Z" fill="black"/>
</svg>
