<svg width="32" height="32" viewBox="0 0 32 32" fill="none" xmlns="http://www.w3.org/2000/svg">
    <path fill-rule="evenodd" clip-rule="evenodd" d="M12.8799 6.49609C13.9463 6.14551 14.8154 5.20703 14.9746 4H17.0254C17.1846 5.20703 18.0537 6.14551 19.1201 6.49609C19.3574 6.57324 19.5898 6.65918 19.8184 6.75391C20.0537 6.85156 20.2852 6.95801 20.5117 7.07324C21.0215 7.33105 21.6035 7.44531 22.1787 7.39746C22.7354 7.35059 23.2852 7.15332 23.7598 6.78906L25.21 8.24023C24.4688 9.20508 24.4189 10.4854 24.9268 11.4873C25.1533 11.9336 25.3467 12.3984 25.5039 12.8799C25.8545 13.9473 26.7939 14.8154 28 14.9746V17.0254C26.793 17.1846 25.8545 18.0537 25.5039 19.1201C25.4131 19.3975 25.3105 19.6699 25.1963 19.9355C25.1123 20.1309 25.0225 20.3232 24.9268 20.5117C24.6699 21.0186 24.5557 21.5967 24.6016 22.168C24.6465 22.7275 24.8438 23.2822 25.21 23.7598L23.7598 25.21C22.7939 24.4688 21.5146 24.4189 20.5117 24.9268C20.209 25.0801 19.8975 25.2188 19.5791 25.3408C19.4277 25.3984 19.2744 25.4531 19.1201 25.5039C18.0537 25.8545 17.1846 26.793 17.0254 28H14.9746C14.8154 26.7939 13.9473 25.8545 12.8799 25.5039C12.3984 25.3467 11.9336 25.1533 11.4873 24.9268C10.8857 24.6221 10.1836 24.5186 9.50977 24.6445C9.06152 24.7285 8.62598 24.9141 8.24023 25.21L6.78906 23.7598C7.53125 22.7949 7.58105 21.5146 7.07324 20.5117C6.84668 20.0664 6.65332 19.6016 6.49609 19.1201C6.27246 18.4404 5.80957 17.8408 5.19141 17.4541C4.83984 17.2344 4.4375 17.083 4 17.0254V14.9746C5.20703 14.8154 6.14551 13.9463 6.49609 12.8799C6.57129 12.6504 6.65527 12.4238 6.74609 12.2012C6.8457 11.959 6.95508 11.7207 7.07324 11.4883C7.58105 10.4854 7.53125 9.20508 6.78906 8.24023L8.24023 6.78906C9.20508 7.53125 10.4854 7.58105 11.4883 7.07324C11.9346 6.84668 12.3994 6.65332 12.8799 6.49609ZM13 3C13 2.44727 13.4473 2 14 2H18C18.5527 2 19 2.44727 19 3V3.60254C19 4.05859 19.3105 4.45312 19.7441 4.5957C20.3223 4.78516 20.8809 5.01758 21.416 5.28906C21.8232 5.49512 22.3213 5.43555 22.6436 5.11328L23.0703 4.68652C23.4609 4.2959 24.0947 4.2959 24.4854 4.68652L27.3135 7.51465C27.7041 7.90527 27.7041 8.53809 27.3135 8.92871L26.8867 9.35547C26.5645 9.67773 26.5049 10.1768 26.7109 10.584C26.9824 11.1191 27.2148 11.6777 27.4043 12.2559C27.5469 12.6895 27.9404 13 28.3975 13H29C29.5527 13 30 13.4473 30 14V18C30 18.5527 29.5527 19 29 19H28.3975C28.1289 19 27.8818 19.1074 27.6953 19.2842C27.5645 19.4082 27.4629 19.5654 27.4043 19.7441C27.2363 20.2578 27.0342 20.7559 26.8008 21.2363L26.7109 21.416C26.5049 21.8232 26.5645 22.3213 26.8867 22.6436L27.3135 23.0703C27.7041 23.4609 27.7041 24.0947 27.3135 24.4854L24.4854 27.3135C24.0947 27.7041 23.4609 27.7041 23.0703 27.3135L22.6436 26.8867C22.3213 26.5645 21.8232 26.5049 21.416 26.7109C20.8809 26.9824 20.3223 27.2148 19.7441 27.4043C19.3105 27.5469 19 27.9414 19 28.3975V29C19 29.5527 18.5527 30 18 30H14C13.4473 30 13 29.5527 13 29V28.3975C13 28.1572 12.9141 27.9346 12.7695 27.7568C12.6396 27.5957 12.4619 27.4717 12.2559 27.4043C11.6777 27.2148 11.1191 26.9824 10.584 26.7109C10.3271 26.5811 10.0342 26.5566 9.77246 26.6377C9.61816 26.6846 9.47461 26.7676 9.35547 26.8867L8.92871 27.3135C8.53809 27.7041 7.90527 27.7041 7.51465 27.3135L4.68652 24.4854C4.2959 24.0947 4.2959 23.4609 4.68652 23.0703L5.11328 22.6436C5.32129 22.4355 5.41992 22.1543 5.4082 21.8721C5.40137 21.7168 5.3623 21.5605 5.28906 21.416C5.01758 20.8809 4.78516 20.3223 4.5957 19.7441C4.45312 19.3105 4.05859 19 3.60254 19H3C2.44727 19 2 18.5527 2 18V14C2 13.4473 2.44727 13 3 13H3.60254C4.05859 13 4.45312 12.6895 4.5957 12.2559C4.78516 11.6777 5.01758 11.1191 5.28906 10.584C5.49512 10.1768 5.43555 9.67871 5.11328 9.35645L4.68652 8.92871C4.2959 8.53809 4.2959 7.90527 4.68652 7.51465L7.51465 4.68652C7.90527 4.2959 8.53809 4.2959 8.92871 4.68652L9.35645 5.11328C9.67871 5.43555 10.1768 5.49512 10.584 5.28906C11.1191 5.01758 11.6777 4.78516 12.2559 4.5957C12.6895 4.45312 13 4.05859 13 3.60254V3ZM15.7139 16.2832C17 17.5693 17.7129 17.7129 17.7129 17.7129L18.6748 16.752L21.999 19.4277L20.2842 21.999C20.2842 21.999 17.2842 21.5703 13.8555 18.1416C10.4268 14.7129 9.99902 11.7129 9.99902 11.7129L12.5703 9.99902L15.2461 13.3232L14.2842 14.2842C14.2842 14.2842 14.3242 14.4834 14.5518 14.8604C14.7549 15.1973 15.1074 15.6768 15.7139 16.2832Z" fill="black"/>
</svg>
