<svg width="32" height="32" viewBox="0 0 32 32" fill="none" xmlns="http://www.w3.org/2000/svg">
    <path fill-rule="evenodd" clip-rule="evenodd" d="M19.8109 5.06588L23.3164 3.89737L22.684 2L15.6633 4.34021L18.5771 11.3333L20.4233 10.5641L18.8373 6.75769C18.8853 6.80082 18.9389 6.84995 19 6.90592C23.0571 8.18019 26 11.9705 26 16.4481C26 20.3328 23.7852 23.7018 20.5448 25.3583L21.4552 27.1391C25.3382 25.1541 28 21.1128 28 16.4481C28 11.1528 24.5702 6.65864 19.8109 5.06588ZM6 16.4481C6 12.5635 8.21481 9.1944 11.4552 7.53794L10.5448 5.75713C6.66184 7.7421 4 11.7834 4 16.4481C4 21.3082 6.88923 25.4935 11.0438 27.38L7.68359 28.5001L8.31605 30.3975L15.3367 28.0572L12.4229 21.0642L10.5767 21.8334L12.1857 25.6949C8.55502 24.1957 6 20.6203 6 16.4481ZM15.7152 16.7848C17.0009 18.0705 17.7143 18.2143 17.7143 18.2143L18.676 17.2526L22 19.9286L20.2857 22.5C20.2857 22.5 17.2857 22.0714 13.8571 18.6429C10.4286 15.2143 10 12.2143 10 12.2143L12.5714 10.5L15.2474 13.824L14.2857 14.7857C14.2857 14.7857 14.4295 15.4991 15.7152 16.7848Z" fill="black"/>
</svg>
