<svg width="32" height="32" viewBox="0 0 32 32" fill="none" xmlns="http://www.w3.org/2000/svg">
    <path fill-rule="evenodd" clip-rule="evenodd" d="M16 27C22.0751 27 27 22.0751 27 16C27 9.92487 22.0751 5 16 5C9.92487 5 5 9.92487 5 16C5 22.0751 9.92487 27 16 27ZM16 29C23.1797 29 29 23.1797 29 16C29 8.8203 23.1797 3 16 3C8.8203 3 3 8.8203 3 16C3 23.1797 8.8203 29 16 29Z" fill="black"/>
    <path d="M11.0498 12.465L12.464 11.0508L20.9493 19.5361L19.5351 20.9503L11.0498 12.465Z" fill="black"/>
    <path d="M12.4648 20.9503L11.0506 19.5361L19.5359 11.0509L20.9501 12.4651L12.4648 20.9503Z" fill="black"/>
</svg>
