<svg width="32" height="32" viewBox="0 0 32 32" fill="none" xmlns="http://www.w3.org/2000/svg">
    <path fill-rule="evenodd" clip-rule="evenodd" d="M8.73459 7L8.30602 10H23.694L23.2654 7H8.73459ZM25 5H7L6 12H26L25 5ZM8 18C9.10457 18 10 17.1046 10 16C10 14.8954 9.10457 14 8 14C6.89543 14 6 14.8954 6 16C6 17.1046 6.89543 18 8 18ZM24 18C25.1046 18 26 17.1046 26 16C26 14.8954 25.1046 14 24 14C22.8954 14 22 14.8954 22 16C22 17.1046 22.8954 18 24 18ZM14 14H12V18H14V14ZM15 14H17V18H15V14ZM20 14H18V18H20V14ZM4.70718 17.293L3.29297 18.7072L4 19.4142V26C4 26.5523 4.44772 27 5 27H9C9.55228 27 10 26.5523 10 26V22.0001H22V26C22 26.5523 22.4477 27 23 27H27C27.5523 27 28 26.5523 28 26V19.4144L28.7072 18.7072L27.293 17.293L24.5859 20H22V20.0001H10V20H7.41421L4.70718 17.293ZM24 22.0001H25.4143L26 21.4144V25H24V22.0001ZM6 25V21.4142L6.58586 22.0001H8V25H6ZM2 10H5V12H2V10ZM30 10H27V12H30V10Z" fill="black"/>
</svg>
