<svg width="32" height="32" viewBox="0 0 32 32" fill="none" xmlns="http://www.w3.org/2000/svg">
    <path fill-rule="evenodd" clip-rule="evenodd"
          d="M20 15C20 15.5525 20 16.2028 20 16.7903V23C20 24.5 18.5 26 17 26H10.679L7.5 30H6V26H5C3.5 26 2 24.5 2 23V16C2 14.5 3.5 13 5 13H12C12 12.5968 12 12.5875 12 12V7C12 5.21856 13.5338 4 15 4H26.7059C28.525 4 30 5.5 30 7V12C30 13.7814 28.8192 15 27 15V19H25.5L22 15H20ZM23 13H14C14 12.5968 14 12.8907 14 12V7C14 6.5 14.5 6 15 6H27C27.5 6 28 6.5 28 7V12C28 12.5 27.5 13 27 13H25V15.5L23 13ZM5 15C4.5 15 4 15.5 4 16V22.9516C4 23.5 4.5 24 5 24H8V26.5L9.89849 24H17C17.5 24 18 23.5 18 23V16.7903C18 15.8996 18 15.4032 18 15H5Z"
          fill="black"/>
    <path d="M8 19.0004C8 19.5527 8 20.5 8 21.0002C7.44772 21.0002 6.5 21 6 21.0002C6 20.4479 5.99999 19.5 6.00003 19C6.55231 19 7.5 19 8 19.0004Z"
          fill="black"/>
    <path d="M12.0001 19.0002C12.0001 19.5525 12.0001 21.0003 12.0001 21.0003C11.4478 21.0003 10.5 21 10 21.0003C10 20.448 10 19.5003 10 19C10.5523 19 11.5 19 12.0001 19.0002Z"
          fill="black"/>
    <path d="M16.0001 21.0003C15.5001 21.0003 14.5523 21.0003 14 21.0003C14 20.5003 14 19.5525 14 19.0002C14.5 19 15.4477 19 16 19C16.0001 19.5 16.0001 20.448 16.0001 21.0003Z"
          fill="black"/>
</svg>
