<svg width="32" height="32" viewBox="0 0 32 32" fill="none" xmlns="http://www.w3.org/2000/svg">
    <path fill-rule="evenodd" clip-rule="evenodd" d="M16 27C22.0751 27 27 22.0751 27 16C27 9.92487 22.0751 5 16 5C9.92487 5 5 9.92487 5 16C5 22.0751 9.92487 27 16 27ZM16 29C23.1797 29 29 23.1797 29 16C29 8.8203 23.1797 3 16 3C8.8203 3 3 8.8203 3 16C3 23.1797 8.8203 29 16 29Z" fill="black"/>
    <path fill-rule="evenodd" clip-rule="evenodd" d="M22.0205 13.4141L20.6064 12L14.9497 17.6567L11.4141 14.1211L10 15.5352L13.5352 19.0713L14.9497 20.4854L16.3638 19.0708L22.0205 13.4141Z" fill="black"/>
</svg>
