<svg width="32" height="32" viewBox="0 0 32 32" fill="none" xmlns="http://www.w3.org/2000/svg">
    <path d="M16 5C13.5088 5 11.252 5.99414 9.61377 7.60352C8.21924 8.97363 7.27637 10.7915 7.0293 12.8223C5.84814 13.2139 4.80469 13.8921 3.97754 14.77C2.75293 16.0674 2 17.8091 2 19.7183C2 21.7358 2.83252 23.5566 4.17725 24.8706C5.51123 26.1807 7.35449 27 9.39355 27H16V25H9.39355C7.89941 25 6.55322 24.4014 5.57764 23.4429C4.59717 22.4849 4 21.1724 4 19.7183C4 18.3452 4.53955 17.0879 5.43213 16.1426C6.15869 15.3721 7.10938 14.814 8.18701 14.5752L8.94141 14.4077L8.96973 13.6353C9.03564 11.8433 9.80029 10.2241 11.0156 9.03027C12.292 7.77588 14.0503 7 16 7C17.9497 7 19.7075 7.77588 20.9844 9.03027C22.1997 10.2241 22.9644 11.8433 23.0303 13.6353L23.0586 14.4067L23.812 14.5747C24.8843 14.814 25.8418 15.3726 26.5664 16.1411C27.4556 17.0894 28 18.3481 28 19.7183C28 21.1724 27.4028 22.4849 26.4243 23.4404C25.4468 24.4014 24.1006 25 22.6064 25H16V27H22.6064C24.6455 27 26.4888 26.1807 27.8228 24.8706C29.1675 23.5566 30 21.7358 30 19.7183C30 17.8062 29.2383 16.0664 28.0244 14.772C27.1953 13.8921 26.1475 13.2148 24.9707 12.8232C24.7241 10.792 23.7812 8.97412 22.3862 7.60352C20.748 5.99414 18.4912 5 16 5Z" fill="black"/>
</svg>
