<svg width="32" height="32" viewBox="0 0 32 32" fill="none" xmlns="http://www.w3.org/2000/svg">
    <path d="M8.65018 12.152L9.8716 11.8716L10.152 10.6502C10.7636 7.9858 13.1523 6 16 6C18.8477 6 21.2364 7.9858 21.848 10.6502L22.1284 11.8716L23.3498 12.152C24.2475 12.3581 25.0682 12.7659 25.7618 13.325L27.0331 11.7813C26.1039 11.0283 25.0025 10.4794 23.7973 10.2027C22.9817 6.64986 19.8003 4 16 4C12.1997 4 9.01829 6.64986 8.20269 10.2027C4.64986 11.0183 2 14.1997 2 18C2 22.4183 5.58172 26 10 26H22C23.7166 26 25.3069 25.4593 26.6099 24.539L25.3113 23.0043C24.3623 23.6335 23.224 24 22 24H10C6.68629 24 4 21.3137 4 18C4 15.1523 5.9858 12.7636 8.65018 12.152Z" fill="black"/>
    <path d="M24 14L26 17.5L28 14L30 14.0001V22.0001H28V18.5L26 21L24 18.5V22.0001H22V14.0001L24 14Z" fill="black"/>
    <path fill-rule="evenodd" clip-rule="evenodd" d="M17.8182 14.0001H14V22.0001H16V20.0001H17.5L18.5 22.0001H21L19.5292 19.5487C19.7158 19.4401 19.8935 19.3129 20.0625 19.1684C20.625 18.6337 21 17.8614 21 17.0298C21 16.1981 20.625 15.4258 20.0625 14.8911C19.4375 14.2971 18.6932 14.0001 17.8182 14.0001ZM16 18.0001H17.8182C18.1761 18.0001 18.4533 17.8985 18.7185 17.6851C18.9012 17.4948 19 17.2485 19 17.0298C19 16.7978 18.889 16.5351 18.6846 16.3408C18.4347 16.1033 18.185 16.0001 17.8182 16.0001H16V18.0001Z" fill="black"/>
    <path fill-rule="evenodd" clip-rule="evenodd" d="M7.33951 14.9292C8.12794 14.2703 9.11811 14.0001 10 14.0001C10.9248 14.0001 11.7206 14.3303 12.2533 14.625C12.5255 14.7756 12.7458 14.9262 12.9004 15.0411C12.9781 15.0988 13.0402 15.1482 13.0851 15.1852C13.1075 15.2037 13.1258 15.2191 13.1396 15.231L13.1569 15.2461L13.1631 15.2515L13.1655 15.2537L13.1666 15.2546C13.1668 15.2548 13.1675 15.2555 12.5 16.0001C11.8325 16.7446 11.8327 16.7448 11.8329 16.745L11.8341 16.7461C11.8308 16.7433 11.8244 16.7379 11.8137 16.729C11.7921 16.7113 11.7563 16.6826 11.7078 16.6466C11.6099 16.5739 11.4648 16.4745 11.2852 16.3751C10.914 16.1698 10.4598 16.0001 10 16.0001C9.49728 16.0001 8.98744 16.1584 8.62203 16.4638C8.28541 16.7451 8 17.2076 8 18.0001C8 18.7925 8.28541 19.255 8.62203 19.5363C8.98744 19.8417 9.49728 20.0001 10 20.0001C10.4598 20.0001 10.914 19.8303 11.2852 19.625C11.4648 19.5256 11.6099 19.4262 11.7078 19.3536C11.7563 19.3175 11.7921 19.2888 11.8137 19.2711C11.8244 19.2623 11.8315 19.2562 11.8347 19.2535L11.8333 19.2547C11.8331 19.2549 11.8325 19.2555 12.5 20.0001C13.1675 20.7446 13.1673 20.7448 13.1671 20.745L13.1655 20.7464L13.1631 20.7486L13.1569 20.754L13.1396 20.7691C13.1258 20.781 13.1075 20.7965 13.0851 20.815C13.0402 20.8519 12.9781 20.9014 12.9004 20.9591C12.7458 21.0739 12.5255 21.2245 12.2533 21.3751C11.7206 21.6698 10.9248 22.0001 10 22.0001C9.11811 22.0001 8.12794 21.7299 7.33951 21.071C6.52228 20.388 6 19.3505 6 18.0001C6 16.6496 6.52228 15.6121 7.33951 14.9292ZM11.8366 19.2518C11.8369 19.2515 11.8363 19.2521 11.8347 19.2535L11.8366 19.2518ZM11.8341 16.7461L11.8353 16.7471L11.8366 16.7483C11.8369 16.7486 11.8357 16.7474 11.8341 16.7461Z" fill="black"/>
</svg>
