<svg width="32" height="32" viewBox="0 0 32 32" fill="none" xmlns="http://www.w3.org/2000/svg">
    <path d="M17.5907 18.9869C17.5907 18.9869 16.5936 18.6969 15.823 17.9263C15.0523 17.1556 14.7623 16.1585 14.7623 16.1585L15.4694 15.4514L14.0552 13.3301L12.2874 14.3907C12.2874 14.3907 12.4053 16.6299 14.7623 18.9869C17.1193 21.3439 19.3585 21.4618 19.3585 21.4618L20.4192 19.694L18.2979 18.2798L17.5907 18.9869Z" fill="black"/>
    <path fill-rule="evenodd" clip-rule="evenodd" d="M9.61328 7.60352C11.252 5.99414 13.5088 5 16 5C18.4912 5 20.748 5.99414 22.3867 7.60352C23.7812 8.97461 24.7246 10.792 24.9707 12.8232C26.1475 13.2148 27.1953 13.8926 28.0244 14.7715C29.2383 16.0664 30 17.8066 30 19.7188C30 21.7363 29.168 23.5566 27.8223 24.8711C26.4883 26.1807 24.6455 27 22.6064 27H22V28H20H18V27H20V25H18V24H20H22V25H22.6064C24.1006 25 25.4473 24.4014 26.4238 23.4404C27.4023 22.4844 28 21.1719 28 19.7188C28 18.3477 27.4551 17.0898 26.5664 16.1406C25.8418 15.373 24.8848 14.8145 23.8125 14.5742L23.0586 14.4062L23.0303 13.6348C22.9648 11.8438 22.1992 10.2246 20.9844 9.03027C19.707 7.77539 17.9492 7 16 7C14.0508 7 12.292 7.77539 11.0156 9.03027C9.80078 10.2246 9.03516 11.8438 8.96973 13.6348L8.94141 14.4082L8.1875 14.5752C7.10938 14.8145 6.1582 15.3721 5.43164 16.1426C4.53906 17.0879 4 18.3457 4 19.7188C4 21.1719 4.59766 22.4844 5.57812 23.4434C6.55273 24.4014 7.89941 25 9.39355 25H10V24H12H14V25H12V27H14V28H12H11H10V27H9.39355C7.35449 27 5.51172 26.1807 4.17773 24.8711C2.83203 23.5566 2 21.7363 2 19.7188C2 18.6592 2.23145 17.6514 2.64746 16.7432C2.98047 16.0137 3.43262 15.3477 3.97754 14.7695C4.80469 13.8926 5.84766 13.2139 7.0293 12.8223C7.27637 10.791 8.21875 8.97363 9.61328 7.60352Z" fill="black"/>
</svg>
