<svg width="32" height="32" viewBox="0 0 32 32" fill="none" xmlns="http://www.w3.org/2000/svg">
    <path fill-rule="evenodd" clip-rule="evenodd" d="M15.1777 2L10.6777 8.43066L11.4999 9.99987H20.4999L21.3221 8.43066L16.8221 2H15.1777ZM13.6367 8L13 8.5L13.5334 7.82278L15.8907 4.48094L15.9999 4L16.1092 4.48094L18.4664 7.82278L19 8.5L18.375 8H13.6367ZM16.8223 30L21.3223 23.5693L20.5001 22.0001H11.5001L10.6779 23.5693L15.1779 30H16.8223ZM18.3633 24L19 23.5L18.4666 24.1772L16.1093 27.5191L16.0001 28L15.8908 27.5191L13.5336 24.1772L13 23.5L13.625 24H18.3633ZM23.5693 10.6777L30 15.1777V16.8221L23.5693 21.3221L22.0001 20.4999V11.4999L23.5693 10.6777ZM23.5 13L24 13.6367V18.375L23.5 19L24.1772 18.4664L27.5191 16.1092L28 15.9999L27.5191 15.8907L24.1772 13.5334L23.5 13ZM2 16.8223L8.43066 21.3223L9.99987 20.5001L9.99987 11.5001L8.43066 10.6779L2 15.1779V16.8223ZM8 18.3633L8.5 19L7.82278 18.4666L4.48094 16.1093L4 16.0001L4.48094 15.8908L7.82278 13.5336L8.5 13L8 13.625L8 18.3633Z" fill="black"/>
</svg>
