<svg width="32" height="32" viewBox="0 0 32 32" fill="none" xmlns="http://www.w3.org/2000/svg">
    <path fill-rule="evenodd" clip-rule="evenodd" d="M7 12.75V9.17578L16 5.1875L25 9.17578V10.126C23.2744 10.5703 22 12.1367 22 14V17C22 18.1602 22.4932 19.2041 23.2822 19.9346C21.3975 23.4951 18.3311 25.6855 16 26.8096C12.3838 25.0664 7 20.7578 7 12.75ZM27 7.875V10.126C28.7256 10.5703 30 12.1367 30 14V17C30 19.209 28.209 21 26 21C25.6719 21 25.3535 20.96 25.0479 20.8857C22.665 25.3701 18.6289 27.9131 16 29C12.0713 27.375 5 22.5 5 12.75V7.875L16 3L27 7.875ZM26 12C24.8955 12 24 12.8955 24 14V17C24 17.3604 24.0957 17.6982 24.2627 17.9902C24.6064 18.5938 25.2559 19 26 19C26.1221 19 26.2422 18.9893 26.3584 18.9678C26.4883 18.9443 26.6133 18.9092 26.7334 18.8613C27.4756 18.5684 28 17.8457 28 17V14C28 12.8955 27.1045 12 26 12ZM17 10C15.8457 10 14.7969 10.2891 14.043 11.043C13.2891 11.7969 13 12.8457 13 14V15V17C13 18.1543 13.2891 19.2031 14.043 19.957C14.7969 20.7109 15.8457 21 17 21C18.1543 21 19.2031 20.7109 19.957 19.957C20.7109 19.2031 21 18.1543 21 17V14C21 12.8457 20.7109 11.7969 19.957 11.043C19.2031 10.2891 18.1543 10 17 10ZM15 17V15V14C15 13.1543 15.2109 12.7031 15.457 12.457C15.7031 12.2109 16.1543 12 17 12C17.6396 12 18.0537 12.1201 18.3242 12.2861C18.4111 12.3398 18.4834 12.3975 18.543 12.457C18.7891 12.7031 19 13.1543 19 14V17C19 17.8457 18.7891 18.2969 18.543 18.543C18.2969 18.7891 17.8457 19 17 19C16.1543 19 15.7031 18.7891 15.457 18.543C15.2109 18.2969 15 17.8457 15 17Z" fill="black"/>
</svg>
