<svg width="32" height="32" viewBox="0 0 32 32" fill="none" xmlns="http://www.w3.org/2000/svg">
    <path fill-rule="evenodd" clip-rule="evenodd" d="M7 9.17578V12.75C7 13.0234 7.00586 13.292 7.01855 13.5566L15 10.0645V5.63086L7 9.17578ZM15 12.2471L7.24805 15.6387C8.23438 21.1875 11.9648 24.5547 15 26.2842V12.2471ZM17 12.2471L24.752 15.6387C23.7656 21.1875 20.0352 24.5547 17 26.2842V12.2471ZM24.9814 13.5566L17 10.0645V5.63086L25 9.17578V12.75C25 13.0234 24.9941 13.292 24.9814 13.5566ZM16 3L5 7.875V12.75C5 22.5 12.0713 27.375 16 29C19.9287 27.375 27 22.5 27 12.75V7.875L16 3Z" fill="black"/>
</svg>
