<svg width="32" height="32" viewBox="0 0 32 32" fill="none" xmlns="http://www.w3.org/2000/svg">
    <path fill-rule="evenodd" clip-rule="evenodd" d="M27 16C27 22.0751 22.0751 27 16 27C9.92487 27 5 22.0751 5 16C5 9.92487 9.92487 5 16 5C22.0751 5 27 9.92487 27 16ZM29 16C29 23.1797 23.1797 29 16 29C8.8203 29 3 23.1797 3 16C3 8.8203 8.8203 3 16 3C23.1797 3 29 8.8203 29 16ZM16.126 6.51465L11.126 15.5146L12.0001 17.0003H18.3006L14.126 24.5146L15.8743 25.4859L20.8743 16.4859L20.0001 15.0003H13.6996L17.8743 7.48593L16.126 6.51465Z" fill="black"/>
</svg>
