<svg width="32" height="32" viewBox="0 0 32 32" fill="none" xmlns="http://www.w3.org/2000/svg">
    <path fill-rule="evenodd" clip-rule="evenodd" d="M23.9904 7.92333L19 5.04213C17.1436 3.97033 14.8564 3.97033 13 5.04213L8.00961 7.92333C7.49811 8.21864 7.04073 8.58296 6.64647 9.00068H4.15137C4.83882 7.85595 5.81318 6.88203 7.00961 6.19128L12 3.31008C14.4752 1.88102 17.5248 1.88102 20 3.31008L24.9904 6.19128C27.4656 7.62034 28.9904 10.2614 28.9904 13.1195V18.8819C28.9904 21.74 27.4656 24.381 24.9904 25.8101L20 28.6913C17.5248 30.1203 14.4752 30.1203 12 28.6913L7.00961 25.8101C5.81318 25.1193 4.83882 24.1454 4.15137 23.0007H6.64647C7.04073 23.4184 7.49811 23.7827 8.00961 24.078L13 26.9592C14.8564 28.031 17.1436 28.031 19 26.9592L23.9904 24.078C25.8468 23.0062 26.9904 21.0255 26.9904 18.8819V13.1195C26.9904 10.9759 25.8468 8.99512 23.9904 7.92333ZM3 11H14V15H3V11ZM3 17H23V21H3V17Z" fill="black"/>
</svg>
