<svg width="32" height="32" viewBox="0 0 32 32" fill="none" xmlns="http://www.w3.org/2000/svg">
    <path fill-rule="evenodd" clip-rule="evenodd" d="M21.8867 13.21C24.3555 14.2793 26.5615 16.0557 28.1592 18.541L29.8418 17.459C26.6445 12.4863 21.3223 10 16 10C10.6777 10 5.35547 12.4863 2.15918 17.459L3.8418 18.54C5.43945 16.0547 7.64648 14.2783 10.1143 13.21C9.40918 14.3027 9 15.6035 9 17C9 20.8662 12.1338 24 16 24C19.8662 24 23 20.8662 23 17C23 15.6035 22.5918 14.3027 21.8867 13.21ZM16 12C13.2383 12 11 14.2383 11 17C11 19.7617 13.2383 22 16 22C18.7617 22 21 19.7617 21 17C21 14.2383 18.7617 12 16 12Z" fill="black"/>
</svg>
