<svg width="32" height="32" viewBox="0 0 32 32" fill="none" xmlns="http://www.w3.org/2000/svg">
    <path fill-rule="evenodd" clip-rule="evenodd" d="M3.8418 11.46C9.44824 20.1807 22.5527 20.1797 28.1592 11.459L29.8418 12.541C28.8809 14.0371 27.7266 15.3076 26.4385 16.3535L28.833 19.9453L27.1689 21.0547L24.8086 17.5146C24.001 18.0176 23.1543 18.4434 22.2822 18.7939L23.458 22.7129L21.542 23.2871L20.3838 19.4268C19.2764 19.7227 18.1406 19.9043 17 19.9707V24H15V19.9707C13.8594 19.9033 12.7236 19.7217 11.6162 19.4258L10.458 23.2871L8.54199 22.7129L9.71777 18.7939C9.26855 18.6133 8.82617 18.4121 8.39258 18.1914C7.98438 17.9844 7.58398 17.7588 7.19238 17.5146L4.83203 21.0547L3.16797 19.9453L5.5625 16.3535C4.27441 15.3076 3.12109 14.0361 2.15918 12.541L3.8418 11.46Z" fill="black"/>
</svg>
