<svg width="32" height="32" viewBox="0 0 32 32" fill="none" xmlns="http://www.w3.org/2000/svg">
    <path d="M23 17V20.1295C23 23.924 19 27 16 27C13 27 9 23.924 9 20.1295L9 17" stroke="currentColor"
          stroke-width="2"/>
    <path d="M18.5 9.5C15 12.5 11.5 14.5 8 14.5003C8 8.62648 12.0435 5.94129 16 6.00097C19.7899 6.05814 23.5 8.6183 23.5 14C21.5 14 19 12 18.5 9.5Z"
          stroke="currentColor" stroke-width="2"/>
    <path d="M5 8V5H8" stroke="currentColor" stroke-width="2"/>
    <path d="M5 24V27H8" stroke="currentColor" stroke-width="2"/>
    <path d="M27 8V5H24" stroke="currentColor" stroke-width="2"/>
    <path d="M27 24V27H24" stroke="currentColor" stroke-width="2"/>
    <circle cx="13" cy="16" r="1" fill="currentColor"/>
    <circle cx="19" cy="16" r="1" fill="currentColor"/>
    <path d="M13 21C14.5 23 17.5 23 19 21" stroke="currentColor" stroke-width="2"/>
</svg>
