<svg width="32" height="32" viewBox="0 0 32 32" fill="none" xmlns="http://www.w3.org/2000/svg">
    <path fill-rule="evenodd" clip-rule="evenodd" d="M4 4H9V6H6V9H4V4ZM20 12.3158C20 13.4532 19.5905 15.2908 18.7517 16.8003C17.8914 18.3485 16.9211 19 15.9991 19C15.0784 19 14.1085 18.349 13.2482 16.8005C12.4095 15.2909 12 13.4532 12 12.3158C12 9.8882 13.7419 8 15.9991 8C18.2584 8 20 9.88867 20 12.3158ZM22 12.3158C22 15.2862 20 21 15.9991 21C12 21 10 15.2862 10 12.3158C10 8.95838 12.4703 6 15.9991 6C19.5295 6 22 8.95838 22 12.3158ZM15.9998 23.7973L10.028 19.8164L6.98535 21.642L8.01434 23.357L9.97172 22.1825L15.9998 26.201L22.028 22.1825L23.9854 23.357L25.0143 21.642L21.9717 19.8164L15.9998 23.7973ZM23 4H28V9H26V6H23V4ZM4 28H9V26H6V23H4V28ZM23 28H28V23H26V26H23V28Z" fill="black"/>
</svg>
