<svg width="24" height="24" viewBox="0 0 24 24" fill="none" xmlns="http://www.w3.org/2000/svg">
    <path fill-rule="evenodd" clip-rule="evenodd"
          d="M9 5.25C9 5.66421 8.66421 6 8.25 6C7.83579 6 7.5 5.66421 7.5 5.25C7.5 4.83579 7.83579 4.5 8.25 4.5C8.66421 4.5 9 4.83579 9 5.25ZM10.372 6C10.0631 6.87389 9.22966 7.5 8.25 7.5C7.27034 7.5 6.43691 6.87389 6.12803 6H3V4.5H6.12803C6.43691 3.62611 7.27034 3 8.25 3C9.22966 3 10.0631 3.62611 10.372 4.5H21V6H10.372ZM3 12.75H9.87803C10.1869 13.6239 11.0203 14.25 12 14.25C12.9797 14.25 13.8131 13.6239 14.122 12.75H21V11.25H14.122C13.8131 10.3761 12.9797 9.75 12 9.75C11.0203 9.75 10.1869 10.3761 9.87803 11.25H3V12.75ZM13.628 18H3V19.5H13.628C13.9369 20.3739 14.7703 21 15.75 21C16.7297 21 17.5631 20.3739 17.872 19.5H21V18H17.872C17.5631 17.1261 16.7297 16.5 15.75 16.5C14.7703 16.5 13.9369 17.1261 13.628 18ZM12 12.75C12.4142 12.75 12.75 12.4142 12.75 12C12.75 11.5858 12.4142 11.25 12 11.25C11.5858 11.25 11.25 11.5858 11.25 12C11.25 12.4142 11.5858 12.75 12 12.75ZM16.5 18.75C16.5 19.1642 16.1642 19.5 15.75 19.5C15.3358 19.5 15 19.1642 15 18.75C15 18.3358 15.3358 18 15.75 18C16.1642 18 16.5 18.3358 16.5 18.75Z"
          fill="black"/>
</svg>
