<svg width="32" height="32" viewBox="0 0 32 32" fill="none" xmlns="http://www.w3.org/2000/svg">
    <path fill-rule="evenodd" clip-rule="evenodd" d="M9.19128 1.83594L10.9008 2.58337C13.147 3.56546 15.0689 4.91414 16.3592 6.75073C17.6627 8.6061 18.2669 10.8829 17.9953 13.5991L16.0052 13.4001C16.2336 11.1164 15.7254 9.32776 14.7227 7.90044C13.9776 6.83989 12.9302 5.93789 11.6242 5.18237C11.5835 6.84772 11.1105 8.38817 10.4984 9.82829C10.0833 10.8049 9.59373 11.7586 9.12138 12.6761L9.09355 12.7302C8.62541 13.6394 8.17537 14.5135 7.79241 15.3972C7.01427 17.1929 6.56055 18.9262 6.84749 20.7845C7.13374 22.6385 8.18161 24.7673 10.7068 27.2925L9.29255 28.7067C6.56791 25.982 5.24087 23.4858 4.87091 21.0897C4.50164 18.6981 5.11042 16.5563 5.9573 14.602C6.36717 13.6562 6.84392 12.7303 7.30269 11.8393C7.31621 11.8131 7.32971 11.7868 7.3432 11.7606C7.82009 10.8344 8.27589 9.94433 8.65772 9.04597C9.41818 7.25675 9.84266 5.52854 9.5154 3.67335L9.19128 1.83594ZM21.5003 5.22641L23.1759 6.76249C29.5752 12.6288 29.4842 23.549 22.568 28.3226L21.3798 29.1427L21.0298 27.7421C20.5651 25.8826 19.6414 24.055 18.2931 22.7067L19.7073 21.2925C20.9838 22.569 21.9166 24.1565 22.5214 25.8C26.6623 21.9353 27.0128 14.7418 23.2912 9.84548C22.7684 12.8662 21.3143 15.8339 19.497 17.541C18.3471 18.6212 16.8638 19.3577 15.2851 18.9434C14.6 18.7637 13.9767 18.3869 13.4149 17.8302C13.3946 17.9548 13.3736 18.0785 13.3524 18.201C13.3112 18.4397 13.2688 18.6763 13.2268 18.9112C13.0278 20.0216 12.8361 21.0919 12.8121 22.1473C12.7837 23.396 12.9985 24.5027 13.6691 25.4552C14.3413 26.4101 15.5626 27.3392 17.801 28.046L17.1987 29.9532C14.6871 29.1601 13.0334 28.0266 12.0337 26.6065C11.0324 25.1841 10.7785 23.6032 10.8126 22.1019C10.8405 20.876 11.0662 19.6217 11.2663 18.5098C11.3064 18.2873 11.3454 18.0705 11.3816 17.8608C11.6124 16.5238 11.7212 15.508 11.5297 14.7422L13.4245 14.1189C14.2546 16.1347 15.1433 16.8385 15.7927 17.0089C16.4172 17.1728 17.2151 16.9405 18.1277 16.0833C19.963 14.3593 21.5 10.7615 21.5002 7.49957L21.5003 5.22641Z" fill="black"/>
</svg>
