<svg width="32" height="32" viewBox="0 0 32 32" fill="none" xmlns="http://www.w3.org/2000/svg">
    <path fill-rule="evenodd" clip-rule="evenodd" d="M20.2634 22.6621C22.3224 20.3743 24 17.331 24 14C24 9.58172 20.4183 6 16 6C11.5817 6 8 9.58172 8 14C8 17.331 9.67763 20.3743 11.7366 22.6621C12.7543 23.7929 13.8161 24.682 14.7032 25.2734C15.1477 25.5698 15.5209 25.7729 15.7986 25.8946C15.8855 25.9327 15.9521 25.958 16 25.9746C16.0479 25.958 16.1145 25.9327 16.2014 25.8946C16.4791 25.7729 16.8523 25.5698 17.2968 25.2734C18.1839 24.682 19.2457 23.7929 20.2634 22.6621ZM16 28C18 28 26 22 26 14C26 8.47715 21.5228 4 16 4C10.4772 4 6 8.47715 6 14C6 22 14 28 16 28Z" fill="black"/>
    <path fill-rule="evenodd" clip-rule="evenodd" d="M16 17C17.6569 17 19 15.6569 19 14C19 12.3431 17.6569 11 16 11C14.3431 11 13 12.3431 13 14C13 15.6569 14.3431 17 16 17ZM16 19C18.7614 19 21 16.7614 21 14C21 11.2386 18.7614 9 16 9C13.2386 9 11 11.2386 11 14C11 16.7614 13.2386 19 16 19Z" fill="black"/>
</svg>
