<svg width="32" height="32" viewBox="0 0 32 32" fill="none" xmlns="http://www.w3.org/2000/svg">
    <path fill-rule="evenodd" clip-rule="evenodd" d="M7.03811 7.9999H13.2973L8.89567 4.2271C7.86491 4.96796 7.19937 6.2056 7.03811 7.9999ZM5.00058 9.00943C4.97061 5.86348 6.09787 3.33317 8.55333 2.10547L9.65133 2.24064L16.0005 7.68279L22.3493 2.24065L23.4473 2.10547C25.9027 3.33318 27.0299 5.8635 26.9999 9.00942L26 9.99989H16.0005L16.0005 9.9999H6.00054L5.00058 9.00943ZM24.9624 7.99989H18.7036L23.105 4.22711C24.1356 4.96797 24.8011 6.2056 24.9624 7.99989ZM26 14H17V26H26V14ZM6 14H15V26H6V14ZM4 12V28H28V12H4Z" fill="black"/>
</svg>
