<svg width="32" height="32" viewBox="0 0 32 32" fill="none" xmlns="http://www.w3.org/2000/svg">
    <path fill-rule="evenodd" clip-rule="evenodd" d="M28 16C28 22.6274 22.6274 28 16 28C9.37258 28 4 22.6274 4 16C4 9.37258 9.37258 4 16 4C22.6274 4 28 9.37258 28 16ZM30 16C30 23.732 23.732 30 16 30C8.26801 30 2 23.732 2 16C2 8.26801 8.26801 2 16 2C23.732 2 30 8.26801 30 16ZM12 12C9.79086 12 8 13.7909 8 16C8 18.2091 9.79086 20 12 20C13.8638 20 15.4299 18.7252 15.874 17H12V15H18V16V17H17.917C17.441 19.8377 14.973 22 12 22C8.68629 22 6 19.3137 6 16C6 12.6863 8.68629 10 12 10C13.4679 10 14.815 10.5284 15.8575 11.4043L14.571 12.9356C13.8754 12.3511 12.98 12 12 12ZM26 15H24V13H22V15H20V17H22V19H24V17H26V15Z" fill="black"/>
</svg>
