<svg width="32" height="32" viewBox="0 0 32 32" fill="none" xmlns="http://www.w3.org/2000/svg">
<path fill-rule="evenodd" clip-rule="evenodd" d="M23.9904 7.92295L19 5.04175C17.1436 3.96996 14.8564 3.96996 13 5.04175L8.00961 7.92295C7.49811 8.21827 7.04073 8.58258 6.64647 9.0003H4.15137C4.83882 7.85558 5.81318 6.88166 7.00961 6.1909L12 3.3097C14.4752 1.88064 17.5248 1.88064 20 3.3097L24.9904 6.1909C27.4656 7.61996 28.9904 10.261 28.9904 13.1191V18.8815C28.9904 21.7396 27.4656 24.3806 24.9904 25.8097L20 28.6909C17.5248 30.12 14.4752 30.12 12 28.6909L7.00961 25.8097C5.81318 25.1189 4.83882 24.145 4.15137 23.0003H6.64647C7.04073 23.418 7.49811 23.7823 8.00961 24.0777L13 26.9589C14.8564 28.0306 17.1436 28.0306 19 26.9589L23.9904 24.0777C25.8468 23.0059 26.9904 21.0251 26.9904 18.8815V13.1191C26.9904 10.9755 25.8468 8.99475 23.9904 7.92295ZM3 10.9996H14V14.9996H3V10.9996ZM3 16.9996H23V20.9996H3V16.9996Z" fill="black"/>
</svg>
