<svg width="32" height="32" viewBox="0 0 32 32" fill="none" xmlns="http://www.w3.org/2000/svg">
    <path fill-rule="evenodd" clip-rule="evenodd" d="M4.60391 17.9323L4.58579 17.9142C3.3038 16.6322 2 14.649 2 11.5618C2 7.35826 5.47682 4 9.64307 4C11.5982 4 13.2734 4.91096 14.493 6.11755C15.087 6.70523 15.5987 7.38595 16.01 8.12067C16.4263 7.38533 16.942 6.70334 17.54 6.11439C18.7616 4.91125 20.4354 4 22.3909 4C26.573 4 30 7.37388 30 11.5618C30 14.649 28.6962 16.6322 27.4142 17.9142L27.3961 17.9323L16 28.7586L4.60391 17.9323ZM15 11C14.4221 8.43821 12.2606 6 9.64307 6C6.54958 6 4 8.49438 4 11.5618C4 14 5 15.5 6 16.5L16 26L26 16.5C27 15.5 28 14 28 11.5618C28 8.49438 25.4844 6 22.3909 6C19.7734 6 17.612 8.43821 17 11H15Z" fill="black"/>
</svg>
