<svg width="32" height="32" viewBox="0 0 32 32" fill="none" xmlns="http://www.w3.org/2000/svg">
    <path fill-rule="evenodd" clip-rule="evenodd" d="M26.2457 4.91047C24.6232 2.24491 21.2284 1.26804 18.4373 2.66359L14.5713 4.59658C13.5563 5.10407 12.3687 5.13586 11.328 4.6834C6.7991 2.7143 2.02486 6.91197 3.39804 11.6557L5.57457 19.1746C5.80321 19.9644 5.72597 20.8114 5.35825 21.5469C3.32435 25.6147 7.05135 30.176 11.4429 28.9937L14.0649 28.2877C14.6925 28.1188 15.3519 28.1053 15.9858 28.2484L19.5231 29.0472C24.4138 30.1515 28.2336 24.8417 25.6315 20.5559L25.1188 19.7115C24.234 18.2541 24.836 16.351 26.398 15.6677C29.0706 14.4984 30.099 11.2409 28.5822 8.74897L26.2457 4.91047ZM19.3317 4.45244C21.1924 3.52208 23.4557 4.17333 24.5374 5.95036L26.8738 9.78886C27.761 11.2463 27.1595 13.1515 25.5963 13.8354C22.9257 15.0038 21.8964 18.2577 23.4093 20.7494L23.9219 21.5939C25.6081 24.3711 23.1329 27.8119 19.9636 27.0963L16.4264 26.2976C15.4754 26.0828 14.4864 26.1031 13.545 26.3565L10.923 27.0624C8.19777 27.7961 5.88496 24.9656 7.1471 22.4413C7.73968 21.2561 7.86414 19.8913 7.4957 18.6185L5.31917 11.0996C4.41675 7.9821 7.55427 5.22349 10.5306 6.51754C12.1141 7.20603 13.9213 7.15766 15.4657 6.38544L19.3317 4.45244ZM19.9995 11C20.5518 11 20.9995 10.5523 20.9995 10C20.9995 9.44772 20.5518 9 19.9995 9C19.4472 9 18.9995 9.44772 18.9995 10C18.9995 10.5523 19.4472 11 19.9995 11ZM19.9995 13C21.6564 13 22.9995 11.6569 22.9995 10C22.9995 8.34315 21.6564 7 19.9995 7C18.3427 7 16.9995 8.34315 16.9995 10C16.9995 11.6569 18.3427 13 19.9995 13ZM10.9995 16V20C10.9995 22.2091 12.7904 24 14.9995 24C17.2087 24 18.9995 22.2091 18.9995 20V19H16.9995V20C16.9995 21.1046 16.1041 22 14.9995 22C13.8949 22 12.9995 21.1046 12.9995 20V16H16.9995V14H12.9995V10H10.9995V14H8.99951V16H10.9995Z" fill="black"/>
</svg>
