<svg width="32" height="32" viewBox="0 0 32 32" fill="none" xmlns="http://www.w3.org/2000/svg">
    <path fill-rule="evenodd" clip-rule="evenodd" d="M13 8C13 5.23858 15.2386 3 18 3C20.7614 3 23 5.23858 23 8V22C23 25.866 19.866 29 16 29C12.134 29 9 25.866 9 22V8H11V22C11 24.7614 13.2386 27 16 27C18.7614 27 21 24.7614 21 22V8C21 6.34315 19.6569 5 18 5C16.3431 5 15 6.34315 15 8V21C15 21.5523 15.4477 22 16 22C16.5523 22 17 21.5523 17 21V8H19V21C19 22.6569 17.6569 24 16 24C14.3431 24 13 22.6569 13 21V8Z" fill="black"/>
</svg>
