<svg width="32" height="32" viewBox="0 0 32 32" fill="none" xmlns="http://www.w3.org/2000/svg">
    <path fill-rule="evenodd" clip-rule="evenodd" d="M8 4H24V28H8V26H10V24H8H6V30H26V2H6V18H8H10V16H8V4ZM6 20H8H10V22H8H6V20ZM15 6H17V11H15V6ZM11 11C11 8.94965 12.2341 7.18757 14 6.41602V8.76387C13.3863 9.31319 13 10.1115 13 11C13 12.6568 14.3431 14 16 14C17.6569 14 19 12.6568 19 11C19 10.1115 18.6137 9.31319 18 8.76387V6.41602C19.7659 7.18757 21 8.94965 21 11C21 13.7614 18.7614 16 16 16C13.2386 16 11 13.7614 11 11ZM20 26V24H22V26H20Z" fill="black"/>
</svg>
