<svg width="32" height="32" viewBox="0 0 32 32" fill="none" xmlns="http://www.w3.org/2000/svg">
    <path fill-rule="evenodd" clip-rule="evenodd" d="M25.9434 16.073L28.9265 16.3902C28.9751 15.9334 29 15.4696 29 15C29 14.5304 28.9751 14.0666 28.9265 13.6098L25.9434 13.927C25.9807 14.2786 26 14.6365 26 15C26 15.3635 25.9807 15.7214 25.9434 16.073ZM23.788 8.72654L26.1228 6.84271C25.5394 6.11975 24.8802 5.46056 24.1573 4.87724L22.2735 7.21202C22.8305 7.66147 23.3385 8.16949 23.788 8.72654ZM17.073 5.05665L17.3902 2.07346C16.9334 2.0249 16.4696 2 16 2C15.5304 2 15.0666 2.0249 14.6098 2.07346L14.927 5.05665C15.2786 5.01927 15.6365 5 16 5C16.3635 5 16.7214 5.01927 17.073 5.05665ZM9.72654 7.21202L7.84271 4.87724C7.11975 5.46056 6.46056 6.11975 5.87724 6.84271L8.21202 8.72654C8.66147 8.16949 9.16949 7.66147 9.72654 7.21202ZM3 15C3 14.5304 3.0249 14.0666 3.07346 13.6098L6.05665 13.927C6.01927 14.2786 6 14.6365 6 15C6 15.3635 6.01927 15.7214 6.05665 16.073L3.07346 16.3902C3.0249 15.9334 3 15.4696 3 15ZM8.21202 21.2735L5.87724 23.1573C6.46056 23.8802 7.11975 24.5394 7.84271 25.1228L9.72654 22.788C9.16949 22.3385 8.66147 21.8305 8.21202 21.2735ZM22.2735 22.788L24.1573 25.1228C24.8802 24.5394 25.5394 23.8802 26.1228 23.1573L23.788 21.2735C23.3385 21.8305 22.8305 22.3385 22.2735 22.788ZM22 15C22 18.3137 19.3137 21 16 21C12.6863 21 10 18.3137 10 15C10 11.6863 12.6863 9 16 9C19.3137 9 22 11.6863 22 15ZM24 15C24 17.5264 22.8289 19.7792 21 21.2454V28.4142L19.4142 30H12.5858L11 28.4142V21.2454C9.17107 19.7792 8 17.5264 8 15C8 10.5817 11.5817 7 16 7C20.4183 7 24 10.5817 24 15ZM19 24.8673V22.4185C18.0736 22.7935 17.0609 23 16 23C14.9391 23 13.9264 22.7935 13 22.4185V24.1173L19 24.8673ZM19 26.8829L13 26.1329V27.5858L13.4142 28H18.5858L19 27.5858V26.8829Z" fill="black"/>
</svg>
