<svg width="32" height="32" viewBox="0 0 32 32" fill="none" xmlns="http://www.w3.org/2000/svg">
    <path fill-rule="evenodd" clip-rule="evenodd" d="M10 18C12.209 18 14 16.209 14 14C14 11.791 12.209 10 10 10C7.79102 10 6 11.791 6 14C6 16.209 7.79102 18 10 18ZM10 16C11.1045 16 12 15.1045 12 14C12 12.8955 11.1045 12 10 12C8.89551 12 8 12.8955 8 14C8 15.1045 8.89551 16 10 16Z" fill="black"/>
    <path fill-rule="evenodd" clip-rule="evenodd" d="M2 6V26H30V6H2ZM28 8H4V24H11.5049L16.8662 16.9902C17.624 15.999 18.916 15.5801 20.1113 15.9385L22.5322 16.665C22.7192 16.7207 22.9141 16.7207 23.0942 16.6689C23.2808 16.6152 23.4521 16.5078 23.583 16.3535L28 11.1328V8ZM28 14.2295L25.1099 17.6455C24.8257 17.9814 24.478 18.2432 24.0952 18.4229C23.4395 18.7314 22.6792 18.7979 21.9575 18.5811L19.5366 17.8545C19.3335 17.7939 19.1226 17.7998 18.9307 17.8643C18.7456 17.9268 18.5786 18.043 18.4546 18.2051L14.0229 24H28V14.2295Z" fill="black"/>
</svg>
