<svg width="32" height="32" viewBox="0 0 32 32" fill="none" xmlns="http://www.w3.org/2000/svg">
    <path fill-rule="evenodd" clip-rule="evenodd" d="M21.3909 5.86262C21.5553 5.76605 21.718 5.67294 21.8788 5.58335C23.2665 4.80985 24.5137 4.29675 25.5383 4.09571C26.5452 3.89813 27.4262 3.98612 27.9918 4.55176C28.5575 5.1174 28.6455 5.99836 28.4479 7.00526C28.2468 8.02984 27.7337 9.2771 26.9602 10.6648C26.8705 10.8258 26.7774 10.9885 26.6809 11.1529C28.9603 15.6555 28.2187 21.2951 24.456 25.0577C21.3251 28.1887 16.8945 29.2278 12.9009 28.1752C13.6493 27.6845 14.4199 27.1387 15.2043 26.5432C18.0125 26.7578 20.8941 25.7912 23.0418 23.6435C26.9471 19.7383 26.9471 13.4066 23.0418 9.50139C22.5401 8.99967 21.9983 8.56241 21.4268 8.18961C19.9894 9.11676 18.4091 10.3085 16.7771 11.7223L19.283 14.2282L9.89768 16.9886L12.6581 7.60329L15.3594 10.3046C16.7314 9.10968 18.0828 8.05345 19.3652 7.16367C20.0639 6.67887 20.7417 6.24375 21.3909 5.86262ZM25.4632 9.22912C26.0316 8.1443 26.3589 7.26454 26.4853 6.62017C26.5455 6.31355 26.5498 6.11701 26.5406 6.00303C26.4266 5.99373 26.23 5.99812 25.9234 6.05828C25.2791 6.18472 24.3993 6.51194 23.3145 7.08036C23.7108 7.38771 24.0922 7.72332 24.456 8.08717C24.82 8.45117 25.1557 8.83273 25.4632 9.22912ZM13.6262 11.3998L15.4865 13.2601L12.851 14.0353L13.6262 11.3998Z" fill="black"/>
    <path fill-rule="evenodd" clip-rule="evenodd" d="M10.5151 24.9556C11.9524 24.0285 13.5326 22.8369 15.1646 21.4232L12.6583 18.9169L22.0436 16.1565L19.2832 25.5419L16.5823 22.8409C14.274 24.8511 12.0241 26.4688 10.0633 27.5618C8.67556 28.3353 7.42827 28.8484 6.40366 29.0495C5.3968 29.247 4.51584 29.159 3.9502 28.5934C3.38456 28.0277 3.29657 27.1468 3.49413 26.1399C3.69516 25.1153 4.20831 23.868 4.98179 22.4803C5.07143 22.3195 5.16451 22.1569 5.26095 21.9926C2.98117 17.49 3.72267 11.85 7.48547 8.08717C10.6164 4.95624 15.047 3.9171 19.0406 4.96974C18.2922 5.46041 17.5215 6.00622 16.7372 6.60169C13.929 6.38712 11.0474 7.35368 8.89969 9.50139C4.99444 13.4066 4.99444 19.7383 8.89969 23.6435C9.40153 24.1454 9.94345 24.5827 10.5151 24.9556ZM6.4787 23.9163C5.91034 25.001 5.58313 25.8807 5.45671 26.525C5.39655 26.8316 5.39217 27.0281 5.40147 27.1421C5.51545 27.1514 5.71198 27.147 6.0186 27.0869C6.66291 26.9605 7.54262 26.6332 8.62736 26.0649C8.23099 25.7574 7.84945 25.4217 7.48547 25.0577C7.12163 24.6939 6.78604 24.3125 6.4787 23.9163ZM16.4548 19.885L18.3151 21.7454L19.0903 19.1099L16.4548 19.885Z" fill="black"/>
</svg>
