<svg width="32" height="32" viewBox="0 0 32 32" fill="none" xmlns="http://www.w3.org/2000/svg">
    <path fill-rule="evenodd" clip-rule="evenodd" d="M16.9688 7.75C16.6816 7.90918 16.3516 8 16 8C14.8955 8 14 7.10449 14 6C14 4.89551 14.8955 4 16 4C17.1045 4 18 4.89551 18 6C18 6.3418 17.9141 6.66309 17.7637 6.94434C17.6602 7.1377 17.5254 7.3125 17.3662 7.46191C17.2461 7.57324 17.1123 7.66992 16.9688 7.75ZM17.7139 9.61523C17.6406 9.65039 17.5654 9.68359 17.4893 9.71387C17.3311 9.77734 17.168 9.83105 17 9.87402V22.126C18.7256 22.5703 20 24.1367 20 26C20 28.209 18.209 30 16 30C13.791 30 12 28.209 12 26C12 24.1367 13.2744 22.5703 15 22.126V9.87402C14.957 9.86328 14.9141 9.85156 14.8711 9.83887C14.5518 9.74512 14.249 9.6123 13.9678 9.44629L9.44629 13.9678C9.79785 14.5635 10 15.2578 10 16C10 18.209 8.20898 20 6 20C3.79102 20 2 18.209 2 16C2 13.791 3.79102 12 6 12C6.74121 12 7.43555 12.2021 8.03125 12.5537L12.5537 8.03223C12.2021 7.43652 12 6.74219 12 6C12 3.79102 13.791 2 16 2C18.209 2 20 3.79102 20 6C20 6.74219 19.7979 7.43652 19.4463 8.03223L23.9678 12.5537C24.5635 12.2021 25.2578 12 26 12C28.209 12 30 13.791 30 16C30 18.209 28.209 20 26 20C23.791 20 22 18.209 22 16C22 15.2578 22.2021 14.5635 22.5537 13.9678L18.0322 9.44629C17.9746 9.48047 17.916 9.51367 17.8555 9.54492C17.8086 9.56934 17.7617 9.59277 17.7139 9.61523ZM16 28C17.1045 28 18 27.1045 18 26C18 25.4189 17.7529 24.8965 17.3574 24.5312C17.1484 24.3379 16.8984 24.1885 16.6221 24.0986C16.4258 24.0342 16.2168 24 16 24C15.502 24 15.0459 24.1826 14.6953 24.4844C14.2695 24.8506 14 25.3936 14 26C14 26.7666 14.4316 27.4326 15.0645 27.7686C15.3438 27.916 15.6621 28 16 28ZM8 16C8 17.1045 7.10449 18 6 18C5.43359 18 4.92188 17.7646 4.55859 17.3857C4.21289 17.0264 4 16.5381 4 16C4 14.8955 4.89551 14 6 14C7.10449 14 8 14.8955 8 16ZM26 18C27.1045 18 28 17.1045 28 16C28 15.8223 27.9766 15.6504 27.9336 15.4863C27.8594 15.207 27.7266 14.9521 27.5498 14.7354C27.1826 14.2871 26.625 14 26 14C24.8955 14 24 14.8955 24 16C24 17.1045 24.8955 18 26 18Z" fill="black"/>
</svg>
