<svg width="32" height="32" viewBox="0 0 32 32" fill="none" xmlns="http://www.w3.org/2000/svg">
    <path fill-rule="evenodd" clip-rule="evenodd" d="M22.8818 7.33031C20.8839 8.44386 18.4926 10.1885 16.017 12.4199L14.678 10.9344C17.2333 8.63102 19.7462 6.78829 21.9081 5.58335C23.2958 4.80985 24.543 4.29675 25.5676 4.09571C26.5745 3.89813 27.4555 3.98612 28.0211 4.55176C28.5868 5.1174 28.6748 5.99836 28.4772 7.00526C28.2761 8.02984 27.763 9.2771 26.9895 10.6648C26.8215 10.9663 26.6414 11.274 26.4498 11.5872L24.7438 10.5432C24.9223 10.2517 25.0886 9.96734 25.2426 9.69111C25.9665 8.39225 26.3707 7.3537 26.5146 6.62017C26.5748 6.31355 26.5791 6.11701 26.5699 6.00303C26.4559 5.99373 26.2593 5.99812 25.9527 6.05828C25.2192 6.20221 24.1806 6.60634 22.8818 7.33031ZM7.28668 22.5532C7.09691 22.8618 6.92058 23.1624 6.75804 23.454C6.03409 24.7529 5.62993 25.7915 5.486 26.525C5.42584 26.8316 5.42146 27.0281 5.43076 27.1421C5.54474 27.1514 5.74128 27.147 6.0479 27.0869C6.7814 26.943 7.81999 26.5388 9.11885 25.8148C11.1167 24.7013 13.5081 22.9566 15.9836 20.7252L17.3226 22.2108C14.7673 24.5141 12.2543 26.3569 10.0926 27.5618C8.70486 28.3353 7.45756 28.8484 6.43297 29.0495C5.4261 29.247 4.54513 29.159 3.97949 28.5934C3.41386 28.0277 3.32587 27.1468 3.52342 26.1399C3.72446 25.1153 4.2376 23.868 5.01108 22.4803C5.18845 22.1621 5.3793 21.8369 5.58296 21.5056L7.28668 22.5532Z" fill="black"/>
    <path fill-rule="evenodd" clip-rule="evenodd" d="M9.92747 16.9886L12.6879 7.60329L19.3128 14.2282L9.92747 16.9886ZM15.5163 13.2601L13.6559 11.3998L12.8808 14.0353L15.5163 13.2601Z" fill="black"/>
    <path fill-rule="evenodd" clip-rule="evenodd" d="M22.0734 16.1565L19.313 25.5419L12.6881 18.9169L22.0734 16.1565ZM16.4846 19.885L18.3449 21.7454L19.1201 19.1099L16.4846 19.885Z" fill="black"/>
    <path d="M8.92947 23.6436C5.02416 19.7383 5.02416 13.4068 8.92947 9.50151C11.0774 7.35361 13.959 6.38755 16.767 6.60196C17.5515 6.00672 18.3221 5.46051 19.0703 4.96988C15.0766 3.91716 10.6461 4.95642 7.51526 8.0873C2.82895 12.7736 2.82895 20.3716 7.51526 25.0579C8.43885 25.9815 9.47568 26.7227 10.5809 27.2824C11.23 26.9012 11.9077 26.4666 12.6066 25.9818C11.2645 25.4988 10.005 24.7192 8.92947 23.6436Z" fill="black"/>
    <path d="M15.234 26.5432C14.4496 27.1384 13.679 27.6847 12.9308 28.1753C16.9245 29.228 21.3549 28.1887 24.4858 25.0579C29.1721 20.3716 29.1721 12.7736 24.4858 8.0873C23.5622 7.16371 22.5254 6.42242 21.4202 5.86274C20.7711 6.24392 20.0937 6.67896 19.3949 7.16371C20.7369 7.64674 21.9961 8.42601 23.0716 9.50151C26.9769 13.4068 26.9769 19.7383 23.0716 23.6436C20.9237 25.7916 18.0421 26.7576 15.234 26.5432Z" fill="black"/>
</svg>
