<svg width="32" height="32" viewBox="0 0 32 32" fill="none" xmlns="http://www.w3.org/2000/svg">
    <path fill-rule="evenodd" clip-rule="evenodd" d="M20.7701 23.1547C23.123 20.5665 25 17.2805 25 14C25 9.1106 20.9597 5 16 5C11.0403 5 7 9.1106 7 14C7 17.2805 8.877 20.5665 11.2299 23.1547C12.3828 24.4228 13.5824 25.4469 14.5783 26.1385C15.0779 26.4854 15.4968 26.7283 15.8086 26.8758C15.8873 26.913 15.9508 26.9402 16 26.9598C16.0492 26.9402 16.1127 26.913 16.1914 26.8758C16.5032 26.7283 16.9221 26.4854 17.4217 26.1385C18.4176 25.4469 19.6172 24.4228 20.7701 23.1547ZM16 29C18 29 27 22 27 14C27 8.01692 22.0751 3 16 3C9.92487 3 5 8.01692 5 14C5 22 14 29 16 29Z" fill="black"/>
    <rect x="12" y="10" width="2" height="10" fill="black"/>
    <path fill-rule="evenodd" clip-rule="evenodd" d="M18 10H16V17V20H18V17H20C21.1045 17 22 16.1045 22 15V12C22 10.8955 21.1045 10 20 10H18ZM18 15H20V12H18V15Z" fill="black"/>
</svg>
