<svg width="32" height="32" viewBox="0 0 32 32" fill="none" xmlns="http://www.w3.org/2000/svg">
    <path fill-rule="evenodd" clip-rule="evenodd" d="M14.7275 6.65723C16.0937 8.02246 16.1855 10.8555 14.0205 13.0205C11.8555 15.1855 9.02246 15.0938 7.65723 13.7275C6.29102 12.3623 6.19922 9.5293 8.36426 7.36426C10.5293 5.19922 13.3623 5.29102 14.7275 6.65723ZM17.1475 11.9053C18.1396 9.55176 17.835 6.93555 16.1426 5.24219C13.7988 2.89941 9.68359 3.21582 6.9502 5.94922C4.21582 8.68359 3.89941 12.7988 6.24219 15.1416C7.93555 16.835 10.5518 17.1396 12.9053 16.1475L18.2637 21.5059L16.1426 23.627L17.5566 25.041L19.6777 22.9199L23.2129 26.4551L27.4561 22.2129L17.1475 11.9053ZM15.4346 14.4346L14.7275 15.1416L23.2129 23.627L24.627 22.2129L16.1416 13.7275L15.4346 14.4346ZM21.0918 28.5771L22.5059 27.1631L19.6777 24.335L18.2637 25.749L21.0918 28.5771Z" fill="black"/>
    <path d="M12.6067 7.36418C12.9972 7.75471 12.9972 8.38787 12.6067 8.7784C12.2161 9.16892 11.583 9.16892 11.1925 8.7784C10.8019 8.38787 10.8019 7.75471 11.1925 7.36418C11.583 6.97366 12.2161 6.97366 12.6067 7.36418Z" fill="black"/>
</svg>
