<svg width="32" height="32" viewBox="0 0 32 32" fill="none" xmlns="http://www.w3.org/2000/svg">
    <path fill-rule="evenodd" clip-rule="evenodd"
          d="M11.0002 17C14.3139 17 17.0002 14.3137 17.0002 11C17.0002 7.68629 14.3139 5 11.0002 5C7.68652 5 5.00023 7.68629 5.00023 11C5.00023 14.3137 7.68652 17 11.0002 17ZM17.3202 15.9056C18.3732 14.5509 19.0002 12.8487 19.0002 11C19.0002 6.58172 15.4185 3 11.0002 3C6.58195 3 3.00023 6.58172 3.00023 11C3.00023 15.4183 6.58195 19 11.0002 19C12.849 19 14.5513 18.3729 15.906 17.3198L17.5354 18.9492L16.1213 20.3633L26.0208 30.2628L30.2635 26.0201L20.364 16.1206L18.9496 17.535L17.3202 15.9056ZM18.95 20.3635L20.364 18.9494L20.3638 18.9492L20.364 18.9491L27.435 26.0201L26.0208 27.4343L18.95 20.3635Z"
          fill="black"/>
</svg>
