<svg width="32" height="32" viewBox="0 0 32 32" fill="none" xmlns="http://www.w3.org/2000/svg">
    <path fill-rule="evenodd" clip-rule="evenodd" d="M2.60046 21.5506C1.89121 19.8402 1.5 17.9652 1.5 16C1.5 14.0348 1.89121 12.1598 2.60046 10.4494C2.70624 10.1944 2.99877 10.0733 3.25385 10.1791C3.50893 10.2849 3.62997 10.5774 3.52419 10.8325C2.8644 12.4236 2.5 14.1686 2.5 16C2.5 17.8314 2.8644 19.5764 3.52419 21.1675C3.62997 21.4226 3.50893 21.7151 3.25385 21.8209C2.99877 21.9267 2.70624 21.8056 2.60046 21.5506ZM10.1791 28.7461C10.2849 28.4911 10.5774 28.37 10.8325 28.4758C12.4236 29.1356 14.1686 29.5 16 29.5C17.8314 29.5 19.5764 29.1356 21.1675 28.4758C21.4226 28.37 21.7151 28.4911 21.8209 28.7461C21.9267 29.0012 21.8056 29.2938 21.5506 29.3995C19.8402 30.1088 17.9652 30.5 16 30.5C14.0348 30.5 12.1598 30.1088 10.4494 29.3995C10.1944 29.2938 10.0733 29.0012 10.1791 28.7461ZM10.1791 3.25385C10.0733 2.99878 10.1944 2.70624 10.4494 2.60046C12.1598 1.89121 14.0348 1.5 16 1.5C17.9652 1.5 19.8402 1.89121 21.5506 2.60046C21.8056 2.70624 21.9267 2.99877 21.8209 3.25385C21.7151 3.50893 21.4226 3.62997 21.1675 3.52419C19.5764 2.8644 17.8314 2.5 16 2.5C14.1686 2.5 12.4236 2.8644 10.8325 3.52419C10.5774 3.62997 10.2849 3.50893 10.1791 3.25385ZM28.7461 21.8209C28.4911 21.7151 28.37 21.4226 28.4758 21.1675C29.1356 19.5764 29.5 17.8314 29.5 16C29.5 14.1686 29.1356 12.4236 28.4758 10.8325C28.37 10.5774 28.4911 10.2849 28.7461 10.1791C29.0012 10.0733 29.2938 10.1944 29.3995 10.4494C30.1088 12.1598 30.5 14.0348 30.5 16C30.5 17.9652 30.1088 19.8402 29.3995 21.5506C29.2938 21.8056 29.0012 21.9267 28.7461 21.8209Z" fill="black"/>
    <path fill-rule="evenodd" clip-rule="evenodd" d="M23.0713 23.0706C23.3623 22.7796 23.6318 22.4749 23.8799 22.1585C23.3574 21.8333 22.8477 21.5052 22.3506 21.1722L22.2197 21.0843C22.0693 20.9828 21.9189 20.8812 21.7705 20.7787C21.5996 20.6605 21.4307 20.5413 21.2627 20.4222C21.0234 20.2513 20.7861 20.0804 20.5527 19.9076C20.4541 20.0218 20.3516 20.1331 20.2432 20.2415C20.1328 20.3509 20.0244 20.4525 19.9082 20.5521C20.624 21.5199 21.3154 22.5365 21.9922 23.6107L22.1602 23.8783C22.3301 23.7455 22.4961 23.6068 22.6582 23.4622C22.7402 23.389 22.8213 23.3138 22.9014 23.2367C22.959 23.182 23.0156 23.1263 23.0713 23.0706ZM26.627 21.5794L26.6709 21.4964C28.4434 18.058 28.4434 13.9408 26.6709 10.5023L26.6602 10.4828L26.5508 10.2767L26.543 10.2611L26.5361 10.2484L26.4385 10.0736L26.415 10.0316C26.3672 9.9476 26.3174 9.86459 26.2666 9.78158C26.2139 9.69467 26.1602 9.60776 26.1045 9.52182C25.9697 9.31283 25.8281 9.1058 25.6797 8.90365C25.5156 8.681 25.3438 8.46322 25.1631 8.25033L25.8994 7.51401L24.4854 6.09994L23.749 6.83627C23.5645 6.68002 23.377 6.53061 23.1865 6.38705C22.6729 6.00229 22.1348 5.6644 21.5801 5.3724C18.124 3.556 13.9697 3.54135 10.5029 5.32846C10.2451 5.46127 9.99023 5.60385 9.74023 5.75717L9.50293 5.90756C9.07031 6.18686 8.65234 6.49643 8.25098 6.83627L7.51465 6.09994L6.10059 7.51401L6.83691 8.25033C6.68066 8.43393 6.53125 8.62143 6.3877 8.81283C6.00293 9.32651 5.66504 9.86459 5.37305 10.4193L5.3291 10.5023C3.55566 13.9417 3.55566 18.057 5.3291 21.4964C5.61328 22.0482 5.94434 22.5843 6.32031 23.0951C6.48438 23.3177 6.65723 23.5345 6.83789 23.7484L6.10059 24.4857L7.51465 25.8997L8.25098 25.1634C8.43457 25.3197 8.62207 25.4681 8.81348 25.6117C9.32715 25.9964 9.86523 26.3343 10.4199 26.6263L10.5029 26.6703C13.9424 28.4437 18.0566 28.4437 21.4961 26.6703C22.0479 26.3861 22.585 26.055 23.0957 25.679C23.3174 25.515 23.5361 25.3441 23.749 25.1634L24.4854 25.8997L25.8994 24.4857L25.1631 23.7494C25.3193 23.5648 25.4688 23.3773 25.6123 23.1859C25.9971 22.6722 26.335 22.1341 26.627 21.5794ZM24.9492 20.4681C26.3506 17.6624 26.3506 14.3363 24.9492 11.5306C23.7549 12.2728 22.6387 13.0296 21.5889 13.8128C21.8857 14.5726 22.0215 15.3812 21.9971 16.1869C21.9873 16.4994 21.9531 16.8109 21.8945 17.1195C21.8721 17.2386 21.8457 17.3578 21.8164 17.4759C21.7559 17.7152 21.6797 17.9525 21.5889 18.1859C21.791 18.3372 21.9961 18.4876 22.2041 18.6371C22.3828 18.766 22.5645 18.8939 22.7471 19.0208C23.0107 19.2044 23.2783 19.3871 23.5508 19.5687C23.7734 19.7171 23.999 19.8656 24.2275 20.013C24.4648 20.1654 24.7051 20.3167 24.9492 20.4681ZM23.0713 8.92807C23.3623 9.21908 23.6318 9.52377 23.8799 9.84018C23.6289 9.99545 23.3818 10.1517 23.1377 10.3089L22.71 10.5872L22.3662 10.8158C21.7422 11.2337 21.1387 11.6585 20.5527 12.0912C20.4541 11.9769 20.3516 11.8656 20.2432 11.7572C20.1328 11.6478 20.0244 11.5462 19.9082 11.4466C20.6826 10.3978 21.4297 9.29233 22.1592 8.11947C22.3496 8.26889 22.5361 8.42611 22.7168 8.59018C22.7949 8.66147 22.8711 8.73373 22.9473 8.80697L23.0713 8.92807ZM11.5312 7.05014C14.3369 5.64877 17.6631 5.64877 20.4688 7.05014C19.7275 8.24447 18.9697 9.36068 18.1865 10.4105C16.0342 9.56967 13.4961 10.0189 11.7578 11.7572C11.6494 11.8656 11.5459 11.9769 11.4473 12.0912C10.8008 11.6136 10.1318 11.1468 9.43945 10.6878C9.00879 10.4027 8.56934 10.1205 8.12012 9.84115C8.25293 9.67123 8.39258 9.50424 8.53809 9.34115C8.66406 9.20053 8.79395 9.06283 8.92871 8.92807C9.21973 8.63705 9.52441 8.36752 9.84082 8.11947C10.5703 9.29233 11.3174 10.3978 12.0918 11.4466C12.3408 11.2318 12.6035 11.0413 12.877 10.8744C13.1777 10.6908 13.4912 10.5355 13.8135 10.4105C13.4902 9.9769 13.1719 9.53256 12.8564 9.07651C12.4082 8.42709 11.9668 7.75229 11.5312 7.05014ZM7.05078 20.4681C5.64941 17.6624 5.64941 14.3363 7.05078 11.5306C7.40137 11.7484 7.74512 11.9681 8.08301 12.1888C8.89453 12.7191 9.66895 13.2591 10.4111 13.8128C9.8623 15.2152 9.86133 16.7826 10.4111 18.1859C9.88379 18.5794 9.33984 18.9662 8.77832 19.347L8.43164 19.5794C8.28906 19.6751 8.14453 19.7708 7.99902 19.8656C7.68848 20.0677 7.37207 20.2679 7.05078 20.4681ZM11.4473 19.9076C10.9336 20.2865 10.4072 20.6585 9.86523 21.0257C9.2998 21.4085 8.71875 21.7865 8.12012 22.1585C8.36816 22.4749 8.6377 22.7796 8.92871 23.0706C9.05078 23.1927 9.1748 23.3109 9.30176 23.4251L9.49609 23.597C9.60938 23.6937 9.72461 23.7874 9.84082 23.8792C10.1289 23.4154 10.4209 22.9613 10.7148 22.5179C11.165 21.8402 11.623 21.1859 12.0918 20.5521C12.0146 20.4857 11.9385 20.4163 11.8643 20.3451L11.7578 20.2415C11.7002 20.1839 11.6445 20.1263 11.5898 20.0677C11.541 20.015 11.4941 19.9622 11.4473 19.9076ZM12.5762 23.3333L12.3301 23.7005L12.1104 24.0374C12.0078 24.1947 11.9062 24.3538 11.8047 24.515L11.5312 24.9486C14.3369 26.3499 17.6631 26.3499 20.4688 24.9486C20.1875 24.4955 19.9043 24.054 19.6182 23.6234C19.2988 23.1439 18.9766 22.6771 18.6494 22.221C18.4961 22.0072 18.3418 21.7962 18.1865 21.5882C16.7832 22.138 15.2158 22.1371 13.8135 21.5882L13.5166 21.9925C13.1992 22.4281 12.8857 22.8744 12.5762 23.3333ZM18.8281 18.8275C20.3906 17.266 20.3906 14.7328 18.8281 13.1712C17.2666 11.6087 14.7334 11.6087 13.1719 13.1712C11.6094 14.7328 11.6094 17.266 13.1719 18.8275C14.7334 20.39 17.2666 20.39 18.8281 18.8275Z" fill="black"/>
</svg>
