<svg width="16" height="16" viewBox="0 0 16 16" fill="none" xmlns="http://www.w3.org/2000/svg">
    <path d="M5.39453 6.52539L6.52591 5.39401L10.4857 9.35384L9.35436 10.4852L5.39453 6.52539Z" fill="black"/>
    <path fill-rule="evenodd" clip-rule="evenodd" d="M4.40433 4.40457C3.85759 4.95131 3.85759 5.83775 4.40433 6.38449L6.1014 8.08156L4.68718 9.49578L2.99011 7.79871C1.66232 6.47092 1.66232 4.31814 2.99011 2.99035C4.3179 1.66256 6.47068 1.66256 7.79847 2.99035L9.49554 4.68742L8.08132 6.10164L6.38425 4.40457C5.83751 3.85783 4.95107 3.85783 4.40433 4.40457Z" fill="black"/>
    <path fill-rule="evenodd" clip-rule="evenodd" d="M11.4756 11.4753C12.0223 10.9286 12.0223 10.0421 11.4756 9.49539L9.77848 7.79832L11.1927 6.3841L12.8898 8.08117C14.2176 9.40896 14.2176 11.5617 12.8898 12.8895C11.562 14.2173 9.40921 14.2173 8.08142 12.8895L6.38434 11.1925L7.79856 9.77824L9.49563 11.4753C10.0424 12.0221 10.9288 12.0221 11.4756 11.4753Z" fill="black"/>
</svg>
