<svg width="32" height="32" viewBox="0 0 32 32" fill="none" xmlns="http://www.w3.org/2000/svg">
    <path fill-rule="evenodd" clip-rule="evenodd" d="M7.22656 7.71556C7.94336 5.51244 10.3096 4.42845 12.9033 4.89134L12.2549 10.6667H10.0996L9.80078 11.1013L9.79492 11.1081L9.78711 11.1199L9.76953 11.1482C9.75586 11.1687 9.74121 11.1951 9.72363 11.2253C9.68848 11.2868 9.64648 11.3669 9.59961 11.4685C9.50586 11.6726 9.39453 11.9607 9.28711 12.3484C9.07324 13.1247 8.87695 14.2986 8.87695 15.9997C8.87695 17.7009 9.07324 18.8757 9.28711 19.6511C9.34863 19.8747 9.41211 20.0652 9.47266 20.2253C9.5166 20.3435 9.55957 20.4451 9.59961 20.531C9.64648 20.6326 9.68848 20.7136 9.72363 20.7742L9.73535 20.7937C9.74707 20.8161 9.75879 20.8357 9.76953 20.8513L9.78711 20.8796L9.79492 20.8913C9.7998 20.8982 9.80176 20.9001 9.8584 20.862L9.80176 20.9011L10.0996 21.3327H12.2549L12.9033 27.1091C10.3096 27.571 7.94336 26.488 7.22656 24.2849C6.57129 22.2712 6 19.5105 6 15.9997C6 12.489 6.57129 9.72826 7.22656 7.71556ZM14.0439 12.6667H11.2793C11.2588 12.7302 11.2373 12.8015 11.2148 12.8806C11.0557 13.4587 10.877 14.4509 10.877 15.9997C10.877 17.5486 11.0557 18.5408 11.2148 19.1189L11.25 19.24L11.2793 19.3327H14.0439L15.0967 28.7234L13.377 29.0544C10.1006 29.6863 6.45996 28.3933 5.32422 24.9031C4.60742 22.7009 4 19.7312 4 15.9997C4 12.2683 4.60742 9.29954 5.32422 7.09642C6.45996 3.60619 10.1006 2.31419 13.377 2.94505L15.0967 3.27611L14.0439 12.6667ZM18 5.99974H28V7.99974H18V5.99974ZM18 23.9997H28V25.9997H18V23.9997ZM28 17.9997H18V19.9997H28V17.9997ZM18 11.9997H28V13.9997H18V11.9997Z" fill="black"/>
</svg>
