<svg width="32" height="32" viewBox="0 0 32 32" fill="none" xmlns="http://www.w3.org/2000/svg">
    <path fill-rule="evenodd" clip-rule="evenodd" d="M10 11V13H22V11C22 7.68629 19.3137 5 16 5C12.6863 5 10 7.68629 10 11ZM24 13H26V21C26 25.9706 21.9706 30 17 30H15C10.0294 30 6 25.9706 6 21V13H8V11C8 6.58172 11.5817 3 16 3C20.4183 3 24 6.58172 24 11V13ZM8 21V15H24V21C24 24.866 20.866 28 17 28H15C11.134 28 8 24.866 8 21ZM17 20.7324C17.5978 20.3866 18 19.7403 18 19C18 17.8954 17.1046 17 16 17C14.8954 17 14 17.8954 14 19C14 19.7403 14.4022 20.3866 15 20.7324V24H17V20.7324Z" fill="black"/>
</svg>
