<svg width="32" height="32" viewBox="0 0 32 32" fill="none" xmlns="http://www.w3.org/2000/svg">
    <path fill-rule="evenodd" clip-rule="evenodd"
          d="M18.0444 9.7429C15.6132 10.0057 13.0554 9.75353 11.1055 8.91784L11.8933 7.07955C13.4434 7.74385 15.6356 7.99165 17.8294 7.75448C20.0288 7.51671 22.064 6.80983 23.3592 5.73047L24.6396 7.26691C22.9348 8.68755 20.47 9.48067 18.0444 9.7429Z"
          fill="black"/>
    <path fill-rule="evenodd" clip-rule="evenodd"
          d="M18.6683 12.905C19.5513 11.4632 20 9.76583 20 8.78278C20 6.76692 18.2748 5 15.9992 5C13.7255 5 12 6.7666 12 8.78278C12 9.76571 12.4488 11.4631 13.3319 12.9051C14.2458 14.3975 15.2196 15 15.9992 15C16.7804 15 17.7546 14.397 18.6683 12.905ZM22 8.78278C22 11.6047 19.6638 17 15.9992 17C12.337 17 10 11.6047 10 8.78278C10 5.59325 12.691 3 15.9992 3C19.309 3 22 5.59325 22 8.78278Z"
          fill="black"/>
    <path fill-rule="evenodd" clip-rule="evenodd"
          d="M16 22.473L10.4778 18.4569L7.3256 20.6634L6.38384 26H25.6162L24.6744 20.6634L21.5222 18.4569L16 22.473ZM21.5 16L26.5 19.5L28 28H4L5.5 19.5L10.5 16L16 20L21.5 16Z"
          fill="black"/>
    <rect x="20" y="22" width="3" height="2" fill="black"/>
</svg>
