<svg width="32" height="32" viewBox="0 0 32 32" fill="none" xmlns="http://www.w3.org/2000/svg">
    <path fill-rule="evenodd" clip-rule="evenodd" d="M11.7728 13.9857C12.258 13.1741 12.5 12.1537 12.5 11.5C12.5 10.83 12.2707 10.3489 11.9687 10.0422C11.6712 9.74012 11.1982 9.5 10.5 9.5C9.80258 9.5 9.32941 9.74 9.03162 10.0423C8.72936 10.3492 8.5 10.8304 8.5 11.5C8.5 12.1532 8.74222 13.1736 9.22767 13.9854C9.71776 14.8049 10.1775 15 10.5 15C10.8236 15 11.2832 14.8046 11.7728 13.9857ZM10.5 17C13.1385 17 14.5 13.5318 14.5 11.5C14.5 9.20353 12.883 7.5 10.5 7.5C8.11807 7.5 6.5 9.20353 6.5 11.5C6.5 13.5318 7.86317 17 10.5 17Z" fill="black"/>
    <path fill-rule="evenodd" clip-rule="evenodd" d="M21.9701 13.0391C22.6587 11.9835 23 10.7325 23 10C23 8.42096 21.6274 7 19.9994 7C18.3729 7 17 8.42062 17 10C17 10.7321 17.3415 11.983 18.0305 13.0389C18.7332 14.1159 19.4525 14.5 20 14.5C20.5487 14.5 21.2679 14.1156 21.9701 13.0391ZM20 16.5C23.0538 16.5 25 12.3516 25 10C25 7.34205 22.7575 5 19.9994 5C17.2425 5 15 7.34205 15 10C15 12.3516 16.9481 16.5 20 16.5Z" fill="black"/>
    <path fill-rule="evenodd" clip-rule="evenodd" d="M20 19.1673L15.5 16L11.5 19L10 26H30L28.5 19L24.5 16L20 19.1673ZM26.7012 20.1509L24.4627 18.472L20 21.6131L15.5373 18.472L13.2988 20.1509L12.474 24H27.526L26.7012 20.1509Z" fill="black"/>
    <path d="M10.2143 25L10.6429 23H4.36092L4.8366 20.146L6.68261 18.8274L11.0672 21.0197L11.5 19L6.5 16.5L3 19L2 25H10.2143Z" fill="black"/>
</svg>
