<svg width="32" height="32" viewBox="0 0 32 32" fill="none" xmlns="http://www.w3.org/2000/svg">
    <circle cx="16" cy="9" r="1" fill="black"/>
    <path fill-rule="evenodd" clip-rule="evenodd" d="M19 9C19 9.67285 18.8271 10.3359 18.5352 10.9619C18.249 11.5732 17.8506 12.1484 17.3887 12.6621C16.9336 13.168 16.4648 13.5566 16.0938 13.8047L16 13.8652L15.9062 13.8047C15.5352 13.5566 15.0664 13.168 14.6113 12.6621C13.6777 11.624 13 10.3311 13 9C13 7.34277 14.3428 6 16 6C17.6572 6 19 7.34277 19 9ZM19.3701 13.4043C18.1416 15.0088 16.5752 16 16 16C15.2031 16 12.501 14.0947 11.4365 11.2969C11.4541 11.3428 11.4717 11.3887 11.4902 11.4346L11 11.3125V21.1875L21 23.6875V13.8115L19.3701 13.4043ZM20.4307 11.6221C20.4326 11.6182 20.4346 11.6133 20.4365 11.6094L22 12L27 9V23L22 26L10 23L5 26V12L10 9L11.0049 9.25098C11.001 9.16602 11 9.08594 11 9C11 6.23828 13.2383 4 16 4C18.7617 4 21 6.23828 21 9C21 9.9375 20.7803 10.8203 20.4307 11.6221ZM23 13.7324V23.0674L25 21.8672V12.5322L23 13.7324ZM9 21.2676V11.9326L7 13.1328V22.4678L9 21.2676Z" fill="black"/>
</svg>
