<svg width="32" height="32" viewBox="0 0 32 32" fill="none" xmlns="http://www.w3.org/2000/svg">
    <path d="M7 10C14.0681 11.2887 18.0095 11.2965 25 10M24 22C18.5 25 14 25 8 22" stroke="currentColor"
          stroke-width="2"/>
    <path d="M3 17C4.06012 17.7067 5.36998 18.4135 6.57657 18.9437C7.23678 19.2339 7.92686 18.6955 7.86157 17.9773L7.55043 14.5548C7.51908 14.2099 7.31141 13.9073 7.00323 13.7493C5.92718 13.1976 4.2812 12.2812 3 11"
          stroke="currentColor"
          stroke-width="2" />
    <path d="M29 17C27.9399 17.7067 26.63 18.4135 25.4234 18.9437C24.7632 19.2339 24.0731 18.6955 24.1384 17.9773L24.4496 14.5548C24.4809 14.2099 24.6886 13.9073 24.9968 13.7493C26.0728 13.1976 27.7188 12.2812 29 11"
          stroke="currentColor" stroke-width="2"/>
</svg>
