<svg width="32" height="32" viewBox="0 0 32 32" fill="none" xmlns="http://www.w3.org/2000/svg">
    <path fill-rule="evenodd" clip-rule="evenodd" d="M16 19C13.7909 19 12 17.2091 12 15H20C20 17.2091 18.2091 19 16 19ZM20 13V8C20 5.79086 18.2091 4 16 4C13.7909 4 12 5.79086 12 8V13H20ZM16 2C12.6863 2 10 4.68629 10 8V15C10 18.3137 12.6863 21 16 21C19.3137 21 22 18.3137 22 15V8C22 4.68629 19.3137 2 16 2ZM6 13H8V15C8 19.4183 11.5817 23 16 23C20.4183 23 24 19.4183 24 15V13H26V15C26 20.1853 22.0533 24.4489 17 24.9506V30H15V24.9506C9.94668 24.4489 6 20.1853 6 15V13Z" fill="black"/>
</svg>
