<svg width="32" height="32" viewBox="0 0 32 32" fill="none" xmlns="http://www.w3.org/2000/svg">
    <path fill-rule="evenodd" clip-rule="evenodd" d="M11.2092 17.8781C10.8186 17.958 10.4142 18 10 18C9.83173 18 9.66507 17.9931 9.5003 17.9795C6.42039 17.7256 4 15.1454 4 12C4 8.68629 6.68629 6 10 6C13.3137 6 16 8.68629 16 12C16 14.8995 13.9433 17.3186 11.2092 17.8781ZM10.0109 20C13.7338 19.995 16.8607 17.4471 17.748 14H21V16C21 16.5523 21.4477 17 22 17C22.5523 17 23 16.5523 23 16V14H26V26H8V19.748C8.56178 19.8926 9.14744 19.9777 9.74987 19.9962C9.83294 19.9987 9.91632 20 10 20L10.0109 20ZM28 12H23V11C23 8.23858 20.7614 6 18 6H15.2916C13.8814 4.75527 12.0289 4 10 4C5.58172 4 2 7.58172 2 12C2 14.9611 3.60879 17.5465 6 18.9297V28H28V12ZM18 8H16.9297C17.6104 9.17669 18 10.5429 18 12H21V11C21 9.34315 19.6569 8 18 8ZM9 11V7H11V11H14V13H9V12V11Z" fill="black"/>
</svg>
