<svg width="32" height="32" viewBox="0 0 32 32" fill="none" xmlns="http://www.w3.org/2000/svg">
    <path fill-rule="evenodd" clip-rule="evenodd" d="M22 11V23C22 25.2091 20.2091 27 18 27H14C11.7909 27 10 25.2091 10 23V11C10 7.68629 12.6863 5 16 5C19.3137 5 22 7.68629 22 11ZM8 11C8 6.58172 11.5817 3 16 3C20.4183 3 24 6.58172 24 11V23C24 26.3137 21.3137 29 18 29H14C10.6863 29 8 26.3137 8 23V11ZM16 19C15.4477 19 15 19.4477 15 20V23C15 23.5523 15.4477 24 16 24C16.5523 24 17 23.5523 17 23V20C17 19.4477 16.5523 19 16 19Z" fill="black"/>
</svg>
