<svg width="32" height="32" viewBox="0 0 32 32" fill="none" xmlns="http://www.w3.org/2000/svg">
    <path d="M12.452 5.08488C10.0385 5.8318 8.21773 7.82852 7.69004 10.3069L6.52281 15.7889L8.47556 16.2112L9.64279 10.7292C10.0197 8.95894 11.3203 7.53272 13.0442 6.9992L14.7952 6.45729L14.203 4.54297L12.452 5.08488Z" fill="black"/>
    <path d="M16.5592 11.2629C15.5495 11.1621 14.6259 11.838 14.4125 12.8339L13.4745 17.212L11.5234 16.7885L12.4615 12.4105C12.8883 10.4186 14.7355 9.06672 16.7548 9.26843L19.1091 9.50359L27.1213 10.5051L26.8767 12.4941L19.6576 11.5917L18.4918 16.6435L21.9801 21.0731C22.6137 21.8777 23.0308 22.8311 23.1917 23.8425L23.9872 28.8429L22.0121 29.1571L21.2166 24.1568C21.1093 23.4825 20.8312 22.8469 20.4088 22.3105L17.9149 19.1436L17.147 22.4712C16.9943 23.1329 16.6762 23.7444 16.2228 24.2482L12.2413 28.6721L10.758 27.3279L14.7395 22.9041C14.9662 22.6521 15.1253 22.3464 15.2016 22.0155L17.6577 11.3726L16.5592 11.2629Z" fill="black"/>
    <path d="M10.2695 19.8143L3.26953 27.3128L4.72827 28.6838L11.7282 21.1852L10.2695 19.8143Z" fill="black"/>
    <path d="M18.4067 8.49676C19.333 9.37197 20.9318 8.59646 21.5222 7.96584C22.1896 7.25308 22.2057 6.0846 21.3884 5.31231C20.5714 4.54038 19.4114 4.62805 18.7441 5.34082C18.1536 5.97143 17.4809 7.62196 18.4067 8.49676Z" fill="black"/>
</svg>
