<svg width="32" height="32" viewBox="0 0 32 32" fill="none" xmlns="http://www.w3.org/2000/svg">
    <path fill-rule="evenodd" clip-rule="evenodd" d="M4.0001 13L6.66671 12.9998L12 8.99986V22.9999L6.6668 19H4L4.0001 13ZM2 13C2 11.8954 2.89543 11 4 11L6 10.9999L12.4 6.19986C13.0592 5.70544 14 6.17582 14 6.99986V24.9999C14 25.8239 13.0592 26.2943 12.4 25.7999L6.00013 21H4C2.89543 21 2 20.1045 2 19V13ZM24.3035 16.1523L22.3035 13.1523L16.4858 16.6429L17.5148 18.3579L21.6972 15.8485L23.6972 18.8485L29.5148 15.3579L28.4858 13.6429L24.3035 16.1523ZM23.3101 6.66211L25.2939 9.63779L28.4705 7.65243L29.5305 9.34843L24.707 12.3631L22.6908 9.33876L17.5043 12.3642L16.4966 10.6367L23.3101 6.66211ZM22.6911 24.8388L29.5046 20.8643L28.4968 19.1367L23.3103 22.1622L21.2941 19.1379L16.4707 22.1525L17.5307 23.8485L20.7073 21.8631L22.6911 24.8388Z" fill="black"/>
</svg>
