<svg width="32" height="32" viewBox="0 0 32 32" fill="none" xmlns="http://www.w3.org/2000/svg">
    <path fill-rule="evenodd" clip-rule="evenodd" d="M28 16C28 22.6274 22.6274 28 16 28C9.37258 28 4 22.6274 4 16C4 9.37258 9.37258 4 16 4C22.6274 4 28 9.37258 28 16ZM30 16C30 23.732 23.732 30 16 30C8.26801 30 2 23.732 2 16C2 8.26801 8.26801 2 16 2C23.732 2 30 8.26801 30 16ZM16 14C17.1046 14 18 13.1046 18 12C18 10.8954 17.1046 10 16 10C14.8954 10 14 10.8954 14 12C14 13.1046 14.8954 14 16 14ZM16 16C18.2091 16 20 14.2091 20 12C20 9.79086 18.2091 8 16 8C13.7909 8 12 9.79086 12 12C12 14.2091 13.7909 16 16 16ZM11.2929 16.2929C10.9024 16.6834 10.9024 17.3166 11.2929 17.7071C12.2612 18.6754 13.4479 19.2924 14.6944 19.5579L12.0842 22.1681C11.6937 22.5586 11.6937 23.1918 12.0842 23.5823C12.4748 23.9728 13.1079 23.9728 13.4985 23.5823L16.1245 20.9562L18.7506 23.5823C19.1411 23.9728 19.7743 23.9728 20.1648 23.5823C20.5554 23.1918 20.5554 22.5586 20.1648 22.1681L17.5547 19.558C18.8013 19.2924 19.988 18.6755 20.9563 17.7071C21.3468 17.3166 21.3468 16.6834 20.9563 16.2929C20.5658 15.9024 19.9326 15.9024 19.5421 16.2929C17.6547 18.1803 14.5945 18.1803 12.7071 16.2929C12.3166 15.9024 11.6834 15.9024 11.2929 16.2929Z" fill="black"/>
</svg>
