<svg width="32" height="32" viewBox="0 0 32 32" fill="none" xmlns="http://www.w3.org/2000/svg">
<path fill-rule="evenodd" clip-rule="evenodd" d="M15.9998 27C22.0749 27 26.9998 22.0751 26.9998 16C26.9998 9.92487 22.0749 5 15.9998 5C9.92462 5 4.99976 9.92487 4.99976 16C4.99976 22.0751 9.92462 27 15.9998 27ZM15.9998 29C23.1795 29 28.9998 23.1797 28.9998 16C28.9998 8.8203 23.1795 3 15.9998 3C8.82005 3 2.99976 8.8203 2.99976 16C2.99976 23.1797 8.82005 29 15.9998 29Z" fill="black"/>
<path fill-rule="evenodd" clip-rule="evenodd" d="M22.0203 13.4141L20.6062 12L14.9495 17.6567L11.4138 14.1211L9.99976 15.5352L13.5349 19.0713L14.9495 20.4854L16.3635 19.0708L22.0203 13.4141Z" fill="black"/>
</svg>
