<svg width="32" height="32" viewBox="0 0 32 32" fill="none" xmlns="http://www.w3.org/2000/svg">
    <path fill-rule="evenodd" clip-rule="evenodd" d="M10 4.2041V27.7959V28H22V27.7959V4.2041V4H18V5H14V4H10V4.2041ZM8 4.1543C8 2.81445 9.12012 2 10.167 2H21.833C22.8799 2 24 2.81445 24 4.1543V27.8457C24 29.1855 22.8799 30 21.833 30H10.167C9.12012 30 8 29.1855 8 27.8457V4.1543ZM15 25H17C17.5527 25 18 25.4473 18 26C18 26.5527 17.5527 27 17 27H15C14.4473 27 14 26.5527 14 26C14 25.4473 14.4473 25 15 25Z" fill="black"/>
</svg>
