<svg width="32" height="32" viewBox="0 0 32 32" fill="none" xmlns="http://www.w3.org/2000/svg">
    <path fill-rule="evenodd" clip-rule="evenodd" d="M10 4V28H22V4H18V5H14V4H10ZM8 4.1543C8 2.81445 9.12012 2 10.167 2H21.833C22.8799 2 24 2.81445 24 4.1543V27.8457C24 28.4189 23.7959 28.8955 23.4795 29.2539C23.2451 29.5195 22.9482 29.7197 22.6289 29.8457C22.3721 29.9473 22.1006 30 21.833 30H10.167C9.12012 30 8 29.1855 8 27.8457V4.1543ZM15 25H17C17.3018 25 17.5723 25.1328 17.7549 25.3438C17.9072 25.5195 18 25.749 18 26C18 26.5527 17.5527 27 17 27H15C14.4473 27 14 26.5527 14 26C14 25.4473 14.4473 25 15 25Z" fill="black"/>
    <path fill-rule="evenodd" clip-rule="evenodd" d="M16 20C18.7617 20 21 17.7617 21 15C21 12.2383 18.7617 10 16 10C13.2383 10 11 12.2383 11 15C11 17.7617 13.2383 20 16 20ZM15.8877 15.1123C16.418 15.6426 16.7119 15.7021 16.7119 15.7021L17.1084 15.3057L18.4795 16.4092L17.7725 17.4697C17.7725 17.4697 16.5352 17.293 15.1211 15.8789C13.707 14.4648 13.5303 13.2266 13.5303 13.2266L14.5908 12.5195L15.6943 13.8906L15.2979 14.2881C15.2979 14.2881 15.3574 14.582 15.8877 15.1123Z" fill="black"/>
</svg>
