<svg width="32" height="32" viewBox="0 0 32 32" fill="none" xmlns="http://www.w3.org/2000/svg">
    <path fill-rule="evenodd" clip-rule="evenodd" d="M20.0001 2H19.0002L19.0001 2.99995C18.9999 7.08915 19 11.8952 19.0003 12.0028L19.003 13H20.0009H30V12C30 6.47716 25.5229 2 20.0001 2ZM27.9381 11H21.0009C21.0009 10.4997 21.0007 9.83735 21.0006 9.07335C21.0003 7.63013 21 5.82409 21.0001 4.06189C24.6187 4.51312 27.4869 7.38127 27.9381 11ZM4 18C4 12.8147 7.94668 8.5511 13 8.04938V19H23.9506C23.4489 24.0533 19.1853 28 14 28C8.47715 28 4 23.5228 4 18ZM14 6C7.37258 6 2 11.3726 2 18C2 24.6274 7.37258 30 14 30C20.6274 30 26 24.6274 26 18V17H15V6H14Z" fill="black"/>
</svg>
