<svg width="13" height="13" viewBox="0 0 13 13" fill="none" xmlns="http://www.w3.org/2000/svg">
<path fill-rule="evenodd" clip-rule="evenodd" d="M12.0208 4.53553C12.4113 4.14501 12.4113 3.51184 12.0208 3.12132L9.19239 0.292893C8.80186 -0.097631 8.1687 -0.0976311 7.77817 0.292893L5.65685 2.41421C5.26633 2.80474 4.63316 2.80474 4.24264 2.41421C3.85212 2.02369 3.21895 2.02369 2.82843 2.41421L0.707107 4.53553C0.316582 4.92606 0.316583 5.55922 0.707107 5.94975L2.82843 8.07107L0 10.8995V12.3137H1.41421L4.24264 9.48528L6.36396 11.6066C6.75449 11.9971 7.38765 11.9971 7.77817 11.6066L9.8995 9.48528C10.29 9.09476 10.29 8.46159 9.8995 8.07107C9.50897 7.68054 9.50897 7.04738 9.8995 6.65685L12.0208 4.53553ZM7.07107 3.82843L8.48528 2.41421L9.8995 3.82843L8.48528 5.24264C7.56164 6.16628 7.36618 7.54234 7.89888 8.65747L7.07107 9.48528L2.82843 5.24264L3.65624 4.41483C4.77137 4.94753 6.14743 4.75206 7.07107 3.82843Z" fill="black"/>
</svg>
