<svg width="32" height="32" viewBox="0 0 32 32" fill="none" xmlns="http://www.w3.org/2000/svg">
    <path fill-rule="evenodd" clip-rule="evenodd" d="M10 6H22C22.4297 6 22.7959 6.27051 22.9375 6.65137C22.9775 6.75977 23 6.87695 23 7V9H9V7C9 6.44727 9.44727 6 10 6ZM7 9V7C7 5.34277 8.34277 4 10 4H22C23.6572 4 25 5.34277 25 7V9H28H30V11V23V25H28H24V28H8V25H4H2V23V11V9H4H7ZM25 11H7H4V23H8V18H24V23H28V11H25ZM22 20H10V26H22V20ZM8.25 13.875C8.25 14.4961 7.74609 15 7.125 15C6.50391 15 6 14.4961 6 13.875C6 13.2539 6.50391 12.75 7.125 12.75C7.74609 12.75 8.25 13.2539 8.25 13.875ZM26 15V13H18V15H26Z" fill="black"/>
</svg>
