<svg width="32" height="32" viewBox="0 0 32 32" fill="none" xmlns="http://www.w3.org/2000/svg">
    <path fill-rule="evenodd" clip-rule="evenodd" d="M16 27C22.0751 27 27 22.0751 27 16C27 9.92487 22.0751 5 16 5C9.92487 5 5 9.92487 5 16C5 22.0751 9.92487 27 16 27ZM16 29C23.1797 29 29 23.1797 29 16C29 8.8203 23.1797 3 16 3C8.8203 3 3 8.8203 3 16C3 23.1797 8.8203 29 16 29Z" fill="black"/>
    <path fill-rule="evenodd" clip-rule="evenodd" d="M18.0822 8.29518C19.9746 8.82503 21.5001 10.3995 21.5001 12.4457C21.5001 14.4663 20.1303 15.7274 18.9298 16.5278C18.3958 16.8838 17.8358 17.1876 17.3712 17.4397C17.3062 17.4749 17.243 17.5092 17.1821 17.5424C16.6273 17.8451 16.3342 18.0259 16.2072 18.1529C16.0587 18.3015 16.0129 18.4987 16.0952 18.8283C16.1351 18.9876 16.1977 19.1362 16.2539 19.2486C16.2812 19.3032 16.3049 19.3451 16.32 19.3707C16.3275 19.3834 16.3328 19.3918 16.335 19.3954L16.3336 19.3934L16.3329 19.3923C16.3329 19.3923 16.3322 19.3911 15.5001 19.9458C14.6681 20.5005 14.6676 20.4999 14.6676 20.4999L14.6662 20.4977L14.664 20.4944L14.6584 20.4859L14.6432 20.462C14.6313 20.4432 14.616 20.4184 14.5982 20.3882C14.5625 20.3279 14.5159 20.2448 14.4651 20.143C14.365 19.9429 14.2401 19.6541 14.155 19.3134C13.9874 18.643 13.9416 17.5902 14.793 16.7387C15.166 16.3657 15.7479 16.0466 16.2244 15.7867C16.2901 15.7508 16.3561 15.715 16.4221 15.6791C16.8928 15.4235 17.3676 15.1656 17.8204 14.8637C18.8699 14.164 19.5001 13.4251 19.5001 12.4457C19.5001 11.4918 18.7756 10.5662 17.543 10.2211C16.3558 9.88871 14.7226 10.1375 13.2072 11.6529L11.793 10.2388C13.7777 8.25392 16.1444 7.75261 18.0822 8.29518ZM17.0428 22V24H15.0428V22H17.0428Z" fill="black"/>
</svg>
