<svg width="32" height="32" viewBox="0 0 32 32" fill="none" xmlns="http://www.w3.org/2000/svg">
    <path fill-rule="evenodd" clip-rule="evenodd"
          d="M8 5.5C7.44772 5.5 7 5.94772 7 6.5V9H5V6.5C5 4.84315 6.34315 3.5 8 3.5C9.65685 3.5 11 4.84315 11 6.5V7C12.6569 7 14 8.34315 14 10V15.5C14 17.1569 12.6569 18.5 11 18.5V29H7V27H9V16.5H11C11.5523 16.5 12 16.0523 12 15.5V10C12 9.44772 11.5523 9 11 9H9V6.5C9 5.94772 8.55228 5.5 8 5.5ZM14 3.5C15.6569 3.5 17 4.84315 17 6.5V7C18.6569 7 20 8.34315 20 10V15.5C20 17.1569 18.6569 18.5 17 18.5V29H15V18.5C15 17.3954 15.8954 16.5 17 16.5C17.5523 16.5 18 16.0523 18 15.5V10C18 9.44772 17.5523 9 17 9C15.8954 9 15 8.10457 15 7V6.5C15 5.94772 14.5523 5.5 14 5.5V3.5ZM20 3.5C21.6569 3.5 23 4.84315 23 6.5V7C24.6569 7 26 8.34315 26 10V15.5C26 17.1569 24.6569 18.5 23 18.5V29H21V18.5C21 17.3954 21.8954 16.5 23 16.5C23.5523 16.5 24 16.0523 24 15.5V10C24 9.44772 23.5523 9 23 9C21.8954 9 21 8.10457 21 7V6.5C21 5.94772 20.5523 5.5 20 5.5V3.5Z"
          fill="currentColor"/>
</svg>
