<svg width="32" height="32" viewBox="0 0 32 32" fill="none" xmlns="http://www.w3.org/2000/svg">
    <path fill-rule="evenodd" clip-rule="evenodd" d="M4 9C4 7.3433 5.3433 6 7 6H25C26.6567 6 28 7.3433 28 9V19C28 20.6567 26.6567 22 25 22H15.5858L10 27.5858V22H7C5.3433 22 4 20.6567 4 19V9ZM7 4C4.23873 4 2 6.23873 2 9V19C2 21.7613 4.23873 24 7 24H8V30H10.4142L16.4142 24H25C27.7613 24 30 21.7613 30 19V9C30 6.23873 27.7613 4 25 4H7ZM14 10H16H19V12H16V13H18V15H16V16H19V18H16H14V16V15V13V12V10ZM8 14H9.81818C10.1761 14 10.4533 13.8984 10.7185 13.685C10.9012 13.4947 11 13.2485 11 13.0297C11 12.7978 10.889 12.535 10.6846 12.3407C10.4347 12.1032 10.185 12 9.81818 12H8V14ZM9.81818 10H8H6V16V18H8V16H9.5L10.5 18H13L11.5292 15.5487C11.7158 15.44 11.8935 15.3129 12.0625 15.1683C12.625 14.6337 13 13.8614 13 13.0297C13 12.198 12.625 11.4257 12.0625 10.8911C11.4375 10.297 10.6932 10 9.81818 10ZM23.5 10C22.6181 10 21.6279 10.2702 20.8395 10.9291C20.0223 11.6121 19.5 12.6496 19.5 14C19.5 15.3504 20.0223 16.3879 20.8395 17.0709C21.6279 17.7298 22.6181 18 23.5 18C24.4248 18 25.2206 17.6697 25.7533 17.375C26.0255 17.2244 26.2458 17.0738 26.4004 16.959C26.4781 16.9013 26.5402 16.8519 26.5851 16.8149C26.6075 16.7964 26.6258 16.7809 26.6396 16.7691L26.6569 16.754L26.6631 16.7485L26.6655 16.7464L26.6671 16.745C26.6673 16.7448 26.6675 16.7446 26 16C25.3325 15.2554 25.3331 15.2549 25.3333 15.2547L25.3347 15.2534C25.3315 15.2562 25.3244 15.2622 25.3137 15.271C25.2921 15.2888 25.2563 15.3174 25.2078 15.3535C25.1099 15.4262 24.9648 15.5256 24.7852 15.625C24.414 15.8303 23.9598 16 23.5 16C22.9973 16 22.4874 15.8416 22.122 15.5362C21.7854 15.2549 21.5 14.7924 21.5 14C21.5 13.2076 21.7854 12.7451 22.122 12.4638C22.4874 12.1584 22.9973 12 23.5 12C23.9598 12 24.414 12.1697 24.7852 12.375C24.9648 12.4744 25.1099 12.5738 25.2078 12.6465C25.2563 12.6826 25.2921 12.7112 25.3137 12.729L25.3341 12.746L25.3353 12.7471L25.3366 12.7482C25.3369 12.7486 25.3357 12.7474 25.3341 12.746L25.3329 12.745C25.3327 12.7448 25.3325 12.7446 26 12C26.6675 11.2554 26.6668 11.2548 26.6666 11.2546L26.6655 11.2536L26.6631 11.2515L26.6569 11.246L26.6396 11.2309C26.6258 11.2191 26.6075 11.2036 26.5851 11.1851C26.5402 11.1481 26.4781 11.0987 26.4004 11.041C26.2458 10.9262 26.0255 10.7756 25.7533 10.625C25.2206 10.3303 24.4248 10 23.5 10Z" fill="black"/>
</svg>
