<svg width="32" height="32" viewBox="0 0 32 32" fill="none" xmlns="http://www.w3.org/2000/svg">
    <path fill-rule="evenodd" clip-rule="evenodd" d="M23.3164 3.44824L19.8115 4.61719C24.5703 6.20996 28 10.7041 28 15.999C28 20.6641 25.3379 24.7051 21.4551 26.6895L20.5449 24.9092C23.7852 23.2529 26 19.8838 26 15.999C26 11.5215 23.0566 7.73145 19 6.45703L18.8369 6.30859L20.4229 10.1152L18.5771 10.8838L15.6631 3.89062L22.6836 1.55078L23.3164 3.44824ZM11.4551 7.08887C8.21484 8.74512 6 12.1143 6 15.999C6 20.1709 8.55566 23.7471 12.1865 25.2461L10.5771 21.3838L12.4229 20.6152L15.3369 27.6084L8.31641 29.9482L7.68359 28.0508L11.0439 26.9307C6.88965 25.0439 4 20.8594 4 15.999C4 11.334 6.66211 7.29297 10.5449 5.30762L11.4551 7.08887Z" fill="black"/>
</svg>
