<svg width="32" height="32" viewBox="0 0 32 32" fill="none" xmlns="http://www.w3.org/2000/svg">
    <path fill-rule="evenodd" clip-rule="evenodd" d="M18 8.00049L13.0002 8L13 16L10.9834 15.9995L10.9839 17.9991L13.0005 17.9995L13.0002 20L10.9836 19.9995L10.9834 21.9995L13 22L13.0002 24H14.9834L14.9831 22L18.9829 21.9995L18.9832 19.9995L14.9834 20L14.9837 17.9995L17.9834 17.9991C20.9834 17.9991 23 16 23 13C23 10 21 8.00049 18 8.00049ZM17.9834 15.9995H14.9837L15.0002 10.0004H18C19.5633 10.0004 21 11 21 13C21 15 19.5467 15.9995 17.9834 15.9995Z" fill="black"/>
    <path fill-rule="evenodd" clip-rule="evenodd" d="M16 27C22.0751 27 27 22.0751 27 16C27 9.92487 22.0751 5 16 5C9.92487 5 5 9.92487 5 16C5 22.0751 9.92487 27 16 27ZM16 29C23.1797 29 29 23.1797 29 16C29 8.8203 23.1797 3 16 3C8.8203 3 3 8.8203 3 16C3 23.1797 8.8203 29 16 29Z" fill="black"/>
</svg>
