<svg width="32" height="32" viewBox="0 0 32 32" fill="none" xmlns="http://www.w3.org/2000/svg">
    <path fill-rule="evenodd" clip-rule="evenodd" d="M13.7256 3.54445C15.713 5.00192 17.0002 7.35082 17.0002 10.0005C17.0002 11.1058 16.7766 12.1563 16.3731 13.1113L18.2154 13.8897C18.7211 12.6929 19.0002 11.378 19.0002 10.0005C19.0002 6.68679 17.3874 3.74964 14.9083 1.93164L13.7256 3.54445ZM13.0001 9.99969C13.0001 8.69185 12.3735 7.53066 11.3999 6.79918L12.6013 5.2002C14.056 6.29318 15.0001 8.03632 15.0001 9.99969C15.0001 10.8512 14.8221 11.6637 14.5004 12.4001L12.6677 11.5993C12.8812 11.1107 13.0001 10.5704 13.0001 9.99969ZM7 10C7 8.89543 7.89543 8 9 8C10.1046 8 11 8.89543 11 10C11 10.7403 10.5978 11.3866 10 11.7324V16H30V28H2V16H8V11.7324C7.4022 11.3866 7 10.7403 7 10ZM28 18H4V26H28V18ZM16 22H18V24H16V22ZM22 22H20V24H22V22ZM24 22H26V24H24V22Z" fill="black"/>
</svg>
