<svg width="32" height="32" viewBox="0 0 32 32" fill="none" xmlns="http://www.w3.org/2000/svg">
    <path fill-rule="evenodd" clip-rule="evenodd" d="M15 12H17.4766C17.6455 12 17.8105 12.0283 17.9668 12.0791C18.1953 12.1543 18.4023 12.2793 18.5664 12.4375C18.8291 12.6904 19 13.0439 19 13.4678C19 13.8613 18.8271 14.2666 18.5303 14.5664C18.2666 14.833 17.8887 15 17.4766 15H17H15V12ZM13 15V11V10H17.4766C17.8428 10 18.1992 10.0566 18.5361 10.1621C19.0752 10.3301 19.5615 10.6201 19.9521 10.9951C20.5869 11.6055 21 12.4727 21 13.4678C21 14.4316 20.5869 15.3301 19.9521 15.9727C19.3174 16.6143 18.4287 17 17.4766 17H17H15V18H18V20H15V22H13V20H12V18H13V17H12V15H13Z" fill="black"/>
    <path fill-rule="evenodd" clip-rule="evenodd" d="M26 4H6V28H19.4141L26 21.4141V4ZM8 26V6H24V20H18V26H8ZM20 24.5859L22.5859 22H20V24.5859Z" fill="black"/>
</svg>
