<svg width="32" height="32" viewBox="0 0 32 32" fill="none" xmlns="http://www.w3.org/2000/svg">
    <path fill-rule="evenodd" clip-rule="evenodd" d="M7 13V9.28783L16 5.19692L25 9.28783V13C25 21.0522 19.6183 25.2422 16 26.8403C12.3817 25.2422 7 21.0522 7 13ZM5 8L16 3L27 8V13C27 22.75 20 27.5 16 29C12 27.5 5 22.75 5 13V8ZM13.2924 14.7065C12.1963 15.1935 11.1632 15.9907 10.2896 17.1138L8.71094 15.8859C10.6371 13.4095 13.2957 12.125 16.0003 12.125C18.7049 12.125 21.3635 13.4095 23.2896 15.8859L21.7109 17.1138C20.8372 15.9904 19.8038 15.1932 18.7074 14.7062C18.895 15.0979 19 15.5367 19 16C19 17.6569 17.6569 19 16 19C14.3431 19 13 17.6569 13 16C13 15.5368 13.105 15.0982 13.2924 14.7065ZM18 15C18 15.5523 17.5523 16 17 16C16.4477 16 16 15.5523 16 15C16 14.4477 16.4477 14 17 14C17.5523 14 18 14.4477 18 15Z" fill="black"/>
</svg>
