<svg width="32" height="32" viewBox="0 0 32 32" fill="none" xmlns="http://www.w3.org/2000/svg">
    <path fill-rule="evenodd" clip-rule="evenodd" d="M24 2H26V6H30V8H26V12H24V8H20V6H24V2ZM15 4L18 5.36364V7.56055L15 6.19692L6 10.2878V14C6 22.0522 11.3817 26.2422 15 27.8403C18.6183 26.2422 24 22.0522 24 14H26C26 23.75 19 28.5 15 30C11 28.5 4 23.75 4 14V9L15 4ZM12.2924 15.7065C11.1963 16.1935 10.1632 16.9907 9.28962 18.1138L7.71094 16.8859C9.6371 14.4095 12.2957 13.125 15.0003 13.125C17.7049 13.125 20.3635 14.4095 22.2896 16.8859L20.7109 18.1138C19.8372 16.9904 18.8038 16.1932 17.7074 15.7062C17.895 16.0979 18 16.5367 18 17C18 18.6569 16.6569 20 15 20C13.3431 20 12 18.6569 12 17C12 16.5368 12.105 16.0982 12.2924 15.7065ZM17 16C17 16.5523 16.5523 17 16 17C15.4477 17 15 16.5523 15 16C15 15.4477 15.4477 15 16 15C16.5523 15 17 15.4477 17 16Z" fill="black"/>
</svg>
