<svg width="32" height="32" viewBox="0 0 32 32" fill="none" xmlns="http://www.w3.org/2000/svg">
    <path fill-rule="evenodd" clip-rule="evenodd"
          d="M19.9706 13.6059L18.5564 12.1917L6.5356 24.2125L7.94982 25.6267L19.9706 13.6059ZM18.5564 9.36328L3.70718 24.2125L7.94982 28.4552L22.7991 13.6059L18.5564 9.36328Z"
          fill="black"/>
    <path fill-rule="evenodd" clip-rule="evenodd"
          d="M25.6277 24.9197L21.385 20.6771L19.9708 22.0913L24.2135 26.3339L25.6277 24.9197ZM21.385 17.8486L17.1424 22.0913L24.2135 29.1623L28.4561 24.9197L21.385 17.8486Z"
          fill="black"/>
    <path fill-rule="evenodd" clip-rule="evenodd"
          d="M20.6777 4.41421C18.725 6.36684 18.725 9.53266 20.6777 11.4853C22.6303 13.4379 25.7961 13.4379 27.7487 11.4853L29.1629 12.8995C26.4293 15.6332 21.9971 15.6332 19.2635 12.8995C16.5298 10.1658 16.5298 5.73367 19.2635 3L20.6777 4.41421Z"
          fill="black"/>
    <path d="M7.94997 7.24219L12.8997 12.1919L11.4855 13.6061L6.53576 8.6564L7.94997 7.24219Z" fill="black"/>
    <path d="M10.0711 5.12109L8.65685 3.70688L3 9.36373L4.41421 10.7779L10.0711 5.12109Z" fill="black"/>
</svg>
