<svg width="32" height="32" viewBox="0 0 32 32" fill="none" xmlns="http://www.w3.org/2000/svg">
    <path fill-rule="evenodd" clip-rule="evenodd" d="M16 20C18.2091 20 20 18.2091 20 16C20 13.7909 18.2091 12 16 12C13.7909 12 12 13.7909 12 16C12 18.2091 13.7909 20 16 20ZM16 22C19.3137 22 22 19.3137 22 16C22 12.6863 19.3137 10 16 10C12.6863 10 10 12.6863 10 16C10 19.3137 12.6863 22 16 22Z" fill="black"/>
    <path fill-rule="evenodd" clip-rule="evenodd" d="M14.9742 4C14.8156 5.20668 13.9462 6.14573 12.8795 6.49576C12.399 6.65342 11.9343 6.8468 11.4884 7.07283C10.4854 7.58119 9.20537 7.53139 8.23981 6.7893L6.7893 8.23981C7.53139 9.20537 7.58119 10.4854 7.07283 11.4884C6.8468 11.9343 6.65342 12.399 6.49576 12.8795C6.14573 13.9462 5.20668 14.8156 4 14.9742V17.0258C5.20667 17.1844 6.14575 18.0538 6.49576 19.1205C6.65346 19.6012 6.84686 20.066 7.07289 20.5122C7.58091 21.515 7.53087 22.7945 6.78926 23.7597L8.23987 25.2103C9.20537 24.4686 10.485 24.419 11.4876 24.9269C11.9336 25.1529 12.3987 25.3463 12.8799 25.5042C13.9469 25.8543 14.8158 26.7936 14.9742 28H17.0258C17.1844 26.7933 18.0538 25.8543 19.1205 25.5042C19.601 25.3466 20.0657 25.1532 20.5116 24.9272C21.5144 24.4189 22.7941 24.4686 23.7596 25.2103L25.2103 23.7596C24.4686 22.7941 24.4189 21.5144 24.9272 20.5116C25.1532 20.0657 25.3466 19.601 25.5042 19.1205C25.8543 18.0538 26.7933 17.1844 28 17.0258V14.9742C26.7936 14.8158 25.8543 13.9469 25.5042 12.8799C25.3463 12.3987 25.1529 11.9336 24.9269 11.4876C24.419 10.485 24.4686 9.20537 25.2103 8.23987L23.7597 6.78926C22.7945 7.53087 21.515 7.58091 20.5122 7.07289C20.066 6.84686 19.6012 6.65346 19.1205 6.49576C18.0538 6.14575 17.1844 5.20667 17.0258 4H14.9742ZM14 2C13.4477 2 13 2.44772 13 3V3.60259C13 4.05893 12.6895 4.45317 12.2559 4.59545C11.6781 4.78507 11.1196 5.0175 10.5841 5.28891C10.1771 5.49525 9.67869 5.43602 9.35597 5.1133L8.92879 4.68611C8.53826 4.29559 7.9051 4.29559 7.51457 4.68611L4.68611 7.51457C4.29559 7.9051 4.29559 8.53826 4.68611 8.92879L5.1133 9.35597C5.43602 9.67869 5.49525 10.1771 5.28891 10.5841C5.0175 11.1196 4.78507 11.6781 4.59545 12.2559C4.45317 12.6895 4.05893 13 3.60259 13H3C2.44772 13 2 13.4477 2 14V18C2 18.5523 2.44772 19 3 19H3.60259C4.05893 19 4.45317 19.3105 4.59544 19.7441C4.78507 20.322 5.01748 20.8805 5.28877 21.416C5.49496 21.823 5.43564 22.3212 5.11303 22.6438L4.68611 23.0707C4.29559 23.4613 4.29559 24.0944 4.68611 24.4849L7.51457 27.3134C7.9051 27.7039 8.53826 27.7039 8.92879 27.3134L9.35549 26.8867C9.67821 26.564 10.1766 26.5047 10.5837 26.711C11.1194 26.9824 11.6782 27.2148 12.2563 27.4045C12.6897 27.5467 13 27.9409 13 28.3971V29C13 29.5523 13.4477 30 14 30H18C18.5523 30 19 29.5523 19 29V28.3974C19 27.9411 19.3105 27.5468 19.7441 27.4046C20.3219 27.2149 20.8804 26.9825 21.4159 26.7111C21.8229 26.5047 22.3213 26.564 22.644 26.8867L23.0707 27.3134C23.4613 27.7039 24.0944 27.7039 24.4849 27.3134L27.3134 24.4849C27.7039 24.0944 27.7039 23.4613 27.3134 23.0707L26.8867 22.644C26.564 22.3213 26.5047 21.8229 26.7111 21.4159C26.9825 20.8804 27.2149 20.3219 27.4046 19.7441C27.5468 19.3105 27.9411 19 28.3974 19H29C29.5523 19 30 18.5523 30 18V14C30 13.4477 29.5523 13 29 13H28.3971C27.9409 13 27.5467 12.6897 27.4045 12.2563C27.2148 11.6782 26.9824 11.1194 26.711 10.5837C26.5047 10.1766 26.564 9.67821 26.8867 9.35549L27.3134 8.92879C27.7039 8.53826 27.7039 7.9051 27.3134 7.51457L24.4849 4.68611C24.0944 4.29559 23.4613 4.29559 23.0707 4.68611L22.6438 5.11303C22.3212 5.43564 21.823 5.49496 21.416 5.28877C20.8805 5.01748 20.322 4.78507 19.7441 4.59544C19.3105 4.45317 19 4.05893 19 3.60259V3C19 2.44772 18.5523 2 18 2H14Z" fill="black"/>
</svg>
