<svg width="32" height="32" viewBox="0 0 32 32" fill="none" xmlns="http://www.w3.org/2000/svg">
    <path fill-rule="evenodd" clip-rule="evenodd" d="M5.39453 10.4473C5.6582 9.91895 8.20215 7 16 7C23.7969 7 26.3408 9.91895 26.6055 10.4473C26.8545 10.9453 27.0195 12.2861 25.6924 13.8594L20.6807 12.3174L21.2139 9.97168L20.6592 9.58691C19.8438 9.02148 18.1182 8.5 16 8.5C13.8818 8.5 12.1562 9.02148 11.3408 9.58691L10.7861 9.97168L11.3174 12.3115L9.52148 12.8555C8.40234 13.1963 7.15723 13.5791 6.30078 13.8516C4.98047 12.2822 5.14551 10.9453 5.39453 10.4473ZM11.9844 14.1992L12.7871 13.958L13.6826 13.6895L13.0605 10.9561C13.6797 10.7305 14.6934 10.5 16 10.5C17.3066 10.5 18.3203 10.7305 18.9395 10.9561L18.3193 13.6826L25.1494 15.7842L26.9688 23.9697L26.3887 26H5.61133L5.03125 23.9697L6.85254 15.7744C7.6875 15.5088 8.9502 15.1201 10.1035 14.7695L11.9844 14.1992ZM4.90918 15.2988C3.03125 13.1709 2.92188 10.9209 3.60547 9.55273C4.34082 8.08105 7.79688 5 16 5C24.2021 5 27.6582 8.08105 28.3945 9.55273C29.0791 10.9209 28.9688 13.1709 27.0908 15.2988L29.0312 24.0312L27.8975 28H4.10254L2.96875 24.0312L4.90918 15.2988Z" fill="black"/>
    <path d="M17 16H15V24H17V16Z" fill="black"/>
    <path fill-rule="evenodd" clip-rule="evenodd" d="M18 16H19H20H21.5C23.5 16 24.5 17.3691 24.5 19C24.5 20.6309 23.5 22 21.5 22H20V24H18V16ZM20 20H21.5C21.7568 20 22.5 20 22.5 19C22.5 18 21.7568 18 21.5 18H20V20Z" fill="black"/>
    <path fill-rule="evenodd" clip-rule="evenodd" d="M8.9413 16.6132C9.34226 16.2122 9.88652 16 10.5 16H13.4999L13.4999 18H10.5C10.4246 18 10.3862 18.0123 10.3727 18.0176C10.3605 18.0223 10.3571 18.0258 10.3557 18.0273C10.3514 18.0315 10.3177 18.0704 10.3063 18.1729C10.2949 18.276 10.3134 18.3917 10.3556 18.4846C10.3973 18.5762 10.4401 18.602 10.4472 18.6056L12.4472 19.6056C13.4171 20.0905 13.75 21.1692 13.75 21.9375C13.75 22.3481 13.6616 22.8174 13.4047 23.2187C13.1256 23.6549 12.6425 24 12 24H8.00051L8 22H11.7478C11.7491 21.9812 11.75 21.9603 11.75 21.9375C11.75 21.7955 11.7167 21.6494 11.6627 21.5378C11.6088 21.4267 11.5596 21.3978 11.5528 21.3944L9.55275 20.3944C8.57933 19.9077 8.22332 18.8094 8.31858 17.9521C8.36969 17.4921 8.55494 16.9996 8.9413 16.6132Z" fill="black"/>
</svg>
