<svg width="19" height="19" viewBox="0 0 19 19" fill="none" xmlns="http://www.w3.org/2000/svg">
  <g>
    <path 
      fill-rule="evenodd" 
      clip-rule="evenodd"
      d="M10.9568 4.35717C11.868 3.44595 13.3454 3.44595 14.2566 4.35717L16.8493 6.9499C18.0209 8.12147 18.0209 10.021 16.8493 11.1925L13.3138 14.7281C10.9706 17.0712 7.17164 17.0712 4.8285 14.7281C2.48535 12.3849 2.48535 8.58594 4.8285 6.24279L9.07114 2.00015L10.4854 3.41436L6.24271 7.65701C4.68061 9.2191 4.68061 11.7518 6.24271 13.3139C7.80481 14.876 10.3375 14.876 11.8996 13.3139L15.4351 9.77833C15.8256 9.3878 15.8256 8.75464 15.4351 8.36411L12.8424 5.77139C12.7122 5.64121 12.5011 5.64121 12.371 5.77139L9.07114 9.07122C8.68061 9.46174 8.68061 10.0949 9.07114 10.4854C9.46166 10.876 10.0948 10.876 10.4854 10.4854L12.6067 8.36411L14.0209 9.77833L11.8996 11.8996C10.728 13.0712 8.8285 13.0712 7.65692 11.8996C6.48535 10.7281 6.48535 8.82858 7.65692 7.65701L10.9568 4.35717Z"
      fill="black" />
  </g>
</svg>