<svg width="32" height="32" viewBox="0 0 32 32" fill="none" xmlns="http://www.w3.org/2000/svg">
    <path fill-rule="evenodd" clip-rule="evenodd" d="M7.0001 13.0019L9.66671 13.0018L15 9.00182V23.0018L9.6668 19.0019H7L7.0001 13.0019ZM5 13.0019C5 11.8973 5.89543 11.0019 7 11.0019L9 11.0018L15.4 6.20182C16.0592 5.70739 17 6.17777 17 7.00182V25.0018C17 25.8259 16.0592 26.2962 15.4 25.8018L9.00013 21.0019H7C5.89543 21.0019 5 20.1065 5 19.0019V13.0019ZM28.0003 16.001C28.0003 19.4922 26.3739 22.6036 23.8374 24.6187L22.5879 23.0569C24.6669 21.4083 26.0003 18.8604 26.0003 16.001C26.0003 13.0562 24.586 10.4417 22.3995 8.79973L23.6495 7.2373C26.2933 9.24631 28.0003 12.4243 28.0003 16.001ZM24.0003 16.001C24.0003 18.2285 22.9599 20.213 21.3384 21.4951L20.089 19.9332C21.2529 19.0177 22.0003 17.5967 22.0003 16.001C22.0003 14.3199 21.1707 12.8325 19.8984 11.9261L21.1493 10.3625C22.8785 11.6371 24.0003 13.688 24.0003 16.001Z" fill="black"/>
</svg>
