<svg width="32" height="32" viewBox="0 0 32 32" fill="none" xmlns="http://www.w3.org/2000/svg">
    <path fill-rule="evenodd" clip-rule="evenodd" d="M16 7C9.37258 7 4 12.3726 4 19C4 21.3537 4.67661 23.5463 5.84554 25.3975L4.15446 26.4653C2.78967 24.3039 2 21.7427 2 19C2 11.268 8.26801 5 16 5C23.732 5 30 11.268 30 19C30 21.7427 29.2103 24.3039 27.8455 26.4653L26.1545 25.3975C27.3234 23.5463 28 21.3537 28 19C28 12.3726 22.6274 7 16 7Z" fill="black"/>
    <path fill-rule="evenodd" clip-rule="evenodd" d="M14.9226 8.05217C15.2773 8.01764 15.6368 8 16 8C16.3632 8 16.7227 8.01764 17.0774 8.05217L16.8837 10.0428C16.5932 10.0145 16.2985 10 16 10C15.7015 10 15.4068 10.0145 15.1163 10.0428L14.9226 8.05217ZM19.1938 8.47109C19.89 8.68203 20.5569 8.96004 21.187 9.2975L20.2427 11.0605C19.7275 10.7846 19.1825 10.5575 18.6139 10.3852L19.1938 8.47109ZM10.813 9.2975C11.4431 8.96004 12.11 8.68203 12.8062 8.47109L13.3861 10.3852C12.8175 10.5575 12.2725 10.7846 11.7573 11.0605L10.813 9.2975ZM7.49695 12.0211C7.95408 11.4648 8.46476 10.9541 9.02114 10.4969L10.2908 12.0423C9.83505 12.4167 9.4167 12.8351 9.04225 13.2908L7.49695 12.0211ZM22.9789 10.4969C23.5352 10.9541 24.0459 11.4648 24.5031 12.0211L22.9577 13.2908C22.5833 12.8351 22.1649 12.4167 21.7092 12.0423L22.9789 10.4969ZM5.47109 15.8062C5.68203 15.11 5.96004 14.4431 6.2975 13.813L8.06053 14.7573C7.78459 15.2725 7.55745 15.8175 7.38517 16.3861L5.47109 15.8062ZM25.7025 13.813C26.04 14.4431 26.318 15.11 26.5289 15.8062L24.6148 16.3861C24.4425 15.8175 24.2154 15.2725 23.9395 14.7573L25.7025 13.813ZM5 19C5 18.6368 5.01764 18.2773 5.05217 17.9226L7.04276 18.1163C7.01449 18.4068 7 18.7015 7 19C7 19.2985 7.01449 19.5932 7.04276 19.8837L5.05217 20.0774C5.01764 19.7227 5 19.3632 5 19ZM26.9478 17.9226C26.9824 18.2773 27 18.6368 27 19C27 19.3632 26.9824 19.7227 26.9478 20.0774L24.9572 19.8837C24.9855 19.5932 25 19.2985 25 19C25 18.7015 24.9855 18.4068 24.9572 18.1163L26.9478 17.9226ZM6.2975 24.187C5.96004 23.5569 5.68203 22.89 5.47109 22.1938L7.38517 21.6139C7.55745 22.1825 7.78459 22.7275 8.06053 23.2427L6.2975 24.187Z" fill="black"/>
    <path fill-rule="evenodd" clip-rule="evenodd" d="M18 19C18 20.1045 17.1045 21 16 21C14.8955 21 14 20.1045 14 19C14 17.8955 14.8955 17 16 17C16.459 17 16.8818 17.1543 17.2197 17.4141C17.6943 17.7803 18 18.3545 18 19ZM18.9131 21.7412C18.1836 22.5166 17.1484 23 16 23C13.791 23 12 21.209 12 19C12 16.791 13.791 15 16 15C18.209 15 20 16.791 20 19C20 19.3408 19.957 19.6729 19.877 19.9893L25.4873 23.1279L24.5107 24.873L18.9131 21.7412Z" fill="black"/>
</svg>
