<svg width="32" height="32" viewBox="0 0 32 32" fill="none" xmlns="http://www.w3.org/2000/svg">
    <path fill-rule="evenodd" clip-rule="evenodd" d="M6.40635 7.3273C6.16028 7.16863 6.05975 7.05624 6.02019 7C6.05975 6.94376 6.16028 6.83137 6.40635 6.6727C6.84108 6.39239 7.5364 6.10214 8.48494 5.84344C10.3677 5.32996 13.025 5 16 5C18.975 5 21.6323 5.32996 23.5151 5.84344C24.4636 6.10214 25.1589 6.39239 25.5937 6.6727C25.8397 6.83136 25.9402 6.94376 25.9798 7C25.9402 7.05624 25.8397 7.16864 25.5937 7.3273C25.1589 7.60761 24.4636 7.89786 23.5151 8.15656C21.6323 8.67003 18.975 9 16 9C13.025 9 10.3677 8.67003 8.48494 8.15656C7.5364 7.89786 6.84108 7.60761 6.40635 7.3273ZM16 3C12.8998 3 10.0572 3.34161 7.95871 3.91392C6.91664 4.19812 6.00105 4.55431 5.32252 4.99183C4.68876 5.40048 4 6.05621 4 7C4 7.0124 4.00012 7.02475 4.00035 7.03705C3.99998 8.82892 4 11.2713 4 12.5919L4 13.0002C4 13.0126 4.00012 13.0249 4.00035 13.0371C3.99998 14.829 4 17.2713 4 18.5919L4 19.0002C4 19.0126 4.00012 19.0249 4.00035 19.0371C3.99998 20.829 4 23.2713 4 24.5919L4 25.0002C4 25.944 4.68876 26.5998 5.32253 27.0084C6.00105 27.4459 6.91665 27.8021 7.95871 28.0863C10.0572 28.6586 12.8998 29.0002 16 29.0002C19.1002 29.0002 21.9428 28.6586 24.0413 28.0863C25.0834 27.8021 25.999 27.4459 26.6775 27.0084C27.3112 26.5998 28 25.944 28 25.0002V19.0002V19.0002V13.0002V13.0002V7.00021L28 7C28 6.05621 27.3112 5.40048 26.6775 4.99183C25.9989 4.55431 25.0834 4.19812 24.0413 3.91392C21.9428 3.34161 19.1002 3 16 3ZM26 21.3832C25.4337 21.6548 24.7683 21.8881 24.0413 22.0863C21.9428 22.6586 19.1002 23.0002 16 23.0002C12.8998 23.0002 10.0572 22.6586 7.95871 22.0863C7.23177 21.8881 6.56637 21.6548 6.00007 21.3833C5.99999 22.5991 6 23.7943 6 24.5873V24.5918L6 24.9675C6.01666 25.0001 6.095 25.1268 6.40635 25.3275C6.84108 25.6079 7.5364 25.8981 8.48495 26.1568C10.3677 26.6703 13.0251 27.0002 16 27.0002C18.975 27.0002 21.6323 26.6703 23.5151 26.1568C24.4636 25.8981 25.1589 25.6079 25.5937 25.3275C25.905 25.1268 25.9833 25.0001 26 24.9675V21.3832ZM6 18.5873L6.00007 15.3833C6.56637 15.6548 7.23177 15.8881 7.95871 16.0863C10.0572 16.6586 12.8998 17.0002 16 17.0002C19.1002 17.0002 21.9428 16.6586 24.0413 16.0863C24.7683 15.8881 25.4337 15.6548 26 15.3832V18.9675C25.9833 19.0001 25.905 19.1268 25.5937 19.3275C25.1589 19.6079 24.4636 19.8981 23.5151 20.1568C21.6323 20.6703 18.975 21.0002 16 21.0002C13.0251 21.0002 10.3677 20.6703 8.48495 20.1568C7.5364 19.8981 6.84108 19.6079 6.40635 19.3275C6.095 19.1268 6.01666 19.0001 6 18.9675L6 18.5918V18.5873ZM26 9.383C25.4337 9.65451 24.7683 9.88782 24.0413 10.0861C21.9428 10.6584 19.1002 11 16 11C12.8998 11 10.0572 10.6584 7.95871 10.0861C7.23177 9.88783 6.56637 9.65453 6.00007 9.38304L6 12.5873V12.5918L6 12.9675C6.01666 13.0001 6.095 13.1268 6.40635 13.3275C6.84108 13.6079 7.5364 13.8981 8.48495 14.1568C10.3677 14.6703 13.0251 15.0002 16 15.0002C18.975 15.0002 21.6323 14.6703 23.5151 14.1568C24.4636 13.8981 25.1589 13.6079 25.5937 13.3275C25.905 13.1268 25.9833 13.0001 26 12.9675V9.383Z" fill="black"/>
</svg>
