<svg width="32" height="32" viewBox="0 0 32 32" fill="none" xmlns="http://www.w3.org/2000/svg">
    <path fill-rule="evenodd" clip-rule="evenodd" d="M8.25098 12C9.29883 8.49512 12.3984 6 16 6C19.6016 6 22.7012 8.49512 23.749 12H23V22H24V23.917L18.3828 25.5547C18.0234 25.2109 17.5361 25 17 25C15.8955 25 15 25.8955 15 27C15 28.1045 15.8955 29 17 29C17.9414 29 18.7305 28.3496 18.9434 27.4746L26 25.417V22C27.1045 22 28 21.1045 28 20V14C28 13.6699 27.9199 13.3584 27.7783 13.084C27.7334 12.9971 27.6826 12.9141 27.626 12.8359C27.5762 12.7676 27.5234 12.7031 27.4668 12.6416C27.1016 12.2471 26.5801 12 26 12H25.8184C24.7168 7.43359 20.7686 4 16 4C11.2314 4 7.2832 7.43359 6.18164 12H6C4.89551 12 4 12.8955 4 14V20C4 21.1045 4.89551 22 6 22H9V12H8.25098ZM7 14H6V20H7V14ZM26 14H25V20H26V14Z" fill="black"/>
</svg>
