<svg width="32" height="32" viewBox="0 0 32 32" fill="none" xmlns="http://www.w3.org/2000/svg">
    <path fill-rule="evenodd" clip-rule="evenodd" d="M5.39453 10.4473C5.6582 9.91895 8.20215 7 16 7C23.7969 7 26.3408 9.91895 26.6055 10.4473C26.751 10.7373 26.8672 11.3135 26.6768 12.0547C26.54 12.5859 26.2461 13.2021 25.6924 13.8594L20.6807 12.3174L21.2139 9.97168L20.6592 9.58691C19.8438 9.02148 18.1182 8.5 16 8.5C13.8818 8.5 12.1562 9.02148 11.3408 9.58691L10.7861 9.97168L11.3174 12.3115L9.52148 12.8555C8.40234 13.1963 7.15723 13.5791 6.30078 13.8516C4.98047 12.2822 5.14551 10.9453 5.39453 10.4473ZM11.9844 14.1992L12.7871 13.958L13.6826 13.6895L13.0605 10.9561C13.6797 10.7305 14.6934 10.5 16 10.5C17.3066 10.5 18.3203 10.7305 18.9395 10.9561L18.3193 13.6826L25.1494 15.7842L26.9688 23.9697L26.3887 26H5.61133L5.03125 23.9697L6.85254 15.7744C7.29785 15.6328 7.86523 15.4561 8.47168 15.2695C9.00293 15.1055 9.56543 14.9336 10.1035 14.7695L11.9844 14.1992ZM4.90918 15.2988C3.03125 13.1709 2.92188 10.9209 3.60547 9.55273C4.34082 8.08105 7.79688 5 16 5C24.2021 5 27.6582 8.08105 28.3945 9.55273C29.0791 10.9209 28.9688 13.1709 27.0908 15.2988L29.0312 24.0312L27.8975 28H4.10254L2.96875 24.0312L4.90918 15.2988Z" fill="black"/>
    <path d="M13 17H11V19H13V17Z" fill="black"/>
    <path d="M17 17H15V19H17V17Z" fill="black"/>
    <path d="M21 17H19V19H21V17Z" fill="black"/>
    <path d="M13 21H11V23H13V21Z" fill="black"/>
    <path d="M17 21H15V23H17V21Z" fill="black"/>
    <path d="M21 21H19V23H21V21Z" fill="black"/>
</svg>
