<svg width="32" height="32" viewBox="0 0 32 32" fill="none" xmlns="http://www.w3.org/2000/svg">
    <path d="M29 6H3V26H18V24H5V8H27V17H29V6Z" fill="black"/>
    <path fill-rule="evenodd" clip-rule="evenodd" d="M14 14H13V16H14V17H13V19H14V21H16V19H19V17H16V16H18C18.833 16 19.5273 15.6699 20.083 15.1191C20.6387 14.5684 21 13.7979 21 12.9727C21 12.1191 20.6387 11.376 20.083 10.8535C19.6836 10.4775 19.2119 10.2012 18.6689 10.0752C18.457 10.0264 18.2344 10 18 10H14V14ZM18 14C18.248 14 18.4512 13.9209 18.6758 13.6982C18.8896 13.4863 19 13.2139 19 12.9727C19 12.7051 18.8926 12.4785 18.7129 12.3096C18.5996 12.2031 18.4902 12.1279 18.3799 12.0781C18.2578 12.0234 18.1338 12 18 12H16V14H18Z" fill="black"/>
    <path d="M7 10H11V12H7V10Z" fill="black"/>
    <path d="M29.6069 18.5356L31.021 19.9497L23.9497 27.021L19.0005 22.0708L20.4146 20.6567L23.9497 24.1919L29.6069 18.5356Z" fill="black"/>
</svg>
