<svg width="32" height="32" viewBox="0 0 32 32" fill="none" xmlns="http://www.w3.org/2000/svg">
    <path fill-rule="evenodd" clip-rule="evenodd" d="M14 4C13.4473 4 13 4.44727 13 5V6H7V8H25V6H19V5C19 4.44727 18.5527 4 18 4H14Z" fill="black"/>
    <path fill-rule="evenodd" clip-rule="evenodd" d="M9 12H23V24C23 25.1045 22.1045 26 21 26H11C9.89551 26 9 25.1045 9 24V12ZM7 13V10H25V13H27V15H25V24C25 26.209 23.209 28 21 28H11C8.79102 28 7 26.209 7 24V15H5V13H7ZM13 14H11V24H13V14ZM15 14H17V24H15V14ZM19 14H21V24H19V14Z" fill="black"/>
</svg>
