<svg width="24" height="24" viewBox="0 0 24 24" fill="none" xmlns="http://www.w3.org/2000/svg">
<g>
<path fill-rule="evenodd" clip-rule="evenodd" d="M12.75 3H13.5C15.5711 3 17.25 4.67893 17.25 6.75H21V21H3V6.75H6.75C6.75 4.67893 8.42893 3 10.5 3H11.25H12.75ZM12.75 4.5H11.25H10.5C9.25736 4.5 8.25 5.50736 8.25 6.75H15.75C15.75 5.50736 14.7426 4.5 13.5 4.5H12.75ZM6.75 8.25V9.75C6.75 10.1642 7.08579 10.5 7.5 10.5C7.91421 10.5 8.25 10.1642 8.25 9.75V8.25H15.75V9.75C15.75 10.1642 16.0858 10.5 16.5 10.5C16.9142 10.5 17.25 10.1642 17.25 9.75V8.25H19.5V19.5H4.5V8.25H6.75Z" fill="black"/>
<path fill-rule="evenodd" clip-rule="evenodd" d="M8.25 13.5H6.75V12H11.25V13.5H9.75V18H8.25V13.5Z" fill="black"/>
<path fill-rule="evenodd" clip-rule="evenodd" d="M13.5385 17.4872L12 12H13.5L14.3497 15L14.3457 14.9856L14.625 16.5L14.9042 14.9856L14.9002 15L15.75 12H17.25L15.7115 17.4872L15 18H14.25L13.5385 17.4872Z" fill="black"/>
</g>
</svg>
