<svg width="32" height="32" viewBox="0 0 32 32" fill="none" xmlns="http://www.w3.org/2000/svg">
    <path fill-rule="evenodd" clip-rule="evenodd" d="M8 6H24C25.1046 6 26 6.89543 26 8V24C26 25.1046 25.1046 26 24 26H8C6.89543 26 6 25.1046 6 24V8C6 6.89543 6.89543 6 8 6ZM4 8C4 5.79086 5.79086 4 8 4H24C26.2091 4 28 5.79086 28 8V24C28 26.2091 26.2091 28 24 28H8C5.79086 28 4 26.2091 4 24V8ZM13 10C13.5523 10 14 10.4477 14 11V14H19C19.5523 14 20 14.4477 20 15C20 15.5523 19.5523 16 19 16H14V18C14 19.1046 14.8954 20 16 20H19.5C20.0523 20 20.5 20.4477 20.5 21C20.5 21.5523 20.0523 22 19.5 22H16C13.7909 22 12 20.2091 12 18V15V11C12 10.4477 12.4477 10 13 10Z" fill="black"/>
</svg>
