<svg width="32" height="32" viewBox="0 0 32 32" fill="none" xmlns="http://www.w3.org/2000/svg">
    <path fill-rule="evenodd" clip-rule="evenodd" d="M2 13V9C2 5.68629 4.68629 3 8 3C11.3137 3 14 5.68629 14 9V13H30V21C30 25.9706 25.9706 30 21 30H19C14.0294 30 10 25.9706 10 21V13H12V9C12 6.79086 10.2091 5 8 5C5.79086 5 4 6.79086 4 9V13H2ZM12 15H28V21C28 24.866 24.866 28 21 28H19C15.134 28 12 24.866 12 21V15ZM21 20.7324C21.5978 20.3866 22 19.7403 22 19C22 17.8954 21.1046 17 20 17C18.8954 17 18 17.8954 18 19C18 19.7403 18.4022 20.3866 19 20.7324V24H21V20.7324Z" fill="black"/>
</svg>
