<svg width="32" height="32" viewBox="0 0 32 32" fill="none" xmlns="http://www.w3.org/2000/svg">
    <path fill-rule="evenodd" clip-rule="evenodd" d="M7.49268 5.37493C8.80254 4.83387 11.5419 4 16 4C20.4581 4 23.1975 4.83387 24.5073 5.37493C25.051 5.59953 25.469 5.99226 25.698 6.49336C26.223 7.64159 27 10.0115 27 13.9993C27 17.9864 26.2233 20.3568 25.6983 21.5057C25.469 22.0075 25.0507 22.4007 24.5064 22.6254C23.1962 23.1665 20.4571 24 16 24C15.6709 24 15.3511 23.9955 15.0407 23.9868L14.6103 23.9749L10 28.5856V23.4125L9.25902 23.2138C8.51022 23.013 7.92513 22.8037 7.49357 22.6254C6.94932 22.4007 6.531 22.0075 6.30173 21.5057C5.77674 20.3568 5 17.9864 5 13.9993C5 10.0115 5.77701 7.64159 6.30195 6.49336C6.53104 5.99226 6.94896 5.59953 7.49268 5.37493ZM16 2C11.2852 2 8.28595 2.88334 6.72912 3.52643C5.75265 3.92978 4.93781 4.66703 4.48303 5.66179C3.83103 7.08794 3 9.74373 3 13.9993C3 18.2542 3.83074 20.9103 4.48264 22.3369C4.93754 23.3325 5.75285 24.0704 6.73017 24.474C7.07928 24.6182 7.50152 24.7747 8 24.9307V28.5856C8 30.3675 10.1544 31.2598 11.4143 29.9997L15.4181 25.9955C15.6091 25.9985 15.8031 26 16 26C20.7138 26 23.7127 25.1171 25.2698 24.474C26.2472 24.0704 27.0625 23.3325 27.5174 22.3369C28.1693 20.9103 29 18.2542 29 13.9993C29 9.74373 28.169 7.08794 27.517 5.66179C27.0622 4.66703 26.2474 3.92978 25.2709 3.52643C23.714 2.88334 20.7148 2 16 2ZM13.2861 16.1347C14.4825 17.3311 15.4747 17.3964 15.9015 17.3524C16.0519 17.3369 16.1822 17.2542 16.2891 17.1472L16.69 16.7464C17.0466 16.3898 17.6129 16.3545 18.011 16.6641L20.217 18.3799C20.6306 18.7016 20.7258 19.288 20.4351 19.724L19.604 20.9708C19.4338 21.226 19.1561 21.3883 18.8499 21.3709C17.7146 21.3066 14.7452 20.8263 11.6698 17.7509C8.59578 14.6768 8.09916 11.6933 8.02786 10.5503C8.00862 10.2417 8.17136 9.96086 8.42863 9.78935L9.67176 8.96059C10.1077 8.66995 10.6941 8.76511 11.0158 9.1787L12.7316 11.3847C13.0412 11.7828 13.006 12.3492 12.6494 12.7058L12.2575 13.0977C12.1448 13.2103 12.0593 13.3485 12.0466 13.5074C12.0116 13.9462 12.098 14.9466 13.2861 16.1347ZM16.6067 12.7878C16.0981 12.2792 15.4218 12.0432 14.7539 12.0802L14.6433 10.0833C15.8552 10.0161 17.0934 10.446 18.0209 11.3735C18.9484 12.3011 19.3783 13.5392 19.3112 14.7511L17.3142 14.6405C17.3512 13.9726 17.1152 13.2963 16.6067 12.7878ZM14.5635 8.65729C16.1713 8.56823 17.8049 9.13724 19.0314 10.3638C20.258 11.5903 20.827 13.2239 20.7379 14.8317L22.7349 14.9423C22.8541 12.7905 22.0912 10.5951 20.4457 8.94957C18.8001 7.30405 16.6047 6.54115 14.4529 6.66035L14.5635 8.65729Z" fill="black"/>
</svg>
