<svg width="32" height="32" viewBox="0 0 32 32" fill="none" xmlns="http://www.w3.org/2000/svg">
    <path fill-rule="evenodd" clip-rule="evenodd" d="M24.1893 23.9993H7.80927L6.46245 10.5311L9.33073 12.8257C10.7757 13.9817 12.9124 13.5667 13.8195 11.9539L15.9993 8.07879L18.1791 11.9539C19.0862 13.5667 21.2229 13.9817 22.6679 12.8257L25.5361 10.5311L24.1893 23.9993ZM5.9993 25.9993H25.9993L27.7628 8.36472C27.8509 7.4835 26.8346 6.93111 26.143 7.48435L21.4185 11.264C20.9368 11.6493 20.2246 11.511 19.9222 10.9734L16.8709 5.5488C16.4886 4.86915 15.51 4.86915 15.1277 5.5488L12.0764 10.9734C11.774 11.511 11.0618 11.6493 10.5801 11.264L5.85557 7.48435C5.16402 6.93111 4.14771 7.4835 4.23584 8.36473L5.9993 25.9993ZM17 18H15V20H17V18ZM9 18H11V20H9V18ZM23 18H21V20H23V18Z" fill="black"/>
</svg>
