<svg width="32" height="32" viewBox="0 0 32 32" fill="none" xmlns="http://www.w3.org/2000/svg">
    <path fill-rule="evenodd" clip-rule="evenodd" d="M8 6H24C25.1046 6 26 6.89543 26 8V24C26 25.1046 25.1046 26 24 26H8C6.89543 26 6 25.1046 6 24V8C6 6.89543 6.89543 6 8 6ZM4 8C4 5.79086 5.79086 4 8 4H24C26.2091 4 28 5.79086 28 8V24C28 26.2091 26.2091 28 24 28H8C5.79086 28 4 26.2091 4 24V8ZM16.5 12H14V15H16.5C17.3284 15 18 14.3284 18 13.5C18 12.6716 17.3284 12 16.5 12ZM12 10V15V17V22H17.5C19.433 22 21 20.433 21 18.5C21 17.247 20.3416 16.1478 19.3519 15.5295C19.7599 14.9571 20 14.2566 20 13.5C20 11.567 18.433 10 16.5 10H12ZM14 20V17H16.5H17.5C18.3284 17 19 17.6716 19 18.5C19 19.3284 18.3284 20 17.5 20H14Z" fill="black"/>
</svg>
