<svg width="22" height="14" viewBox="0 0 22 14" fill="none" xmlns="http://www.w3.org/2000/svg">
    <path fill-rule="evenodd" clip-rule="evenodd" d="M12.0789 13.0887C12.0789 13.0887 12.476 13.0455 12.6793 12.8318C12.8655 12.636 12.859 12.2664 12.859 12.2664C12.859 12.2664 12.8343 10.5409 13.6531 10.2861C14.4601 10.0355 15.4964 11.9548 16.596 12.6928C17.4267 13.2508 18.0573 13.1287 18.0573 13.1287L20.9959 13.0887C20.9959 13.0887 22.5325 12.996 21.804 11.8137C21.7437 11.7169 21.379 10.9388 19.6197 9.3407C17.7764 7.6678 18.0239 7.93837 20.2427 5.04422C21.5942 3.28183 22.1343 2.20587 21.9654 1.7458C21.8051 1.30573 20.8108 1.42259 20.8108 1.42259L17.5031 1.44259C17.5031 1.44259 17.2578 1.40995 17.076 1.51629C16.8984 1.62051 16.7833 1.86371 16.7833 1.86371C16.7833 1.86371 16.2603 3.22709 15.562 4.38727C14.0889 6.83398 13.5003 6.96347 13.2593 6.81187C12.6987 6.45708 12.8386 5.38848 12.8386 4.62942C12.8386 2.25746 13.2066 1.26888 12.123 1.01305C11.7636 0.927771 11.4989 0.871973 10.5789 0.862497C9.39855 0.850917 8.4 0.866709 7.83401 1.13728C7.4574 1.31731 7.16688 1.71948 7.34442 1.74264C7.56285 1.77106 8.05782 1.87319 8.32037 2.22272C8.65932 2.67437 8.64748 3.68716 8.64748 3.68716C8.64748 3.68716 8.84224 6.47919 8.19233 6.82556C7.74685 7.06349 7.13567 6.57815 5.82185 4.35779C5.14934 3.22077 4.64146 1.96373 4.64146 1.96373C4.64146 1.96373 4.54354 1.72895 4.36815 1.60262C4.15617 1.44996 3.86027 1.40258 3.86027 1.40258L0.717209 1.42259C0.717209 1.42259 0.244836 1.43522 0.0715967 1.63631C-0.0822743 1.81423 0.0597604 2.18376 0.0597604 2.18376C0.0597604 2.18376 2.52062 7.81729 5.30751 10.6567C7.86306 13.2592 10.764 13.0887 10.764 13.0887H12.0789Z" fill="#989898"/>
</svg>
