<svg width="32" height="32" viewBox="0 0 32 32" fill="none" xmlns="http://www.w3.org/2000/svg">
<g opacity="0.8">
<path fill-rule="evenodd" clip-rule="evenodd" d="M16 8C17.1046 8 18 7.10457 18 6C18 4.89543 17.1046 4 16 4C14.8954 4 14 4.89543 14 6C14 7.10457 14.8954 8 16 8ZM16 10C18.2091 10 20 8.20914 20 6C20 3.79086 18.2091 2 16 2C13.7909 2 12 3.79086 12 6C12 7.14156 12.4782 8.17143 13.2452 8.90021L8.12598 18.1148L9.87429 19.0861L14.9931 9.87221C15.3148 9.95562 15.6522 10 16 10ZM8 24C8 25.1046 7.10457 26 6 26C4.89543 26 4 25.1046 4 24C4 22.8954 4.89543 22 6 22C7.10457 22 8 22.8954 8 24ZM9.87386 25.0005C9.42965 26.7255 7.86366 28 6 28C3.79086 28 2 26.2091 2 24C2 21.7909 3.79086 20 6 20C7.86401 20 9.43023 21.275 9.87411 23.0005H20.0001V25.0005H9.87386ZM28 24C28 25.1046 27.1046 26 26 26C24.8954 26 24 25.1046 24 24C24 22.8954 24.8954 22 26 22C27.1046 22 28 22.8954 28 24ZM30 24C30 26.2091 28.2091 28 26 28C23.7909 28 22 26.2091 22 24C22 22.8586 22.4781 21.8289 23.2449 21.1001L18.1815 11.9861L19.9298 11.0148L24.9927 20.1279C25.3145 20.0444 25.6521 20 26 20C28.2091 20 30 21.7909 30 24Z" fill="black"/>
</g>
</svg>
