<svg width="32" height="32" viewBox="0 0 32 32" fill="none" xmlns="http://www.w3.org/2000/svg">
    <path fill-rule="evenodd" clip-rule="evenodd" d="M7.91992 5H7.89062C7.4873 5 7.13965 5 6.85059 5.01855C6.54688 5.03711 6.24316 5.0791 5.93945 5.19336C5.62988 5.31055 5.3457 5.47656 5.0957 5.68262C4.69434 6.01172 4.38086 6.44336 4.19336 6.93945C4.0791 7.24316 4.03711 7.54688 4.01855 7.85059L4.00879 8.05957L4.00293 8.32227L4.00098 8.5625L4 8.89062V8.91992V11C2.89551 11 2 11.8955 2 13V19C2 20.1045 2.89551 21 4 21V23.0801V23.1094V23.3633C4 23.5176 4.00098 23.6621 4.00391 23.7969C4.00684 23.9229 4.01172 24.04 4.01855 24.1494C4.03711 24.4531 4.0791 24.7568 4.19336 25.0605C4.49805 25.8662 5.13379 26.502 5.93945 26.8066C6.24316 26.9209 6.54688 26.9629 6.85059 26.9814C7.13965 27 7.4873 27 7.89062 27H7.91992H22.1602H22.1924C22.6562 27 23.0693 27 23.4395 26.9941C23.7314 26.9893 23.9961 26.9805 24.2363 26.9658C24.7969 26.9307 25.293 26.8564 25.7676 26.6768C27.1104 26.1699 28.1699 25.1104 28.6768 23.7676C28.7207 23.6514 28.7588 23.5332 28.791 23.4141C28.8135 23.3291 28.834 23.2432 28.8516 23.1562C28.9121 22.8652 28.9453 22.5615 28.9658 22.2363C28.9775 22.0508 28.9854 21.8506 28.9902 21.6348C28.9941 21.4639 28.9971 21.2822 28.998 21.0908C29 20.8145 29 20.5156 29 20.1924V20.1602V11.8398V11.8076C29 11.2422 29 10.752 28.9893 10.3242C28.9863 10.2119 28.9834 10.1045 28.9785 10.001L28.9658 9.76367C28.9307 9.20312 28.8564 8.70703 28.6768 8.23242C28.1699 6.88965 27.1104 5.83008 25.7676 5.32324C25.293 5.14355 24.7969 5.06934 24.2363 5.03418C23.6904 5 23.0215 5 22.1924 5H22.1602H7.91992ZM12 11H6V8.91992C6 8.68457 6 8.49414 6.00195 8.33398C6.00293 8.24219 6.00586 8.16113 6.00879 8.08789L6.01465 7.97559C6.02148 7.85645 6.03223 7.7793 6.04199 7.72754C6.0498 7.6875 6.05762 7.66309 6.06445 7.64648C6.16602 7.37793 6.37793 7.16602 6.64648 7.06445C6.67383 7.05371 6.72363 7.03906 6.83008 7.02734C6.87012 7.02246 6.91797 7.01855 6.97559 7.01465C7.19434 7 7.47949 7 7.91992 7H22.1602C23.0293 7 23.6357 7 24.1104 7.03027C24.5781 7.05957 24.8516 7.11426 25.0605 7.19336C25.8662 7.49805 26.502 8.13379 26.8066 8.93945C26.8857 9.14844 26.9404 9.42188 26.9697 9.88965C27 10.3643 27 10.9707 27 11.8398V20.1602C27 20.7656 27 21.2432 26.9902 21.6377C26.9854 21.8096 26.9785 21.9658 26.9697 22.1104C26.9551 22.3447 26.9336 22.5303 26.9062 22.6836C26.8789 22.8359 26.8457 22.9561 26.8066 23.0605C26.502 23.8662 25.8662 24.502 25.0605 24.8066C24.8516 24.8857 24.5781 24.9404 24.1104 24.9697C23.6357 25 23.0293 25 22.1602 25H7.91992C7.47949 25 7.19434 25 6.97559 24.9854C6.84668 24.9775 6.7666 24.9658 6.71484 24.9551L6.68652 24.9492L6.64648 24.9355C6.46289 24.8662 6.30469 24.7441 6.19141 24.5889C6.16309 24.5498 6.1377 24.5088 6.11523 24.4658C6.0957 24.4297 6.0791 24.3926 6.06445 24.3535C6.05664 24.334 6.04688 24.3027 6.03809 24.248C6.0293 24.1973 6.02051 24.126 6.01465 24.0244C6 23.8057 6 23.5205 6 23.0801V21H12C14.7617 21 17 18.7617 17 16C17 13.2383 14.7617 11 12 11ZM12 13H4V19H12C13.6572 19 15 17.6572 15 16C15 14.3428 13.6572 13 12 13ZM12 15H10V17H12V15Z" fill="black"/>
</svg>
