<svg width="32" height="32" viewBox="0 0 32 32" fill="none" xmlns="http://www.w3.org/2000/svg">
    <path fill-rule="evenodd" clip-rule="evenodd"
          d="M21.7952 7.00195H7.92C7.47901 7.00195 7.19434 7.00241 6.97603 7.01612C6.76576 7.02933 6.68493 7.05199 6.64653 7.06651C6.378 7.16797 6.16602 7.37995 6.06456 7.64848C6.05004 7.68688 6.02738 7.76771 6.01417 7.97798C6.00046 8.19629 6 8.48096 6 8.92195V11.002H12C14.7614 11.002 17 13.2406 17 16.002C17 18.7634 14.7614 21.002 12 21.002H6V23.082C6 23.523 6.00046 23.8077 6.01417 24.026C6.02738 24.2362 6.05004 24.3171 6.06456 24.3555C6.16602 24.624 6.378 24.836 6.64653 24.9374C6.68493 24.952 6.76576 24.9746 6.97603 24.9878C7.19434 25.0015 7.47901 25.002 7.92 25.002H22.16C23.0294 25.002 23.6354 25.0015 24.1106 24.9717C24.5778 24.9423 24.8512 24.8874 25.0604 24.8083C25.866 24.5039 26.5019 23.868 26.8063 23.0624C26.8854 22.8532 26.9403 22.5798 26.9697 22.1126C26.9995 21.6374 27 21.0314 27 20.162V10.002H29V20.162V20.1947V20.1948C29 21.0239 29 21.6927 28.9658 22.238C28.9305 22.7985 28.8564 23.2953 28.6772 23.7694C28.1699 25.112 27.11 26.1719 25.7674 26.6792C25.2933 26.8584 24.7965 26.9325 24.236 26.9678C23.6907 27.002 23.0219 27.002 22.1928 27.002H22.1927H22.16H7.92H7.89057C7.48723 27.002 7.13919 27.002 6.85065 26.9839C6.54708 26.9648 6.24285 26.9229 5.93958 26.8083C5.13399 26.5039 4.49807 25.868 4.19367 25.0624C4.07907 24.7591 4.03718 24.4549 4.01811 24.1514C3.99998 23.8628 3.99999 23.5147 4 23.1115V23.1114V23.082L4 21.002C2.89543 21.002 2 20.1066 2 19.002V13.002C2 11.8974 2.89543 11.002 4 11.002L4 8.92195V8.89257V8.89247C3.99999 8.48915 3.99998 8.14114 4.01811 7.8526C4.03718 7.54903 4.07907 7.2448 4.19367 6.94153C4.49807 6.13594 5.13399 5.50002 5.93958 5.19562C6.24285 5.08102 6.54708 5.03913 6.85065 5.02006C7.13918 5.00194 7.4872 5.00194 7.89051 5.00195H7.89062H7.92H21.7946L19.7461 2.66076L21.2512 1.34375L25.3274 6.00225L21.2512 10.6608L19.7461 9.34375L21.7952 7.00195ZM4 13.002H12C13.6569 13.002 15 14.3451 15 16.002C15 17.6589 13.6569 19.002 12 19.002H4V13.002ZM12 15.002H10V17.002H12V15.002Z"
          fill="black"/>
</svg>
