<svg width="32" height="32" viewBox="0 0 32 32" fill="none" xmlns="http://www.w3.org/2000/svg">
    <path fill-rule="evenodd" clip-rule="evenodd" d="M6.88732 12.2393L24.4352 8.66504C24.6373 9.14551 24.777 9.59766 24.8766 10.0684C25.0113 10.7031 25.0846 11.417 25.1149 12.3467L10.5221 19.3115C10.3131 18.1211 9.7633 16.6582 8.91369 15.1865C8.35021 14.21 7.72326 13.3486 7.09435 12.6533L6.88732 12.2393ZM3.9381 10.8145L3.93127 10.8008L25.5309 6.40039C26.8629 8.72266 27.1383 10.3516 27.1315 13.6006L21.2486 16.4082L23.5514 22.001H26.9996V18H28.9996V27H26.9996V24.001H22.2125L19.441 17.2705L10.2252 21.6689C10.1569 21.7441 10.0797 21.8066 9.99377 21.8564C9.86486 21.9307 9.72033 21.9727 9.5631 21.9844L9.53088 22L9.52404 21.9863C8.28283 22.0371 6.28967 20.2393 4.75744 17.5869C3.0133 14.5664 2.5299 11.5801 3.67736 10.917C3.75842 10.8701 3.84533 10.8359 3.9381 10.8145Z" fill="black"/>
</svg>
