<svg width="32" height="32" viewBox="0 0 32 32" fill="none" xmlns="http://www.w3.org/2000/svg">
    <path d="M19.2935 13.7082L16.0006 10.4153L12.7077 13.7082L11.2935 12.2939L14.5864 9.00105L11.2935 5.70816L12.7077 4.29395L16.0006 7.58684L19.2935 4.29395L20.7077 5.70816L17.4148 9.00105L20.7077 12.2939L19.2935 13.7082Z" fill="black"/>
    <path d="M3.93275 10.8004L9.37363 9.69206L9.78154 11.65L6.88832 12.2394L7.09555 12.6539C7.72435 13.3492 8.35114 14.2101 8.91514 15.187C9.76452 16.6582 10.3149 18.1211 10.5234 19.3114L25.1165 12.3466C25.0865 11.4169 25.0131 10.703 24.8784 10.0684C24.7784 9.59728 24.6392 9.14568 24.4367 8.66473L22.3968 9.08026L22.0491 7.11001L25.5328 6.40039C26.8649 8.72283 27.1394 10.3517 27.1327 13.6004L21.2493 16.4084L23.5521 22.0009L27.0001 22.0002V18H29.0001V27H27.0001V24.0001L22.2127 24.0009L19.4416 17.2712L10.2251 21.6699C10.1573 21.7446 10.0806 21.8072 9.99468 21.8568C9.86587 21.9312 9.72199 21.9731 9.56558 21.9847L9.53275 22.0004L9.52605 21.987C8.28546 22.0382 6.29024 20.2405 4.75822 17.587C3.01411 14.5661 2.53079 11.5799 3.67869 10.9172C3.75996 10.8703 3.84723 10.8362 3.93986 10.8146L3.93275 10.8004Z" fill="black"/>
</svg>
