<svg width="32" height="32" viewBox="0 0 32 32" fill="none" xmlns="http://www.w3.org/2000/svg">
    <path fill-rule="evenodd" clip-rule="evenodd" d="M16 26C17.1046 26 18 25.1046 18 24C18 22.8954 17.1046 22 16 22C14.8954 22 14 22.8954 14 24C14 25.1046 14.8954 26 16 26ZM16 28C18.2091 28 20 26.2091 20 24C20 21.7909 18.2091 20 16 20C13.7909 20 12 21.7909 12 24C12 26.2091 13.7909 28 16 28Z" fill="black"/>
    <path d="M23.042 18.3945C21.3931 16.3257 18.8516 15 16 15C13.1484 15 10.6069 16.3262 8.95801 18.395L10.4595 19.7212C11.7397 18.0659 13.7451 17 16 17C18.2549 17 20.2603 18.0659 21.5405 19.7212L23.042 18.3945Z" fill="black"/>
    <path d="M25.292 16.4062C23.0913 13.7168 19.7461 12 16 12C12.2534 12 8.9082 13.7163 6.70752 16.4062L5.20801 15.0815C7.77588 11.9775 11.6567 10 16 10C20.3428 10 24.2241 11.9775 26.792 15.0815L25.292 16.4062Z" fill="black"/>
    <path d="M29.0415 13.0942C25.9229 9.36914 21.2378 7 16 7C10.7617 7 6.07715 9.36963 2.9585 13.0947L1.45898 11.77C4.94434 7.63037 10.165 5 16 5C21.835 5 27.0557 7.62988 30.541 11.7695L29.0415 13.0942Z" fill="black"/>
</svg>
