<svg width="128" height="64" viewBox="0 0 128 64" fill="none" xmlns="http://www.w3.org/2000/svg">
    <path fill-rule="evenodd" clip-rule="evenodd" d="M64 64H0V0H64V64Z" fill="#E31E24"/>
    <path fill-rule="evenodd" clip-rule="evenodd" d="M22.1346 48.1297C19.5245 48.1297 18.4805 46.0416 18.4805 43.9535C18.4805 41.8654 19.5245 39.7773 22.1346 39.7773C24.6403 39.7773 25.7888 41.8654 25.7888 43.9535C25.7888 46.0416 24.6403 48.1297 22.1346 48.1297ZM22.1346 41.1346C20.5686 41.1346 19.8377 42.5963 19.8377 43.9535C19.8377 45.3108 20.5686 46.8769 22.1346 46.8769C23.7007 46.8769 24.4315 45.3108 24.4315 43.9535C24.4315 42.5963 23.7007 41.1346 22.1346 41.1346Z" fill="#FEFEFE"/>
    <path fill-rule="evenodd" clip-rule="evenodd" d="M10.1279 46.7735C10.6499 45.8339 10.7543 44.3722 10.7543 42.7017V40.3004C10.7543 39.9872 11.0675 39.8828 11.4851 39.8828H15.7657C16.0789 39.8828 16.3921 39.9872 16.3921 40.3004V46.7735H17.2274C17.5406 46.7735 17.8538 46.8779 17.8538 47.1911V50.1144C17.8538 50.4277 17.5406 50.5321 17.2274 50.5321C16.8098 50.5321 16.4965 50.4277 16.4965 50.1144V48.0264H10.1279V50.1144C10.1279 50.4277 9.81464 50.5321 9.50143 50.5321C9.08381 50.5321 8.875 50.4277 8.875 50.1144V47.1911C8.875 46.7735 9.08381 46.7735 9.39702 46.7735H10.1279ZM15.0349 46.7735V41.1357H12.1115V42.7017C12.1115 44.1634 12.0071 45.8339 11.5895 46.7735H15.0349Z" fill="#FEFEFE"/>
    <path fill-rule="evenodd" clip-rule="evenodd" d="M34.7653 47.7121C34.7653 48.0253 34.4521 48.1297 34.0345 48.1297C33.7213 48.1297 33.4081 48.0253 33.4081 47.7121V42.9095L31.6332 46.7725C31.5288 46.9813 31.32 47.0857 31.1112 47.0857C30.798 47.0857 30.5892 46.9813 30.4848 46.7725L28.7099 42.9095V47.7121C28.7099 48.0253 28.3967 48.1297 28.0835 48.1297C27.7702 48.1297 27.457 48.0253 27.457 47.7121V40.195C27.457 39.8817 27.7702 39.7773 28.0835 39.7773C28.2923 39.7773 28.6055 39.8817 28.6055 40.195L31.1112 45.2064L33.5125 40.195C33.6169 39.9862 33.8257 39.7773 34.0345 39.7773C34.4521 39.7773 34.7653 39.8817 34.7653 40.195V47.7121Z" fill="#FEFEFE"/>
    <path fill-rule="evenodd" clip-rule="evenodd" d="M38.3182 48.1314C37.5874 48.1314 36.9609 47.505 36.9609 46.7742C36.9609 45.9389 37.5874 45.3125 38.3182 45.3125C39.1534 45.3125 39.7799 45.9389 39.7799 46.7742C39.7799 47.505 39.1534 48.1314 38.3182 48.1314Z" fill="#FEFEFE"/>
    <path fill-rule="evenodd" clip-rule="evenodd" d="M46.0395 39.7773C45.3086 39.7773 44.5778 40.195 44.0558 40.9258V40.5082C44.0558 39.9862 43.6382 39.7773 43.0117 39.7773C42.3853 39.7773 41.8633 39.9862 41.8633 40.5082L41.9677 47.3989C41.9677 48.0253 42.3853 48.1297 43.0117 48.1297C43.6382 48.1297 44.0558 48.0253 44.0558 47.3989V42.9095C44.1602 42.2831 44.891 41.8654 45.5174 41.8654C46.0395 41.8654 46.1439 41.9698 46.4571 41.9698C47.0835 41.9698 47.5011 41.4478 47.5011 40.9258C47.5011 40.195 46.7703 39.7773 46.0395 39.7773Z" fill="#FEFEFE"/>
    <path fill-rule="evenodd" clip-rule="evenodd" d="M54.0821 39.7773C53.4557 39.7773 53.038 39.9862 53.038 40.6126V45.4152C52.7248 45.8328 52.2028 46.146 51.6808 46.146C50.7411 46.146 50.5323 45.624 50.5323 44.7888V40.6126C50.5323 39.9862 50.0103 39.7773 49.3839 39.7773C48.8619 39.7773 48.3398 39.9862 48.3398 40.6126V45.102C48.3398 46.8769 49.0707 48.1297 51.0544 48.1297C51.8896 48.1297 52.6204 47.6077 53.038 46.9813V47.3989C53.038 48.0253 53.4557 48.1297 54.0821 48.1297C54.7085 48.1297 55.2305 48.0253 55.2305 47.3989V40.6126C55.2305 39.9862 54.7085 39.7773 54.0821 39.7773Z" fill="#FEFEFE"/>
    <path fill-rule="evenodd" clip-rule="evenodd" d="M38.3157 17.6445C37.2717 17.6445 36.332 18.5842 36.332 19.7326C36.332 20.7767 37.2717 21.7163 38.3157 21.7163C39.4642 21.7163 40.4038 20.7767 40.4038 19.7326C40.4038 18.5842 39.4642 17.6445 38.3157 17.6445Z" fill="#FEFEFE"/>
    <path fill-rule="evenodd" clip-rule="evenodd" d="M42.4967 14.6172C39.3646 13.8864 35.7104 13.4688 32.0562 13.4688C28.4021 13.4688 24.6435 13.8864 21.5114 14.6172C20.3629 14.9304 19.9453 15.5568 19.9453 16.7053V31.6352C19.9453 32.7836 20.3629 33.4101 21.5114 33.6189C24.6435 34.3497 28.2977 34.7673 32.0562 34.7673C35.7104 34.7673 39.3646 34.3497 42.4967 33.6189C43.6451 33.4101 44.0628 32.7836 44.0628 31.6352V16.7053C44.0628 15.5568 43.6451 14.9304 42.4967 14.6172ZM42.8099 31.5308C42.8099 31.9484 42.4967 32.3659 42.1835 32.4704C39.0513 33.0968 35.606 33.5145 32.0562 33.5145C28.5065 33.5145 24.9567 33.0968 21.929 32.4704C21.5114 32.3659 21.1982 31.9484 21.1982 31.5308V16.7053C21.1982 16.2877 21.5114 15.9745 21.929 15.8701C24.9567 15.1392 28.5065 14.7216 32.0562 14.7216C35.606 14.7216 39.0513 15.1392 42.1835 15.8701C42.4967 15.9745 42.8099 16.2877 42.8099 16.7053V31.5308Z" fill="#FEFEFE"/>
    <path fill-rule="evenodd" clip-rule="evenodd" d="M64 64H128V0H64V64Z" fill="#FFDD00"/>
    <path d="M72.9805 48.1308H75.5906C77.7831 48.1308 78.9315 47.2955 78.9315 45.6251C78.9315 43.9546 77.6787 43.015 75.3818 43.015H74.5465V41.2401H78.3051V40.0916H72.9805V48.1308ZM75.3818 44.2678C76.739 44.2678 77.3655 44.7898 77.3655 45.6251C77.3655 46.3559 76.8434 46.9823 75.4862 46.9823H74.5465V44.2678H75.3818ZM80.602 48.1308H82.1681L85.4046 43.2238L86.0311 42.1797V43.3282V48.1308H87.5971V40.0916H86.0311L82.7945 44.7898L82.0637 46.0427L82.1681 44.8942V40.0916H80.602V48.1308ZM91.7733 48.2352C94.1746 48.2352 94.9055 46.9823 94.9055 45.9383C94.9055 44.6854 93.8614 44.1634 93.3394 43.9546C93.8614 43.7458 94.4878 43.2238 94.4878 42.0753C94.4878 40.9269 93.6526 39.9872 91.7733 39.9872C90.7293 39.9872 89.894 40.3004 89.372 40.6136L89.894 41.6577C90.4161 41.4489 90.9381 41.2401 91.6689 41.2401C92.5042 41.2401 92.9218 41.6577 92.9218 42.3885C92.9218 43.015 92.3998 43.537 91.5645 43.537H90.5205V44.6854H91.5645C92.5042 44.6854 93.235 44.9986 93.235 45.8339C93.235 46.6691 92.6086 46.9823 91.6689 46.9823C90.8337 46.9823 89.9984 46.6691 89.5808 46.4603L89.0588 47.6088C89.6852 48.0264 90.6249 48.2352 91.7733 48.2352ZM96.5759 48.1308H98.142V44.6854H102.005V48.1308H103.571V40.0916H102.005V43.537H98.142V40.0916H96.5759V48.1308ZM105.763 48.1308H111.088V46.9823H107.33V44.6854H110.566V43.537H107.33V41.2401H110.775V40.0916H105.763V48.1308ZM116.726 48.3396C117.77 48.3396 118.396 48.1308 119.127 47.922L118.814 46.6691C118.188 46.8779 117.666 46.9823 116.83 46.9823C115.16 46.9823 113.907 46.0427 113.907 44.059C113.907 42.0753 115.055 41.2401 116.622 41.2401C117.561 41.2401 117.979 41.3445 118.605 41.5533L119.127 40.4048C118.501 40.196 117.874 39.8828 116.622 39.8828C113.907 39.8828 112.237 41.5533 112.237 44.1634C112.237 46.7735 113.803 48.3396 116.726 48.3396Z" fill="#2B2A29"/>
</svg>