<svg width="875" height="505" viewBox="0 0 875 505" fill="none" xmlns="http://www.w3.org/2000/svg">
    <path d="M517.497 67.2606C448.563 102.065 438.121 282.944 342.497 187.761C246.874 92.5778 121.998 287.761 164 363.761C206.002 439.761 246.498 393.761 419.999 393.761C558.5 393.761 562.191 390.51 647.499 418.261C732.808 446.012 778.999 379.761 745.999 288.261C712.999 196.76 586.431 32.4562 517.497 67.2606Z" fill="#6688C9" fill-opacity="0.2"/>
    <path fill-rule="evenodd" clip-rule="evenodd" d="M40 436.5C55.1878 436.5 67.5 424.188 67.5 409C67.5 393.812 55.1878 381.5 40 381.5C24.8122 381.5 12.5 393.812 12.5 409C12.5 424.188 24.8122 436.5 40 436.5ZM40 441.5C57.9493 441.5 72.5 426.949 72.5 409C72.5 391.051 57.9493 376.5 40 376.5C22.0507 376.5 7.5 391.051 7.5 409C7.5 426.949 22.0507 441.5 40 441.5Z" fill="white"/>
    <rect x="27.6289" y="400.162" width="5" height="30" transform="rotate(-45 27.6289 400.162)" fill="white"/>
    <rect x="31.1641" y="421.373" width="5" height="30" transform="rotate(-135 31.1641 421.373)" fill="white"/>
    <path fill-rule="evenodd" clip-rule="evenodd" d="M589.059 431.76H654.941L657 427.728L624.059 369.26H619.941L587 427.728L589.059 431.76ZM593.284 426.76H650.716L622 375.792L593.284 426.76Z" fill="white"/>
    <rect x="619.5" y="416.76" width="5" height="5" fill="white"/>
    <rect x="619.5" y="391.76" width="5" height="22.5" fill="white"/>
    <path fill-rule="evenodd" clip-rule="evenodd" d="M835 152C840.523 152 845 147.523 845 142C845 136.477 840.523 132 835 132C829.477 132 825 136.477 825 142C825 147.523 829.477 152 835 152ZM835 157C843.284 157 850 150.284 850 142C850 133.716 843.284 127 835 127C826.716 127 820 133.716 820 142C820 150.284 826.716 157 835 157Z" fill="white"/>
    <path fill-rule="evenodd" clip-rule="evenodd" d="M832.435 112C832.039 115.017 829.865 117.364 827.199 118.239C825.998 118.634 824.836 119.117 823.721 119.682C821.214 120.953 818.013 120.828 815.6 118.973L811.973 122.6C813.828 125.013 813.953 128.214 812.682 130.721C812.117 131.836 811.634 132.998 811.239 134.199C810.364 136.865 808.017 139.039 805 139.435V144.565C808.017 144.961 810.364 147.135 811.239 149.801C811.634 151.003 812.117 152.165 812.682 153.28C813.952 155.787 813.827 158.986 811.973 161.399L815.6 165.026C818.013 163.171 821.213 163.047 823.719 164.317C824.834 164.882 825.997 165.366 827.2 165.76C829.867 166.636 832.04 168.984 832.435 172H837.565C837.961 168.983 840.135 166.636 842.801 165.761C844.002 165.366 845.164 164.883 846.279 164.318C848.786 163.047 851.985 163.171 854.399 165.026L858.026 161.399C856.171 158.985 856.047 155.786 857.318 153.279C857.883 152.164 858.366 151.002 858.761 149.801C859.636 147.135 861.983 144.961 865 144.565V139.435C861.984 139.04 859.636 136.867 858.76 134.2C858.366 132.997 857.882 131.834 857.317 130.719C856.047 128.213 856.171 125.013 858.026 122.6L854.399 118.973C851.986 120.827 848.787 120.952 846.28 119.682C845.165 119.117 844.003 118.634 842.801 118.239C840.135 117.364 837.961 115.017 837.565 112H832.435ZM830 107C828.619 107 827.5 108.119 827.5 109.5V111.006C827.5 112.147 826.724 113.133 825.64 113.489C824.195 113.963 822.799 114.544 821.46 115.222C820.443 115.738 819.197 115.59 818.39 114.783L817.322 113.715C816.346 112.739 814.763 112.739 813.786 113.715L806.715 120.786C805.739 121.763 805.739 123.346 806.715 124.322L807.783 125.39C808.59 126.197 808.738 127.443 808.222 128.46C807.544 129.799 806.963 131.195 806.489 132.64C806.133 133.724 805.147 134.5 804.006 134.5H802.5C801.119 134.5 800 135.619 800 137V147C800 148.381 801.119 149.5 802.5 149.5H804.006C805.147 149.5 806.133 150.276 806.489 151.36C806.963 152.805 807.544 154.201 808.222 155.54C808.737 156.558 808.589 157.803 807.783 158.61L806.715 159.677C805.739 160.653 805.739 162.236 806.715 163.212L813.786 170.284C814.763 171.26 816.346 171.26 817.322 170.284L818.389 169.217C819.196 168.41 820.441 168.262 821.459 168.778C822.798 169.456 824.195 170.037 825.641 170.511C826.724 170.867 827.5 171.852 827.5 172.993V174.5C827.5 175.881 828.619 177 830 177H840C841.381 177 842.5 175.881 842.5 174.5V172.994C842.5 171.853 843.276 170.867 844.36 170.511C845.805 170.037 847.201 169.456 848.54 168.778C849.557 168.262 850.803 168.41 851.61 169.217L852.677 170.284C853.653 171.26 855.236 171.26 856.212 170.284L863.284 163.212C864.26 162.236 864.26 160.653 863.284 159.677L862.217 158.61C861.41 157.803 861.262 156.557 861.778 155.54C862.456 154.201 863.037 152.805 863.511 151.36C863.867 150.276 864.853 149.5 865.994 149.5H867.5C868.881 149.5 870 148.381 870 147V137C870 135.619 868.881 134.5 867.5 134.5H865.993C864.852 134.5 863.867 133.724 863.511 132.641C863.037 131.195 862.456 129.798 861.778 128.459C861.262 127.441 861.41 126.196 862.217 125.389L863.284 124.322C864.26 123.346 864.26 121.763 863.284 120.786L856.212 113.715C855.236 112.739 853.653 112.739 852.677 113.715L851.61 114.783C850.803 115.589 849.558 115.737 848.54 115.222C847.201 114.544 845.805 113.963 844.36 113.489C843.276 113.133 842.5 112.147 842.5 111.006V109.5C842.5 108.119 841.381 107 840 107H830Z" fill="white"/>
    <path d="M320 77.5512C320 98.5583 293.883 119.76 271.833 119.76C249.784 119.76 235 101.503 235 80.496C235 59.4888 256.996 39.7598 279.045 39.7598C301.095 39.7598 320 56.544 320 77.5512Z" fill="#6688C9" fill-opacity="0.2"/>
    <path d="M720 93.2138C720 107.919 703.715 122.76 689.967 122.76C676.218 122.76 667 109.98 667 95.2751C667 80.5701 680.715 66.7598 694.464 66.7598C708.212 66.7598 720 78.5087 720 93.2138Z" fill="#6688C9" fill-opacity="0.2"/>
    <path d="M375.341 428.792C380.092 439.372 368.05 457.61 353.836 463.992C339.621 470.374 325.963 465.459 321.212 454.879C316.462 444.299 326.18 427.996 340.394 421.614C354.608 415.232 370.591 418.212 375.341 428.792Z" fill="#6688C9" fill-opacity="0.2"/>
    <path d="M521 380.76L487.855 222.76H423C440.567 381.067 447.122 391.76 429.555 391.76H469.026H512.5C517.5 391.76 521.654 383.889 521 380.76Z" fill="url(#paint0_linear)"/>
    <path d="M488.585 222.76L520.774 378.874C522.145 385.522 517.096 391.76 510.343 391.76H470" stroke="url(#paint1_linear)" stroke-width="5"/>
    <path d="M379 388.76H470V393.76H379V388.76Z" fill="#B6B6B6"/>
    <g filter="url(#filter0_d)">
        <path d="M616.429 145.041H324.969C321.834 145.041 319.293 147.582 319.293 150.717V329.405C319.293 332.54 321.834 335.081 324.969 335.081H616.429C619.563 335.081 622.105 332.54 622.105 329.405V150.717C622.105 147.582 619.563 145.041 616.429 145.041Z" fill="white"/>
    </g>
    <path d="M604.32 144.951H312.68C309.543 144.951 307 147.492 307 150.626V329.276C307 332.41 309.543 334.951 312.68 334.951H604.32C607.457 334.951 610 332.41 610 329.276V150.626C610 147.492 607.457 144.951 604.32 144.951Z" fill="url(#paint2_linear)"/>
    <path d="M602 152.76H316V312.76H602V152.76Z" fill="#6688C9"/>
    <path d="M438 322.951H478V324.951H438V322.951Z" fill="#C4C4C4"/>
    <path d="M591 103H324V119H591V103Z" fill="#6688C9"/>
    <path d="M332.999 114C334.657 114 336 112.657 336 110.999C336 109.343 334.657 108 332.999 108C331.343 108 330 109.343 330 110.999C330 112.657 331.343 114 332.999 114Z" fill="#E31E24"/>
    <path d="M343.001 114C344.657 114 346 112.657 346 110.999C346 109.343 344.657 108 343.001 108C341.343 108 340 109.343 340 110.999C340 112.657 341.343 114 343.001 114Z" fill="#FFDD00"/>
    <path d="M352.999 114C354.657 114 356 112.657 356 110.999C356 109.343 354.657 108 352.999 108C351.343 108 350 109.343 350 110.999C350 112.657 351.343 114 352.999 114Z" fill="#69BE28"/>
    <path d="M591 119H324V304H591V119Z" fill="url(#paint3_radial)"/>
    <path d="M591 103H593V119H591V103Z" fill="#EBEBEB"/>
    <path d="M591 119H593V304H591V119Z" fill="white"/>
    <path fill-rule="evenodd" clip-rule="evenodd" d="M421 176H485L479.5 237.5L453 245L426.5 237.5L421 176ZM453 238V180H479L474.5 232L453 238Z" fill="#6688C9"/>
    <path fill-rule="evenodd" clip-rule="evenodd" d="M508 208C508 238.928 482.928 264 452 264C438.358 264 425.856 259.122 416.141 251.015L495.015 172.141C503.122 181.856 508 194.358 508 208ZM410.378 245.465L489.465 166.378C479.542 157.44 466.406 152 452 152C421.072 152 396 177.072 396 208C396 222.406 401.44 235.542 410.378 245.465ZM516 208C516 243.346 487.346 272 452 272C416.654 272 388 243.346 388 208C388 172.654 416.654 144 452 144C487.346 144 516 172.654 516 208Z" fill="white" fill-opacity="0.6"/>
    <path fill-rule="evenodd" clip-rule="evenodd" d="M209 237.5C224.188 237.5 236.5 225.188 236.5 210C236.5 194.812 224.188 182.5 209 182.5C193.812 182.5 181.5 194.812 181.5 210C181.5 225.188 193.812 237.5 209 237.5ZM209 242.5C226.949 242.5 241.5 227.949 241.5 210C241.5 192.051 226.949 177.5 209 177.5C191.051 177.5 176.5 192.051 176.5 210C176.5 227.949 191.051 242.5 209 242.5Z" fill="white"/>
    <path fill-rule="evenodd" clip-rule="evenodd" d="M214.208 190.739C218.938 192.064 222.752 196 222.752 201.116C222.752 206.167 219.328 209.32 216.327 211.321C214.991 212.211 213.592 212.971 212.43 213.601C212.267 213.689 212.11 213.774 211.957 213.858C210.57 214.614 209.837 215.066 209.52 215.384C209.149 215.755 209.034 216.248 209.24 217.072C209.34 217.47 209.496 217.842 209.637 218.123C209.705 218.259 209.764 218.364 209.802 218.428C209.821 218.46 209.834 218.481 209.84 218.49L209.836 218.485L209.834 218.482C209.834 218.482 209.832 218.479 207.752 219.866C205.672 221.253 205.671 221.251 205.671 221.251L205.667 221.246L205.662 221.237L205.648 221.216L205.61 221.157C205.58 221.109 205.542 221.047 205.497 220.972C205.408 220.821 205.292 220.613 205.165 220.359C204.914 219.859 204.602 219.137 204.389 218.285C203.97 216.609 203.856 213.977 205.984 211.848C206.917 210.916 208.372 210.118 209.563 209.468C209.727 209.378 209.892 209.289 210.057 209.199C211.234 208.56 212.421 207.915 213.553 207.161C216.177 205.411 217.752 203.564 217.752 201.116C217.752 198.731 215.941 196.417 212.859 195.554C209.891 194.723 205.808 195.345 202.02 199.134L198.484 195.598C203.446 190.636 209.363 189.383 214.208 190.739ZM211.609 225.001V230.001H206.609V225.001H211.609Z" fill="white"/>
    <defs>
        <filter id="filter0_d" x="223.293" y="85.041" width="430.812" height="318.04" filterUnits="userSpaceOnUse" color-interpolation-filters="sRGB">
            <feFlood flood-opacity="0" result="BackgroundImageFix"/>
            <feColorMatrix in="SourceAlpha" type="matrix" values="0 0 0 0 0 0 0 0 0 0 0 0 0 0 0 0 0 0 127 0"/>
            <feOffset dx="-32" dy="4"/>
            <feGaussianBlur stdDeviation="32"/>
            <feColorMatrix type="matrix" values="0 0 0 0 0.275109 0 0 0 0 0.956507 0 0 0 0 1 0 0 0 0.35 0"/>
            <feBlend mode="normal" in2="BackgroundImageFix" result="effect1_dropShadow"/>
            <feBlend mode="normal" in="SourceGraphic" in2="effect1_dropShadow" result="shape"/>
        </filter>
        <linearGradient id="paint0_linear" x1="484.879" y1="382.892" x2="482.803" y2="307.259" gradientUnits="userSpaceOnUse">
            <stop stop-color="#D0D0D0"/>
            <stop offset="1" stop-color="#C4C4C4"/>
        </linearGradient>
        <linearGradient id="paint1_linear" x1="502.422" y1="303.087" x2="508.191" y2="402.188" gradientUnits="userSpaceOnUse">
            <stop offset="0.20442" stop-color="#C6D8D9"/>
            <stop offset="1" stop-color="white"/>
        </linearGradient>
        <linearGradient id="paint2_linear" x1="379.557" y1="171.777" x2="507.626" y2="318.31" gradientUnits="userSpaceOnUse">
            <stop stop-color="#F2F2F2"/>
            <stop offset="1" stop-color="#DFDFDF"/>
        </linearGradient>
        <radialGradient id="paint3_radial" cx="0" cy="0" r="1" gradientUnits="userSpaceOnUse" gradientTransform="translate(464.5 208.24) rotate(103.795) scale(115.327 166.445)">
            <stop stop-color="#FFDD00"/>
            <stop offset="1" stop-color="#FFC700"/>
        </radialGradient>
    </defs>
</svg>
