<svg width="192" height="192" viewBox="0 0 192 192" fill="none" xmlns="http://www.w3.org/2000/svg" id="el_SMyF33rS6"><style>@-webkit-keyframes el_AHFHLY1yhe_Animation{0%{opacity: 1;}43.75%{opacity: 0.1;}50%{opacity: 1;}93.75%{opacity: 0.1;}100%{opacity: 1;}}@keyframes el_AHFHLY1yhe_Animation{0%{opacity: 1;}43.75%{opacity: 0.1;}50%{opacity: 1;}93.75%{opacity: 0.1;}100%{opacity: 1;}}@-webkit-keyframes el_wqU8HF44nh_Animation{0%{opacity: 0.96;}37.50%{opacity: 0.1;}43.75%{opacity: 1;}87.50%{opacity: 0.1;}93.75%{opacity: 1;}100%{opacity: 0.96;}}@keyframes el_wqU8HF44nh_Animation{0%{opacity: 0.96;}37.50%{opacity: 0.1;}43.75%{opacity: 1;}87.50%{opacity: 0.1;}93.75%{opacity: 1;}100%{opacity: 0.96;}}@-webkit-keyframes el_HzZvGaNUcx_Animation{0%{opacity: 0.85;}31.25%{opacity: 0.1;}37.50%{opacity: 1;}81.25%{opacity: 0.1;}87.50%{opacity: 1;}100%{opacity: 0.85;}}@keyframes el_HzZvGaNUcx_Animation{0%{opacity: 0.85;}31.25%{opacity: 0.1;}37.50%{opacity: 1;}81.25%{opacity: 0.1;}87.50%{opacity: 1;}100%{opacity: 0.85;}}@-webkit-keyframes el_g-4geE7xNq_Animation{0%{opacity: 0.66;}25%{opacity: 0.1;}31.25%{opacity: 1;}75%{opacity: 0.1;}81.25%{opacity: 1;}100%{opacity: 0.66;}}@keyframes el_g-4geE7xNq_Animation{0%{opacity: 0.66;}25%{opacity: 0.1;}31.25%{opacity: 1;}75%{opacity: 0.1;}81.25%{opacity: 1;}100%{opacity: 0.66;}}@-webkit-keyframes el_SuIAUaC61r_Animation{0%{opacity: 0.44;}18.75%{opacity: 0.1;}25%{opacity: 1;}68.75%{opacity: 0.1;}75%{opacity: 1;}100%{opacity: 0.44;}}@keyframes el_SuIAUaC61r_Animation{0%{opacity: 0.44;}18.75%{opacity: 0.1;}25%{opacity: 1;}68.75%{opacity: 0.1;}75%{opacity: 1;}100%{opacity: 0.44;}}@-webkit-keyframes el_0sXstQ6NzC_Animation{0%{opacity: 0.25;}12.50%{opacity: 0.1;}18.75%{opacity: 1;}62.50%{opacity: 0.1;}68.75%{opacity: 1;}100%{opacity: 0.25;}}@keyframes el_0sXstQ6NzC_Animation{0%{opacity: 0.25;}12.50%{opacity: 0.1;}18.75%{opacity: 1;}62.50%{opacity: 0.1;}68.75%{opacity: 1;}100%{opacity: 0.25;}}@-webkit-keyframes el_qjR10rcobw_Animation{0%{opacity: 0.14;}6.25%{opacity: 0.1;}12.50%{opacity: 1;}56.25%{opacity: 0.1;}62.50%{opacity: 1;}100%{opacity: 0.14;}}@keyframes el_qjR10rcobw_Animation{0%{opacity: 0.14;}6.25%{opacity: 0.1;}12.50%{opacity: 1;}56.25%{opacity: 0.1;}62.50%{opacity: 1;}100%{opacity: 0.14;}}@-webkit-keyframes el_ci5qu-RVup_Animation{0%{opacity: 0.1;}6.25%{opacity: 1;}50%{opacity: 0.1;}56.25%{opacity: 1;}100%{opacity: 0.1;}}@keyframes el_ci5qu-RVup_Animation{0%{opacity: 0.1;}6.25%{opacity: 1;}50%{opacity: 0.1;}56.25%{opacity: 1;}100%{opacity: 0.1;}}#el_SMyF33rS6 *{-webkit-animation-duration: 3.2s;animation-duration: 3.2s;-webkit-animation-iteration-count: infinite;animation-iteration-count: infinite;-webkit-animation-timing-function: cubic-bezier(0, 0, 1, 1);animation-timing-function: cubic-bezier(0, 0, 1, 1);}#el_L755kD9O03{fill: black;fill-opacity: 0;}#el_vo8zMldFWo{fill: black;fill-opacity: 0;}#el_ci5qu-RVup{fill: #FFDD00;-webkit-animation-name: el_ci5qu-RVup_Animation;animation-name: el_ci5qu-RVup_Animation;-webkit-animation-timing-function: cubic-bezier(0.42, 0, 0.58, 1);animation-timing-function: cubic-bezier(0.42, 0, 0.58, 1);}#el_qjR10rcobw{fill: #FFDD00;-webkit-animation-name: el_qjR10rcobw_Animation;animation-name: el_qjR10rcobw_Animation;-webkit-animation-timing-function: cubic-bezier(0.42, 0, 0.58, 1);animation-timing-function: cubic-bezier(0.42, 0, 0.58, 1);}#el_0sXstQ6NzC{fill: #FFDD00;-webkit-animation-name: el_0sXstQ6NzC_Animation;animation-name: el_0sXstQ6NzC_Animation;-webkit-animation-timing-function: cubic-bezier(0.42, 0, 0.58, 1);animation-timing-function: cubic-bezier(0.42, 0, 0.58, 1);}#el_SuIAUaC61r{fill: #FFDD00;-webkit-animation-name: el_SuIAUaC61r_Animation;animation-name: el_SuIAUaC61r_Animation;-webkit-animation-timing-function: cubic-bezier(0.42, 0, 0.58, 1);animation-timing-function: cubic-bezier(0.42, 0, 0.58, 1);}#el_g-4geE7xNq{fill: #FFDD00;-webkit-animation-name: el_g-4geE7xNq_Animation;animation-name: el_g-4geE7xNq_Animation;-webkit-animation-timing-function: cubic-bezier(0.42, 0, 0.58, 1);animation-timing-function: cubic-bezier(0.42, 0, 0.58, 1);}#el_HzZvGaNUcx{fill: #FFDD00;-webkit-animation-name: el_HzZvGaNUcx_Animation;animation-name: el_HzZvGaNUcx_Animation;-webkit-animation-timing-function: cubic-bezier(0.42, 0, 0.58, 1);animation-timing-function: cubic-bezier(0.42, 0, 0.58, 1);}#el_wqU8HF44nh{fill: #FFDD00;-webkit-animation-name: el_wqU8HF44nh_Animation;animation-name: el_wqU8HF44nh_Animation;-webkit-animation-timing-function: cubic-bezier(0.42, 0, 0.58, 1);animation-timing-function: cubic-bezier(0.42, 0, 0.58, 1);}#el_AHFHLY1yhe{fill: #FFDD00;-webkit-animation-name: el_AHFHLY1yhe_Animation;animation-name: el_AHFHLY1yhe_Animation;-webkit-animation-timing-function: cubic-bezier(0.42, 0, 0.58, 1);animation-timing-function: cubic-bezier(0.42, 0, 0.58, 1);}#el_hYcBOQ_ki3{fill: black;fill-opacity: 0;-webkit-transform: translate(16px, 16px);transform: translate(16px, 16px);}#el_EbUWsCgCtG{fill: white;}#el_vRFRYEAmHk{fill: black;fill-opacity: 0;-webkit-transform: translate(16px, 80px);transform: translate(16px, 80px);}#el_WTvzuiqLQd{fill: white;}#el_oWaESx7PWt{fill: white;}#el_K2LOZXIBs65{fill: white;}#el_cJr8abLYR-A{fill: white;}#el_IjNc6OCOzWj{fill: black;fill-opacity: 0;-webkit-transform: translate(80px, 144px);transform: translate(80px, 144px);}#el_sfggTzq6F1Z{fill: white;}#el_G37hkJQFcn6{fill: black;fill-opacity: 0;-webkit-transform: translate(16px, 144px);transform: translate(16px, 144px);}#el_ieDUhzC-Z2S{fill: white;}#el_w7YchT38f2U{fill: black;fill-opacity: 0;-webkit-transform: translate(144px, 144px);transform: translate(144px, 144px);}#el_aQSeHIw34XF{fill: white;}#el_u99FZNV999t{fill: white;}#el_qVVhGsiCQhX{fill: white;}#el_hf6RhG8sBK9{fill: white;}#el_p9rrnmIJOmM{fill: white;}#el_yR7h0_IeSx-{fill: black;fill-opacity: 0;-webkit-transform: translate(144px, 80px);transform: translate(144px, 80px);}#el_ia5KjQOxFWZ{fill: white;}#el_GrHygdzyOUW{fill: black;fill-opacity: 0;-webkit-transform: translate(144px, 16px);transform: translate(144px, 16px);}#el_u2y0vzXrjuA{fill: white;}#el_vg0rBC2nZ6D{fill: black;fill-opacity: 0;-webkit-transform: translate(80px, 16px);transform: translate(80px, 16px);}#el_Xx_-rXXk-Qw{fill: white;}</style>
<rect width="192" height="192" id="el_L755kD9O03"/>
<rect width="192" height="192" id="el_vo8zMldFWo"/>
<rect width="64" height="64" id="el_ci5qu-RVup"/>
<rect x="64" width="64" height="64" id="el_qjR10rcobw"/>
<rect x="128" width="64" height="64" id="el_0sXstQ6NzC"/>
<rect x="128" y="64" width="64" height="64" id="el_SuIAUaC61r"/>
<rect x="128" y="128" width="64" height="64" id="el_g-4geE7xNq"/>
<rect x="64" y="128" width="64" height="64" id="el_HzZvGaNUcx"/>
<rect y="128" width="64" height="64" id="el_wqU8HF44nh"/>
<rect y="64" width="64" height="64" id="el_AHFHLY1yhe"/>
<rect width="32" height="32" id="el_hYcBOQ_ki3"/>
<path fill-rule="evenodd" clip-rule="evenodd" d="M22.8882 28.2393L40.4365 24.665C40.6392 25.1455 40.7783 25.5977 40.8784 26.0684C41.0132 26.7031 41.0864 27.417 41.1162 28.3467L26.5234 35.3115C26.3149 34.1211 25.7646 32.6582 24.915 31.1865C24.3511 30.21 23.7241 29.3486 23.0952 28.6533L22.8882 28.2393ZM19.9394 26.8145L19.9326 26.8008L41.5327 22.4004C42.8647 24.7227 43.1392 26.3516 43.1328 29.6006L37.249 32.4082L39.5517 38.001H43V34H45V43H43V40.001H38.2124L35.4414 33.2715L26.2251 37.6699C26.1572 37.7451 26.0806 37.8066 25.9946 37.8564C25.8657 37.9307 25.7222 37.9727 25.5654 37.9844L25.5327 38L25.5259 37.9863C24.2851 38.0381 22.2905 36.2402 20.7583 33.5869C19.0142 30.5664 18.5308 27.5801 19.6787 26.917C19.7598 26.8701 19.8472 26.8359 19.9394 26.8145Z" id="el_EbUWsCgCtG"/>
<rect width="32" height="32" id="el_vRFRYEAmHk"/>
<path fill-rule="evenodd" clip-rule="evenodd" d="M32 106C33.1046 106 34 105.105 34 104C34 102.895 33.1046 102 32 102C30.8954 102 30 102.895 30 104C30 105.105 30.8954 106 32 106ZM32 108C34.2091 108 36 106.209 36 104C36 101.791 34.2091 100 32 100C29.7909 100 28 101.791 28 104C28 106.209 29.7909 108 32 108Z" id="el_WTvzuiqLQd"/>
<path d="M39.042 98.3945C37.3931 96.3257 34.8516 95 32 95C29.1484 95 26.6069 96.3262 24.958 98.395L26.4595 99.7212C27.7397 98.0659 29.7451 97 32 97C34.2549 97 36.2603 98.0659 37.5405 99.7212L39.042 98.3945Z" id="el_oWaESx7PWt"/>
<path d="M41.292 96.4062C39.0913 93.7168 35.7461 92 32 92C28.2534 92 24.9082 93.7163 22.7075 96.4062L21.208 95.0815C23.7759 91.9775 27.6567 90 32 90C36.3428 90 40.2241 91.9775 42.792 95.0815L41.292 96.4062Z" id="el_K2LOZXIBs65"/>
<path d="M45.0415 93.0942C41.9229 89.3691 37.2378 87 32 87C26.7617 87 22.0771 89.3696 18.9585 93.0947L17.459 91.77C20.9443 87.6304 26.165 85 32 85C37.835 85 43.0557 87.6299 46.541 91.7695L45.0415 93.0942Z" id="el_cJr8abLYR-A"/>
<rect width="32" height="32" id="el_IjNc6OCOzWj"/>
<path fill-rule="evenodd" clip-rule="evenodd" d="M89.6138 151.604C91.252 149.994 93.5088 149 96 149C98.4912 149 100.748 149.994 102.386 151.604C103.781 152.975 104.724 154.792 104.971 156.823C106.147 157.215 107.195 157.893 108.024 158.771C109.238 160.066 110 161.807 110 163.719C110 165.736 109.167 167.557 107.823 168.871C106.489 170.181 104.646 171 102.606 171H102V172H100H98V171H100V169H98V168H100H102V169H102.606C104.101 169 105.447 168.401 106.424 167.44C107.403 166.484 108 165.172 108 163.719C108 162.348 107.456 161.09 106.566 160.141C105.842 159.373 104.884 158.814 103.812 158.574L103.059 158.406L103.03 157.635C102.964 155.844 102.2 154.225 100.984 153.03C99.7075 151.775 97.9497 151 96 151C94.0503 151 92.292 151.775 91.0156 153.03C89.8003 154.225 89.0356 155.844 88.9697 157.635L88.9414 158.408L88.187 158.575C87.1094 158.814 86.1587 159.372 85.4321 160.143C84.5396 161.088 84 162.346 84 163.719C84 165.172 84.5972 166.484 85.5776 167.443C86.5532 168.401 87.8994 169 89.3936 169H90V168H92H94V169H92V171H94V172H92H91H90V171H89.3936C87.3545 171 85.5112 170.181 84.1772 168.871C82.8325 167.557 82 165.736 82 163.719C82 161.809 82.7529 160.067 83.9775 158.77C84.8047 157.893 85.8481 157.214 87.0293 156.822C87.2764 154.791 88.2192 152.974 89.6138 151.604ZM95.8232 161.926C96.5942 162.697 97.5913 162.987 97.5913 162.987L98.2983 162.28L100.419 163.694L99.3589 165.462C99.3589 165.462 97.1196 165.344 94.7627 162.987C92.4058 160.63 92.2881 158.391 92.2881 158.391L94.0557 157.33L95.4697 159.451L94.7627 160.158C94.7627 160.158 95.0527 161.155 95.8232 161.926Z" id="el_sfggTzq6F1Z"/>
<rect width="32" height="32" id="el_G37hkJQFcn6"/>
<path fill-rule="evenodd" clip-rule="evenodd" d="M25.6138 151.604C27.252 149.994 29.5088 149 32 149C34.4912 149 36.748 149.994 38.3862 151.604C39.7812 152.975 40.7241 154.792 40.9707 156.823C42.1475 157.215 43.1953 157.893 44.0244 158.771C45.2383 160.066 46 161.807 46 163.719C46 165.736 45.1675 167.557 43.8228 168.871C42.4888 170.181 40.6455 171 38.6064 171H38V172H36H34V171H36V169H34V168H36H38V169H38.6064C40.1006 169 41.4468 168.401 42.4243 167.44C43.4028 166.484 44 165.172 44 163.719C44 162.348 43.4556 161.09 42.5664 160.141C41.8418 159.373 40.8843 158.814 39.812 158.574L39.0586 158.406L39.0303 157.635C38.9644 155.844 38.1997 154.225 36.9844 153.03C35.7075 151.775 33.9497 151 32 151C30.0503 151 28.292 151.775 27.0156 153.03C25.8003 154.225 25.0356 155.844 24.9697 157.635L24.9414 158.408L24.187 158.575C23.1094 158.814 22.1587 159.372 21.4321 160.143C20.5396 161.088 20 162.346 20 163.719C20 165.172 20.5972 166.484 21.5776 167.443C22.5532 168.401 23.8994 169 25.3936 169H26V168H28H30V169H28V171H30V172H28H27H26V171H25.3936C23.3545 171 21.5112 170.181 20.1772 168.871C18.8325 167.557 18 165.736 18 163.719C18 161.809 18.7529 160.067 19.9775 158.77C20.8047 157.893 21.8481 157.214 23.0293 156.822C23.2764 154.791 24.2192 152.974 25.6138 151.604Z" id="el_ieDUhzC-Z2S"/>
<rect width="32" height="32" id="el_w7YchT38f2U"/>
<path fill-rule="evenodd" clip-rule="evenodd" d="M166.882 151.33C164.884 152.444 162.493 154.188 160.017 156.42L158.678 154.934C161.233 152.631 163.746 150.788 165.908 149.583C167.296 148.81 168.543 148.297 169.568 148.096C170.575 147.898 171.455 147.986 172.021 148.552C172.587 149.117 172.675 149.998 172.477 151.005C172.276 152.03 171.763 153.277 170.99 154.665C170.822 154.966 170.641 155.274 170.45 155.587L168.744 154.543C168.922 154.252 169.089 153.967 169.243 153.691C169.967 152.392 170.371 151.354 170.515 150.62C170.575 150.314 170.579 150.117 170.57 150.003C170.456 149.994 170.259 149.998 169.953 150.058C169.219 150.202 168.181 150.606 166.882 151.33ZM151.287 166.553C151.097 166.862 150.921 167.162 150.758 167.454C150.034 168.753 149.63 169.791 149.486 170.525C149.426 170.832 149.421 171.028 149.431 171.142C149.545 171.151 149.741 171.147 150.048 171.087C150.781 170.943 151.82 170.539 153.119 169.815C155.117 168.701 157.508 166.957 159.984 164.725L161.323 166.211C158.767 168.514 156.254 170.357 154.093 171.562C152.705 172.335 151.458 172.848 150.433 173.049C149.426 173.247 148.545 173.159 147.979 172.593C147.414 172.028 147.326 171.147 147.523 170.14C147.724 169.115 148.238 167.868 149.011 166.48C149.188 166.162 149.379 165.837 149.583 165.506L151.287 166.553Z" id="el_aQSeHIw34XF"/>
<path fill-rule="evenodd" clip-rule="evenodd" d="M153.927 160.989L156.688 151.603L163.313 158.228L153.927 160.989ZM159.516 157.26L157.656 155.4L156.881 158.035L159.516 157.26Z" id="el_u99FZNV999t"/>
<path fill-rule="evenodd" clip-rule="evenodd" d="M166.073 160.157L163.313 169.542L156.688 162.917L166.073 160.157ZM160.485 163.885L162.345 165.745L163.12 163.11L160.485 163.885Z" id="el_qVVhGsiCQhX"/>
<path d="M152.929 167.644C149.024 163.738 149.024 157.407 152.929 153.502C155.077 151.354 157.959 150.388 160.767 150.602C161.551 150.007 162.322 149.461 163.07 148.97C159.077 147.917 154.646 148.956 151.515 152.087C146.829 156.774 146.829 164.372 151.515 169.058C152.439 169.981 153.476 170.723 154.581 171.282C155.23 170.901 155.908 170.467 156.607 169.982C155.265 169.499 154.005 168.719 152.929 167.644Z" id="el_hf6RhG8sBK9"/>
<path d="M159.234 170.543C158.45 171.138 157.679 171.685 156.931 172.175C160.924 173.228 165.355 172.189 168.486 169.058C173.172 164.372 173.172 156.774 168.486 152.087C167.562 151.164 166.525 150.422 165.42 149.863C164.771 150.244 164.094 150.679 163.395 151.164C164.737 151.647 165.996 152.426 167.072 153.502C170.977 157.407 170.977 163.738 167.072 167.644C164.924 169.792 162.042 170.758 159.234 170.543Z" id="el_p9rrnmIJOmM"/>
<rect width="32" height="32" id="el_yR7h0_IeSx-"/>
<path fill-rule="evenodd" clip-rule="evenodd" d="M161 98H170V104C170 104.553 169.552 105 169 105H156V104H150V108H156V107H169C170.657 107 172 105.656 172 104V96H170V84H148V98H157V100H150V102H168V100H161V98ZM150 86H168V96H150V86ZM147 107V105H149V107H147Z" id="el_ia5KjQOxFWZ"/>
<rect width="32" height="32" id="el_GrHygdzyOUW"/>
<path fill-rule="evenodd" clip-rule="evenodd" d="M151 25.1758V28.75C151 29.0234 151.006 29.292 151.019 29.5566L159 26.0645V21.6309L151 25.1758ZM159 28.2471L151.249 31.6387C152.234 37.1875 155.965 40.5547 159 42.2842V28.2471ZM161 28.2471L168.751 31.6387C167.766 37.1875 164.035 40.5547 161 42.2842V28.2471ZM168.981 29.5566L161 26.0645V21.6309L169 25.1758V28.75C169 29.0234 168.994 29.292 168.981 29.5566ZM160 19L149 23.875V28.75C149 38.5 156.071 43.375 160 45C163.929 43.375 171 38.5 171 28.75V23.875L160 19Z" id="el_u2y0vzXrjuA"/>
<rect width="32" height="32" id="el_vg0rBC2nZ6D"/>
<path fill-rule="evenodd" clip-rule="evenodd" d="M85.3945 26.4473C85.6582 25.9189 88.2021 23 96 23C103.797 23 106.341 25.9189 106.605 26.4473C106.855 26.9453 107.02 28.2861 105.692 29.8594L100.681 28.3174L101.214 25.9717L100.659 25.5869C99.8438 25.0215 98.1182 24.5 96 24.5C93.8823 24.5 92.1562 25.0215 91.3408 25.5869L90.7856 25.9717L91.3179 28.3115L89.5215 28.8555C88.4019 29.1963 87.1567 29.5791 86.3008 29.8516C84.981 28.2822 85.1455 26.9453 85.3945 26.4473ZM91.9839 30.1992L92.7871 29.958L93.6821 29.6895L93.0605 26.9561C93.6802 26.7305 94.6938 26.5 96 26.5C97.3062 26.5 98.3198 26.7305 98.939 26.9561L98.3193 29.6826L105.15 31.7852L106.969 39.9697L106.389 42H85.6113L85.0312 39.9697L86.8521 31.7744C87.687 31.5088 88.9497 31.1201 90.1035 30.7695L91.9839 30.1992ZM84.9092 31.2988C83.0312 29.1699 82.9214 26.9209 83.6055 25.5527C84.3413 24.0811 87.7974 21 96 21C104.203 21 107.658 24.0811 108.394 25.5527C109.079 26.9209 108.969 29.1699 107.091 31.2988L109.031 40.0312L107.897 44H84.103L82.9688 40.0312L84.9092 31.2988ZM93 33H91V35H93V33ZM95 35V33H97V35H95ZM101 33H99V35H101V33ZM91 37H93V39H91V37ZM95 37V39H97V37H95ZM99 37H101V39H99V37Z" id="el_Xx_-rXXk-Qw"/>
<script>(function(){var a=document.querySelector('#el_SMyF33rS6'),b=a.querySelectorAll('style'),c=function(d){b.forEach(function(f){var g=f.textContent;g&amp;&amp;(f.textContent=g.replace(/transform-box:[^;\r\n]*/gi,'transform-box: '+d))})};c('initial'),window.requestAnimationFrame(function(){return c('fill-box')})})();</script></svg>