<?xml version="1.0" standalone="no"?>
<!DOCTYPE svg PUBLIC "-//W3C//DTD SVG 1.1//EN" "http://www.w3.org/Graphics/SVG/1.1/DTD/svg11.dtd" >
<svg xmlns="http://www.w3.org/2000/svg" xmlns:xlink="http://www.w3.org/1999/xlink" version="1.1">
<metadata>
Created by FontForge 20190801 at Sun Nov  4 03:31:01 2018
 By Jimmy Wärting
Fact is a workhorse open sans serif type system. It is inspired by the great Frutiger typeface. While the Regular style is slightly modernized but still quite close to Frutiger, changing the weight or width makes differences of the design more pronounced. The style range of Fact is wider than of any cognate type family, including weights from Thin to Black and widths from Compressed to Expanded. Fact type system contains 48 upright styles with variations in width and weight and 8 italics of normal width. The font was designed by Alexandra Korolkova and Manvel Shmavonyan and released by Paratype in 2018.
</metadata>
<defs>
<font id="Fact-Medium" horiz-adv-x="392" >
  <font-face 
    font-family="Fact Medium"
    font-weight="500"
    font-stretch="normal"
    units-per-em="1000"
    panose-1="2 11 6 3 4 5 4 2 2 4"
    ascent="702"
    descent="-298"
    x-height="510"
    cap-height="700"
    bbox="-415 -253 1181 985"
    underline-thickness="50"
    underline-position="-100"
    unicode-range="U+000D-FEFF"
  />
<missing-glyph horiz-adv-x="500" 
d="M58 8h384v496h-384v-496zM50 0v512h400v-512h-400z" />
    <glyph glyph-name="afii10017.var.accented" unicode="&#x410;`" horiz-adv-x="666" 
d="M528 0l-55 167h-282l-56 -167h-127l250 700h155l246 -700h-131zM333 590l-105 -311h208zM524 919l-149 -149h-99l88 149h160z" />
    <glyph glyph-name="afii10022.var.accented" unicode="&#x415;`" horiz-adv-x="557" 
d="M504 114v-114h-428v700h428v-114h-300v-172h268v-108h-268v-192h300zM471 919l-149 -149h-99l88 149h160z" />
    <glyph glyph-name="afii10026.var.accented" unicode="&#x418;`" horiz-adv-x="722" 
d="M646 700v-700h-127v518l-304 -518h-139v700h128v-517l304 517h138zM553 919l-149 -149h-99l88 149h160z" />
    <glyph glyph-name="afii10032.var.accented" unicode="&#x41e;`" horiz-adv-x="761" 
d="M388 103c125 0 188 76 188 247c0 175 -66 247 -198 247c-120 0 -192 -76 -192 -247c0 -169 73 -247 202 -247zM381 -11c-213 0 -331 126 -331 361c0 234 126 361 328 361c225 0 333 -137 333 -361c0 -248 -130 -361 -330 -361zM573 919l-149 -149h-99l88 149h160z" />
    <glyph glyph-name="afii10037.var.accented" unicode="&#x423;`" horiz-adv-x="613" 
d="M116 7l2 109c16 -7 37 -12 58 -12c44 0 68 20 85 61c0 3 4 10 5 13l-263 522h146l185 -394l146 394h131l-224 -554c-45 -111 -98 -156 -191 -156c-29 0 -56 6 -80 17zM498 919l-149 -149h-99l88 149h160z" />
    <glyph glyph-name="afii10045.var.accented" unicode="&#x42b;`" horiz-adv-x="838" 
d="M204 344v-230h60c116 0 149 48 149 120c0 77 -36 110 -148 110h-61zM271 0h-195v700h128v-242h76c181 0 266 -66 266 -223c0 -159 -96 -235 -275 -235zM762 700v-700h-128v700h128zM611 919l-149 -149h-99l88 149h160z" />
    <glyph glyph-name="afii10047.var.accented" unicode="&#x42d;`" horiz-adv-x="626" 
d="M159 309v102h280c-7 128 -87 186 -223 186c-53 0 -114 -8 -165 -31v115c47 19 118 30 187 30c235 0 339 -127 339 -354c0 -221 -110 -368 -366 -368c-72 0 -123 10 -159 25l-1 115c48 -19 109 -26 154 -26c153 0 231 69 235 206h-281zM453 919l-149 -149h-99l88 149h160z
" />
    <glyph glyph-name="afii10048.var.accented" unicode="&#x42e;`" horiz-adv-x="999" 
d="M627 -11c-191 0 -303 111 -314 314h-109v-303h-128v700h128v-282h111c19 187 141 293 309 293c220 0 325 -125 325 -361c0 -248 -125 -361 -322 -361zM633 103c121 0 181 76 181 247c0 181 -64 247 -189 247c-110 0 -186 -82 -186 -247c0 -169 71 -247 194 -247zM563 919
l-149 -149h-99l88 149h160z" />
    <glyph glyph-name="afii10049.var.accented" unicode="&#x42f;`" horiz-adv-x="630" 
d="M329 253h-14l-151 -253h-140l170 279c-75 32 -135 95 -135 199c0 155 101 222 269 222h226v-700h-127v253h-98zM336 362h93v224h-111c-76 0 -126 -36 -126 -112s59 -112 144 -112zM532 919l-149 -149h-99l88 149h160z" />
    <glyph glyph-name="afii10023.var.accented" unicode="&#x401;`" horiz-adv-x="557" 
d="M504 114v-114h-428v700h428v-114h-300v-172h268v-108h-268v-192h300zM399 913l-113 -147h-80l67 147h126zM503 833c0 -36 -23 -60 -63 -60s-63 24 -63 60s23 59 63 59s63 -23 63 -59zM203 833c0 -36 -22 -60 -63 -60c-39 0 -62 24 -62 60s23 59 62 59c41 0 63 -23 63 -59
z" />
    <glyph glyph-name="afii10065.var.accented" unicode="&#x430;`" horiz-adv-x="544" 
d="M364 196v29c-19 3 -36 6 -83 6c-96 0 -124 -27 -124 -70c0 -41 26 -75 90 -75c77 0 117 42 117 110zM481 310v-310h-107v73h-2c-25 -41 -76 -82 -164 -82c-107 0 -172 58 -172 158c0 105 71 156 230 156c49 0 81 -4 98 -7v28c0 65 -31 94 -119 94
c-56 0 -121 -16 -161 -36v100c43 19 107 36 179 36c161 0 218 -59 218 -210zM464 732l-137 -138h-96l84 138h149z" />
    <glyph glyph-name="afii10070.var.accented" unicode="&#x435;`" horiz-adv-x="561" 
d="M488 124v-96c-27 -20 -90 -38 -170 -38c-191 0 -277 97 -277 269c0 159 92 261 247 261c175 0 236 -115 236 -259v-33h-362c11 -96 60 -140 169 -140c73 0 122 16 157 36zM162 305h242c3 69 -34 120 -113 120c-76 0 -119 -40 -129 -120zM470 732l-137 -138h-96l84 138
h149z" />
    <glyph glyph-name="afii10074.var.accented" unicode="&#x438;`" horiz-adv-x="600" 
d="M179 0h-111v510h116v-288l-3 -69h1l34 56l206 301h111v-510h-116v294l3 64h-1l-33 -55zM489 732l-137 -138h-96l84 138h149z" />
    <glyph glyph-name="afii10080.var.accented" unicode="&#x43e;`" horiz-adv-x="595" 
d="M298 89c89 0 134 51 134 166s-39 166 -134 166c-87 0 -134 -53 -134 -166c0 -115 53 -166 134 -166zM298 -10c-168 0 -257 88 -257 265c0 171 94 265 257 265c167 0 256 -89 256 -265c0 -169 -91 -265 -256 -265zM488 732l-137 -138h-96l84 138h149z" />
    <glyph glyph-name="afii10085.var.accented" unicode="&#x443;`" horiz-adv-x="517" 
d="M63 -207l5 100c15 -7 32 -9 45 -9c56 0 82 30 99 86l6 18l-211 522h128l142 -384l115 384h118l-175 -512c-45 -128 -82 -215 -205 -215c-27 0 -48 3 -67 10zM449 732l-137 -138h-96l84 138h149z" />
    <glyph glyph-name="afii10093.var.accented" unicode="&#x44b;`" horiz-adv-x="724" 
d="M184 251v-156h74c68 0 97 25 97 80c0 59 -37 76 -104 76h-67zM275 0h-207v510h116v-165h76c141 0 216 -52 216 -171c0 -108 -81 -174 -201 -174zM657 510v-510h-116v510h116zM551 732l-137 -138h-96l84 138h149z" />
    <glyph glyph-name="afii10095.var.accented" unicode="&#x44d;`" horiz-adv-x="506" 
d="M39 14v99c27 -11 72 -24 136 -24c108 0 160 38 168 131h-220v86h218c-12 84 -63 115 -170 115c-56 0 -100 -13 -129 -25v98c27 11 77 26 153 26c187 0 270 -95 270 -256c0 -175 -91 -274 -278 -274c-79 0 -121 15 -148 24zM402 732l-137 -138h-96l84 138h149z" />
    <glyph glyph-name="afii10096.var.accented" unicode="&#x44e;`" horiz-adv-x="807" 
d="M519 -10c-148 0 -233 80 -246 221h-89v-211h-116v510h116v-198h91c15 129 100 208 237 208c168 0 255 -89 255 -265c0 -169 -91 -265 -248 -265zM512 89c88 0 132 51 132 166c0 116 -39 166 -132 166c-81 0 -129 -51 -129 -166c0 -116 53 -166 129 -166zM521 732
l-137 -138h-96l84 138h149z" />
    <glyph glyph-name="afii10097.var.accented" unicode="&#x44f;`" horiz-adv-x="550" 
d="M367 176h-96l-108 -176h-131l123 192c-63 23 -104 67 -104 150c0 112 88 168 205 168h227v-510h-116v176zM280 269h88v143h-95c-68 0 -99 -23 -99 -74c0 -55 38 -69 106 -69zM472 732l-137 -138h-96l84 138h149z" />
    <glyph glyph-name="afii10071.var.accented" unicode="&#x451;`" horiz-adv-x="561" 
d="M488 124v-96c-27 -20 -90 -38 -170 -38c-191 0 -277 97 -277 269c0 159 92 261 247 261c175 0 236 -115 236 -259v-33h-362c11 -96 60 -140 169 -140c73 0 122 16 157 36zM162 305h242c3 69 -34 120 -113 120c-76 0 -119 -40 -129 -120zM402 736l-109 -142h-77l65 142
h121zM504 658c0 -35 -21 -58 -60 -58c-40 0 -61 23 -61 58s21 58 61 58c39 0 60 -23 60 -58zM213 658c0 -35 -22 -58 -62 -58c-37 0 -59 23 -59 58s22 58 59 58c40 0 62 -23 62 -58z" />
    <glyph glyph-name="fi" unicode="fi" horiz-adv-x="610" 
d="M543 510v-510h-117v409h-198v-409h-117v409h-96v101h96v65c0 110 44 183 167 183c23 0 40 -2 64 -6v-99c-8 3 -24 5 -41 5c-60 0 -73 -24 -73 -108v-40h315zM556 673c0 -40 -27 -66 -72 -66s-71 26 -71 66c0 41 27 66 71 66c45 0 72 -25 72 -66z" />
    <glyph glyph-name="fl" unicode="fl" horiz-adv-x="610" 
d="M349 510v-101h-121v-409h-117v409h-96v101h96v45c0 136 81 203 213 203c36 0 68 -5 103 -8h116v-750h-116v650c-19 5 -43 9 -78 9c-70 0 -121 -19 -121 -122v-27h121z" />
    <glyph glyph-name=".notdef" horiz-adv-x="500" 
d="M58 8h384v496h-384v-496zM50 0v512h400v-512h-400z" />
    <glyph glyph-name=".null" horiz-adv-x="0" 
 />
    <glyph glyph-name=".null" horiz-adv-x="0" 
 />
    <glyph glyph-name="CR" unicode="&#xd;" horiz-adv-x="233" 
 />
    <glyph glyph-name="space" unicode=" " horiz-adv-x="233" 
 />
    <glyph glyph-name="exclam" unicode="!" horiz-adv-x="377" 
d="M271 67c0 -49 -30 -78 -82 -78c-51 0 -82 31 -82 78c0 48 29 76 82 76c49 0 82 -29 82 -76zM260 700l-18 -464h-107l-18 464h143z" />
    <glyph glyph-name="quotedbl" unicode="&#x22;" horiz-adv-x="441" 
d="M187 700l-10 -259h-86l-11 259h107zM361 700l-10 -259h-86l-11 259h107z" />
    <glyph glyph-name="numbersign" unicode="#" horiz-adv-x="637" 
d="M79 501h103l28 199h98l-28 -199h120l28 199h98l-28 -199h89v-91h-102l-17 -120h90v-91h-102l-28 -199h-98l28 199h-120l-28 -199h-98l28 199h-90v91h102l17 120h-90v91zM267 410l-17 -120h120l17 120h-120z" />
    <glyph glyph-name="dollar" unicode="$" horiz-adv-x="551" 
d="M66 32v114c32 -21 99 -47 177 -47c89 0 121 36 121 96c0 67 -35 85 -122 117l-24 8c-111 39 -157 94 -157 202c0 103 65 167 178 184v103h76v-98c65 -3 114 -15 142 -30v-111c-51 23 -112 31 -160 31c-72 0 -110 -29 -110 -81c0 -49 28 -75 133 -113l26 -10
c121 -46 150 -108 150 -199c0 -116 -68 -184 -181 -203v-104h-76v98c-67 2 -125 16 -173 43z" />
    <glyph glyph-name="percent" unicode="%" horiz-adv-x="829" 
d="M612 62c56 0 78 34 78 107s-21 107 -78 107c-52 0 -78 -36 -78 -107c0 -75 27 -107 78 -107zM612 -11c-96 0 -173 48 -173 180c0 128 77 180 173 180c97 0 174 -48 174 -180c0 -127 -81 -180 -174 -180zM216 424c56 0 79 34 79 107s-22 107 -79 107
c-51 0 -77 -36 -77 -107c0 -75 26 -107 77 -107zM216 351c-96 0 -172 48 -172 180c0 128 78 180 172 180c98 0 174 -48 174 -180c0 -127 -79 -180 -174 -180zM704 700l-493 -700h-86l493 700h86z" />
    <glyph glyph-name="ampersand" unicode="&#x26;" horiz-adv-x="728" 
d="M315 431c40 21 93 59 93 111c0 53 -28 77 -75 77s-77 -31 -77 -79c0 -40 26 -74 59 -109zM426 138l-151 177c-52 -32 -85 -62 -85 -123c0 -65 48 -108 116 -108c56 0 97 30 120 54zM572 150l130 -150h-159l-53 63c-52 -51 -114 -74 -202 -74c-157 0 -225 92 -225 193
c0 103 54 159 149 202c-39 43 -77 90 -77 158c0 124 108 169 199 169c123 0 194 -55 194 -158c0 -88 -74 -147 -153 -184l123 -142c23 36 30 77 34 145h117c-11 -108 -38 -169 -77 -222z" />
    <glyph glyph-name="quotesingle" unicode="'" horiz-adv-x="267" 
d="M187 700l-10 -259h-86l-11 259h107z" />
    <glyph glyph-name="parenleft" unicode="(" horiz-adv-x="344" 
d="M176 308c0 -160 53 -319 157 -448h-116c-118 129 -159 296 -159 448s41 322 159 448h116c-111 -129 -157 -275 -157 -448z" />
    <glyph glyph-name="parenright" unicode=")" horiz-adv-x="344" 
d="M168 308c0 173 -46 319 -157 448h116c119 -125 160 -296 160 -448c0 -151 -40 -320 -160 -448h-116c104 129 157 288 157 448z" />
    <glyph glyph-name="asterisk" unicode="*" horiz-adv-x="506" 
d="M412 371l-84 -56l-68 117h-14l-69 -117l-82 56l95 103l-4 12l-136 28l30 97l129 -56l11 8l-16 137h102l-15 -138l9 -7l127 56l29 -97l-134 -28l-4 -12z" />
    <glyph glyph-name="plus" unicode="+" horiz-adv-x="587" 
d="M344 275v-195h-100v195h-194v99h194v194h100v-194h194v-99h-194z" />
    <glyph glyph-name="comma" unicode="," horiz-adv-x="291" 
d="M67 -187l-31 70c65 21 98 54 109 106c-63 0 -85 36 -85 79s27 77 87 77c53 0 92 -35 92 -114c0 -95 -52 -189 -172 -218z" />
    <glyph glyph-name="hyphen" unicode="-" horiz-adv-x="482" 
d="M403 333v-100h-323v100h323z" />
    <glyph glyph-name="period" unicode="." horiz-adv-x="287" 
d="M226 67c0 -49 -30 -78 -83 -78c-51 0 -82 31 -82 78c0 49 30 78 82 78c51 0 83 -31 83 -78z" />
    <glyph glyph-name="slash" unicode="/" horiz-adv-x="504" 
d="M487 770l-371 -920h-108l371 920h108z" />
    <glyph glyph-name="zero" unicode="0" horiz-adv-x="642" 
d="M327 101c89 0 128 68 128 248c0 183 -41 251 -136 251c-88 0 -131 -67 -131 -251c0 -183 45 -248 139 -248zM322 -11c-175 0 -269 112 -269 361c0 251 99 361 266 361c185 0 271 -112 271 -361c0 -256 -96 -361 -268 -361z" />
    <glyph glyph-name="one" unicode="1" horiz-adv-x="455" 
d="M333 700v-700h-127v556l-112 -72l-56 92l191 124h104z" />
    <glyph glyph-name="two" unicode="2" horiz-adv-x="568" 
d="M509 114v-114h-470v118l119 99c137 107 206 180 206 262c0 76 -48 114 -135 114c-67 0 -121 -19 -166 -44v124c73 31 139 38 196 38c156 0 243 -78 243 -201c0 -142 -108 -246 -272 -369l-35 -25v-2h314z" />
    <glyph glyph-name="three" unicode="3" horiz-adv-x="567" 
d="M47 21v119c60 -24 114 -35 173 -35c100 0 151 37 151 100c0 77 -62 102 -156 102h-85v107h76c97 0 149 26 149 95c0 53 -43 86 -134 86c-63 0 -118 -13 -161 -32v118c59 21 118 30 189 30c171 0 242 -77 242 -185c0 -89 -54 -142 -142 -161v-2c113 -17 159 -80 159 -160
c0 -143 -112 -214 -268 -214c-57 0 -125 9 -193 32z" />
    <glyph glyph-name="four" unicode="4" horiz-adv-x="632" 
d="M164 267h223v318h-2zM514 151v-151h-128v151h-343v111l303 438h168v-432h88v-117h-88z" />
    <glyph glyph-name="five" unicode="5" horiz-adv-x="564" 
d="M70 16v116c52 -19 88 -27 143 -27c103 0 166 38 166 122c0 79 -51 118 -152 118c-48 0 -106 -9 -150 -24l20 379h392v-113h-289l-9 -150c35 7 55 10 87 10c156 0 236 -93 236 -218c0 -145 -90 -240 -285 -240c-48 0 -106 7 -159 27z" />
    <glyph glyph-name="six" unicode="6" horiz-adv-x="614" 
d="M326 94c72 0 119 45 119 129c0 81 -53 123 -122 123c-78 0 -128 -49 -128 -108c0 -82 46 -144 131 -144zM513 692v-118c-43 15 -84 23 -136 23c-126 0 -200 -89 -200 -226c32 41 78 75 173 75c124 0 228 -68 228 -221c0 -144 -103 -236 -252 -236
c-208 0 -273 162 -273 336c0 215 79 386 320 386c41 0 89 -4 140 -19z" />
    <glyph glyph-name="seven" unicode="7" horiz-adv-x="537" 
d="M488 597l-247 -597h-142l248 584h-324v116h465v-103z" />
    <glyph glyph-name="eight" unicode="8" horiz-adv-x="615" 
d="M328 407c68 35 97 71 97 115c0 61 -50 84 -121 84c-75 0 -116 -32 -116 -80c0 -65 69 -95 140 -119zM291 322c-56 -24 -117 -57 -117 -121s49 -107 140 -107c75 0 128 35 128 103c0 75 -83 103 -151 125zM423 373c109 -40 148 -94 148 -182c0 -125 -101 -202 -260 -202
c-149 0 -266 65 -266 198c0 92 55 148 148 179c-81 39 -131 86 -131 174c0 109 97 171 248 171c136 0 241 -49 241 -168c0 -84 -43 -133 -128 -170z" />
    <glyph glyph-name="nine" unicode="9" horiz-adv-x="614" 
d="M288 606c-72 0 -119 -44 -119 -128c0 -83 53 -129 122 -129c80 0 129 50 129 117c0 88 -47 140 -132 140zM102 8v118c43 -15 84 -23 136 -23c127 0 199 72 200 229c-28 -47 -78 -82 -173 -82c-124 0 -228 72 -228 225c0 144 103 236 252 236c208 0 273 -145 273 -335
c0 -220 -79 -387 -320 -387c-41 0 -89 4 -140 19z" />
    <glyph glyph-name="colon" unicode=":" horiz-adv-x="287" 
d="M226 442c0 -49 -30 -78 -83 -78c-51 0 -82 31 -82 78c0 49 30 78 82 78c51 0 83 -31 83 -78zM226 67c0 -49 -30 -78 -83 -78c-51 0 -82 31 -82 78c0 49 30 78 82 78c51 0 83 -31 83 -78z" />
    <glyph glyph-name="semicolon" unicode=";" horiz-adv-x="291" 
d="M67 -187l-31 70c65 21 98 54 109 106c-63 0 -85 36 -85 79s27 77 87 77c53 0 92 -35 92 -114c0 -95 -52 -189 -172 -218zM226 442c0 -49 -30 -78 -83 -78c-51 0 -82 31 -82 78c0 49 30 78 82 78c51 0 83 -31 83 -78z" />
    <glyph glyph-name="less" unicode="&#x3c;" horiz-adv-x="578" 
d="M528 174v-102l-478 204v91l478 204v-102l-355 -147v-2z" />
    <glyph glyph-name="equal" unicode="=" horiz-adv-x="587" 
d="M538 177h-488v99h488v-99zM538 375h-488v99h488v-99z" />
    <glyph glyph-name="greater" unicode="&#x3e;" horiz-adv-x="578" 
d="M50 469v102l478 -204v-91l-478 -204v102l355 146v2z" />
    <glyph glyph-name="question" unicode="?" horiz-adv-x="486" 
d="M261 226v-14h-115v19c0 145 161 180 161 279c0 59 -49 87 -116 87c-57 0 -97 -11 -150 -38v117c57 27 122 35 182 35c153 0 225 -73 225 -181c0 -165 -187 -183 -187 -304zM286 67c0 -49 -30 -78 -82 -78c-51 0 -82 31 -82 78c0 48 29 76 82 76c49 0 82 -29 82 -76z" />
    <glyph glyph-name="at" unicode="@" horiz-adv-x="902" 
d="M650 -27v-78c-43 -16 -102 -30 -166 -30c-286 0 -415 176 -415 400c0 222 142 405 396 405c243 0 369 -152 369 -332c0 -179 -104 -273 -220 -273c-33 0 -58 8 -74 25c-10 10 -16 25 -17 44h-1c-36 -49 -84 -69 -135 -69c-91 0 -140 69 -140 157c0 128 67 243 203 243
c57 0 91 -25 104 -60h2l14 53h86l-42 -239c-3 -11 -7 -37 -7 -45c0 -13 3 -30 30 -30c55 0 116 61 116 192c0 136 -85 256 -289 256c-213 0 -310 -146 -310 -328c0 -171 84 -321 325 -321c61 0 127 11 171 30zM429 148c77 0 104 92 104 160c0 43 -26 74 -74 74
c-79 0 -107 -77 -107 -146c0 -51 21 -88 77 -88z" />
    <glyph glyph-name="A" unicode="A" horiz-adv-x="666" 
d="M528 0l-55 167h-282l-56 -167h-127l250 700h155l246 -700h-131zM333 590l-105 -311h208z" />
    <glyph glyph-name="B" unicode="B" horiz-adv-x="621" 
d="M204 591v-185h88c104 0 141 39 141 95c0 71 -34 90 -119 90h-110zM204 310v-201h106c91 0 134 22 134 97c0 76 -46 104 -146 104h-94zM334 0h-258v700h267c153 0 216 -64 216 -177c0 -92 -47 -139 -135 -158v-2c99 -5 153 -78 153 -156c0 -114 -57 -207 -243 -207z" />
    <glyph glyph-name="C" unicode="C" horiz-adv-x="614" 
d="M563 137v-120c-37 -19 -91 -28 -168 -28c-227 0 -345 120 -345 352c0 244 116 370 356 370c73 0 124 -12 156 -23v-119c-44 16 -103 24 -139 24c-164 0 -237 -72 -237 -243c0 -165 78 -243 238 -243c47 0 88 7 139 30z" />
    <glyph glyph-name="D" unicode="D" horiz-adv-x="704" 
d="M204 586v-472h81c171 0 236 79 236 242c0 164 -53 230 -224 230h-93zM292 0h-216v700h231c264 0 347 -122 347 -337c0 -244 -115 -363 -362 -363z" />
    <glyph glyph-name="E" unicode="E" horiz-adv-x="557" 
d="M504 114v-114h-428v700h428v-114h-300v-172h268v-108h-268v-192h300z" />
    <glyph glyph-name="F" unicode="F" horiz-adv-x="516" 
d="M204 296v-296h-128v700h406v-114h-278v-178h263v-112h-263z" />
    <glyph glyph-name="G" unicode="G" horiz-adv-x="681" 
d="M503 117v155h-135v109h253v-345c-47 -27 -119 -47 -210 -47c-236 0 -361 123 -361 352c0 245 118 370 361 370c81 0 133 -13 165 -24v-115c-44 17 -106 23 -153 23c-161 0 -240 -73 -240 -245c0 -168 83 -245 238 -245c27 0 55 5 82 12z" />
    <glyph glyph-name="H" unicode="H" horiz-adv-x="721" 
d="M645 700v-700h-127v303h-314v-303h-128v700h128v-282h314v282h127z" />
    <glyph glyph-name="I" unicode="I" horiz-adv-x="280" 
d="M204 700v-700h-128v700h128z" />
    <glyph glyph-name="J" unicode="J" horiz-adv-x="413" 
d="M30 3v116c32 -9 52 -11 68 -11c76 0 112 27 112 111v481h127v-506c0 -135 -64 -204 -209 -204c-51 0 -79 6 -98 13z" />
    <glyph glyph-name="K" unicode="K" horiz-adv-x="650" 
d="M204 700v-322l272 322h152l-289 -328l308 -372h-160l-283 351v-351h-128v700h128z" />
    <glyph glyph-name="L" unicode="L" horiz-adv-x="529" 
d="M495 118v-118h-419v700h128v-582h291z" />
    <glyph glyph-name="M" unicode="M" horiz-adv-x="883" 
d="M807 700v-700h-125v567l-178 -567h-124l-179 568v-568h-125v700h199l170 -556l167 556h195z" />
    <glyph glyph-name="N" unicode="N" horiz-adv-x="720" 
d="M644 700v-700h-147l-296 527v-527h-125v700h158l285 -512v512h125z" />
    <glyph glyph-name="O" unicode="O" horiz-adv-x="761" 
d="M388 103c125 0 188 76 188 247c0 175 -66 247 -198 247c-120 0 -192 -76 -192 -247c0 -169 73 -247 202 -247zM381 -11c-213 0 -331 126 -331 361c0 234 126 361 328 361c225 0 333 -137 333 -361c0 -248 -130 -361 -330 -361z" />
    <glyph glyph-name="P" unicode="P" horiz-adv-x="598" 
d="M202 586v-238h95c99 0 135 39 135 120c0 84 -37 118 -136 118h-94zM204 234v-234h-128v700h231c171 0 258 -71 258 -228c0 -153 -85 -238 -268 -238h-93z" />
    <glyph glyph-name="Q" unicode="Q" horiz-adv-x="761" 
d="M643 -126h-164l-112 115c-204 7 -317 132 -317 361c0 234 126 361 328 361c225 0 333 -137 333 -361c0 -191 -75 -301 -202 -342zM186 350c0 -169 73 -247 202 -247c125 0 188 76 188 247c0 175 -66 247 -198 247c-120 0 -192 -76 -192 -247z" />
    <glyph glyph-name="R" unicode="R" horiz-adv-x="628" 
d="M76 0v700h234c169 0 245 -71 245 -202c0 -107 -37 -172 -129 -203l175 -295h-141l-162 278h-7h-87v-278h-128zM202 586v-199h107c73 0 113 27 113 102c0 64 -34 97 -122 97h-98z" />
    <glyph glyph-name="S" unicode="S" horiz-adv-x="537" 
d="M57 32v116c32 -21 102 -47 179 -47c84 0 123 33 123 94c0 67 -35 83 -123 115l-24 9c-112 39 -160 96 -160 204c0 119 89 188 240 188c81 0 134 -15 165 -30v-113c-51 23 -114 30 -163 30c-72 0 -110 -26 -110 -78c0 -50 28 -73 135 -110l26 -10
c123 -45 152 -111 152 -202c0 -133 -98 -209 -247 -209c-81 0 -142 16 -193 43z" />
    <glyph glyph-name="T" unicode="T" horiz-adv-x="566" 
d="M347 582v-582h-128v582h-201v118h531v-118h-202z" />
    <glyph glyph-name="U" unicode="U" horiz-adv-x="688" 
d="M492 305v395h127v-410c0 -213 -87 -301 -275 -301c-177 0 -275 81 -275 301v410h127v-395c0 -137 33 -200 148 -200c122 0 148 64 148 200z" />
    <glyph glyph-name="V" unicode="V" horiz-adv-x="640" 
d="M633 700l-229 -700h-167l-229 700h138l178 -580l180 580h129z" />
    <glyph glyph-name="W" unicode="W" horiz-adv-x="933" 
d="M922 700l-170 -700h-163l-123 543l-125 -543h-163l-167 700h134l124 -538l121 538h152l122 -540l125 540h133z" />
    <glyph glyph-name="X" unicode="X" horiz-adv-x="644" 
d="M635 0h-157l-160 273l-158 -273h-151l221 363l-201 337h152l141 -253l147 253h146l-204 -335z" />
    <glyph glyph-name="Y" unicode="Y" horiz-adv-x="620" 
d="M374 277v-277h-127v277l-245 423h148l163 -285l157 285h148z" />
    <glyph glyph-name="Z" unicode="Z" horiz-adv-x="583" 
d="M548 114v-114h-513v115l356 471h-344v114h495v-114l-355 -472h361z" />
    <glyph glyph-name="bracketleft" unicode="[" horiz-adv-x="337" 
d="M307 -67v-83h-223v920h223v-83h-115v-754h115z" />
    <glyph glyph-name="backslash" unicode="\" horiz-adv-x="504" 
d="M126 770l371 -920h-108l-371 920h108z" />
    <glyph glyph-name="bracketright" unicode="]" horiz-adv-x="337" 
d="M254 770v-920h-224v83h116v754h-116v83h224z" />
    <glyph glyph-name="asciicircum" unicode="^" horiz-adv-x="561" 
d="M329 700l182 -342h-105l-125 236l-126 -236h-105l183 342h96z" />
    <glyph glyph-name="underscore" unicode="_" horiz-adv-x="498" 
d="M498 -134v-76h-498v76h498z" />
    <glyph glyph-name="grave" unicode="`" horiz-adv-x="595" 
d="M283 732l84 -138h-96l-137 138h149z" />
    <glyph glyph-name="a" unicode="a" horiz-adv-x="544" 
d="M364 196v29c-19 3 -36 6 -83 6c-96 0 -124 -27 -124 -70c0 -41 26 -75 90 -75c77 0 117 42 117 110zM481 310v-310h-107v73h-2c-25 -41 -76 -82 -164 -82c-107 0 -172 58 -172 158c0 105 71 156 230 156c49 0 81 -4 98 -7v28c0 65 -31 94 -119 94
c-56 0 -121 -16 -161 -36v100c43 19 107 36 179 36c161 0 218 -59 218 -210z" />
    <glyph glyph-name="b" unicode="b" horiz-adv-x="615" 
d="M180 69v-69h-112v750h116v-310h2c35 51 90 79 173 79c143 0 215 -88 215 -255c0 -171 -68 -273 -223 -273c-80 0 -134 29 -169 78h-2zM320 90c89 0 131 48 131 172c0 109 -48 158 -127 158c-87 0 -140 -57 -140 -166c0 -97 52 -164 136 -164z" />
    <glyph glyph-name="c" unicode="c" horiz-adv-x="493" 
d="M458 117v-99c-27 -12 -70 -28 -149 -28c-188 0 -268 105 -268 269c0 161 90 261 263 261c77 0 119 -13 147 -24v-100c-31 11 -68 23 -128 23c-100 0 -159 -46 -159 -154c0 -116 59 -174 177 -174c49 0 92 14 117 26z" />
    <glyph glyph-name="d" unicode="d" horiz-adv-x="615" 
d="M432 442v308h116v-750h-112v74h-2c-36 -55 -92 -83 -173 -83c-148 0 -220 106 -220 265c0 161 76 263 232 263c76 0 128 -30 157 -77h2zM297 420c-92 0 -132 -57 -132 -165s46 -165 134 -165s133 61 133 165c0 99 -43 165 -135 165z" />
    <glyph glyph-name="e" unicode="e" horiz-adv-x="561" 
d="M488 124v-96c-27 -20 -90 -38 -170 -38c-191 0 -277 97 -277 269c0 159 92 261 247 261c175 0 236 -115 236 -259v-33h-362c11 -96 60 -140 169 -140c73 0 122 16 157 36zM162 305h242c3 69 -34 120 -113 120c-76 0 -119 -40 -129 -120z" />
    <glyph glyph-name="f" unicode="f" horiz-adv-x="367" 
d="M359 510v-101h-131v-409h-117v409h-96v101h96v65c0 110 45 183 174 183c28 0 49 -3 77 -7v-100c-8 3 -27 6 -48 6c-68 0 -86 -23 -86 -107v-40h131z" />
    <glyph glyph-name="g" unicode="g" horiz-adv-x="615" 
d="M436 438v72h112v-483c0 -179 -109 -244 -270 -244c-69 0 -147 14 -188 30v107c32 -16 93 -36 174 -36c124 0 168 51 168 147v54h-2c-31 -52 -101 -85 -164 -85c-151 0 -225 86 -225 250c0 169 69 269 228 269c73 0 137 -33 165 -81h2zM295 420c-88 0 -130 -48 -130 -163
c0 -103 45 -158 129 -158c89 0 138 62 138 157c0 100 -44 164 -137 164z" />
    <glyph glyph-name="h" unicode="h" horiz-adv-x="600" 
d="M538 311v-311h-117v264c0 115 -24 154 -108 154c-91 0 -129 -65 -129 -182v-236h-116v750h116v-312h2c37 56 97 81 165 81c128 0 187 -63 187 -208z" />
    <glyph glyph-name="i" unicode="i" horiz-adv-x="254" 
d="M199 673c0 -40 -27 -66 -72 -66s-71 26 -71 66c0 41 27 66 71 66c45 0 72 -25 72 -66zM185 510v-510h-116v510h116z" />
    <glyph glyph-name="j" unicode="j" horiz-adv-x="255" 
d="M201 673c0 -40 -27 -66 -72 -66s-72 26 -72 66c0 41 27 66 71 66c47 0 73 -25 73 -66zM-45 -211l2 103c11 -2 22 -3 34 -3c46 0 81 11 81 99v522h116v-512c0 -134 -39 -215 -177 -215c-23 0 -41 2 -56 6z" />
    <glyph glyph-name="k" unicode="k" horiz-adv-x="541" 
d="M184 750v-458l193 218h138l-209 -226l232 -284h-140l-214 268v-268h-116v750h116z" />
    <glyph glyph-name="l" unicode="l" horiz-adv-x="251" 
d="M184 750v-750h-116v750h116z" />
    <glyph glyph-name="m" unicode="m" horiz-adv-x="853" 
d="M790 329v-329h-116v294c0 79 -16 124 -81 124c-83 0 -106 -70 -106 -166v-252h-116v294c0 74 -15 124 -82 124c-84 0 -105 -66 -105 -166v-252h-116v510h110v-75h2c35 60 86 84 151 84c71 0 119 -30 139 -101c39 71 89 101 162 101c113 0 158 -65 158 -190z" />
    <glyph glyph-name="n" unicode="n" horiz-adv-x="600" 
d="M538 311v-311h-117v264c0 117 -24 154 -108 154c-91 0 -129 -65 -129 -182v-236h-116v510h116v-72h2c37 56 97 81 165 81c125 0 187 -63 187 -208z" />
    <glyph glyph-name="o" unicode="o" horiz-adv-x="595" 
d="M298 89c89 0 134 51 134 166s-39 166 -134 166c-87 0 -134 -53 -134 -166c0 -115 53 -166 134 -166zM298 -10c-168 0 -257 88 -257 265c0 171 94 265 257 265c167 0 256 -89 256 -265c0 -169 -91 -265 -256 -265z" />
    <glyph glyph-name="p" unicode="p" horiz-adv-x="615" 
d="M184 65v-275h-116v720h112v-73h2c46 65 115 82 170 82c153 0 222 -92 222 -260c0 -152 -71 -268 -222 -268c-69 0 -133 27 -166 74h-2zM320 90c92 0 131 59 131 171c0 105 -36 159 -133 159c-88 0 -134 -66 -134 -167c0 -100 47 -163 136 -163z" />
    <glyph glyph-name="q" unicode="q" horiz-adv-x="615" 
d="M436 438v72h112v-720h-116v282h-2c-27 -43 -83 -81 -163 -81c-152 0 -226 97 -226 258c0 173 73 270 225 270c92 0 144 -41 168 -81h2zM297 420c-88 0 -132 -54 -132 -161c0 -117 51 -169 135 -169c89 0 132 71 132 165c0 97 -44 165 -135 165z" />
    <glyph glyph-name="r" unicode="r" horiz-adv-x="391" 
d="M184 229v-229h-116v510h110v-83h2c27 61 73 92 136 92c13 0 40 -3 59 -7v-108c-18 7 -38 10 -59 10c-101 0 -132 -65 -132 -185z" />
    <glyph glyph-name="s" unicode="s" horiz-adv-x="439" 
d="M49 18v103c51 -28 106 -36 149 -36c56 0 84 21 84 63c0 89 -241 42 -241 221c0 91 61 151 200 151c53 0 105 -10 133 -18v-99c-35 15 -81 22 -128 22c-51 0 -83 -14 -83 -49c0 -88 240 -34 240 -226c0 -100 -66 -160 -205 -160c-52 0 -104 11 -149 28z" />
    <glyph glyph-name="t" unicode="t" horiz-adv-x="397" 
d="M369 510v-101h-141v-225c0 -61 15 -90 82 -90c19 0 41 4 60 13v-99c-21 -11 -54 -18 -93 -18c-119 0 -166 55 -166 160v259h-96v101h96v108l117 40v-148h141z" />
    <glyph glyph-name="u" unicode="u" horiz-adv-x="600" 
d="M63 200v310h117v-264c0 -117 24 -153 108 -153c91 0 129 64 129 181v236h116v-510h-116v72h-2c-37 -56 -97 -81 -165 -81c-125 0 -187 62 -187 209z" />
    <glyph glyph-name="v" unicode="v" horiz-adv-x="509" 
d="M503 510l-179 -510h-139l-178 510h130l121 -390l125 390h120z" />
    <glyph glyph-name="w" unicode="w" horiz-adv-x="763" 
d="M752 510l-127 -510h-144l-101 393l-98 -393h-145l-126 510h123l83 -397l102 397h130l100 -395l89 395h114z" />
    <glyph glyph-name="x" unicode="x" horiz-adv-x="518" 
d="M338 266l174 -266h-135l-121 182l-117 -182h-133l177 266l-161 244h135l107 -167l107 167h128z" />
    <glyph glyph-name="y" unicode="y" horiz-adv-x="517" 
d="M63 -207l5 100c15 -7 32 -9 45 -9c56 0 82 30 99 86l6 18l-211 522h128l142 -384l115 384h118l-175 -512c-45 -128 -82 -215 -205 -215c-27 0 -48 3 -67 10z" />
    <glyph glyph-name="z" unicode="z" horiz-adv-x="484" 
d="M449 101v-101h-413v106l268 303h-259v101h399v-105l-267 -304h272z" />
    <glyph glyph-name="braceleft" unicode="{" horiz-adv-x="349" 
d="M331 -68v-82h-59c-140 0 -145 107 -145 159v158c0 61 -29 95 -86 101v84c57 6 86 40 86 101v158c0 52 5 159 145 159h59v-83h-30c-55 0 -66 -40 -66 -85v-164c0 -52 -25 -113 -93 -127v-2c68 -14 93 -75 93 -127v-164c0 -47 11 -86 66 -86h30z" />
    <glyph glyph-name="bar" unicode="|" horiz-adv-x="275" 
d="M192 770v-920h-108v920h108z" />
    <glyph glyph-name="braceright" unicode="}" horiz-adv-x="349" 
d="M77 -150h-58v82h30c55 0 65 39 65 86v164c0 51 26 114 94 127v2c-68 13 -94 76 -94 127v164c0 45 -10 85 -65 85h-30v83h58c142 0 145 -107 145 -159v-158c0 -61 29 -95 86 -101v-84c-57 -6 -86 -40 -86 -101v-158c0 -52 -3 -159 -145 -159z" />
    <glyph glyph-name="asciitilde" unicode="~" horiz-adv-x="573" 
d="M484 407l39 -83c-24 -42 -67 -85 -128 -85c-29 0 -59 5 -120 36c-41 19 -65 32 -96 32c-42 0 -73 -45 -90 -70l-39 82c21 43 67 86 128 86c31 0 64 -9 127 -38c43 -19 64 -30 88 -30c43 0 75 46 91 70z" />
    <glyph glyph-name="uni00A0" unicode="&#xa0;" horiz-adv-x="233" 
 />
    <glyph glyph-name="exclamdown" unicode="&#xa1;" horiz-adv-x="377" 
d="M107 442c0 48 29 77 82 77c51 0 81 -30 81 -77c0 -49 -29 -77 -81 -77c-51 0 -82 30 -82 77zM117 -192l18 465h107l18 -465h-143z" />
    <glyph glyph-name="cent" unicode="&#xa2;" horiz-adv-x="553" 
d="M360 -110h-73v103c-151 19 -215 117 -215 266c0 145 74 239 215 258v104h73v-102c61 -3 96 -14 121 -23v-100c-31 11 -67 23 -127 23c-100 0 -160 -46 -160 -154c0 -117 60 -174 177 -174c49 0 91 14 118 26v-99c-24 -11 -64 -24 -129 -27v-101z" />
    <glyph glyph-name="sterling" unicode="&#xa3;" horiz-adv-x="583" 
d="M537 110v-110h-473v110h90v216h-90v84h90v59c0 99 40 242 243 242c51 0 99 -8 136 -19v-108c-45 13 -76 18 -123 18c-98 0 -129 -62 -129 -139v-53h167v-84h-167v-216h256z" />
    <glyph glyph-name="currency" unicode="&#xa4;" horiz-adv-x="565" 
d="M282 206c76 0 142 66 142 142c0 77 -66 143 -142 143s-139 -66 -139 -143c0 -76 63 -142 139 -142zM538 545l-67 -69c19 -29 39 -72 39 -127s-20 -97 -39 -128l67 -68l-59 -60l-68 68c-31 -20 -73 -39 -129 -39s-99 19 -127 39l-68 -67l-59 59l67 68
c-20 29 -39 72 -39 128s19 98 39 127l-67 69l59 59l69 -68c29 21 71 39 126 39c57 0 100 -19 128 -38l69 68z" />
    <glyph glyph-name="yen" unicode="&#xa5;" horiz-adv-x="616" 
d="M516 157h-144v-157h-127v157h-144v71h144v51l-10 18h-134v71h97l-175 332h148l140 -286l135 286h148l-175 -332h97v-71h-135l-9 -18v-51h144v-71z" />
    <glyph glyph-name="brokenbar" unicode="&#xa6;" horiz-adv-x="275" 
d="M192 237v-387h-108v387h108zM192 770v-387h-108v387h108z" />
    <glyph glyph-name="section" unicode="&#xa7;" horiz-adv-x="566" 
d="M82 -91v106c68 -34 113 -40 164 -40c79 0 109 36 109 71c0 42 -37 55 -112 90c-10 2 -46 19 -55 24c-69 31 -123 74 -123 149c0 51 31 93 84 126c-41 23 -67 63 -67 114c0 93 79 162 223 162c61 0 118 -13 154 -24v-103c-72 28 -114 31 -149 31c-48 0 -100 -17 -100 -65
c0 -37 25 -49 102 -84c11 -5 39 -18 50 -22c68 -30 139 -68 139 -151c0 -48 -31 -96 -82 -132c35 -27 64 -60 64 -111c0 -112 -102 -169 -224 -169c-52 0 -116 5 -177 28zM287 225c6 -3 52 -24 59 -26c19 19 38 43 38 76c0 39 -29 65 -93 94c-7 2 -53 23 -63 28
c-31 -20 -45 -45 -45 -69c0 -47 32 -72 104 -103z" />
    <glyph glyph-name="dieresis" unicode="&#xa8;" horiz-adv-x="582" 
d="M461 669c0 -37 -23 -62 -66 -62s-67 25 -67 62c0 39 25 62 66 62c43 0 67 -23 67 -62zM254 669c0 -37 -23 -62 -66 -62s-67 23 -67 62c0 37 24 62 67 62s66 -23 66 -62z" />
    <glyph glyph-name="copyright" unicode="&#xa9;" horiz-adv-x="841" 
d="M541 249v-77c-27 -11 -60 -17 -101 -17c-139 0 -189 91 -189 197c0 121 66 195 187 195c41 0 77 -7 102 -15v-75c-28 12 -63 16 -90 16c-72 0 -108 -44 -108 -120c0 -88 46 -122 110 -122c27 0 62 6 89 18zM782 349c0 -197 -162 -360 -362 -360c-197 0 -360 163 -360 360
c0 200 163 362 360 362c200 0 362 -162 362 -362zM715 348c0 164 -132 296 -296 296c-161 0 -292 -132 -292 -296c0 -161 131 -292 292 -292c164 0 296 131 296 292z" />
    <glyph glyph-name="ordfeminine" unicode="&#xaa;" horiz-adv-x="407" 
d="M261 499v12c-13 1 -28 3 -51 3c-60 0 -78 -13 -78 -44c0 -24 18 -42 54 -42c56 0 75 32 75 71zM354 571v-207h-87v53h-1c-17 -28 -46 -59 -109 -59c-79 0 -121 38 -121 103c0 73 54 109 162 109c25 0 47 -2 63 -5v19c0 31 -16 54 -77 54c-39 0 -86 -10 -114 -23v73
c29 11 77 23 128 23c115 0 156 -41 156 -140z" />
    <glyph glyph-name="guillemotleft" unicode="&#xab;" horiz-adv-x="570" 
d="M186 269l126 -205h-117l-136 205l136 206h117zM398 269l126 -205h-117l-136 205l136 206h117z" />
    <glyph glyph-name="logicalnot" unicode="&#xac;" horiz-adv-x="686" 
d="M605 406v-258h-97v165h-453v93h550z" />
    <glyph glyph-name="uni00AD" unicode="&#xad;" horiz-adv-x="482" 
d="M403 333v-100h-323v100h323z" />
    <glyph glyph-name="registered" unicode="&#xae;" horiz-adv-x="841" 
d="M782 349c0 -197 -162 -360 -362 -360c-197 0 -360 163 -360 360c0 200 163 362 360 362c200 0 362 -162 362 -362zM715 348c0 164 -132 296 -296 296c-161 0 -292 -132 -292 -296c0 -161 131 -292 292 -292c164 0 296 131 296 292zM364 474v-100h50c28 0 59 11 59 52
c0 43 -29 48 -58 48h-51zM488 324l102 -163h-91l-93 149h-40v-149h-86v381h154c51 0 129 -15 129 -115c0 -53 -34 -92 -75 -103z" />
    <glyph glyph-name="macron" unicode="&#xaf;" horiz-adv-x="595" 
d="M453 700v-82h-310v82h310z" />
    <glyph glyph-name="degree" unicode="&#xb0;" horiz-adv-x="397" 
d="M347 563c0 -83 -65 -148 -148 -148s-149 65 -149 148s66 148 149 148s148 -65 148 -148zM274 562c0 42 -37 76 -76 76s-73 -35 -73 -76c0 -39 35 -74 73 -74c41 0 76 35 76 74z" />
    <glyph glyph-name="plusminus" unicode="&#xb1;" horiz-adv-x="587" 
d="M538 169v-99h-488v99h488zM344 384v-153h-100v153h-194v99h194v153h100v-153h194v-99h-194z" />
    <glyph glyph-name="twosuperior" unicode="&#xb2;" 
d="M348 465v-83h-309v88l81 61c83 62 115 92 115 137c0 36 -20 59 -75 59c-35 0 -73 -9 -104 -26v86c44 16 83 23 130 23c99 0 157 -42 157 -119c0 -71 -47 -123 -159 -203l-32 -22v-1h196z" />
    <glyph glyph-name="threesuperior" unicode="&#xb3;" 
d="M48 394v84c36 -16 73 -22 108 -22c60 0 85 16 85 51c0 43 -28 56 -84 56h-61v71h53c51 0 83 13 83 48c0 32 -23 46 -75 46c-37 0 -75 -8 -102 -20v82c36 15 89 20 130 20c104 0 149 -48 149 -108c0 -56 -32 -84 -88 -100v-1c80 -13 98 -61 98 -101
c0 -83 -75 -126 -175 -126c-35 0 -80 5 -121 20z" />
    <glyph glyph-name="acute" unicode="&#xb4;" horiz-adv-x="595" 
d="M488 732l-137 -138h-96l84 138h149z" />
    <glyph glyph-name="mu" unicode="&#xb5;" horiz-adv-x="605" 
d="M186 18h-2v-228h-116v720h116v-276c0 -72 21 -141 105 -141c90 0 132 77 132 178v239h117v-510h-117v77h-2c-32 -56 -91 -85 -152 -85c-31 0 -62 11 -81 26z" />
    <glyph glyph-name="mu" unicode="&#x3bc;" horiz-adv-x="605" 
d="M186 18h-2v-228h-116v720h116v-276c0 -72 21 -141 105 -141c90 0 132 77 132 178v239h117v-510h-117v77h-2c-32 -56 -91 -85 -152 -85c-31 0 -62 11 -81 26z" />
    <glyph glyph-name="paragraph" unicode="&#xb6;" horiz-adv-x="558" 
d="M307 -210h-84v553c-110 0 -177 73 -177 174c0 171 161 183 217 183h215v-910h-82v833h-89v-833z" />
    <glyph glyph-name="periodcentered" unicode="&#xb7;" horiz-adv-x="231" 
d="M192 350c0 -47 -27 -74 -76 -74c-47 0 -76 29 -76 74c0 47 28 74 76 74c47 0 76 -29 76 -74z" />
    <glyph glyph-name="cedilla" unicode="&#xb8;" horiz-adv-x="440" 
d="M121 -217l10 57c19 -9 35 -13 60 -13c27 0 54 14 54 43s-31 36 -56 36c-9 0 -24 1 -35 -2l14 96h66l-8 -47c56 0 106 -24 106 -89c0 -55 -51 -97 -123 -97c-39 0 -65 5 -88 16z" />
    <glyph glyph-name="onesuperior" unicode="&#xb9;" 
d="M279 800v-418h-100v310l-82 -55l-44 68l146 95h80z" />
    <glyph glyph-name="ordmasculine" unicode="&#xba;" horiz-adv-x="407" 
d="M203 433c56 0 83 30 83 102s-27 102 -83 102c-51 0 -81 -30 -81 -102s32 -102 81 -102zM203 358c-116 0 -177 60 -177 177c0 112 64 176 177 176c117 0 179 -61 179 -176c0 -112 -63 -177 -179 -177z" />
    <glyph glyph-name="guillemotright" unicode="&#xbb;" horiz-adv-x="570" 
d="M299 269l-136 -205h-117l126 205l-126 206h117zM511 269l-136 -205h-117l126 205l-126 206h117z" />
    <glyph glyph-name="onequarter" unicode="&#xbc;" horiz-adv-x="877" 
d="M265 701v-418h-100v310l-82 -55l-44 68l146 95h80zM686 720l-434 -742h-82l433 742h83zM548 167h119v172h-1zM766 86v-84h-99v84h-205v77l183 257h121v-252h54v-82h-54z" />
    <glyph glyph-name="onehalf" unicode="&#xbd;" horiz-adv-x="877" 
d="M258 701v-418h-100v310l-82 -55l-44 68l146 95h80zM662 720l-434 -742h-82l433 742h83zM825 85v-83h-309v88l81 61c83 62 115 92 115 137c0 36 -20 59 -75 59c-35 0 -73 -9 -104 -26v86c44 16 83 23 130 23c99 0 157 -42 157 -119c0 -71 -47 -123 -159 -203l-32 -22v-1
h196z" />
    <glyph glyph-name="threequarters" unicode="&#xbe;" horiz-adv-x="877" 
d="M40 295v84c36 -16 73 -22 108 -22c60 0 85 16 85 51c0 43 -28 56 -84 56h-61v71h53c51 0 83 13 83 48c0 32 -23 46 -75 46c-37 0 -75 -8 -102 -20v82c36 15 89 20 130 20c104 0 149 -48 149 -108c0 -56 -32 -84 -88 -100v-1c80 -13 98 -61 98 -101
c0 -83 -75 -126 -175 -126c-35 0 -80 5 -121 20zM701 720l-434 -742h-82l433 742h83zM552 167h119v172h-1zM770 86v-84h-99v84h-205v77l183 257h121v-252h54v-82h-54z" />
    <glyph glyph-name="questiondown" unicode="&#xbf;" horiz-adv-x="486" 
d="M225 281v15h115v-20c0 -146 -161 -179 -161 -278c0 -60 49 -88 117 -88c56 0 97 11 149 38v-117c-57 -27 -122 -35 -182 -35c-153 0 -225 75 -225 181c0 165 187 185 187 304zM201 442c0 48 29 77 82 77c51 0 81 -30 81 -77c0 -49 -29 -77 -81 -77c-51 0 -82 30 -82 77z
" />
    <glyph glyph-name="Agrave" unicode="&#xc0;" horiz-adv-x="666" 
d="M528 0l-55 167h-282l-56 -167h-127l250 700h155l246 -700h-131zM333 590l-105 -311h208zM310 919l88 -149h-99l-149 149h160z" />
    <glyph glyph-name="Aacute" unicode="&#xc1;" horiz-adv-x="666" 
d="M528 0l-55 167h-282l-56 -167h-127l250 700h155l246 -700h-131zM333 590l-105 -311h208zM524 919l-149 -149h-99l88 149h160z" />
    <glyph glyph-name="Acircumflex" unicode="&#xc2;" horiz-adv-x="666" 
d="M528 0l-55 167h-282l-56 -167h-127l250 700h155l246 -700h-131zM333 590l-105 -311h208zM403 907l113 -137h-107l-74 76l-75 -76h-107l114 137h136z" />
    <glyph glyph-name="Atilde" unicode="&#xc3;" horiz-adv-x="666" 
d="M528 0l-55 167h-282l-56 -167h-127l250 700h155l246 -700h-131zM333 590l-105 -311h208zM453 909l71 -14c-7 -77 -51 -121 -103 -121c-27 0 -46 7 -87 26c-29 13 -42 24 -65 24c-16 0 -32 -13 -36 -50l-73 13c4 79 44 122 103 122c31 0 56 -12 87 -27s47 -23 66 -23
s32 13 37 50z" />
    <glyph glyph-name="Adieresis" unicode="&#xc4;" horiz-adv-x="666" 
d="M528 0l-55 167h-282l-56 -167h-127l250 700h155l246 -700h-131zM333 590l-105 -311h208zM519 837c0 -39 -25 -64 -69 -64s-69 25 -69 64c0 40 25 64 69 64s69 -24 69 -64zM289 837c0 -39 -26 -64 -70 -64c-43 0 -68 25 -68 64c0 40 25 64 68 64c44 0 70 -24 70 -64z" />
    <glyph glyph-name="Aring" unicode="&#xc5;" horiz-adv-x="666" 
d="M528 0l-55 167h-282l-56 -167h-127l250 700h155l246 -700h-131zM333 590l-105 -311h208zM334 820c28 0 52 22 52 51c0 27 -24 49 -52 49c-27 0 -48 -22 -48 -49c0 -29 21 -51 48 -51zM334 755c-64 0 -114 51 -114 115c0 63 50 115 114 115s115 -52 115 -115
c0 -64 -51 -115 -115 -115z" />
    <glyph glyph-name="AE" unicode="&#xc6;" horiz-adv-x="980" 
d="M307 279h193v314h-3zM927 114v-114h-427v167h-259l-100 -167h-133l427 700h492v-114h-300v-172h268v-108h-268v-192h300z" />
    <glyph glyph-name="Ccedilla" unicode="&#xc7;" horiz-adv-x="614" 
d="M282 -236l9 62c20 -9 42 -13 67 -13c31 0 59 13 59 45c0 30 -33 37 -60 37c-11 0 -27 1 -38 -2l14 100c-187 20 -283 137 -283 348c0 244 116 370 356 370c73 0 124 -12 156 -23v-119c-44 16 -103 24 -139 24c-164 0 -237 -72 -237 -243c0 -165 78 -243 238 -243
c47 0 88 7 139 30v-120c-36 -17 -86 -27 -158 -28l-7 -40c61 -3 117 -24 117 -93c0 -64 -62 -109 -139 -109c-44 0 -70 6 -94 17z" />
    <glyph glyph-name="Egrave" unicode="&#xc8;" horiz-adv-x="557" 
d="M504 114v-114h-428v700h428v-114h-300v-172h268v-108h-268v-192h300zM257 919l88 -149h-99l-149 149h160z" />
    <glyph glyph-name="Eacute" unicode="&#xc9;" horiz-adv-x="557" 
d="M504 114v-114h-428v700h428v-114h-300v-172h268v-108h-268v-192h300zM470 919l-149 -149h-99l88 149h160z" />
    <glyph glyph-name="Ecircumflex" unicode="&#xca;" horiz-adv-x="557" 
d="M504 114v-114h-428v700h428v-114h-300v-172h268v-108h-268v-192h300zM350 907l113 -137h-107l-74 76l-75 -76h-107l114 137h136z" />
    <glyph glyph-name="Edieresis" unicode="&#xcb;" horiz-adv-x="557" 
d="M504 114v-114h-428v700h428v-114h-300v-172h268v-108h-268v-192h300zM473 837c0 -39 -25 -64 -69 -64s-69 25 -69 64c0 40 25 64 69 64s69 -24 69 -64zM243 837c0 -39 -26 -64 -70 -64c-43 0 -68 25 -68 64c0 40 25 64 68 64c44 0 70 -24 70 -64z" />
    <glyph glyph-name="Igrave" unicode="&#xcc;" horiz-adv-x="280" 
d="M204 700v-700h-128v700h128zM109 919l88 -149h-99l-149 149h160z" />
    <glyph glyph-name="Iacute" unicode="&#xcd;" horiz-adv-x="280" 
d="M204 700v-700h-128v700h128zM332 919l-149 -149h-99l88 149h160z" />
    <glyph glyph-name="Icircumflex" unicode="&#xce;" horiz-adv-x="280" 
d="M204 700v-700h-128v700h128zM210 907l113 -137h-107l-74 76l-75 -76h-107l114 137h136z" />
    <glyph glyph-name="Idieresis" unicode="&#xcf;" horiz-adv-x="280" 
d="M204 700v-700h-128v700h128zM326 837c0 -39 -25 -64 -69 -64s-69 25 -69 64c0 40 25 64 69 64s69 -24 69 -64zM96 837c0 -39 -26 -64 -70 -64c-43 0 -68 25 -68 64c0 40 25 64 68 64c44 0 70 -24 70 -64z" />
    <glyph glyph-name="Eth" unicode="&#xd0;" horiz-adv-x="732" 
d="M105 0v308h-86v105h86v287h230c263 0 348 -122 348 -337c0 -244 -116 -363 -363 -363h-215zM392 308h-160v-194h81c171 0 237 79 237 242c0 164 -55 230 -225 230h-93v-173h160v-105z" />
    <glyph glyph-name="Ntilde" unicode="&#xd1;" horiz-adv-x="720" 
d="M644 700v-700h-147l-296 527v-527h-125v700h158l285 -512v512h125zM480 909l71 -14c-7 -77 -51 -121 -103 -121c-27 0 -46 7 -87 26c-29 13 -42 24 -65 24c-16 0 -32 -13 -36 -50l-73 13c4 79 44 122 103 122c31 0 56 -12 87 -27s47 -23 66 -23s32 13 37 50z" />
    <glyph glyph-name="Ograve" unicode="&#xd2;" horiz-adv-x="761" 
d="M388 103c125 0 188 76 188 247c0 175 -66 247 -198 247c-120 0 -192 -76 -192 -247c0 -169 73 -247 202 -247zM381 -11c-213 0 -331 126 -331 361c0 234 126 361 328 361c225 0 333 -137 333 -361c0 -248 -130 -361 -330 -361zM358 919l88 -149h-99l-149 149h160z" />
    <glyph glyph-name="Oacute" unicode="&#xd3;" horiz-adv-x="761" 
d="M388 103c125 0 188 76 188 247c0 175 -66 247 -198 247c-120 0 -192 -76 -192 -247c0 -169 73 -247 202 -247zM381 -11c-213 0 -331 126 -331 361c0 234 126 361 328 361c225 0 333 -137 333 -361c0 -248 -130 -361 -330 -361zM573 919l-149 -149h-99l88 149h160z" />
    <glyph glyph-name="Ocircumflex" unicode="&#xd4;" horiz-adv-x="761" 
d="M388 103c125 0 188 76 188 247c0 175 -66 247 -198 247c-120 0 -192 -76 -192 -247c0 -169 73 -247 202 -247zM381 -11c-213 0 -331 126 -331 361c0 234 126 361 328 361c225 0 333 -137 333 -361c0 -248 -130 -361 -330 -361zM449 907l113 -137h-107l-74 76l-75 -76
h-107l114 137h136z" />
    <glyph glyph-name="Otilde" unicode="&#xd5;" horiz-adv-x="761" 
d="M388 103c125 0 188 76 188 247c0 175 -66 247 -198 247c-120 0 -192 -76 -192 -247c0 -169 73 -247 202 -247zM381 -11c-213 0 -331 126 -331 361c0 234 126 361 328 361c225 0 333 -137 333 -361c0 -248 -130 -361 -330 -361zM499 909l71 -14c-7 -77 -51 -121 -103 -121
c-27 0 -46 7 -87 26c-29 13 -42 24 -65 24c-16 0 -32 -13 -36 -50l-73 13c4 79 44 122 103 122c31 0 56 -12 87 -27s47 -23 66 -23s32 13 37 50z" />
    <glyph glyph-name="Odieresis" unicode="&#xd6;" horiz-adv-x="761" 
d="M388 103c125 0 188 76 188 247c0 175 -66 247 -198 247c-120 0 -192 -76 -192 -247c0 -169 73 -247 202 -247zM381 -11c-213 0 -331 126 -331 361c0 234 126 361 328 361c225 0 333 -137 333 -361c0 -248 -130 -361 -330 -361zM564 837c0 -39 -25 -64 -69 -64
s-69 25 -69 64c0 40 25 64 69 64s69 -24 69 -64zM334 837c0 -39 -26 -64 -70 -64c-43 0 -68 25 -68 64c0 40 25 64 68 64c44 0 70 -24 70 -64z" />
    <glyph glyph-name="multiply" unicode="&#xd7;" horiz-adv-x="550" 
d="M58 472l70 70l147 -148l148 148l70 -70l-148 -148l148 -147l-70 -70l-148 147l-147 -147l-70 70l147 147z" />
    <glyph glyph-name="Oslash" unicode="&#xd8;" horiz-adv-x="761" 
d="M381 -11c-77 0 -140 16 -191 48l-54 -72l-59 42l58 76c-57 62 -85 151 -85 267c0 234 126 361 328 361c80 0 146 -18 197 -51l57 75l57 -44l-59 -78c55 -63 81 -151 81 -263c0 -248 -130 -361 -330 -361zM184 350c0 -67 11 -120 33 -159l283 372c-31 23 -71 34 -122 34
c-120 0 -194 -76 -194 -247zM388 103c125 0 189 76 189 247c0 67 -10 117 -29 156l-282 -369c31 -23 72 -34 122 -34z" />
    <glyph glyph-name="Ugrave" unicode="&#xd9;" horiz-adv-x="688" 
d="M492 305v395h127v-410c0 -213 -87 -301 -275 -301c-177 0 -275 81 -275 301v410h127v-395c0 -137 33 -200 148 -200c122 0 148 64 148 200zM327 919l88 -149h-99l-149 149h160z" />
    <glyph glyph-name="Uacute" unicode="&#xda;" horiz-adv-x="688" 
d="M492 305v395h127v-410c0 -213 -87 -301 -275 -301c-177 0 -275 81 -275 301v410h127v-395c0 -137 33 -200 148 -200c122 0 148 64 148 200zM536 919l-149 -149h-99l88 149h160z" />
    <glyph glyph-name="Ucircumflex" unicode="&#xdb;" horiz-adv-x="688" 
d="M492 305v395h127v-410c0 -213 -87 -301 -275 -301c-177 0 -275 81 -275 301v410h127v-395c0 -137 33 -200 148 -200c122 0 148 64 148 200zM414 907l113 -137h-107l-74 76l-75 -76h-107l114 137h136z" />
    <glyph glyph-name="Udieresis" unicode="&#xdc;" horiz-adv-x="688" 
d="M492 305v395h127v-410c0 -213 -87 -301 -275 -301c-177 0 -275 81 -275 301v410h127v-395c0 -137 33 -200 148 -200c122 0 148 64 148 200zM530 837c0 -39 -25 -64 -69 -64s-69 25 -69 64c0 40 25 64 69 64s69 -24 69 -64zM300 837c0 -39 -26 -64 -70 -64
c-43 0 -68 25 -68 64c0 40 25 64 68 64c44 0 70 -24 70 -64z" />
    <glyph glyph-name="Yacute" unicode="&#xdd;" horiz-adv-x="620" 
d="M374 277v-277h-127v277l-245 423h148l163 -285l157 285h148zM502 919l-149 -149h-99l88 149h160z" />
    <glyph glyph-name="Thorn" unicode="&#xde;" horiz-adv-x="602" 
d="M202 491v-223h95c97 0 135 36 135 112c0 80 -37 111 -136 111h-94zM204 154v-158h-128v708h128v-99h103c171 0 258 -67 258 -220c0 -149 -85 -231 -268 -231h-93z" />
    <glyph glyph-name="germandbls" unicode="&#xdf;" horiz-adv-x="616" 
d="M262 2v96c20 -7 46 -11 75 -11c69 0 117 36 117 131c0 106 -57 130 -132 130h-44v95h36c59 0 104 30 104 116c0 68 -42 101 -106 101c-103 0 -128 -73 -128 -164v-496h-116v487c0 173 67 271 253 271c128 0 218 -64 218 -189c0 -88 -40 -139 -109 -163v-3
c92 -12 145 -77 145 -188c0 -124 -70 -224 -221 -224c-37 0 -65 2 -92 11z" />
    <glyph glyph-name="agrave" unicode="&#xe0;" horiz-adv-x="544" 
d="M364 196v29c-19 3 -36 6 -83 6c-96 0 -124 -27 -124 -70c0 -41 26 -75 90 -75c77 0 117 42 117 110zM481 310v-310h-107v73h-2c-25 -41 -76 -82 -164 -82c-107 0 -172 58 -172 158c0 105 71 156 230 156c49 0 81 -4 98 -7v28c0 65 -31 94 -119 94
c-56 0 -121 -16 -161 -36v100c43 19 107 36 179 36c161 0 218 -59 218 -210zM259 732l84 -138h-96l-137 138h149z" />
    <glyph glyph-name="aacute" unicode="&#xe1;" horiz-adv-x="544" 
d="M364 196v29c-19 3 -36 6 -83 6c-96 0 -124 -27 -124 -70c0 -41 26 -75 90 -75c77 0 117 42 117 110zM481 310v-310h-107v73h-2c-25 -41 -76 -82 -164 -82c-107 0 -172 58 -172 158c0 105 71 156 230 156c49 0 81 -4 98 -7v28c0 65 -31 94 -119 94
c-56 0 -121 -16 -161 -36v100c43 19 107 36 179 36c161 0 218 -59 218 -210zM459 732l-137 -138h-96l84 138h149z" />
    <glyph glyph-name="acircumflex" unicode="&#xe2;" horiz-adv-x="544" 
d="M364 196v29c-19 3 -36 6 -83 6c-96 0 -124 -27 -124 -70c0 -41 26 -75 90 -75c77 0 117 42 117 110zM481 310v-310h-107v73h-2c-25 -41 -76 -82 -164 -82c-107 0 -172 58 -172 158c0 105 71 156 230 156c49 0 81 -4 98 -7v28c0 65 -31 94 -119 94
c-56 0 -121 -16 -161 -36v100c43 19 107 36 179 36c161 0 218 -59 218 -210zM336 731l110 -138h-98l-72 78l-75 -78h-97l110 138h122z" />
    <glyph glyph-name="atilde" unicode="&#xe3;" horiz-adv-x="544" 
d="M364 196v29c-19 3 -36 6 -83 6c-96 0 -124 -27 -124 -70c0 -41 26 -75 90 -75c77 0 117 42 117 110zM481 310v-310h-107v73h-2c-25 -41 -76 -82 -164 -82c-107 0 -172 58 -172 158c0 105 71 156 230 156c49 0 81 -4 98 -7v28c0 65 -31 94 -119 94
c-56 0 -121 -16 -161 -36v100c43 19 107 36 179 36c161 0 218 -59 218 -210zM379 719l67 -13c-5 -72 -46 -111 -97 -111c-25 0 -43 4 -83 23c-27 12 -41 23 -61 23c-16 0 -31 -13 -35 -46l-68 13c4 72 41 111 96 111c29 0 55 -11 84 -24c28 -12 46 -21 62 -21
c19 0 31 12 35 45z" />
    <glyph glyph-name="adieresis" unicode="&#xe4;" horiz-adv-x="544" 
d="M364 196v29c-19 3 -36 6 -83 6c-96 0 -124 -27 -124 -70c0 -41 26 -75 90 -75c77 0 117 42 117 110zM481 310v-310h-107v73h-2c-25 -41 -76 -82 -164 -82c-107 0 -172 58 -172 158c0 105 71 156 230 156c49 0 81 -4 98 -7v28c0 65 -31 94 -119 94
c-56 0 -121 -16 -161 -36v100c43 19 107 36 179 36c161 0 218 -59 218 -210zM443 669c0 -37 -23 -62 -66 -62s-67 25 -67 62c0 39 25 62 66 62c43 0 67 -23 67 -62zM236 669c0 -37 -23 -62 -66 -62s-67 23 -67 62c0 37 24 62 67 62s66 -23 66 -62z" />
    <glyph glyph-name="aring" unicode="&#xe5;" horiz-adv-x="544" 
d="M364 196v29c-19 3 -36 6 -83 6c-96 0 -124 -27 -124 -70c0 -41 26 -75 90 -75c77 0 117 42 117 110zM481 310v-310h-107v73h-2c-25 -41 -76 -82 -164 -82c-107 0 -172 58 -172 158c0 105 71 156 230 156c49 0 81 -4 98 -7v28c0 65 -31 94 -119 94
c-56 0 -121 -16 -161 -36v100c43 19 107 36 179 36c161 0 218 -59 218 -210zM274 634c27 0 48 22 48 49s-21 48 -48 48c-29 0 -49 -21 -49 -48s20 -49 49 -49zM274 574c-63 0 -108 47 -108 108c0 60 46 108 108 108c61 0 109 -48 109 -108s-48 -108 -109 -108z" />
    <glyph glyph-name="ae" unicode="&#xe6;" horiz-adv-x="885" 
d="M811 124v-96c-27 -20 -90 -38 -170 -38c-111 0 -182 31 -225 95c-60 -76 -138 -94 -202 -94c-113 0 -178 58 -178 158c0 105 71 157 230 157c49 0 81 -5 98 -6v26c0 65 -31 94 -119 94c-56 0 -121 -16 -161 -36v100c43 19 107 36 179 36c92 0 146 -21 177 -68
c43 43 99 68 171 68c176 0 237 -116 237 -260v-33h-362c9 -96 60 -139 168 -139c73 0 124 16 157 36zM364 196v30c-19 3 -36 7 -83 7c-96 0 -124 -30 -124 -72c0 -41 26 -75 90 -75c77 0 117 42 117 110zM486 305h242c0 72 -34 120 -114 120c-77 0 -119 -41 -128 -120z" />
    <glyph glyph-name="ccedilla" unicode="&#xe7;" horiz-adv-x="493" 
d="M211 -217l9 57c20 -9 36 -13 61 -13c27 0 53 14 53 43s-30 36 -55 36c-9 0 -26 1 -35 -2l13 89c-151 19 -216 118 -216 266c0 161 90 261 263 261c77 0 119 -13 147 -24v-100c-31 11 -68 23 -128 23c-100 0 -159 -46 -159 -154c0 -116 59 -174 177 -174
c49 0 92 14 117 26v-99c-25 -12 -65 -25 -136 -28l-6 -37c56 0 105 -24 105 -89c0 -56 -50 -97 -123 -97c-39 0 -64 5 -87 16z" />
    <glyph glyph-name="egrave" unicode="&#xe8;" horiz-adv-x="561" 
d="M488 124v-96c-27 -20 -90 -38 -170 -38c-191 0 -277 97 -277 269c0 159 92 261 247 261c175 0 236 -115 236 -259v-33h-362c11 -96 60 -140 169 -140c73 0 122 16 157 36zM162 305h242c3 69 -34 120 -113 120c-76 0 -119 -40 -129 -120zM262 732l84 -138h-96l-137 138
h149z" />
    <glyph glyph-name="eacute" unicode="&#xe9;" horiz-adv-x="561" 
d="M488 124v-96c-27 -20 -90 -38 -170 -38c-191 0 -277 97 -277 269c0 159 92 261 247 261c175 0 236 -115 236 -259v-33h-362c11 -96 60 -140 169 -140c73 0 122 16 157 36zM162 305h242c3 69 -34 120 -113 120c-76 0 -119 -40 -129 -120zM470 732l-137 -138h-96l84 138
h149z" />
    <glyph glyph-name="ecircumflex" unicode="&#xea;" horiz-adv-x="561" 
d="M488 124v-96c-27 -20 -90 -38 -170 -38c-191 0 -277 97 -277 269c0 159 92 261 247 261c175 0 236 -115 236 -259v-33h-362c11 -96 60 -140 169 -140c73 0 122 16 157 36zM162 305h242c3 69 -34 120 -113 120c-76 0 -119 -40 -129 -120zM348 731l110 -138h-98l-72 78
l-75 -78h-97l110 138h122z" />
    <glyph glyph-name="edieresis" unicode="&#xeb;" horiz-adv-x="561" 
d="M488 124v-96c-27 -20 -90 -38 -170 -38c-191 0 -277 97 -277 269c0 159 92 261 247 261c175 0 236 -115 236 -259v-33h-362c11 -96 60 -140 169 -140c73 0 122 16 157 36zM162 305h242c3 69 -34 120 -113 120c-76 0 -119 -40 -129 -120zM460 669c0 -37 -23 -62 -66 -62
s-67 25 -67 62c0 39 25 62 66 62c43 0 67 -23 67 -62zM253 669c0 -37 -23 -62 -66 -62s-67 23 -67 62c0 37 24 62 67 62s66 -23 66 -62z" />
    <glyph glyph-name="igrave" unicode="&#xec;" horiz-adv-x="254" 
d="M185 510v-510h-116v510h116zM94 732l84 -138h-96l-137 138h149z" />
    <glyph glyph-name="iacute" unicode="&#xed;" horiz-adv-x="254" 
d="M185 510v-510h-116v510h116zM311 732l-137 -138h-96l84 138h149z" />
    <glyph glyph-name="icircumflex" unicode="&#xee;" horiz-adv-x="254" 
d="M185 510v-510h-116v510h116zM190 731l110 -138h-98l-72 78l-75 -78h-97l110 138h122z" />
    <glyph glyph-name="idieresis" unicode="&#xef;" horiz-adv-x="254" 
d="M185 510v-510h-116v510h116zM298 669c0 -37 -23 -62 -66 -62s-67 25 -67 62c0 39 25 62 66 62c43 0 67 -23 67 -62zM91 669c0 -37 -23 -62 -66 -62s-67 23 -67 62c0 37 24 62 67 62s66 -23 66 -62z" />
    <glyph glyph-name="eth" unicode="&#xf0;" horiz-adv-x="597" 
d="M496 697l-101 -50c117 -113 159 -250 159 -389c0 -184 -120 -268 -261 -268c-175 0 -252 98 -252 259c0 163 85 254 233 254c40 0 85 -6 128 -49l3 2c-15 47 -46 94 -110 141l-119 -59l-29 56l82 41c-47 21 -88 33 -124 40l46 83c63 -11 122 -34 186 -70l130 65zM298 89
c89 0 134 46 134 161c0 108 -39 160 -134 160c-87 0 -134 -47 -134 -160c0 -115 53 -161 134 -161z" />
    <glyph glyph-name="ntilde" unicode="&#xf1;" horiz-adv-x="600" 
d="M538 311v-311h-117v264c0 117 -24 154 -108 154c-91 0 -129 -65 -129 -182v-236h-116v510h116v-72h2c37 56 97 81 165 81c125 0 187 -63 187 -208zM405 719l67 -13c-5 -72 -46 -111 -97 -111c-25 0 -43 4 -83 23c-27 12 -41 23 -61 23c-16 0 -31 -13 -35 -46l-68 13
c4 72 41 111 96 111c29 0 55 -11 84 -24c28 -12 46 -21 62 -21c19 0 31 12 35 45z" />
    <glyph glyph-name="ograve" unicode="&#xf2;" horiz-adv-x="595" 
d="M298 89c89 0 134 51 134 166s-39 166 -134 166c-87 0 -134 -53 -134 -166c0 -115 53 -166 134 -166zM298 -10c-168 0 -257 88 -257 265c0 171 94 265 257 265c167 0 256 -89 256 -265c0 -169 -91 -265 -256 -265zM277 732l84 -138h-96l-137 138h149z" />
    <glyph glyph-name="oacute" unicode="&#xf3;" horiz-adv-x="595" 
d="M298 89c89 0 134 51 134 166s-39 166 -134 166c-87 0 -134 -53 -134 -166c0 -115 53 -166 134 -166zM298 -10c-168 0 -257 88 -257 265c0 171 94 265 257 265c167 0 256 -89 256 -265c0 -169 -91 -265 -256 -265zM488 732l-137 -138h-96l84 138h149z" />
    <glyph glyph-name="ocircumflex" unicode="&#xf4;" horiz-adv-x="595" 
d="M298 89c89 0 134 51 134 166s-39 166 -134 166c-87 0 -134 -53 -134 -166c0 -115 53 -166 134 -166zM298 -10c-168 0 -257 88 -257 265c0 171 94 265 257 265c167 0 256 -89 256 -265c0 -169 -91 -265 -256 -265zM359 731l110 -138h-98l-72 78l-75 -78h-97l110 138h122z
" />
    <glyph glyph-name="otilde" unicode="&#xf5;" horiz-adv-x="595" 
d="M298 89c89 0 134 51 134 166s-39 166 -134 166c-87 0 -134 -53 -134 -166c0 -115 53 -166 134 -166zM298 -10c-168 0 -257 88 -257 265c0 171 94 265 257 265c167 0 256 -89 256 -265c0 -169 -91 -265 -256 -265zM403 719l67 -13c-5 -72 -46 -111 -97 -111
c-25 0 -43 4 -83 23c-27 12 -41 23 -61 23c-16 0 -31 -13 -35 -46l-68 13c4 72 41 111 96 111c29 0 55 -11 84 -24c28 -12 46 -21 62 -21c19 0 31 12 35 45z" />
    <glyph glyph-name="odieresis" unicode="&#xf6;" horiz-adv-x="595" 
d="M298 89c89 0 134 51 134 166s-39 166 -134 166c-87 0 -134 -53 -134 -166c0 -115 53 -166 134 -166zM298 -10c-168 0 -257 88 -257 265c0 171 94 265 257 265c167 0 256 -89 256 -265c0 -169 -91 -265 -256 -265zM467 669c0 -37 -23 -62 -66 -62s-67 25 -67 62
c0 39 25 62 66 62c43 0 67 -23 67 -62zM260 669c0 -37 -23 -62 -66 -62s-67 23 -67 62c0 37 24 62 67 62s66 -23 66 -62z" />
    <glyph glyph-name="divide" unicode="&#xf7;" horiz-adv-x="587" 
d="M369 139c0 -47 -27 -73 -74 -73s-76 28 -76 73c0 47 28 73 76 73c45 0 74 -28 74 -73zM369 510c0 -47 -27 -74 -74 -74s-76 29 -76 74s28 73 76 73c45 0 74 -29 74 -73zM538 275h-488v99h488v-99z" />
    <glyph glyph-name="oslash" unicode="&#xf8;" horiz-adv-x="595" 
d="M51 -8l53 67c-42 45 -63 111 -63 196c0 171 94 265 257 265c57 0 106 -11 145 -33l54 69l47 -38l-54 -68c43 -45 64 -110 64 -195c0 -169 -91 -265 -256 -265c-58 0 -107 11 -146 32l-54 -68zM298 88c89 0 135 52 135 167c0 41 -6 74 -17 101l-195 -247
c21 -14 46 -21 77 -21zM163 255c0 -41 6 -73 18 -98l195 247c-19 13 -45 19 -78 19c-87 0 -135 -53 -135 -168z" />
    <glyph glyph-name="ugrave" unicode="&#xf9;" horiz-adv-x="600" 
d="M63 200v310h117v-264c0 -117 24 -153 108 -153c91 0 129 64 129 181v236h116v-510h-116v72h-2c-37 -56 -97 -81 -165 -81c-125 0 -187 62 -187 209zM283 732l84 -138h-96l-137 138h149z" />
    <glyph glyph-name="uacute" unicode="&#xfa;" horiz-adv-x="600" 
d="M63 200v310h117v-264c0 -117 24 -153 108 -153c91 0 129 64 129 181v236h116v-510h-116v72h-2c-37 -56 -97 -81 -165 -81c-125 0 -187 62 -187 209zM488 732l-137 -138h-96l84 138h149z" />
    <glyph glyph-name="ucircumflex" unicode="&#xfb;" horiz-adv-x="600" 
d="M63 200v310h117v-264c0 -117 24 -153 108 -153c91 0 129 64 129 181v236h116v-510h-116v72h-2c-37 -56 -97 -81 -165 -81c-125 0 -187 62 -187 209zM361 731l110 -138h-98l-72 78l-75 -78h-97l110 138h122z" />
    <glyph glyph-name="udieresis" unicode="&#xfc;" horiz-adv-x="600" 
d="M63 200v310h117v-264c0 -117 24 -153 108 -153c91 0 129 64 129 181v236h116v-510h-116v72h-2c-37 -56 -97 -81 -165 -81c-125 0 -187 62 -187 209zM468 669c0 -37 -23 -62 -66 -62s-67 25 -67 62c0 39 25 62 66 62c43 0 67 -23 67 -62zM261 669c0 -37 -23 -62 -66 -62
s-67 23 -67 62c0 37 24 62 67 62s66 -23 66 -62z" />
    <glyph glyph-name="yacute" unicode="&#xfd;" horiz-adv-x="517" 
d="M63 -207l5 100c15 -7 32 -9 45 -9c56 0 82 30 99 86l6 18l-211 522h128l142 -384l115 384h118l-175 -512c-45 -128 -82 -215 -205 -215c-27 0 -48 3 -67 10zM450 732l-137 -138h-96l84 138h149z" />
    <glyph glyph-name="thorn" unicode="&#xfe;" horiz-adv-x="615" 
d="M184 65v-275h-116v960h116v-307h2c44 57 111 76 166 76c153 0 222 -92 222 -260c0 -152 -71 -268 -222 -268c-69 0 -133 27 -166 74h-2zM320 90c92 0 131 59 131 171c0 105 -36 159 -133 159c-88 0 -134 -66 -134 -167c0 -100 47 -163 136 -163z" />
    <glyph glyph-name="ydieresis" unicode="&#xff;" horiz-adv-x="517" 
d="M63 -207l5 100c15 -7 32 -9 45 -9c56 0 82 30 99 86l6 18l-211 522h128l142 -384l115 384h118l-175 -512c-45 -128 -82 -215 -205 -215c-27 0 -48 3 -67 10zM431 669c0 -37 -23 -62 -66 -62s-67 25 -67 62c0 39 25 62 66 62c43 0 67 -23 67 -62zM224 669
c0 -37 -23 -62 -66 -62s-67 23 -67 62c0 37 24 62 67 62s66 -23 66 -62z" />
    <glyph glyph-name="Amacron" unicode="&#x100;" horiz-adv-x="666" 
d="M528 0l-55 167h-282l-56 -167h-127l250 700h155l246 -700h-131zM333 590l-105 -311h208zM504 872v-84h-339v84h339z" />
    <glyph glyph-name="amacron" unicode="&#x101;" horiz-adv-x="544" 
d="M364 196v29c-19 3 -36 6 -83 6c-96 0 -124 -27 -124 -70c0 -41 26 -75 90 -75c77 0 117 42 117 110zM481 310v-310h-107v73h-2c-25 -41 -76 -82 -164 -82c-107 0 -172 58 -172 158c0 105 71 156 230 156c49 0 81 -4 98 -7v28c0 65 -31 94 -119 94
c-56 0 -121 -16 -161 -36v100c43 19 107 36 179 36c161 0 218 -59 218 -210zM429 700v-82h-310v82h310z" />
    <glyph glyph-name="Abreve" unicode="&#x102;" horiz-adv-x="666" 
d="M528 0l-55 167h-282l-56 -167h-127l250 700h155l246 -700h-131zM333 590l-105 -311h208zM425 913l82 -19c-15 -81 -80 -133 -172 -133s-158 52 -173 133l82 19c8 -33 25 -69 91 -69s82 36 90 69z" />
    <glyph glyph-name="abreve" unicode="&#x103;" horiz-adv-x="544" 
d="M364 196v29c-19 3 -36 6 -83 6c-96 0 -124 -27 -124 -70c0 -41 26 -75 90 -75c77 0 117 42 117 110zM481 310v-310h-107v73h-2c-25 -41 -76 -82 -164 -82c-107 0 -172 58 -172 158c0 105 71 156 230 156c49 0 81 -4 98 -7v28c0 65 -31 94 -119 94
c-56 0 -121 -16 -161 -36v100c43 19 107 36 179 36c161 0 218 -59 218 -210zM362 743l78 -19c-12 -84 -80 -134 -165 -134s-153 51 -165 135l78 18c7 -39 28 -72 87 -72c57 0 79 33 87 72z" />
    <glyph glyph-name="Aogonek" unicode="&#x104;" horiz-adv-x="666" 
d="M528 0l-55 167h-282l-56 -167h-127l250 700h155l246 -700h-37c-51 -35 -85 -75 -85 -131c0 -31 24 -51 59 -51c21 0 42 7 62 18v-67c-24 -12 -55 -22 -94 -22c-91 0 -123 48 -123 104c0 64 51 112 106 149h-19zM333 590l-105 -311h208z" />
    <glyph glyph-name="aogonek" unicode="&#x105;" horiz-adv-x="544" 
d="M481 310v-310h-22c-45 -32 -77 -70 -77 -121c0 -29 19 -48 52 -48c21 0 41 6 60 18v-62c-23 -11 -51 -20 -87 -20c-83 0 -116 44 -116 95c0 62 47 108 96 138h-13v73h-2c-25 -41 -76 -82 -164 -82c-107 0 -172 58 -172 158c0 105 71 156 230 156c49 0 81 -4 98 -7v28
c0 65 -31 94 -119 94c-56 0 -121 -16 -161 -36v100c43 19 107 36 179 36c161 0 218 -59 218 -210zM364 196v29c-19 3 -36 6 -83 6c-96 0 -124 -27 -124 -70c0 -41 26 -75 90 -75c77 0 117 42 117 110z" />
    <glyph glyph-name="Cacute" unicode="&#x106;" horiz-adv-x="614" 
d="M563 137v-120c-37 -19 -91 -28 -168 -28c-227 0 -345 120 -345 352c0 244 116 370 356 370c73 0 124 -12 156 -23v-119c-44 16 -103 24 -139 24c-164 0 -237 -72 -237 -243c0 -165 78 -243 238 -243c47 0 88 7 139 30zM560 919l-149 -149h-99l88 149h160z" />
    <glyph glyph-name="cacute" unicode="&#x107;" horiz-adv-x="493" 
d="M458 117v-99c-27 -12 -70 -28 -149 -28c-188 0 -268 105 -268 269c0 161 90 261 263 261c77 0 119 -13 147 -24v-100c-31 11 -68 23 -128 23c-100 0 -159 -46 -159 -154c0 -116 59 -174 177 -174c49 0 92 14 117 26zM481 732l-137 -138h-96l84 138h149z" />
    <glyph glyph-name="Ccircumflex" unicode="&#x108;" horiz-adv-x="614" 
d="M563 137v-120c-37 -19 -91 -28 -168 -28c-227 0 -345 120 -345 352c0 244 116 370 356 370c73 0 124 -12 156 -23v-119c-44 16 -103 24 -139 24c-164 0 -237 -72 -237 -243c0 -165 78 -243 238 -243c47 0 88 7 139 30zM448 907l113 -137h-107l-74 76l-75 -76h-107
l114 137h136z" />
    <glyph glyph-name="ccircumflex" unicode="&#x109;" horiz-adv-x="493" 
d="M458 117v-99c-27 -12 -70 -28 -149 -28c-188 0 -268 105 -268 269c0 161 90 261 263 261c77 0 119 -13 147 -24v-100c-31 11 -68 23 -128 23c-100 0 -159 -46 -159 -154c0 -116 59 -174 177 -174c49 0 92 14 117 26zM347 731l110 -138h-98l-72 78l-75 -78h-97l110 138
h122z" />
    <glyph glyph-name="Cdotaccent" unicode="&#x10a;" horiz-adv-x="614" 
d="M563 137v-120c-37 -19 -91 -28 -168 -28c-227 0 -345 120 -345 352c0 244 116 370 356 370c73 0 124 -12 156 -23v-119c-44 16 -103 24 -139 24c-164 0 -237 -72 -237 -243c0 -165 78 -243 238 -243c47 0 88 7 139 30zM474 846c0 -45 -27 -72 -78 -72
c-47 0 -77 27 -77 72c0 43 30 70 77 70c51 0 78 -26 78 -70z" />
    <glyph glyph-name="cdotaccent" unicode="&#x10b;" horiz-adv-x="493" 
d="M458 117v-99c-27 -12 -70 -28 -149 -28c-188 0 -268 105 -268 269c0 161 90 261 263 261c77 0 119 -13 147 -24v-100c-31 11 -68 23 -128 23c-100 0 -159 -46 -159 -154c0 -116 59 -174 177 -174c49 0 92 14 117 26zM370 673c0 -40 -27 -66 -72 -66s-71 26 -71 66
c0 41 27 66 71 66c45 0 72 -25 72 -66z" />
    <glyph glyph-name="Ccaron" unicode="&#x10c;" horiz-adv-x="614" 
d="M563 137v-120c-37 -19 -91 -28 -168 -28c-227 0 -345 120 -345 352c0 244 116 370 356 370c73 0 124 -12 156 -23v-119c-44 16 -103 24 -139 24c-164 0 -237 -72 -237 -243c0 -165 78 -243 238 -243c47 0 88 7 139 30zM569 907l-113 -137h-136l-114 137h107l75 -76l74 76
h107z" />
    <glyph glyph-name="ccaron" unicode="&#x10d;" horiz-adv-x="493" 
d="M458 117v-99c-27 -12 -70 -28 -149 -28c-188 0 -268 105 -268 269c0 161 90 261 263 261c77 0 119 -13 147 -24v-100c-31 11 -68 23 -128 23c-100 0 -159 -46 -159 -154c0 -116 59 -174 177 -174c49 0 92 14 117 26zM471 731l-110 -138h-122l-110 138h97l73 -78l74 78h98
z" />
    <glyph glyph-name="Dcaron" unicode="&#x10e;" horiz-adv-x="704" 
d="M204 586v-472h81c171 0 236 79 236 242c0 164 -53 230 -224 230h-93zM292 0h-216v700h231c264 0 347 -122 347 -337c0 -244 -115 -363 -362 -363zM485 907l-113 -137h-136l-114 137h107l75 -76l74 76h107z" />
    <glyph glyph-name="dcaron" unicode="&#x10f;" horiz-adv-x="751" 
d="M432 442v308h116v-750h-112v74h-2c-36 -55 -92 -83 -173 -83c-148 0 -220 106 -220 265c0 161 76 263 232 263c76 0 128 -30 157 -77h2zM297 420c-92 0 -132 -57 -132 -165s46 -165 134 -165s133 61 133 165c0 99 -43 165 -135 165zM769 700l-84 -212h-91l48 212h127z
" />
    <glyph glyph-name="Dcroat" unicode="&#x110;" horiz-adv-x="732" 
d="M105 0v308h-86v105h86v287h230c263 0 348 -122 348 -337c0 -244 -116 -363 -363 -363h-215zM392 308h-160v-194h81c171 0 237 79 237 242c0 164 -55 230 -225 230h-93v-173h160v-105z" />
    <glyph glyph-name="dcroat" unicode="&#x111;" horiz-adv-x="629" 
d="M297 418c-92 0 -132 -56 -132 -164s46 -164 134 -164s133 59 133 163c0 100 -43 165 -135 165zM432 659v91h116v-91h88v-75h-88v-584h-112v74h-2c-36 -55 -92 -83 -173 -83c-148 0 -220 103 -220 264c0 160 76 261 232 261c76 0 128 -30 157 -77h2v145h-212v75h212z" />
    <glyph glyph-name="Emacron" unicode="&#x112;" horiz-adv-x="557" 
d="M504 114v-114h-428v700h428v-114h-300v-172h268v-108h-268v-192h300zM451 872v-84h-339v84h339z" />
    <glyph glyph-name="emacron" unicode="&#x113;" horiz-adv-x="561" 
d="M488 124v-96c-27 -20 -90 -38 -170 -38c-191 0 -277 97 -277 269c0 159 92 261 247 261c175 0 236 -115 236 -259v-33h-362c11 -96 60 -140 169 -140c73 0 122 16 157 36zM162 305h242c3 69 -34 120 -113 120c-76 0 -119 -40 -129 -120zM441 700v-82h-310v82h310z" />
    <glyph glyph-name="Edotaccent" unicode="&#x116;" horiz-adv-x="557" 
d="M504 114v-114h-428v700h428v-114h-300v-172h268v-108h-268v-192h300zM359 846c0 -45 -27 -72 -78 -72c-47 0 -77 27 -77 72c0 43 30 70 77 70c51 0 78 -26 78 -70z" />
    <glyph glyph-name="edotaccent" unicode="&#x117;" horiz-adv-x="561" 
d="M488 124v-96c-27 -20 -90 -38 -170 -38c-191 0 -277 97 -277 269c0 159 92 261 247 261c175 0 236 -115 236 -259v-33h-362c11 -96 60 -140 169 -140c73 0 122 16 157 36zM162 305h242c3 69 -34 120 -113 120c-76 0 -119 -40 -129 -120zM357 673c0 -40 -27 -66 -72 -66
s-71 26 -71 66c0 41 27 66 71 66c45 0 72 -25 72 -66z" />
    <glyph glyph-name="Eogonek" unicode="&#x118;" horiz-adv-x="557" 
d="M494 -164v-67c-24 -12 -55 -22 -94 -22c-91 0 -123 48 -123 104c0 64 51 112 106 149h-307v700h428v-114h-300v-172h268v-108h-268v-192h300v-114h-46c-51 -35 -85 -75 -85 -131c0 -31 24 -51 59 -51c21 0 42 7 62 18z" />
    <glyph glyph-name="eogonek" unicode="&#x119;" horiz-adv-x="561" 
d="M488 124v-96c-15 -11 -40 -21 -75 -28c-45 -32 -76 -70 -76 -121c0 -29 19 -48 52 -48c21 0 41 6 60 18v-62c-23 -11 -51 -20 -87 -20c-83 0 -116 44 -116 95c0 56 38 97 81 128h-9c-191 0 -277 97 -277 269c0 159 92 261 247 261c175 0 236 -115 236 -259v-33h-362
c11 -96 60 -140 169 -140c73 0 122 16 157 36zM162 305h242c3 69 -34 120 -113 120c-76 0 -119 -40 -129 -120z" />
    <glyph glyph-name="Ecaron" unicode="&#x11a;" horiz-adv-x="557" 
d="M504 114v-114h-428v700h428v-114h-300v-172h268v-108h-268v-192h300zM465 907l-113 -137h-136l-114 137h107l75 -76l74 76h107z" />
    <glyph glyph-name="ecaron" unicode="&#x11b;" horiz-adv-x="561" 
d="M488 124v-96c-27 -20 -90 -38 -170 -38c-191 0 -277 97 -277 269c0 159 92 261 247 261c175 0 236 -115 236 -259v-33h-362c11 -96 60 -140 169 -140c73 0 122 16 157 36zM162 305h242c3 69 -34 120 -113 120c-76 0 -119 -40 -129 -120zM459 731l-110 -138h-122l-110 138
h97l73 -78l74 78h98z" />
    <glyph glyph-name="Gcircumflex" unicode="&#x11c;" horiz-adv-x="681" 
d="M503 117v155h-135v109h253v-345c-47 -27 -119 -47 -210 -47c-236 0 -361 123 -361 352c0 245 118 370 361 370c81 0 133 -13 165 -24v-115c-44 17 -106 23 -153 23c-161 0 -240 -73 -240 -245c0 -168 83 -245 238 -245c27 0 55 5 82 12zM451 907l113 -137h-107l-74 76
l-75 -76h-107l114 137h136z" />
    <glyph glyph-name="gcircumflex" unicode="&#x11d;" horiz-adv-x="615" 
d="M436 438v72h112v-483c0 -179 -109 -244 -270 -244c-69 0 -147 14 -188 30v107c32 -16 93 -36 174 -36c124 0 168 51 168 147v54h-2c-31 -52 -101 -85 -164 -85c-151 0 -225 86 -225 250c0 169 69 269 228 269c73 0 137 -33 165 -81h2zM295 420c-88 0 -130 -48 -130 -163
c0 -103 45 -158 129 -158c89 0 138 62 138 157c0 100 -44 164 -137 164zM371 731l110 -138h-98l-72 78l-75 -78h-97l110 138h122z" />
    <glyph glyph-name="Gbreve" unicode="&#x11e;" horiz-adv-x="681" 
d="M503 117v155h-135v109h253v-345c-47 -27 -119 -47 -210 -47c-236 0 -361 123 -361 352c0 245 118 370 361 370c81 0 133 -13 165 -24v-115c-44 17 -106 23 -153 23c-161 0 -240 -73 -240 -245c0 -168 83 -245 238 -245c27 0 55 5 82 12zM479 913l82 -19
c-15 -81 -80 -133 -172 -133s-158 52 -173 133l82 19c8 -33 25 -69 91 -69s82 36 90 69z" />
    <glyph glyph-name="gbreve" unicode="&#x11f;" horiz-adv-x="615" 
d="M436 438v72h112v-483c0 -179 -109 -244 -270 -244c-69 0 -147 14 -188 30v107c32 -16 93 -36 174 -36c124 0 168 51 168 147v54h-2c-31 -52 -101 -85 -164 -85c-151 0 -225 86 -225 250c0 169 69 269 228 269c73 0 137 -33 165 -81h2zM295 420c-88 0 -130 -48 -130 -163
c0 -103 45 -158 129 -158c89 0 138 62 138 157c0 100 -44 164 -137 164zM388 743l78 -19c-12 -84 -80 -134 -165 -134s-153 51 -165 135l78 18c7 -39 28 -72 87 -72c57 0 79 33 87 72z" />
    <glyph glyph-name="Gdotaccent" unicode="&#x120;" horiz-adv-x="681" 
d="M503 117v155h-135v109h253v-345c-47 -27 -119 -47 -210 -47c-236 0 -361 123 -361 352c0 245 118 370 361 370c81 0 133 -13 165 -24v-115c-44 17 -106 23 -153 23c-161 0 -240 -73 -240 -245c0 -168 83 -245 238 -245c27 0 55 5 82 12zM476 846c0 -45 -27 -72 -78 -72
c-47 0 -77 27 -77 72c0 43 30 70 77 70c51 0 78 -26 78 -70z" />
    <glyph glyph-name="gdotaccent" unicode="&#x121;" horiz-adv-x="615" 
d="M436 438v72h112v-483c0 -179 -109 -244 -270 -244c-69 0 -147 14 -188 30v107c32 -16 93 -36 174 -36c124 0 168 51 168 147v54h-2c-31 -52 -101 -85 -164 -85c-151 0 -225 86 -225 250c0 169 69 269 228 269c73 0 137 -33 165 -81h2zM295 420c-88 0 -130 -48 -130 -163
c0 -103 45 -158 129 -158c89 0 138 62 138 157c0 100 -44 164 -137 164zM373 673c0 -40 -27 -66 -72 -66s-71 26 -71 66c0 41 27 66 71 66c45 0 72 -25 72 -66z" />
    <glyph glyph-name="Gcommaaccent" unicode="&#x122;" horiz-adv-x="681" 
d="M503 117v155h-135v109h253v-345c-47 -27 -119 -47 -210 -47c-236 0 -361 123 -361 352c0 245 118 370 361 370c81 0 133 -13 165 -24v-115c-44 17 -106 23 -153 23c-161 0 -240 -73 -240 -245c0 -168 83 -245 238 -245c27 0 55 5 82 12zM333 -233v51c37 -3 72 8 75 37
c-51 -8 -93 6 -93 45c0 31 29 52 80 52c48 0 84 -25 84 -77c0 -59 -47 -113 -146 -108z" />
    <glyph glyph-name="gcommaaccent" unicode="&#x123;" horiz-adv-x="615" 
d="M436 438v72h112v-483c0 -179 -109 -244 -270 -244c-69 0 -147 14 -188 30v107c32 -16 93 -36 174 -36c124 0 168 51 168 147v54h-2c-31 -52 -101 -85 -164 -85c-151 0 -225 86 -225 250c0 169 69 269 228 269c73 0 137 -33 165 -81h2zM295 420c-88 0 -130 -48 -130 -163
c0 -103 45 -158 129 -158c89 0 138 62 138 157c0 100 -44 164 -137 164zM341 746v-51c-37 3 -72 -8 -75 -37c51 7 93 -6 93 -45c0 -31 -29 -52 -80 -52c-49 0 -84 25 -84 77c0 59 47 113 146 108z" />
    <glyph glyph-name="Hcircumflex" unicode="&#x124;" horiz-adv-x="721" 
d="M645 700v-700h-127v303h-314v-303h-128v700h128v-282h314v282h127zM430 907l113 -137h-107l-74 76l-75 -76h-107l114 137h136z" />
    <glyph glyph-name="hcircumflex" unicode="&#x125;" horiz-adv-x="600" 
d="M538 311v-311h-117v264c0 115 -24 154 -108 154c-91 0 -129 -65 -129 -182v-236h-116v750h116v-312h2c37 56 97 81 165 81c128 0 187 -63 187 -208zM189 928l110 -138h-98l-72 78l-75 -78h-97l110 138h122z" />
    <glyph glyph-name="Hbar" unicode="&#x126;" horiz-adv-x="766" 
d="M226 413h314v95h-314v-95zM668 508v-508h-128v298h-314v-298h-127v508h-76v86h76v106h127v-106h314v106h128v-106h76v-86h-76z" />
    <glyph glyph-name="hbar" unicode="&#x127;" horiz-adv-x="606" 
d="M545 308v-308h-116v262c0 117 -26 153 -108 153c-92 0 -129 -65 -129 -181v-234h-117v584h-88v75h88v91h117v-91h211v-75h-211v-149h2c37 56 97 81 165 81c125 0 186 -61 186 -208z" />
    <glyph glyph-name="Imacron" unicode="&#x12a;" horiz-adv-x="280" 
d="M204 700v-700h-128v700h128zM311 872v-84h-339v84h339z" />
    <glyph glyph-name="imacron" unicode="&#x12b;" horiz-adv-x="254" 
d="M185 510v-510h-116v510h116zM284 700v-82h-310v82h310z" />
    <glyph glyph-name="Iogonek" unicode="&#x12e;" horiz-adv-x="280" 
d="M217 -164v-67c-24 -12 -55 -22 -94 -22c-91 0 -123 48 -123 104c0 64 51 112 106 149h-30v700h128v-700h-23c-51 -35 -85 -75 -85 -131c0 -31 24 -51 59 -51c21 0 42 7 62 18z" />
    <glyph glyph-name="iogonek" unicode="&#x12f;" horiz-adv-x="254" 
d="M185 510v-510h-22c-47 -32 -77 -70 -77 -121c0 -29 19 -48 52 -48c21 0 41 6 60 18v-62c-23 -11 -51 -20 -87 -20c-83 0 -116 43 -116 95c0 62 47 108 96 138h-22v510h116zM199 673c0 -40 -27 -66 -72 -66s-71 26 -71 66c0 41 27 66 71 66c45 0 72 -25 72 -66z" />
    <glyph glyph-name="Idotaccent" unicode="&#x130;" horiz-adv-x="280" 
d="M204 700v-700h-128v700h128zM219 846c0 -45 -27 -72 -78 -72c-47 0 -77 27 -77 72c0 43 30 70 77 70c51 0 78 -26 78 -70z" />
    <glyph glyph-name="dotlessi" unicode="&#x131;" horiz-adv-x="254" 
d="M185 510v-510h-116v510h116z" />
    <glyph glyph-name="Jcircumflex" unicode="&#x134;" horiz-adv-x="413" 
d="M30 3v116c32 -9 52 -11 68 -11c76 0 112 27 112 111v481h127v-506c0 -135 -64 -204 -209 -204c-51 0 -79 6 -98 13zM337 907l113 -137h-107l-74 76l-75 -76h-107l114 137h136z" />
    <glyph glyph-name="jcircumflex" unicode="&#x135;" horiz-adv-x="255" 
d="M-45 -211l2 103c11 -2 22 -3 34 -3c46 0 81 11 81 99v522h116v-512c0 -134 -39 -215 -177 -215c-23 0 -41 2 -56 6zM190 731l110 -138h-98l-72 78l-75 -78h-97l110 138h122z" />
    <glyph glyph-name="Kcommaaccent" unicode="&#x136;" horiz-adv-x="650" 
d="M204 700v-322l272 322h152l-289 -328l308 -372h-160l-283 351v-351h-128v700h128zM269 -233v51c37 -3 72 8 75 37c-51 -8 -93 6 -93 45c0 31 29 52 80 52c48 0 84 -25 84 -77c0 -59 -47 -113 -146 -108z" />
    <glyph glyph-name="kcommaaccent" unicode="&#x137;" horiz-adv-x="541" 
d="M184 750v-458l193 218h138l-209 -226l232 -284h-140l-214 268v-268h-116v750h116zM210 -233v51c37 -3 72 8 75 37c-51 -7 -93 6 -93 45c0 31 29 52 80 52c49 0 84 -25 84 -77c0 -59 -47 -113 -146 -108z" />
    <glyph glyph-name="Lacute" unicode="&#x139;" horiz-adv-x="529" 
d="M495 118v-118h-419v700h128v-582h291zM337 919l-149 -149h-99l88 149h160z" />
    <glyph glyph-name="lacute" unicode="&#x13a;" horiz-adv-x="251" 
d="M184 750v-750h-116v750h116zM307 951l-137 -138h-96l84 138h149z" />
    <glyph glyph-name="Lcommaaccent" unicode="&#x13b;" horiz-adv-x="529" 
d="M495 118v-118h-419v700h128v-582h291zM208 -233v51c37 -3 72 8 75 37c-51 -8 -93 6 -93 45c0 31 29 52 80 52c48 0 84 -25 84 -77c0 -59 -47 -113 -146 -108z" />
    <glyph glyph-name="lcommaaccent" unicode="&#x13c;" horiz-adv-x="251" 
d="M184 750v-750h-116v750h116zM66 -233v51c37 -3 72 8 75 37c-51 -7 -93 6 -93 45c0 31 29 52 80 52c49 0 84 -25 84 -77c0 -59 -47 -113 -146 -108z" />
    <glyph glyph-name="Lcaron" unicode="&#x13d;" horiz-adv-x="534" 
d="M495 118v-118h-419v700h128v-582h291zM498 700l-84 -212h-91l48 212h127z" />
    <glyph glyph-name="lcaron" unicode="&#x13e;" horiz-adv-x="386" 
d="M184 750v-750h-116v750h116zM406 700l-84 -212h-91l48 212h127z" />
    <glyph glyph-name="Ldot" unicode="&#x13f;" horiz-adv-x="535" 
d="M495 118v-118h-419v700h128v-582h291zM496 355c0 -47 -27 -74 -76 -74c-47 0 -76 29 -76 74c0 47 28 74 76 74c47 0 76 -29 76 -74z" />
    <glyph glyph-name="ldot" unicode="&#x140;" horiz-adv-x="400" 
d="M184 750v-750h-116v750h116zM401 350c0 -47 -27 -74 -76 -74c-47 0 -76 29 -76 74c0 47 28 74 76 74c47 0 76 -29 76 -74z" />
    <glyph glyph-name="Lslash" unicode="&#x141;" horiz-adv-x="571" 
d="M406 430l-156 -100v-212h290v-118h-418v247l-96 -61v92l96 62v360h128v-278l156 101v-93z" />
    <glyph glyph-name="lslash" unicode="&#x142;" horiz-adv-x="339" 
d="M112 0v327l-88 -57v84l88 57v339h116v-264l88 57v-84l-88 -57v-402h-116z" />
    <glyph glyph-name="Nacute" unicode="&#x143;" horiz-adv-x="720" 
d="M644 700v-700h-147l-296 527v-527h-125v700h158l285 -512v512h125zM555 919l-149 -149h-99l88 149h160z" />
    <glyph glyph-name="nacute" unicode="&#x144;" horiz-adv-x="600" 
d="M538 311v-311h-117v264c0 117 -24 154 -108 154c-91 0 -129 -65 -129 -182v-236h-116v510h116v-72h2c37 56 97 81 165 81c125 0 187 -63 187 -208zM487 732l-137 -138h-96l84 138h149z" />
    <glyph glyph-name="Ncommaaccent" unicode="&#x145;" horiz-adv-x="720" 
d="M644 700v-700h-147l-296 527v-527h-125v700h158l285 -512v512h125zM303 -233v51c37 -3 72 8 75 37c-51 -8 -93 6 -93 45c0 31 29 52 80 52c48 0 84 -25 84 -77c0 -59 -47 -113 -146 -108z" />
    <glyph glyph-name="ncommaaccent" unicode="&#x146;" horiz-adv-x="600" 
d="M538 311v-311h-117v264c0 117 -24 154 -108 154c-91 0 -129 -65 -129 -182v-236h-116v510h116v-72h2c37 56 97 81 165 81c125 0 187 -63 187 -208zM238 -233v51c37 -3 72 8 75 37c-51 -7 -93 6 -93 45c0 31 29 52 80 52c49 0 84 -25 84 -77c0 -59 -47 -113 -146 -108z
" />
    <glyph glyph-name="Ncaron" unicode="&#x147;" horiz-adv-x="720" 
d="M644 700v-700h-147l-296 527v-527h-125v700h158l285 -512v512h125zM547 907l-113 -137h-136l-114 137h107l75 -76l74 76h107z" />
    <glyph glyph-name="ncaron" unicode="&#x148;" horiz-adv-x="600" 
d="M538 311v-311h-117v264c0 117 -24 154 -108 154c-91 0 -129 -65 -129 -182v-236h-116v510h116v-72h2c37 56 97 81 165 81c125 0 187 -63 187 -208zM471 731l-110 -138h-122l-110 138h97l73 -78l74 78h98z" />
    <glyph glyph-name="Omacron" unicode="&#x14c;" horiz-adv-x="761" 
d="M388 103c125 0 188 76 188 247c0 175 -66 247 -198 247c-120 0 -192 -76 -192 -247c0 -169 73 -247 202 -247zM381 -11c-213 0 -331 126 -331 361c0 234 126 361 328 361c225 0 333 -137 333 -361c0 -248 -130 -361 -330 -361zM550 872v-84h-339v84h339z" />
    <glyph glyph-name="omacron" unicode="&#x14d;" horiz-adv-x="595" 
d="M298 89c89 0 134 51 134 166s-39 166 -134 166c-87 0 -134 -53 -134 -166c0 -115 53 -166 134 -166zM298 -10c-168 0 -257 88 -257 265c0 171 94 265 257 265c167 0 256 -89 256 -265c0 -169 -91 -265 -256 -265zM453 700v-82h-310v82h310z" />
    <glyph glyph-name="Ohungarumlaut" unicode="&#x150;" horiz-adv-x="761" 
d="M388 103c125 0 188 76 188 247c0 175 -66 247 -198 247c-120 0 -192 -76 -192 -247c0 -169 73 -247 202 -247zM381 -11c-213 0 -331 126 -331 361c0 234 126 361 328 361c225 0 333 -137 333 -361c0 -248 -130 -361 -330 -361zM530 917h148l-156 -147h-93zM326 917h149
l-156 -147h-94z" />
    <glyph glyph-name="ohungarumlaut" unicode="&#x151;" horiz-adv-x="595" 
d="M298 89c89 0 134 51 134 166s-39 166 -134 166c-87 0 -134 -53 -134 -166c0 -115 53 -166 134 -166zM298 -10c-168 0 -257 88 -257 265c0 171 94 265 257 265c167 0 256 -89 256 -265c0 -169 -91 -265 -256 -265zM580 731l-144 -138h-84l93 138h135zM382 731l-144 -138
h-84l93 138h135z" />
    <glyph glyph-name="OE" unicode="&#x152;" horiz-adv-x="940" 
d="M381 -11c-213 0 -331 126 -331 361c0 234 126 361 328 361c37 0 72 -4 105 -11h404v-114h-300v-172h268v-108h-268v-192h300v-114h-403c-33 -7 -67 -11 -103 -11zM388 103c27 0 51 2 72 10v472c-23 8 -51 12 -82 12c-120 0 -192 -76 -192 -247c0 -169 73 -247 202 -247z
" />
    <glyph glyph-name="oe" unicode="&#x153;" horiz-adv-x="956" 
d="M883 124v-96c-27 -20 -90 -38 -170 -38c-104 0 -175 31 -219 87c-43 -56 -108 -87 -196 -87c-168 0 -257 88 -257 265c0 171 94 265 257 265c89 0 154 -29 197 -85c41 53 105 85 188 85c175 0 236 -115 236 -259v-33h-362c9 -96 60 -140 168 -140c73 0 123 16 158 36z
M298 89c89 0 135 49 135 166s-40 166 -135 166c-87 0 -134 -49 -134 -166s53 -166 134 -166zM557 305h242c0 72 -34 120 -113 120s-118 -40 -129 -120z" />
    <glyph glyph-name="Racute" unicode="&#x154;" horiz-adv-x="628" 
d="M76 0v700h234c169 0 245 -71 245 -202c0 -107 -37 -172 -129 -203l175 -295h-141l-162 278h-7h-87v-278h-128zM202 586v-199h107c73 0 113 27 113 102c0 64 -34 97 -122 97h-98zM489 919l-149 -149h-99l88 149h160z" />
    <glyph glyph-name="racute" unicode="&#x155;" horiz-adv-x="391" 
d="M184 229v-229h-116v510h110v-83h2c27 61 73 92 136 92c13 0 40 -3 59 -7v-108c-18 7 -38 10 -59 10c-101 0 -132 -65 -132 -185zM379 732l-137 -138h-96l84 138h149z" />
    <glyph glyph-name="Rcommaaccent" unicode="&#x156;" horiz-adv-x="628" 
d="M76 0v700h234c169 0 245 -71 245 -202c0 -107 -37 -172 -129 -203l175 -295h-141l-162 278h-7h-87v-278h-128zM202 586v-199h107c73 0 113 27 113 102c0 64 -34 97 -122 97h-98zM259 -233v51c37 -3 72 8 75 37c-51 -8 -93 6 -93 45c0 31 29 52 80 52c48 0 84 -25 84 -77
c0 -59 -47 -113 -146 -108z" />
    <glyph glyph-name="rcommaaccent" unicode="&#x157;" horiz-adv-x="391" 
d="M184 229v-229h-116v510h110v-83h2c27 61 73 92 136 92c13 0 40 -3 59 -7v-108c-18 7 -38 10 -59 10c-101 0 -132 -65 -132 -185zM73 -233v51c37 -3 72 8 75 37c-51 -7 -93 6 -93 45c0 31 29 52 80 52c49 0 84 -25 84 -77c0 -59 -47 -113 -146 -108z" />
    <glyph glyph-name="Rcaron" unicode="&#x158;" horiz-adv-x="628" 
d="M76 0v700h234c169 0 245 -71 245 -202c0 -107 -37 -172 -129 -203l175 -295h-141l-162 278h-7h-87v-278h-128zM202 586v-199h107c73 0 113 27 113 102c0 64 -34 97 -122 97h-98zM475 907l-113 -137h-136l-114 137h107l75 -76l74 76h107z" />
    <glyph glyph-name="rcaron" unicode="&#x159;" horiz-adv-x="391" 
d="M184 229v-229h-116v510h110v-83h2c27 61 73 92 136 92c13 0 40 -3 59 -7v-108c-18 7 -38 10 -59 10c-101 0 -132 -65 -132 -185zM389 731l-110 -138h-122l-110 138h97l73 -78l74 78h98z" />
    <glyph glyph-name="Sacute" unicode="&#x15a;" horiz-adv-x="537" 
d="M57 32v116c32 -21 102 -47 179 -47c84 0 123 33 123 94c0 67 -35 83 -123 115l-24 9c-112 39 -160 96 -160 204c0 119 89 188 240 188c81 0 134 -15 165 -30v-113c-51 23 -114 30 -163 30c-72 0 -110 -26 -110 -78c0 -50 28 -73 135 -110l26 -10
c123 -45 152 -111 152 -202c0 -133 -98 -209 -247 -209c-81 0 -142 16 -193 43zM466 919l-149 -149h-99l88 149h160z" />
    <glyph glyph-name="sacute" unicode="&#x15b;" horiz-adv-x="439" 
d="M49 18v103c51 -28 106 -36 149 -36c56 0 84 21 84 63c0 89 -241 42 -241 221c0 91 61 151 200 151c53 0 105 -10 133 -18v-99c-35 15 -81 22 -128 22c-51 0 -83 -14 -83 -49c0 -88 240 -34 240 -226c0 -100 -66 -160 -205 -160c-52 0 -104 11 -149 28zM406 732l-137 -138
h-96l84 138h149z" />
    <glyph glyph-name="Scircumflex" unicode="&#x15c;" horiz-adv-x="537" 
d="M57 32v116c32 -21 102 -47 179 -47c84 0 123 33 123 94c0 67 -35 83 -123 115l-24 9c-112 39 -160 96 -160 204c0 119 89 188 240 188c81 0 134 -15 165 -30v-113c-51 23 -114 30 -163 30c-72 0 -110 -26 -110 -78c0 -50 28 -73 135 -110l26 -10
c123 -45 152 -111 152 -202c0 -133 -98 -209 -247 -209c-81 0 -142 16 -193 43zM340 907l113 -137h-107l-74 76l-75 -76h-107l114 137h136z" />
    <glyph glyph-name="scircumflex" unicode="&#x15d;" horiz-adv-x="439" 
d="M49 18v103c51 -28 106 -36 149 -36c56 0 84 21 84 63c0 89 -241 42 -241 221c0 91 61 151 200 151c53 0 105 -10 133 -18v-99c-35 15 -81 22 -128 22c-51 0 -83 -14 -83 -49c0 -88 240 -34 240 -226c0 -100 -66 -160 -205 -160c-52 0 -104 11 -149 28zM284 731l110 -138
h-98l-72 78l-75 -78h-97l110 138h122z" />
    <glyph glyph-name="Scedilla" unicode="&#x15e;" horiz-adv-x="537" 
d="M156 -236l10 62c20 -9 42 -13 67 -13c29 0 59 13 59 45c0 30 -33 37 -60 37c-11 0 -27 1 -38 -2l13 98c-61 4 -109 18 -150 41v116c32 -21 102 -47 179 -47c84 0 123 33 123 94c0 67 -35 83 -123 115l-24 9c-112 39 -160 96 -160 204c0 119 89 188 240 188
c81 0 134 -15 165 -30v-113c-51 23 -114 30 -163 30c-72 0 -110 -26 -110 -78c0 -50 28 -73 135 -110l26 -10c123 -45 152 -111 152 -202c0 -126 -85 -197 -217 -208l-7 -41c60 -3 117 -24 117 -93c0 -64 -62 -109 -139 -109c-44 0 -70 6 -95 17z" />
    <glyph glyph-name="scedilla" unicode="&#x15f;" horiz-adv-x="439" 
d="M118 -217l9 57c20 -9 36 -13 61 -13c27 0 53 14 53 43s-31 36 -55 36c-11 0 -26 1 -35 -2l13 88c-41 3 -79 11 -115 26v103c51 -28 106 -36 149 -36c56 0 84 21 84 63c0 89 -241 42 -241 221c0 91 61 151 200 151c53 0 105 -10 133 -18v-99c-35 15 -81 22 -128 22
c-51 0 -83 -14 -83 -49c0 -88 240 -34 240 -226c0 -92 -57 -150 -174 -159l-6 -38c56 0 105 -24 105 -89c0 -55 -51 -97 -123 -97c-39 0 -64 5 -87 16z" />
    <glyph glyph-name="Scaron" unicode="&#x160;" horiz-adv-x="537" 
d="M57 32v116c32 -21 102 -47 179 -47c84 0 123 33 123 94c0 67 -35 83 -123 115l-24 9c-112 39 -160 96 -160 204c0 119 89 188 240 188c81 0 134 -15 165 -30v-113c-51 23 -114 30 -163 30c-72 0 -110 -26 -110 -78c0 -50 28 -73 135 -110l26 -10
c123 -45 152 -111 152 -202c0 -133 -98 -209 -247 -209c-81 0 -142 16 -193 43zM465 907l-113 -137h-136l-114 137h107l75 -76l74 76h107z" />
    <glyph glyph-name="scaron" unicode="&#x161;" horiz-adv-x="439" 
d="M49 18v103c51 -28 106 -36 149 -36c56 0 84 21 84 63c0 89 -241 42 -241 221c0 91 61 151 200 151c53 0 105 -10 133 -18v-99c-35 15 -81 22 -128 22c-51 0 -83 -14 -83 -49c0 -88 240 -34 240 -226c0 -100 -66 -160 -205 -160c-52 0 -104 11 -149 28zM401 731l-110 -138
h-122l-110 138h97l73 -78l74 78h98z" />
    <glyph glyph-name="Tcedilla" unicode="&#x162;" horiz-adv-x="566" 
d="M189 -236l10 62c21 -9 40 -13 67 -13c29 0 59 13 59 45c0 29 -33 37 -61 37c-11 0 -27 1 -38 -2l15 107h-22v582h-201v118h531v-118h-202v-582h-33l-8 -51c60 -3 116 -24 116 -93c0 -64 -61 -109 -138 -109c-45 0 -71 6 -95 17z" />
    <glyph glyph-name="tcedilla" unicode="&#x163;" horiz-adv-x="397" 
d="M177 -217l9 57c20 -9 36 -13 61 -13c27 0 53 14 53 43s-31 36 -55 36c-11 0 -26 1 -35 -2l13 91c-80 15 -112 67 -112 155v259h-96v101h96v108l117 40v-148h141v-101h-141v-225c0 -61 15 -90 82 -90c19 0 41 4 60 13v-99c-19 -11 -47 -17 -82 -18l-6 -37
c56 0 105 -24 105 -89c0 -55 -51 -97 -123 -97c-39 0 -64 5 -87 16z" />
    <glyph glyph-name="Tcaron" unicode="&#x164;" horiz-adv-x="566" 
d="M347 582v-582h-128v582h-201v118h531v-118h-202zM466 907l-113 -137h-136l-114 137h107l75 -76l74 76h107z" />
    <glyph glyph-name="tcaron" unicode="&#x165;" horiz-adv-x="427" 
d="M369 510v-101h-141v-225c0 -61 15 -90 82 -90c19 0 41 4 60 13v-99c-21 -11 -54 -18 -93 -18c-119 0 -166 55 -166 160v259h-96v101h96v108l117 40v-148h141zM458 777l-84 -212h-91l48 212h127z" />
    <glyph glyph-name="Umacron" unicode="&#x16a;" horiz-adv-x="688" 
d="M492 305v395h127v-410c0 -213 -87 -301 -275 -301c-177 0 -275 81 -275 301v410h127v-395c0 -137 33 -200 148 -200c122 0 148 64 148 200zM515 872v-84h-339v84h339z" />
    <glyph glyph-name="umacron" unicode="&#x16b;" horiz-adv-x="600" 
d="M63 200v310h117v-264c0 -117 24 -153 108 -153c91 0 129 64 129 181v236h116v-510h-116v72h-2c-37 -56 -97 -81 -165 -81c-125 0 -187 62 -187 209zM455 700v-82h-310v82h310z" />
    <glyph glyph-name="Ubreve" unicode="&#x16c;" horiz-adv-x="688" 
d="M492 305v395h127v-410c0 -213 -87 -301 -275 -301c-177 0 -275 81 -275 301v410h127v-395c0 -137 33 -200 148 -200c122 0 148 64 148 200zM436 913l82 -19c-15 -81 -80 -133 -172 -133s-158 52 -173 133l82 19c8 -33 25 -69 91 -69s82 36 90 69z" />
    <glyph glyph-name="ubreve" unicode="&#x16d;" horiz-adv-x="600" 
d="M63 200v310h117v-264c0 -117 24 -153 108 -153c91 0 129 64 129 181v236h116v-510h-116v72h-2c-37 -56 -97 -81 -165 -81c-125 0 -187 62 -187 209zM393 743l78 -19c-12 -84 -80 -134 -165 -134s-153 51 -165 135l78 18c7 -39 28 -72 87 -72c57 0 79 33 87 72z" />
    <glyph glyph-name="Uring" unicode="&#x16e;" horiz-adv-x="688" 
d="M492 305v395h127v-410c0 -213 -87 -301 -275 -301c-177 0 -275 81 -275 301v410h127v-395c0 -137 33 -200 148 -200c122 0 148 64 148 200zM345 820c28 0 52 22 52 51c0 27 -24 49 -52 49c-27 0 -48 -22 -48 -49c0 -29 21 -51 48 -51zM345 755c-64 0 -114 51 -114 115
c0 63 50 115 114 115s115 -52 115 -115c0 -64 -51 -115 -115 -115z" />
    <glyph glyph-name="uring" unicode="&#x16f;" horiz-adv-x="600" 
d="M63 200v310h117v-264c0 -117 24 -153 108 -153c91 0 129 64 129 181v236h116v-510h-116v72h-2c-37 -56 -97 -81 -165 -81c-125 0 -187 62 -187 209zM300 634c27 0 48 22 48 49s-21 48 -48 48c-29 0 -49 -21 -49 -48s20 -49 49 -49zM300 574c-63 0 -108 47 -108 108
c0 60 46 108 108 108c61 0 109 -48 109 -108s-48 -108 -109 -108z" />
    <glyph glyph-name="Uhungarumlaut" unicode="&#x170;" horiz-adv-x="688" 
d="M492 305v395h127v-410c0 -213 -87 -301 -275 -301c-177 0 -275 81 -275 301v410h127v-395c0 -137 33 -200 148 -200c122 0 148 64 148 200zM495 917h148l-156 -147h-93zM291 917h149l-156 -147h-94z" />
    <glyph glyph-name="uhungarumlaut" unicode="&#x171;" horiz-adv-x="600" 
d="M63 200v310h117v-264c0 -117 24 -153 108 -153c91 0 129 64 129 181v236h116v-510h-116v72h-2c-37 -56 -97 -81 -165 -81c-125 0 -187 62 -187 209zM582 731l-144 -138h-84l93 138h135zM384 731l-144 -138h-84l93 138h135z" />
    <glyph glyph-name="Uogonek" unicode="&#x172;" horiz-adv-x="688" 
d="M483 -164v-67c-24 -12 -55 -22 -94 -22c-91 0 -123 48 -123 104c0 57 41 103 90 138h-12c-177 0 -275 81 -275 301v410h127v-395c0 -137 33 -200 148 -200c122 0 148 64 148 200v395h127v-410c0 -172 -56 -261 -173 -290h1c-51 -35 -85 -75 -85 -131c0 -31 24 -51 59 -51
c21 0 42 7 62 18z" />
    <glyph glyph-name="uogonek" unicode="&#x173;" horiz-adv-x="600" 
d="M63 200v310h117v-264c0 -117 24 -153 108 -153c91 0 129 64 129 181v236h116v-510h-25c-45 -32 -77 -70 -77 -121c0 -29 19 -48 52 -48c21 0 41 6 60 18v-62c-23 -11 -50 -20 -87 -20c-83 0 -116 44 -116 95c0 62 46 109 97 138h-20v72h-2c-37 -56 -97 -81 -165 -81
c-125 0 -187 62 -187 209z" />
    <glyph glyph-name="Ydieresis" unicode="&#x178;" horiz-adv-x="620" 
d="M374 277v-277h-127v277l-245 423h148l163 -285l157 285h148zM495 837c0 -39 -25 -64 -69 -64s-69 25 -69 64c0 40 25 64 69 64s69 -24 69 -64zM265 837c0 -39 -26 -64 -70 -64c-43 0 -68 25 -68 64c0 40 25 64 68 64c44 0 70 -24 70 -64z" />
    <glyph glyph-name="Zacute" unicode="&#x179;" horiz-adv-x="583" 
d="M548 114v-114h-513v115l356 471h-344v114h495v-114l-355 -472h361zM483 919l-149 -149h-99l88 149h160z" />
    <glyph glyph-name="zacute" unicode="&#x17a;" horiz-adv-x="484" 
d="M449 101v-101h-413v106l268 303h-259v101h399v-105l-267 -304h272zM423 732l-137 -138h-96l84 138h149z" />
    <glyph glyph-name="Zdotaccent" unicode="&#x17b;" horiz-adv-x="583" 
d="M548 114v-114h-513v115l356 471h-344v114h495v-114l-355 -472h361zM370 846c0 -45 -27 -72 -78 -72c-47 0 -77 27 -77 72c0 43 30 70 77 70c51 0 78 -26 78 -70z" />
    <glyph glyph-name="zdotaccent" unicode="&#x17c;" horiz-adv-x="484" 
d="M449 101v-101h-413v106l268 303h-259v101h399v-105l-267 -304h272zM314 673c0 -40 -27 -66 -72 -66s-71 26 -71 66c0 41 27 66 71 66c45 0 72 -25 72 -66z" />
    <glyph glyph-name="Zcaron" unicode="&#x17d;" horiz-adv-x="583" 
d="M548 114v-114h-513v115l356 471h-344v114h495v-114l-355 -472h361zM474 907l-113 -137h-136l-114 137h107l75 -76l74 76h107z" />
    <glyph glyph-name="zcaron" unicode="&#x17e;" horiz-adv-x="484" 
d="M449 101v-101h-413v106l268 303h-259v101h399v-105l-267 -304h272zM415 731l-110 -138h-122l-110 138h97l73 -78l74 78h98z" />
    <glyph glyph-name="Schwa" unicode="&#x18f;" horiz-adv-x="689" 
d="M49 340v44h455c-3 80 -26 215 -214 215c-68 0 -129 -10 -180 -34v117c65 21 122 29 194 29c261 0 335 -161 335 -363c0 -157 -71 -359 -301 -359c-175 0 -289 109 -289 351zM505 285h-325v-5c1 -113 46 -181 159 -181c77 0 158 47 166 186z" />
    <glyph glyph-name="florin" unicode="&#x192;" horiz-adv-x="525" 
d="M108 -12l85 421h-96l20 101h97l13 65c22 110 82 183 209 183c29 0 50 -3 77 -8l-20 -99c-8 3 -26 6 -47 6c-66 0 -91 -23 -107 -107l-8 -40h131l-21 -101h-131l-84 -411c-27 -134 -80 -215 -220 -215c-23 0 -41 2 -55 6l23 103c11 -2 22 -3 34 -3c45 0 81 11 100 99z" />
    <glyph glyph-name="eturn" unicode="&#x1dd;" horiz-adv-x="561" 
d="M74 386v96c27 20 90 38 170 38c191 0 277 -97 277 -269c0 -159 -92 -261 -247 -261c-175 0 -236 115 -236 259v33h362c-11 96 -60 141 -169 141c-73 0 -122 -17 -157 -37zM400 205h-242c-3 -68 34 -120 113 -120c76 0 119 40 129 120z" />
    <glyph glyph-name="Gcaron" unicode="&#x1e6;" horiz-adv-x="681" 
d="M503 117v155h-135v109h253v-345c-47 -27 -119 -47 -210 -47c-236 0 -361 123 -361 352c0 245 118 370 361 370c81 0 133 -13 165 -24v-115c-44 17 -106 23 -153 23c-161 0 -240 -73 -240 -245c0 -168 83 -245 238 -245c27 0 55 5 82 12zM574 907l-113 -137h-136l-114 137
h107l75 -76l74 76h107z" />
    <glyph glyph-name="gcaron" unicode="&#x1e7;" horiz-adv-x="615" 
d="M436 438v72h112v-483c0 -179 -109 -244 -270 -244c-69 0 -147 14 -188 30v107c32 -16 93 -36 174 -36c124 0 168 51 168 147v54h-2c-31 -52 -101 -85 -164 -85c-151 0 -225 86 -225 250c0 169 69 269 228 269c73 0 137 -33 165 -81h2zM295 420c-88 0 -130 -48 -130 -163
c0 -103 45 -158 129 -158c89 0 138 62 138 157c0 100 -44 164 -137 164zM470 731l-110 -138h-122l-110 138h97l73 -78l74 78h98z" />
    <glyph glyph-name="Scommaaccent" unicode="&#x218;" horiz-adv-x="537" 
d="M57 32v116c32 -21 102 -47 179 -47c84 0 123 33 123 94c0 67 -35 83 -123 115l-24 9c-112 39 -160 96 -160 204c0 119 89 188 240 188c81 0 134 -15 165 -30v-113c-51 23 -114 30 -163 30c-72 0 -110 -26 -110 -78c0 -50 28 -73 135 -110l26 -10
c123 -45 152 -111 152 -202c0 -133 -98 -209 -247 -209c-81 0 -142 16 -193 43zM205 -233v51c37 -3 72 8 75 37c-51 -8 -93 6 -93 45c0 31 29 52 80 52c48 0 84 -25 84 -77c0 -59 -47 -113 -146 -108z" />
    <glyph glyph-name="scommaaccent" unicode="&#x219;" horiz-adv-x="439" 
d="M49 18v103c51 -28 106 -36 149 -36c56 0 84 21 84 63c0 89 -241 42 -241 221c0 91 61 151 200 151c53 0 105 -10 133 -18v-99c-35 15 -81 22 -128 22c-51 0 -83 -14 -83 -49c0 -88 240 -34 240 -226c0 -100 -66 -160 -205 -160c-52 0 -104 11 -149 28zM156 -233v51
c37 -3 72 8 75 37c-51 -7 -93 6 -93 45c0 31 29 52 80 52c49 0 84 -25 84 -77c0 -59 -47 -113 -146 -108z" />
    <glyph glyph-name="Tcommaaccent" unicode="&#x21a;" horiz-adv-x="566" 
d="M347 582v-582h-128v582h-201v118h531v-118h-202zM221 -233v51c37 -3 72 8 75 37c-51 -8 -93 6 -93 45c0 31 29 52 80 52c48 0 84 -25 84 -77c0 -59 -47 -113 -146 -108z" />
    <glyph glyph-name="tcommaaccent" unicode="&#x21b;" horiz-adv-x="397" 
d="M369 510v-101h-141v-225c0 -61 15 -90 82 -90c19 0 41 4 60 13v-99c-21 -11 -54 -18 -93 -18c-119 0 -166 55 -166 160v259h-96v101h96v108l117 40v-148h141zM192 -233v51c37 -3 72 8 75 37c-51 -7 -93 6 -93 45c0 31 29 52 80 52c49 0 84 -25 84 -77
c0 -59 -47 -113 -146 -108z" />
    <glyph glyph-name="dotlessj" unicode="&#x237;" horiz-adv-x="255" 
d="M-45 -211l2 103c11 -2 22 -3 34 -3c46 0 81 11 81 99v522h116v-512c0 -134 -39 -215 -177 -215c-23 0 -41 2 -56 6z" />
    <glyph glyph-name="schwa" unicode="&#x259;" horiz-adv-x="561" 
d="M74 386v96c27 20 90 38 170 38c191 0 277 -97 277 -269c0 -159 -92 -261 -247 -261c-175 0 -236 115 -236 259v33h362c-11 96 -60 141 -169 141c-73 0 -122 -17 -157 -37zM400 205h-242c-3 -68 34 -120 113 -120c76 0 119 40 129 120z" />
    <glyph glyph-name="afii57929" unicode="&#x2bc;" horiz-adv-x="205" 
d="M191 700l-82 -201h-85l46 201h121z" />
    <glyph glyph-name="circumflex" unicode="&#x2c6;" horiz-adv-x="595" 
d="M359 731l110 -138h-98l-72 78l-75 -78h-97l110 138h122z" />
    <glyph glyph-name="caron" unicode="&#x2c7;" horiz-adv-x="595" 
d="M469 731l-110 -138h-122l-110 138h97l73 -78l74 78h98z" />
    <glyph glyph-name="breve" unicode="&#x2d8;" horiz-adv-x="595" 
d="M385 743l78 -19c-12 -84 -80 -134 -165 -134s-153 51 -165 135l78 18c7 -39 28 -72 87 -72c57 0 79 33 87 72z" />
    <glyph glyph-name="dotaccent" unicode="&#x2d9;" horiz-adv-x="254" 
d="M199 673c0 -40 -27 -66 -72 -66s-71 26 -71 66c0 41 27 66 71 66c45 0 72 -25 72 -66z" />
    <glyph glyph-name="ring" unicode="&#x2da;" horiz-adv-x="596" 
d="M298 634c27 0 48 22 48 49s-21 48 -48 48c-29 0 -49 -21 -49 -48s20 -49 49 -49zM298 574c-63 0 -108 47 -108 108c0 60 46 108 108 108c61 0 109 -48 109 -108s-48 -108 -109 -108z" />
    <glyph glyph-name="ogonek" unicode="&#x2db;" horiz-adv-x="562" 
d="M383 10l54 -10c-45 -32 -77 -70 -77 -121c0 -29 19 -48 52 -48c21 0 41 6 60 18v-62c-23 -11 -51 -20 -87 -20c-83 0 -116 44 -116 95c0 68 59 119 114 148z" />
    <glyph glyph-name="tilde" unicode="&#x2dc;" horiz-adv-x="595" 
d="M403 719l67 -13c-5 -72 -46 -111 -97 -111c-25 0 -43 4 -83 23c-27 12 -41 23 -61 23c-16 0 -31 -13 -35 -46l-68 13c4 72 41 111 96 111c29 0 55 -11 84 -24c28 -12 46 -21 62 -21c19 0 31 12 35 45z" />
    <glyph glyph-name="hungarumlaut" unicode="&#x2dd;" horiz-adv-x="595" 
d="M580 731l-144 -138h-84l93 138h135zM382 731l-144 -138h-84l93 138h135z" />
    <glyph glyph-name="acutecomb" unicode="&#x301;" horiz-adv-x="0" 
d="M-106 732l-137 -138h-96l84 138h149z" />
    <glyph glyph-name="Delta" unicode="&#x394;" horiz-adv-x="672" 
d="M665 0h-657l254 700h153zM335 575l-164 -461h327l-161 461h-2z" />
    <glyph glyph-name="Delta" unicode="&#x2206;" horiz-adv-x="672" 
d="M665 0h-657l254 700h153zM335 575l-164 -461h327l-161 461h-2z" />
    <glyph glyph-name="Omega" unicode="&#x3a9;" horiz-adv-x="758" 
d="M379 597c-162 0 -193 -120 -193 -200c0 -56 21 -166 153 -185v-212h-285v110h180v43c-89 22 -184 98 -184 257c0 184 120 301 329 301s329 -117 329 -301c0 -159 -95 -235 -184 -257v-43h180v-110h-284v212c132 19 153 129 153 185c0 80 -31 200 -194 200z" />
    <glyph glyph-name="Omega" unicode="&#x2126;" horiz-adv-x="758" 
d="M379 597c-162 0 -193 -120 -193 -200c0 -56 21 -166 153 -185v-212h-285v110h180v43c-89 22 -184 98 -184 257c0 184 120 301 329 301s329 -117 329 -301c0 -159 -95 -235 -184 -257v-43h180v-110h-284v212c132 19 153 129 153 185c0 80 -31 200 -194 200z" />
    <glyph glyph-name="pi" unicode="&#x3c0;" horiz-adv-x="664" 
d="M550 407v-251c0 -45 11 -61 39 -61c7 0 15 1 25 3l2 -103c-17 -4 -42 -6 -62 -6c-76 0 -120 35 -120 132v286h-189v-407h-116v404c-35 0 -64 -16 -83 -31l-39 97c24 19 69 40 168 40h452v-103h-77z" />
    <glyph glyph-name="afii10023" unicode="&#x401;" horiz-adv-x="557" 
d="M504 114v-114h-428v700h428v-114h-300v-172h268v-108h-268v-192h300zM474 837c0 -39 -25 -64 -69 -64s-69 25 -69 64c0 40 25 64 69 64s69 -24 69 -64zM244 837c0 -39 -26 -64 -70 -64c-43 0 -68 25 -68 64c0 40 25 64 68 64c44 0 70 -24 70 -64z" />
    <glyph glyph-name="afii10051" unicode="&#x402;" horiz-adv-x="798" 
d="M347 297v-297h-128v582h-201v118h531v-118h-202v-174c51 19 106 35 178 35c195 0 224 -132 224 -224c0 -124 -63 -230 -232 -230c-19 0 -53 1 -77 8v102c16 -5 39 -8 58 -8c84 0 116 47 116 124c0 81 -46 116 -126 116c-64 0 -105 -17 -141 -34z" />
    <glyph glyph-name="afii10052" unicode="&#x403;" horiz-adv-x="500" 
d="M204 584v-584h-128v700h406v-116h-278zM470 919l-149 -149h-99l88 149h160z" />
    <glyph glyph-name="afii10053" unicode="&#x404;" horiz-adv-x="614" 
d="M563 133v-116c-37 -19 -91 -28 -168 -28c-227 0 -345 120 -345 352c0 244 116 370 356 370c73 0 125 -12 156 -23v-115c-44 16 -103 24 -139 24c-147 0 -219 -57 -236 -186h261v-102h-262c12 -137 91 -206 238 -206c47 0 88 7 139 30z" />
    <glyph glyph-name="afii10054" unicode="&#x405;" horiz-adv-x="537" 
d="M57 32v116c32 -21 102 -47 179 -47c84 0 123 33 123 94c0 67 -35 83 -123 115l-24 9c-112 39 -160 96 -160 204c0 119 89 188 240 188c81 0 134 -15 165 -30v-113c-51 23 -114 30 -163 30c-72 0 -110 -26 -110 -78c0 -50 28 -73 135 -110l26 -10
c123 -45 152 -111 152 -202c0 -133 -98 -209 -247 -209c-81 0 -142 16 -193 43z" />
    <glyph glyph-name="afii10055" unicode="&#x406;" horiz-adv-x="280" 
d="M204 700v-700h-128v700h128z" />
    <glyph glyph-name="afii10056" unicode="&#x407;" horiz-adv-x="280" 
d="M307 829c0 -39 -25 -65 -68 -65c-45 0 -71 26 -71 65c0 40 26 64 70 64s69 -24 69 -64zM112 829c0 -39 -26 -65 -71 -65c-43 0 -68 26 -68 65c0 40 25 64 68 64c45 0 71 -24 71 -64zM204 700v-700h-128v700h128z" />
    <glyph glyph-name="afii10057" unicode="&#x408;" horiz-adv-x="413" 
d="M30 3v116c32 -9 52 -11 68 -11c76 0 112 27 112 111v481h127v-506c0 -135 -64 -204 -209 -204c-51 0 -79 6 -98 13z" />
    <glyph glyph-name="afii10058" unicode="&#x409;" horiz-adv-x="1019" 
d="M700 0h-200v584h-209c-5 -376 -20 -593 -213 -593c-19 0 -29 2 -44 6v121c11 -3 17 -3 26 -3c75 0 100 86 105 476l2 109h461v-258h81c181 0 266 -58 266 -216c0 -157 -96 -226 -275 -226zM628 328v-214h65c116 0 149 40 149 112c0 77 -36 102 -148 102h-66z" />
    <glyph glyph-name="afii10059" unicode="&#x40a;" horiz-adv-x="1029" 
d="M638 328v-214h65c116 0 149 40 149 112c0 77 -36 102 -148 102h-66zM710 0h-200v311h-306v-311h-128v700h128v-275h306v275h128v-258h81c181 0 266 -58 266 -216c0 -157 -96 -226 -275 -226z" />
    <glyph glyph-name="afii10060" unicode="&#x40b;" horiz-adv-x="790" 
d="M347 582v-162c39 11 85 23 152 23c156 0 225 -66 225 -206v-237h-128v209c0 95 -39 120 -135 120c-43 0 -83 -8 -114 -21v-308h-128v582h-201v118h531v-118h-202z" />
    <glyph glyph-name="afii10061" unicode="&#x40c;" horiz-adv-x="650" 
d="M204 700v-322l272 322h152l-289 -328l308 -372h-160l-283 351v-351h-128v700h128zM515 919l-149 -149h-99l88 149h160z" />
    <glyph glyph-name="afii10062" unicode="&#x40e;" horiz-adv-x="613" 
d="M116 7l2 109c16 -7 37 -12 58 -12c44 0 68 20 85 61c0 3 4 10 5 13l-263 522h146l185 -394l146 394h131l-224 -554c-45 -111 -98 -156 -191 -156c-29 0 -56 6 -80 17zM401 908l102 -10c-5 -100 -87 -141 -186 -141c-101 0 -181 41 -186 141l101 10c11 -48 38 -64 85 -64
c45 0 75 16 84 64z" />
    <glyph glyph-name="afii10145" unicode="&#x40f;" horiz-adv-x="698" 
d="M622 700v-700h-211v-156h-123v156h-212v700h128v-584h291v584h127z" />
    <glyph glyph-name="afii10017" unicode="&#x410;" horiz-adv-x="666" 
d="M528 0l-55 167h-282l-56 -167h-127l250 700h155l246 -700h-131zM333 590l-105 -311h208z" />
    <glyph glyph-name="afii10018" unicode="&#x411;" horiz-adv-x="605" 
d="M202 320v-206h101c96 0 128 37 128 105c0 76 -37 101 -110 101h-119zM310 0h-234v700h439v-114h-311v-164h139c135 0 221 -50 221 -203s-104 -219 -254 -219z" />
    <glyph glyph-name="afii10019" unicode="&#x412;" horiz-adv-x="621" 
d="M204 591v-185h88c104 0 141 39 141 95c0 71 -34 90 -119 90h-110zM204 310v-201h106c91 0 134 22 134 97c0 76 -46 104 -146 104h-94zM334 0h-258v700h267c153 0 216 -64 216 -177c0 -92 -47 -139 -135 -158v-2c99 -5 153 -78 153 -156c0 -114 -57 -207 -243 -207z" />
    <glyph glyph-name="afii10020" unicode="&#x413;" horiz-adv-x="500" 
d="M204 584v-584h-128v700h406v-116h-278z" />
    <glyph glyph-name="afii10021" unicode="&#x414;" horiz-adv-x="730" 
d="M704 116v-272h-122v156h-441v-156h-123v272h68c72 125 87 297 92 513l2 71h442v-584h82zM216 116h278v468h-197c0 -8 -1 -35 -1 -43c-8 -160 -26 -315 -80 -425z" />
    <glyph glyph-name="afii10022" unicode="&#x415;" horiz-adv-x="557" 
d="M504 114v-114h-428v700h428v-114h-300v-172h268v-108h-268v-192h300z" />
    <glyph glyph-name="afii10024" unicode="&#x416;" horiz-adv-x="906" 
d="M390 0v358l-239 -358h-147l252 369l-233 331h144l223 -333v333h127v-333l224 333h142l-231 -331l250 -369h-150l-235 358v-358h-127z" />
    <glyph glyph-name="afii10025" unicode="&#x417;" horiz-adv-x="555" 
d="M42 26v120c60 -32 124 -43 176 -43c120 0 158 38 158 103s-42 100 -141 100h-88v103h71c92 0 141 29 141 97c0 65 -44 91 -127 91c-56 0 -113 -7 -177 -34v119c65 20 120 29 199 29c168 0 237 -68 237 -183c0 -83 -52 -141 -128 -161v-4c101 -15 149 -81 149 -162
c0 -135 -84 -212 -277 -212c-71 0 -142 12 -193 37z" />
    <glyph glyph-name="afii10026" unicode="&#x418;" horiz-adv-x="722" 
d="M646 700v-700h-127v518l-304 -518h-139v700h128v-517l304 517h138z" />
    <glyph glyph-name="afii10027" unicode="&#x419;" horiz-adv-x="722" 
d="M646 700v-700h-127v518l-304 -518h-139v700h128v-517l304 517h138zM447 908l102 -10c-5 -100 -87 -141 -186 -141c-101 0 -181 41 -186 141l101 10c11 -48 38 -64 85 -64c45 0 75 16 84 64z" />
    <glyph glyph-name="afii10028" unicode="&#x41a;" horiz-adv-x="650" 
d="M204 700v-322l272 322h152l-289 -328l308 -372h-160l-283 351v-351h-128v700h128z" />
    <glyph glyph-name="afii10029" unicode="&#x41b;" horiz-adv-x="704" 
d="M628 700v-700h-128v584h-209c-5 -376 -20 -593 -213 -593c-19 0 -29 2 -44 6v121c11 -3 17 -3 26 -3c75 0 100 86 105 476l2 109h461z" />
    <glyph glyph-name="afii10030" unicode="&#x41c;" horiz-adv-x="883" 
d="M807 700v-700h-125v567l-178 -567h-124l-179 568v-568h-125v700h199l170 -556l167 556h195z" />
    <glyph glyph-name="afii10031" unicode="&#x41d;" horiz-adv-x="721" 
d="M645 700v-700h-127v303h-314v-303h-128v700h128v-282h314v282h127z" />
    <glyph glyph-name="afii10032" unicode="&#x41e;" horiz-adv-x="761" 
d="M388 103c125 0 188 76 188 247c0 175 -66 247 -198 247c-120 0 -192 -76 -192 -247c0 -169 73 -247 202 -247zM381 -11c-213 0 -331 126 -331 361c0 234 126 361 328 361c225 0 333 -137 333 -361c0 -248 -130 -361 -330 -361z" />
    <glyph glyph-name="afii10033" unicode="&#x41f;" horiz-adv-x="699" 
d="M623 700v-700h-127v584h-292v-584h-128v700h547z" />
    <glyph glyph-name="afii10034" unicode="&#x420;" horiz-adv-x="598" 
d="M202 586v-238h95c99 0 135 39 135 120c0 84 -37 118 -136 118h-94zM204 234v-234h-128v700h231c171 0 258 -71 258 -228c0 -153 -85 -238 -268 -238h-93z" />
    <glyph glyph-name="afii10035" unicode="&#x421;" horiz-adv-x="614" 
d="M563 137v-120c-37 -19 -91 -28 -168 -28c-227 0 -345 120 -345 352c0 244 116 370 356 370c73 0 124 -12 156 -23v-119c-44 16 -103 24 -139 24c-164 0 -237 -72 -237 -243c0 -165 78 -243 238 -243c47 0 88 7 139 30z" />
    <glyph glyph-name="afii10036" unicode="&#x422;" horiz-adv-x="566" 
d="M347 582v-582h-128v582h-201v118h531v-118h-202z" />
    <glyph glyph-name="afii10037" unicode="&#x423;" horiz-adv-x="613" 
d="M116 7l2 109c16 -7 37 -12 58 -12c44 0 68 20 85 61c0 3 4 10 5 13l-263 522h146l185 -394l146 394h131l-224 -554c-45 -111 -98 -156 -191 -156c-29 0 -56 6 -80 17z" />
    <glyph glyph-name="afii10038" unicode="&#x424;" horiz-adv-x="851" 
d="M487 528v-352h15c123 0 173 55 173 176c0 127 -49 176 -172 176h-16zM349 176h16v352h-18c-119 0 -170 -52 -170 -176c0 -123 53 -176 172 -176zM490 68v-79h-128v79h-15c-197 0 -305 93 -305 284c0 185 114 284 305 284h15v75h128v-75h14c199 0 306 -93 306 -284
s-111 -284 -306 -284h-14z" />
    <glyph glyph-name="afii10039" unicode="&#x425;" horiz-adv-x="644" 
d="M635 0h-157l-160 273l-158 -273h-151l221 363l-201 337h152l141 -253l147 253h146l-204 -335z" />
    <glyph glyph-name="afii10040" unicode="&#x426;" horiz-adv-x="723" 
d="M698 116v-272h-123v156h-499v700h128v-584h284v584h127v-584h83z" />
    <glyph glyph-name="afii10041" unicode="&#x427;" horiz-adv-x="632" 
d="M556 700v-700h-128v276c-39 -12 -85 -23 -146 -23c-163 0 -231 70 -231 206v241h128v-211c0 -97 39 -120 135 -120c44 0 83 8 114 20v311h128z" />
    <glyph glyph-name="afii10042" unicode="&#x428;" horiz-adv-x="934" 
d="M858 700v-700h-782v700h128v-584h200v584h127v-584h200v584h127z" />
    <glyph glyph-name="afii10043" unicode="&#x429;" horiz-adv-x="966" 
d="M941 116v-272h-123v156h-742v700h128v-584h200v584h127v-584h200v584h127v-584h83z" />
    <glyph glyph-name="afii10044" unicode="&#x42a;" horiz-adv-x="682" 
d="M293 344v-230h63c116 0 148 48 148 120c0 78 -35 110 -147 110h-64zM362 0h-197v582h-147v118h275v-242h78c183 0 266 -64 266 -223s-96 -235 -275 -235z" />
    <glyph glyph-name="afii10045" unicode="&#x42b;" horiz-adv-x="838" 
d="M204 344v-230h60c116 0 149 48 149 120c0 77 -36 110 -148 110h-61zM271 0h-195v700h128v-242h76c181 0 266 -66 266 -223c0 -159 -96 -235 -275 -235zM762 700v-700h-128v700h128z" />
    <glyph glyph-name="afii10046" unicode="&#x42c;" horiz-adv-x="595" 
d="M204 344v-230h65c116 0 149 48 149 120c0 77 -36 110 -148 110h-66zM276 0h-200v700h128v-242h81c181 0 266 -66 266 -223c0 -159 -96 -235 -275 -235z" />
    <glyph glyph-name="afii10047" unicode="&#x42d;" horiz-adv-x="626" 
d="M159 309v102h280c-7 128 -87 186 -223 186c-53 0 -114 -8 -165 -31v115c47 19 118 30 187 30c235 0 339 -127 339 -354c0 -221 -110 -368 -366 -368c-72 0 -123 10 -159 25l-1 115c48 -19 109 -26 154 -26c153 0 231 69 235 206h-281z" />
    <glyph glyph-name="afii10048" unicode="&#x42e;" horiz-adv-x="999" 
d="M627 -11c-191 0 -303 111 -314 314h-109v-303h-128v700h128v-282h111c19 187 141 293 309 293c220 0 325 -125 325 -361c0 -248 -125 -361 -322 -361zM633 103c121 0 181 76 181 247c0 181 -64 247 -189 247c-110 0 -186 -82 -186 -247c0 -169 71 -247 194 -247z" />
    <glyph glyph-name="afii10049" unicode="&#x42f;" horiz-adv-x="630" 
d="M329 253h-14l-151 -253h-140l170 279c-75 32 -135 95 -135 199c0 155 101 222 269 222h226v-700h-127v253h-98zM336 362h93v224h-111c-76 0 -126 -36 -126 -112s59 -112 144 -112z" />
    <glyph glyph-name="afii10065" unicode="&#x430;" horiz-adv-x="544" 
d="M364 196v29c-19 3 -36 6 -83 6c-96 0 -124 -27 -124 -70c0 -41 26 -75 90 -75c77 0 117 42 117 110zM481 310v-310h-107v73h-2c-25 -41 -76 -82 -164 -82c-107 0 -172 58 -172 158c0 105 71 156 230 156c49 0 81 -4 98 -7v28c0 65 -31 94 -119 94
c-56 0 -121 -16 -161 -36v100c43 19 107 36 179 36c161 0 218 -59 218 -210z" />
    <glyph glyph-name="afii10066" unicode="&#x431;" horiz-adv-x="608" 
d="M138 398h2c29 65 93 107 196 107c152 0 231 -90 231 -254c0 -170 -100 -261 -252 -261c-165 0 -268 99 -268 322c0 322 105 409 329 422c64 5 95 10 132 21v-104c-33 -11 -65 -19 -128 -24c-159 -16 -234 -45 -242 -229zM174 251c0 -94 43 -162 142 -162
c87 0 128 65 128 162c0 99 -41 155 -134 155c-100 0 -136 -72 -136 -155z" />
    <glyph glyph-name="afii10067" unicode="&#x432;" horiz-adv-x="544" 
d="M184 416v-114h92c43 0 92 5 92 58c0 48 -34 56 -85 56h-99zM184 224v-129h111c55 0 88 14 88 62c0 60 -53 67 -104 67h-95zM309 0h-241v510h229c117 0 187 -32 187 -129c0 -61 -40 -103 -87 -115v-3c59 -8 108 -45 108 -120c0 -105 -77 -143 -196 -143z" />
    <glyph glyph-name="afii10068" unicode="&#x433;" horiz-adv-x="431" 
d="M184 407v-407h-116v510h355v-103h-239z" />
    <glyph glyph-name="afii10069" unicode="&#x434;" horiz-adv-x="612" 
d="M587 101v-238h-109v137h-351v-137h-109v238h57c40 73 61 169 66 335l2 74h372v-409h72zM189 101h209v308h-152c-1 -7 -2 -29 -2 -36c-5 -103 -20 -208 -55 -272z" />
    <glyph glyph-name="afii10070" unicode="&#x435;" horiz-adv-x="561" 
d="M488 124v-96c-27 -20 -90 -38 -170 -38c-191 0 -277 97 -277 269c0 159 92 261 247 261c175 0 236 -115 236 -259v-33h-362c11 -96 60 -140 169 -140c73 0 122 16 157 36zM162 305h242c3 69 -34 120 -113 120c-76 0 -119 -40 -129 -120z" />
    <glyph glyph-name="afii10072" unicode="&#x436;" horiz-adv-x="748" 
d="M432 510v-246l162 246h133l-174 -248l192 -262h-135l-178 255v-255h-116v255l-178 -255h-135l192 262l-173 248h132l162 -246v246h116z" />
    <glyph glyph-name="afii10073" unicode="&#x437;" horiz-adv-x="490" 
d="M329 271v-2c73 -11 123 -53 123 -121c0 -97 -80 -158 -232 -158c-65 0 -126 8 -185 35v104c49 -23 116 -40 172 -40c89 0 122 24 122 67s-38 65 -115 65h-81v83h81c44 0 98 15 98 59c0 47 -38 58 -117 58c-41 0 -98 -7 -149 -30v99c53 20 115 30 175 30
c164 0 212 -54 212 -142c0 -56 -50 -96 -104 -107z" />
    <glyph glyph-name="afii10074" unicode="&#x438;" horiz-adv-x="600" 
d="M179 0h-111v510h116v-288l-3 -69h1l34 56l206 301h111v-510h-116v294l3 64h-1l-33 -55z" />
    <glyph glyph-name="afii10075" unicode="&#x439;" horiz-adv-x="600" 
d="M179 0h-111v510h116v-288l-3 -69h1l34 56l206 301h111v-510h-116v294l3 64h-1l-33 -55zM381 741l93 -10c-5 -98 -81 -142 -171 -142s-168 44 -171 142l90 10c7 -47 38 -69 81 -69s71 22 78 69z" />
    <glyph glyph-name="afii10076" unicode="&#x43a;" horiz-adv-x="544" 
d="M184 510v-238l194 238h139l-209 -241l234 -269h-147l-211 252v-252h-116v510h116z" />
    <glyph glyph-name="afii10077" unicode="&#x43b;" horiz-adv-x="581" 
d="M73 -10c-20 0 -38 4 -49 8v106c11 -3 14 -4 23 -4c63 0 83 96 83 360v50h384v-510h-117v407h-158v-16c-3 -285 -45 -401 -166 -401z" />
    <glyph glyph-name="afii10078" unicode="&#x43c;" horiz-adv-x="699" 
d="M481 510h151v-510h-110v316l2 69l-25 -63l-107 -238h-85l-106 238l-26 63l3 -69v-316h-110v510h150l133 -306z" />
    <glyph glyph-name="afii10079" unicode="&#x43d;" horiz-adv-x="597" 
d="M530 510v-510h-117v211h-229v-211h-116v510h116v-198h229v198h117z" />
    <glyph glyph-name="afii10080" unicode="&#x43e;" horiz-adv-x="595" 
d="M298 89c89 0 134 51 134 166s-39 166 -134 166c-87 0 -134 -53 -134 -166c0 -115 53 -166 134 -166zM298 -10c-168 0 -257 88 -257 265c0 171 94 265 257 265c167 0 256 -89 256 -265c0 -169 -91 -265 -256 -265z" />
    <glyph glyph-name="afii10081" unicode="&#x43f;" horiz-adv-x="589" 
d="M522 510v-510h-117v407h-221v-407h-116v510h454z" />
    <glyph glyph-name="afii10082" unicode="&#x440;" horiz-adv-x="615" 
d="M184 65v-275h-116v720h112v-73h2c46 65 115 82 170 82c153 0 222 -92 222 -260c0 -152 -71 -268 -222 -268c-69 0 -133 27 -166 74h-2zM320 90c92 0 131 59 131 171c0 105 -36 159 -133 159c-88 0 -134 -66 -134 -167c0 -100 47 -163 136 -163z" />
    <glyph glyph-name="afii10083" unicode="&#x441;" horiz-adv-x="493" 
d="M458 117v-99c-27 -12 -70 -28 -149 -28c-188 0 -268 105 -268 269c0 161 90 261 263 261c77 0 119 -13 147 -24v-100c-31 11 -68 23 -128 23c-100 0 -159 -46 -159 -154c0 -116 59 -174 177 -174c49 0 92 14 117 26z" />
    <glyph glyph-name="afii10084" unicode="&#x442;" horiz-adv-x="473" 
d="M295 407v-407h-116v407h-172v103h460v-103h-172z" />
    <glyph glyph-name="afii10085" unicode="&#x443;" horiz-adv-x="517" 
d="M63 -207l5 100c15 -7 32 -9 45 -9c56 0 82 30 99 86l6 18l-211 522h128l142 -384l115 384h118l-175 -512c-45 -128 -82 -215 -205 -215c-27 0 -48 3 -67 10z" />
    <glyph glyph-name="afii10086" unicode="&#x444;" horiz-adv-x="748" 
d="M316 -210v204c-15 -3 -30 -3 -45 -3c-144 0 -230 80 -230 264c0 177 89 264 232 264c15 0 30 -1 43 -3v234h117v-235c15 3 29 4 44 4c147 0 230 -76 230 -260c0 -179 -88 -268 -231 -268c-16 0 -30 1 -43 2v-203h-117zM316 88v333c-8 1 -18 2 -31 2
c-76 0 -120 -43 -120 -169c0 -120 41 -167 126 -167c8 0 16 0 25 1zM433 421v-334h31c76 0 120 48 120 173c0 120 -39 163 -127 163c-8 0 -16 -1 -24 -2z" />
    <glyph glyph-name="afii10087" unicode="&#x445;" horiz-adv-x="518" 
d="M338 266l174 -266h-135l-121 182l-117 -182h-133l177 266l-161 244h135l107 -167l107 167h128z" />
    <glyph glyph-name="afii10088" unicode="&#x446;" horiz-adv-x="613" 
d="M588 101v-238h-109v137h-411v510h116v-409h210v409h117v-409h77z" />
    <glyph glyph-name="afii10089" unicode="&#x447;" horiz-adv-x="539" 
d="M472 510v-510h-116v189c-19 -5 -72 -18 -125 -18c-110 0 -190 39 -190 153v186h117v-147c0 -72 39 -91 107 -91c43 0 74 7 91 14v224h116z" />
    <glyph glyph-name="afii10090" unicode="&#x448;" horiz-adv-x="794" 
d="M727 510v-510h-659v510h116v-409h155v409h116v-409h155v409h117z" />
    <glyph glyph-name="afii10091" unicode="&#x449;" horiz-adv-x="829" 
d="M804 101v-238h-109v137h-627v510h116v-409h155v409h116v-409h155v409h117v-409h77z" />
    <glyph glyph-name="afii10092" unicode="&#x44a;" horiz-adv-x="598" 
d="M255 248v-153h93c68 0 97 24 97 79c0 59 -38 74 -103 74h-87zM368 0h-229v407h-133v103h250v-167h97c144 0 216 -57 216 -171c0 -107 -80 -172 -201 -172z" />
    <glyph glyph-name="afii10093" unicode="&#x44b;" horiz-adv-x="724" 
d="M184 251v-156h74c68 0 97 25 97 80c0 59 -37 76 -104 76h-67zM275 0h-207v510h116v-165h76c141 0 216 -52 216 -171c0 -108 -81 -174 -201 -174zM657 510v-510h-116v510h116z" />
    <glyph glyph-name="afii10094" unicode="&#x44c;" horiz-adv-x="526" 
d="M183 248v-153h94c68 0 97 24 97 79c0 59 -39 74 -104 74h-87zM296 0h-228v510h116v-167h97c144 0 216 -57 216 -171c0 -107 -80 -172 -201 -172z" />
    <glyph glyph-name="afii10095" unicode="&#x44d;" horiz-adv-x="506" 
d="M39 14v99c27 -11 72 -24 136 -24c108 0 160 38 168 131h-220v86h218c-12 84 -63 115 -170 115c-56 0 -100 -13 -129 -25v98c27 11 77 26 153 26c187 0 270 -95 270 -256c0 -175 -91 -274 -278 -274c-79 0 -121 15 -148 24z" />
    <glyph glyph-name="afii10096" unicode="&#x44e;" horiz-adv-x="807" 
d="M519 -10c-148 0 -233 80 -246 221h-89v-211h-116v510h116v-198h91c15 129 100 208 237 208c168 0 255 -89 255 -265c0 -169 -91 -265 -248 -265zM512 89c88 0 132 51 132 166c0 116 -39 166 -132 166c-81 0 -129 -51 -129 -166c0 -116 53 -166 129 -166z" />
    <glyph glyph-name="afii10097" unicode="&#x44f;" horiz-adv-x="550" 
d="M367 176h-96l-108 -176h-131l123 192c-63 23 -104 67 -104 150c0 112 88 168 205 168h227v-510h-116v176zM280 269h88v143h-95c-68 0 -99 -23 -99 -74c0 -55 38 -69 106 -69z" />
    <glyph glyph-name="afii10071" unicode="&#x451;" horiz-adv-x="561" 
d="M488 124v-96c-27 -20 -90 -38 -170 -38c-191 0 -277 97 -277 269c0 159 92 261 247 261c175 0 236 -115 236 -259v-33h-362c11 -96 60 -140 169 -140c73 0 122 16 157 36zM162 305h242c3 69 -34 120 -113 120c-76 0 -119 -40 -129 -120zM460 669c0 -37 -23 -62 -66 -62
s-67 25 -67 62c0 39 25 62 66 62c43 0 67 -23 67 -62zM253 669c0 -37 -23 -62 -66 -62s-67 23 -67 62c0 37 24 62 67 62s66 -23 66 -62z" />
    <glyph glyph-name="afii10099" unicode="&#x452;" horiz-adv-x="606" 
d="M403 659v-75h-211v-149h2c32 51 90 81 170 81c119 0 193 -70 193 -266c0 -182 -52 -343 -179 -422l-82 58c108 70 139 178 139 356c0 114 -23 173 -114 173c-115 0 -129 -109 -129 -176v-239h-117v584h-88v75h88v91h117v-91h211z" />
    <glyph glyph-name="afii10100" unicode="&#x453;" horiz-adv-x="431" 
d="M184 407v-407h-116v510h355v-103h-239zM427 732l-137 -138h-96l84 138h149z" />
    <glyph glyph-name="afii10101" unicode="&#x454;" horiz-adv-x="492" 
d="M458 115v-97c-27 -12 -70 -28 -149 -28c-188 0 -268 105 -268 269c0 161 90 261 263 261c77 0 119 -13 147 -24v-97c-31 11 -69 22 -129 22c-87 0 -142 -35 -155 -115h204v-86h-204c14 -87 72 -131 173 -131c49 0 93 13 118 26z" />
    <glyph glyph-name="afii10102" unicode="&#x455;" horiz-adv-x="439" 
d="M49 18v103c51 -28 106 -36 149 -36c56 0 84 21 84 63c0 89 -241 42 -241 221c0 91 61 151 200 151c53 0 105 -10 133 -18v-99c-35 15 -81 22 -128 22c-51 0 -83 -14 -83 -49c0 -88 240 -34 240 -226c0 -100 -66 -160 -205 -160c-52 0 -104 11 -149 28z" />
    <glyph glyph-name="afii10103" unicode="&#x456;" horiz-adv-x="254" 
d="M199 673c0 -40 -27 -66 -72 -66s-71 26 -71 66c0 41 27 66 71 66c45 0 72 -25 72 -66zM185 510v-510h-116v510h116z" />
    <glyph glyph-name="afii10104" unicode="&#x457;" horiz-adv-x="254" 
d="M287 670c0 -39 -25 -63 -68 -63s-67 24 -67 63s24 62 67 62s68 -23 68 -62zM102 670c0 -39 -24 -63 -67 -63s-68 24 -68 63s25 62 68 62s67 -23 67 -62zM185 510v-510h-116v510h116z" />
    <glyph glyph-name="afii10105" unicode="&#x458;" horiz-adv-x="255" 
d="M201 673c0 -40 -27 -66 -72 -66s-72 26 -72 66c0 41 27 66 71 66c47 0 73 -25 73 -66zM-45 -211l2 103c11 -2 22 -3 34 -3c46 0 81 11 81 99v522h116v-512c0 -134 -39 -215 -177 -215c-23 0 -41 2 -56 6z" />
    <glyph glyph-name="afii10106" unicode="&#x459;" horiz-adv-x="856" 
d="M625 0h-228v407h-158v-16c-3 -285 -45 -401 -166 -401c-20 0 -38 4 -49 8v106c9 -3 17 -4 25 -4c61 3 81 99 81 360v50h384v-177h96c145 0 217 -50 217 -166c0 -107 -79 -167 -202 -167zM512 239v-144h94c68 0 97 18 97 74c0 57 -39 70 -104 70h-87z" />
    <glyph glyph-name="afii10107" unicode="&#x45a;" horiz-adv-x="864" 
d="M406 321v189h116v-177h99c145 0 214 -49 214 -165c0 -107 -80 -168 -201 -168h-228v220h-222v-220h-116v510h116v-189h222zM521 239v-144h94c68 0 97 19 97 75c0 57 -39 69 -104 69h-87z" />
    <glyph glyph-name="afii10108" unicode="&#x45b;" horiz-adv-x="606" 
d="M545 308v-308h-116v262c0 117 -26 153 -108 153c-92 0 -129 -65 -129 -181v-234h-117v584h-88v75h88v91h117v-91h211v-75h-211v-149h2c37 56 97 81 165 81c125 0 186 -61 186 -208z" />
    <glyph glyph-name="afii10109" unicode="&#x45c;" horiz-adv-x="544" 
d="M184 510v-238l194 238h139l-209 -241l234 -269h-147l-211 252v-252h-116v510h116zM459 732l-137 -138h-96l84 138h149z" />
    <glyph glyph-name="afii10110" unicode="&#x45e;" horiz-adv-x="517" 
d="M63 -207l5 100c15 -7 32 -9 45 -9c56 0 82 30 99 86l6 18l-211 522h128l142 -384l115 384h118l-175 -512c-45 -128 -82 -215 -205 -215c-27 0 -48 3 -67 10zM339 741l93 -10c-5 -98 -81 -142 -171 -142s-168 44 -171 142l90 10c7 -47 38 -69 81 -69s71 22 78 69z" />
    <glyph glyph-name="afii10193" unicode="&#x45f;" horiz-adv-x="589" 
d="M522 510v-510h-173v-142h-109v142h-172v510h116v-406h221v406h117z" />
    <glyph glyph-name="afii10146" unicode="&#x462;" horiz-adv-x="698" 
d="M503 616v-101h-196v-97h82c183 0 265 -60 265 -207c0 -145 -96 -211 -275 -211h-199v515h-165v101h165v95h127v-95h196zM307 314v-212h66c116 0 148 39 148 107c0 75 -36 105 -147 105h-67z" />
    <glyph glyph-name="afii10194" unicode="&#x463;" horiz-adv-x="610" 
d="M380 0h-228v419h-145v91h145v240h116v-240h179v-91h-179v-90h97c144 0 216 -50 216 -163c0 -105 -80 -166 -201 -166zM267 240v-151h94c68 0 97 23 97 78c0 59 -39 73 -104 73h-87z" />
    <glyph glyph-name="afii10147" unicode="&#x472;" horiz-adv-x="761" 
d="M381 -11c-213 0 -331 126 -331 361c0 234 126 361 328 361c225 0 333 -137 333 -361c0 -248 -130 -361 -330 -361zM378 598c-111 0 -180 -60 -193 -197h391c-13 139 -78 197 -198 197zM388 102c113 0 176 63 188 199h-391c15 -136 84 -199 203 -199z" />
    <glyph glyph-name="afii10195" unicode="&#x473;" horiz-adv-x="595" 
d="M298 -10c-168 0 -257 88 -257 265c0 171 94 265 257 265c167 0 256 -89 256 -265c0 -169 -91 -265 -256 -265zM298 87c77 0 122 39 133 127h-267c12 -88 62 -127 134 -127zM298 424c-76 0 -122 -39 -133 -126h265c-9 87 -51 126 -132 126z" />
    <glyph glyph-name="afii10148" unicode="&#x474;" horiz-adv-x="718" 
d="M574 515l-170 -515h-167l-229 700h138l178 -580l128 412c35 113 71 179 185 179c31 0 52 -2 75 -9v-106c-15 4 -37 5 -52 5c-33 0 -63 -17 -86 -86z" />
    <glyph glyph-name="afii10196" unicode="&#x475;" horiz-adv-x="561" 
d="M185 0l-178 510h130l121 -390l77 241c32 104 65 159 158 159c25 0 43 -2 64 -9v-93c-12 3 -30 4 -39 4c-39 0 -52 -21 -71 -72l-123 -350h-139z" />
    <glyph glyph-name="afii10050" unicode="&#x490;" horiz-adv-x="500" 
d="M204 584v-584h-128v700h288v130h118v-246h-278z" />
    <glyph glyph-name="afii10098" unicode="&#x491;" horiz-adv-x="431" 
d="M184 407v-407h-116v510h249v120h106v-223h-239z" />
    <glyph glyph-name="cyrGebar" unicode="&#x492;" horiz-adv-x="544" 
d="M439 418v-114h-191v-304h-128v304h-102v114h102v282h406v-114h-278v-168h191z" />
    <glyph glyph-name="cyrgebar" unicode="&#x493;" horiz-adv-x="452" 
d="M354 284v-97h-149v-187h-116v187h-76v97h76v226h355v-103h-239v-123h149z" />
    <glyph glyph-name="cyrZhedesc" unicode="&#x496;" horiz-adv-x="929" 
d="M390 0v358l-239 -358h-147l252 369l-233 331h144l223 -333v333h127v-333l224 333h142l-231 -331l172 -254h93v-271h-123v156h-42l-235 358v-358h-127z" />
    <glyph glyph-name="cyrzhedesc" unicode="&#x497;" horiz-adv-x="770" 
d="M432 510v-246l162 246h133l-174 -248l124 -161h80v-238h-109v137h-38l-178 255v-255h-116v255l-178 -255h-135l192 262l-173 248h132l162 -246v246h116z" />
    <glyph glyph-name="cyrZetail" unicode="&#x498;" horiz-adv-x="555" 
d="M512 201c0 -116 -60 -188 -199 -207v-150h-123v147c-56 4 -108 15 -148 35v120c60 -32 124 -43 176 -43c120 0 158 38 158 103s-42 100 -141 100h-88v103h71c92 0 141 29 141 97c0 65 -44 91 -127 91c-56 0 -113 -7 -177 -34v119c65 20 120 29 199 29
c168 0 237 -68 237 -183c0 -83 -52 -141 -128 -161v-4c101 -15 149 -81 149 -162z" />
    <glyph glyph-name="cyrzetail" unicode="&#x499;" horiz-adv-x="490" 
d="M329 271v-2c73 -11 123 -53 123 -121c0 -84 -60 -141 -175 -154v-133h-109v131c-47 4 -90 14 -133 33v104c49 -23 116 -40 172 -40c89 0 122 24 122 67s-38 65 -115 65h-81v83h81c44 0 98 15 98 59c0 47 -38 58 -117 58c-41 0 -98 -7 -149 -30v99c53 20 115 30 175 30
c164 0 212 -54 212 -142c0 -56 -50 -96 -104 -107z" />
    <glyph glyph-name="cyrKadesc" unicode="&#x49a;" horiz-adv-x="672" 
d="M204 700v-322l272 322h152l-289 -328l213 -257h98v-271h-122v156h-41l-283 351v-351h-128v700h128z" />
    <glyph glyph-name="cyrkadesc" unicode="&#x49b;" horiz-adv-x="558" 
d="M437 0h-42l-211 252v-252h-116v510h116v-238l194 238h139l-209 -241l153 -168h85v-238h-109v137z" />
    <glyph glyph-name="cyrKavertbar" unicode="&#x49c;" horiz-adv-x="752" 
d="M348 543v-123l230 280h152l-280 -328l300 -372h-160l-242 310v-119h-84v125h-60v-316h-128v700h128v-281h60v124h84z" />
    <glyph glyph-name="cyrkavertbar" unicode="&#x49d;" horiz-adv-x="627" 
d="M301 215v-95h-69v95h-48v-215h-116v510h116v-202h48v96h69v-96h3l157 202h139l-200 -241l225 -269h-147l-172 215h-5z" />
    <glyph glyph-name="cyrKaback" unicode="&#x4a0;" horiz-adv-x="731" 
d="M285 700v-322l272 322h152l-289 -328l309 -372h-160l-284 351v-351h-127v582h-147v118h274z" />
    <glyph glyph-name="cyrkaback" unicode="&#x4a1;" horiz-adv-x="616" 
d="M255 510v-240l194 240h139l-209 -241l234 -269h-146l-212 253v-253h-116v407h-133v103h249z" />
    <glyph glyph-name="cyrEndesc" unicode="&#x4a2;" horiz-adv-x="754" 
d="M645 700v-585h83v-271h-122v156h-88v303h-314v-303h-128v700h128v-282h314v282h127z" />
    <glyph glyph-name="cyrendesc" unicode="&#x4a3;" horiz-adv-x="630" 
d="M605 101v-238h-109v137h-83v211h-229v-211h-116v510h116v-198h229v198h117v-409h75z" />
    <glyph glyph-name="cyrEstail" unicode="&#x4aa;" horiz-adv-x="613" 
d="M563 137v-120c-31 -15 -74 -24 -133 -27v-146h-123v152c-169 29 -257 145 -257 345c0 244 116 370 356 370c73 0 124 -12 156 -23v-119c-44 16 -103 24 -139 24c-164 0 -237 -72 -237 -243c0 -165 78 -243 238 -243c47 0 88 7 139 30z" />
    <glyph glyph-name="cyrestail" unicode="&#x4ab;" horiz-adv-x="492" 
d="M458 117v-99c-20 -9 -51 -21 -99 -26v-131h-109v133c-147 19 -209 119 -209 265c0 161 90 261 263 261c77 0 119 -13 147 -24v-100c-31 11 -68 23 -128 23c-100 0 -159 -46 -159 -154c0 -116 59 -174 177 -174c49 0 92 14 117 26z" />
    <glyph glyph-name="cyrstraightU" unicode="&#x4ae;" horiz-adv-x="620" 
d="M374 277v-277h-127v277l-245 423h148l163 -285l157 285h148z" />
    <glyph glyph-name="cyrstraightu" unicode="&#x4af;" horiz-adv-x="509" 
d="M503 510l-190 -521v-199h-117v199l-189 521h130l121 -385l125 385h120z" />
    <glyph glyph-name="cyrstraightUbar" unicode="&#x4b0;" horiz-adv-x="620" 
d="M618 700l-232 -401h153v-96h-165v-203h-127v203h-165v96h152l-232 401h148l163 -285l157 285h148z" />
    <glyph glyph-name="cyrstraightubar" unicode="&#x4b1;" horiz-adv-x="509" 
d="M503 510l-181 -497h128v-95h-137v-128h-117v128h-137v95h128l-180 497h130l121 -379l125 379h120z" />
    <glyph glyph-name="cyrHadesc" unicode="&#x4b2;" horiz-adv-x="670" 
d="M478 0l-160 273l-158 -273h-151l221 363l-201 337h152l141 -253l147 253h146l-204 -335l153 -250h92v-271h-122v156h-56z" />
    <glyph glyph-name="cyrhadesc" unicode="&#x4b3;" horiz-adv-x="541" 
d="M338 266l110 -165h83v-238h-109v137h-45l-121 182l-117 -182h-133l177 266l-161 244h135l107 -167l107 167h128z" />
    <glyph glyph-name="cyrChedesc" unicode="&#x4b6;" horiz-adv-x="664" 
d="M638 115v-271h-122v156h-88v276c-39 -12 -85 -23 -146 -23c-163 0 -231 70 -231 206v241h128v-211c0 -97 39 -120 135 -120c44 0 83 8 114 20v311h128v-585h82z" />
    <glyph glyph-name="cyrchedesc" unicode="&#x4b7;" horiz-adv-x="574" 
d="M549 101v-238h-109v137h-84v189c-19 -5 -72 -18 -125 -18c-110 0 -190 39 -190 153v186h117v-147c0 -72 39 -91 107 -91c43 0 74 10 91 14v224h116v-409h77z" />
    <glyph glyph-name="cyrChevertbar" unicode="&#x4b8;" horiz-adv-x="654" 
d="M274 495h85v-127c35 3 69 11 92 20v312h127v-700h-127v277c-27 -8 -57 -16 -92 -20v-115h-85v111c-156 5 -223 71 -223 212v235h126v-210c0 -83 29 -113 97 -121v126z" />
    <glyph glyph-name="cyrchevertbar" unicode="&#x4b9;" horiz-adv-x="565" 
d="M234 372h75v-99c32 3 59 11 72 15v222h117v-510h-117v191c-9 -3 -37 -10 -72 -15v-84h-75v80c-110 3 -193 45 -193 165v173h117v-140c0 -61 28 -86 76 -95v97z" />
    <glyph glyph-name="cyrH" unicode="&#x4ba;" horiz-adv-x="632" 
d="M76 0v700h128v-264c39 12 85 23 146 23c163 0 231 -71 231 -206v-253h-128v211c0 96 -39 131 -135 131c-44 0 -83 -8 -114 -20v-322h-128z" />
    <glyph glyph-name="cyrh" unicode="&#x4bb;" horiz-adv-x="600" 
d="M538 311v-311h-117v264c0 115 -24 154 -108 154c-91 0 -129 -65 -129 -182v-236h-116v750h116v-312h2c37 56 97 81 165 81c128 0 187 -63 187 -208z" />
    <glyph glyph-name="cyrI" unicode="&#x4c0;" horiz-adv-x="280" 
d="M204 700v-700h-128v700h128z" />
    <glyph glyph-name="uni04CF" unicode="&#x4cf;" horiz-adv-x="251" 
d="M184 750v-750h-116v750h116z" />
    <glyph glyph-name="cyrinvE" unicode="&#x4d8;" horiz-adv-x="689" 
d="M49 340v44h455c-3 80 -26 215 -214 215c-68 0 -129 -10 -180 -34v117c65 21 122 29 194 29c261 0 335 -161 335 -363c0 -157 -71 -359 -301 -359c-175 0 -289 109 -289 351zM505 285h-325v-5c1 -113 46 -181 159 -181c77 0 158 47 166 186z" />
    <glyph glyph-name="cyrinve" unicode="&#x4d9;" horiz-adv-x="561" 
d="M74 386v96c27 20 90 38 170 38c191 0 277 -97 277 -269c0 -159 -92 -261 -247 -261c-175 0 -236 115 -236 259v33h362c-11 96 -60 141 -169 141c-73 0 -122 -17 -157 -37zM400 205h-242c-3 -68 34 -120 113 -120c76 0 119 40 129 120z" />
    <glyph glyph-name="cyrImacron" unicode="&#x4e2;" horiz-adv-x="722" 
d="M646 700v-700h-127v518l-304 -518h-139v700h128v-517l304 517h138zM544 872v-84h-339v84h339z" />
    <glyph glyph-name="cyrimacron" unicode="&#x4e3;" horiz-adv-x="600" 
d="M179 0h-111v510h116v-288l-3 -69h1l34 56l206 301h111v-510h-116v294l3 64h-1l-33 -55zM453 700v-82h-310v82h310z" />
    <glyph glyph-name="cyrObar" unicode="&#x4e8;" horiz-adv-x="761" 
d="M381 -11c-213 0 -331 126 -331 361c0 234 126 361 328 361c225 0 333 -137 333 -361c0 -248 -130 -361 -330 -361zM378 598c-111 0 -180 -60 -193 -197h391c-13 139 -78 197 -198 197zM388 102c113 0 176 63 188 199h-391c15 -136 84 -199 203 -199z" />
    <glyph glyph-name="cyrobar" unicode="&#x4e9;" horiz-adv-x="595" 
d="M298 -10c-168 0 -257 88 -257 265c0 171 94 265 257 265c167 0 256 -89 256 -265c0 -169 -91 -265 -256 -265zM298 87c77 0 122 39 133 127h-267c12 -88 62 -127 134 -127zM298 424c-76 0 -122 -39 -133 -126h265c-9 87 -51 126 -132 126z" />
    <glyph glyph-name="cyrUmacron" unicode="&#x4ee;" horiz-adv-x="613" 
d="M116 7l2 109c16 -7 37 -12 58 -12c44 0 68 20 85 61c0 3 4 10 5 13l-263 522h146l185 -394l146 394h131l-224 -554c-45 -111 -98 -156 -191 -156c-29 0 -56 6 -80 17zM490 872v-84h-339v84h339z" />
    <glyph glyph-name="cyrumacron" unicode="&#x4ef;" horiz-adv-x="517" 
d="M63 -207l5 100c15 -7 32 -9 45 -9c56 0 82 30 99 86l6 18l-211 522h128l142 -384l115 384h118l-175 -512c-45 -128 -82 -215 -205 -215c-27 0 -48 3 -67 10zM421 700v-82h-310v82h310z" />
    <glyph glyph-name="Germandbls" unicode="&#x1e9e;" horiz-adv-x="664" 
d="M290 0v105c28 -7 50 -9 69 -9c76 0 127 31 127 120c0 75 -37 113 -138 113h-32v64l118 174c-23 17 -55 30 -100 30c-93 0 -130 -59 -130 -130v-467h-128v471c0 173 113 240 257 240c85 0 169 -27 248 -111l-134 -187v-2c144 -11 175 -112 175 -195
c0 -140 -94 -227 -241 -227c-35 0 -62 4 -91 11z" />
    <glyph glyph-name="uni2010" unicode="&#x2010;" horiz-adv-x="482" 
d="M403 333v-100h-323v100h323z" />
    <glyph glyph-name="uni2011" unicode="&#x2011;" horiz-adv-x="482" 
d="M403 333v-100h-323v100h323z" />
    <glyph glyph-name="figuredash" unicode="&#x2012;" horiz-adv-x="639" 
d="M590 392v-93h-540v93h540z" />
    <glyph glyph-name="endash" unicode="&#x2013;" horiz-adv-x="646" 
d="M596 331v-92h-546v92h546z" />
    <glyph glyph-name="emdash" unicode="&#x2014;" horiz-adv-x="807" 
d="M758 331v-92h-708v92h708z" />
    <glyph glyph-name="quoteleft" unicode="&#x2018;" horiz-adv-x="311" 
d="M234 711l31 -70c-65 -21 -98 -54 -109 -106c63 0 85 -37 85 -79c0 -43 -27 -77 -87 -77c-53 0 -92 35 -92 114c0 95 52 189 172 218z" />
    <glyph glyph-name="quoteright" unicode="&#x2019;" horiz-adv-x="311" 
d="M77 379l-31 70c65 21 98 54 109 106c-63 0 -85 36 -85 79s27 77 87 77c53 0 92 -35 92 -114c0 -95 -52 -189 -172 -218z" />
    <glyph glyph-name="quotesinglbase" unicode="&#x201a;" horiz-adv-x="311" 
d="M77 -187l-31 70c65 21 98 54 109 106c-63 0 -85 36 -85 79s27 77 87 77c53 0 92 -35 92 -114c0 -95 -52 -189 -172 -218z" />
    <glyph glyph-name="quotedblleft" unicode="&#x201c;" horiz-adv-x="530" 
d="M234 711l31 -70c-65 -21 -98 -54 -109 -106c63 0 85 -37 85 -79c0 -43 -27 -77 -87 -77c-53 0 -92 35 -92 114c0 95 52 189 172 218zM453 711l31 -70c-65 -21 -98 -54 -109 -106c63 0 85 -37 85 -79c0 -43 -27 -77 -87 -77c-53 0 -92 35 -92 114c0 95 52 189 172 218z
" />
    <glyph glyph-name="quotedblright" unicode="&#x201d;" horiz-adv-x="530" 
d="M77 379l-31 70c65 21 98 54 109 106c-63 0 -85 36 -85 79s27 77 87 77c53 0 92 -35 92 -114c0 -95 -52 -189 -172 -218zM296 379l-31 70c65 21 98 54 109 106c-63 0 -85 36 -85 79s27 77 87 77c53 0 92 -35 92 -114c0 -95 -52 -189 -172 -218z" />
    <glyph glyph-name="quotedblbase" unicode="&#x201e;" horiz-adv-x="530" 
d="M77 -187l-31 70c65 21 98 54 109 106c-63 0 -85 36 -85 79s27 77 87 77c53 0 92 -35 92 -114c0 -95 -52 -189 -172 -218zM296 -187l-31 70c65 21 98 54 109 106c-63 0 -85 36 -85 79s27 77 87 77c53 0 92 -35 92 -114c0 -95 -52 -189 -172 -218z" />
    <glyph glyph-name="dagger" unicode="&#x2020;" horiz-adv-x="539" 
d="M332 440v-440h-124v440h-165v98h165v162h124v-162h165v-98h-165z" />
    <glyph glyph-name="daggerdbl" unicode="&#x2021;" horiz-adv-x="539" 
d="M332 163v-163h-124v163h-165v97h165v180h-165v98h165v162h124v-162h165v-98h-165v-180h165v-97h-165z" />
    <glyph glyph-name="bullet" unicode="&#x2022;" horiz-adv-x="431" 
d="M217 201c-83 0 -151 69 -151 150s68 150 151 150c80 0 149 -69 149 -150s-69 -150 -149 -150z" />
    <glyph glyph-name="ellipsis" unicode="&#x2026;" horiz-adv-x="851" 
d="M781 67c0 -49 -31 -78 -83 -78c-51 0 -82 31 -82 78c0 49 29 78 82 78c51 0 83 -31 83 -78zM236 67c0 -49 -30 -78 -83 -78c-51 0 -82 31 -82 78c0 49 30 78 82 78c51 0 83 -31 83 -78zM509 67c0 -49 -31 -78 -83 -78c-51 0 -82 31 -82 78c0 49 29 78 82 78
c51 0 83 -31 83 -78z" />
    <glyph glyph-name="perthousand" unicode="&#x2030;" horiz-adv-x="1224" 
d="M612 62c56 0 78 34 78 107s-21 107 -78 107c-52 0 -78 -36 -78 -107c0 -75 27 -107 78 -107zM612 -11c-96 0 -173 48 -173 180c0 128 77 180 173 180c97 0 174 -48 174 -180c0 -127 -81 -180 -174 -180zM216 424c56 0 79 34 79 107s-22 107 -79 107
c-51 0 -77 -36 -77 -107c0 -75 26 -107 77 -107zM216 351c-96 0 -172 48 -172 180c0 128 78 180 172 180c98 0 174 -48 174 -180c0 -127 -79 -180 -174 -180zM704 700l-493 -700h-86l493 700h86zM1007 62c56 0 78 34 78 107s-21 107 -78 107c-52 0 -78 -36 -78 -107
c0 -75 27 -107 78 -107zM1007 -11c-96 0 -173 48 -173 180c0 128 77 180 173 180c97 0 174 -48 174 -180c0 -127 -81 -180 -174 -180z" />
    <glyph glyph-name="guilsinglleft" unicode="&#x2039;" horiz-adv-x="357" 
d="M186 269l126 -205h-117l-136 205l136 206h117z" />
    <glyph glyph-name="guilsinglright" unicode="&#x203a;" horiz-adv-x="357" 
d="M299 269l-136 -205h-117l126 205l-126 206h117z" />
    <glyph glyph-name="fraction" unicode="&#x2044;" horiz-adv-x="167" 
d="M342 720l-434 -742h-82l433 742h83z" />
    <glyph glyph-name="zerosuperior" unicode="&#x2070;" 
d="M199 453c43 0 61 37 61 138c0 104 -20 141 -65 141c-41 0 -63 -38 -63 -141s23 -138 67 -138zM197 374c-111 0 -167 66 -167 218c0 153 61 218 165 218c116 0 168 -65 168 -218c0 -155 -61 -218 -166 -218z" />
    <glyph glyph-name="foursuperior" unicode="&#x2074;" 
d="M104 547h119v172h-1zM322 466v-84h-99v84h-205v77l183 257h121v-252h54v-82h-54z" />
    <glyph glyph-name="fivesuperior" unicode="&#x2075;" 
d="M58 393v83c39 -17 63 -20 102 -20c56 0 80 24 80 64c0 39 -22 61 -77 61c-39 0 -60 -5 -97 -14l12 233h245v-80h-171l-5 -74c16 4 33 8 58 8c88 0 137 -55 137 -131c0 -89 -55 -149 -172 -149c-36 0 -77 4 -112 19z" />
    <glyph glyph-name="sixsuperior" unicode="&#x2076;" 
d="M206 448c33 0 58 26 58 71c0 43 -24 65 -59 65c-33 0 -63 -17 -63 -60c0 -47 24 -76 64 -76zM327 798v-82c-31 11 -61 14 -89 14c-52 0 -108 -23 -108 -115c21 23 53 40 100 40c71 0 134 -40 134 -134c0 -89 -64 -147 -159 -147c-130 0 -167 100 -167 201
c0 131 50 235 198 235c24 0 56 -3 91 -12z" />
    <glyph glyph-name="sevensuperior" unicode="&#x2077;" 
d="M340 735l-146 -353h-105l149 338h-190v80h292v-65z" />
    <glyph glyph-name="eightsuperior" unicode="&#x2078;" 
d="M203 629c29 17 47 38 47 61c0 25 -18 46 -54 46c-35 0 -55 -21 -55 -46c0 -28 26 -49 62 -61zM190 570c-33 -15 -57 -32 -57 -67c0 -28 19 -54 64 -54c36 0 62 21 62 56c0 37 -37 54 -69 65zM275 606c60 -24 85 -56 85 -105c0 -77 -64 -127 -163 -127
c-92 0 -164 43 -164 119c0 56 30 87 85 108c-56 24 -76 54 -76 99c0 68 61 110 156 110c85 0 151 -35 151 -105c0 -45 -31 -79 -74 -99z" />
    <glyph glyph-name="ninesuperior" unicode="&#x2079;" 
d="M186 736c-32 0 -58 -24 -58 -71c0 -43 24 -64 59 -64c33 0 63 16 63 60c0 47 -24 75 -64 75zM63 387v82c32 -12 62 -14 90 -14c51 0 112 23 109 114c-20 -23 -52 -39 -99 -39c-71 0 -134 39 -134 134c0 88 65 146 158 146c131 0 168 -100 168 -201
c0 -131 -52 -235 -200 -235c-24 0 -56 2 -92 13z" />
    <glyph glyph-name="uni207A" unicode="&#x207a;" horiz-adv-x="358" 
d="M217 553v-109h-75v109h-109v75h109v110h75v-110h109v-75h-109z" />
    <glyph glyph-name="uni207B" unicode="&#x207b;" horiz-adv-x="358" 
d="M326 553h-293v75h293v-75z" />
    <glyph glyph-name="uni207C" unicode="&#x207c;" horiz-adv-x="358" 
d="M326 615h-293v75h293v-75zM326 491h-293v75h293v-75z" />
    <glyph glyph-name="uni207D" unicode="&#x207d;" horiz-adv-x="231" 
d="M134 863h94c-72 -83 -99 -177 -99 -272c0 -88 30 -188 97 -272h-91c-72 87 -97 183 -97 272s24 188 96 272z" />
    <glyph glyph-name="uni207E" unicode="&#x207e;" horiz-adv-x="231" 
d="M97 319h-91c67 84 97 184 97 272c0 95 -27 189 -99 272h94c72 -84 96 -183 96 -272s-24 -185 -97 -272z" />
    <glyph glyph-name="zeroinferior" unicode="&#x2080;" 
d="M199 -27c43 0 61 37 61 138c0 104 -20 141 -65 141c-41 0 -63 -38 -63 -141s23 -138 67 -138zM197 -106c-111 0 -167 66 -167 218c0 153 61 218 165 218c116 0 168 -65 168 -218c0 -155 -61 -218 -166 -218z" />
    <glyph glyph-name="oneinferior" unicode="&#x2081;" 
d="M279 320v-418h-100v310l-82 -55l-44 68l146 95h80z" />
    <glyph glyph-name="twoinferior" unicode="&#x2082;" 
d="M348 -15v-83h-309v88l81 61c83 62 115 92 115 137c0 36 -20 59 -75 59c-35 0 -73 -9 -104 -26v86c44 16 83 23 130 23c99 0 157 -42 157 -119c0 -71 -47 -123 -159 -203l-32 -22v-1h196z" />
    <glyph glyph-name="threeinferior" unicode="&#x2083;" 
d="M48 -86v84c36 -16 73 -22 108 -22c60 0 85 16 85 51c0 43 -28 56 -84 56h-61v71h53c51 0 83 13 83 48c0 32 -23 46 -75 46c-37 0 -75 -8 -102 -20v82c36 15 89 20 130 20c104 0 149 -48 149 -108c0 -56 -32 -84 -88 -100v-1c80 -13 98 -61 98 -101
c0 -83 -75 -126 -175 -126c-35 0 -80 5 -121 20z" />
    <glyph glyph-name="fourinferior" unicode="&#x2084;" 
d="M104 67h119v172h-1zM322 -14v-84h-99v84h-205v77l183 257h121v-252h54v-82h-54z" />
    <glyph glyph-name="fiveinferior" unicode="&#x2085;" 
d="M58 -87v83c39 -17 63 -20 102 -20c56 0 80 24 80 64c0 39 -22 61 -77 61c-39 0 -60 -5 -97 -14l12 233h245v-80h-171l-5 -74c16 4 33 8 58 8c88 0 137 -55 137 -131c0 -89 -55 -149 -172 -149c-36 0 -77 4 -112 19z" />
    <glyph glyph-name="sixinferior" unicode="&#x2086;" 
d="M206 -32c33 0 58 26 58 71c0 43 -24 65 -59 65c-33 0 -63 -17 -63 -60c0 -47 24 -76 64 -76zM327 318v-82c-31 11 -61 14 -89 14c-52 0 -108 -23 -108 -115c21 23 53 40 100 40c71 0 134 -40 134 -134c0 -89 -64 -147 -159 -147c-130 0 -167 100 -167 201
c0 131 50 235 198 235c24 0 56 -3 91 -12z" />
    <glyph glyph-name="seveninferior" unicode="&#x2087;" 
d="M340 255l-146 -353h-105l149 338h-190v80h292v-65z" />
    <glyph glyph-name="eightinferior" unicode="&#x2088;" 
d="M203 149c29 17 47 38 47 61c0 25 -18 46 -54 46c-35 0 -55 -21 -55 -46c0 -28 26 -49 62 -61zM190 90c-33 -15 -57 -32 -57 -67c0 -28 19 -54 64 -54c36 0 62 21 62 56c0 37 -37 54 -69 65zM275 126c60 -24 85 -56 85 -105c0 -77 -64 -127 -163 -127
c-92 0 -164 43 -164 119c0 56 30 87 85 108c-56 24 -76 54 -76 99c0 68 61 110 156 110c85 0 151 -35 151 -105c0 -45 -31 -79 -74 -99z" />
    <glyph glyph-name="nineinferior" unicode="&#x2089;" 
d="M186 256c-32 0 -58 -24 -58 -71c0 -43 24 -64 59 -64c33 0 63 16 63 60c0 47 -24 75 -64 75zM63 -93v82c32 -12 62 -14 90 -14c51 0 112 23 109 114c-20 -23 -52 -39 -99 -39c-71 0 -134 39 -134 134c0 88 65 146 158 146c131 0 168 -100 168 -201
c0 -131 -52 -235 -200 -235c-24 0 -56 2 -92 13z" />
    <glyph glyph-name="plussub" unicode="&#x208a;" horiz-adv-x="358" 
d="M217 73v-109h-75v109h-109v75h109v110h75v-110h109v-75h-109z" />
    <glyph glyph-name="uni208B" unicode="&#x208b;" horiz-adv-x="358" 
d="M326 73h-293v75h293v-75z" />
    <glyph glyph-name="uni208C" unicode="&#x208c;" horiz-adv-x="358" 
d="M326 135h-293v75h293v-75zM326 11h-293v75h293v-75z" />
    <glyph glyph-name="uni208D" unicode="&#x208d;" horiz-adv-x="231" 
d="M134 383h94c-72 -83 -99 -177 -99 -272c0 -88 30 -188 97 -272h-91c-72 87 -97 183 -97 272s24 188 96 272z" />
    <glyph glyph-name="uni208E" unicode="&#x208e;" horiz-adv-x="231" 
d="M97 -161h-91c67 84 97 184 97 272c0 95 -27 189 -99 272h94c72 -84 96 -183 96 -272s-24 -185 -97 -272z" />
    <glyph glyph-name="Euro" unicode="&#x20ac;" horiz-adv-x="609" 
d="M578 126v-112c-37 -17 -84 -25 -160 -25c-191 0 -290 95 -314 262h-84l18 67h59v24c0 15 0 28 1 43h-78l18 68h68c29 169 133 258 330 258c68 0 110 -10 141 -21v-110c-44 16 -92 22 -128 22c-124 0 -184 -54 -207 -149h282l-18 -68h-276c-1 -11 -1 -23 -1 -35
c0 -11 0 -21 1 -32h256l-18 -67h-225c21 -93 83 -153 203 -153c47 0 84 8 132 28z" />
    <glyph glyph-name="uni20B4" unicode="&#x20b4;" horiz-adv-x="592" 
d="M500 122v-109c-65 -19 -133 -24 -184 -24c-184 0 -233 98 -233 167c0 45 17 76 33 96h-65v69h119c12 10 68 58 81 68h-200v68h274c36 29 54 62 54 87c0 53 -51 62 -85 62c-71 0 -99 -5 -167 -27v110c67 16 147 22 184 22c178 0 204 -90 204 -148c0 -43 -22 -79 -45 -106
h71v-68h-131c-14 -11 -70 -58 -83 -68h214v-69h-282c-31 -24 -39 -56 -39 -79c0 -53 42 -79 125 -79c40 0 102 4 155 28z" />
    <glyph glyph-name="uni20B8" unicode="&#x20b8;" horiz-adv-x="571" 
d="M551 700v-84h-531v84h531zM349 481v-481h-127v481h-202v84h531v-84h-202z" />
    <glyph glyph-name="uni20BD" unicode="&#x20bd;" horiz-adv-x="628" 
d="M254 605v-230h79c97 0 131 43 131 119c0 77 -34 111 -131 111h-79zM456 218v-85h-200v-133h-127v133h-86v85h86v71h-86v86h86v325h216c173 0 250 -66 250 -203c0 -133 -79 -208 -259 -208h-80v-71h200z" />
    <glyph glyph-name="afii61352" unicode="&#x2116;" horiz-adv-x="1056" 
d="M627 700v-700h-148l-278 526v-526h-125v700h158l268 -511v511h125zM856 343c-120 0 -154 93 -154 184c0 94 29 184 153 184s156 -90 156 -184c0 -91 -36 -184 -155 -184zM1000 276v-90h-288v90h288zM856 424c48 0 56 57 56 103c0 48 -5 103 -56 103
c-52 0 -57 -56 -57 -103c0 -46 8 -103 57 -103z" />
    <glyph glyph-name="published" unicode="&#x2117;" horiz-adv-x="841" 
d="M782 349c0 -197 -162 -360 -362 -360c-197 0 -360 163 -360 360c0 200 163 362 360 362c200 0 362 -162 362 -362zM715 348c0 164 -132 296 -296 296c-161 0 -292 -132 -292 -296c0 -161 131 -292 292 -292c164 0 296 131 296 292zM390 474v-110h50c27 0 59 9 59 54
c0 48 -28 56 -55 56h-54zM391 296v-135h-85v381h148c49 0 135 -15 135 -120c0 -84 -62 -126 -143 -126h-55z" />
    <glyph glyph-name="trademark" unicode="&#x2122;" horiz-adv-x="985" 
d="M893 700v-406h-90v284l-97 -284h-70l-98 284v-284h-89v406h121l101 -299h2l99 299h121zM263 618v-324h-94v324h-131v82h356v-82h-131z" />
    <glyph glyph-name="onethird" unicode="&#x2153;" horiz-adv-x="877" 
d="M260 701v-418h-100v310l-82 -55l-44 68l146 95h80zM680 720l-434 -742h-82l433 742h83zM540 14v84c36 -16 73 -22 108 -22c60 0 85 16 85 51c0 43 -28 56 -84 56h-61v71h53c51 0 83 13 83 48c0 32 -23 46 -75 46c-37 0 -75 -8 -102 -20v82c36 15 89 20 130 20
c104 0 149 -48 149 -108c0 -56 -32 -84 -88 -100v-1c80 -13 98 -61 98 -101c0 -83 -75 -126 -175 -126c-35 0 -80 5 -121 20z" />
    <glyph glyph-name="twothirds" unicode="&#x2154;" horiz-adv-x="877" 
d="M322 366v-83h-309v88l81 61c83 62 115 92 115 137c0 36 -20 59 -75 59c-35 0 -73 -9 -104 -26v86c44 16 83 23 130 23c99 0 157 -42 157 -119c0 -71 -47 -123 -159 -203l-32 -22v-1h196zM697 720l-434 -742h-82l433 742h83zM554 14v84c36 -16 73 -22 108 -22
c60 0 85 16 85 51c0 43 -28 56 -84 56h-61v71h53c51 0 83 13 83 48c0 32 -23 46 -75 46c-37 0 -75 -8 -102 -20v82c36 15 89 20 130 20c104 0 149 -48 149 -108c0 -56 -32 -84 -88 -100v-1c80 -13 98 -61 98 -101c0 -83 -75 -126 -175 -126c-35 0 -80 5 -121 20z" />
    <glyph glyph-name="oneeighth" unicode="&#x215b;" horiz-adv-x="877" 
d="M259 701v-418h-100v310l-82 -55l-44 68l146 95h80zM677 720l-434 -742h-82l433 742h83zM692 249c29 17 47 38 47 61c0 25 -18 46 -54 46c-35 0 -55 -21 -55 -46c0 -28 26 -49 62 -61zM679 190c-33 -15 -57 -32 -57 -67c0 -28 19 -54 64 -54c36 0 62 21 62 56
c0 37 -37 54 -69 65zM764 226c60 -24 85 -56 85 -105c0 -77 -64 -127 -163 -127c-92 0 -164 43 -164 119c0 56 30 87 85 108c-56 24 -76 54 -76 99c0 68 61 110 156 110c85 0 151 -35 151 -105c0 -45 -31 -79 -74 -99z" />
    <glyph glyph-name="threeeighths" unicode="&#x215c;" horiz-adv-x="877" 
d="M29 295v84c36 -16 73 -22 108 -22c60 0 85 16 85 51c0 43 -28 56 -84 56h-61v71h53c51 0 83 13 83 48c0 32 -23 46 -75 46c-37 0 -75 -8 -102 -20v82c36 15 89 20 130 20c104 0 149 -48 149 -108c0 -56 -32 -84 -88 -100v-1c80 -13 98 -61 98 -101
c0 -83 -75 -126 -175 -126c-35 0 -80 5 -121 20zM682 720l-434 -742h-82l433 742h83zM696 249c29 17 47 38 47 61c0 25 -18 46 -54 46c-35 0 -55 -21 -55 -46c0 -28 26 -49 62 -61zM683 190c-33 -15 -57 -32 -57 -67c0 -28 19 -54 64 -54c36 0 62 21 62 56
c0 37 -37 54 -69 65zM768 226c60 -24 85 -56 85 -105c0 -77 -64 -127 -163 -127c-92 0 -164 43 -164 119c0 56 30 87 85 108c-56 24 -76 54 -76 99c0 68 61 110 156 110c85 0 151 -35 151 -105c0 -45 -31 -79 -74 -99z" />
    <glyph glyph-name="fiveeighths" unicode="&#x215d;" horiz-adv-x="877" 
d="M41 294v83c39 -17 63 -20 102 -20c56 0 80 24 80 64c0 39 -22 61 -77 61c-39 0 -60 -5 -97 -14l12 233h245v-80h-171l-5 -74c16 4 33 8 58 8c88 0 137 -55 137 -131c0 -89 -55 -149 -172 -149c-36 0 -77 4 -112 19zM682 720l-434 -742h-82l433 742h83zM696 249
c29 17 47 38 47 61c0 25 -18 46 -54 46c-35 0 -55 -21 -55 -46c0 -28 26 -49 62 -61zM683 190c-33 -15 -57 -32 -57 -67c0 -28 19 -54 64 -54c36 0 62 21 62 56c0 37 -37 54 -69 65zM768 226c60 -24 85 -56 85 -105c0 -77 -64 -127 -163 -127c-92 0 -164 43 -164 119
c0 56 30 87 85 108c-56 24 -76 54 -76 99c0 68 61 110 156 110c85 0 151 -35 151 -105c0 -45 -31 -79 -74 -99z" />
    <glyph glyph-name="seveneighths" unicode="&#x215e;" horiz-adv-x="877" 
d="M337 636l-146 -353h-105l149 338h-190v80h292v-65zM670 720l-434 -742h-82l433 742h83zM687 249c29 17 47 38 47 61c0 25 -18 46 -54 46c-35 0 -55 -21 -55 -46c0 -28 26 -49 62 -61zM674 190c-33 -15 -57 -32 -57 -67c0 -28 19 -54 64 -54c36 0 62 21 62 56
c0 37 -37 54 -69 65zM759 226c60 -24 85 -56 85 -105c0 -77 -64 -127 -163 -127c-92 0 -164 43 -164 119c0 56 30 87 85 108c-56 24 -76 54 -76 99c0 68 61 110 156 110c85 0 151 -35 151 -105c0 -45 -31 -79 -74 -99z" />
    <glyph glyph-name="arrowleft" unicode="&#x2190;" horiz-adv-x="800" 
d="M232 302l167 -177h-126l-209 225l209 225h126l-167 -177h504v-96h-504z" />
    <glyph glyph-name="arrowup" unicode="&#x2191;" horiz-adv-x="800" 
d="M352 532l-177 -167v126l225 209l225 -209v-126l-177 167v-532h-96v532z" />
    <glyph glyph-name="arrowright" unicode="&#x2192;" horiz-adv-x="800" 
d="M569 398l-168 177h127l208 -225l-208 -225h-127l168 177h-505v96h505z" />
    <glyph glyph-name="arrowdown" unicode="&#x2193;" horiz-adv-x="800" 
d="M448 168l177 167v-126l-225 -209l-225 209v126l177 -167v532h96v-532z" />
    <glyph glyph-name="arrowboth" unicode="&#x2194;" horiz-adv-x="800" 
d="M217 302l166 -177h-127l-206 225l206 225h127l-166 -177h366l-165 177h126l206 -225l-206 -225h-126l165 177h-366z" />
    <glyph glyph-name="arrowupdn" unicode="&#x2195;" horiz-adv-x="800" 
d="M448 167l177 166v-127l-225 -206l-225 206v127l177 -166v366l-177 -165v126l225 206l225 -206v-126l-177 165v-366z" />
    <glyph glyph-name="arrownorthwest" unicode="&#x2196;" horiz-adv-x="800" 
d="M236 447l-7 -242l-90 89l12 305l305 12l89 -90l-242 -6l360 -361l-67 -67z" />
    <glyph glyph-name="arrownortheast" unicode="&#x2197;" horiz-adv-x="800" 
d="M497 515l-242 6l89 90l305 -12l12 -305l-90 -89l-6 242l-361 -360l-67 67z" />
    <glyph glyph-name="arrowsoutheast" unicode="&#x2198;" horiz-adv-x="800" 
d="M565 253l6 242l90 -89l-12 -305l-305 -12l-89 90l242 7l-360 360l67 67z" />
    <glyph glyph-name="arrowsouthwest" unicode="&#x2199;" horiz-adv-x="800" 
d="M303 186l242 -7l-89 -90l-305 12l-12 305l90 89l7 -242l360 360l67 -67z" />
    <glyph glyph-name="partialdiff" unicode="&#x2202;" horiz-adv-x="597" 
d="M298 89c89 0 134 49 134 166c0 112 -39 166 -134 166c-87 0 -134 -49 -134 -166s53 -166 134 -166zM402 465l3 2c-48 131 -191 191 -298 207l45 84c299 -51 402 -284 402 -497c0 -184 -120 -271 -261 -271c-175 0 -252 103 -252 264c0 163 86 260 231 260
c43 0 87 -6 130 -49z" />
    <glyph glyph-name="product" unicode="&#x220f;" horiz-adv-x="698" 
d="M622 700v-910h-127v794h-291v-794h-128v910h546z" />
    <glyph glyph-name="summation" unicode="&#x2211;" horiz-adv-x="555" 
d="M538 -96v-114h-503v113l239 366l-239 317v114h495v-114h-344l243 -317l-243 -365h352z" />
    <glyph glyph-name="minus" unicode="&#x2212;" horiz-adv-x="587" 
d="M538 275h-488v99h488v-99z" />
    <glyph glyph-name="division" unicode="&#x2215;" horiz-adv-x="504" 
d="M487 770l-371 -920h-108l371 920h108z" />
    <glyph glyph-name="radical" unicode="&#x221a;" horiz-adv-x="707" 
d="M572 710l-160 -860h-110l-179 529h-85v97h184l133 -416h3l130 739h202v-89h-118z" />
    <glyph glyph-name="infinity" unicode="&#x221e;" horiz-adv-x="749" 
d="M279 314l41 40l-52 51c-19 19 -32 28 -59 28c-49 0 -69 -42 -69 -79c0 -47 30 -75 65 -75c23 0 49 10 74 35zM470 396l-39 -43l50 -48c16 -16 34 -27 61 -27c47 0 69 38 69 75c0 48 -31 80 -66 80c-25 0 -50 -10 -75 -37zM375 296l-57 -59c-32 -35 -73 -46 -116 -46
c-109 0 -153 90 -153 163c0 72 44 167 153 167c36 0 81 -13 116 -49l57 -58l58 60c31 31 72 47 115 47c103 0 153 -83 153 -167c0 -70 -44 -163 -153 -163c-39 0 -80 12 -115 47z" />
    <glyph glyph-name="integral" unicode="&#x222b;" horiz-adv-x="525" 
d="M339 550l-113 -552c-27 -134 -80 -215 -220 -215c-23 0 -41 2 -55 6l23 103c11 -2 22 -3 34 -3c45 0 81 11 100 99l119 587c22 110 82 183 209 183c29 0 50 -3 77 -8l-20 -99c-8 3 -26 6 -47 6c-66 0 -91 -23 -107 -107z" />
    <glyph glyph-name="approxequal" unicode="&#x2248;" horiz-adv-x="573" 
d="M484 314l39 -83c-24 -42 -67 -85 -128 -85c-29 0 -59 5 -120 36c-41 19 -65 32 -96 32c-42 0 -73 -45 -90 -70l-39 82c21 43 67 86 128 86c31 0 64 -9 127 -38c43 -19 64 -30 88 -30c43 0 75 46 91 70zM484 505l39 -83c-24 -42 -67 -85 -128 -85c-29 0 -59 5 -120 36
c-41 19 -65 32 -96 32c-42 0 -73 -45 -90 -70l-39 82c21 43 67 86 128 86c31 0 64 -9 127 -38c43 -19 64 -30 88 -30c43 0 75 46 91 70z" />
    <glyph glyph-name="notequal" unicode="&#x2260;" horiz-adv-x="587" 
d="M101 65l64 111h-115v100h173l57 99h-230v99h287l64 110h86l-64 -110h115v-99h-172l-57 -99h229v-100h-287l-64 -111h-86z" />
    <glyph glyph-name="lessequal" unicode="&#x2264;" horiz-adv-x="578" 
d="M528 291v-102l-478 172v91l478 173v-102l-345 -115v-2zM528 156v-99h-478v99h478z" />
    <glyph glyph-name="greaterequal" unicode="&#x2265;" horiz-adv-x="578" 
d="M528 452v-91l-478 -172v102l345 115v2l-345 115v102zM528 156v-99h-478v99h478z" />
    <glyph glyph-name="lozenge" unicode="&#x25ca;" horiz-adv-x="624" 
d="M170 350l142 -192l142 192l-142 191zM579 350l-267 -361l-267 361l267 361z" />
    <glyph glyph-name="accent" unicode="&#xf400;" horiz-adv-x="0" 
d="M-106 732l-137 -138h-96l84 138h149z" />
    <glyph glyph-name="Accent" unicode="&#xf401;" horiz-adv-x="0" 
d="M-167 919l-149 -149h-99l88 149h160z" />
    <glyph glyph-name="Breve" unicode="&#xf406;" horiz-adv-x="761" 
d="M471 913l82 -19c-15 -81 -80 -133 -172 -133s-158 52 -173 133l82 19c8 -33 25 -69 91 -69s82 36 90 69z" />
    <glyph glyph-name="Cedilla" unicode="&#xf407;" horiz-adv-x="603" 
d="M252 -236l10 62c20 -9 42 -13 67 -13c29 0 59 13 59 45c0 30 -33 37 -60 37c-11 0 -27 1 -38 -2l15 107h73l-9 -51c60 -3 117 -24 117 -93c0 -64 -62 -109 -139 -109c-44 0 -70 6 -95 17z" />
    <glyph glyph-name="Circumflex" unicode="&#xf408;" horiz-adv-x="761" 
d="M449 907l113 -137h-107l-74 76l-75 -76h-107l114 137h136z" />
    <glyph glyph-name="Commaaccent" unicode="&#xf409;" horiz-adv-x="702" 
d="M294 -233v51c37 -3 72 8 75 37c-51 -8 -93 6 -93 45c0 31 29 52 80 52c48 0 84 -25 84 -77c0 -59 -47 -113 -146 -108z" />
    <glyph glyph-name="Apostrophe" unicode="&#xf40a;" horiz-adv-x="254" 
d="M220 700l-84 -212h-91l48 212h127z" />
    <glyph glyph-name="Dotaccent" unicode="&#xf40b;" horiz-adv-x="643" 
d="M399 846c0 -45 -27 -72 -78 -72c-47 0 -77 27 -77 72c0 43 30 70 77 70c51 0 78 -26 78 -70z" />
    <glyph glyph-name="Ring" unicode="&#xf40c;" horiz-adv-x="761" 
d="M380 820c28 0 52 22 52 51c0 27 -24 49 -52 49c-27 0 -48 -22 -48 -49c0 -29 21 -51 48 -51zM380 755c-64 0 -114 51 -114 115c0 63 50 115 114 115s115 -52 115 -115c0 -64 -51 -115 -115 -115z" />
    <glyph glyph-name="Tilde" unicode="&#xf40d;" horiz-adv-x="761" 
d="M499 909l71 -14c-7 -77 -51 -121 -103 -121c-27 0 -46 7 -87 26c-29 13 -42 24 -65 24c-16 0 -32 -13 -36 -50l-73 13c4 79 44 122 103 122c31 0 56 -12 87 -27s47 -23 66 -23s32 13 37 50z" />
    <glyph glyph-name="Ogonek" unicode="&#xf40e;" horiz-adv-x="680" 
d="M474 -164v-67c-24 -12 -55 -22 -94 -22c-91 0 -123 48 -123 104c0 70 61 122 122 159l59 -10c-51 -35 -85 -75 -85 -131c0 -31 24 -51 59 -51c21 0 42 7 62 18z" />
    <glyph glyph-name="zero.tab" unicode="&#xf4e0;" horiz-adv-x="585" 
d="M300 101c89 0 128 68 128 248c0 183 -41 251 -136 251c-88 0 -131 -67 -131 -251c0 -183 45 -248 139 -248zM295 -11c-175 0 -269 112 -269 361c0 251 99 361 266 361c185 0 271 -112 271 -361c0 -256 -96 -361 -268 -361z" />
    <glyph glyph-name="one.tab" unicode="&#xf4e1;" horiz-adv-x="585" 
d="M394 700v-700h-127v556l-112 -72l-56 92l191 124h104z" />
    <glyph glyph-name="two.tab" unicode="&#xf4e2;" horiz-adv-x="585" 
d="M526 114v-114h-470v118l119 99c137 107 206 180 206 262c0 76 -48 114 -135 114c-67 0 -121 -19 -166 -44v124c73 31 139 38 196 38c156 0 243 -78 243 -201c0 -142 -108 -246 -272 -369l-35 -25v-2h314z" />
    <glyph glyph-name="three.tab" unicode="&#xf4e3;" horiz-adv-x="585" 
d="M58 21v119c60 -24 114 -35 173 -35c100 0 151 37 151 100c0 77 -62 102 -156 102h-85v107h76c97 0 149 26 149 95c0 53 -43 86 -134 86c-63 0 -118 -13 -161 -32v118c59 21 118 30 189 30c171 0 242 -77 242 -185c0 -89 -54 -142 -142 -161v-2c113 -17 159 -80 159 -160
c0 -143 -112 -214 -268 -214c-57 0 -125 9 -193 32z" />
    <glyph glyph-name="four.tab" unicode="&#xf4e4;" horiz-adv-x="585" 
d="M135 267h223v318h-2zM485 151v-151h-128v151h-343v111l303 438h168v-432h88v-117h-88z" />
    <glyph glyph-name="five.tab" unicode="&#xf4e5;" horiz-adv-x="585" 
d="M73 16v116c52 -19 88 -27 143 -27c103 0 166 38 166 122c0 79 -51 118 -152 118c-48 0 -106 -9 -150 -24l20 379h392v-113h-289l-9 -150c35 7 55 10 87 10c156 0 236 -93 236 -218c0 -145 -90 -240 -285 -240c-48 0 -106 7 -159 27z" />
    <glyph glyph-name="six.tab" unicode="&#xf4e6;" horiz-adv-x="585" 
d="M309 94c72 0 119 45 119 129c0 81 -53 123 -122 123c-78 0 -128 -49 -128 -108c0 -82 46 -144 131 -144zM496 692v-118c-43 15 -84 23 -136 23c-126 0 -200 -89 -200 -226c32 41 78 75 173 75c124 0 228 -68 228 -221c0 -144 -103 -236 -252 -236
c-208 0 -273 162 -273 336c0 215 79 386 320 386c41 0 89 -4 140 -19z" />
    <glyph glyph-name="seven.tab" unicode="&#xf4e7;" horiz-adv-x="585" 
d="M525 597l-247 -597h-142l248 584h-324v116h465v-103z" />
    <glyph glyph-name="eight.tab" unicode="&#xf4e8;" horiz-adv-x="585" 
d="M314 407c68 35 97 71 97 115c0 61 -50 84 -121 84c-75 0 -116 -32 -116 -80c0 -65 69 -95 140 -119zM277 322c-56 -24 -117 -57 -117 -121s49 -107 140 -107c75 0 128 35 128 103c0 75 -83 103 -151 125zM409 373c109 -40 148 -94 148 -182c0 -125 -101 -202 -260 -202
c-149 0 -266 65 -266 198c0 92 55 148 148 179c-81 39 -131 86 -131 174c0 109 97 171 248 171c136 0 241 -49 241 -168c0 -84 -43 -133 -128 -170z" />
    <glyph glyph-name="nine.tab" unicode="&#xf4e9;" horiz-adv-x="585" 
d="M278 606c-72 0 -119 -44 -119 -128c0 -83 53 -129 122 -129c80 0 129 50 129 117c0 88 -47 140 -132 140zM92 8v118c43 -15 84 -23 136 -23c127 0 199 72 200 229c-28 -47 -78 -82 -173 -82c-124 0 -228 72 -228 225c0 144 103 236 252 236c208 0 273 -145 273 -335
c0 -220 -79 -387 -320 -387c-41 0 -89 4 -140 19z" />
    <glyph glyph-name="dollar.tab" unicode="&#xf4ec;" horiz-adv-x="585" 
d="M82 32v114c32 -21 99 -47 177 -47c89 0 121 36 121 96c0 67 -35 85 -122 117l-24 8c-111 39 -157 94 -157 202c0 103 65 167 178 184v103h76v-98c65 -3 114 -15 142 -30v-111c-51 23 -112 31 -160 31c-72 0 -110 -29 -110 -81c0 -49 28 -75 133 -113l26 -10
c121 -46 150 -108 150 -199c0 -116 -68 -184 -181 -203v-104h-76v98c-67 2 -125 16 -173 43z" />
    <glyph glyph-name="Euro.tab" unicode="&#xf4ed;" horiz-adv-x="585" 
d="M573 126v-112c-37 -17 -84 -25 -160 -25c-191 0 -290 95 -314 262h-84l18 67h59v24c0 15 0 28 1 43h-78l18 68h68c29 169 133 258 330 258c68 0 110 -10 141 -21v-110c-44 16 -92 22 -128 22c-124 0 -184 -54 -207 -149h282l-18 -68h-276c-1 -11 -1 -23 -1 -35
c0 -11 0 -21 1 -32h256l-18 -67h-225c21 -93 83 -153 203 -153c47 0 84 8 132 28z" />
    <glyph glyph-name="cent.tab" unicode="&#xf4ee;" horiz-adv-x="585" 
d="M375 -110h-73v103c-151 19 -215 117 -215 266c0 145 74 239 215 258v104h73v-102c61 -3 96 -14 121 -23v-100c-31 11 -67 23 -127 23c-100 0 -160 -46 -160 -154c0 -117 60 -174 177 -174c49 0 91 14 118 26v-99c-24 -11 -64 -24 -129 -27v-101z" />
    <glyph glyph-name="sterling.tab" unicode="&#xf4ef;" horiz-adv-x="585" 
d="M536 110v-110h-473v110h90v216h-90v84h90v59c0 99 40 242 243 242c51 0 99 -8 136 -19v-108c-45 13 -76 18 -123 18c-98 0 -129 -62 -129 -139v-53h167v-84h-167v-216h256z" />
    <glyph glyph-name="yen.tab" unicode="&#xf4fa;" horiz-adv-x="585" 
d="M502 157h-144v-157h-127v157h-144v71h144v51l-10 18h-134v71h97l-175 332h148l140 -286l135 286h148l-175 -332h97v-71h-135l-9 -18v-51h144v-71z" />
    <glyph glyph-name="florin.tab" unicode="&#xf4fb;" horiz-adv-x="585" 
d="M140 -12l85 421h-96l20 101h97l13 65c22 110 82 183 209 183c29 0 50 -3 77 -8l-20 -99c-8 3 -26 6 -47 6c-66 0 -91 -23 -107 -107l-8 -40h131l-21 -101h-131l-84 -411c-27 -134 -80 -215 -220 -215c-23 0 -41 2 -55 6l23 103c11 -2 22 -3 34 -3c45 0 81 11 100 99z" />
    <glyph glyph-name="uni20B4.tab" unicode="&#xf4fc;" horiz-adv-x="585" 
d="M499 122v-109c-65 -19 -133 -24 -184 -24c-184 0 -233 98 -233 167c0 45 17 76 33 96h-65v69h119c12 10 68 58 81 68h-200v68h274c36 29 54 62 54 87c0 53 -51 62 -85 62c-71 0 -99 -5 -167 -27v110c67 16 147 22 184 22c178 0 204 -90 204 -148c0 -43 -22 -79 -45 -106
h71v-68h-131c-14 -11 -70 -58 -83 -68h214v-69h-282c-31 -24 -39 -56 -39 -79c0 -53 42 -79 125 -79c40 0 102 4 155 28z" />
    <glyph glyph-name="uni20BD.tab" unicode="&#xf4fd;" horiz-adv-x="585" 
d="M237 605v-230h79c97 0 131 43 131 119c0 77 -34 111 -131 111h-79zM439 218v-85h-200v-133h-127v133h-86v85h86v71h-86v86h86v325h216c173 0 250 -66 250 -203c0 -133 -79 -208 -259 -208h-80v-71h200z" />
    <glyph glyph-name="uni20B8.tab" unicode="&#xf5f3;" horiz-adv-x="585" 
d="M554 700v-84h-523v84h523zM356 481v-481h-127v481h-198v84h523v-84h-198z" />
    <glyph glyph-name="uniF643" unicode="&#xf643;" horiz-adv-x="585" 
d="M297 94c81 0 116 53 116 160c0 111 -37 160 -121 160c-77 0 -119 -47 -119 -160c0 -109 40 -160 124 -160zM293 -11c-167 0 -261 90 -261 265c0 179 101 266 259 266c168 0 262 -87 262 -266c0 -177 -96 -265 -260 -265z" />
    <glyph glyph-name="uniF644" unicode="&#xf644;" horiz-adv-x="585" 
d="M394 510v-510h-127v366l-110 -70l-56 92l189 122h104z" />
    <glyph glyph-name="uniF645" unicode="&#xf645;" horiz-adv-x="585" 
d="M528 113v-113h-472v122l139 79c112 59 171 91 171 146c0 52 -51 63 -110 63c-60 0 -121 -14 -178 -39v113c72 27 147 36 231 36c188 0 211 -92 211 -144c0 -105 -82 -148 -217 -220l-76 -42v-1h301z" />
    <glyph glyph-name="uniF646" unicode="&#xf646;" horiz-adv-x="585" 
d="M54 -169v119c60 -24 114 -35 173 -35c100 0 151 37 151 100c0 77 -62 102 -156 102h-85v107h76c97 0 149 26 149 95c0 53 -43 86 -134 86c-63 0 -118 -13 -161 -32v118c59 21 118 30 189 30c171 0 242 -77 242 -185c0 -89 -54 -142 -142 -161v-2
c113 -17 159 -80 159 -160c0 -143 -112 -214 -268 -214c-57 0 -125 9 -193 32z" />
    <glyph glyph-name="uniF647" unicode="&#xf647;" horiz-adv-x="585" 
d="M143 116h210v282h-2zM480 0v-190h-128v190h-335v111l295 399h168v-393h90v-117h-90z" />
    <glyph glyph-name="uniF648" unicode="&#xf648;" horiz-adv-x="585" 
d="M75 -173v116c52 -19 88 -27 143 -27c103 0 166 38 166 122c0 79 -51 118 -152 118c-48 0 -106 -9 -150 -24l20 379h392v-113h-289l-9 -150c35 7 55 10 87 10c156 0 236 -93 236 -218c0 -145 -90 -240 -285 -240c-48 0 -106 7 -159 27z" />
    <glyph glyph-name="uniF649" unicode="&#xf649;" horiz-adv-x="585" 
d="M309 94c72 0 119 45 119 129c0 81 -53 123 -122 123c-78 0 -128 -49 -128 -108c0 -82 46 -144 131 -144zM496 692v-118c-43 15 -84 23 -136 23c-126 0 -200 -89 -200 -226c32 41 78 75 173 75c124 0 228 -68 228 -221c0 -144 -103 -236 -252 -236
c-208 0 -273 162 -273 336c0 215 79 386 320 386c41 0 89 -4 140 -19z" />
    <glyph glyph-name="uniF64A" unicode="&#xf64a;" horiz-adv-x="585" 
d="M526 408l-247 -597h-142l248 584h-324v116h465v-103z" />
    <glyph glyph-name="uniF64B" unicode="&#xf64b;" horiz-adv-x="585" 
d="M314 407c68 35 97 71 97 115c0 61 -50 84 -121 84c-75 0 -116 -32 -116 -80c0 -65 69 -95 140 -119zM277 322c-56 -24 -117 -57 -117 -121s49 -107 140 -107c75 0 128 35 128 103c0 75 -83 103 -151 125zM409 373c109 -40 148 -94 148 -182c0 -125 -101 -202 -260 -202
c-149 0 -266 65 -266 198c0 92 55 148 148 179c-81 39 -131 86 -131 174c0 109 97 171 248 171c136 0 241 -49 241 -168c0 -84 -43 -133 -128 -170z" />
    <glyph glyph-name="uniF64C" unicode="&#xf64c;" horiz-adv-x="585" 
d="M279 416c-72 0 -119 -44 -119 -128c0 -83 53 -129 122 -129c80 0 129 50 129 117c0 88 -47 140 -132 140zM93 -182v118c43 -15 84 -23 136 -23c127 0 199 72 200 229c-28 -47 -78 -82 -173 -82c-124 0 -228 72 -228 225c0 144 103 236 252 236c208 0 273 -145 273 -335
c0 -220 -79 -387 -320 -387c-41 0 -89 4 -140 19z" />
    <glyph glyph-name="zero.denominator" unicode="&#xf655;" 
d="M199 73c43 0 61 37 61 138c0 104 -20 141 -65 141c-41 0 -63 -38 -63 -141s23 -138 67 -138zM197 -6c-111 0 -167 66 -167 218c0 153 61 218 165 218c116 0 168 -65 168 -218c0 -155 -61 -218 -166 -218z" />
    <glyph glyph-name="one.denominator" unicode="&#xf656;" 
d="M279 420v-418h-100v310l-82 -55l-44 68l146 95h80z" />
    <glyph glyph-name="two.denominator" unicode="&#xf657;" 
d="M348 85v-83h-309v88l81 61c83 62 115 92 115 137c0 36 -20 59 -75 59c-35 0 -73 -9 -104 -26v86c44 16 83 23 130 23c99 0 157 -42 157 -119c0 -71 -47 -123 -159 -203l-32 -22v-1h196z" />
    <glyph glyph-name="three.denominator" unicode="&#xf658;" 
d="M48 14v84c36 -16 73 -22 108 -22c60 0 85 16 85 51c0 43 -28 56 -84 56h-61v71h53c51 0 83 13 83 48c0 32 -23 46 -75 46c-37 0 -75 -8 -102 -20v82c36 15 89 20 130 20c104 0 149 -48 149 -108c0 -56 -32 -84 -88 -100v-1c80 -13 98 -61 98 -101
c0 -83 -75 -126 -175 -126c-35 0 -80 5 -121 20z" />
    <glyph glyph-name="four.denominator" unicode="&#xf659;" 
d="M104 167h119v172h-1zM322 86v-84h-99v84h-205v77l183 257h121v-252h54v-82h-54z" />
    <glyph glyph-name="five.denominator" unicode="&#xf65a;" 
d="M58 13v83c39 -17 63 -20 102 -20c56 0 80 24 80 64c0 39 -22 61 -77 61c-39 0 -60 -5 -97 -14l12 233h245v-80h-171l-5 -74c16 4 33 8 58 8c88 0 137 -55 137 -131c0 -89 -55 -149 -172 -149c-36 0 -77 4 -112 19z" />
    <glyph glyph-name="six.denominator" unicode="&#xf65b;" 
d="M207 68c33 0 58 26 58 71c0 43 -24 65 -59 65c-33 0 -63 -17 -63 -60c0 -47 24 -76 64 -76zM328 418v-82c-31 11 -61 14 -89 14c-52 0 -108 -23 -108 -115c21 23 53 40 100 40c71 0 134 -40 134 -134c0 -89 -64 -147 -159 -147c-130 0 -167 100 -167 201
c0 131 50 235 198 235c24 0 56 -3 91 -12z" />
    <glyph glyph-name="seven.denominator" unicode="&#xf65c;" 
d="M340 355l-146 -353h-105l149 338h-190v80h292v-65z" />
    <glyph glyph-name="eight.denominator" unicode="&#xf65d;" 
d="M203 249c29 17 47 38 47 61c0 25 -18 46 -54 46c-35 0 -55 -21 -55 -46c0 -28 26 -49 62 -61zM190 190c-33 -15 -57 -32 -57 -67c0 -28 19 -54 64 -54c36 0 62 21 62 56c0 37 -37 54 -69 65zM275 226c60 -24 85 -56 85 -105c0 -77 -64 -127 -163 -127
c-92 0 -164 43 -164 119c0 56 30 87 85 108c-56 24 -76 54 -76 99c0 68 61 110 156 110c85 0 151 -35 151 -105c0 -45 -31 -79 -74 -99z" />
    <glyph glyph-name="nine.denominator" unicode="&#xf65e;" 
d="M186 356c-32 0 -58 -24 -58 -71c0 -43 24 -64 59 -64c33 0 63 16 63 60c0 47 -24 75 -64 75zM63 7v82c32 -12 62 -14 90 -14c51 0 112 23 109 114c-20 -23 -52 -39 -99 -39c-71 0 -134 39 -134 134c0 88 65 146 158 146c131 0 168 -100 168 -201
c0 -131 -52 -235 -200 -235c-24 0 -56 2 -92 13z" />
    <glyph glyph-name="zero.numerator" unicode="&#xf661;" 
d="M199 354c43 0 61 37 61 138c0 104 -20 141 -65 141c-41 0 -63 -38 -63 -141s23 -138 67 -138zM197 275c-111 0 -167 66 -167 218c0 153 61 218 165 218c116 0 168 -65 168 -218c0 -155 -61 -218 -166 -218z" />
    <glyph glyph-name="one.numerator" unicode="&#xf662;" 
d="M279 701v-418h-100v310l-82 -55l-44 68l146 95h80z" />
    <glyph glyph-name="two.numerator" unicode="&#xf663;" 
d="M348 366v-83h-309v88l81 61c83 62 115 92 115 137c0 36 -20 59 -75 59c-35 0 -73 -9 -104 -26v86c44 16 83 23 130 23c99 0 157 -42 157 -119c0 -71 -47 -123 -159 -203l-32 -22v-1h196z" />
    <glyph glyph-name="three.numerator" unicode="&#xf664;" 
d="M48 295v84c36 -16 73 -22 108 -22c60 0 85 16 85 51c0 43 -28 56 -84 56h-61v71h53c51 0 83 13 83 48c0 32 -23 46 -75 46c-37 0 -75 -8 -102 -20v82c36 15 89 20 130 20c104 0 149 -48 149 -108c0 -56 -32 -84 -88 -100v-1c80 -13 98 -61 98 -101
c0 -83 -75 -126 -175 -126c-35 0 -80 5 -121 20z" />
    <glyph glyph-name="four.numerator" unicode="&#xf665;" 
d="M104 448h119v172h-1zM322 367v-84h-99v84h-205v77l183 257h121v-252h54v-82h-54z" />
    <glyph glyph-name="five.numerator" unicode="&#xf666;" 
d="M58 294v83c39 -17 63 -20 102 -20c56 0 80 24 80 64c0 39 -22 61 -77 61c-39 0 -60 -5 -97 -14l12 233h245v-80h-171l-5 -74c16 4 33 8 58 8c88 0 137 -55 137 -131c0 -89 -55 -149 -172 -149c-36 0 -77 4 -112 19z" />
    <glyph glyph-name="six.numerator" unicode="&#xf667;" 
d="M207 349c33 0 58 26 58 71c0 43 -24 65 -59 65c-33 0 -63 -17 -63 -60c0 -47 24 -76 64 -76zM328 699v-82c-31 11 -61 14 -89 14c-52 0 -108 -23 -108 -115c21 23 53 40 100 40c71 0 134 -40 134 -134c0 -89 -64 -147 -159 -147c-130 0 -167 100 -167 201
c0 131 50 235 198 235c24 0 56 -3 91 -12z" />
    <glyph glyph-name="seven.numerator" unicode="&#xf668;" 
d="M340 636l-146 -353h-105l149 338h-190v80h292v-65z" />
    <glyph glyph-name="eight.numerator" unicode="&#xf669;" 
d="M203 530c29 17 47 38 47 61c0 25 -18 46 -54 46c-35 0 -55 -21 -55 -46c0 -28 26 -49 62 -61zM190 471c-33 -15 -57 -32 -57 -67c0 -28 19 -54 64 -54c36 0 62 21 62 56c0 37 -37 54 -69 65zM275 507c60 -24 85 -56 85 -105c0 -77 -64 -127 -163 -127
c-92 0 -164 43 -164 119c0 56 30 87 85 108c-56 24 -76 54 -76 99c0 68 61 110 156 110c85 0 151 -35 151 -105c0 -45 -31 -79 -74 -99z" />
    <glyph glyph-name="nine.numerator" unicode="&#xf66a;" 
d="M186 637c-32 0 -58 -24 -58 -71c0 -43 24 -64 59 -64c33 0 63 16 63 60c0 47 -24 75 -64 75zM63 288v82c32 -12 62 -14 90 -14c51 0 112 23 109 114c-20 -23 -52 -39 -99 -39c-71 0 -134 39 -134 134c0 88 65 146 158 146c131 0 168 -100 168 -201
c0 -131 -52 -235 -200 -235c-24 0 -56 2 -92 13z" />
    <glyph glyph-name="uniF6BA" unicode="&#xf6ba;" horiz-adv-x="482" 
d="M403 395v-100h-323v100h323z" />
    <glyph glyph-name="uniF6BB" unicode="&#xf6bb;" horiz-adv-x="646" 
d="M596 389v-92h-546v92h546z" />
    <glyph glyph-name="uniF6BC" unicode="&#xf6bc;" horiz-adv-x="807" 
d="M758 389v-92h-708v92h708z" />
    <glyph glyph-name="commaaccent" unicode="&#xf6c3;" horiz-adv-x="589" 
d="M233 -233v51c37 -3 72 8 75 37c-51 -7 -93 6 -93 45c0 31 29 52 80 52c49 0 84 -25 84 -77c0 -59 -47 -113 -146 -108z" />
    <glyph glyph-name="Acute" unicode="&#xf6c9;" horiz-adv-x="761" 
d="M573 919l-149 -149h-99l88 149h160z" />
    <glyph glyph-name="Caron" unicode="&#xf6ca;" horiz-adv-x="761" 
d="M562 907l-113 -137h-136l-114 137h107l75 -76l74 76h107z" />
    <glyph glyph-name="Dieresis" unicode="&#xf6cb;" horiz-adv-x="717" 
d="M543 837c0 -39 -25 -64 -69 -64s-69 25 -69 64c0 40 25 64 69 64s69 -24 69 -64zM313 837c0 -39 -26 -64 -70 -64c-43 0 -68 25 -68 64c0 40 25 64 68 64c44 0 70 -24 70 -64z" />
    <glyph glyph-name="DieresisAcute" unicode="&#xf6cc;" horiz-adv-x="573" 
d="M406 913l-113 -147h-80l67 147h126zM510 833c0 -36 -23 -60 -63 -60s-63 24 -63 60s23 59 63 59s63 -23 63 -59zM210 833c0 -36 -22 -60 -63 -60c-39 0 -62 24 -62 60s23 59 62 59c41 0 63 -23 63 -59z" />
    <glyph glyph-name="Grave" unicode="&#xf6ce;" horiz-adv-x="761" 
d="M364 919l88 -149h-99l-149 149h160z" />
    <glyph glyph-name="Hungarumlaut" unicode="&#xf6cf;" horiz-adv-x="761" 
d="M530 917h148l-156 -147h-93zM326 917h149l-156 -147h-94z" />
    <glyph glyph-name="Macron" unicode="&#xf6d0;" horiz-adv-x="761" 
d="M550 872v-84h-339v84h339z" />
    <glyph glyph-name="cyrBreve" unicode="&#xf6d1;" horiz-adv-x="556" 
d="M368 908l102 -10c-5 -100 -87 -141 -186 -141c-101 0 -181 41 -186 141l101 10c11 -48 38 -64 85 -64c45 0 75 16 84 64z" />
    <glyph glyph-name="cyrbreve" unicode="&#xf6d4;" horiz-adv-x="605" 
d="M381 741l93 -10c-5 -98 -81 -142 -171 -142s-168 44 -171 142l90 10c7 -47 38 -69 81 -69s71 22 78 69z" />
    <glyph glyph-name="dieresisacute" unicode="&#xf6d7;" horiz-adv-x="567" 
d="M403 736l-109 -142h-77l65 142h121zM505 658c0 -35 -21 -58 -60 -58c-40 0 -61 23 -61 58s21 58 61 58c39 0 60 -23 60 -58zM214 658c0 -35 -22 -58 -62 -58c-37 0 -59 23 -59 58s22 58 59 58c40 0 62 -23 62 -58z" />
    <glyph glyph-name="zerooldstyle" unicode="&#xf730;" horiz-adv-x="634" 
d="M321 94c81 0 116 53 116 160c0 111 -37 160 -121 160c-77 0 -119 -47 -119 -160c0 -109 40 -160 124 -160zM317 -11c-167 0 -261 90 -261 265c0 179 101 266 259 266c168 0 262 -87 262 -266c0 -177 -96 -265 -260 -265z" />
    <glyph glyph-name="oneoldstyle" unicode="&#xf731;" horiz-adv-x="453" 
d="M334 510v-510h-127v366l-110 -70l-56 92l189 122h104z" />
    <glyph glyph-name="twooldstyle" unicode="&#xf732;" horiz-adv-x="592" 
d="M531 113v-113h-472v122l139 79c112 59 171 91 171 146c0 52 -51 63 -110 63c-60 0 -121 -14 -178 -39v113c72 27 147 36 231 36c188 0 211 -92 211 -144c0 -105 -82 -148 -217 -220l-76 -42v-1h301z" />
    <glyph glyph-name="threeoldstyle" unicode="&#xf733;" horiz-adv-x="547" 
d="M36 -169v119c60 -24 114 -35 173 -35c100 0 151 37 151 100c0 77 -62 102 -156 102h-85v107h76c97 0 149 26 149 95c0 53 -43 86 -134 86c-63 0 -118 -13 -161 -32v118c59 21 118 30 189 30c171 0 242 -77 242 -185c0 -89 -54 -142 -142 -161v-2
c113 -17 159 -80 159 -160c0 -143 -112 -214 -268 -214c-57 0 -125 9 -193 32z" />
    <glyph glyph-name="fouroldstyle" unicode="&#xf734;" horiz-adv-x="614" 
d="M168 116h210v282h-2zM505 0v-190h-128v190h-335v111l295 399h168v-393h90v-117h-90z" />
    <glyph glyph-name="fiveoldstyle" unicode="&#xf735;" horiz-adv-x="544" 
d="M64 -173v116c52 -19 88 -27 143 -27c103 0 166 38 166 122c0 79 -51 118 -152 118c-48 0 -106 -9 -150 -24l20 379h392v-113h-289l-9 -150c35 7 55 10 87 10c156 0 236 -93 236 -218c0 -145 -90 -240 -285 -240c-48 0 -106 7 -159 27z" />
    <glyph glyph-name="sixoldstyle" unicode="&#xf736;" horiz-adv-x="625" 
d="M330 94c72 0 119 45 119 129c0 81 -53 123 -122 123c-78 0 -128 -49 -128 -108c0 -82 46 -144 131 -144zM517 692v-118c-43 15 -84 23 -136 23c-126 0 -200 -89 -200 -226c32 41 78 75 173 75c124 0 228 -68 228 -221c0 -144 -103 -236 -252 -236
c-208 0 -273 162 -273 336c0 215 79 386 320 386c41 0 89 -4 140 -19z" />
    <glyph glyph-name="sevenoldstyle" unicode="&#xf737;" horiz-adv-x="537" 
d="M495 408l-247 -597h-142l248 584h-324v116h465v-103z" />
    <glyph glyph-name="eightoldstyle" unicode="&#xf738;" horiz-adv-x="626" 
d="M333 407c68 35 97 71 97 115c0 61 -50 84 -121 84c-75 0 -116 -32 -116 -80c0 -65 69 -95 140 -119zM296 322c-56 -24 -117 -57 -117 -121s49 -107 140 -107c75 0 128 35 128 103c0 75 -83 103 -151 125zM428 373c109 -40 148 -94 148 -182c0 -125 -101 -202 -260 -202
c-149 0 -266 65 -266 198c0 92 55 148 148 179c-81 39 -131 86 -131 174c0 109 97 171 248 171c136 0 241 -49 241 -168c0 -84 -43 -133 -128 -170z" />
    <glyph glyph-name="nineoldstyle" unicode="&#xf739;" horiz-adv-x="624" 
d="M293 416c-72 0 -119 -44 -119 -128c0 -83 53 -129 122 -129c80 0 129 50 129 117c0 88 -47 140 -132 140zM107 -182v118c43 -15 84 -23 136 -23c127 0 199 72 200 229c-28 -47 -78 -82 -173 -82c-124 0 -228 72 -228 225c0 144 103 236 252 236c208 0 273 -145 273 -335
c0 -220 -79 -387 -320 -387c-41 0 -89 4 -140 19z" />
    <glyph glyph-name="uniFEFF" unicode="&#xfeff;" horiz-adv-x="0" 
 />
    <glyph glyph-name="exclam.ss01" horiz-adv-x="377" 
d="M260 700l-18 -464h-107l-18 464h143zM259 134v-134h-142v134h142z" />
    <glyph glyph-name="dollar.ss02" horiz-adv-x="551" 
d="M315 809v-98c72 -3 115 -17 142 -30v-111c-45 19 -98 27 -142 30v-191c1 -1 3 -2 5 -2l26 -10c121 -46 150 -108 150 -199c0 -111 -62 -185 -181 -204v-103h-76v98c-72 3 -129 18 -173 43v114c31 -21 97 -46 173 -47v214l-21 7c-111 39 -157 94 -157 202
c0 99 58 168 178 185v102h76zM364 195c0 43 -14 66 -49 86v-170c35 15 49 44 49 84zM187 520c0 -33 12 -55 52 -78v150c-35 -12 -52 -36 -52 -72z" />
    <glyph glyph-name="dollar.tab.ss02" horiz-adv-x="585" 
d="M331 809v-98c72 -3 115 -17 142 -30v-111c-45 19 -98 27 -142 30v-191c1 -1 3 -2 5 -2l26 -10c121 -46 150 -108 150 -199c0 -111 -62 -185 -181 -204v-103h-76v98c-72 3 -129 18 -173 43v114c31 -21 97 -46 173 -47v214l-21 7c-111 39 -157 94 -157 202
c0 99 58 168 178 185v102h76zM380 195c0 43 -14 66 -49 86v-170c35 15 49 44 49 84zM203 520c0 -33 12 -55 52 -78v150c-35 -12 -52 -36 -52 -72z" />
    <glyph glyph-name="comma.ss01" horiz-adv-x="285" 
d="M217 134l-91 -267h-108l58 267h141z" />
    <glyph glyph-name="period.ss01" horiz-adv-x="285" 
d="M214 134v-134h-142v134h142z" />
    <glyph glyph-name="colon.ss01" horiz-adv-x="285" 
d="M214 510v-134h-142v134h142zM214 134v-134h-142v134h142z" />
    <glyph glyph-name="semicolon.ss01" horiz-adv-x="285" 
d="M217 134l-90 -267h-109l58 267h141zM214 510v-134h-142v134h142z" />
    <glyph glyph-name="question.ss01" horiz-adv-x="486" 
d="M261 226v-14h-115v19c0 145 161 180 161 279c0 59 -49 87 -116 87c-57 0 -97 -11 -150 -38v117c57 27 122 35 182 35c153 0 225 -73 225 -181c0 -165 -187 -183 -187 -304zM274 134v-134h-142v134h142z" />
    <glyph glyph-name="R.ss01" horiz-adv-x="626" 
d="M511 220l99 -220h-140l-82 188c-40 88 -70 99 -127 99h-57v-287h-128v700h261c130 0 219 -61 219 -192c0 -93 -45 -154 -138 -175v-2c36 -13 61 -36 93 -111zM202 591v-195h107c54 0 113 24 113 100c0 64 -37 95 -104 95h-116z" />
    <glyph glyph-name="i.ss01" horiz-adv-x="254" 
d="M185 510v-510h-116v510h116zM63 737h128v-112h-128v112z" />
    <glyph glyph-name="j.ss01" horiz-adv-x="254" 
d="M-48 -211l2 103c15 -2 28 -3 41 -3c43 0 74 16 74 99v522h116v-512c0 -134 -39 -215 -177 -215c-23 0 -41 2 -56 6zM63 737h128v-112h-128v112z" />
    <glyph glyph-name="exclamdown.ss01" horiz-adv-x="377" 
d="M117 -192l18 465h107l18 -465h-143zM259 510v-134h-142v134h142z" />
    <glyph glyph-name="cent.ss02" horiz-adv-x="553" 
d="M360 621v-102c61 -3 96 -14 121 -23v-100c-29 11 -65 22 -121 23v-328h11c49 0 91 14 118 26v-99c-24 -11 -64 -24 -129 -27v-101h-73v103c-151 19 -215 117 -215 266c0 145 74 239 215 258v104h73zM194 265c0 -84 31 -138 93 -161v306c-60 -19 -93 -65 -93 -145z" />
    <glyph glyph-name="cent.tab.ss02" horiz-adv-x="585" 
d="M375 621v-102c61 -3 96 -14 121 -23v-100c-29 11 -65 22 -121 23v-328h11c49 0 91 14 118 26v-99c-24 -11 -64 -24 -129 -27v-101h-73v103c-151 19 -215 117 -215 266c0 145 74 239 215 258v104h73zM209 265c0 -84 31 -138 93 -161v306c-60 -19 -93 -65 -93 -145z" />
    <glyph glyph-name="dieresis.ss01" horiz-adv-x="582" 
d="M125 725h123v-112h-123v112zM334 725h123v-112h-123v112z" />
    <glyph glyph-name="periodcentered.ss01" horiz-adv-x="231" 
d="M186 417v-134h-142v134h142z" />
    <glyph glyph-name="questiondown.ss01" horiz-adv-x="486" 
d="M225 281v15h115v-20c0 -146 -161 -179 -161 -278c0 -60 49 -88 117 -88c56 0 97 11 149 38v-117c-57 -27 -122 -35 -182 -35c-153 0 -225 75 -225 181c0 165 187 185 187 304zM355 510v-134h-142v134h142z" />
    <glyph glyph-name="Adieresis.ss01" horiz-adv-x="666" 
d="M528 0l-55 167h-282l-56 -167h-127l250 700h155l246 -700h-131zM333 590l-105 -311h208zM151 898h134v-122h-134v122zM383 898h134v-122h-134v122z" />
    <glyph glyph-name="Edieresis.ss01" horiz-adv-x="557" 
d="M504 114v-114h-428v700h428v-114h-300v-172h268v-108h-268v-192h300zM106 898h134v-122h-134v122zM338 898h134v-122h-134v122z" />
    <glyph glyph-name="Idieresis.ss01" horiz-adv-x="280" 
d="M204 700v-700h-128v700h128zM-42 898h134v-122h-134v122zM190 898h134v-122h-134v122z" />
    <glyph glyph-name="Odieresis.ss01" horiz-adv-x="761" 
d="M388 103c125 0 188 76 188 247c0 175 -66 247 -198 247c-120 0 -192 -76 -192 -247c0 -169 73 -247 202 -247zM381 -11c-213 0 -331 126 -331 361c0 234 126 361 328 361c225 0 333 -137 333 -361c0 -248 -130 -361 -330 -361zM197 898h134v-122h-134v122zM429 898h134
v-122h-134v122z" />
    <glyph glyph-name="Udieresis.ss01" horiz-adv-x="688" 
d="M492 305v395h127v-410c0 -213 -87 -301 -275 -301c-177 0 -275 81 -275 301v410h127v-395c0 -137 33 -200 148 -200c122 0 148 64 148 200zM162 898h134v-122h-134v122zM394 898h134v-122h-134v122z" />
    <glyph glyph-name="adieresis.ss01" horiz-adv-x="544" 
d="M364 196v29c-19 3 -36 6 -83 6c-96 0 -124 -27 -124 -70c0 -41 26 -75 90 -75c77 0 117 42 117 110zM481 310v-310h-107v73h-2c-25 -41 -76 -82 -164 -82c-107 0 -172 58 -172 158c0 105 71 156 230 156c49 0 81 -4 98 -7v28c0 65 -31 94 -119 94
c-56 0 -121 -16 -161 -36v100c43 19 107 36 179 36c161 0 218 -59 218 -210zM107 725h123v-112h-123v112zM316 725h123v-112h-123v112z" />
    <glyph glyph-name="edieresis.ss01" horiz-adv-x="561" 
d="M488 124v-96c-27 -20 -90 -38 -170 -38c-191 0 -277 97 -277 269c0 159 92 261 247 261c175 0 236 -115 236 -259v-33h-362c11 -96 60 -140 169 -140c73 0 122 16 157 36zM162 305h242c3 69 -34 120 -113 120c-76 0 -119 -40 -129 -120zM124 725h123v-112h-123v112z
M333 725h123v-112h-123v112z" />
    <glyph glyph-name="idieresis.ss01" horiz-adv-x="254" 
d="M185 510v-510h-116v510h116zM-38 725h123v-112h-123v112zM171 725h123v-112h-123v112z" />
    <glyph glyph-name="odieresis.ss01" horiz-adv-x="595" 
d="M298 89c89 0 134 51 134 166s-39 166 -134 166c-87 0 -134 -53 -134 -166c0 -115 53 -166 134 -166zM298 -10c-168 0 -257 88 -257 265c0 171 94 265 257 265c167 0 256 -89 256 -265c0 -169 -91 -265 -256 -265zM131 725h123v-112h-123v112zM340 725h123v-112h-123v112z
" />
    <glyph glyph-name="udieresis.ss01" horiz-adv-x="600" 
d="M63 200v310h117v-264c0 -117 24 -153 108 -153c91 0 129 64 129 181v236h116v-510h-116v72h-2c-37 -56 -97 -81 -165 -81c-125 0 -187 62 -187 209zM132 725h123v-112h-123v112zM341 725h123v-112h-123v112z" />
    <glyph glyph-name="ydieresis.ss01" horiz-adv-x="517" 
d="M63 -207l5 100c15 -7 32 -9 45 -9c56 0 82 30 99 86l6 18l-211 522h128l142 -384l115 384h118l-175 -512c-45 -128 -82 -215 -205 -215c-27 0 -48 3 -67 10zM95 725h123v-112h-123v112zM304 725h123v-112h-123v112z" />
    <glyph glyph-name="Cdotaccent.ss01" horiz-adv-x="614" 
d="M563 137v-120c-37 -19 -91 -28 -168 -28c-227 0 -345 120 -345 352c0 244 116 370 356 370c73 0 124 -12 156 -23v-119c-44 16 -103 24 -139 24c-164 0 -237 -72 -237 -243c0 -165 78 -243 238 -243c47 0 88 7 139 30zM318 898h139v-122h-139v122z" />
    <glyph glyph-name="cdotaccent.ss01" horiz-adv-x="493" 
d="M458 117v-99c-27 -12 -70 -28 -149 -28c-188 0 -268 105 -268 269c0 161 90 261 263 261c77 0 119 -13 147 -24v-100c-31 11 -68 23 -128 23c-100 0 -159 -46 -159 -154c0 -116 59 -174 177 -174c49 0 92 14 117 26zM234 725h128v-112h-128v112z" />
    <glyph glyph-name="Edotaccent.ss01" horiz-adv-x="557" 
d="M504 114v-114h-428v700h428v-114h-300v-172h268v-108h-268v-192h300zM233 898h139v-122h-139v122z" />
    <glyph glyph-name="edotaccent.ss01" horiz-adv-x="561" 
d="M488 124v-96c-27 -20 -90 -38 -170 -38c-191 0 -277 97 -277 269c0 159 92 261 247 261c175 0 236 -115 236 -259v-33h-362c11 -96 60 -140 169 -140c73 0 122 16 157 36zM162 305h242c3 69 -34 120 -113 120c-76 0 -119 -40 -129 -120zM222 725h128v-112h-128v112z" />
    <glyph glyph-name="Gdotaccent.ss01" horiz-adv-x="681" 
d="M503 117v155h-135v109h253v-345c-47 -27 -119 -47 -210 -47c-236 0 -361 123 -361 352c0 245 118 370 361 370c81 0 133 -13 165 -24v-115c-44 17 -106 23 -153 23c-161 0 -240 -73 -240 -245c0 -168 83 -245 238 -245c27 0 55 5 82 12zM329 898h139v-122h-139v122z" />
    <glyph glyph-name="gdotaccent.ss01" horiz-adv-x="615" 
d="M436 438v72h112v-483c0 -179 -109 -244 -270 -244c-69 0 -147 14 -188 30v107c32 -16 93 -36 174 -36c124 0 168 51 168 147v54h-2c-31 -52 -101 -85 -164 -85c-151 0 -225 86 -225 250c0 169 69 269 228 269c73 0 137 -33 165 -81h2zM295 420c-88 0 -130 -48 -130 -163
c0 -103 45 -158 129 -158c89 0 138 62 138 157c0 100 -44 164 -137 164zM238 725h128v-112h-128v112z" />
    <glyph glyph-name="Idotaccent.ss01" horiz-adv-x="280" 
d="M204 700v-700h-128v700h128zM70 898h139v-122h-139v122z" />
    <glyph glyph-name="Ldot.ss01" horiz-adv-x="529" 
d="M495 118v-118h-419v700h128v-582h291zM347 410h139v-122h-139v122z" />
    <glyph glyph-name="ldot.ss01" horiz-adv-x="402" 
d="M184 750v-750h-116v750h116zM261 388h128v-112h-128v112z" />
    <glyph glyph-name="Racute.ss01" horiz-adv-x="626" 
d="M511 220l99 -220h-140l-82 188c-40 88 -70 99 -127 99h-57v-287h-128v700h261c130 0 219 -61 219 -192c0 -93 -45 -154 -138 -175v-2c36 -13 61 -36 93 -111zM202 591v-195h107c54 0 113 24 113 100c0 64 -37 95 -104 95h-116zM483 919l-149 -149h-99l88 149h160z" />
    <glyph glyph-name="Rcommaaccent.ss01" horiz-adv-x="626" 
d="M511 220l99 -220h-140l-82 188c-40 88 -70 99 -127 99h-57v-287h-128v700h261c130 0 219 -61 219 -192c0 -93 -45 -154 -138 -175v-2c36 -13 61 -36 93 -111zM202 591v-195h107c54 0 113 24 113 100c0 64 -37 95 -104 95h-116zM258 -233v51c37 -3 72 8 75 37
c-51 -8 -93 6 -93 45c0 31 29 52 80 52c48 0 84 -25 84 -77c0 -59 -47 -113 -146 -108z" />
    <glyph glyph-name="Rcaron.ss01" horiz-adv-x="626" 
d="M511 220l99 -220h-140l-82 188c-40 88 -70 99 -127 99h-57v-287h-128v700h261c130 0 219 -61 219 -192c0 -93 -45 -154 -138 -175v-2c36 -13 61 -36 93 -111zM202 591v-195h107c54 0 113 24 113 100c0 64 -37 95 -104 95h-116zM471 907l-113 -137h-136l-114 137h107
l75 -76l74 76h107z" />
    <glyph glyph-name="Ydieresis.ss01" horiz-adv-x="620" 
d="M374 277v-277h-127v277l-245 423h148l163 -285l157 285h148zM128 898h134v-122h-134v122zM360 898h134v-122h-134v122z" />
    <glyph glyph-name="Zdotaccent.ss01" horiz-adv-x="583" 
d="M548 114v-114h-513v115l356 471h-344v114h495v-114l-355 -472h361zM236 898h139v-122h-139v122z" />
    <glyph glyph-name="zdotaccent.ss01" horiz-adv-x="484" 
d="M449 101v-101h-413v106l268 303h-259v101h399v-105l-267 -304h272zM183 725h128v-112h-128v112z" />
    <glyph glyph-name="dotaccent.ss01" horiz-adv-x="254" 
d="M63 725h128v-112h-128v112z" />
    <glyph glyph-name="afii10023.ss01" horiz-adv-x="557" 
d="M504 114v-114h-428v700h428v-114h-300v-172h268v-108h-268v-192h300zM106 898h134v-122h-134v122zM338 898h134v-122h-134v122z" />
    <glyph glyph-name="afii10056.ss01" horiz-adv-x="280" 
d="M204 700v-700h-128v700h128zM-42 898h134v-122h-134v122zM190 898h134v-122h-134v122z" />
    <glyph glyph-name="afii10071.ss01" horiz-adv-x="561" 
d="M488 124v-96c-27 -20 -90 -38 -170 -38c-191 0 -277 97 -277 269c0 159 92 261 247 261c175 0 236 -115 236 -259v-33h-362c11 -96 60 -140 169 -140c73 0 122 16 157 36zM162 305h242c3 69 -34 120 -113 120c-76 0 -119 -40 -129 -120zM124 725h123v-112h-123v112z
M333 725h123v-112h-123v112z" />
    <glyph glyph-name="afii10103.ss01" horiz-adv-x="254" 
d="M185 510v-510h-116v510h116zM63 737h128v-112h-128v112z" />
    <glyph glyph-name="afii10104.ss01" horiz-adv-x="254" 
d="M185 510v-510h-116v510h116zM-38 725h123v-112h-123v112zM171 725h123v-112h-123v112z" />
    <glyph glyph-name="afii10105.ss01" horiz-adv-x="254" 
d="M-48 -211l2 103c15 -2 28 -3 41 -3c43 0 74 16 74 99v522h116v-512c0 -134 -39 -215 -177 -215c-23 0 -41 2 -56 6zM63 737h128v-112h-128v112z" />
    <glyph glyph-name="ellipsis.ss01" horiz-adv-x="851" 
d="M224 134v-134h-142v134h142zM497 134v-134h-142v134h142zM770 134v-134h-142v134h142z" />
    <glyph glyph-name="Dotaccent.ss01" horiz-adv-x="256" 
d="M59 898h139v-122h-139v122z" />
    <glyph glyph-name="Dieresis.ss01" horiz-adv-x="717" 
d="M176 898h134v-122h-134v122zM408 898h134v-122h-134v122z" />
    <glyph glyph-name="fi.ss01" horiz-adv-x="610" 
d="M543 510v-510h-117v409h-198v-409h-117v409h-96v101h96v65c0 110 44 183 167 183c23 0 40 -2 64 -6v-99c-8 3 -24 5 -41 5c-60 0 -73 -24 -73 -108v-40h315zM420 737h128v-112h-128v112z" />
    </font>
</defs>
</svg>
