<svg width="39" height="38" viewBox="0 0 39 38" fill="none" xmlns="http://www.w3.org/2000/svg">
    <path d="M14.3701 1.16757C18.7826 -0.0458584 23.6453 0.388634 27.7425 2.44403C31.3085 4.20226 34.2757 7.13564 36.0902 10.6746C30.9483 10.7939 25.784 10.6544 20.6533 10.7669C18.7668 10.5238 16.7947 10.8525 15.1445 11.816C12.8843 13.0992 11.2769 15.4675 10.9527 18.0475C10.7321 19.4995 10.9887 20.9764 11.4682 22.3519C8.84102 17.9191 6.27909 13.4482 3.64062 9.02219C6.09449 5.20857 9.99591 2.36073 14.3701 1.16757Z" fill="#DA4C40"/>
    <path d="M0.65689 19.6274C0.542076 15.8971 1.60016 12.1465 3.63755 9.01953C6.27602 13.4455 8.83795 17.9165 11.4652 22.3492C12.4827 24.8436 14.7295 26.8112 17.3612 27.419C20.3374 28.1687 23.6782 27.1556 25.7066 24.8458C26.1658 24.4676 26.3099 23.8463 26.8187 23.5221C26.7602 23.8395 26.6409 24.292 26.2334 24.2853C23.5994 28.7698 21.0397 33.2993 18.4508 37.8063C13.7547 37.5947 9.18014 35.528 5.92032 32.1444C2.67626 28.8306 0.740186 24.2673 0.65689 19.6274Z" fill="#159F5C"/>
    <path d="M15.139 11.8174C16.7892 10.8539 18.7613 10.5252 20.6478 10.7683C20.918 10.8359 21.2174 10.7638 21.4673 10.8899C23.1017 11.4325 24.6843 12.2654 25.8099 13.6049C27.8968 15.9395 28.4912 19.4717 27.298 22.3646C27.1449 22.754 26.9018 23.1097 26.8162 23.5262C26.3075 23.8504 26.1634 24.4717 25.7041 24.8499C23.6757 27.1597 20.3349 28.1728 17.3587 27.4231C14.727 26.8153 12.4803 24.8477 11.4627 22.3533C10.9832 20.9778 10.7265 19.501 10.9472 18.0489C11.2713 15.469 12.8787 13.1006 15.139 11.8174ZM17.8653 12.5491C15.7018 13.0241 13.8333 14.6315 13.0363 16.6981C12.0525 19.1363 12.6649 22.1124 14.5469 23.9539C16.1633 25.6086 18.6577 26.3155 20.9089 25.7887C22.9283 25.3452 24.7001 23.9157 25.5645 22.0381C26.4358 20.1966 26.4088 17.9611 25.4903 16.1443C24.1665 13.3821 20.8392 11.8174 17.8653 12.5491Z" fill="#F1F1F1"/>
    <path d="M21.4682 10.8912C21.61 10.8619 21.8914 10.8034 22.0332 10.7719C26.7068 10.6931 31.3917 10.8416 36.063 10.6953C37.4408 13.255 38.1522 16.2379 38.0644 19.1668C38.1702 22.4288 37.2449 25.6797 35.6173 28.496C33.2129 32.6653 29.1404 35.8441 24.4983 37.125C22.5397 37.7104 20.4821 37.8634 18.4492 37.8117C21.0382 33.3047 23.5978 28.7751 26.2318 24.2906C26.6393 24.2974 26.7586 23.8449 26.8171 23.5275C26.9027 23.111 27.1458 22.7553 27.2989 22.3658C28.4921 19.4729 27.8977 15.9407 25.8108 13.6062C24.6852 12.2667 23.1026 11.4337 21.4682 10.8912Z" fill="#FECB40"/>
    <path d="M17.868 12.5467C20.8419 11.8151 24.1692 13.3797 25.493 16.142C26.4115 17.9588 26.4385 20.1943 25.5673 22.0358C24.7028 23.9133 22.931 25.3429 20.9117 25.7864C18.6604 26.3132 16.166 25.6063 14.5496 23.9516C12.6676 22.1101 12.0552 19.1339 13.039 16.6958C13.836 14.6292 15.7045 13.0218 17.868 12.5467Z" fill="#4788F4"/>
</svg>
