<svg width="39" height="40" viewBox="0 0 39 40" fill="none" xmlns="http://www.w3.org/2000/svg">
    <path d="M37.2497 13.3925C36.409 11.3697 34.7037 9.18558 33.3683 8.49516C34.3208 10.3398 34.9818 12.3209 35.3277 14.368L35.3312 14.4004C33.1436 8.94646 29.4339 6.7474 26.4042 1.95889C26.2509 1.71677 26.0977 1.47415 25.9484 1.21805C25.863 1.07178 25.7946 0.939986 25.7352 0.818676C25.6096 0.575334 25.5127 0.318162 25.4467 0.0523753C25.4468 0.0401106 25.4423 0.0282424 25.4342 0.0190349C25.4261 0.00982739 25.4149 0.00392489 25.4027 0.00245341C25.3908 -0.000817804 25.3782 -0.000817804 25.3663 0.00245341C25.3638 0.00245341 25.3598 0.00694638 25.3568 0.00794482C25.3538 0.00894325 25.3473 0.0134362 25.3428 0.0154331L25.3503 0.00245341C20.4904 2.848 18.8415 8.11576 18.6897 10.7506C16.7489 10.884 14.8934 11.5992 13.3651 12.8029C13.2056 12.6679 13.039 12.5415 12.8659 12.4245C12.425 10.8814 12.4062 9.24826 12.8114 7.69541C11.0267 8.56002 9.44086 9.78566 8.15424 11.2948H8.14525C7.37845 10.3228 7.43237 7.11782 7.4763 6.44837C7.24945 6.53953 7.03291 6.6545 6.83031 6.79133C6.15339 7.27445 5.52058 7.81656 4.93927 8.41129C4.27686 9.0829 3.67185 9.80881 3.1306 10.5814V10.5844V10.5809C1.88667 12.3444 1.00438 14.3369 0.534663 16.4432L0.508704 16.571C0.472261 16.7413 0.340966 17.5939 0.318502 17.7791C0.318502 17.7936 0.315506 17.8071 0.314009 17.8216C0.144643 18.7019 0.0396947 19.5933 0 20.4889V20.5887C0.00424192 25.4333 1.82566 30.1 5.10427 33.6666C8.38288 37.2332 12.8801 39.4401 17.7072 39.8512C22.5343 40.2623 27.34 38.8477 31.1745 35.8869C35.0091 32.9262 37.5934 28.6347 38.4169 23.8606C38.4493 23.611 38.4758 23.3639 38.5047 23.1118C38.9032 19.8181 38.4718 16.477 37.2497 13.3925V13.3925ZM14.9496 28.5378C15.04 28.5812 15.1248 28.6282 15.2177 28.6696L15.2312 28.6781C15.1373 28.6331 15.0435 28.5864 14.9496 28.5378V28.5378ZM35.3327 14.4049V14.3864L35.3362 14.4069L35.3327 14.4049Z" fill="url(#paint0_linear)"/>
    <path d="M37.2497 13.3895C36.409 11.3667 34.7037 9.18261 33.3683 8.49219C34.3208 10.3369 34.9818 12.318 35.3277 14.365V14.3835L35.3312 14.4039C36.8225 18.6715 36.6068 23.3503 34.7291 27.4625C32.5116 32.2206 27.144 37.0974 18.7422 36.8603C9.66388 36.6032 1.66889 29.8667 0.174227 21.0435C-0.0978469 19.6522 0.174227 18.9468 0.311013 17.8161C0.124419 18.6944 0.0202954 19.5882 0 20.4859V20.5858C0.00424192 25.4303 1.82566 30.097 5.10427 33.6636C8.38288 37.2302 12.8801 39.4371 17.7072 39.8482C22.5343 40.2594 27.34 38.8447 31.1745 35.884C35.0091 32.9232 37.5934 28.6317 38.4169 23.8576C38.4493 23.608 38.4758 23.3609 38.5047 23.1088C38.9032 19.8151 38.4718 16.474 37.2497 13.3895V13.3895Z" fill="url(#paint1_radial)"/>
    <path d="M37.2497 13.3895C36.409 11.3667 34.7037 9.18261 33.3683 8.49219C34.3208 10.3369 34.9818 12.318 35.3277 14.365V14.3835L35.3312 14.4039C36.8225 18.6715 36.6068 23.3503 34.7291 27.4625C32.5116 32.2206 27.144 37.0974 18.7422 36.8603C9.66388 36.6032 1.66889 29.8667 0.174227 21.0435C-0.0978469 19.6522 0.174227 18.9468 0.311013 17.8161C0.124419 18.6944 0.0202954 19.5882 0 20.4859V20.5858C0.00424192 25.4303 1.82566 30.097 5.10427 33.6636C8.38288 37.2302 12.8801 39.4371 17.7072 39.8482C22.5343 40.2594 27.34 38.8447 31.1745 35.884C35.0091 32.9232 37.5934 28.6317 38.4169 23.8576C38.4493 23.608 38.4758 23.3609 38.5047 23.1088C38.9032 19.8151 38.4718 16.474 37.2497 13.3895V13.3895Z" fill="url(#paint2_radial)"/>
    <path d="M27.8491 15.6684C27.891 15.6978 27.9299 15.7273 27.9694 15.7568C27.4834 14.8949 26.8784 14.1059 26.1722 13.4129C20.1586 7.39833 24.5962 0.37183 25.3445 0.0148891L25.352 0.00390625C20.4921 2.84945 18.8432 8.11721 18.6914 10.7521C18.9171 10.7366 19.1407 10.7176 19.3713 10.7176C21.0957 10.7208 22.7885 11.1805 24.2776 12.0501C25.7667 12.9197 26.999 14.1681 27.8491 15.6684V15.6684Z" fill="url(#paint3_radial)"/>
    <path d="M19.382 16.8667C19.3501 17.348 17.6497 19.0079 17.0551 19.0079C11.5533 19.0079 10.6602 22.3362 10.6602 22.3362C10.9038 25.1388 12.8567 27.4472 15.2175 28.6682C15.3254 28.7242 15.4347 28.7746 15.544 28.824C15.7334 28.9079 15.9228 28.9854 16.1121 29.0566C16.9223 29.3434 17.7709 29.5071 18.6297 29.5424C28.2731 29.9947 30.1412 18.0104 23.1821 14.5329C24.8238 14.3193 26.4863 14.7229 27.8473 15.6656C26.9971 14.1653 25.7649 12.9169 24.2758 12.0473C22.7867 11.1777 21.0939 10.718 19.3695 10.7148C19.1399 10.7148 18.9152 10.7338 18.6896 10.7493C16.7488 10.8827 14.8932 11.5979 13.3649 12.8016C13.66 13.0512 13.9929 13.3847 14.6943 14.0761C16.0073 15.3696 19.3745 16.7095 19.382 16.8667V16.8667Z" fill="url(#paint4_radial)"/>
    <path d="M19.382 16.8667C19.3501 17.348 17.6497 19.0079 17.0551 19.0079C11.5533 19.0079 10.6602 22.3362 10.6602 22.3362C10.9038 25.1388 12.8567 27.4472 15.2175 28.6682C15.3254 28.7242 15.4347 28.7746 15.544 28.824C15.7334 28.9079 15.9228 28.9854 16.1121 29.0566C16.9223 29.3434 17.7709 29.5071 18.6297 29.5424C28.2731 29.9947 30.1412 18.0104 23.1821 14.5329C24.8238 14.3193 26.4863 14.7229 27.8473 15.6656C26.9971 14.1653 25.7649 12.9169 24.2758 12.0473C22.7867 11.1777 21.0939 10.718 19.3695 10.7148C19.1399 10.7148 18.9152 10.7338 18.6896 10.7493C16.7488 10.8827 14.8932 11.5979 13.3649 12.8016C13.66 13.0512 13.9929 13.3847 14.6943 14.0761C16.0073 15.3696 19.3745 16.7095 19.382 16.8667V16.8667Z" fill="url(#paint5_radial)"/>
    <path d="M12.4646 12.1593C12.6214 12.2592 12.7506 12.346 12.864 12.4244C12.4231 10.8813 12.4043 9.24816 12.8096 7.69531C11.0248 8.55992 9.43897 9.78556 8.15234 11.2947C8.2467 11.2922 11.0533 11.2418 12.4646 12.1593V12.1593Z" fill="url(#paint6_radial)"/>
    <path d="M0.175893 21.0463C1.66906 29.8695 9.66554 36.6059 18.7438 36.863C27.1457 37.1007 32.5133 32.2233 34.7308 27.4652C36.6085 23.353 36.8242 18.6742 35.3329 14.4067V14.3882C35.3329 14.3737 35.3299 14.3652 35.3329 14.3697L35.3364 14.4022C36.0228 18.8837 33.7434 23.2254 30.1799 26.1613L30.169 26.1862C23.2258 31.8409 16.5812 29.5979 15.2363 28.6823C15.1425 28.6374 15.0486 28.5906 14.9548 28.5421C10.9066 26.6071 9.23422 22.9189 9.59266 19.7558C8.63171 19.77 7.68728 19.5052 6.87378 18.9935C6.06029 18.4818 5.41265 17.7451 5.00933 16.8728C6.07197 16.2218 7.28363 15.8538 8.52883 15.8038C9.77403 15.7538 11.0113 16.0235 12.1227 16.5873C14.414 17.6275 17.0214 17.73 19.3873 16.8728C19.3798 16.7156 16.0126 15.3752 14.6997 14.0822C13.9983 13.3908 13.6653 13.0578 13.3702 12.8077C13.2108 12.6726 13.0441 12.5463 12.871 12.4293C12.7562 12.3509 12.6269 12.266 12.4716 12.1642C11.0604 11.2466 8.25375 11.297 8.1609 11.2995H8.15191C7.38511 10.3276 7.43903 7.12258 7.48296 6.45312C7.25611 6.54429 7.03957 6.65926 6.83697 6.79609C6.16005 7.27921 5.52723 7.82132 4.94593 8.41605C4.28114 9.08577 3.67363 9.81001 3.12977 10.5812V10.5842V10.5807C1.88584 12.3442 1.00355 14.3366 0.533833 16.443C0.524348 16.4824 -0.163076 19.4877 0.175893 21.0463V21.0463Z" fill="url(#paint7_radial)"/>
    <path d="M26.173 13.4115C26.8794 14.1052 27.4844 14.8951 27.9702 15.7578C28.0766 15.8382 28.1759 15.918 28.2603 15.9954C32.6469 20.0391 30.3485 25.7551 30.1773 26.162C33.7407 23.2261 36.0181 18.8844 35.3337 14.4029C33.1451 8.94646 29.4354 6.7474 26.4057 1.95889C26.2524 1.71677 26.0992 1.47415 25.9499 1.21805C25.8645 1.07178 25.7961 0.939986 25.7367 0.818676C25.6111 0.575334 25.5142 0.318162 25.4482 0.0523753C25.4483 0.0401106 25.4438 0.0282424 25.4357 0.0190349C25.4276 0.00982739 25.4164 0.00392489 25.4042 0.00245341C25.3923 -0.000817804 25.3797 -0.000817804 25.3678 0.00245341C25.3653 0.00245341 25.3613 0.00694638 25.3583 0.00794482C25.3553 0.00894325 25.3488 0.0134362 25.3443 0.0154331C24.596 0.370378 20.1585 7.39688 26.173 13.4115V13.4115Z" fill="url(#paint8_radial)"/>
    <path d="M28.2549 15.995C28.1706 15.9177 28.0712 15.8378 27.9649 15.7574C27.9255 15.728 27.8865 15.6985 27.8446 15.669C26.4836 14.7264 24.8211 14.3227 23.1794 14.5363C30.1385 18.0159 28.2714 29.9981 18.627 29.5458C17.7683 29.5106 16.9197 29.3468 16.1094 29.0601C15.9201 28.9892 15.7307 28.9117 15.5413 28.8275C15.432 28.7775 15.3227 28.7276 15.2148 28.6717L15.2283 28.6802C16.5732 29.5982 23.2158 31.8412 30.161 26.1841L30.1719 26.1591C30.3452 25.7548 32.6436 20.0372 28.2549 15.995V15.995Z" fill="url(#paint9_radial)"/>
    <path d="M10.6601 22.3373C10.6601 22.3373 11.5532 19.009 17.055 19.009C17.6496 19.009 19.3515 17.3491 19.3819 16.8679C17.016 17.725 14.4086 17.6225 12.1173 16.5823C11.0059 16.0186 9.76861 15.7489 8.52341 15.7988C7.27821 15.8488 6.06655 16.2169 5.00391 16.8679C5.40722 17.7402 6.05486 18.4768 6.86836 18.9885C7.68186 19.5002 8.62629 19.765 9.58723 19.7509C9.22879 22.9144 10.9012 26.6026 14.9493 28.5371C15.0397 28.5805 15.1246 28.6275 15.2174 28.6689C12.8546 27.4483 10.9037 25.1399 10.6601 22.3373Z" fill="url(#paint10_radial)"/>
    <path d="M37.2497 13.3925C36.409 11.3697 34.7037 9.18558 33.3683 8.49516C34.3208 10.3398 34.9818 12.3209 35.3277 14.368L35.3312 14.4004C33.1436 8.94646 29.4339 6.7474 26.4042 1.95889C26.2509 1.71677 26.0977 1.47415 25.9484 1.21805C25.863 1.07178 25.7946 0.939986 25.7352 0.818676C25.6096 0.575334 25.5127 0.318162 25.4467 0.0523753C25.4468 0.0401106 25.4423 0.0282424 25.4342 0.0190349C25.4261 0.00982739 25.4149 0.00392489 25.4027 0.00245341C25.3908 -0.000817804 25.3782 -0.000817804 25.3663 0.00245341C25.3638 0.00245341 25.3598 0.00694638 25.3568 0.00794482C25.3538 0.00894325 25.3473 0.0134362 25.3428 0.0154331L25.3503 0.00245341C20.4904 2.848 18.8415 8.11576 18.6897 10.7506C18.9154 10.7352 19.139 10.7162 19.3697 10.7162C21.0941 10.7193 22.7869 11.1791 24.276 12.0487C25.765 12.9183 26.9973 14.1667 27.8474 15.6669C26.4865 14.7243 24.8239 14.3206 23.1822 14.5342C30.1413 18.0138 28.2743 29.996 18.6298 29.5437C17.7711 29.5085 16.9225 29.3447 16.1123 29.058C15.9229 28.9871 15.7335 28.9095 15.5442 28.8253C15.4348 28.7754 15.3255 28.7255 15.2177 28.6696L15.2312 28.6781C15.1373 28.6331 15.0435 28.5864 14.9496 28.5378C15.04 28.5812 15.1248 28.6282 15.2177 28.6696C12.8549 27.4485 10.9039 25.1401 10.6603 22.3375C10.6603 22.3375 11.5534 19.0092 17.0553 19.0092C17.6499 19.0092 19.3517 17.3493 19.3822 16.8681C19.3747 16.7108 16.0074 15.3704 14.6945 14.0774C13.9931 13.386 13.6601 13.053 13.3651 12.8029C13.2056 12.6679 13.039 12.5415 12.8659 12.4245C12.425 10.8814 12.4062 9.24826 12.8114 7.69541C11.0267 8.56002 9.44086 9.78566 8.15424 11.2948H8.14525C7.37845 10.3228 7.43237 7.11782 7.4763 6.44837C7.24945 6.53953 7.03291 6.6545 6.83031 6.79133C6.15339 7.27445 5.52058 7.81656 4.93927 8.41129C4.27686 9.0829 3.67185 9.80881 3.1306 10.5814V10.5844V10.5809C1.88667 12.3444 1.00438 14.3369 0.534663 16.4432L0.508704 16.571C0.472261 16.7413 0.309016 17.6059 0.285553 17.7916C0.285553 17.8056 0.285553 17.7771 0.285553 17.7916C0.136242 18.6841 0.0408846 19.5849 0 20.4889V20.5887C0.00424192 25.4333 1.82566 30.1 5.10427 33.6666C8.38288 37.2332 12.8801 39.4401 17.7072 39.8512C22.5343 40.2623 27.34 38.8477 31.1745 35.8869C35.0091 32.9262 37.5934 28.6347 38.4169 23.8606C38.4493 23.611 38.4758 23.3639 38.5047 23.1118C38.9032 19.8181 38.4718 16.477 37.2497 13.3925V13.3925ZM35.3302 14.3864L35.3337 14.4069L35.3302 14.3864Z" fill="url(#paint11_linear)"/>
    <defs>
        <linearGradient id="paint0_linear" x1="34.6887" y1="6.18478" x2="2.56948" y2="37.1738" gradientUnits="userSpaceOnUse">
            <stop offset="0.048" stop-color="#FFF44F"/>
            <stop offset="0.111" stop-color="#FFE847"/>
            <stop offset="0.225" stop-color="#FFC830"/>
            <stop offset="0.368" stop-color="#FF980E"/>
            <stop offset="0.401" stop-color="#FF8B16"/>
            <stop offset="0.462" stop-color="#FF672A"/>
            <stop offset="0.534" stop-color="#FF3647"/>
            <stop offset="0.705" stop-color="#E31587"/>
        </linearGradient>
        <radialGradient id="paint1_radial" cx="0" cy="0" r="1" gradientUnits="userSpaceOnUse" gradientTransform="translate(33.2045 4.42749) scale(40.3354)">
            <stop offset="0.129" stop-color="#FFBD4F"/>
            <stop offset="0.186" stop-color="#FFAC31"/>
            <stop offset="0.247" stop-color="#FF9D17"/>
            <stop offset="0.283" stop-color="#FF980E"/>
            <stop offset="0.403" stop-color="#FF563B"/>
            <stop offset="0.467" stop-color="#FF3750"/>
            <stop offset="0.71" stop-color="#F5156C"/>
            <stop offset="0.782" stop-color="#EB0878"/>
            <stop offset="0.86" stop-color="#E50080"/>
        </radialGradient>
        <radialGradient id="paint2_radial" cx="0" cy="0" r="1" gradientUnits="userSpaceOnUse" gradientTransform="translate(18.4657 20.9178) scale(40.3354)">
            <stop offset="0.3" stop-color="#960E18"/>
            <stop offset="0.351" stop-color="#B11927" stop-opacity="0.74"/>
            <stop offset="0.435" stop-color="#DB293D" stop-opacity="0.343"/>
            <stop offset="0.497" stop-color="#F5334B" stop-opacity="0.094"/>
            <stop offset="0.53" stop-color="#FF3750" stop-opacity="0"/>
        </radialGradient>
        <radialGradient id="paint3_radial" cx="0" cy="0" r="1" gradientUnits="userSpaceOnUse" gradientTransform="translate(23.33 -4.72171) scale(29.2213)">
            <stop offset="0.132" stop-color="#FFF44F"/>
            <stop offset="0.252" stop-color="#FFDC3E"/>
            <stop offset="0.506" stop-color="#FF9D12"/>
            <stop offset="0.526" stop-color="#FF980E"/>
        </radialGradient>
        <radialGradient id="paint4_radial" cx="0" cy="0" r="1" gradientUnits="userSpaceOnUse" gradientTransform="translate(14.004 31.4552) scale(19.2054)">
            <stop offset="0.353" stop-color="#3A8EE6"/>
            <stop offset="0.472" stop-color="#5C79F0"/>
            <stop offset="0.669" stop-color="#9059FF"/>
            <stop offset="1" stop-color="#C139E6"/>
        </radialGradient>
        <radialGradient id="paint5_radial" cx="0" cy="0" r="1" gradientUnits="userSpaceOnUse" gradientTransform="translate(20.6696 17.6138) rotate(-13.5916) scale(10.1826 11.9213)">
            <stop offset="0.206" stop-color="#9059FF" stop-opacity="0"/>
            <stop offset="0.278" stop-color="#8C4FF3" stop-opacity="0.064"/>
            <stop offset="0.747" stop-color="#7716A8" stop-opacity="0.45"/>
            <stop offset="0.975" stop-color="#6E008B" stop-opacity="0.6"/>
        </radialGradient>
        <radialGradient id="paint6_radial" cx="0" cy="0" r="1" gradientUnits="userSpaceOnUse" gradientTransform="translate(17.958 2.7801) scale(13.8164)">
            <stop stop-color="#FFE226"/>
            <stop offset="0.121" stop-color="#FFDB27"/>
            <stop offset="0.295" stop-color="#FFC82A"/>
            <stop offset="0.502" stop-color="#FFA930"/>
            <stop offset="0.732" stop-color="#FF7E37"/>
            <stop offset="0.792" stop-color="#FF7139"/>
        </radialGradient>
        <radialGradient id="paint7_radial" cx="0" cy="0" r="1" gradientUnits="userSpaceOnUse" gradientTransform="translate(28.8155 -5.98362) scale(58.9482)">
            <stop offset="0.113" stop-color="#FFF44F"/>
            <stop offset="0.456" stop-color="#FF980E"/>
            <stop offset="0.622" stop-color="#FF5634"/>
            <stop offset="0.716" stop-color="#FF3647"/>
            <stop offset="0.904" stop-color="#E31587"/>
        </radialGradient>
        <radialGradient id="paint8_radial" cx="0" cy="0" r="1" gradientUnits="userSpaceOnUse" gradientTransform="translate(23.8496 -2.70555) rotate(83.976) scale(43.2046 28.3548)">
            <stop stop-color="#FFF44F"/>
            <stop offset="0.06" stop-color="#FFE847"/>
            <stop offset="0.168" stop-color="#FFC830"/>
            <stop offset="0.304" stop-color="#FF980E"/>
            <stop offset="0.356" stop-color="#FF8B16"/>
            <stop offset="0.455" stop-color="#FF672A"/>
            <stop offset="0.57" stop-color="#FF3647"/>
            <stop offset="0.737" stop-color="#E31587"/>
        </radialGradient>
        <radialGradient id="paint9_radial" cx="0" cy="0" r="1" gradientUnits="userSpaceOnUse" gradientTransform="translate(17.6302 7.8998) scale(36.8024)">
            <stop offset="0.137" stop-color="#FFF44F"/>
            <stop offset="0.48" stop-color="#FF980E"/>
            <stop offset="0.592" stop-color="#FF5634"/>
            <stop offset="0.655" stop-color="#FF3647"/>
            <stop offset="0.904" stop-color="#E31587"/>
        </radialGradient>
        <radialGradient id="paint10_radial" cx="0" cy="0" r="1" gradientUnits="userSpaceOnUse" gradientTransform="translate(27.3455 10.0514) scale(40.28)">
            <stop offset="0.094" stop-color="#FFF44F"/>
            <stop offset="0.231" stop-color="#FFE141"/>
            <stop offset="0.509" stop-color="#FFAF1E"/>
            <stop offset="0.626" stop-color="#FF980E"/>
        </radialGradient>
        <linearGradient id="paint11_linear" x1="34.3028" y1="6.01904" x2="6.97259" y2="33.3488" gradientUnits="userSpaceOnUse">
            <stop offset="0.167" stop-color="#FFF44F" stop-opacity="0.8"/>
            <stop offset="0.266" stop-color="#FFF44F" stop-opacity="0.634"/>
            <stop offset="0.489" stop-color="#FFF44F" stop-opacity="0.217"/>
            <stop offset="0.6" stop-color="#FFF44F" stop-opacity="0"/>
        </linearGradient>
    </defs>
</svg>
