<?xml version="1.0" standalone="no"?>
<!DOCTYPE svg PUBLIC "-//W3C//DTD SVG 1.1//EN" "http://www.w3.org/Graphics/SVG/1.1/DTD/svg11.dtd" >
<svg xmlns="http://www.w3.org/2000/svg" xmlns:xlink="http://www.w3.org/1999/xlink" version="1.1">
<metadata>
Created by FontForge 20190801 at Sun Nov  4 03:24:11 2018
 By Jimmy Wärting
Fact is a workhorse open sans serif type system. It is inspired by the great Frutiger typeface. While the Regular style is slightly modernized but still quite close to Frutiger, changing the weight or width makes differences of the design more pronounced. The style range of Fact is wider than of any cognate type family, including weights from Thin to Black and widths from Compressed to Expanded. Fact type system contains 48 upright styles with variations in width and weight and 8 italics of normal width. The font was designed by Alexandra Korolkova and Manvel Shmavonyan and released by Paratype in 2018.
</metadata>
<defs>
<font id="Fact-Bold" horiz-adv-x="405" >
  <font-face 
    font-family="Fact Bold"
    font-weight="700"
    font-stretch="normal"
    units-per-em="1000"
    panose-1="2 11 7 3 4 5 4 2 2 4"
    ascent="702"
    descent="-298"
    x-height="510"
    cap-height="700"
    bbox="-439 -265 1248 1006"
    underline-thickness="50"
    underline-position="-100"
    unicode-range="U+000D-FEFF"
  />
<missing-glyph horiz-adv-x="500" 
d="M58 8h384v496h-384v-496zM50 0v512h400v-512h-400z" />
    <glyph glyph-name="afii10017.var.accented" unicode="&#x410;`" horiz-adv-x="694" 
d="M521 0l-45 146h-262l-45 -146h-163l232 700h222l229 -700h-168zM345 574l-87 -285h174zM568 928l-169 -158h-118l94 158h193z" />
    <glyph glyph-name="afii10022.var.accented" unicode="&#x415;`" horiz-adv-x="568" 
d="M526 144v-144h-463v700h463v-144h-298v-133h260v-133h-260v-146h298zM506 928l-169 -158h-118l94 158h193z" />
    <glyph glyph-name="afii10026.var.accented" unicode="&#x418;`" horiz-adv-x="733" 
d="M671 700v-700h-165v469l-268 -469h-175v700h165v-468l268 468h175zM589 928l-169 -158h-118l94 158h193z" />
    <glyph glyph-name="afii10032.var.accented" unicode="&#x41e;`" horiz-adv-x="768" 
d="M390 132c109 0 163 69 163 218s-55 219 -172 219c-108 0 -166 -72 -166 -219c0 -148 63 -218 175 -218zM386 -13c-224 0 -346 126 -346 363c0 236 129 363 341 363c236 0 347 -137 347 -363c0 -251 -131 -363 -342 -363zM608 928l-169 -158h-118l94 158h193z" />
    <glyph glyph-name="afii10037.var.accented" unicode="&#x423;`" horiz-adv-x="654" 
d="M127 8l2 138c15 -7 32 -12 56 -12c43 0 65 17 78 49c1 1 3 6 4 9l-265 508h192l164 -349l124 349h171l-219 -540c-49 -120 -111 -170 -216 -170c-33 0 -63 6 -91 18zM550 928l-169 -158h-118l94 158h193z" />
    <glyph glyph-name="afii10045.var.accented" unicode="&#x42b;`" horiz-adv-x="873" 
d="M228 336v-192h52c97 0 125 40 125 100c0 65 -30 92 -125 92h-52zM292 0h-229v700h165v-220h77c179 0 270 -72 270 -235c0 -151 -94 -245 -283 -245zM811 700v-700h-165v700h165zM660 928l-169 -158h-118l94 158h193z" />
    <glyph glyph-name="afii10047.var.accented" unicode="&#x42d;`" horiz-adv-x="636" 
d="M152 295v123h266c-5 104 -77 151 -202 151c-65 0 -122 -12 -173 -35v147c56 23 130 32 203 32c259 0 351 -149 351 -358c0 -213 -109 -368 -380 -368c-75 0 -133 11 -174 30v146c52 -23 113 -31 164 -31c137 0 208 54 212 163h-267zM487 928l-169 -158h-118l94 158h193z
" />
    <glyph glyph-name="afii10048.var.accented" unicode="&#x42e;`" horiz-adv-x="1023" 
d="M650 -13c-191 0 -309 105 -324 298h-98v-285h-165v700h165v-268h100c19 181 150 281 317 281c232 0 339 -130 339 -363c0 -249 -126 -363 -334 -363zM654 132c107 0 155 69 155 218c0 155 -50 219 -161 219c-99 0 -161 -75 -161 -219c0 -147 60 -218 167 -218zM614 928
l-169 -158h-118l94 158h193z" />
    <glyph glyph-name="afii10049.var.accented" unicode="&#x42f;`" horiz-adv-x="652" 
d="M337 226h-12l-129 -226h-178l156 261c-72 37 -124 103 -124 204c0 161 103 235 284 235h256v-700h-165v226h-88zM345 360h83v196h-94c-72 0 -114 -30 -114 -98c0 -65 49 -98 125 -98zM579 928l-169 -158h-118l94 158h193z" />
    <glyph glyph-name="afii10023.var.accented" unicode="&#x401;`" horiz-adv-x="568" 
d="M526 144v-144h-463v700h463v-144h-298v-133h260v-133h-260v-146h298zM414 925l-119 -162h-94l67 162h146zM539 836c0 -41 -24 -69 -73 -69c-52 0 -76 28 -76 69c0 43 24 70 75 70s74 -27 74 -70zM199 836c0 -41 -25 -69 -77 -69c-47 0 -73 28 -73 69c0 43 26 70 73 70
c52 0 77 -27 77 -70z" />
    <glyph glyph-name="afii10065.var.accented" unicode="&#x430;`" horiz-adv-x="560" 
d="M359 192v25c-19 3 -37 6 -76 6c-77 0 -101 -22 -101 -57s23 -61 79 -61c67 0 98 34 98 87zM508 310v-310h-139v73h-2c-21 -40 -71 -82 -161 -82c-109 0 -176 58 -176 158c0 108 73 157 232 157c44 0 80 -5 97 -8v23c0 52 -26 77 -109 77c-64 0 -131 -19 -171 -39v124
c43 19 113 39 197 39c165 0 232 -57 232 -212zM502 740l-156 -147h-113l89 147h180z" />
    <glyph glyph-name="afii10070.var.accented" unicode="&#x435;`" horiz-adv-x="574" 
d="M511 145v-114c-27 -21 -101 -43 -189 -43c-203 0 -289 97 -289 274c0 161 96 260 263 260c186 0 249 -117 249 -261v-39h-359c11 -80 57 -115 154 -115c76 0 136 17 171 38zM186 307h209c1 59 -29 101 -97 101c-65 0 -103 -34 -112 -101zM503 740l-156 -147h-113l89 147
h180z" />
    <glyph glyph-name="afii10074.var.accented" unicode="&#x438;`" horiz-adv-x="608" 
d="M198 0h-143v510h149v-251l-3 -72h1l35 59l173 264h143v-510h-149v256l4 67h-2l-35 -59zM523 740l-156 -147h-113l89 147h180z" />
    <glyph glyph-name="afii10080.var.accented" unicode="&#x43e;`" horiz-adv-x="611" 
d="M306 110c79 0 118 45 118 145c0 103 -38 146 -118 146c-76 0 -118 -45 -118 -146c0 -100 46 -145 118 -145zM306 -12c-175 0 -273 84 -273 267c0 175 104 267 273 267c173 0 273 -87 273 -267c0 -175 -98 -267 -273 -267zM525 740l-156 -147h-113l89 147h180z" />
    <glyph glyph-name="afii10085.var.accented" unicode="&#x443;`" horiz-adv-x="542" 
d="M73 -207l3 123c16 -6 32 -9 49 -9c51 0 73 23 88 70l5 15l-213 518h165l121 -345l94 345h152l-171 -505c-54 -156 -100 -224 -218 -224c-27 0 -54 4 -75 12zM490 740l-156 -147h-113l89 147h180z" />
    <glyph glyph-name="afii10093.var.accented" unicode="&#x44b;`" horiz-adv-x="747" 
d="M204 250v-137h55c60 0 83 27 83 71s-29 66 -88 66h-50zM281 0h-226v510h149v-147h66c160 0 224 -69 224 -181c0 -102 -75 -182 -213 -182zM693 510v-510h-149v510h149zM591 740l-156 -147h-113l89 147h180z" />
    <glyph glyph-name="afii10095.var.accented" unicode="&#x44d;`" horiz-adv-x="522" 
d="M33 15v122c29 -11 81 -27 153 -27c91 0 143 27 151 102h-218v97h216c-12 68 -62 92 -151 92c-68 0 -112 -14 -147 -27v119c28 12 86 29 169 29c201 0 284 -99 284 -256c0 -169 -85 -278 -289 -278c-88 0 -140 18 -168 27zM441 740l-156 -147h-113l89 147h180z" />
    <glyph glyph-name="afii10096.var.accented" unicode="&#x44e;`" horiz-adv-x="830" 
d="M535 -12c-149 0 -238 75 -254 207h-77v-195h-149v510h149v-189h77c17 124 107 201 248 201c175 0 269 -87 269 -267c0 -175 -92 -267 -263 -267zM528 110c77 0 115 44 115 145c0 103 -35 146 -115 146c-72 0 -112 -45 -112 -146c0 -100 45 -145 112 -145zM559 740
l-156 -147h-113l89 147h180z" />
    <glyph glyph-name="afii10097.var.accented" unicode="&#x44f;`" horiz-adv-x="563" 
d="M360 157h-83l-91 -157h-163l114 181c-59 27 -95 75 -95 152c0 117 87 177 219 177h248v-510h-149v157zM289 267h72v122h-76c-63 0 -86 -19 -86 -62s29 -60 90 -60zM512 740l-156 -147h-113l89 147h180z" />
    <glyph glyph-name="afii10071.var.accented" unicode="&#x451;`" horiz-adv-x="574" 
d="M511 145v-114c-27 -21 -101 -43 -189 -43c-203 0 -289 97 -289 274c0 161 96 260 263 260c186 0 249 -117 249 -261v-39h-359c11 -80 57 -115 154 -115c76 0 136 17 171 38zM186 307h209c1 59 -29 101 -97 101c-65 0 -103 -34 -112 -101zM416 743l-116 -158h-90l65 158
h141zM539 657c0 -40 -24 -67 -71 -67c-51 0 -75 27 -75 67s23 67 74 67c48 0 72 -26 72 -67zM208 657c0 -40 -24 -67 -75 -67c-45 0 -71 27 -71 67s26 67 71 67c51 0 75 -26 75 -67z" />
    <glyph glyph-name="fi" unicode="fi" horiz-adv-x="629" 
d="M573 510v-510h-149v384h-171v-384h-149v384h-91v126h91v61c0 115 54 187 182 187c24 0 42 -2 65 -5v-123c-7 1 -21 3 -33 3c-54 0 -65 -26 -65 -94v-29h320zM588 672c0 -51 -30 -78 -90 -78c-57 0 -89 29 -89 78c0 48 32 76 89 76c60 0 90 -25 90 -76z" />
    <glyph glyph-name="fl" unicode="fl" horiz-adv-x="629" 
d="M359 510v-126h-106v-384h-149v384h-91v126h91v48c0 131 79 200 216 200c40 0 70 -4 105 -8h149v-750h-149v627c-17 3 -38 7 -67 7c-65 0 -105 -22 -105 -103v-21h106z" />
    <glyph glyph-name=".notdef" horiz-adv-x="500" 
d="M58 8h384v496h-384v-496zM50 0v512h400v-512h-400z" />
    <glyph glyph-name=".null" horiz-adv-x="0" 
 />
    <glyph glyph-name=".null" horiz-adv-x="0" 
 />
    <glyph glyph-name="CR" unicode="&#xd;" horiz-adv-x="233" 
 />
    <glyph glyph-name="space" unicode=" " horiz-adv-x="233" 
 />
    <glyph glyph-name="exclam" unicode="!" horiz-adv-x="364" 
d="M280 77c0 -56 -34 -89 -98 -89c-60 0 -97 34 -97 89c0 57 33 90 97 90c60 0 98 -35 98 -90zM275 700l-26 -455h-133l-26 455h185z" />
    <glyph glyph-name="quotedbl" unicode="&#x22;" horiz-adv-x="447" 
d="M382 700l-13 -272h-104l-13 272h130zM195 700l-13 -272h-104l-13 272h130z" />
    <glyph glyph-name="numbersign" unicode="#" horiz-adv-x="648" 
d="M75 511h98l27 189h120l-27 -189h107l27 189h120l-27 -189h84v-106h-99l-15 -110h84v-105h-99l-26 -190h-119l26 190h-108l-26 -190h-119l26 190h-84v105h99l15 110h-84v106zM278 405l-15 -110h108l15 110h-108z" />
    <glyph glyph-name="dollar" unicode="$" horiz-adv-x="562" 
d="M59 29v142c31 -20 103 -45 184 -45c77 0 106 28 106 75c0 54 -31 67 -109 94l-25 8c-120 40 -163 100 -163 211c0 105 67 173 182 193v104h94v-98c64 -3 115 -16 151 -31v-138c-52 21 -121 30 -173 30c-65 0 -97 -22 -97 -65c0 -45 32 -61 132 -96l27 -10
c120 -43 150 -110 150 -202c0 -117 -69 -187 -190 -207v-105h-94v99c-68 3 -128 17 -175 41z" />
    <glyph glyph-name="percent" unicode="%" horiz-adv-x="875" 
d="M655 74c51 0 68 34 68 103s-16 104 -68 104c-48 0 -66 -35 -66 -104s19 -103 66 -103zM655 -13c-84 0 -182 35 -182 190c0 153 99 190 182 190c85 0 183 -35 183 -190c0 -152 -100 -190 -183 -190zM220 420c51 0 67 34 67 103s-15 104 -67 104c-49 0 -67 -35 -67 -104
s19 -103 67 -103zM220 334c-84 0 -182 35 -182 189c0 153 99 190 182 190c85 0 183 -35 183 -190c0 -152 -100 -189 -183 -189zM735 700l-493 -700h-102l493 700h102z" />
    <glyph glyph-name="ampersand" unicode="&#x26;" horiz-adv-x="748" 
d="M326 437c38 22 80 55 80 99c0 41 -20 68 -67 68c-49 0 -70 -30 -70 -69c0 -33 20 -63 57 -98zM415 146l-136 156c-43 -27 -70 -53 -70 -108c0 -56 40 -94 100 -94c47 0 83 22 106 46zM592 159l139 -159h-193l-50 57c-53 -48 -119 -70 -203 -70c-179 0 -235 106 -235 194
c0 100 54 156 150 200c-37 39 -80 87 -80 157c0 137 135 175 218 175c152 0 215 -68 215 -159c0 -85 -68 -144 -153 -184l104 -120c19 31 27 68 30 121h139c-11 -104 -45 -165 -81 -212z" />
    <glyph glyph-name="quotesingle" unicode="'" horiz-adv-x="259" 
d="M195 700l-13 -272h-104l-13 272h130z" />
    <glyph glyph-name="parenleft" unicode="(" horiz-adv-x="354" 
d="M198 308c0 -149 44 -308 149 -448h-142c-105 118 -155 283 -155 448s50 331 155 448h142c-109 -139 -149 -289 -149 -448z" />
    <glyph glyph-name="parenright" unicode=")" horiz-adv-x="354" 
d="M157 308c0 159 -40 309 -149 448h141c105 -117 155 -283 155 -448s-50 -330 -155 -448h-141c104 140 149 299 149 448z" />
    <glyph glyph-name="asterisk" unicode="*" horiz-adv-x="504" 
d="M424 360l-97 -65l-67 116h-16l-67 -116l-96 65l96 100l-4 14l-133 25l34 114l126 -56l13 8l-18 135h117l-17 -136l11 -7l125 56l33 -114l-132 -25l-4 -14z" />
    <glyph glyph-name="plus" unicode="+" horiz-adv-x="590" 
d="M355 265v-185h-119v185h-186v120h186v185h119v-185h186v-120h-186z" />
    <glyph glyph-name="comma" unicode="," horiz-adv-x="304" 
d="M68 -200l-35 87c67 20 101 52 113 101c-72 0 -99 41 -99 92c0 49 35 89 104 89c61 0 112 -40 112 -128c0 -115 -70 -212 -195 -241z" />
    <glyph glyph-name="hyphen" unicode="-" horiz-adv-x="475" 
d="M405 342v-120h-335v120h335z" />
    <glyph glyph-name="period" unicode="." horiz-adv-x="297" 
d="M248 79c0 -57 -36 -91 -100 -91c-60 0 -98 35 -98 91c0 57 34 90 98 90c60 0 100 -35 100 -90z" />
    <glyph glyph-name="slash" unicode="/" horiz-adv-x="527" 
d="M513 770l-371 -920h-137l371 920h137z" />
    <glyph glyph-name="zero" unicode="0" horiz-adv-x="655" 
d="M333 127c77 0 108 64 108 221c0 159 -30 225 -115 225c-80 0 -111 -68 -111 -225s34 -221 118 -221zM329 -13c-188 0 -289 112 -289 363s105 363 286 363c199 0 289 -114 289 -363c0 -254 -103 -363 -286 -363z" />
    <glyph glyph-name="one" unicode="1" horiz-adv-x="473" 
d="M379 700v-700h-165v522l-121 -79l-68 117l217 140h137z" />
    <glyph glyph-name="two" unicode="2" horiz-adv-x="579" 
d="M532 145v-145h-499v148l106 80c144 99 207 163 207 237c0 60 -37 99 -125 99c-61 0 -120 -16 -168 -40v153c80 28 147 36 214 36c189 0 260 -97 260 -205c0 -131 -91 -231 -251 -338l-38 -24v-1h294z" />
    <glyph glyph-name="three" unicode="3" horiz-adv-x="574" 
d="M39 19v147c71 -27 126 -33 178 -33c96 0 136 31 136 80c0 57 -44 79 -124 79h-109v131h95c80 0 121 20 121 75c0 44 -35 70 -118 70c-65 0 -123 -11 -167 -30v144c68 23 136 31 208 31c197 0 254 -91 254 -187c0 -87 -49 -140 -140 -163v-2c115 -19 156 -80 156 -160
c0 -124 -89 -214 -289 -214c-51 0 -125 8 -201 32z" />
    <glyph glyph-name="four" unicode="4" horiz-adv-x="649" 
d="M178 288h193v267h-2zM534 143v-143h-165v143h-333v139l296 418h202v-411h90v-146h-90z" />
    <glyph glyph-name="five" unicode="5" horiz-adv-x="569" 
d="M55 16v142c47 -16 88 -26 148 -26c100 0 152 29 152 100c0 64 -42 97 -137 97c-56 0 -114 -10 -155 -22l20 393h418v-139h-291l-7 -119c32 7 54 9 89 9c168 0 238 -105 238 -218c0 -132 -75 -246 -299 -246c-53 0 -112 8 -176 29z" />
    <glyph glyph-name="six" unicode="6" horiz-adv-x="625" 
d="M326 116c60 0 101 38 101 110s-45 110 -102 110c-67 0 -107 -42 -107 -95c0 -76 40 -125 108 -125zM533 693v-144c-47 15 -91 23 -147 23c-101 0 -184 -62 -184 -185c30 33 73 66 166 66c127 0 229 -72 229 -223c0 -146 -107 -243 -268 -243c-208 0 -287 151 -287 339
c0 210 85 387 337 387c36 0 91 -4 154 -20z" />
    <glyph glyph-name="seven" unicode="7" horiz-adv-x="558" 
d="M519 576l-237 -576h-188l243 559h-317v141h499v-124z" />
    <glyph glyph-name="eight" unicode="8" horiz-adv-x="631" 
d="M334 410c56 31 81 59 81 102c0 53 -42 74 -102 74c-64 0 -99 -29 -99 -70c0 -55 57 -87 120 -106zM300 313c-48 -21 -98 -50 -98 -107c0 -55 43 -92 119 -92c63 0 108 30 108 89c0 64 -73 91 -129 110zM454 372c109 -40 143 -97 143 -181c0 -124 -107 -204 -278 -204
c-160 0 -284 68 -284 201c0 92 51 147 144 178c-80 36 -128 83 -128 170c0 112 105 177 267 177c145 0 260 -52 260 -176c0 -81 -44 -132 -124 -165z" />
    <glyph glyph-name="nine" unicode="9" horiz-adv-x="625" 
d="M297 584c-59 0 -99 -38 -99 -110s45 -112 102 -112c65 0 106 40 106 100c0 80 -40 122 -109 122zM93 7v145c47 -16 91 -23 147 -23c101 0 184 51 184 187c-28 -39 -74 -71 -166 -71c-127 0 -229 75 -229 226c0 146 107 242 268 242c209 0 287 -137 287 -332
c0 -220 -85 -394 -337 -394c-36 0 -91 4 -154 20z" />
    <glyph glyph-name="colon" unicode=":" horiz-adv-x="297" 
d="M248 431c0 -57 -36 -91 -100 -91c-60 0 -98 35 -98 91c0 57 34 90 98 90c60 0 100 -35 100 -90zM248 79c0 -57 -36 -91 -100 -91c-60 0 -98 35 -98 91c0 57 34 90 98 90c60 0 100 -35 100 -90z" />
    <glyph glyph-name="semicolon" unicode=";" horiz-adv-x="304" 
d="M68 -200l-35 87c67 20 101 52 113 101c-72 0 -99 41 -99 92c0 49 35 89 104 89c61 0 112 -40 112 -128c0 -115 -70 -212 -195 -241zM248 431c0 -57 -36 -91 -100 -91c-60 0 -98 35 -98 91c0 57 34 90 98 90c60 0 100 -35 100 -90z" />
    <glyph glyph-name="less" unicode="&#x3c;" horiz-adv-x="584" 
d="M534 183v-122l-484 202v112l484 201v-122l-336 -134v-2z" />
    <glyph glyph-name="equal" unicode="=" horiz-adv-x="590" 
d="M541 164h-491v120h491v-120zM541 370h-491v120h491v-120z" />
    <glyph glyph-name="greater" unicode="&#x3e;" horiz-adv-x="584" 
d="M50 454v122l484 -201v-112l-484 -202v122l337 135v2z" />
    <glyph glyph-name="question" unicode="?" horiz-adv-x="502" 
d="M285 241v-12h-146v18c0 145 146 166 146 253c0 47 -36 73 -103 73c-53 0 -97 -11 -148 -34v141c53 21 122 33 202 33c179 0 234 -91 234 -178c0 -170 -185 -177 -185 -294zM309 77c0 -56 -34 -89 -98 -89c-60 0 -97 34 -97 89c0 57 33 90 97 90c60 0 98 -35 98 -90z" />
    <glyph glyph-name="at" unicode="@" horiz-adv-x="895" 
d="M650 -18v-87c-56 -19 -112 -30 -175 -30c-287 0 -417 177 -417 397c0 219 139 408 406 408c237 0 374 -145 374 -334c0 -163 -93 -271 -229 -271c-33 0 -63 7 -82 26c-11 11 -17 25 -18 42h-2c-41 -54 -93 -68 -134 -68c-91 0 -136 66 -136 154c0 124 65 248 201 248
c63 0 90 -32 101 -63h1l15 54h103l-42 -236c-3 -11 -7 -35 -7 -43c0 -12 4 -29 28 -29c56 0 108 66 108 183c0 137 -83 251 -283 251c-219 0 -309 -150 -309 -323c0 -152 75 -310 320 -310c57 0 121 8 177 31zM427 157c69 0 88 101 88 152c0 36 -17 63 -58 63
c-65 0 -90 -78 -90 -143c0 -44 19 -72 60 -72z" />
    <glyph glyph-name="A" unicode="A" horiz-adv-x="694" 
d="M521 0l-45 146h-262l-45 -146h-163l232 700h222l229 -700h-168zM345 574l-87 -285h174z" />
    <glyph glyph-name="B" unicode="B" horiz-adv-x="641" 
d="M228 566v-153h79c89 0 120 28 120 79c0 56 -28 74 -105 74h-94zM228 298v-164h90c84 0 120 17 120 80c0 64 -39 84 -124 84h-86zM358 0h-295v700h303c153 0 224 -63 224 -178c0 -91 -48 -138 -137 -157v-2c104 -5 155 -77 155 -156c0 -114 -61 -207 -250 -207z" />
    <glyph glyph-name="C" unicode="C" horiz-adv-x="621" 
d="M579 172v-154c-37 -17 -97 -31 -182 -31c-241 0 -357 123 -357 354c0 240 115 372 370 372c80 0 136 -17 168 -26v-152c-44 16 -104 26 -143 26c-149 0 -220 -58 -220 -211c0 -145 71 -210 220 -210c51 0 93 9 144 32z" />
    <glyph glyph-name="D" unicode="D" horiz-adv-x="710" 
d="M228 556v-412h69c147 0 204 67 204 212c0 141 -52 200 -195 200h-78zM302 0h-239v700h252c271 0 356 -122 356 -337c0 -241 -116 -363 -369 -363z" />
    <glyph glyph-name="E" unicode="E" horiz-adv-x="568" 
d="M526 144v-144h-463v700h463v-144h-298v-133h260v-133h-260v-146h298z" />
    <glyph glyph-name="F" unicode="F" horiz-adv-x="531" 
d="M228 272v-272h-165v700h441v-144h-276v-141h257v-143h-257z" />
    <glyph glyph-name="G" unicode="G" horiz-adv-x="691" 
d="M495 146v120h-123v134h269v-359c-49 -27 -130 -54 -230 -54c-248 0 -371 132 -371 354c0 241 114 372 370 372c96 0 154 -15 186 -27v-145c-45 17 -111 24 -163 24c-149 0 -223 -60 -223 -215c0 -151 76 -214 209 -214c27 0 53 3 76 10z" />
    <glyph glyph-name="H" unicode="H" horiz-adv-x="729" 
d="M667 700v-700h-165v285h-274v-285h-165v700h165v-268h274v268h165z" />
    <glyph glyph-name="I" unicode="I" horiz-adv-x="290" 
d="M228 700v-700h-165v700h165z" />
    <glyph glyph-name="J" unicode="J" horiz-adv-x="439" 
d="M30 5v149c31 -9 50 -12 73 -12c71 0 109 23 109 111v447h165v-479c0 -155 -69 -231 -230 -231c-60 0 -93 7 -117 15z" />
    <glyph glyph-name="K" unicode="K" horiz-adv-x="674" 
d="M228 700v-324l236 324h190l-256 -327l274 -373h-198l-246 345v-345h-165v700h165z" />
    <glyph glyph-name="L" unicode="L" horiz-adv-x="537" 
d="M507 152v-152h-444v700h165v-548h279z" />
    <glyph glyph-name="M" unicode="M" horiz-adv-x="913" 
d="M851 700v-700h-160v517l-157 -517h-155l-156 513v-513h-160v700h248l150 -509l149 509h241z" />
    <glyph glyph-name="N" unicode="N" horiz-adv-x="726" 
d="M664 700v-700h-178l-263 470v-470h-160v700h188l253 -456v456h160z" />
    <glyph glyph-name="O" unicode="O" horiz-adv-x="768" 
d="M390 132c109 0 163 69 163 218s-55 219 -172 219c-108 0 -166 -72 -166 -219c0 -148 63 -218 175 -218zM386 -13c-224 0 -346 126 -346 363c0 236 129 363 341 363c236 0 347 -137 347 -363c0 -251 -131 -363 -342 -363z" />
    <glyph glyph-name="P" unicode="P" horiz-adv-x="622" 
d="M224 556v-203h81c85 0 120 33 120 102c0 73 -34 101 -122 101h-79zM228 209v-209h-165v700h256c181 0 276 -74 276 -238c0 -161 -90 -253 -290 -253h-77z" />
    <glyph glyph-name="Q" unicode="Q" horiz-adv-x="768" 
d="M646 -126h-204l-98 115c-197 15 -304 138 -304 361c0 236 129 363 341 363c236 0 347 -137 347 -363c0 -189 -75 -299 -202 -342zM215 350c0 -148 63 -218 175 -218c109 0 163 69 163 218s-55 219 -172 219c-108 0 -166 -72 -166 -219z" />
    <glyph glyph-name="R" unicode="R" horiz-adv-x="648" 
d="M63 0v700h257c181 0 269 -76 269 -221c0 -104 -36 -172 -120 -207l162 -272h-180l-140 246h-10h-73v-246h-165zM224 556v-176h90c68 0 105 25 105 89c0 60 -33 87 -113 87h-82z" />
    <glyph glyph-name="S" unicode="S" horiz-adv-x="555" 
d="M49 29v145c32 -21 105 -46 189 -46c75 0 107 25 107 72c0 53 -31 65 -110 91l-26 8c-123 40 -167 106 -167 216c0 124 94 198 254 198c91 0 149 -14 190 -31v-141c-53 20 -123 29 -178 29c-65 0 -98 -21 -98 -62c0 -44 35 -56 136 -91l28 -9c123 -43 152 -115 152 -207
c0 -136 -103 -214 -268 -214c-89 0 -157 17 -209 42z" />
    <glyph glyph-name="T" unicode="T" horiz-adv-x="588" 
d="M377 548v-548h-165v548h-197v152h558v-152h-196z" />
    <glyph glyph-name="U" unicode="U" horiz-adv-x="694" 
d="M472 313v387h165v-410c0 -219 -103 -303 -290 -303c-176 0 -289 77 -289 304v409h165v-387c0 -117 25 -174 124 -174c104 0 125 58 125 174z" />
    <glyph glyph-name="V" unicode="V" horiz-adv-x="665" 
d="M661 700l-219 -700h-219l-218 700h179l153 -537l156 537h168z" />
    <glyph glyph-name="W" unicode="W" horiz-adv-x="983" 
d="M976 700l-165 -700h-215l-106 495l-105 -495h-217l-160 700h176l107 -495l104 495h192l106 -495l107 495h176z" />
    <glyph glyph-name="X" unicode="X" horiz-adv-x="673" 
d="M667 0h-198l-138 247l-133 -247h-192l205 361l-187 339h193l120 -233l126 233h188l-194 -337z" />
    <glyph glyph-name="Y" unicode="Y" horiz-adv-x="647" 
d="M407 260v-260h-165v260l-243 440h191l136 -255l132 255h190z" />
    <glyph glyph-name="Z" unicode="Z" horiz-adv-x="603" 
d="M573 144v-144h-543v145l337 411h-325v144h525v-145l-336 -411h342z" />
    <glyph glyph-name="bracketleft" unicode="[" horiz-adv-x="343" 
d="M319 -52v-98h-246v920h246v-98h-112v-724h112z" />
    <glyph glyph-name="backslash" unicode="\" horiz-adv-x="527" 
d="M152 770l371 -920h-137l-371 920h137z" />
    <glyph glyph-name="bracketright" unicode="]" horiz-adv-x="343" 
d="M271 770v-920h-246v98h112v724h-112v98h246z" />
    <glyph glyph-name="asciicircum" unicode="^" horiz-adv-x="559" 
d="M336 700l184 -349h-124l-116 222l-116 -222h-124l184 349h112z" />
    <glyph glyph-name="underscore" unicode="_" horiz-adv-x="506" 
d="M506 -122v-89h-506v89h506z" />
    <glyph glyph-name="grave" unicode="`" horiz-adv-x="611" 
d="M297 740l89 -147h-113l-156 147h180z" />
    <glyph glyph-name="a" unicode="a" horiz-adv-x="560" 
d="M359 192v25c-19 3 -37 6 -76 6c-77 0 -101 -22 -101 -57s23 -61 79 -61c67 0 98 34 98 87zM508 310v-310h-139v73h-2c-21 -40 -71 -82 -161 -82c-109 0 -176 58 -176 158c0 108 73 157 232 157c44 0 80 -5 97 -8v23c0 52 -26 77 -109 77c-64 0 -131 -19 -171 -39v124
c43 19 113 39 197 39c165 0 232 -57 232 -212z" />
    <glyph glyph-name="b" unicode="b" horiz-adv-x="626" 
d="M200 66v-66h-145v750h149v-310h2c31 48 83 79 172 79c137 0 216 -83 216 -255c0 -175 -71 -273 -223 -273c-87 0 -138 32 -169 75h-2zM323 112c77 0 114 41 114 149c0 96 -44 137 -112 137c-76 0 -121 -48 -121 -144c0 -87 46 -142 119 -142z" />
    <glyph glyph-name="c" unicode="c" horiz-adv-x="507" 
d="M477 143v-123c-28 -13 -79 -32 -164 -32c-202 0 -280 107 -280 271c0 157 87 263 275 263c87 0 132 -17 162 -28v-124c-35 13 -72 26 -135 26c-93 0 -147 -38 -147 -133c0 -100 52 -148 165 -148c52 0 96 13 124 28z" />
    <glyph glyph-name="d" unicode="d" horiz-adv-x="626" 
d="M422 443v307h149v-750h-145v75h-2c-32 -52 -85 -84 -172 -84c-141 0 -219 92 -219 260c0 169 77 268 230 268c81 0 130 -33 157 -76h2zM305 398c-80 0 -115 -49 -115 -145s42 -141 117 -141c76 0 115 51 115 143c0 88 -40 143 -117 143z" />
    <glyph glyph-name="e" unicode="e" horiz-adv-x="574" 
d="M511 145v-114c-27 -21 -101 -43 -189 -43c-203 0 -289 97 -289 274c0 161 96 260 263 260c186 0 249 -117 249 -261v-39h-359c11 -80 57 -115 154 -115c76 0 136 17 171 38zM186 307h209c1 59 -29 101 -97 101c-65 0 -103 -34 -112 -101z" />
    <glyph glyph-name="f" unicode="f" horiz-adv-x="387" 
d="M379 510v-126h-126v-384h-149v384h-91v126h91v61c0 115 55 187 189 187c37 0 60 -2 91 -9v-122c-8 3 -28 6 -49 6c-64 0 -82 -23 -82 -94v-29h126z" />
    <glyph glyph-name="g" unicode="g" horiz-adv-x="626" 
d="M426 439v71h145v-479c0 -192 -131 -250 -291 -250c-74 0 -157 13 -196 29v130c35 -15 96 -33 177 -33c124 0 161 46 161 135v41h-2c-27 -48 -90 -83 -159 -83c-145 0 -228 78 -228 249c0 175 71 270 228 270c80 0 136 -35 163 -80h2zM303 398c-76 0 -113 -43 -113 -139
c0 -92 42 -138 114 -138c76 0 118 53 118 137c0 88 -38 140 -119 140z" />
    <glyph glyph-name="h" unicode="h" horiz-adv-x="605" 
d="M554 318v-318h-149v264c0 100 -23 129 -91 129c-77 0 -110 -52 -110 -157v-236h-149v750h149v-311h2c37 57 98 80 166 80c120 0 182 -60 182 -201z" />
    <glyph glyph-name="i" unicode="i" horiz-adv-x="264" 
d="M222 672c0 -51 -30 -78 -90 -78c-57 0 -89 29 -89 78c0 48 32 76 89 76c60 0 90 -25 90 -76zM207 510v-510h-149v510h149z" />
    <glyph glyph-name="j" unicode="j" horiz-adv-x="265" 
d="M223 672c0 -51 -30 -78 -90 -78c-57 0 -89 29 -89 78c0 48 32 76 89 76c60 0 90 -25 90 -76zM-56 -213l2 127c11 -3 23 -4 38 -4c41 0 76 11 76 91v509h149v-503c0 -149 -57 -226 -196 -226c-32 0 -54 3 -69 6z" />
    <glyph glyph-name="k" unicode="k" horiz-adv-x="564" 
d="M204 750v-458l169 218h170l-189 -229l209 -281h-172l-187 262v-262h-149v750h149z" />
    <glyph glyph-name="l" unicode="l" horiz-adv-x="259" 
d="M204 750v-750h-149v750h149z" />
    <glyph glyph-name="m" unicode="m" horiz-adv-x="869" 
d="M818 330v-330h-148v284c0 75 -13 109 -68 109c-68 0 -92 -54 -92 -146v-247h-147v284c0 71 -15 109 -70 109c-69 0 -89 -54 -89 -146v-247h-149v510h143v-77h2c36 64 86 86 154 86c72 0 122 -31 142 -100c40 75 92 100 164 100c111 0 158 -62 158 -189z" />
    <glyph glyph-name="n" unicode="n" horiz-adv-x="605" 
d="M554 318v-318h-149v264c0 100 -23 129 -91 129c-77 0 -110 -52 -110 -157v-236h-149v510h149v-71h2c37 57 98 80 166 80c117 0 182 -60 182 -201z" />
    <glyph glyph-name="o" unicode="o" horiz-adv-x="611" 
d="M306 110c79 0 118 45 118 145c0 103 -38 146 -118 146c-76 0 -118 -45 -118 -146c0 -100 46 -145 118 -145zM306 -12c-175 0 -273 84 -273 267c0 175 104 267 273 267c173 0 273 -87 273 -267c0 -175 -98 -267 -273 -267z" />
    <glyph glyph-name="p" unicode="p" horiz-adv-x="626" 
d="M204 63v-273h-149v720h145v-72h2c37 56 100 81 171 81c145 0 221 -81 221 -260c0 -152 -75 -268 -227 -268c-76 0 -132 33 -161 72h-2zM323 112c80 0 114 49 114 149c0 93 -36 137 -117 137c-76 0 -116 -54 -116 -146c0 -88 42 -140 119 -140z" />
    <glyph glyph-name="q" unicode="q" horiz-adv-x="626" 
d="M426 439v71h145v-720h-149v282h-2c-24 -43 -78 -81 -165 -81c-143 0 -222 86 -222 255c0 177 75 273 226 273c91 0 142 -41 165 -80h2zM305 398c-77 0 -115 -48 -115 -143c0 -101 46 -143 118 -143c76 0 114 58 114 143c0 87 -40 143 -117 143z" />
    <glyph glyph-name="r" unicode="r" horiz-adv-x="412" 
d="M204 226v-226h-149v510h143v-83h2c27 61 73 92 136 92c13 0 40 -2 60 -7v-135c-19 7 -39 10 -66 10c-95 0 -126 -54 -126 -161z" />
    <glyph glyph-name="s" unicode="s" horiz-adv-x="462" 
d="M43 17v122c47 -25 109 -37 164 -37s75 16 75 47c0 75 -250 26 -250 214c0 94 61 159 220 159c51 0 108 -8 151 -20v-117c-39 15 -93 23 -141 23c-51 0 -76 -13 -76 -39c0 -73 250 -16 250 -213c0 -95 -58 -168 -226 -168c-48 0 -111 9 -167 29z" />
    <glyph glyph-name="t" unicode="t" horiz-adv-x="420" 
d="M394 510v-126h-141v-176c0 -61 16 -88 81 -88c19 0 42 4 61 13v-125c-21 -11 -62 -20 -110 -20c-133 0 -181 61 -181 171v225h-91v126h91v108l149 50v-158h141z" />
    <glyph glyph-name="u" unicode="u" horiz-adv-x="605" 
d="M52 192v318h149v-264c0 -100 23 -129 91 -129c77 0 110 53 110 157v236h149v-510h-149v72h-2c-37 -57 -98 -81 -166 -81c-117 0 -182 60 -182 201z" />
    <glyph glyph-name="v" unicode="v" horiz-adv-x="543" 
d="M539 510l-175 -510h-186l-173 510h166l104 -364l108 364h156z" />
    <glyph glyph-name="w" unicode="w" horiz-adv-x="796" 
d="M789 510l-124 -510h-184l-84 354l-83 -354h-184l-122 510h156l69 -357l87 357h158l87 -360l73 360h151z" />
    <glyph glyph-name="x" unicode="x" horiz-adv-x="548" 
d="M377 265l167 -265h-168l-105 164l-102 -164h-165l167 264l-152 246h167l92 -152l95 152h161z" />
    <glyph glyph-name="y" unicode="y" horiz-adv-x="542" 
d="M73 -207l3 123c16 -6 32 -9 49 -9c51 0 73 23 88 70l5 15l-213 518h165l121 -345l94 345h152l-171 -505c-54 -156 -100 -224 -218 -224c-27 0 -54 4 -75 12z" />
    <glyph glyph-name="z" unicode="z" horiz-adv-x="508" 
d="M476 126v-126h-443v129l251 255h-243v126h431v-129l-252 -255h256z" />
    <glyph glyph-name="braceleft" unicode="{" horiz-adv-x="364" 
d="M347 -53v-98h-68c-157 0 -160 112 -160 175v133c0 63 -29 98 -86 104v98c57 6 86 41 86 104v133c0 61 3 174 160 174h68v-97h-26c-57 0 -68 -39 -68 -92v-134c0 -61 -27 -122 -98 -135v-4c71 -13 98 -74 98 -135v-134c0 -53 11 -92 68 -92h26z" />
    <glyph glyph-name="bar" unicode="|" horiz-adv-x="279" 
d="M207 770v-920h-134v920h134z" />
    <glyph glyph-name="braceright" unicode="}" horiz-adv-x="364" 
d="M86 -151h-68v98h25c57 0 69 39 69 92v134c0 61 26 122 98 135v4c-72 13 -98 74 -98 135v134c0 53 -12 92 -69 92h-25v97h68c157 0 160 -113 160 -174v-133c0 -63 29 -98 86 -104v-98c-57 -6 -86 -41 -86 -104v-133c0 -63 -3 -175 -160 -175z" />
    <glyph glyph-name="asciitilde" unicode="~" horiz-adv-x="584" 
d="M492 416l42 -100c-27 -43 -66 -87 -130 -87c-32 0 -62 7 -118 34c-39 19 -69 34 -105 34c-44 0 -72 -43 -88 -70l-43 99c21 43 65 89 131 89c36 0 74 -11 131 -38c43 -19 64 -30 89 -30c43 0 77 47 91 69z" />
    <glyph glyph-name="uni00A0" unicode="&#xa0;" horiz-adv-x="233" 
 />
    <glyph glyph-name="exclamdown" unicode="&#xa1;" horiz-adv-x="364" 
d="M84 430c0 56 35 89 98 89c60 0 97 -34 97 -89c0 -56 -33 -89 -97 -89c-60 0 -98 34 -98 89zM90 -193l26 455h133l26 -455h-185z" />
    <glyph glyph-name="cent" unicode="&#xa2;" horiz-adv-x="557" 
d="M367 -113h-88v105c-158 19 -220 120 -220 267c0 141 71 240 220 259v106h88v-103c67 -4 102 -18 129 -27v-124c-35 13 -72 26 -135 26c-93 0 -147 -38 -147 -133c0 -100 52 -148 165 -148c52 0 96 13 124 28v-123c-25 -12 -68 -28 -136 -31v-102z" />
    <glyph glyph-name="sterling" unicode="&#xa3;" horiz-adv-x="604" 
d="M562 135v-135h-503v135h87v173h-87v111h87v53c0 122 69 241 258 241c51 0 103 -7 155 -20v-134c-51 15 -84 19 -125 19c-88 0 -123 -48 -123 -121v-38h163v-111h-163v-173h251z" />
    <glyph glyph-name="currency" unicode="&#xa4;" horiz-adv-x="573" 
d="M287 216c72 0 132 61 132 133s-60 134 -132 134s-132 -62 -132 -134s60 -133 132 -133zM548 546l-65 -66c23 -33 40 -79 40 -131c0 -51 -18 -95 -39 -130l65 -65l-65 -66l-66 65c-35 -23 -79 -40 -132 -40s-97 17 -130 40l-65 -65l-66 66l65 65c-23 33 -39 78 -39 130
c0 53 17 96 40 131l-65 66l65 65l66 -65c33 23 78 39 129 39c55 0 98 -16 131 -39l66 66z" />
    <glyph glyph-name="yen" unicode="&#xa5;" horiz-adv-x="641" 
d="M551 140h-147v-140h-165v140h-148v84h148v41l-11 21h-137v84h94l-170 330h190l118 -260l114 260h190l-169 -330h93v-84h-136l-11 -21v-41h147v-84z" />
    <glyph glyph-name="brokenbar" unicode="&#xa6;" horiz-adv-x="279" 
d="M207 244v-394h-134v394h134zM207 770v-394h-134v394h134z" />
    <glyph glyph-name="section" unicode="&#xa7;" horiz-adv-x="575" 
d="M75 -93v119c69 -31 113 -37 164 -37c67 0 102 24 102 59c0 38 -38 53 -110 82c-11 4 -38 16 -50 21c-70 30 -131 72 -131 155c0 55 34 99 90 130c-44 25 -66 62 -66 113c0 85 74 164 235 164c73 0 131 -14 170 -26v-115c-76 25 -115 29 -151 29c-39 0 -93 -11 -93 -54
c0 -34 27 -45 96 -74l47 -21c71 -29 147 -67 147 -158c0 -56 -40 -100 -84 -131c33 -24 61 -59 61 -111c0 -97 -80 -173 -244 -173c-60 0 -119 8 -183 28zM301 228c5 -3 43 -17 49 -20c17 17 34 40 34 67c0 40 -37 64 -97 91c-5 2 -46 19 -54 24c-31 -20 -41 -43 -41 -62
c0 -47 44 -73 109 -100z" />
    <glyph glyph-name="dieresis" unicode="&#xa8;" horiz-adv-x="584" 
d="M485 667c0 -47 -26 -73 -81 -73c-53 0 -81 28 -81 73c0 44 29 71 81 71c55 0 81 -26 81 -71zM261 667c0 -47 -26 -73 -81 -73c-53 0 -81 27 -81 72s29 72 81 72c55 0 81 -26 81 -71z" />
    <glyph glyph-name="copyright" unicode="&#xa9;" horiz-adv-x="824" 
d="M536 266l-1 -90c-24 -11 -58 -17 -103 -17c-139 0 -192 83 -192 193c0 121 64 194 193 194c43 0 80 -9 101 -16v-87c-27 11 -59 15 -86 15c-69 0 -103 -35 -103 -104c0 -77 40 -107 104 -107c29 0 58 6 87 19zM775 349c0 -199 -163 -362 -363 -362
c-199 0 -362 163 -362 362c0 201 163 363 362 363c200 0 363 -162 363 -363zM701 348c0 160 -129 291 -290 291c-158 0 -287 -131 -287 -291c0 -158 129 -287 287 -287c161 0 290 129 290 287z" />
    <glyph glyph-name="ordfeminine" unicode="&#xaa;" horiz-adv-x="425" 
d="M263 489v12c-13 3 -29 4 -49 4c-51 0 -66 -11 -66 -38c0 -20 15 -36 50 -36c47 0 65 27 65 58zM378 567v-213h-108v53h-1c-15 -28 -47 -59 -112 -59c-80 0 -124 39 -124 107c0 74 55 111 164 111c25 0 51 -3 66 -6v16c0 27 -14 47 -73 47c-45 0 -95 -12 -122 -27v90
c29 12 82 27 142 27c117 0 168 -41 168 -146z" />
    <glyph glyph-name="guillemotleft" unicode="&#xab;" horiz-adv-x="589" 
d="M204 269l118 -209h-144l-130 209l130 209h144zM434 269l118 -209h-144l-130 209l130 209h144z" />
    <glyph glyph-name="logicalnot" unicode="&#xac;" horiz-adv-x="686" 
d="M614 410v-276h-115v166h-449v110h564z" />
    <glyph glyph-name="uni00AD" unicode="&#xad;" horiz-adv-x="475" 
d="M405 342v-120h-335v120h335z" />
    <glyph glyph-name="registered" unicode="&#xae;" horiz-adv-x="824" 
d="M775 349c0 -199 -163 -362 -363 -362c-199 0 -362 163 -362 362c0 201 163 363 362 363c200 0 363 -162 363 -363zM701 348c0 160 -129 291 -290 291c-158 0 -287 -131 -287 -291c0 -158 129 -287 287 -287c161 0 290 129 290 287zM362 460v-90h44c28 0 54 11 54 46
c0 36 -24 44 -55 44h-43zM495 313l92 -149h-106l-78 131h-38v-131h-99v376h156c69 0 140 -24 140 -122c0 -52 -28 -90 -67 -105z" />
    <glyph glyph-name="macron" unicode="&#xaf;" horiz-adv-x="611" 
d="M472 709v-95h-332v95h332z" />
    <glyph glyph-name="degree" unicode="&#xb0;" horiz-adv-x="395" 
d="M352 559c0 -85 -69 -153 -154 -153s-154 68 -154 153s69 154 154 154s154 -69 154 -154zM265 558c0 39 -34 68 -67 68c-35 0 -65 -32 -65 -68c0 -35 30 -65 65 -65s67 31 67 65z" />
    <glyph glyph-name="plusminus" unicode="&#xb1;" horiz-adv-x="590" 
d="M541 173v-119h-491v119h491zM355 379v-147h-119v147h-186v119h186v147h119v-147h186v-119h-186z" />
    <glyph glyph-name="twosuperior" unicode="&#xb2;" 
d="M359 478v-97h-318v101l70 49c88 59 118 86 118 129c0 29 -15 54 -70 54c-33 0 -73 -9 -104 -24v99c47 16 88 22 137 22c118 0 164 -55 164 -123c0 -70 -43 -121 -149 -190l-30 -19v-1h182z" />
    <glyph glyph-name="threesuperior" unicode="&#xb3;" 
d="M49 393v96c43 -16 80 -20 111 -20c56 0 78 15 78 42c0 29 -23 44 -69 44h-72v83h62c43 0 69 11 69 39c0 27 -19 39 -68 39c-39 0 -76 -8 -104 -19v94c41 15 93 20 136 20c121 0 157 -56 157 -110c0 -53 -30 -84 -86 -100v-2c75 -13 96 -56 96 -99
c0 -72 -60 -126 -185 -126c-31 0 -78 4 -125 19z" />
    <glyph glyph-name="acute" unicode="&#xb4;" horiz-adv-x="611" 
d="M525 740l-156 -147h-113l89 147h180z" />
    <glyph glyph-name="mu" unicode="&#xb5;" horiz-adv-x="609" 
d="M206 10h-2v-220h-149v720h149v-270c0 -65 19 -123 89 -123c75 0 112 65 112 150v243h149v-510h-149v75h-2c-27 -51 -80 -83 -136 -83c-23 0 -46 7 -61 18z" />
    <glyph glyph-name="mu" unicode="&#x3bc;" horiz-adv-x="609" 
d="M206 10h-2v-220h-149v720h149v-270c0 -65 19 -123 89 -123c75 0 112 65 112 150v243h149v-510h-149v75h-2c-27 -51 -80 -83 -136 -83c-23 0 -46 7 -61 18z" />
    <glyph glyph-name="paragraph" unicode="&#xb6;" horiz-adv-x="576" 
d="M327 -210h-101v539c-113 0 -183 75 -183 182c0 168 155 189 222 189h242v-910h-100v817h-80v-817z" />
    <glyph glyph-name="periodcentered" unicode="&#xb7;" horiz-adv-x="241" 
d="M211 359c0 -56 -31 -89 -90 -89c-56 0 -91 33 -91 89c0 55 32 88 91 88c56 0 90 -35 90 -88z" />
    <glyph glyph-name="cedilla" unicode="&#xb8;" horiz-adv-x="460" 
d="M123 -224l10 63c19 -8 38 -12 58 -12c29 0 53 13 53 40c0 29 -29 35 -56 35c-9 0 -23 0 -32 -1l17 99h77l-10 -50c55 0 106 -24 106 -89c0 -60 -51 -100 -128 -100c-37 0 -70 6 -95 15z" />
    <glyph glyph-name="onesuperior" unicode="&#xb9;" 
d="M298 800v-419h-117v298l-82 -55l-48 79l152 97h95z" />
    <glyph glyph-name="ordmasculine" unicode="&#xba;" horiz-adv-x="425" 
d="M212 437c51 0 76 28 76 93c0 67 -25 93 -76 93c-47 0 -75 -26 -75 -93c0 -65 30 -93 75 -93zM212 348c-123 0 -191 57 -191 182c0 119 72 183 191 183c123 0 193 -62 193 -183c0 -117 -68 -182 -193 -182z" />
    <glyph glyph-name="guillemotright" unicode="&#xbb;" horiz-adv-x="589" 
d="M312 269l-130 -209h-144l118 209l-118 209h144zM542 269l-130 -209h-144l118 209l-118 209h144z" />
    <glyph glyph-name="onequarter" unicode="&#xbc;" horiz-adv-x="905" 
d="M283 701v-419h-117v298l-82 -55l-48 79l152 97h95zM702 720l-433 -742h-93l434 742h92zM568 177h108v149h-1zM790 83v-82h-115v82h-203v90l181 247h137v-242h57v-95h-57z" />
    <glyph glyph-name="onehalf" unicode="&#xbd;" horiz-adv-x="905" 
d="M275 701v-419h-117v298l-82 -55l-48 79l152 97h95zM679 720l-433 -742h-93l434 742h92zM850 98v-97h-318v101l70 49c88 59 118 86 118 129c0 29 -15 54 -70 54c-33 0 -73 -9 -104 -24v99c47 16 88 22 137 22c118 0 164 -55 164 -123c0 -70 -43 -121 -149 -190l-30 -19v-1
h182z" />
    <glyph glyph-name="threequarters" unicode="&#xbe;" horiz-adv-x="905" 
d="M39 294v96c43 -16 80 -20 111 -20c56 0 78 15 78 42c0 29 -23 44 -69 44h-72v83h62c43 0 69 11 69 39c0 27 -19 39 -68 39c-39 0 -76 -8 -104 -19v94c41 15 93 20 136 20c121 0 157 -56 157 -110c0 -53 -30 -84 -86 -100v-2c75 -13 96 -56 96 -99
c0 -72 -60 -126 -185 -126c-31 0 -78 4 -125 19zM717 720l-433 -742h-93l434 742h92zM576 177h108v149h-1zM798 83v-82h-115v82h-203v90l181 247h137v-242h57v-95h-57z" />
    <glyph glyph-name="questiondown" unicode="&#xbf;" horiz-adv-x="502" 
d="M218 266v12h146v-18c0 -145 -146 -166 -146 -253c0 -47 35 -73 102 -73c55 0 97 10 148 34v-141c-52 -23 -122 -33 -202 -33c-181 0 -234 90 -234 178c0 170 186 176 186 294zM193 430c0 56 35 89 98 89c60 0 97 -34 97 -89c0 -56 -33 -89 -97 -89c-60 0 -98 34 -98 89z
" />
    <glyph glyph-name="Agrave" unicode="&#xc0;" horiz-adv-x="694" 
d="M521 0l-45 146h-262l-45 -146h-163l232 700h222l229 -700h-168zM345 574l-87 -285h174zM325 928l94 -158h-118l-169 158h193z" />
    <glyph glyph-name="Aacute" unicode="&#xc1;" horiz-adv-x="694" 
d="M521 0l-45 146h-262l-45 -146h-163l232 700h222l229 -700h-168zM345 574l-87 -285h174zM568 928l-169 -158h-118l94 158h193z" />
    <glyph glyph-name="Acircumflex" unicode="&#xc2;" horiz-adv-x="694" 
d="M521 0l-45 146h-262l-45 -146h-163l232 700h222l229 -700h-168zM345 574l-87 -285h174zM429 918l119 -148h-125l-75 75l-74 -75h-125l118 148h162z" />
    <glyph glyph-name="Atilde" unicode="&#xc3;" horiz-adv-x="694" 
d="M521 0l-45 146h-262l-45 -146h-163l232 700h222l229 -700h-168zM345 574l-87 -285h174zM470 920l80 -12c-5 -87 -50 -136 -111 -136c-33 0 -55 7 -94 26c-31 12 -45 24 -68 24c-19 0 -35 -17 -39 -50l-81 12c4 91 47 136 110 136c33 0 61 -12 93 -27
c36 -16 51 -22 70 -22c23 0 36 16 40 49z" />
    <glyph glyph-name="Adieresis" unicode="&#xc4;" horiz-adv-x="694" 
d="M521 0l-45 146h-262l-45 -146h-163l232 700h222l229 -700h-168zM345 574l-87 -285h174zM552 842c0 -47 -27 -75 -82 -75c-57 0 -86 28 -86 75s29 74 85 74s83 -27 83 -74zM309 842c0 -47 -27 -75 -86 -75c-52 0 -82 28 -82 75s30 74 82 74c59 0 86 -27 86 -74z" />
    <glyph glyph-name="Aring" unicode="&#xc5;" horiz-adv-x="694" 
d="M521 0l-45 146h-262l-45 -146h-163l232 700h222l229 -700h-168zM345 574l-87 -285h174zM347 831c29 0 52 22 52 50c0 27 -23 50 -52 50c-27 0 -48 -23 -48 -50c0 -28 21 -50 48 -50zM347 755c-70 0 -124 54 -124 126c0 68 54 125 124 125c72 0 127 -57 127 -125
c0 -72 -55 -126 -127 -126z" />
    <glyph glyph-name="AE" unicode="&#xc6;" horiz-adv-x="1021" 
d="M346 289h169v279h-2zM979 144v-144h-464v146h-253l-88 -146h-169l427 700h547v-144h-299v-133h261v-133h-261v-146h299z" />
    <glyph glyph-name="Ccedilla" unicode="&#xc7;" horiz-adv-x="621" 
d="M273 -248l12 70c19 -9 41 -13 65 -13c32 0 61 13 61 42c0 31 -33 38 -64 38c-11 0 -24 1 -35 -2l16 104c-195 23 -288 143 -288 350c0 240 115 372 370 372c80 0 136 -17 168 -26v-152c-44 16 -104 26 -143 26c-149 0 -220 -58 -220 -211c0 -145 71 -210 220 -210
c51 0 93 9 144 32v-154c-35 -16 -89 -28 -165 -31l-7 -41c59 0 119 -27 119 -98c0 -68 -65 -113 -148 -113c-47 0 -77 6 -105 17z" />
    <glyph glyph-name="Egrave" unicode="&#xc8;" horiz-adv-x="568" 
d="M526 144v-144h-463v700h463v-144h-298v-133h260v-133h-260v-146h298zM263 928l94 -158h-118l-169 158h193z" />
    <glyph glyph-name="Eacute" unicode="&#xc9;" horiz-adv-x="568" 
d="M526 144v-144h-463v700h463v-144h-298v-133h260v-133h-260v-146h298zM504 928l-169 -158h-118l94 158h193z" />
    <glyph glyph-name="Ecircumflex" unicode="&#xca;" horiz-adv-x="568" 
d="M526 144v-144h-463v700h463v-144h-298v-133h260v-133h-260v-146h298zM367 918l119 -148h-125l-75 75l-74 -75h-125l118 148h162z" />
    <glyph glyph-name="Edieresis" unicode="&#xcb;" horiz-adv-x="568" 
d="M526 144v-144h-463v700h463v-144h-298v-133h260v-133h-260v-146h298zM496 842c0 -47 -27 -75 -82 -75c-57 0 -86 28 -86 75s29 74 85 74s83 -27 83 -74zM253 842c0 -47 -27 -75 -86 -75c-52 0 -82 28 -82 75s30 74 82 74c59 0 86 -27 86 -74z" />
    <glyph glyph-name="Igrave" unicode="&#xcc;" horiz-adv-x="290" 
d="M228 700v-700h-165v700h165zM116 928l94 -158h-118l-169 158h193z" />
    <glyph glyph-name="Iacute" unicode="&#xcd;" horiz-adv-x="290" 
d="M228 700v-700h-165v700h165zM369 928l-169 -158h-118l94 158h193z" />
    <glyph glyph-name="Icircumflex" unicode="&#xce;" horiz-adv-x="290" 
d="M228 700v-700h-165v700h165zM227 918l119 -148h-125l-75 75l-74 -75h-125l118 148h162z" />
    <glyph glyph-name="Idieresis" unicode="&#xcf;" horiz-adv-x="290" 
d="M228 700v-700h-165v700h165zM352 842c0 -47 -27 -75 -82 -75c-57 0 -86 28 -86 75s29 74 85 74s83 -27 83 -74zM109 842c0 -47 -27 -75 -86 -75c-52 0 -82 28 -82 75s30 74 82 74c59 0 86 -27 86 -74z" />
    <glyph glyph-name="Eth" unicode="&#xd0;" horiz-adv-x="752" 
d="M104 0v294h-86v128h86v278h253c271 0 355 -122 355 -337c0 -241 -116 -363 -369 -363h-239zM409 294h-140v-150h70c147 0 203 67 203 212c0 141 -50 200 -194 200h-79v-134h140v-128z" />
    <glyph glyph-name="Ntilde" unicode="&#xd1;" horiz-adv-x="726" 
d="M664 700v-700h-178l-263 470v-470h-160v700h188l253 -456v456h160zM486 920l80 -12c-5 -87 -50 -136 -111 -136c-33 0 -55 7 -94 26c-31 12 -45 24 -68 24c-19 0 -35 -17 -39 -50l-81 12c4 91 47 136 110 136c33 0 61 -12 93 -27c36 -16 51 -22 70 -22c23 0 36 16 40 49z
" />
    <glyph glyph-name="Ograve" unicode="&#xd2;" horiz-adv-x="768" 
d="M390 132c109 0 163 69 163 218s-55 219 -172 219c-108 0 -166 -72 -166 -219c0 -148 63 -218 175 -218zM386 -13c-224 0 -346 126 -346 363c0 236 129 363 341 363c236 0 347 -137 347 -363c0 -251 -131 -363 -342 -363zM362 928l94 -158h-118l-169 158h193z" />
    <glyph glyph-name="Oacute" unicode="&#xd3;" horiz-adv-x="768" 
d="M390 132c109 0 163 69 163 218s-55 219 -172 219c-108 0 -166 -72 -166 -219c0 -148 63 -218 175 -218zM386 -13c-224 0 -346 126 -346 363c0 236 129 363 341 363c236 0 347 -137 347 -363c0 -251 -131 -363 -342 -363zM608 928l-169 -158h-118l94 158h193z" />
    <glyph glyph-name="Ocircumflex" unicode="&#xd4;" horiz-adv-x="768" 
d="M390 132c109 0 163 69 163 218s-55 219 -172 219c-108 0 -166 -72 -166 -219c0 -148 63 -218 175 -218zM386 -13c-224 0 -346 126 -346 363c0 236 129 363 341 363c236 0 347 -137 347 -363c0 -251 -131 -363 -342 -363zM465 918l119 -148h-125l-75 75l-74 -75h-125
l118 148h162z" />
    <glyph glyph-name="Otilde" unicode="&#xd5;" horiz-adv-x="768" 
d="M390 132c109 0 163 69 163 218s-55 219 -172 219c-108 0 -166 -72 -166 -219c0 -148 63 -218 175 -218zM386 -13c-224 0 -346 126 -346 363c0 236 129 363 341 363c236 0 347 -137 347 -363c0 -251 -131 -363 -342 -363zM506 920l80 -12c-5 -87 -50 -136 -111 -136
c-33 0 -55 7 -94 26c-31 12 -45 24 -68 24c-19 0 -35 -17 -39 -50l-81 12c4 91 47 136 110 136c33 0 61 -12 93 -27c36 -16 51 -22 70 -22c23 0 36 16 40 49z" />
    <glyph glyph-name="Odieresis" unicode="&#xd6;" horiz-adv-x="768" 
d="M390 132c109 0 163 69 163 218s-55 219 -172 219c-108 0 -166 -72 -166 -219c0 -148 63 -218 175 -218zM386 -13c-224 0 -346 126 -346 363c0 236 129 363 341 363c236 0 347 -137 347 -363c0 -251 -131 -363 -342 -363zM589 842c0 -47 -27 -75 -82 -75
c-57 0 -86 28 -86 75s29 74 85 74s83 -27 83 -74zM346 842c0 -47 -27 -75 -86 -75c-52 0 -82 28 -82 75s30 74 82 74c59 0 86 -27 86 -74z" />
    <glyph glyph-name="multiply" unicode="&#xd7;" horiz-adv-x="559" 
d="M55 465l85 85l140 -141l140 141l85 -85l-141 -140l141 -140l-85 -85l-140 141l-140 -141l-85 85l141 140z" />
    <glyph glyph-name="Oslash" unicode="&#xd8;" horiz-adv-x="768" 
d="M386 -13c-74 0 -137 14 -189 42l-57 -76l-70 52l58 77c-57 61 -88 151 -88 268c0 236 129 363 341 363c79 0 142 -16 194 -44l59 78l67 -53l-59 -78c59 -63 86 -153 86 -266c0 -251 -131 -363 -342 -363zM213 350c0 -51 8 -93 23 -127l244 321c-25 17 -58 25 -99 25
c-108 0 -168 -72 -168 -219zM390 132c109 0 166 69 166 218c0 50 -7 92 -21 125l-241 -319c26 -16 58 -24 96 -24z" />
    <glyph glyph-name="Ugrave" unicode="&#xd9;" horiz-adv-x="694" 
d="M472 313v387h165v-410c0 -219 -103 -303 -290 -303c-176 0 -289 77 -289 304v409h165v-387c0 -117 25 -174 124 -174c104 0 125 58 125 174zM336 928l94 -158h-118l-169 158h193z" />
    <glyph glyph-name="Uacute" unicode="&#xda;" horiz-adv-x="694" 
d="M472 313v387h165v-410c0 -219 -103 -303 -290 -303c-176 0 -289 77 -289 304v409h165v-387c0 -117 25 -174 124 -174c104 0 125 58 125 174zM571 928l-169 -158h-118l94 158h193z" />
    <glyph glyph-name="Ucircumflex" unicode="&#xdb;" horiz-adv-x="694" 
d="M472 313v387h165v-410c0 -219 -103 -303 -290 -303c-176 0 -289 77 -289 304v409h165v-387c0 -117 25 -174 124 -174c104 0 125 58 125 174zM429 918l119 -148h-125l-75 75l-74 -75h-125l118 148h162z" />
    <glyph glyph-name="Udieresis" unicode="&#xdc;" horiz-adv-x="694" 
d="M472 313v387h165v-410c0 -219 -103 -303 -290 -303c-176 0 -289 77 -289 304v409h165v-387c0 -117 25 -174 124 -174c104 0 125 58 125 174zM552 842c0 -47 -27 -75 -82 -75c-57 0 -86 28 -86 75s29 74 85 74s83 -27 83 -74zM309 842c0 -47 -27 -75 -86 -75
c-52 0 -82 28 -82 75s30 74 82 74c59 0 86 -27 86 -74z" />
    <glyph glyph-name="Yacute" unicode="&#xdd;" horiz-adv-x="647" 
d="M407 260v-260h-165v260l-243 440h191l136 -255l132 255h190zM547 928l-169 -158h-118l94 158h193z" />
    <glyph glyph-name="Thorn" unicode="&#xde;" horiz-adv-x="625" 
d="M224 468v-189h81c84 0 120 28 120 95c0 69 -35 94 -122 94h-79zM228 135v-143h-165v716h165v-96h91c181 0 276 -71 276 -232c0 -159 -90 -245 -290 -245h-77z" />
    <glyph glyph-name="germandbls" unicode="&#xdf;" horiz-adv-x="628" 
d="M273 1v115c17 -5 39 -9 66 -9c63 0 102 33 102 113c0 91 -51 111 -115 111h-41v114h33c56 0 91 29 91 101c0 67 -43 91 -96 91c-85 0 -109 -62 -109 -142v-495h-149v492c0 171 77 266 268 266c157 0 240 -78 240 -194c0 -94 -52 -144 -116 -165v-3
c82 -13 149 -67 149 -186c0 -117 -71 -220 -231 -220c-37 0 -64 3 -92 11z" />
    <glyph glyph-name="agrave" unicode="&#xe0;" horiz-adv-x="560" 
d="M359 192v25c-19 3 -37 6 -76 6c-77 0 -101 -22 -101 -57s23 -61 79 -61c67 0 98 34 98 87zM508 310v-310h-139v73h-2c-21 -40 -71 -82 -161 -82c-109 0 -176 58 -176 158c0 108 73 157 232 157c44 0 80 -5 97 -8v23c0 52 -26 77 -109 77c-64 0 -131 -19 -171 -39v124
c43 19 113 39 197 39c165 0 232 -57 232 -212zM274 740l89 -147h-113l-156 147h180z" />
    <glyph glyph-name="aacute" unicode="&#xe1;" horiz-adv-x="560" 
d="M359 192v25c-19 3 -37 6 -76 6c-77 0 -101 -22 -101 -57s23 -61 79 -61c67 0 98 34 98 87zM508 310v-310h-139v73h-2c-21 -40 -71 -82 -161 -82c-109 0 -176 58 -176 158c0 108 73 157 232 157c44 0 80 -5 97 -8v23c0 52 -26 77 -109 77c-64 0 -131 -19 -171 -39v124
c43 19 113 39 197 39c165 0 232 -57 232 -212zM492 740l-156 -147h-113l89 147h180z" />
    <glyph glyph-name="acircumflex" unicode="&#xe2;" horiz-adv-x="560" 
d="M359 192v25c-19 3 -37 6 -76 6c-77 0 -101 -22 -101 -57s23 -61 79 -61c67 0 98 34 98 87zM508 310v-310h-139v73h-2c-21 -40 -71 -82 -161 -82c-109 0 -176 58 -176 158c0 108 73 157 232 157c44 0 80 -5 97 -8v23c0 52 -26 77 -109 77c-64 0 -131 -19 -171 -39v124
c43 19 113 39 197 39c165 0 232 -57 232 -212zM358 737l112 -147h-113l-72 77l-72 -77h-114l112 147h147z" />
    <glyph glyph-name="atilde" unicode="&#xe3;" horiz-adv-x="560" 
d="M359 192v25c-19 3 -37 6 -76 6c-77 0 -101 -22 -101 -57s23 -61 79 -61c67 0 98 34 98 87zM508 310v-310h-139v73h-2c-21 -40 -71 -82 -161 -82c-109 0 -176 58 -176 158c0 108 73 157 232 157c44 0 80 -5 97 -8v23c0 52 -26 77 -109 77c-64 0 -131 -19 -171 -39v124
c43 19 113 39 197 39c165 0 232 -57 232 -212zM394 729l76 -12c-5 -79 -46 -125 -106 -125c-31 0 -52 8 -89 24c-29 12 -44 22 -65 22c-17 0 -34 -15 -37 -46l-78 12c4 83 46 125 106 125c31 0 58 -11 89 -24c35 -15 47 -21 66 -21c21 0 34 15 38 45z" />
    <glyph glyph-name="adieresis" unicode="&#xe4;" horiz-adv-x="560" 
d="M359 192v25c-19 3 -37 6 -76 6c-77 0 -101 -22 -101 -57s23 -61 79 -61c67 0 98 34 98 87zM508 310v-310h-139v73h-2c-21 -40 -71 -82 -161 -82c-109 0 -176 58 -176 158c0 108 73 157 232 157c44 0 80 -5 97 -8v23c0 52 -26 77 -109 77c-64 0 -131 -19 -171 -39v124
c43 19 113 39 197 39c165 0 232 -57 232 -212zM474 667c0 -47 -26 -73 -81 -73c-53 0 -81 28 -81 73c0 44 29 71 81 71c55 0 81 -26 81 -71zM250 667c0 -47 -26 -73 -81 -73c-53 0 -81 27 -81 72s29 72 81 72c55 0 81 -26 81 -71z" />
    <glyph glyph-name="aring" unicode="&#xe5;" horiz-adv-x="560" 
d="M359 192v25c-19 3 -37 6 -76 6c-77 0 -101 -22 -101 -57s23 -61 79 -61c67 0 98 34 98 87zM508 310v-310h-139v73h-2c-21 -40 -71 -82 -161 -82c-109 0 -176 58 -176 158c0 108 73 157 232 157c44 0 80 -5 97 -8v23c0 52 -26 77 -109 77c-64 0 -131 -19 -171 -39v124
c43 19 113 39 197 39c165 0 232 -57 232 -212zM283 638c27 0 48 21 48 48s-21 48 -48 48c-29 0 -48 -21 -48 -48s19 -48 48 -48zM283 569c-68 0 -118 49 -118 117c0 65 51 117 118 117s118 -52 118 -117c0 -67 -51 -117 -118 -117z" />
    <glyph glyph-name="ae" unicode="&#xe6;" horiz-adv-x="901" 
d="M838 145v-114c-27 -21 -101 -42 -189 -42c-112 0 -180 28 -227 88c-63 -71 -144 -88 -207 -88c-119 0 -185 60 -185 160c0 108 73 158 232 158c44 0 80 -5 97 -8v22c0 52 -26 77 -109 77c-64 0 -131 -19 -171 -39v124c43 19 113 39 197 39c85 0 141 -18 177 -59
c43 39 100 59 170 59c186 0 249 -117 249 -261v-40h-359c11 -79 57 -114 154 -114c76 0 136 17 171 38zM359 192v26c-19 3 -37 6 -76 6c-77 0 -101 -23 -101 -58s23 -61 79 -61c67 0 98 34 98 87zM512 306h210c0 61 -29 102 -97 102s-102 -34 -113 -102z" />
    <glyph glyph-name="ccedilla" unicode="&#xe7;" horiz-adv-x="507" 
d="M203 -224l11 63c18 -8 37 -12 58 -12c28 0 53 13 53 40c0 29 -30 35 -57 35c-9 0 -22 0 -31 -1l14 91c-156 19 -218 120 -218 267c0 157 87 263 275 263c87 0 132 -17 162 -28v-124c-35 13 -72 26 -135 26c-93 0 -147 -38 -147 -133c0 -100 52 -148 165 -148
c52 0 96 13 124 28v-123c-27 -12 -73 -29 -149 -32l-7 -38c53 0 106 -24 106 -89c0 -60 -52 -100 -128 -100c-37 0 -71 6 -96 15z" />
    <glyph glyph-name="egrave" unicode="&#xe8;" horiz-adv-x="574" 
d="M511 145v-114c-27 -21 -101 -43 -189 -43c-203 0 -289 97 -289 274c0 161 96 260 263 260c186 0 249 -117 249 -261v-39h-359c11 -80 57 -115 154 -115c76 0 136 17 171 38zM186 307h209c1 59 -29 101 -97 101c-65 0 -103 -34 -112 -101zM270 740l89 -147h-113l-156 147
h180z" />
    <glyph glyph-name="eacute" unicode="&#xe9;" horiz-adv-x="574" 
d="M511 145v-114c-27 -21 -101 -43 -189 -43c-203 0 -289 97 -289 274c0 161 96 260 263 260c186 0 249 -117 249 -261v-39h-359c11 -80 57 -115 154 -115c76 0 136 17 171 38zM186 307h209c1 59 -29 101 -97 101c-65 0 -103 -34 -112 -101zM503 740l-156 -147h-113l89 147
h180z" />
    <glyph glyph-name="ecircumflex" unicode="&#xea;" horiz-adv-x="574" 
d="M511 145v-114c-27 -21 -101 -43 -189 -43c-203 0 -289 97 -289 274c0 161 96 260 263 260c186 0 249 -117 249 -261v-39h-359c11 -80 57 -115 154 -115c76 0 136 17 171 38zM186 307h209c1 59 -29 101 -97 101c-65 0 -103 -34 -112 -101zM367 737l112 -147h-113l-72 77
l-72 -77h-114l112 147h147z" />
    <glyph glyph-name="edieresis" unicode="&#xeb;" horiz-adv-x="574" 
d="M511 145v-114c-27 -21 -101 -43 -189 -43c-203 0 -289 97 -289 274c0 161 96 260 263 260c186 0 249 -117 249 -261v-39h-359c11 -80 57 -115 154 -115c76 0 136 17 171 38zM186 307h209c1 59 -29 101 -97 101c-65 0 -103 -34 -112 -101zM487 667c0 -47 -26 -73 -81 -73
c-53 0 -81 28 -81 73c0 44 29 71 81 71c55 0 81 -26 81 -71zM263 667c0 -47 -26 -73 -81 -73c-53 0 -81 27 -81 72s29 72 81 72c55 0 81 -26 81 -71z" />
    <glyph glyph-name="igrave" unicode="&#xec;" horiz-adv-x="264" 
d="M207 510v-510h-149v510h149zM102 740l89 -147h-113l-156 147h180z" />
    <glyph glyph-name="iacute" unicode="&#xed;" horiz-adv-x="264" 
d="M207 510v-510h-149v510h149zM343 740l-156 -147h-113l89 147h180z" />
    <glyph glyph-name="icircumflex" unicode="&#xee;" horiz-adv-x="264" 
d="M207 510v-510h-149v510h149zM207 737l112 -147h-113l-72 77l-72 -77h-114l112 147h147z" />
    <glyph glyph-name="idieresis" unicode="&#xef;" horiz-adv-x="264" 
d="M207 510v-510h-149v510h149zM326 667c0 -47 -26 -73 -81 -73c-53 0 -81 28 -81 73c0 44 29 71 81 71c55 0 81 -26 81 -71zM102 667c0 -47 -26 -73 -81 -73c-53 0 -81 27 -81 72s29 72 81 72c55 0 81 -26 81 -71z" />
    <glyph glyph-name="eth" unicode="&#xf0;" horiz-adv-x="612" 
d="M507 693l-96 -48c121 -111 168 -242 168 -381c0 -215 -154 -276 -282 -276c-193 0 -264 107 -264 258c0 160 86 251 239 251c40 0 86 -7 131 -50l3 2c-15 45 -47 91 -112 138l-121 -60l-31 61l77 38c-47 19 -90 29 -122 36l54 96c63 -11 127 -34 194 -69l131 65zM306 110
c79 0 118 41 118 138c0 88 -38 139 -118 139c-76 0 -118 -42 -118 -139c0 -96 46 -138 118 -138z" />
    <glyph glyph-name="ntilde" unicode="&#xf1;" horiz-adv-x="605" 
d="M554 318v-318h-149v264c0 100 -23 129 -91 129c-77 0 -110 -52 -110 -157v-236h-149v510h149v-71h2c37 57 98 80 166 80c117 0 182 -60 182 -201zM415 729l76 -12c-5 -79 -46 -125 -106 -125c-31 0 -52 8 -89 24c-29 12 -44 22 -65 22c-17 0 -34 -15 -37 -46l-78 12
c4 83 46 125 106 125c31 0 58 -11 89 -24c35 -15 47 -21 66 -21c21 0 34 15 38 45z" />
    <glyph glyph-name="ograve" unicode="&#xf2;" horiz-adv-x="611" 
d="M306 110c79 0 118 45 118 145c0 103 -38 146 -118 146c-76 0 -118 -45 -118 -146c0 -100 46 -145 118 -145zM306 -12c-175 0 -273 84 -273 267c0 175 104 267 273 267c173 0 273 -87 273 -267c0 -175 -98 -267 -273 -267zM283 740l89 -147h-113l-156 147h180z" />
    <glyph glyph-name="oacute" unicode="&#xf3;" horiz-adv-x="611" 
d="M306 110c79 0 118 45 118 145c0 103 -38 146 -118 146c-76 0 -118 -45 -118 -146c0 -100 46 -145 118 -145zM306 -12c-175 0 -273 84 -273 267c0 175 104 267 273 267c173 0 273 -87 273 -267c0 -175 -98 -267 -273 -267zM525 740l-156 -147h-113l89 147h180z" />
    <glyph glyph-name="ocircumflex" unicode="&#xf4;" horiz-adv-x="611" 
d="M306 110c79 0 118 45 118 145c0 103 -38 146 -118 146c-76 0 -118 -45 -118 -146c0 -100 46 -145 118 -145zM306 -12c-175 0 -273 84 -273 267c0 175 104 267 273 267c173 0 273 -87 273 -267c0 -175 -98 -267 -273 -267zM379 737l112 -147h-113l-72 77l-72 -77h-114
l112 147h147z" />
    <glyph glyph-name="otilde" unicode="&#xf5;" horiz-adv-x="611" 
d="M306 110c79 0 118 45 118 145c0 103 -38 146 -118 146c-76 0 -118 -45 -118 -146c0 -100 46 -145 118 -145zM306 -12c-175 0 -273 84 -273 267c0 175 104 267 273 267c173 0 273 -87 273 -267c0 -175 -98 -267 -273 -267zM417 729l76 -12c-5 -79 -46 -125 -106 -125
c-31 0 -52 8 -89 24c-29 12 -44 22 -65 22c-17 0 -34 -15 -37 -46l-78 12c4 83 46 125 106 125c31 0 58 -11 89 -24c35 -15 47 -21 66 -21c21 0 34 15 38 45z" />
    <glyph glyph-name="odieresis" unicode="&#xf6;" horiz-adv-x="611" 
d="M306 110c79 0 118 45 118 145c0 103 -38 146 -118 146c-76 0 -118 -45 -118 -146c0 -100 46 -145 118 -145zM306 -12c-175 0 -273 84 -273 267c0 175 104 267 273 267c173 0 273 -87 273 -267c0 -175 -98 -267 -273 -267zM498 667c0 -47 -26 -73 -81 -73
c-53 0 -81 28 -81 73c0 44 29 71 81 71c55 0 81 -26 81 -71zM274 667c0 -47 -26 -73 -81 -73c-53 0 -81 27 -81 72s29 72 81 72c55 0 81 -26 81 -71z" />
    <glyph glyph-name="divide" unicode="&#xf7;" horiz-adv-x="590" 
d="M377 132c0 -51 -29 -80 -81 -80c-51 0 -82 29 -82 80c0 49 30 78 82 78c49 0 81 -30 81 -78zM377 519c0 -51 -29 -79 -81 -79c-51 0 -82 30 -82 79s30 79 82 79c49 0 81 -31 81 -79zM541 265h-491v120h491v-120z" />
    <glyph glyph-name="oslash" unicode="&#xf8;" horiz-adv-x="611" 
d="M53 -15l52 67c-48 45 -72 112 -72 203c0 175 104 267 273 267c55 0 102 -9 142 -27l56 72l55 -42l-53 -69c47 -44 73 -110 73 -201c0 -175 -98 -267 -273 -267c-56 0 -104 9 -144 27l-55 -72zM185 255c0 -32 5 -59 14 -82l168 217c-17 9 -37 13 -61 13
c-76 0 -121 -45 -121 -148zM306 107c79 0 120 47 120 148c0 34 -4 62 -13 83l-168 -217c16 -9 36 -14 61 -14z" />
    <glyph glyph-name="ugrave" unicode="&#xf9;" horiz-adv-x="605" 
d="M52 192v318h149v-264c0 -100 23 -129 91 -129c77 0 110 53 110 157v236h149v-510h-149v72h-2c-37 -57 -98 -81 -166 -81c-117 0 -182 60 -182 201zM290 740l89 -147h-113l-156 147h180z" />
    <glyph glyph-name="uacute" unicode="&#xfa;" horiz-adv-x="605" 
d="M52 192v318h149v-264c0 -100 23 -129 91 -129c77 0 110 53 110 157v236h149v-510h-149v72h-2c-37 -57 -98 -81 -166 -81c-117 0 -182 60 -182 201zM518 740l-156 -147h-113l89 147h180z" />
    <glyph glyph-name="ucircumflex" unicode="&#xfb;" horiz-adv-x="605" 
d="M52 192v318h149v-264c0 -100 23 -129 91 -129c77 0 110 53 110 157v236h149v-510h-149v72h-2c-37 -57 -98 -81 -166 -81c-117 0 -182 60 -182 201zM377 737l112 -147h-113l-72 77l-72 -77h-114l112 147h147z" />
    <glyph glyph-name="udieresis" unicode="&#xfc;" horiz-adv-x="605" 
d="M52 192v318h149v-264c0 -100 23 -129 91 -129c77 0 110 53 110 157v236h149v-510h-149v72h-2c-37 -57 -98 -81 -166 -81c-117 0 -182 60 -182 201zM492 667c0 -47 -26 -73 -81 -73c-53 0 -81 28 -81 73c0 44 29 71 81 71c55 0 81 -26 81 -71zM268 667
c0 -47 -26 -73 -81 -73c-53 0 -81 27 -81 72s29 72 81 72c55 0 81 -26 81 -71z" />
    <glyph glyph-name="yacute" unicode="&#xfd;" horiz-adv-x="542" 
d="M73 -207l3 123c16 -6 32 -9 49 -9c51 0 73 23 88 70l5 15l-213 518h165l121 -345l94 345h152l-171 -505c-54 -156 -100 -224 -218 -224c-27 0 -54 4 -75 12zM491 740l-156 -147h-113l89 147h180z" />
    <glyph glyph-name="thorn" unicode="&#xfe;" horiz-adv-x="626" 
d="M204 63v-273h-149v960h149v-307h2c36 51 96 76 167 76c145 0 221 -81 221 -260c0 -152 -75 -268 -227 -268c-76 0 -132 33 -161 72h-2zM323 112c80 0 114 49 114 149c0 93 -36 137 -117 137c-76 0 -116 -54 -116 -146c0 -88 42 -140 119 -140z" />
    <glyph glyph-name="ydieresis" unicode="&#xff;" horiz-adv-x="542" 
d="M73 -207l3 123c16 -6 32 -9 49 -9c51 0 73 23 88 70l5 15l-213 518h165l121 -345l94 345h152l-171 -505c-54 -156 -100 -224 -218 -224c-27 0 -54 4 -75 12zM468 667c0 -47 -26 -73 -81 -73c-53 0 -81 28 -81 73c0 44 29 71 81 71c55 0 81 -26 81 -71zM244 667
c0 -47 -26 -73 -81 -73c-53 0 -81 27 -81 72s29 72 81 72c55 0 81 -26 81 -71z" />
    <glyph glyph-name="Amacron" unicode="&#x100;" horiz-adv-x="694" 
d="M521 0l-45 146h-262l-45 -146h-163l232 700h222l229 -700h-168zM345 574l-87 -285h174zM530 884v-98h-364v98h364z" />
    <glyph glyph-name="amacron" unicode="&#x101;" horiz-adv-x="560" 
d="M359 192v25c-19 3 -37 6 -76 6c-77 0 -101 -22 -101 -57s23 -61 79 -61c67 0 98 34 98 87zM508 310v-310h-139v73h-2c-21 -40 -71 -82 -161 -82c-109 0 -176 58 -176 158c0 108 73 157 232 157c44 0 80 -5 97 -8v23c0 52 -26 77 -109 77c-64 0 -131 -19 -171 -39v124
c43 19 113 39 197 39c165 0 232 -57 232 -212zM449 709v-95h-332v95h332z" />
    <glyph glyph-name="Abreve" unicode="&#x102;" horiz-adv-x="694" 
d="M521 0l-45 146h-262l-45 -146h-163l232 700h222l229 -700h-168zM345 574l-87 -285h174zM441 924l93 -22c-12 -85 -83 -142 -186 -142c-101 0 -173 57 -186 142l94 22c8 -34 27 -68 92 -68c64 0 85 34 93 68z" />
    <glyph glyph-name="abreve" unicode="&#x103;" horiz-adv-x="560" 
d="M359 192v25c-19 3 -37 6 -76 6c-77 0 -101 -22 -101 -57s23 -61 79 -61c67 0 98 34 98 87zM508 310v-310h-139v73h-2c-21 -40 -71 -82 -161 -82c-109 0 -176 58 -176 158c0 108 73 157 232 157c44 0 80 -5 97 -8v23c0 52 -26 77 -109 77c-64 0 -131 -19 -171 -39v124
c43 19 113 39 197 39c165 0 232 -57 232 -212zM371 748l89 -20c-11 -89 -83 -142 -175 -142c-93 0 -165 55 -176 143l89 19c9 -43 34 -71 87 -71s78 28 86 71z" />
    <glyph glyph-name="Aogonek" unicode="&#x104;" horiz-adv-x="694" 
d="M521 0l-45 146h-262l-45 -146h-163l232 700h222l229 -700h-44c-56 -37 -87 -78 -87 -131c0 -36 26 -55 61 -55c23 0 43 7 62 18v-75c-23 -11 -56 -22 -100 -22c-106 0 -136 59 -136 110c0 64 53 120 114 155h-38zM345 574l-87 -285h174z" />
    <glyph glyph-name="aogonek" unicode="&#x105;" horiz-adv-x="560" 
d="M508 310v-310h-29c-51 -33 -78 -70 -78 -118c0 -33 22 -50 54 -50c20 0 40 5 59 16v-67c-21 -11 -51 -20 -91 -20c-96 0 -125 52 -125 99c0 61 48 111 102 140h-31v73h-2c-21 -40 -71 -82 -161 -82c-109 0 -176 58 -176 158c0 108 73 157 232 157c44 0 80 -5 97 -8v23
c0 52 -26 77 -109 77c-64 0 -131 -19 -171 -39v124c43 19 113 39 197 39c165 0 232 -57 232 -212zM359 192v25c-19 3 -37 6 -76 6c-77 0 -101 -22 -101 -57s23 -61 79 -61c67 0 98 34 98 87z" />
    <glyph glyph-name="Cacute" unicode="&#x106;" horiz-adv-x="621" 
d="M579 172v-154c-37 -17 -97 -31 -182 -31c-241 0 -357 123 -357 354c0 240 115 372 370 372c80 0 136 -17 168 -26v-152c-44 16 -104 26 -143 26c-149 0 -220 -58 -220 -211c0 -145 71 -210 220 -210c51 0 93 9 144 32zM594 928l-169 -158h-118l94 158h193z" />
    <glyph glyph-name="cacute" unicode="&#x107;" horiz-adv-x="507" 
d="M477 143v-123c-28 -13 -79 -32 -164 -32c-202 0 -280 107 -280 271c0 157 87 263 275 263c87 0 132 -17 162 -28v-124c-35 13 -72 26 -135 26c-93 0 -147 -38 -147 -133c0 -100 52 -148 165 -148c52 0 96 13 124 28zM512 740l-156 -147h-113l89 147h180z" />
    <glyph glyph-name="Ccircumflex" unicode="&#x108;" horiz-adv-x="621" 
d="M579 172v-154c-37 -17 -97 -31 -182 -31c-241 0 -357 123 -357 354c0 240 115 372 370 372c80 0 136 -17 168 -26v-152c-44 16 -104 26 -143 26c-149 0 -220 -58 -220 -211c0 -145 71 -210 220 -210c51 0 93 9 144 32zM460 918l119 -148h-125l-75 75l-74 -75h-125
l118 148h162z" />
    <glyph glyph-name="ccircumflex" unicode="&#x109;" horiz-adv-x="507" 
d="M477 143v-123c-28 -13 -79 -32 -164 -32c-202 0 -280 107 -280 271c0 157 87 263 275 263c87 0 132 -17 162 -28v-124c-35 13 -72 26 -135 26c-93 0 -147 -38 -147 -133c0 -100 52 -148 165 -148c52 0 96 13 124 28zM363 737l112 -147h-113l-72 77l-72 -77h-114l112 147
h147z" />
    <glyph glyph-name="Cdotaccent" unicode="&#x10a;" horiz-adv-x="621" 
d="M579 172v-154c-37 -17 -97 -31 -182 -31c-241 0 -357 123 -357 354c0 240 115 372 370 372c80 0 136 -17 168 -26v-152c-44 16 -104 26 -143 26c-149 0 -220 -58 -220 -211c0 -145 71 -210 220 -210c51 0 93 9 144 32zM492 851c0 -53 -32 -83 -95 -83
c-60 0 -93 30 -93 83c0 51 33 80 93 80c63 0 95 -27 95 -80z" />
    <glyph glyph-name="cdotaccent" unicode="&#x10b;" horiz-adv-x="507" 
d="M477 143v-123c-28 -13 -79 -32 -164 -32c-202 0 -280 107 -280 271c0 157 87 263 275 263c87 0 132 -17 162 -28v-124c-35 13 -72 26 -135 26c-93 0 -147 -38 -147 -133c0 -100 52 -148 165 -148c52 0 96 13 124 28zM395 672c0 -51 -30 -78 -90 -78c-57 0 -89 29 -89 78
c0 48 32 76 89 76c60 0 90 -25 90 -76z" />
    <glyph glyph-name="Ccaron" unicode="&#x10c;" horiz-adv-x="621" 
d="M579 172v-154c-37 -17 -97 -31 -182 -31c-241 0 -357 123 -357 354c0 240 115 372 370 372c80 0 136 -17 168 -26v-152c-44 16 -104 26 -143 26c-149 0 -220 -58 -220 -211c0 -145 71 -210 220 -210c51 0 93 9 144 32zM593 918l-119 -148h-162l-118 148h125l74 -75l75 75
h125z" />
    <glyph glyph-name="ccaron" unicode="&#x10d;" horiz-adv-x="507" 
d="M477 143v-123c-28 -13 -79 -32 -164 -32c-202 0 -280 107 -280 271c0 157 87 263 275 263c87 0 132 -17 162 -28v-124c-35 13 -72 26 -135 26c-93 0 -147 -38 -147 -133c0 -100 52 -148 165 -148c52 0 96 13 124 28zM491 737l-112 -147h-147l-112 147h114l71 -77l73 77
h113z" />
    <glyph glyph-name="Dcaron" unicode="&#x10e;" horiz-adv-x="710" 
d="M228 556v-412h69c147 0 204 67 204 212c0 141 -52 200 -195 200h-78zM302 0h-239v700h252c271 0 356 -122 356 -337c0 -241 -116 -363 -369 -363zM501 918l-119 -148h-162l-118 148h125l74 -75l75 75h125z" />
    <glyph glyph-name="dcaron" unicode="&#x10f;" horiz-adv-x="799" 
d="M422 443v307h149v-750h-145v75h-2c-32 -52 -85 -84 -172 -84c-141 0 -219 92 -219 260c0 169 77 268 230 268c81 0 130 -33 157 -76h2zM305 398c-80 0 -115 -49 -115 -145s42 -141 117 -141c76 0 115 51 115 143c0 88 -40 143 -117 143zM812 700l-92 -213h-112l48 213
h156z" />
    <glyph glyph-name="Dcroat" unicode="&#x110;" horiz-adv-x="752" 
d="M104 0v294h-86v128h86v278h253c271 0 355 -122 355 -337c0 -241 -116 -363 -369 -363h-239zM409 294h-140v-150h70c147 0 203 67 203 212c0 141 -50 200 -194 200h-79v-134h140v-128z" />
    <glyph glyph-name="dcroat" unicode="&#x111;" horiz-adv-x="638" 
d="M305 393c-80 0 -115 -47 -115 -143s42 -138 117 -138c77 0 115 47 115 141c0 87 -40 140 -117 140zM422 663v87h149v-87h85v-87h-85v-576h-145v75h-2c-32 -53 -85 -84 -172 -84c-141 0 -219 90 -219 258c0 169 77 265 230 265c81 0 130 -33 157 -76h2v138h-210v87h210z
" />
    <glyph glyph-name="Emacron" unicode="&#x112;" horiz-adv-x="568" 
d="M526 144v-144h-463v700h463v-144h-298v-133h260v-133h-260v-146h298zM468 884v-98h-364v98h364z" />
    <glyph glyph-name="emacron" unicode="&#x113;" horiz-adv-x="574" 
d="M511 145v-114c-27 -21 -101 -43 -189 -43c-203 0 -289 97 -289 274c0 161 96 260 263 260c186 0 249 -117 249 -261v-39h-359c11 -80 57 -115 154 -115c76 0 136 17 171 38zM186 307h209c1 59 -29 101 -97 101c-65 0 -103 -34 -112 -101zM457 709v-95h-332v95h332z" />
    <glyph glyph-name="Edotaccent" unicode="&#x116;" horiz-adv-x="568" 
d="M526 144v-144h-463v700h463v-144h-298v-133h260v-133h-260v-146h298zM379 851c0 -53 -32 -83 -95 -83c-60 0 -93 30 -93 83c0 51 33 80 93 80c63 0 95 -27 95 -80z" />
    <glyph glyph-name="edotaccent" unicode="&#x117;" horiz-adv-x="574" 
d="M511 145v-114c-27 -21 -101 -43 -189 -43c-203 0 -289 97 -289 274c0 161 96 260 263 260c186 0 249 -117 249 -261v-39h-359c11 -80 57 -115 154 -115c76 0 136 17 171 38zM186 307h209c1 59 -29 101 -97 101c-65 0 -103 -34 -112 -101zM381 672c0 -51 -30 -78 -90 -78
c-57 0 -89 29 -89 78c0 48 32 76 89 76c60 0 90 -25 90 -76z" />
    <glyph glyph-name="Eogonek" unicode="&#x118;" horiz-adv-x="568" 
d="M516 -168v-75c-23 -11 -56 -22 -100 -22c-106 0 -136 59 -136 110c0 64 53 120 114 155h-331v700h463v-144h-298v-133h260v-133h-260v-146h298v-144h-46c-56 -37 -87 -78 -87 -131c0 -36 26 -55 61 -55c23 0 43 7 62 18z" />
    <glyph glyph-name="eogonek" unicode="&#x119;" horiz-adv-x="574" 
d="M511 145v-114c-15 -12 -42 -22 -81 -31c-51 -33 -77 -70 -77 -118c0 -33 22 -50 54 -50c20 0 40 5 59 16v-67c-21 -11 -51 -20 -91 -20c-96 0 -125 52 -125 99c0 55 35 97 82 128h-10c-203 0 -289 97 -289 274c0 161 96 260 263 260c186 0 249 -117 249 -261v-39h-359
c11 -80 57 -115 154 -115c76 0 136 17 171 38zM186 307h209c1 59 -29 101 -97 101c-65 0 -103 -34 -112 -101z" />
    <glyph glyph-name="Ecaron" unicode="&#x11a;" horiz-adv-x="568" 
d="M526 144v-144h-463v700h463v-144h-298v-133h260v-133h-260v-146h298zM491 918l-119 -148h-162l-118 148h125l74 -75l75 75h125z" />
    <glyph glyph-name="ecaron" unicode="&#x11b;" horiz-adv-x="574" 
d="M511 145v-114c-27 -21 -101 -43 -189 -43c-203 0 -289 97 -289 274c0 161 96 260 263 260c186 0 249 -117 249 -261v-39h-359c11 -80 57 -115 154 -115c76 0 136 17 171 38zM186 307h209c1 59 -29 101 -97 101c-65 0 -103 -34 -112 -101zM481 737l-112 -147h-147
l-112 147h114l71 -77l73 77h113z" />
    <glyph glyph-name="Gcircumflex" unicode="&#x11c;" horiz-adv-x="691" 
d="M495 146v120h-123v134h269v-359c-49 -27 -130 -54 -230 -54c-248 0 -371 132 -371 354c0 241 114 372 370 372c96 0 154 -15 186 -27v-145c-45 17 -111 24 -163 24c-149 0 -223 -60 -223 -215c0 -151 76 -214 209 -214c27 0 53 3 76 10zM467 918l119 -148h-125l-75 75
l-74 -75h-125l118 148h162z" />
    <glyph glyph-name="gcircumflex" unicode="&#x11d;" horiz-adv-x="626" 
d="M426 439v71h145v-479c0 -192 -131 -250 -291 -250c-74 0 -157 13 -196 29v130c35 -15 96 -33 177 -33c124 0 161 46 161 135v41h-2c-27 -48 -90 -83 -159 -83c-145 0 -228 78 -228 249c0 175 71 270 228 270c80 0 136 -35 163 -80h2zM303 398c-76 0 -113 -43 -113 -139
c0 -92 42 -138 114 -138c76 0 118 53 118 137c0 88 -38 140 -119 140zM391 737l112 -147h-113l-72 77l-72 -77h-114l112 147h147z" />
    <glyph glyph-name="Gbreve" unicode="&#x11e;" horiz-adv-x="691" 
d="M495 146v120h-123v134h269v-359c-49 -27 -130 -54 -230 -54c-248 0 -371 132 -371 354c0 241 114 372 370 372c96 0 154 -15 186 -27v-145c-45 17 -111 24 -163 24c-149 0 -223 -60 -223 -215c0 -151 76 -214 209 -214c27 0 53 3 76 10zM484 924l93 -22
c-12 -85 -83 -142 -186 -142c-101 0 -173 57 -186 142l94 22c8 -34 27 -68 92 -68c64 0 85 34 93 68z" />
    <glyph glyph-name="gbreve" unicode="&#x11f;" horiz-adv-x="626" 
d="M426 439v71h145v-479c0 -192 -131 -250 -291 -250c-74 0 -157 13 -196 29v130c35 -15 96 -33 177 -33c124 0 161 46 161 135v41h-2c-27 -48 -90 -83 -159 -83c-145 0 -228 78 -228 249c0 175 71 270 228 270c80 0 136 -35 163 -80h2zM303 398c-76 0 -113 -43 -113 -139
c0 -92 42 -138 114 -138c76 0 118 53 118 137c0 88 -38 140 -119 140zM388 748l89 -20c-11 -89 -83 -142 -175 -142c-93 0 -165 55 -176 143l89 19c9 -43 34 -71 87 -71s78 28 86 71z" />
    <glyph glyph-name="Gdotaccent" unicode="&#x120;" horiz-adv-x="691" 
d="M495 146v120h-123v134h269v-359c-49 -27 -130 -54 -230 -54c-248 0 -371 132 -371 354c0 241 114 372 370 372c96 0 154 -15 186 -27v-145c-45 17 -111 24 -163 24c-149 0 -223 -60 -223 -215c0 -151 76 -214 209 -214c27 0 53 3 76 10zM493 851c0 -53 -32 -83 -95 -83
c-60 0 -93 30 -93 83c0 51 33 80 93 80c63 0 95 -27 95 -80z" />
    <glyph glyph-name="gdotaccent" unicode="&#x121;" horiz-adv-x="626" 
d="M426 439v71h145v-479c0 -192 -131 -250 -291 -250c-74 0 -157 13 -196 29v130c35 -15 96 -33 177 -33c124 0 161 46 161 135v41h-2c-27 -48 -90 -83 -159 -83c-145 0 -228 78 -228 249c0 175 71 270 228 270c80 0 136 -35 163 -80h2zM303 398c-76 0 -113 -43 -113 -139
c0 -92 42 -138 114 -138c76 0 118 53 118 137c0 88 -38 140 -119 140zM395 672c0 -51 -30 -78 -90 -78c-57 0 -89 29 -89 78c0 48 32 76 89 76c60 0 90 -25 90 -76z" />
    <glyph glyph-name="Gcommaaccent" unicode="&#x122;" horiz-adv-x="691" 
d="M495 146v120h-123v134h269v-359c-49 -27 -130 -54 -230 -54c-248 0 -371 132 -371 354c0 241 114 372 370 372c96 0 154 -15 186 -27v-145c-45 17 -111 24 -163 24c-149 0 -223 -60 -223 -215c0 -151 76 -214 209 -214c27 0 53 3 76 10zM327 -239v55c43 -3 78 3 83 34
c-63 -7 -102 11 -102 50c0 33 35 55 88 55c56 0 94 -28 94 -84c0 -69 -63 -118 -163 -110z" />
    <glyph glyph-name="gcommaaccent" unicode="&#x123;" horiz-adv-x="626" 
d="M426 439v71h145v-479c0 -192 -131 -250 -291 -250c-74 0 -157 13 -196 29v130c35 -15 96 -33 177 -33c124 0 161 46 161 135v41h-2c-27 -48 -90 -83 -159 -83c-145 0 -228 78 -228 249c0 175 71 270 228 270c80 0 136 -35 163 -80h2zM303 398c-76 0 -113 -43 -113 -139
c0 -92 42 -138 114 -138c76 0 118 53 118 137c0 88 -38 140 -119 140zM353 750v-55c-43 3 -77 -3 -82 -34c61 7 101 -11 101 -50c0 -33 -34 -55 -87 -55c-56 0 -95 28 -95 84c0 69 63 118 163 110z" />
    <glyph glyph-name="Hcircumflex" unicode="&#x124;" horiz-adv-x="729" 
d="M667 700v-700h-165v285h-274v-285h-165v700h165v-268h274v268h165zM446 918l119 -148h-125l-75 75l-74 -75h-125l118 148h162z" />
    <glyph glyph-name="hcircumflex" unicode="&#x125;" horiz-adv-x="605" 
d="M554 318v-318h-149v264c0 100 -23 129 -91 129c-77 0 -110 -52 -110 -157v-236h-149v750h149v-311h2c37 57 98 80 166 80c120 0 182 -60 182 -201zM206 945l112 -147h-113l-72 77l-72 -77h-114l112 147h147z" />
    <glyph glyph-name="Hbar" unicode="&#x126;" horiz-adv-x="779" 
d="M253 422h274v83h-274v-83zM692 505v-505h-165v275h-274v-275h-165v505h-73v104h73v91h165v-91h274v91h165v-91h72v-104h-72z" />
    <glyph glyph-name="hbar" unicode="&#x127;" horiz-adv-x="609" 
d="M559 313v-313h-149v259c0 100 -23 129 -91 129c-77 0 -110 -52 -110 -157v-231h-149v576h-85v87h85v87h149v-87h210v-87h-210v-142h2c37 57 98 80 166 80c117 0 182 -60 182 -201z" />
    <glyph glyph-name="Imacron" unicode="&#x12a;" horiz-adv-x="290" 
d="M228 700v-700h-165v700h165zM328 884v-98h-364v98h364z" />
    <glyph glyph-name="imacron" unicode="&#x12b;" horiz-adv-x="264" 
d="M207 510v-510h-149v510h149zM300 709v-95h-332v95h332z" />
    <glyph glyph-name="Iogonek" unicode="&#x12e;" horiz-adv-x="290" 
d="M231 -168v-75c-23 -11 -56 -22 -100 -22c-106 0 -136 59 -136 110c0 64 53 120 114 155h-46v700h165v-700h-33c-56 -37 -87 -78 -87 -131c0 -36 26 -55 61 -55c23 0 43 7 62 18z" />
    <glyph glyph-name="iogonek" unicode="&#x12f;" horiz-adv-x="264" 
d="M207 510v-510h-31c-51 -33 -78 -70 -78 -118c0 -33 22 -50 53 -50c21 0 41 5 59 16v-67c-21 -11 -51 -20 -90 -20c-96 0 -126 52 -126 99c0 61 48 111 102 140h-38v510h149zM222 672c0 -51 -30 -78 -90 -78c-57 0 -89 29 -89 78c0 48 32 76 89 76c60 0 90 -25 90 -76z
" />
    <glyph glyph-name="Idotaccent" unicode="&#x130;" horiz-adv-x="290" 
d="M228 700v-700h-165v700h165zM241 851c0 -53 -32 -83 -95 -83c-60 0 -93 30 -93 83c0 51 33 80 93 80c63 0 95 -27 95 -80z" />
    <glyph glyph-name="dotlessi" unicode="&#x131;" horiz-adv-x="264" 
d="M207 510v-510h-149v510h149z" />
    <glyph glyph-name="Jcircumflex" unicode="&#x134;" horiz-adv-x="439" 
d="M30 5v149c31 -9 50 -12 73 -12c71 0 109 23 109 111v447h165v-479c0 -155 -69 -231 -230 -231c-60 0 -93 7 -117 15zM371 918l119 -148h-125l-75 75l-74 -75h-125l118 148h162z" />
    <glyph glyph-name="jcircumflex" unicode="&#x135;" horiz-adv-x="265" 
d="M-56 -213l2 127c11 -3 23 -4 38 -4c41 0 76 11 76 91v509h149v-503c0 -149 -57 -226 -196 -226c-32 0 -54 3 -69 6zM207 737l112 -147h-113l-72 77l-72 -77h-114l112 147h147z" />
    <glyph glyph-name="Kcommaaccent" unicode="&#x136;" horiz-adv-x="674" 
d="M228 700v-324l236 324h190l-256 -327l274 -373h-198l-246 345v-345h-165v700h165zM270 -239v55c43 -3 78 3 83 34c-63 -7 -102 11 -102 50c0 33 35 55 88 55c56 0 94 -28 94 -84c0 -69 -63 -118 -163 -110z" />
    <glyph glyph-name="kcommaaccent" unicode="&#x137;" horiz-adv-x="564" 
d="M204 750v-458l169 218h170l-189 -229l209 -281h-172l-187 262v-262h-149v750h149zM214 -239v55c43 -3 77 3 82 34c-61 -7 -101 11 -101 50c0 33 34 55 87 55c56 0 95 -28 95 -84c0 -69 -63 -118 -163 -110z" />
    <glyph glyph-name="Lacute" unicode="&#x139;" horiz-adv-x="537" 
d="M507 152v-152h-444v700h165v-548h279zM374 928l-169 -158h-118l94 158h193z" />
    <glyph glyph-name="lacute" unicode="&#x13a;" horiz-adv-x="259" 
d="M204 750v-750h-149v750h149zM335 959l-156 -147h-113l89 147h180z" />
    <glyph glyph-name="Lcommaaccent" unicode="&#x13b;" horiz-adv-x="537" 
d="M507 152v-152h-444v700h165v-548h279zM199 -239v55c43 -3 78 3 83 34c-63 -7 -102 11 -102 50c0 33 35 55 88 55c56 0 94 -28 94 -84c0 -69 -63 -118 -163 -110z" />
    <glyph glyph-name="lcommaaccent" unicode="&#x13c;" horiz-adv-x="259" 
d="M204 750v-750h-149v750h149zM62 -239v55c43 -3 77 3 82 34c-61 -7 -101 11 -101 50c0 33 34 55 87 55c56 0 95 -28 95 -84c0 -69 -63 -118 -163 -110z" />
    <glyph glyph-name="Lcaron" unicode="&#x13d;" horiz-adv-x="546" 
d="M507 152v-152h-444v700h165v-548h279zM526 700l-92 -213h-112l48 213h156z" />
    <glyph glyph-name="lcaron" unicode="&#x13e;" horiz-adv-x="432" 
d="M204 750v-750h-149v750h149zM446 700l-92 -213h-112l48 213h156z" />
    <glyph glyph-name="Ldot" unicode="&#x13f;" horiz-adv-x="549" 
d="M507 152v-152h-444v700h165v-548h279zM519 369c0 -56 -31 -89 -90 -89c-56 0 -91 33 -91 89c0 55 32 88 91 88c56 0 90 -35 90 -88z" />
    <glyph glyph-name="ldot" unicode="&#x140;" horiz-adv-x="436" 
d="M204 750v-750h-149v750h149zM438 359c0 -56 -31 -89 -90 -89c-56 0 -91 33 -91 89c0 55 32 88 91 88c56 0 90 -35 90 -88z" />
    <glyph glyph-name="Lslash" unicode="&#x141;" horiz-adv-x="586" 
d="M436 441l-152 -95v-194h280v-152h-445v243l-102 -63v107l102 63v350h165v-247l152 94v-106z" />
    <glyph glyph-name="lslash" unicode="&#x142;" horiz-adv-x="360" 
d="M106 0v309l-88 -57v96l88 57v345h149v-248l88 57v-96l-88 -57v-406h-149z" />
    <glyph glyph-name="Nacute" unicode="&#x143;" horiz-adv-x="726" 
d="M664 700v-700h-178l-263 470v-470h-160v700h188l253 -456v456h160zM587 928l-169 -158h-118l94 158h193z" />
    <glyph glyph-name="nacute" unicode="&#x144;" horiz-adv-x="605" 
d="M554 318v-318h-149v264c0 100 -23 129 -91 129c-77 0 -110 -52 -110 -157v-236h-149v510h149v-71h2c37 57 98 80 166 80c117 0 182 -60 182 -201zM513 740l-156 -147h-113l89 147h180z" />
    <glyph glyph-name="Ncommaaccent" unicode="&#x145;" horiz-adv-x="726" 
d="M664 700v-700h-178l-263 470v-470h-160v700h188l253 -456v456h160zM295 -239v55c43 -3 78 3 83 34c-63 -7 -102 11 -102 50c0 33 35 55 88 55c56 0 94 -28 94 -84c0 -69 -63 -118 -163 -110z" />
    <glyph glyph-name="ncommaaccent" unicode="&#x146;" horiz-adv-x="605" 
d="M554 318v-318h-149v264c0 100 -23 129 -91 129c-77 0 -110 -52 -110 -157v-236h-149v510h149v-71h2c37 57 98 80 166 80c117 0 182 -60 182 -201zM233 -239v55c43 -3 77 3 82 34c-61 -7 -101 11 -101 50c0 33 34 55 87 55c56 0 95 -28 95 -84c0 -69 -63 -118 -163 -110z
" />
    <glyph glyph-name="Ncaron" unicode="&#x147;" horiz-adv-x="726" 
d="M664 700v-700h-178l-263 470v-470h-160v700h188l253 -456v456h160zM567 918l-119 -148h-162l-118 148h125l74 -75l75 75h125z" />
    <glyph glyph-name="ncaron" unicode="&#x148;" horiz-adv-x="605" 
d="M554 318v-318h-149v264c0 100 -23 129 -91 129c-77 0 -110 -52 -110 -157v-236h-149v510h149v-71h2c37 57 98 80 166 80c117 0 182 -60 182 -201zM488 737l-112 -147h-147l-112 147h114l71 -77l73 77h113z" />
    <glyph glyph-name="Omacron" unicode="&#x14c;" horiz-adv-x="768" 
d="M390 132c109 0 163 69 163 218s-55 219 -172 219c-108 0 -166 -72 -166 -219c0 -148 63 -218 175 -218zM386 -13c-224 0 -346 126 -346 363c0 236 129 363 341 363c236 0 347 -137 347 -363c0 -251 -131 -363 -342 -363zM566 884v-98h-364v98h364z" />
    <glyph glyph-name="omacron" unicode="&#x14d;" horiz-adv-x="611" 
d="M306 110c79 0 118 45 118 145c0 103 -38 146 -118 146c-76 0 -118 -45 -118 -146c0 -100 46 -145 118 -145zM306 -12c-175 0 -273 84 -273 267c0 175 104 267 273 267c173 0 273 -87 273 -267c0 -175 -98 -267 -273 -267zM472 709v-95h-332v95h332z" />
    <glyph glyph-name="Ohungarumlaut" unicode="&#x150;" horiz-adv-x="768" 
d="M390 132c109 0 163 69 163 218s-55 219 -172 219c-108 0 -166 -72 -166 -219c0 -148 63 -218 175 -218zM386 -13c-224 0 -346 126 -346 363c0 236 129 363 341 363c236 0 347 -137 347 -363c0 -251 -131 -363 -342 -363zM538 927h173l-172 -157h-107zM314 927h173
l-172 -157h-107z" />
    <glyph glyph-name="ohungarumlaut" unicode="&#x151;" horiz-adv-x="611" 
d="M306 110c79 0 118 45 118 145c0 103 -38 146 -118 146c-76 0 -118 -45 -118 -146c0 -100 46 -145 118 -145zM306 -12c-175 0 -273 84 -273 267c0 175 104 267 273 267c173 0 273 -87 273 -267c0 -175 -98 -267 -273 -267zM612 737l-159 -147h-98l98 147h159zM398 737
l-160 -147h-98l99 147h159z" />
    <glyph glyph-name="OE" unicode="&#x152;" horiz-adv-x="960" 
d="M386 -13c-224 0 -346 126 -346 363c0 236 129 363 341 363c41 0 80 -5 115 -13h422v-144h-298v-133h260v-133h-260v-146h298v-144h-418c-35 -8 -74 -13 -114 -13zM390 132c23 0 46 1 65 8v418c-21 7 -47 11 -74 11c-108 0 -166 -72 -166 -219c0 -148 63 -218 175 -218z
" />
    <glyph glyph-name="oe" unicode="&#x153;" horiz-adv-x="969" 
d="M905 145v-114c-26 -21 -101 -43 -189 -43c-97 0 -169 25 -216 75c-44 -48 -110 -75 -194 -75c-175 0 -273 84 -273 267c0 175 104 267 273 267c84 0 149 -25 195 -75c44 48 108 75 189 75c187 0 249 -117 249 -261v-39h-358c11 -80 55 -115 154 -115c76 0 135 17 170 38z
M306 110c79 0 119 42 119 145c0 104 -39 146 -119 146c-76 0 -118 -43 -118 -146c0 -101 46 -145 118 -145zM580 307h209c1 60 -29 101 -97 101c-65 0 -103 -34 -112 -101z" />
    <glyph glyph-name="Racute" unicode="&#x154;" horiz-adv-x="648" 
d="M63 0v700h257c181 0 269 -76 269 -221c0 -104 -36 -172 -120 -207l162 -272h-180l-140 246h-10h-73v-246h-165zM224 556v-176h90c68 0 105 25 105 89c0 60 -33 87 -113 87h-82zM524 928l-169 -158h-118l94 158h193z" />
    <glyph glyph-name="racute" unicode="&#x155;" horiz-adv-x="412" 
d="M204 226v-226h-149v510h143v-83h2c27 61 73 92 136 92c13 0 40 -2 60 -7v-135c-19 7 -39 10 -66 10c-95 0 -126 -54 -126 -161zM410 740l-156 -147h-113l89 147h180z" />
    <glyph glyph-name="Rcommaaccent" unicode="&#x156;" horiz-adv-x="648" 
d="M63 0v700h257c181 0 269 -76 269 -221c0 -104 -36 -172 -120 -207l162 -272h-180l-140 246h-10h-73v-246h-165zM224 556v-176h90c68 0 105 25 105 89c0 60 -33 87 -113 87h-82zM259 -239v55c43 -3 78 3 83 34c-63 -7 -102 11 -102 50c0 33 35 55 88 55
c56 0 94 -28 94 -84c0 -69 -63 -118 -163 -110z" />
    <glyph glyph-name="rcommaaccent" unicode="&#x157;" horiz-adv-x="412" 
d="M204 226v-226h-149v510h143v-83h2c27 61 73 92 136 92c13 0 40 -2 60 -7v-135c-19 7 -39 10 -66 10c-95 0 -126 -54 -126 -161zM69 -239v55c43 -3 77 3 82 34c-61 -7 -101 11 -101 50c0 33 34 55 87 55c56 0 95 -28 95 -84c0 -69 -63 -118 -163 -110z" />
    <glyph glyph-name="Rcaron" unicode="&#x158;" horiz-adv-x="648" 
d="M63 0v700h257c181 0 269 -76 269 -221c0 -104 -36 -172 -120 -207l162 -272h-180l-140 246h-10h-73v-246h-165zM224 556v-176h90c68 0 105 25 105 89c0 60 -33 87 -113 87h-82zM499 918l-119 -148h-162l-118 148h125l74 -75l75 75h125z" />
    <glyph glyph-name="rcaron" unicode="&#x159;" horiz-adv-x="412" 
d="M204 226v-226h-149v510h143v-83h2c27 61 73 92 136 92c13 0 40 -2 60 -7v-135c-19 7 -39 10 -66 10c-95 0 -126 -54 -126 -161zM405 737l-112 -147h-147l-112 147h114l71 -77l73 77h113z" />
    <glyph glyph-name="Sacute" unicode="&#x15a;" horiz-adv-x="555" 
d="M49 29v145c32 -21 105 -46 189 -46c75 0 107 25 107 72c0 53 -31 65 -110 91l-26 8c-123 40 -167 106 -167 216c0 124 94 198 254 198c91 0 149 -14 190 -31v-141c-53 20 -123 29 -178 29c-65 0 -98 -21 -98 -62c0 -44 35 -56 136 -91l28 -9c123 -43 152 -115 152 -207
c0 -136 -103 -214 -268 -214c-89 0 -157 17 -209 42zM505 928l-169 -158h-118l94 158h193z" />
    <glyph glyph-name="sacute" unicode="&#x15b;" horiz-adv-x="462" 
d="M43 17v122c47 -25 109 -37 164 -37s75 16 75 47c0 75 -250 26 -250 214c0 94 61 159 220 159c51 0 108 -8 151 -20v-117c-39 15 -93 23 -141 23c-51 0 -76 -13 -76 -39c0 -73 250 -16 250 -213c0 -95 -58 -168 -226 -168c-48 0 -111 9 -167 29zM442 740l-156 -147h-113
l89 147h180z" />
    <glyph glyph-name="Scircumflex" unicode="&#x15c;" horiz-adv-x="555" 
d="M49 29v145c32 -21 105 -46 189 -46c75 0 107 25 107 72c0 53 -31 65 -110 91l-26 8c-123 40 -167 106 -167 216c0 124 94 198 254 198c91 0 149 -14 190 -31v-141c-53 20 -123 29 -178 29c-65 0 -98 -21 -98 -62c0 -44 35 -56 136 -91l28 -9c123 -43 152 -115 152 -207
c0 -136 -103 -214 -268 -214c-89 0 -157 17 -209 42zM366 918l119 -148h-125l-75 75l-74 -75h-125l118 148h162z" />
    <glyph glyph-name="scircumflex" unicode="&#x15d;" horiz-adv-x="462" 
d="M43 17v122c47 -25 109 -37 164 -37s75 16 75 47c0 75 -250 26 -250 214c0 94 61 159 220 159c51 0 108 -8 151 -20v-117c-39 15 -93 23 -141 23c-51 0 -76 -13 -76 -39c0 -73 250 -16 250 -213c0 -95 -58 -168 -226 -168c-48 0 -111 9 -167 29zM310 737l112 -147h-113
l-72 77l-72 -77h-114l112 147h147z" />
    <glyph glyph-name="Scedilla" unicode="&#x15e;" horiz-adv-x="555" 
d="M151 -248l11 70c19 -9 41 -13 65 -13c33 0 61 13 61 42c0 31 -33 38 -64 38c-11 0 -24 1 -35 -2l16 102c-64 7 -115 20 -156 40v145c32 -21 105 -46 189 -46c75 0 107 25 107 72c0 53 -31 65 -110 91l-26 8c-123 40 -167 106 -167 216c0 124 94 198 254 198
c91 0 149 -14 190 -31v-141c-53 20 -123 29 -178 29c-65 0 -98 -21 -98 -62c0 -44 35 -56 136 -91l28 -9c123 -43 152 -115 152 -207c0 -127 -89 -201 -234 -212l-8 -43c60 0 120 -27 120 -98c0 -68 -65 -113 -149 -113c-47 0 -77 6 -104 17z" />
    <glyph glyph-name="scedilla" unicode="&#x15f;" horiz-adv-x="462" 
d="M122 -224l10 63c19 -8 38 -12 58 -12c29 0 53 13 53 40c0 29 -29 35 -56 35c-9 0 -23 0 -32 -1l15 89c-41 3 -86 12 -127 27v122c47 -25 109 -37 164 -37s75 16 75 47c0 75 -250 26 -250 214c0 94 61 159 220 159c51 0 108 -8 151 -20v-117c-39 15 -93 23 -141 23
c-51 0 -76 -13 -76 -39c0 -73 250 -16 250 -213c0 -89 -50 -156 -189 -167l-8 -39c55 0 106 -24 106 -89c0 -60 -51 -100 -128 -100c-37 0 -70 6 -95 15z" />
    <glyph glyph-name="Scaron" unicode="&#x160;" horiz-adv-x="555" 
d="M49 29v145c32 -21 105 -46 189 -46c75 0 107 25 107 72c0 53 -31 65 -110 91l-26 8c-123 40 -167 106 -167 216c0 124 94 198 254 198c91 0 149 -14 190 -31v-141c-53 20 -123 29 -178 29c-65 0 -98 -21 -98 -62c0 -44 35 -56 136 -91l28 -9c123 -43 152 -115 152 -207
c0 -136 -103 -214 -268 -214c-89 0 -157 17 -209 42zM494 918l-119 -148h-162l-118 148h125l74 -75l75 75h125z" />
    <glyph glyph-name="scaron" unicode="&#x161;" horiz-adv-x="462" 
d="M43 17v122c47 -25 109 -37 164 -37s75 16 75 47c0 75 -250 26 -250 214c0 94 61 159 220 159c51 0 108 -8 151 -20v-117c-39 15 -93 23 -141 23c-51 0 -76 -13 -76 -39c0 -73 250 -16 250 -213c0 -95 -58 -168 -226 -168c-48 0 -111 9 -167 29zM425 737l-112 -147h-147
l-112 147h114l71 -77l73 77h113z" />
    <glyph glyph-name="Tcedilla" unicode="&#x162;" horiz-adv-x="588" 
d="M188 -248l11 70c19 -9 41 -13 65 -13c33 0 61 13 61 42c0 31 -33 38 -64 38c-11 0 -24 1 -35 -2l18 113h-32v548h-197v152h558v-152h-196v-548h-45l-11 -54c60 0 120 -27 120 -98c0 -68 -65 -113 -149 -113c-47 0 -77 6 -104 17z" />
    <glyph glyph-name="tcedilla" unicode="&#x163;" horiz-adv-x="420" 
d="M179 -224l10 63c19 -8 38 -12 58 -12c29 0 53 13 53 40c0 29 -29 35 -56 35c-9 0 -23 0 -32 -1l15 92c-89 15 -123 73 -123 166v225h-91v126h91v108l149 50v-158h141v-126h-141v-176c0 -61 16 -88 81 -88c19 0 42 4 61 13v-125c-19 -8 -52 -16 -92 -19l-7 -39
c55 0 106 -24 106 -89c0 -60 -51 -100 -128 -100c-37 0 -70 6 -95 15z" />
    <glyph glyph-name="Tcaron" unicode="&#x164;" horiz-adv-x="588" 
d="M377 548v-548h-165v548h-197v152h558v-152h-196zM495 918l-119 -148h-162l-118 148h125l74 -75l75 75h125z" />
    <glyph glyph-name="tcaron" unicode="&#x165;" horiz-adv-x="480" 
d="M394 510v-126h-141v-176c0 -61 16 -88 81 -88c19 0 42 4 61 13v-125c-21 -11 -62 -20 -110 -20c-133 0 -181 61 -181 171v225h-91v126h91v108l149 50v-158h141zM506 777l-92 -213h-112l48 213h156z" />
    <glyph glyph-name="Umacron" unicode="&#x16a;" horiz-adv-x="694" 
d="M472 313v387h165v-410c0 -219 -103 -303 -290 -303c-176 0 -289 77 -289 304v409h165v-387c0 -117 25 -174 124 -174c104 0 125 58 125 174zM530 884v-98h-364v98h364z" />
    <glyph glyph-name="umacron" unicode="&#x16b;" horiz-adv-x="605" 
d="M52 192v318h149v-264c0 -100 23 -129 91 -129c77 0 110 53 110 157v236h149v-510h-149v72h-2c-37 -57 -98 -81 -166 -81c-117 0 -182 60 -182 201zM470 709v-95h-332v95h332z" />
    <glyph glyph-name="Ubreve" unicode="&#x16c;" horiz-adv-x="694" 
d="M472 313v387h165v-410c0 -219 -103 -303 -290 -303c-176 0 -289 77 -289 304v409h165v-387c0 -117 25 -174 124 -174c104 0 125 58 125 174zM442 924l93 -22c-12 -85 -83 -142 -186 -142c-101 0 -173 57 -186 142l94 22c8 -34 27 -68 92 -68c64 0 85 34 93 68z" />
    <glyph glyph-name="ubreve" unicode="&#x16d;" horiz-adv-x="605" 
d="M52 192v318h149v-264c0 -100 23 -129 91 -129c77 0 110 53 110 157v236h149v-510h-149v72h-2c-37 -57 -98 -81 -166 -81c-117 0 -182 60 -182 201zM400 748l89 -20c-11 -89 -83 -142 -175 -142c-93 0 -165 55 -176 143l89 19c9 -43 34 -71 87 -71s78 28 86 71z" />
    <glyph glyph-name="Uring" unicode="&#x16e;" horiz-adv-x="694" 
d="M472 313v387h165v-410c0 -219 -103 -303 -290 -303c-176 0 -289 77 -289 304v409h165v-387c0 -117 25 -174 124 -174c104 0 125 58 125 174zM347 831c29 0 52 22 52 50c0 27 -23 50 -52 50c-27 0 -48 -23 -48 -50c0 -28 21 -50 48 -50zM347 755c-70 0 -124 54 -124 126
c0 68 54 125 124 125c72 0 127 -57 127 -125c0 -72 -55 -126 -127 -126z" />
    <glyph glyph-name="uring" unicode="&#x16f;" horiz-adv-x="605" 
d="M52 192v318h149v-264c0 -100 23 -129 91 -129c77 0 110 53 110 157v236h149v-510h-149v72h-2c-37 -57 -98 -81 -166 -81c-117 0 -182 60 -182 201zM304 638c27 0 48 21 48 48s-21 48 -48 48c-29 0 -48 -21 -48 -48s19 -48 48 -48zM304 569c-68 0 -118 49 -118 117
c0 65 51 117 118 117s118 -52 118 -117c0 -67 -51 -117 -118 -117z" />
    <glyph glyph-name="Uhungarumlaut" unicode="&#x170;" horiz-adv-x="694" 
d="M472 313v387h165v-410c0 -219 -103 -303 -290 -303c-176 0 -289 77 -289 304v409h165v-387c0 -117 25 -174 124 -174c104 0 125 58 125 174zM502 927h173l-172 -157h-107zM278 927h173l-172 -157h-107z" />
    <glyph glyph-name="uhungarumlaut" unicode="&#x171;" horiz-adv-x="605" 
d="M52 192v318h149v-264c0 -100 23 -129 91 -129c77 0 110 53 110 157v236h149v-510h-149v72h-2c-37 -57 -98 -81 -166 -81c-117 0 -182 60 -182 201zM610 737l-159 -147h-98l98 147h159zM396 737l-160 -147h-98l99 147h159z" />
    <glyph glyph-name="Uogonek" unicode="&#x172;" horiz-adv-x="694" 
d="M494 -168v-75c-23 -11 -56 -22 -100 -22c-106 0 -136 59 -136 110c0 57 41 107 93 142h-4c-176 0 -289 77 -289 304v409h165v-387c0 -117 25 -174 124 -174c104 0 125 58 125 174v387h165v-410c0 -172 -63 -259 -180 -290c-56 -37 -86 -78 -86 -131c0 -36 26 -55 61 -55
c23 0 43 7 62 18z" />
    <glyph glyph-name="uogonek" unicode="&#x173;" horiz-adv-x="605" 
d="M52 192v318h149v-264c0 -100 23 -129 91 -129c77 0 110 53 110 157v236h149v-510h-28c-51 -33 -78 -70 -78 -118c0 -33 22 -50 53 -50c21 0 41 5 59 16v-67c-21 -11 -51 -20 -90 -20c-96 0 -125 52 -125 99c0 61 46 109 101 140h-41v72h-2c-37 -57 -98 -81 -166 -81
c-117 0 -182 60 -182 201z" />
    <glyph glyph-name="Ydieresis" unicode="&#x178;" horiz-adv-x="647" 
d="M407 260v-260h-165v260l-243 440h191l136 -255l132 255h190zM529 842c0 -47 -27 -75 -82 -75c-57 0 -86 28 -86 75s29 74 85 74s83 -27 83 -74zM286 842c0 -47 -27 -75 -86 -75c-52 0 -82 28 -82 75s30 74 82 74c59 0 86 -27 86 -74z" />
    <glyph glyph-name="Zacute" unicode="&#x179;" horiz-adv-x="603" 
d="M573 144v-144h-543v145l337 411h-325v144h525v-145l-336 -411h342zM525 928l-169 -158h-118l94 158h193z" />
    <glyph glyph-name="zacute" unicode="&#x17a;" horiz-adv-x="508" 
d="M476 126v-126h-443v129l251 255h-243v126h431v-129l-252 -255h256zM461 740l-156 -147h-113l89 147h180z" />
    <glyph glyph-name="Zdotaccent" unicode="&#x17b;" horiz-adv-x="603" 
d="M573 144v-144h-543v145l337 411h-325v144h525v-145l-336 -411h342zM395 851c0 -53 -32 -83 -95 -83c-60 0 -93 30 -93 83c0 51 33 80 93 80c63 0 95 -27 95 -80z" />
    <glyph glyph-name="zdotaccent" unicode="&#x17c;" horiz-adv-x="508" 
d="M476 126v-126h-443v129l251 255h-243v126h431v-129l-252 -255h256zM344 672c0 -51 -30 -78 -90 -78c-57 0 -89 29 -89 78c0 48 32 76 89 76c60 0 90 -25 90 -76z" />
    <glyph glyph-name="Zcaron" unicode="&#x17d;" horiz-adv-x="603" 
d="M573 144v-144h-543v145l337 411h-325v144h525v-145l-336 -411h342zM502 918l-119 -148h-162l-118 148h125l74 -75l75 75h125z" />
    <glyph glyph-name="zcaron" unicode="&#x17e;" horiz-adv-x="508" 
d="M476 126v-126h-443v129l251 255h-243v126h431v-129l-252 -255h256zM441 737l-112 -147h-147l-112 147h114l71 -77l73 77h113z" />
    <glyph glyph-name="Schwa" unicode="&#x18f;" horiz-adv-x="706" 
d="M39 346v49h456c-5 80 -47 178 -204 178c-71 0 -137 -12 -188 -37v147c73 21 140 30 212 30c301 0 352 -194 352 -365c0 -180 -91 -361 -322 -361c-190 0 -306 116 -306 359zM496 280h-293v-5c1 -93 41 -151 144 -151c75 0 141 44 149 156z" />
    <glyph glyph-name="florin" unicode="&#x192;" horiz-adv-x="551" 
d="M109 1l77 383h-91l26 126h91l12 61c24 114 90 187 225 187c37 0 62 -4 91 -9l-25 -122c-8 3 -26 6 -47 6c-64 0 -88 -25 -101 -94l-6 -29h125l-25 -126h-126l-77 -377c-29 -148 -97 -226 -240 -226c-32 0 -52 3 -67 6l27 127c11 -3 23 -4 38 -4c39 0 77 11 93 91z" />
    <glyph glyph-name="eturn" unicode="&#x1dd;" horiz-adv-x="574" 
d="M64 366v114c27 21 101 42 189 42c201 0 289 -96 289 -273c0 -161 -98 -261 -263 -261c-187 0 -249 117 -249 261v40h359c-11 79 -57 114 -154 114c-76 0 -136 -16 -171 -37zM389 204h-209c-1 -60 29 -102 97 -102c65 0 103 34 112 102z" />
    <glyph glyph-name="Gcaron" unicode="&#x1e6;" horiz-adv-x="691" 
d="M495 146v120h-123v134h269v-359c-49 -27 -130 -54 -230 -54c-248 0 -371 132 -371 354c0 241 114 372 370 372c96 0 154 -15 186 -27v-145c-45 17 -111 24 -163 24c-149 0 -223 -60 -223 -215c0 -151 76 -214 209 -214c27 0 53 3 76 10zM597 918l-119 -148h-162l-118 148
h125l74 -75l75 75h125z" />
    <glyph glyph-name="gcaron" unicode="&#x1e7;" horiz-adv-x="626" 
d="M426 439v71h145v-479c0 -192 -131 -250 -291 -250c-74 0 -157 13 -196 29v130c35 -15 96 -33 177 -33c124 0 161 46 161 135v41h-2c-27 -48 -90 -83 -159 -83c-145 0 -228 78 -228 249c0 175 71 270 228 270c80 0 136 -35 163 -80h2zM303 398c-76 0 -113 -43 -113 -139
c0 -92 42 -138 114 -138c76 0 118 53 118 137c0 88 -38 140 -119 140zM492 737l-112 -147h-147l-112 147h114l71 -77l73 77h113z" />
    <glyph glyph-name="Scommaaccent" unicode="&#x218;" horiz-adv-x="555" 
d="M49 29v145c32 -21 105 -46 189 -46c75 0 107 25 107 72c0 53 -31 65 -110 91l-26 8c-123 40 -167 106 -167 216c0 124 94 198 254 198c91 0 149 -14 190 -31v-141c-53 20 -123 29 -178 29c-65 0 -98 -21 -98 -62c0 -44 35 -56 136 -91l28 -9c123 -43 152 -115 152 -207
c0 -136 -103 -214 -268 -214c-89 0 -157 17 -209 42zM206 -239v55c43 -3 78 3 83 34c-63 -7 -102 11 -102 50c0 33 35 55 88 55c56 0 94 -28 94 -84c0 -69 -63 -118 -163 -110z" />
    <glyph glyph-name="scommaaccent" unicode="&#x219;" horiz-adv-x="462" 
d="M43 17v122c47 -25 109 -37 164 -37s75 16 75 47c0 75 -250 26 -250 214c0 94 61 159 220 159c51 0 108 -8 151 -20v-117c-39 15 -93 23 -141 23c-51 0 -76 -13 -76 -39c0 -73 250 -16 250 -213c0 -95 -58 -168 -226 -168c-48 0 -111 9 -167 29zM161 -239v55
c43 -3 77 3 82 34c-61 -7 -101 11 -101 50c0 33 34 55 87 55c56 0 95 -28 95 -84c0 -69 -63 -118 -163 -110z" />
    <glyph glyph-name="Tcommaaccent" unicode="&#x21a;" horiz-adv-x="588" 
d="M377 548v-548h-165v548h-197v152h558v-152h-196zM223 -239v55c43 -3 78 3 83 34c-63 -7 -102 11 -102 50c0 33 35 55 88 55c56 0 94 -28 94 -84c0 -69 -63 -118 -163 -110z" />
    <glyph glyph-name="tcommaaccent" unicode="&#x21b;" horiz-adv-x="420" 
d="M394 510v-126h-141v-176c0 -61 16 -88 81 -88c19 0 42 4 61 13v-125c-21 -11 -62 -20 -110 -20c-133 0 -181 61 -181 171v225h-91v126h91v108l149 50v-158h141zM192 -239v55c43 -3 77 3 82 34c-61 -7 -101 11 -101 50c0 33 34 55 87 55c56 0 95 -28 95 -84
c0 -69 -63 -118 -163 -110z" />
    <glyph glyph-name="dotlessj" unicode="&#x237;" horiz-adv-x="265" 
d="M-56 -213l2 127c11 -3 23 -4 38 -4c41 0 76 11 76 91v509h149v-503c0 -149 -57 -226 -196 -226c-32 0 -54 3 -69 6z" />
    <glyph glyph-name="schwa" unicode="&#x259;" horiz-adv-x="574" 
d="M64 366v114c27 21 101 42 189 42c201 0 289 -96 289 -273c0 -161 -98 -261 -263 -261c-187 0 -249 117 -249 261v40h359c-11 79 -57 114 -154 114c-76 0 -136 -16 -171 -37zM389 204h-209c-1 -60 29 -102 97 -102c65 0 103 34 112 102z" />
    <glyph glyph-name="afii57929" unicode="&#x2bc;" horiz-adv-x="222" 
d="M212 700l-89 -205h-105l46 205h148z" />
    <glyph glyph-name="circumflex" unicode="&#x2c6;" horiz-adv-x="611" 
d="M379 737l112 -147h-113l-72 77l-72 -77h-114l112 147h147z" />
    <glyph glyph-name="caron" unicode="&#x2c7;" horiz-adv-x="611" 
d="M491 737l-112 -147h-147l-112 147h114l71 -77l73 77h113z" />
    <glyph glyph-name="breve" unicode="&#x2d8;" horiz-adv-x="611" 
d="M392 748l89 -20c-11 -89 -83 -142 -175 -142c-93 0 -165 55 -176 143l89 19c9 -43 34 -71 87 -71s78 28 86 71z" />
    <glyph glyph-name="dotaccent" unicode="&#x2d9;" horiz-adv-x="264" 
d="M222 672c0 -51 -30 -78 -90 -78c-57 0 -89 29 -89 78c0 48 32 76 89 76c60 0 90 -25 90 -76z" />
    <glyph glyph-name="ring" unicode="&#x2da;" horiz-adv-x="612" 
d="M306 638c27 0 48 21 48 48s-21 48 -48 48c-29 0 -48 -21 -48 -48s19 -48 48 -48zM306 569c-68 0 -118 49 -118 117c0 65 51 117 118 117s118 -52 118 -117c0 -67 -51 -117 -118 -117z" />
    <glyph glyph-name="ogonek" unicode="&#x2db;" horiz-adv-x="575" 
d="M393 10l60 -10c-51 -33 -78 -70 -78 -118c0 -33 22 -50 54 -50c20 0 40 5 59 16v-67c-21 -11 -51 -20 -91 -20c-96 0 -125 52 -125 99c0 68 61 121 121 150z" />
    <glyph glyph-name="tilde" unicode="&#x2dc;" horiz-adv-x="611" 
d="M417 729l76 -12c-5 -79 -46 -125 -106 -125c-31 0 -52 8 -89 24c-29 12 -44 22 -65 22c-17 0 -34 -15 -37 -46l-78 12c4 83 46 125 106 125c31 0 58 -11 89 -24c35 -15 47 -21 66 -21c21 0 34 15 38 45z" />
    <glyph glyph-name="hungarumlaut" unicode="&#x2dd;" horiz-adv-x="611" 
d="M612 737l-159 -147h-98l98 147h159zM398 737l-160 -147h-98l99 147h159z" />
    <glyph glyph-name="acutecomb" unicode="&#x301;" horiz-adv-x="0" 
d="M-94 740l-156 -147h-113l89 147h180z" />
    <glyph glyph-name="Delta" unicode="&#x394;" horiz-adv-x="700" 
d="M696 0h-691l239 700h216zM348 555l-137 -411h274l-135 411h-2z" />
    <glyph glyph-name="Delta" unicode="&#x2206;" horiz-adv-x="700" 
d="M696 0h-691l239 700h216zM348 555l-137 -411h274l-135 411h-2z" />
    <glyph glyph-name="Omega" unicode="&#x3a9;" horiz-adv-x="774" 
d="M387 569c-138 0 -172 -98 -172 -178c0 -47 17 -143 134 -162v-229h-301v135h176v37c-97 22 -184 100 -184 245c0 180 125 296 347 296c221 0 347 -116 347 -296c0 -145 -87 -224 -183 -245v-37h175v-135h-301v229c117 19 134 115 134 162c0 80 -33 178 -172 178z" />
    <glyph glyph-name="Omega" unicode="&#x2126;" horiz-adv-x="774" 
d="M387 569c-138 0 -172 -98 -172 -178c0 -47 17 -143 134 -162v-229h-301v135h176v37c-97 22 -184 100 -184 245c0 180 125 296 347 296c221 0 347 -116 347 -296c0 -145 -87 -224 -183 -245v-37h175v-135h-301v229c117 19 134 115 134 162c0 80 -33 178 -172 178z" />
    <glyph glyph-name="pi" unicode="&#x3c0;" horiz-adv-x="697" 
d="M587 379v-194c0 -52 11 -67 39 -67c9 0 18 1 27 4l2 -126c-20 -4 -51 -9 -80 -9c-85 0 -137 39 -137 146v246h-157v-379h-149v377c-36 0 -65 -18 -85 -34l-44 121c27 23 76 46 181 46h482v-131h-79z" />
    <glyph glyph-name="afii10023" unicode="&#x401;" horiz-adv-x="568" 
d="M526 144v-144h-463v700h463v-144h-298v-133h260v-133h-260v-146h298zM498 842c0 -47 -27 -75 -82 -75c-57 0 -86 28 -86 75s29 74 85 74s83 -27 83 -74zM255 842c0 -47 -27 -75 -86 -75c-52 0 -82 28 -82 75s30 74 82 74c59 0 86 -27 86 -74z" />
    <glyph glyph-name="afii10051" unicode="&#x402;" horiz-adv-x="819" 
d="M377 269v-269h-165v548h-197v152h558v-152h-196v-139c55 19 104 31 172 31c203 0 233 -132 233 -226c0 -124 -69 -227 -241 -227c-23 0 -60 2 -84 9v121c13 -4 36 -7 53 -7c68 0 97 34 97 97c0 64 -40 90 -104 90c-60 0 -95 -13 -126 -28z" />
    <glyph glyph-name="afii10052" unicode="&#x403;" horiz-adv-x="519" 
d="M228 551v-551h-165v700h441v-149h-276zM502 928l-169 -158h-118l94 158h193z" />
    <glyph glyph-name="afii10053" unicode="&#x404;" horiz-adv-x="621" 
d="M579 165v-147c-37 -17 -97 -31 -182 -31c-241 0 -357 123 -357 354c0 240 115 372 370 372c80 0 137 -17 168 -26v-144c-44 16 -104 26 -143 26c-129 0 -199 -46 -218 -151h248v-123h-249c16 -109 86 -163 219 -163c51 0 93 10 144 33z" />
    <glyph glyph-name="afii10054" unicode="&#x405;" horiz-adv-x="555" 
d="M49 29v145c32 -21 105 -46 189 -46c75 0 107 25 107 72c0 53 -31 65 -110 91l-26 8c-123 40 -167 106 -167 216c0 124 94 198 254 198c91 0 149 -14 190 -31v-141c-53 20 -123 29 -178 29c-65 0 -98 -21 -98 -62c0 -44 35 -56 136 -91l28 -9c123 -43 152 -115 152 -207
c0 -136 -103 -214 -268 -214c-89 0 -157 17 -209 42z" />
    <glyph glyph-name="afii10055" unicode="&#x406;" horiz-adv-x="290" 
d="M228 700v-700h-165v700h165z" />
    <glyph glyph-name="afii10056" unicode="&#x407;" horiz-adv-x="290" 
d="M340 835c0 -47 -28 -75 -84 -75c-57 0 -86 28 -86 75c0 48 29 75 86 75c56 0 84 -27 84 -75zM121 835c0 -47 -28 -75 -87 -75c-55 0 -84 28 -84 75c0 48 31 75 84 75c59 0 87 -27 87 -75zM228 700v-700h-165v700h165z" />
    <glyph glyph-name="afii10057" unicode="&#x408;" horiz-adv-x="439" 
d="M30 5v149c31 -9 50 -12 73 -12c71 0 109 23 109 111v447h165v-479c0 -155 -69 -231 -230 -231c-60 0 -93 7 -117 15z" />
    <glyph glyph-name="afii10058" unicode="&#x409;" horiz-adv-x="1046" 
d="M728 0h-239v552h-180c-5 -351 -21 -562 -233 -562c-18 0 -34 2 -48 7v154c9 -2 17 -3 24 -3c75 0 93 78 98 415l1 137h503v-231h87c179 0 270 -66 270 -229c0 -151 -94 -240 -283 -240zM654 325v-181h62c97 0 125 35 125 94c0 65 -32 87 -125 87h-62z" />
    <glyph glyph-name="afii10059" unicode="&#x40a;" horiz-adv-x="1054" 
d="M662 325v-181h62c97 0 125 35 125 94c0 65 -32 87 -125 87h-62zM736 0h-239v290h-269v-290h-165v700h165v-263h269v263h165v-231h87c179 0 270 -66 270 -229c0 -151 -94 -240 -283 -240z" />
    <glyph glyph-name="afii10060" unicode="&#x40b;" horiz-adv-x="814" 
d="M377 548v-131c35 11 83 23 152 23c167 0 233 -81 233 -217v-223h-165v186c0 88 -41 108 -119 108c-39 0 -72 -6 -101 -19v-275h-165v548h-197v152h558v-152h-196z" />
    <glyph glyph-name="afii10061" unicode="&#x40c;" horiz-adv-x="674" 
d="M228 700v-324l236 324h190l-256 -327l274 -373h-198l-246 345v-345h-165v700h165zM556 928l-169 -158h-118l94 158h193z" />
    <glyph glyph-name="afii10062" unicode="&#x40e;" horiz-adv-x="654" 
d="M127 8l2 138c15 -7 32 -12 56 -12c43 0 65 17 78 49c1 1 3 6 4 9l-265 508h192l164 -349l124 349h171l-219 -540c-49 -120 -111 -170 -216 -170c-33 0 -63 6 -91 18zM422 920l129 -12c-5 -111 -96 -157 -211 -157s-208 46 -213 157l129 12c11 -48 39 -64 84 -64
c43 0 73 16 82 64z" />
    <glyph glyph-name="afii10145" unicode="&#x40f;" horiz-adv-x="707" 
d="M645 700v-700h-214v-156h-155v156h-213v700h165v-552h252v552h165z" />
    <glyph glyph-name="afii10017" unicode="&#x410;" horiz-adv-x="694" 
d="M521 0l-45 146h-262l-45 -146h-163l232 700h222l229 -700h-168zM345 574l-87 -285h174z" />
    <glyph glyph-name="afii10018" unicode="&#x411;" horiz-adv-x="629" 
d="M224 312v-168h91c84 0 112 29 112 85c0 61 -30 83 -97 83h-106zM329 0h-266v700h484v-144h-319v-125h131c143 0 238 -51 238 -206c0 -148 -97 -225 -268 -225z" />
    <glyph glyph-name="afii10019" unicode="&#x412;" horiz-adv-x="641" 
d="M228 566v-153h79c89 0 120 28 120 79c0 56 -28 74 -105 74h-94zM228 298v-164h90c84 0 120 17 120 80c0 64 -39 84 -124 84h-86zM358 0h-295v700h303c153 0 224 -63 224 -178c0 -91 -48 -138 -137 -157v-2c104 -5 155 -77 155 -156c0 -114 -61 -207 -250 -207z" />
    <glyph glyph-name="afii10020" unicode="&#x413;" horiz-adv-x="519" 
d="M228 551v-551h-165v700h441v-149h-276z" />
    <glyph glyph-name="afii10021" unicode="&#x414;" horiz-adv-x="761" 
d="M740 148v-304h-155v156h-413v-156h-155v304h66c64 107 79 259 84 474l2 78h486v-552h85zM251 148h239v404h-169c-1 -7 -2 -29 -2 -36c-7 -145 -25 -271 -68 -368z" />
    <glyph glyph-name="afii10022" unicode="&#x415;" horiz-adv-x="568" 
d="M526 144v-144h-463v700h463v-144h-298v-133h260v-133h-260v-146h298z" />
    <glyph glyph-name="afii10024" unicode="&#x416;" horiz-adv-x="951" 
d="M394 0v352l-201 -352h-189l219 369l-201 331h183l189 -337v337h165v-337l188 337h183l-201 -331l218 -369h-190l-198 352v-352h-165z" />
    <glyph glyph-name="afii10025" unicode="&#x417;" horiz-adv-x="570" 
d="M37 24v149c60 -31 126 -41 182 -41c110 0 144 31 144 83c0 51 -35 79 -119 79h-104v123h87c80 0 124 21 124 78c0 52 -41 74 -118 74c-64 0 -122 -8 -186 -35v150c69 20 132 29 220 29c193 0 252 -86 252 -186c0 -85 -50 -142 -131 -163v-4c97 -15 150 -75 150 -160
c0 -120 -73 -213 -297 -213c-64 0 -143 10 -204 37z" />
    <glyph glyph-name="afii10026" unicode="&#x418;" horiz-adv-x="733" 
d="M671 700v-700h-165v469l-268 -469h-175v700h165v-468l268 468h175z" />
    <glyph glyph-name="afii10027" unicode="&#x419;" horiz-adv-x="733" 
d="M671 700v-700h-165v469l-268 -469h-175v700h165v-468l268 468h175zM449 920l129 -12c-5 -111 -96 -157 -211 -157s-208 46 -213 157l129 12c11 -48 39 -64 84 -64c43 0 73 16 82 64z" />
    <glyph glyph-name="afii10028" unicode="&#x41a;" horiz-adv-x="674" 
d="M228 700v-324l236 324h190l-256 -327l274 -373h-198l-246 345v-345h-165v700h165z" />
    <glyph glyph-name="afii10029" unicode="&#x41b;" horiz-adv-x="716" 
d="M654 700v-700h-165v552h-180c-5 -351 -21 -562 -233 -562c-18 0 -34 2 -48 7v154c9 -2 17 -3 24 -3c75 0 93 78 98 415l1 137h503z" />
    <glyph glyph-name="afii10030" unicode="&#x41c;" horiz-adv-x="913" 
d="M851 700v-700h-160v517l-157 -517h-155l-156 513v-513h-160v700h248l150 -509l149 509h241z" />
    <glyph glyph-name="afii10031" unicode="&#x41d;" horiz-adv-x="729" 
d="M667 700v-700h-165v285h-274v-285h-165v700h165v-268h274v268h165z" />
    <glyph glyph-name="afii10032" unicode="&#x41e;" horiz-adv-x="768" 
d="M390 132c109 0 163 69 163 218s-55 219 -172 219c-108 0 -166 -72 -166 -219c0 -148 63 -218 175 -218zM386 -13c-224 0 -346 126 -346 363c0 236 129 363 341 363c236 0 347 -137 347 -363c0 -251 -131 -363 -342 -363z" />
    <glyph glyph-name="afii10033" unicode="&#x41f;" horiz-adv-x="707" 
d="M645 700v-700h-165v552h-252v-552h-165v700h582z" />
    <glyph glyph-name="afii10034" unicode="&#x420;" horiz-adv-x="622" 
d="M224 556v-203h81c85 0 120 33 120 102c0 73 -34 101 -122 101h-79zM228 209v-209h-165v700h256c181 0 276 -74 276 -238c0 -161 -90 -253 -290 -253h-77z" />
    <glyph glyph-name="afii10035" unicode="&#x421;" horiz-adv-x="621" 
d="M579 172v-154c-37 -17 -97 -31 -182 -31c-241 0 -357 123 -357 354c0 240 115 372 370 372c80 0 136 -17 168 -26v-152c-44 16 -104 26 -143 26c-149 0 -220 -58 -220 -211c0 -145 71 -210 220 -210c51 0 93 9 144 32z" />
    <glyph glyph-name="afii10036" unicode="&#x422;" horiz-adv-x="588" 
d="M377 548v-548h-165v548h-197v152h558v-152h-196z" />
    <glyph glyph-name="afii10037" unicode="&#x423;" horiz-adv-x="654" 
d="M127 8l2 138c15 -7 32 -12 56 -12c43 0 65 17 78 49c1 1 3 6 4 9l-265 508h192l164 -349l124 349h171l-219 -540c-49 -120 -111 -170 -216 -170c-33 0 -63 6 -91 18z" />
    <glyph glyph-name="afii10038" unicode="&#x424;" horiz-adv-x="887" 
d="M521 510v-316h15c99 0 143 51 143 158c0 115 -44 158 -143 158h-15zM351 194h15v316h-16c-96 0 -142 -43 -142 -158s47 -158 143 -158zM526 61v-74h-165v74h-13c-204 0 -315 96 -315 291c0 188 118 291 314 291h14v70h165v-70h14c204 0 314 -98 314 -291
c0 -192 -117 -291 -314 -291h-14z" />
    <glyph glyph-name="afii10039" unicode="&#x425;" horiz-adv-x="673" 
d="M667 0h-198l-138 247l-133 -247h-192l205 361l-187 339h193l120 -233l126 233h188l-194 -337z" />
    <glyph glyph-name="afii10040" unicode="&#x426;" horiz-adv-x="748" 
d="M727 148v-304h-155v156h-509v700h165v-552h249v552h165v-552h85z" />
    <glyph glyph-name="afii10041" unicode="&#x427;" horiz-adv-x="655" 
d="M593 700v-700h-165v258c-35 -11 -80 -21 -140 -21c-183 0 -245 86 -245 218v245h165v-206c0 -88 40 -106 120 -106c39 0 72 6 100 17v295h165z" />
    <glyph glyph-name="afii10042" unicode="&#x428;" horiz-adv-x="963" 
d="M901 700v-700h-838v700h165v-552h171v552h165v-552h172v552h165z" />
    <glyph glyph-name="afii10043" unicode="&#x429;" horiz-adv-x="1007" 
d="M986 148v-304h-155v156h-768v700h165v-552h171v552h165v-552h172v552h165v-552h85z" />
    <glyph glyph-name="afii10044" unicode="&#x42a;" horiz-adv-x="714" 
d="M327 336v-192h57c97 0 125 40 125 100c0 65 -30 92 -125 92h-57zM396 0h-234v548h-146v152h311v-220h82c179 0 270 -72 270 -235c0 -151 -94 -245 -283 -245z" />
    <glyph glyph-name="afii10045" unicode="&#x42b;" horiz-adv-x="873" 
d="M228 336v-192h52c97 0 125 40 125 100c0 65 -30 92 -125 92h-52zM292 0h-229v700h165v-220h77c179 0 270 -72 270 -235c0 -151 -94 -245 -283 -245zM811 700v-700h-165v700h165z" />
    <glyph glyph-name="afii10046" unicode="&#x42c;" horiz-adv-x="620" 
d="M228 336v-192h62c97 0 125 40 125 100c0 65 -30 92 -125 92h-62zM302 0h-239v700h165v-220h87c179 0 270 -72 270 -235c0 -151 -94 -245 -283 -245z" />
    <glyph glyph-name="afii10047" unicode="&#x42d;" horiz-adv-x="636" 
d="M152 295v123h266c-5 104 -77 151 -202 151c-65 0 -122 -12 -173 -35v147c56 23 130 32 203 32c259 0 351 -149 351 -358c0 -213 -109 -368 -380 -368c-75 0 -133 11 -174 30v146c52 -23 113 -31 164 -31c137 0 208 54 212 163h-267z" />
    <glyph glyph-name="afii10048" unicode="&#x42e;" horiz-adv-x="1023" 
d="M650 -13c-191 0 -309 105 -324 298h-98v-285h-165v700h165v-268h100c19 181 150 281 317 281c232 0 339 -130 339 -363c0 -249 -126 -363 -334 -363zM654 132c107 0 155 69 155 218c0 155 -50 219 -161 219c-99 0 -161 -75 -161 -219c0 -147 60 -218 167 -218z" />
    <glyph glyph-name="afii10049" unicode="&#x42f;" horiz-adv-x="652" 
d="M337 226h-12l-129 -226h-178l156 261c-72 37 -124 103 -124 204c0 161 103 235 284 235h256v-700h-165v226h-88zM345 360h83v196h-94c-72 0 -114 -30 -114 -98c0 -65 49 -98 125 -98z" />
    <glyph glyph-name="afii10065" unicode="&#x430;" horiz-adv-x="560" 
d="M359 192v25c-19 3 -37 6 -76 6c-77 0 -101 -22 -101 -57s23 -61 79 -61c67 0 98 34 98 87zM508 310v-310h-139v73h-2c-21 -40 -71 -82 -161 -82c-109 0 -176 58 -176 158c0 108 73 157 232 157c44 0 80 -5 97 -8v23c0 52 -26 77 -109 77c-64 0 -131 -19 -171 -39v124
c43 19 113 39 197 39c165 0 232 -57 232 -212z" />
    <glyph glyph-name="afii10066" unicode="&#x431;" horiz-adv-x="622" 
d="M148 401h1c29 56 92 98 199 98c159 0 242 -90 242 -253c0 -176 -116 -258 -269 -258c-147 0 -283 74 -283 326c0 324 124 399 332 415c91 8 125 14 164 27v-130c-31 -12 -73 -21 -145 -28c-146 -13 -236 -41 -241 -197zM198 246c0 -76 36 -136 123 -136
c77 0 114 56 114 136s-35 132 -118 132c-86 0 -119 -63 -119 -132z" />
    <glyph glyph-name="afii10067" unicode="&#x432;" horiz-adv-x="556" 
d="M204 397v-94h79c38 0 76 5 76 48c0 40 -28 46 -71 46h-84zM204 218v-105h93c47 0 74 12 74 51c0 47 -40 54 -85 54h-82zM326 0h-271v510h268c112 0 182 -33 182 -129c0 -67 -44 -103 -83 -113v-3c53 -8 105 -40 105 -123c0 -99 -72 -142 -201 -142z" />
    <glyph glyph-name="afii10068" unicode="&#x433;" horiz-adv-x="439" 
d="M204 379v-379h-149v510h375v-131h-226z" />
    <glyph glyph-name="afii10069" unicode="&#x434;" horiz-adv-x="636" 
d="M615 126v-257h-138v131h-323v-131h-138v257h57c39 71 56 176 60 321l2 63h408v-384h72zM218 126h176v258h-128c0 -7 -2 -28 -2 -33c-7 -95 -19 -172 -46 -225z" />
    <glyph glyph-name="afii10070" unicode="&#x435;" horiz-adv-x="574" 
d="M511 145v-114c-27 -21 -101 -43 -189 -43c-203 0 -289 97 -289 274c0 161 96 260 263 260c186 0 249 -117 249 -261v-39h-359c11 -80 57 -115 154 -115c76 0 136 17 171 38zM186 307h209c1 59 -29 101 -97 101c-65 0 -103 -34 -112 -101z" />
    <glyph glyph-name="afii10072" unicode="&#x436;" horiz-adv-x="788" 
d="M469 510v-243l136 243h165l-153 -250l169 -260h-168l-149 249v-249h-149v249l-149 -249h-169l170 260l-154 250h165l137 -243v243h149z" />
    <glyph glyph-name="afii10073" unicode="&#x437;" horiz-adv-x="501" 
d="M354 270v-2c71 -11 118 -54 118 -119c0 -88 -71 -161 -243 -161c-73 0 -144 12 -199 37v122c49 -23 120 -37 180 -37c76 0 107 18 107 54c0 33 -30 49 -89 49h-102v95h96c43 0 79 12 79 47c0 36 -30 46 -105 46c-45 0 -102 -7 -158 -30v118c60 24 127 33 195 33
c177 0 220 -65 220 -145c0 -55 -43 -95 -99 -107z" />
    <glyph glyph-name="afii10074" unicode="&#x438;" horiz-adv-x="608" 
d="M198 0h-143v510h149v-251l-3 -72h1l35 59l173 264h143v-510h-149v256l4 67h-2l-35 -59z" />
    <glyph glyph-name="afii10075" unicode="&#x439;" horiz-adv-x="608" 
d="M198 0h-143v510h149v-251l-3 -72h1l35 59l173 264h143v-510h-149v256l4 67h-2l-35 -59zM376 744l114 -13c-5 -108 -86 -152 -183 -152c-96 0 -182 44 -185 152l109 13c7 -45 35 -65 76 -65c40 0 63 22 69 65z" />
    <glyph glyph-name="afii10076" unicode="&#x43a;" horiz-adv-x="568" 
d="M204 510v-243l167 243h171l-184 -242l209 -268h-179l-184 251v-251h-149v510h149z" />
    <glyph glyph-name="afii10077" unicode="&#x43b;" horiz-adv-x="594" 
d="M78 -12c-23 0 -43 5 -55 9v133c7 -3 14 -4 21 -4c56 0 76 75 76 318v66h419v-510h-149v379h-132l-1 -20c-3 -259 -49 -371 -179 -371z" />
    <glyph glyph-name="afii10078" unicode="&#x43c;" horiz-adv-x="713" 
d="M472 510h187v-510h-140v281l2 67l-23 -56l-92 -208h-98l-92 208l-23 53l2 -63v-282h-140v510h187l116 -269z" />
    <glyph glyph-name="afii10079" unicode="&#x43d;" horiz-adv-x="604" 
d="M549 510v-510h-149v195h-196v-195h-149v510h149v-189h196v189h149z" />
    <glyph glyph-name="afii10080" unicode="&#x43e;" horiz-adv-x="611" 
d="M306 110c79 0 118 45 118 145c0 103 -38 146 -118 146c-76 0 -118 -45 -118 -146c0 -100 46 -145 118 -145zM306 -12c-175 0 -273 84 -273 267c0 175 104 267 273 267c173 0 273 -87 273 -267c0 -175 -98 -267 -273 -267z" />
    <glyph glyph-name="afii10081" unicode="&#x43f;" horiz-adv-x="594" 
d="M539 510v-510h-149v379h-186v-379h-149v510h484z" />
    <glyph glyph-name="afii10082" unicode="&#x440;" horiz-adv-x="626" 
d="M204 63v-273h-149v720h145v-72h2c37 56 100 81 171 81c145 0 221 -81 221 -260c0 -152 -75 -268 -227 -268c-76 0 -132 33 -161 72h-2zM323 112c80 0 114 49 114 149c0 93 -36 137 -117 137c-76 0 -116 -54 -116 -146c0 -88 42 -140 119 -140z" />
    <glyph glyph-name="afii10083" unicode="&#x441;" horiz-adv-x="507" 
d="M477 143v-123c-28 -13 -79 -32 -164 -32c-202 0 -280 107 -280 271c0 157 87 263 275 263c87 0 132 -17 162 -28v-124c-35 13 -72 26 -135 26c-93 0 -147 -38 -147 -133c0 -100 52 -148 165 -148c52 0 96 13 124 28z" />
    <glyph glyph-name="afii10084" unicode="&#x442;" horiz-adv-x="497" 
d="M323 379v-379h-149v379h-166v131h481v-131h-166z" />
    <glyph glyph-name="afii10085" unicode="&#x443;" horiz-adv-x="542" 
d="M73 -207l3 123c16 -6 32 -9 49 -9c51 0 73 23 88 70l5 15l-213 518h165l121 -345l94 345h152l-171 -505c-54 -156 -100 -224 -218 -224c-27 0 -54 4 -75 12z" />
    <glyph glyph-name="afii10086" unicode="&#x444;" horiz-adv-x="781" 
d="M316 -210v204c-17 -3 -34 -3 -51 -3c-137 0 -232 68 -232 264c0 191 100 264 233 264c20 0 35 0 50 -3v234h149v-234c19 3 33 3 52 3c139 0 231 -65 231 -261c0 -191 -100 -267 -233 -267c-20 0 -35 -1 -50 2v-203h-149zM316 111v287c-7 3 -15 2 -26 2
c-64 0 -100 -35 -100 -146c0 -109 33 -144 104 -144c8 0 15 1 22 1zM465 399v-288c7 -1 16 -1 27 -1c64 0 99 38 99 149c0 109 -32 141 -104 141c-7 0 -15 -1 -22 -1z" />
    <glyph glyph-name="afii10087" unicode="&#x445;" horiz-adv-x="548" 
d="M377 265l167 -265h-168l-105 164l-102 -164h-165l167 264l-152 246h167l92 -152l95 152h161z" />
    <glyph glyph-name="afii10088" unicode="&#x446;" horiz-adv-x="626" 
d="M606 126v-257h-138v131h-413v510h149v-384h176v384h149v-384h77z" />
    <glyph glyph-name="afii10089" unicode="&#x447;" horiz-adv-x="550" 
d="M496 510v-510h-149v176c-23 -8 -76 -17 -120 -17c-112 0 -193 39 -193 156v195h149v-144c0 -61 29 -81 89 -81c36 0 59 7 75 12v213h149z" />
    <glyph glyph-name="afii10090" unicode="&#x448;" horiz-adv-x="813" 
d="M758 510v-510h-703v510h149v-384h128v384h149v-384h128v384h149z" />
    <glyph glyph-name="afii10091" unicode="&#x449;" horiz-adv-x="856" 
d="M835 126v-257h-138v131h-642v510h149v-384h128v384h149v-384h128v384h149v-384h77z" />
    <glyph glyph-name="afii10092" unicode="&#x44a;" horiz-adv-x="622" 
d="M285 245v-132h75c60 0 83 24 83 68c0 45 -28 64 -88 64h-70zM387 0h-248v379h-131v131h280v-152h88c164 0 224 -75 224 -178c0 -101 -73 -180 -213 -180z" />
    <glyph glyph-name="afii10093" unicode="&#x44b;" horiz-adv-x="747" 
d="M204 250v-137h55c60 0 83 27 83 71s-29 66 -88 66h-50zM281 0h-226v510h149v-147h66c160 0 224 -69 224 -181c0 -102 -75 -182 -213 -182zM693 510v-510h-149v510h149z" />
    <glyph glyph-name="afii10094" unicode="&#x44c;" horiz-adv-x="539" 
d="M202 245v-132h74c60 0 83 24 83 68c0 45 -27 64 -87 64h-70zM304 0h-249v510h149v-152h89c164 0 223 -75 223 -178c0 -101 -73 -180 -212 -180z" />
    <glyph glyph-name="afii10095" unicode="&#x44d;" horiz-adv-x="522" 
d="M33 15v122c29 -11 81 -27 153 -27c91 0 143 27 151 102h-218v97h216c-12 68 -62 92 -151 92c-68 0 -112 -14 -147 -27v119c28 12 86 29 169 29c201 0 284 -99 284 -256c0 -169 -85 -278 -289 -278c-88 0 -140 18 -168 27z" />
    <glyph glyph-name="afii10096" unicode="&#x44e;" horiz-adv-x="830" 
d="M535 -12c-149 0 -238 75 -254 207h-77v-195h-149v510h149v-189h77c17 124 107 201 248 201c175 0 269 -87 269 -267c0 -175 -92 -267 -263 -267zM528 110c77 0 115 44 115 145c0 103 -35 146 -115 146c-72 0 -112 -45 -112 -146c0 -100 45 -145 112 -145z" />
    <glyph glyph-name="afii10097" unicode="&#x44f;" horiz-adv-x="563" 
d="M360 157h-83l-91 -157h-163l114 181c-59 27 -95 75 -95 152c0 117 87 177 219 177h248v-510h-149v157zM289 267h72v122h-76c-63 0 -86 -19 -86 -62s29 -60 90 -60z" />
    <glyph glyph-name="afii10071" unicode="&#x451;" horiz-adv-x="574" 
d="M511 145v-114c-27 -21 -101 -43 -189 -43c-203 0 -289 97 -289 274c0 161 96 260 263 260c186 0 249 -117 249 -261v-39h-359c11 -80 57 -115 154 -115c76 0 136 17 171 38zM186 307h209c1 59 -29 101 -97 101c-65 0 -103 -34 -112 -101zM487 667c0 -47 -26 -73 -81 -73
c-53 0 -81 28 -81 73c0 44 29 71 81 71c55 0 81 -26 81 -71zM263 667c0 -47 -26 -73 -81 -73c-53 0 -81 27 -81 72s29 72 81 72c55 0 81 -26 81 -71z" />
    <glyph glyph-name="afii10099" unicode="&#x452;" horiz-adv-x="612" 
d="M419 663v-87h-210v-142h2c35 52 92 80 168 80c120 0 194 -74 194 -266c0 -198 -75 -353 -174 -420l-105 73c84 60 124 157 124 328c0 115 -24 159 -99 159c-93 0 -110 -81 -110 -153v-235h-149v576h-85v87h85v87h149v-87h210z" />
    <glyph glyph-name="afii10100" unicode="&#x453;" horiz-adv-x="439" 
d="M204 379v-379h-149v510h375v-131h-226zM450 740l-156 -147h-113l89 147h180z" />
    <glyph glyph-name="afii10101" unicode="&#x454;" horiz-adv-x="505" 
d="M477 138v-118c-28 -13 -79 -32 -164 -32c-202 0 -280 107 -280 271c0 157 87 263 275 263c87 0 132 -17 162 -28v-119c-35 13 -74 26 -138 26c-76 0 -125 -28 -140 -92h197v-97h-197c15 -68 68 -102 159 -102c53 0 98 13 126 28z" />
    <glyph glyph-name="afii10102" unicode="&#x455;" horiz-adv-x="462" 
d="M43 17v122c47 -25 109 -37 164 -37s75 16 75 47c0 75 -250 26 -250 214c0 94 61 159 220 159c51 0 108 -8 151 -20v-117c-39 15 -93 23 -141 23c-51 0 -76 -13 -76 -39c0 -73 250 -16 250 -213c0 -95 -58 -168 -226 -168c-48 0 -111 9 -167 29z" />
    <glyph glyph-name="afii10103" unicode="&#x456;" horiz-adv-x="264" 
d="M222 672c0 -51 -30 -78 -90 -78c-57 0 -89 29 -89 78c0 48 32 76 89 76c60 0 90 -25 90 -76zM207 510v-510h-149v510h149z" />
    <glyph glyph-name="afii10104" unicode="&#x457;" horiz-adv-x="264" 
d="M319 668c0 -47 -27 -74 -82 -74s-83 27 -83 74c0 45 29 72 82 72c56 0 83 -25 83 -72zM110 668c0 -47 -26 -74 -82 -74s-83 27 -83 74c0 45 28 72 83 72c56 0 82 -25 82 -72zM207 510v-510h-149v510h149z" />
    <glyph glyph-name="afii10105" unicode="&#x458;" horiz-adv-x="265" 
d="M223 672c0 -51 -30 -78 -90 -78c-57 0 -89 29 -89 78c0 48 32 76 89 76c60 0 90 -25 90 -76zM-56 -213l2 127c11 -3 23 -4 38 -4c41 0 76 11 76 91v509h149v-503c0 -149 -57 -226 -196 -226c-32 0 -54 3 -69 6z" />
    <glyph glyph-name="afii10106" unicode="&#x459;" horiz-adv-x="874" 
d="M639 0h-249v379h-132l-1 -20c-3 -259 -49 -371 -179 -371c-23 0 -43 5 -55 9v133c9 -3 18 -4 25 -3c52 3 72 81 72 317v66h419v-159h89c164 0 223 -71 223 -175c0 -100 -73 -176 -212 -176zM537 238v-125h74c60 0 83 21 83 65c0 45 -27 60 -87 60h-70z" />
    <glyph glyph-name="afii10107" unicode="&#x45a;" horiz-adv-x="879" 
d="M395 327v183h149v-159h90c164 0 222 -70 222 -174c0 -101 -73 -177 -212 -177h-249v201h-191v-201h-149v510h149v-183h191zM542 238v-125h74c60 0 83 21 83 65c0 45 -27 60 -87 60h-70z" />
    <glyph glyph-name="afii10108" unicode="&#x45b;" horiz-adv-x="609" 
d="M559 313v-313h-149v259c0 100 -23 129 -91 129c-77 0 -110 -52 -110 -157v-231h-149v576h-85v87h85v87h149v-87h210v-87h-210v-142h2c37 57 98 80 166 80c117 0 182 -60 182 -201z" />
    <glyph glyph-name="afii10109" unicode="&#x45c;" horiz-adv-x="568" 
d="M204 510v-243l167 243h171l-184 -242l209 -268h-179l-184 251v-251h-149v510h149zM496 740l-156 -147h-113l89 147h180z" />
    <glyph glyph-name="afii10110" unicode="&#x45e;" horiz-adv-x="542" 
d="M73 -207l3 123c16 -6 32 -9 49 -9c51 0 73 23 88 70l5 15l-213 518h165l121 -345l94 345h152l-171 -505c-54 -156 -100 -224 -218 -224c-27 0 -54 4 -75 12zM345 744l114 -13c-5 -108 -86 -152 -183 -152c-96 0 -182 44 -185 152l109 13c7 -45 35 -65 76 -65
c40 0 63 22 69 65z" />
    <glyph glyph-name="afii10193" unicode="&#x45f;" horiz-adv-x="594" 
d="M539 510v-510h-173v-140h-138v140h-173v510h149v-379h186v379h149z" />
    <glyph glyph-name="afii10146" unicode="&#x462;" horiz-adv-x="728" 
d="M537 624v-119h-201v-82h89c179 0 269 -61 269 -209c0 -136 -93 -214 -284 -214h-239v505h-161v119h161v89h165v-89h201zM337 299v-180h61c97 0 126 36 126 92c0 61 -31 88 -126 88h-61z" />
    <glyph glyph-name="afii10194" unicode="&#x463;" horiz-adv-x="635" 
d="M400 0h-249v404h-143v106h143v240h149v-240h177v-106h-177v-74h89c164 0 223 -63 223 -164c0 -100 -72 -166 -212 -166zM298 229v-127h74c60 0 83 22 83 66c0 45 -27 61 -87 61h-70z" />
    <glyph glyph-name="afii10147" unicode="&#x472;" horiz-adv-x="768" 
d="M386 -13c-224 0 -346 126 -346 363c0 236 129 363 341 363c236 0 347 -137 347 -363c0 -251 -131 -363 -342 -363zM381 571c-96 0 -152 -53 -167 -160h340c-14 107 -72 160 -173 160zM390 130c97 0 151 51 164 159h-340c16 -107 76 -159 176 -159z" />
    <glyph glyph-name="afii10195" unicode="&#x473;" horiz-adv-x="611" 
d="M306 -12c-175 0 -273 84 -273 267c0 175 104 267 273 267c173 0 273 -87 273 -267c0 -175 -98 -267 -273 -267zM306 105c65 0 106 31 117 104h-235c13 -73 57 -104 118 -104zM306 405c-64 0 -106 -30 -118 -102h235c-11 72 -49 102 -117 102z" />
    <glyph glyph-name="afii10148" unicode="&#x474;" horiz-adv-x="742" 
d="M595 485l-153 -485h-219l-218 700h179l153 -538l105 358c32 110 68 193 202 193c36 0 64 -3 91 -10v-133c-16 5 -37 5 -52 5c-39 0 -67 -25 -88 -90z" />
    <glyph glyph-name="afii10196" unicode="&#x475;" horiz-adv-x="592" 
d="M178 0l-173 510h166l104 -363l62 208c32 117 75 167 172 167c32 0 56 -3 79 -10v-114c-12 4 -29 5 -40 5c-33 0 -50 -19 -69 -71l-115 -332h-186z" />
    <glyph glyph-name="afii10050" unicode="&#x490;" horiz-adv-x="519" 
d="M228 551v-551h-165v700h289v130h152v-279h-276z" />
    <glyph glyph-name="afii10098" unicode="&#x491;" horiz-adv-x="439" 
d="M204 379v-379h-149v510h243v120h132v-251h-226z" />
    <glyph glyph-name="cyrGebar" unicode="&#x492;" horiz-adv-x="578" 
d="M475 420v-144h-190v-276h-165v276h-105v144h105v280h441v-144h-276v-136h190z" />
    <glyph glyph-name="cyrgebar" unicode="&#x493;" horiz-adv-x="471" 
d="M373 281v-119h-136v-162h-149v162h-78v119h78v229h375v-131h-226v-98h136z" />
    <glyph glyph-name="cyrZhedesc" unicode="&#x496;" horiz-adv-x="972" 
d="M394 0v352l-201 -352h-189l219 369l-201 331h183l189 -337v337h165v-337l188 337h183l-201 -331l131 -222h100v-303h-155v156h-48l-198 352v-352h-165z" />
    <glyph glyph-name="cyrzhedesc" unicode="&#x497;" horiz-adv-x="807" 
d="M469 510v-243l136 243h165l-153 -250l95 -134h82v-257h-138v131h-38l-149 249v-249h-149v249l-149 -249h-169l170 260l-154 250h165l137 -243v243h149z" />
    <glyph glyph-name="cyrZetail" unicode="&#x498;" horiz-adv-x="570" 
d="M538 200c0 -101 -51 -182 -198 -206v-150h-155v146c-51 4 -104 14 -148 34v149c60 -31 126 -41 182 -41c110 0 144 31 144 83c0 51 -35 79 -119 79h-104v123h87c80 0 124 21 124 78c0 52 -41 74 -118 74c-64 0 -122 -8 -186 -35v150c69 20 132 29 220 29
c193 0 252 -86 252 -186c0 -85 -50 -142 -131 -163v-4c97 -15 150 -75 150 -160z" />
    <glyph glyph-name="cyrzetail" unicode="&#x499;" horiz-adv-x="501" 
d="M354 270v-2c71 -11 118 -54 118 -119c0 -76 -52 -140 -175 -157v-125h-138v125c-48 7 -93 16 -129 33v122c49 -23 120 -37 180 -37c76 0 107 18 107 54c0 33 -30 49 -89 49h-102v95h96c43 0 79 12 79 47c0 36 -30 46 -105 46c-45 0 -102 -7 -158 -30v118
c60 24 127 33 195 33c177 0 220 -65 220 -145c0 -55 -43 -95 -99 -107z" />
    <glyph glyph-name="cyrKadesc" unicode="&#x49a;" horiz-adv-x="694" 
d="M228 700v-324l236 324h190l-256 -327l166 -226h111v-303h-155v156h-46l-246 345v-345h-165v700h165z" />
    <glyph glyph-name="cyrkadesc" unicode="&#x49b;" horiz-adv-x="582" 
d="M432 0h-44l-184 251v-251h-149v510h149v-243l167 243h171l-184 -242l120 -142h92v-257h-138v131z" />
    <glyph glyph-name="cyrKavertbar" unicode="&#x49c;" horiz-adv-x="789" 
d="M383 554v-124l196 270h190l-253 -327l271 -373h-198l-206 292v-116h-99v125h-56v-301h-165v700h165v-272h56v126h99z" />
    <glyph glyph-name="cyrkavertbar" unicode="&#x49d;" horiz-adv-x="664" 
d="M331 205v-96h-82v96h-45v-205h-149v510h149v-195h45v98h82v-98h4l132 195h171l-178 -242l203 -268h-179l-147 205h-6z" />
    <glyph glyph-name="cyrKaback" unicode="&#x4a0;" horiz-adv-x="768" 
d="M322 700v-324l236 324h190l-256 -327l274 -373h-198l-246 345v-345h-165v548h-146v152h311z" />
    <glyph glyph-name="cyrkaback" unicode="&#x4a1;" horiz-adv-x="651" 
d="M287 510v-241l167 241h170l-183 -242l208 -268h-179l-183 249v-249h-149v379h-131v131h280z" />
    <glyph glyph-name="cyrEndesc" unicode="&#x4a2;" horiz-adv-x="774" 
d="M667 700v-553h85v-303h-155v156h-95v285h-274v-285h-165v700h165v-268h274v268h165z" />
    <glyph glyph-name="cyrendesc" unicode="&#x4a3;" horiz-adv-x="646" 
d="M625 126v-257h-138v131h-87v195h-196v-195h-149v510h149v-189h196v189h149v-384h76z" />
    <glyph glyph-name="cyrEstail" unicode="&#x4aa;" horiz-adv-x="619" 
d="M579 172v-154c-31 -15 -72 -25 -132 -29v-145h-155v153c-171 32 -252 149 -252 344c0 240 115 372 370 372c80 0 136 -17 168 -26v-152c-44 16 -104 26 -143 26c-149 0 -220 -58 -220 -211c0 -145 71 -210 220 -210c51 0 93 9 144 32z" />
    <glyph glyph-name="cyrestail" unicode="&#x4ab;" horiz-adv-x="505" 
d="M477 143v-123c-21 -11 -53 -21 -102 -28v-125h-138v127c-146 24 -204 123 -204 265c0 157 87 263 275 263c87 0 132 -17 162 -28v-124c-35 13 -72 26 -135 26c-93 0 -147 -38 -147 -133c0 -100 52 -148 165 -148c52 0 96 13 124 28z" />
    <glyph glyph-name="cyrstraightU" unicode="&#x4ae;" horiz-adv-x="647" 
d="M407 260v-260h-165v260l-243 440h191l136 -255l132 255h190z" />
    <glyph glyph-name="cyrstraightu" unicode="&#x4af;" horiz-adv-x="543" 
d="M539 510l-193 -526v-194h-149v194l-192 526h166l104 -355l108 355h156z" />
    <glyph glyph-name="cyrstraightUbar" unicode="&#x4b0;" horiz-adv-x="647" 
d="M648 700l-223 -407h142v-113h-160v-180h-165v180h-160v113h142l-225 407h191l136 -255l132 255h190z" />
    <glyph glyph-name="cyrstraightubar" unicode="&#x4b1;" horiz-adv-x="543" 
d="M539 510l-178 -485h119v-114h-134v-121h-149v121h-135v114h120l-177 485h166l105 -348l107 348h156z" />
    <glyph glyph-name="cyrHadesc" unicode="&#x4b2;" horiz-adv-x="696" 
d="M469 0l-138 247l-133 -247h-192l205 361l-187 339h193l120 -233l126 233h188l-194 -337l125 -216h100v-303h-155v156h-58z" />
    <glyph glyph-name="cyrhadesc" unicode="&#x4b3;" horiz-adv-x="568" 
d="M377 265l90 -139h90v-257h-138v131h-43l-105 164l-102 -164h-165l167 264l-152 246h167l92 -152l95 152h161z" />
    <glyph glyph-name="cyrChedesc" unicode="&#x4b6;" horiz-adv-x="699" 
d="M678 147v-303h-155v156h-95v258c-35 -11 -80 -21 -140 -21c-183 0 -245 86 -245 218v245h165v-206c0 -88 40 -106 120 -106c39 0 72 6 100 17v295h165v-553h85z" />
    <glyph glyph-name="cyrchedesc" unicode="&#x4b7;" horiz-adv-x="593" 
d="M573 126v-257h-138v131h-88v176c-23 -8 -76 -17 -120 -17c-112 0 -193 39 -193 156v195h149v-144c0 -61 29 -81 89 -81c36 0 59 8 75 12v213h149v-384h77z" />
    <glyph glyph-name="cyrChevertbar" unicode="&#x4b8;" horiz-adv-x="691" 
d="M286 510h99v-125c31 4 60 10 79 18v297h165v-700h-165v261c-21 -7 -48 -14 -79 -19v-110h-99v105c-175 7 -243 86 -243 230v233h161v-203c0 -73 26 -102 82 -111v124z" />
    <glyph glyph-name="cyrchevertbar" unicode="&#x4b9;" horiz-adv-x="601" 
d="M248 383h88v-98c27 4 51 10 62 13v212h149v-510h-149v180c-8 -3 -31 -9 -62 -13v-85h-88v79c-120 3 -214 43 -214 179v170h149v-133c0 -55 22 -80 65 -89v95z" />
    <glyph glyph-name="cyrH" unicode="&#x4ba;" horiz-adv-x="655" 
d="M63 0v700h165v-250c33 11 80 21 139 21c184 0 246 -86 246 -218v-253h-165v207c0 88 -40 113 -120 113c-40 0 -73 -6 -100 -17v-303h-165z" />
    <glyph glyph-name="cyrh" unicode="&#x4bb;" horiz-adv-x="605" 
d="M554 318v-318h-149v264c0 100 -23 129 -91 129c-77 0 -110 -52 -110 -157v-236h-149v750h149v-311h2c37 57 98 80 166 80c120 0 182 -60 182 -201z" />
    <glyph glyph-name="cyrI" unicode="&#x4c0;" horiz-adv-x="290" 
d="M228 700v-700h-165v700h165z" />
    <glyph glyph-name="uni04CF" unicode="&#x4cf;" horiz-adv-x="259" 
d="M204 750v-750h-149v750h149z" />
    <glyph glyph-name="cyrinvE" unicode="&#x4d8;" horiz-adv-x="706" 
d="M39 346v49h456c-5 80 -47 178 -204 178c-71 0 -137 -12 -188 -37v147c73 21 140 30 212 30c301 0 352 -194 352 -365c0 -180 -91 -361 -322 -361c-190 0 -306 116 -306 359zM496 280h-293v-5c1 -93 41 -151 144 -151c75 0 141 44 149 156z" />
    <glyph glyph-name="cyrinve" unicode="&#x4d9;" horiz-adv-x="574" 
d="M64 366v114c27 21 101 42 189 42c201 0 289 -96 289 -273c0 -161 -98 -261 -263 -261c-187 0 -249 117 -249 261v40h359c-11 79 -57 114 -154 114c-76 0 -136 -16 -171 -37zM389 204h-209c-1 -60 29 -102 97 -102c65 0 103 34 112 102z" />
    <glyph glyph-name="cyrImacron" unicode="&#x4e2;" horiz-adv-x="733" 
d="M671 700v-700h-165v469l-268 -469h-175v700h165v-468l268 468h175zM562 884v-98h-364v98h364z" />
    <glyph glyph-name="cyrimacron" unicode="&#x4e3;" horiz-adv-x="608" 
d="M198 0h-143v510h149v-251l-3 -72h1l35 59l173 264h143v-510h-149v256l4 67h-2l-35 -59zM472 709v-95h-332v95h332z" />
    <glyph glyph-name="cyrObar" unicode="&#x4e8;" horiz-adv-x="768" 
d="M386 -13c-224 0 -346 126 -346 363c0 236 129 363 341 363c236 0 347 -137 347 -363c0 -251 -131 -363 -342 -363zM381 571c-96 0 -152 -53 -167 -160h340c-14 107 -72 160 -173 160zM390 130c97 0 151 51 164 159h-340c16 -107 76 -159 176 -159z" />
    <glyph glyph-name="cyrobar" unicode="&#x4e9;" horiz-adv-x="611" 
d="M306 -12c-175 0 -273 84 -273 267c0 175 104 267 273 267c173 0 273 -87 273 -267c0 -175 -98 -267 -273 -267zM306 105c65 0 106 31 117 104h-235c13 -73 57 -104 118 -104zM306 405c-64 0 -106 -30 -118 -102h235c-11 72 -49 102 -117 102z" />
    <glyph glyph-name="cyrUmacron" unicode="&#x4ee;" horiz-adv-x="654" 
d="M127 8l2 138c15 -7 32 -12 56 -12c43 0 65 17 78 49c1 1 3 6 4 9l-265 508h192l164 -349l124 349h171l-219 -540c-49 -120 -111 -170 -216 -170c-33 0 -63 6 -91 18zM525 884v-98h-364v98h364z" />
    <glyph glyph-name="cyrumacron" unicode="&#x4ef;" horiz-adv-x="542" 
d="M73 -207l3 123c16 -6 32 -9 49 -9c51 0 73 23 88 70l5 15l-213 518h165l121 -345l94 345h152l-171 -505c-54 -156 -100 -224 -218 -224c-27 0 -54 4 -75 12zM446 709v-95h-332v95h332z" />
    <glyph glyph-name="Germandbls" unicode="&#x1e9e;" horiz-adv-x="676" 
d="M299 2v124c24 -7 44 -8 63 -8c59 0 107 22 107 98c0 64 -33 94 -116 94h-34v79l107 151c-19 17 -48 29 -87 29c-76 0 -111 -49 -111 -118v-451h-165v460c0 184 123 253 274 253c103 0 196 -41 268 -133l-132 -171v-1c143 -13 171 -118 171 -193
c0 -155 -108 -226 -241 -226c-40 0 -71 4 -104 13z" />
    <glyph glyph-name="uni2010" unicode="&#x2010;" horiz-adv-x="475" 
d="M405 342v-120h-335v120h335z" />
    <glyph glyph-name="uni2011" unicode="&#x2011;" horiz-adv-x="475" 
d="M405 342v-120h-335v120h335z" />
    <glyph glyph-name="figuredash" unicode="&#x2012;" horiz-adv-x="633" 
d="M589 405v-110h-545v110h545z" />
    <glyph glyph-name="endash" unicode="&#x2013;" horiz-adv-x="647" 
d="M603 343v-110h-558v110h558z" />
    <glyph glyph-name="emdash" unicode="&#x2014;" horiz-adv-x="808" 
d="M764 343v-110h-719v110h719z" />
    <glyph glyph-name="quoteleft" unicode="&#x2018;" horiz-adv-x="324" 
d="M246 713l35 -87c-67 -20 -101 -52 -113 -101c72 0 99 -41 99 -92c0 -49 -35 -89 -104 -89c-61 0 -112 40 -112 128c0 115 69 211 195 241z" />
    <glyph glyph-name="quoteright" unicode="&#x2019;" horiz-adv-x="324" 
d="M78 343l-35 87c67 20 101 52 113 101c-72 0 -99 41 -99 92c0 49 35 89 104 89c61 0 112 -40 112 -128c0 -115 -70 -212 -195 -241z" />
    <glyph glyph-name="quotesinglbase" unicode="&#x201a;" horiz-adv-x="324" 
d="M78 -200l-35 87c67 20 101 52 113 101c-72 0 -99 41 -99 92c0 49 35 89 104 89c61 0 112 -40 112 -128c0 -115 -70 -212 -195 -241z" />
    <glyph glyph-name="quotedblleft" unicode="&#x201c;" horiz-adv-x="573" 
d="M246 713l35 -87c-67 -20 -101 -52 -113 -101c72 0 99 -41 99 -92c0 -49 -35 -89 -104 -89c-61 0 -112 40 -112 128c0 115 69 211 195 241zM495 713l35 -87c-67 -20 -101 -52 -113 -101c72 0 99 -41 99 -92c0 -49 -35 -89 -104 -89c-61 0 -112 40 -112 128
c0 115 69 211 195 241z" />
    <glyph glyph-name="quotedblright" unicode="&#x201d;" horiz-adv-x="573" 
d="M78 343l-35 87c67 20 101 52 113 101c-72 0 -99 41 -99 92c0 49 35 89 104 89c61 0 112 -40 112 -128c0 -115 -70 -212 -195 -241zM326 343l-35 87c67 20 101 52 113 101c-72 0 -99 41 -99 92c0 49 35 89 104 89c61 0 112 -40 112 -128c0 -115 -70 -212 -195 -241z" />
    <glyph glyph-name="quotedblbase" unicode="&#x201e;" horiz-adv-x="573" 
d="M78 -200l-35 87c67 20 101 52 113 101c-72 0 -99 41 -99 92c0 49 35 89 104 89c61 0 112 -40 112 -128c0 -115 -70 -212 -195 -241zM326 -200l-35 87c67 20 101 52 113 101c-72 0 -99 41 -99 92c0 49 35 89 104 89c61 0 112 -40 112 -128c0 -115 -70 -212 -195 -241z" />
    <glyph glyph-name="dagger" unicode="&#x2020;" horiz-adv-x="556" 
d="M358 425v-425h-160v425h-163v125h163v150h160v-150h163v-125h-163z" />
    <glyph glyph-name="daggerdbl" unicode="&#x2021;" horiz-adv-x="556" 
d="M358 150v-150h-160v150h-163v126h163v149h-163v125h163v150h160v-150h163v-125h-163v-149h163v-126h-163z" />
    <glyph glyph-name="bullet" unicode="&#x2022;" horiz-adv-x="438" 
d="M220 189c-88 0 -162 74 -162 161c0 89 74 163 162 163c87 0 161 -74 161 -163c0 -87 -74 -161 -161 -161z" />
    <glyph glyph-name="ellipsis" unicode="&#x2026;" horiz-adv-x="885" 
d="M826 79c0 -57 -36 -91 -100 -91c-60 0 -98 35 -98 91c0 57 34 90 98 90c60 0 100 -35 100 -90zM258 79c0 -57 -36 -91 -100 -91c-60 0 -98 35 -98 91c0 57 34 90 98 90c60 0 100 -35 100 -90zM542 79c0 -57 -36 -91 -100 -91c-60 0 -98 35 -98 91c0 57 34 90 98 90
c60 0 100 -35 100 -90z" />
    <glyph glyph-name="perthousand" unicode="&#x2030;" horiz-adv-x="1285" 
d="M655 74c51 0 68 34 68 103s-16 104 -68 104c-48 0 -66 -35 -66 -104s19 -103 66 -103zM655 -13c-84 0 -182 35 -182 190c0 153 99 190 182 190c85 0 183 -35 183 -190c0 -152 -100 -190 -183 -190zM220 420c51 0 67 34 67 103s-15 104 -67 104c-49 0 -67 -35 -67 -104
s19 -103 67 -103zM220 334c-84 0 -182 35 -182 189c0 153 99 190 182 190c85 0 183 -35 183 -190c0 -152 -100 -189 -183 -189zM735 700l-493 -700h-102l493 700h102zM1065 74c51 0 68 34 68 103s-16 104 -68 104c-48 0 -66 -35 -66 -104s19 -103 66 -103zM1065 -13
c-84 0 -182 35 -182 190c0 153 99 190 182 190c85 0 183 -35 183 -190c0 -152 -100 -190 -183 -190z" />
    <glyph glyph-name="guilsinglleft" unicode="&#x2039;" horiz-adv-x="359" 
d="M204 269l118 -209h-144l-130 209l130 209h144z" />
    <glyph glyph-name="guilsinglright" unicode="&#x203a;" horiz-adv-x="359" 
d="M312 269l-130 -209h-144l118 209l-118 209h144z" />
    <glyph glyph-name="fraction" unicode="&#x2044;" horiz-adv-x="170" 
d="M348 720l-433 -742h-93l434 742h92z" />
    <glyph glyph-name="zerosuperior" unicode="&#x2070;" 
d="M205 465c39 0 55 34 55 126c0 91 -15 128 -58 128s-57 -39 -57 -128c0 -91 17 -126 60 -126zM203 374c-117 0 -178 66 -178 218s65 219 177 219c123 0 178 -67 178 -219c0 -155 -64 -218 -177 -218z" />
    <glyph glyph-name="foursuperior" unicode="&#x2074;" 
d="M113 557h108v149h-1zM335 463v-82h-115v82h-203v90l181 247h137v-242h57v-95h-57z" />
    <glyph glyph-name="fivesuperior" unicode="&#x2075;" 
d="M57 393v93c32 -13 60 -17 100 -17c55 0 78 19 78 54c0 32 -19 51 -74 51c-40 0 -65 -5 -98 -13l13 239h258v-91h-174l-4 -61c16 5 35 7 58 7c98 0 141 -63 141 -131c0 -81 -46 -150 -181 -150c-37 0 -78 4 -117 19z" />
    <glyph glyph-name="sixsuperior" unicode="&#x2076;" 
d="M211 458c28 0 51 22 51 62c0 39 -21 59 -52 59s-55 -14 -55 -53c0 -43 21 -68 56 -68zM341 798v-94c-32 11 -63 14 -94 14c-46 0 -103 -17 -103 -97c19 19 48 36 97 36c74 0 136 -42 136 -135c0 -89 -67 -148 -166 -148c-130 0 -177 91 -177 199c0 131 54 238 208 238
c21 0 56 -2 99 -13z" />
    <glyph glyph-name="sevensuperior" unicode="&#x2077;" 
d="M354 723l-142 -342h-127l147 328h-189v91h311v-77z" />
    <glyph glyph-name="eightsuperior" unicode="&#x2078;" 
d="M210 630c25 16 42 33 42 56c0 24 -18 41 -50 41c-31 0 -49 -18 -49 -41c0 -27 24 -45 57 -56zM196 567c-29 -15 -50 -30 -50 -61c0 -27 18 -49 57 -49c33 0 56 18 56 50c0 33 -35 49 -63 60zM292 605c63 -24 85 -57 85 -105c0 -77 -68 -126 -173 -126
c-100 0 -175 44 -175 121c0 55 28 87 84 107c-52 21 -75 50 -75 98c0 68 66 111 166 111c91 0 162 -35 162 -108c0 -45 -30 -79 -74 -98z" />
    <glyph glyph-name="ninesuperior" unicode="&#x2079;" 
d="M195 726c-29 0 -51 -22 -51 -62c0 -39 21 -59 52 -59s55 16 55 53c0 44 -21 68 -56 68zM63 386v94c32 -11 63 -14 94 -14c45 0 105 18 105 98c-20 -20 -47 -37 -98 -37c-74 0 -136 43 -136 135c0 88 67 149 167 149c128 0 176 -92 176 -199c0 -131 -55 -238 -209 -238
c-21 0 -56 1 -99 12z" />
    <glyph glyph-name="uni207A" unicode="&#x207a;" horiz-adv-x="355" 
d="M219 550v-107h-82v107h-107v82h107v106h82v-106h106v-82h-106z" />
    <glyph glyph-name="uni207B" unicode="&#x207b;" horiz-adv-x="355" 
d="M325 550h-295v82h295v-82z" />
    <glyph glyph-name="uni207C" unicode="&#x207c;" horiz-adv-x="355" 
d="M325 613h-295v82h295v-82zM325 486h-295v82h295v-82z" />
    <glyph glyph-name="uni207D" unicode="&#x207d;" horiz-adv-x="234" 
d="M130 863h102c-69 -88 -92 -183 -92 -272c0 -85 24 -184 91 -272h-101c-64 77 -95 176 -95 272c0 97 31 197 95 272z" />
    <glyph glyph-name="uni207E" unicode="&#x207e;" horiz-adv-x="234" 
d="M105 319h-101c67 88 91 187 91 272c0 89 -23 184 -92 272h103c64 -75 94 -175 94 -272c0 -96 -31 -195 -95 -272z" />
    <glyph glyph-name="zeroinferior" unicode="&#x2080;" 
d="M205 -15c39 0 55 34 55 126c0 91 -15 128 -58 128s-57 -39 -57 -128c0 -91 17 -126 60 -126zM203 -106c-117 0 -178 66 -178 218s65 219 177 219c123 0 178 -67 178 -219c0 -155 -64 -218 -177 -218z" />
    <glyph glyph-name="oneinferior" unicode="&#x2081;" 
d="M298 320v-419h-117v298l-82 -55l-48 79l152 97h95z" />
    <glyph glyph-name="twoinferior" unicode="&#x2082;" 
d="M359 -2v-97h-318v101l70 49c88 59 118 86 118 129c0 29 -15 54 -70 54c-33 0 -73 -9 -104 -24v99c47 16 88 22 137 22c118 0 164 -55 164 -123c0 -70 -43 -121 -149 -190l-30 -19v-1h182z" />
    <glyph glyph-name="threeinferior" unicode="&#x2083;" 
d="M49 -87v96c43 -16 80 -20 111 -20c56 0 78 15 78 42c0 29 -23 44 -69 44h-72v83h62c43 0 69 11 69 39c0 27 -19 39 -68 39c-39 0 -76 -8 -104 -19v94c41 15 93 20 136 20c121 0 157 -56 157 -110c0 -53 -30 -84 -86 -100v-2c75 -13 96 -56 96 -99
c0 -72 -60 -126 -185 -126c-31 0 -78 4 -125 19z" />
    <glyph glyph-name="fourinferior" unicode="&#x2084;" 
d="M113 77h108v149h-1zM335 -17v-82h-115v82h-203v90l181 247h137v-242h57v-95h-57z" />
    <glyph glyph-name="fiveinferior" unicode="&#x2085;" 
d="M57 -87v93c32 -13 60 -17 100 -17c55 0 78 19 78 54c0 32 -19 51 -74 51c-40 0 -65 -5 -98 -13l13 239h258v-91h-174l-4 -61c16 5 35 7 58 7c98 0 141 -63 141 -131c0 -81 -46 -150 -181 -150c-37 0 -78 4 -117 19z" />
    <glyph glyph-name="sixinferior" unicode="&#x2086;" 
d="M211 -22c28 0 51 22 51 62c0 39 -21 59 -52 59s-55 -14 -55 -53c0 -43 21 -68 56 -68zM341 318v-94c-32 11 -63 14 -94 14c-46 0 -103 -17 -103 -97c19 19 48 36 97 36c74 0 136 -42 136 -135c0 -89 -67 -148 -166 -148c-130 0 -177 91 -177 199c0 131 54 238 208 238
c21 0 56 -2 99 -13z" />
    <glyph glyph-name="seveninferior" unicode="&#x2087;" 
d="M354 243l-142 -342h-127l147 328h-189v91h311v-77z" />
    <glyph glyph-name="eightinferior" unicode="&#x2088;" 
d="M210 150c25 16 42 33 42 56c0 24 -18 41 -50 41c-31 0 -49 -18 -49 -41c0 -27 24 -45 57 -56zM196 87c-29 -15 -50 -30 -50 -61c0 -27 18 -49 57 -49c33 0 56 18 56 50c0 33 -35 49 -63 60zM292 125c63 -24 85 -57 85 -105c0 -77 -68 -126 -173 -126
c-100 0 -175 44 -175 121c0 55 28 87 84 107c-52 21 -75 50 -75 98c0 68 66 111 166 111c91 0 162 -35 162 -108c0 -45 -30 -79 -74 -98z" />
    <glyph glyph-name="nineinferior" unicode="&#x2089;" 
d="M195 246c-29 0 -51 -22 -51 -62c0 -39 21 -59 52 -59s55 16 55 53c0 44 -21 68 -56 68zM63 -94v94c32 -11 63 -14 94 -14c45 0 105 18 105 98c-20 -20 -47 -37 -98 -37c-74 0 -136 43 -136 135c0 88 67 149 167 149c128 0 176 -92 176 -199c0 -131 -55 -238 -209 -238
c-21 0 -56 1 -99 12z" />
    <glyph glyph-name="plussub" unicode="&#x208a;" horiz-adv-x="355" 
d="M219 70v-107h-82v107h-107v82h107v106h82v-106h106v-82h-106z" />
    <glyph glyph-name="uni208B" unicode="&#x208b;" horiz-adv-x="355" 
d="M325 70h-295v82h295v-82z" />
    <glyph glyph-name="uni208C" unicode="&#x208c;" horiz-adv-x="355" 
d="M325 133h-295v82h295v-82zM325 6h-295v82h295v-82z" />
    <glyph glyph-name="uni208D" unicode="&#x208d;" horiz-adv-x="234" 
d="M130 383h102c-69 -88 -92 -183 -92 -272c0 -85 24 -184 91 -272h-101c-64 77 -95 176 -95 272c0 97 31 197 95 272z" />
    <glyph glyph-name="uni208E" unicode="&#x208e;" horiz-adv-x="234" 
d="M105 -161h-101c67 88 91 187 91 272c0 89 -23 184 -92 272h103c64 -75 94 -175 94 -272c0 -96 -31 -195 -95 -272z" />
    <glyph glyph-name="Euro" unicode="&#x20ac;" horiz-adv-x="634" 
d="M602 151v-138c-36 -16 -91 -26 -175 -26c-197 0 -300 94 -327 258h-85l22 77h56v21v38h-78l23 77h65c31 167 135 255 342 255c75 0 125 -13 156 -21v-136c-43 15 -95 21 -134 21c-105 0 -160 -43 -187 -119h272l-24 -77h-267c-1 -11 -1 -20 -1 -31s0 -19 1 -28h249
l-23 -77h-206c24 -76 79 -121 183 -121c51 0 90 7 138 27z" />
    <glyph glyph-name="uni20B4" unicode="&#x20b4;" horiz-adv-x="611" 
d="M524 143v-131c-75 -20 -141 -25 -201 -25c-208 0 -245 121 -245 174c0 37 12 65 24 85h-59v78h119c10 10 63 52 75 62h-194v79h279c25 23 38 46 38 66c0 46 -43 55 -77 55c-63 0 -102 -4 -161 -25v132c74 16 160 20 197 20c181 0 218 -94 218 -154c0 -41 -15 -71 -34 -94
h66v-79h-131c-12 -10 -65 -51 -76 -62h207v-78h-287c-20 -19 -27 -45 -27 -62c0 -48 39 -69 114 -69c37 0 98 5 155 28z" />
    <glyph glyph-name="uni20B8" unicode="&#x20b8;" horiz-adv-x="598" 
d="M578 700v-94h-558v94h558zM382 462v-462h-165v462h-197v95h558v-95h-196z" />
    <glyph glyph-name="uni20BD" unicode="&#x20bd;" horiz-adv-x="655" 
d="M286 589v-212h66c83 0 109 40 109 108c0 69 -26 104 -109 104h-66zM489 213v-100h-200v-113h-165v113h-89v100h89v62h-89v102h89v323h243c188 0 261 -79 261 -212c0 -131 -78 -213 -270 -213h-69v-62h200z" />
    <glyph glyph-name="afii61352" unicode="&#x2116;" horiz-adv-x="1105" 
d="M649 700v-700h-178l-248 468v-468h-160v700h188l238 -456v456h160zM891 320c-137 0 -172 101 -172 196c0 98 31 197 170 197c138 0 174 -100 174 -197c0 -95 -37 -196 -172 -196zM1053 262v-115h-323v115h323zM891 420c44 0 52 50 52 96c0 47 -6 96 -52 96
c-44 0 -52 -49 -52 -96c0 -46 8 -96 52 -96z" />
    <glyph glyph-name="published" unicode="&#x2117;" horiz-adv-x="824" 
d="M775 349c0 -199 -163 -362 -363 -362c-199 0 -362 163 -362 362c0 201 163 363 362 363c200 0 363 -162 363 -363zM701 348c0 160 -129 291 -290 291c-158 0 -287 -131 -287 -291c0 -158 129 -287 287 -287c161 0 290 129 290 287zM387 459v-96h43c27 0 54 9 54 48
c0 40 -22 48 -53 48h-44zM389 282v-118h-99v376h152c68 0 144 -25 144 -125c0 -87 -59 -133 -152 -133h-45z" />
    <glyph glyph-name="trademark" unicode="&#x2122;" horiz-adv-x="1003" 
d="M928 700v-406h-110v256l-86 -256h-81l-85 256v-256h-111v406h147l90 -266h2l88 266h146zM279 599v-305h-117v305h-127v101h370v-101h-126z" />
    <glyph glyph-name="onethird" unicode="&#x2153;" horiz-adv-x="905" 
d="M273 701v-419h-117v298l-82 -55l-48 79l152 97h95zM690 720l-433 -742h-93l434 742h92zM550 13v96c43 -16 80 -20 111 -20c56 0 78 15 78 42c0 29 -23 44 -69 44h-72v83h62c43 0 69 11 69 39c0 27 -19 39 -68 39c-39 0 -76 -8 -104 -19v94c41 15 93 20 136 20
c121 0 157 -56 157 -110c0 -53 -30 -84 -86 -100v-2c75 -13 96 -56 96 -99c0 -72 -60 -126 -185 -126c-31 0 -78 4 -125 19z" />
    <glyph glyph-name="twothirds" unicode="&#x2154;" horiz-adv-x="905" 
d="M331 379v-97h-318v101l70 49c88 59 118 86 118 129c0 29 -15 54 -70 54c-33 0 -73 -9 -104 -24v99c47 16 88 22 137 22c118 0 164 -55 164 -123c0 -70 -43 -121 -149 -190l-30 -19v-1h182zM714 720l-433 -742h-93l434 742h92zM567 13v96c43 -16 80 -20 111 -20
c56 0 78 15 78 42c0 29 -23 44 -69 44h-72v83h62c43 0 69 11 69 39c0 27 -19 39 -68 39c-39 0 -76 -8 -104 -19v94c41 15 93 20 136 20c121 0 157 -56 157 -110c0 -53 -30 -84 -86 -100v-2c75 -13 96 -56 96 -99c0 -72 -60 -126 -185 -126c-31 0 -78 4 -125 19z" />
    <glyph glyph-name="oneeighth" unicode="&#x215b;" horiz-adv-x="905" 
d="M271 701v-419h-117v298l-82 -55l-48 79l152 97h95zM684 720l-433 -742h-93l434 742h92zM704 250c25 16 42 33 42 56c0 24 -18 41 -50 41c-31 0 -49 -18 -49 -41c0 -27 24 -45 57 -56zM690 187c-29 -15 -50 -30 -50 -61c0 -27 18 -49 57 -49c33 0 56 18 56 50
c0 33 -35 49 -63 60zM786 225c63 -24 85 -57 85 -105c0 -77 -68 -126 -173 -126c-100 0 -175 44 -175 121c0 55 28 87 84 107c-52 21 -75 50 -75 98c0 68 66 111 166 111c91 0 162 -35 162 -108c0 -45 -30 -79 -74 -98z" />
    <glyph glyph-name="threeeighths" unicode="&#x215c;" horiz-adv-x="905" 
d="M25 294v96c43 -16 80 -20 111 -20c56 0 78 15 78 42c0 29 -23 44 -69 44h-72v83h62c43 0 69 11 69 39c0 27 -19 39 -68 39c-39 0 -76 -8 -104 -19v94c41 15 93 20 136 20c121 0 157 -56 157 -110c0 -53 -30 -84 -86 -100v-2c75 -13 96 -56 96 -99
c0 -72 -60 -126 -185 -126c-31 0 -78 4 -125 19zM694 720l-433 -742h-93l434 742h92zM712 250c25 16 42 33 42 56c0 24 -18 41 -50 41c-31 0 -49 -18 -49 -41c0 -27 24 -45 57 -56zM698 187c-29 -15 -50 -30 -50 -61c0 -27 18 -49 57 -49c33 0 56 18 56 50
c0 33 -35 49 -63 60zM794 225c63 -24 85 -57 85 -105c0 -77 -68 -126 -173 -126c-100 0 -175 44 -175 121c0 55 28 87 84 107c-52 21 -75 50 -75 98c0 68 66 111 166 111c91 0 162 -35 162 -108c0 -45 -30 -79 -74 -98z" />
    <glyph glyph-name="fiveeighths" unicode="&#x215d;" horiz-adv-x="905" 
d="M37 294v93c32 -13 60 -17 100 -17c55 0 78 19 78 54c0 32 -19 51 -74 51c-40 0 -65 -5 -98 -13l13 239h258v-91h-174l-4 -61c16 5 35 7 58 7c98 0 141 -63 141 -131c0 -81 -46 -150 -181 -150c-37 0 -78 4 -117 19zM695 720l-433 -742h-93l434 742h92zM712 250
c25 16 42 33 42 56c0 24 -18 41 -50 41c-31 0 -49 -18 -49 -41c0 -27 24 -45 57 -56zM698 187c-29 -15 -50 -30 -50 -61c0 -27 18 -49 57 -49c33 0 56 18 56 50c0 33 -35 49 -63 60zM794 225c63 -24 85 -57 85 -105c0 -77 -68 -126 -173 -126c-100 0 -175 44 -175 121
c0 55 28 87 84 107c-52 21 -75 50 -75 98c0 68 66 111 166 111c91 0 162 -35 162 -108c0 -45 -30 -79 -74 -98z" />
    <glyph glyph-name="seveneighths" unicode="&#x215e;" horiz-adv-x="905" 
d="M351 624l-142 -342h-127l147 328h-189v91h311v-77zM680 720l-433 -742h-93l434 742h92zM704 250c25 16 42 33 42 56c0 24 -18 41 -50 41c-31 0 -49 -18 -49 -41c0 -27 24 -45 57 -56zM690 187c-29 -15 -50 -30 -50 -61c0 -27 18 -49 57 -49c33 0 56 18 56 50
c0 33 -35 49 -63 60zM786 225c63 -24 85 -57 85 -105c0 -77 -68 -126 -173 -126c-100 0 -175 44 -175 121c0 55 28 87 84 107c-52 21 -75 50 -75 98c0 68 66 111 166 111c91 0 162 -35 162 -108c0 -45 -30 -79 -74 -98z" />
    <glyph glyph-name="arrowleft" unicode="&#x2190;" horiz-adv-x="800" 
d="M251 292l148 -167h-149l-192 225l192 225h149l-148 -166h492v-117h-492z" />
    <glyph glyph-name="arrowup" unicode="&#x2191;" horiz-adv-x="800" 
d="M342 507l-167 -148v149l225 192l225 -192v-149l-166 148v-507h-117v507z" />
    <glyph glyph-name="arrowright" unicode="&#x2192;" horiz-adv-x="800" 
d="M549 409l-147 166h148l193 -225l-193 -225h-148l147 167h-491v117h491z" />
    <glyph glyph-name="arrowdown" unicode="&#x2193;" horiz-adv-x="800" 
d="M459 194l166 147v-148l-225 -193l-225 193v148l167 -147v506h117v-506z" />
    <glyph glyph-name="arrowboth" unicode="&#x2194;" horiz-adv-x="800" 
d="M242 292l144 -167h-148l-188 225l188 225h148l-144 -166h317l-145 166h149l187 -225l-187 -225h-149l145 167h-317z" />
    <glyph glyph-name="arrowupdn" unicode="&#x2195;" horiz-adv-x="800" 
d="M459 192l166 144v-148l-225 -188l-225 188v148l167 -144v317l-167 -145v149l225 187l225 -187v-149l-166 145v-317z" />
    <glyph glyph-name="arrownorthwest" unicode="&#x2196;" horiz-adv-x="800" 
d="M247 421l-13 -221l-105 105l23 294l294 23l105 -105l-222 -14l348 -347l-82 -82z" />
    <glyph glyph-name="arrownortheast" unicode="&#x2197;" horiz-adv-x="800" 
d="M471 503l-221 14l105 105l294 -23l23 -294l-105 -105l-14 221l-347 -347l-82 82z" />
    <glyph glyph-name="arrowsoutheast" unicode="&#x2198;" horiz-adv-x="800" 
d="M553 279l14 222l105 -105l-23 -294l-294 -23l-105 105l221 13l-347 348l82 82z" />
    <glyph glyph-name="arrowsouthwest" unicode="&#x2199;" horiz-adv-x="800" 
d="M329 197l222 -13l-105 -105l-294 23l-23 294l105 105l13 -222l348 348l82 -82z" />
    <glyph glyph-name="partialdiff" unicode="&#x2202;" horiz-adv-x="612" 
d="M306 110c79 0 118 42 118 145c0 93 -38 146 -118 146c-76 0 -118 -43 -118 -146c0 -101 46 -145 118 -145zM403 461l3 2c-49 125 -186 178 -306 197l53 98c305 -51 426 -272 426 -492c0 -216 -154 -278 -282 -278c-193 0 -264 113 -264 265c0 160 86 258 235 258
c44 0 90 -7 135 -50z" />
    <glyph glyph-name="product" unicode="&#x220f;" horiz-adv-x="705" 
d="M643 700v-910h-165v762h-250v-762h-165v910h580z" />
    <glyph glyph-name="summation" unicode="&#x2211;" horiz-adv-x="577" 
d="M563 -66v-144h-533v144l223 335l-223 287v144h526v-144h-332l225 -287l-225 -335h339z" />
    <glyph glyph-name="minus" unicode="&#x2212;" horiz-adv-x="590" 
d="M541 265h-491v120h491v-120z" />
    <glyph glyph-name="division" unicode="&#x2215;" horiz-adv-x="527" 
d="M513 770l-371 -920h-137l371 920h137z" />
    <glyph glyph-name="radical" unicode="&#x221a;" horiz-adv-x="738" 
d="M599 692l-160 -842h-125l-183 515h-96v116h211l124 -375h3l126 693h225v-107h-125z" />
    <glyph glyph-name="infinity" unicode="&#x221e;" horiz-adv-x="762" 
d="M285 318l36 35l-46 46c-19 21 -33 29 -60 29c-43 0 -64 -38 -64 -75c0 -45 30 -71 61 -71c23 0 46 9 73 36zM480 391l-35 -38l43 -42c19 -19 35 -29 62 -29c39 0 63 31 63 70c0 48 -28 76 -60 76c-25 0 -46 -8 -73 -37zM381 283l-54 -56c-35 -36 -77 -50 -121 -50
c-115 0 -163 98 -163 176s48 180 163 180c39 0 84 -12 121 -51l55 -57l56 58c33 32 74 50 121 50c104 0 163 -85 163 -180c0 -76 -48 -176 -164 -176c-43 0 -84 15 -120 51z" />
    <glyph glyph-name="integral" unicode="&#x222b;" horiz-adv-x="551" 
d="M367 539l-109 -532c-29 -148 -97 -226 -240 -226c-32 0 -52 3 -67 6l27 127c11 -3 23 -4 38 -4c39 0 77 11 93 91l115 570c24 114 90 187 225 187c37 0 62 -4 91 -9l-25 -122c-8 3 -26 6 -47 6c-64 0 -88 -25 -101 -94z" />
    <glyph glyph-name="approxequal" unicode="&#x2248;" horiz-adv-x="584" 
d="M492 318l42 -100c-27 -43 -66 -87 -130 -87c-32 0 -62 7 -118 34c-39 19 -69 34 -105 34c-44 0 -72 -43 -88 -70l-43 99c21 43 65 89 131 89c36 0 74 -11 131 -38c43 -19 64 -30 89 -30c43 0 77 47 91 69zM492 523l42 -100c-27 -43 -66 -87 -130 -87c-32 0 -62 7 -118 34
c-39 19 -69 34 -105 34c-44 0 -72 -43 -88 -70l-43 99c21 43 65 89 131 89c36 0 74 -11 131 -38c43 -19 64 -30 89 -30c43 0 77 47 91 69z" />
    <glyph glyph-name="notequal" unicode="&#x2260;" horiz-adv-x="590" 
d="M92 60l60 104h-102v119h171l50 87h-221v120h290l60 103h99l-60 -103h102v-120h-171l-50 -87h221v-119h-290l-60 -104h-99z" />
    <glyph glyph-name="lessequal" unicode="&#x2264;" horiz-adv-x="584" 
d="M534 313v-122l-484 171v112l484 170v-122l-326 -103v-2zM534 161v-119h-484v119h484z" />
    <glyph glyph-name="greaterequal" unicode="&#x2265;" horiz-adv-x="584" 
d="M534 474v-112l-484 -171v122l327 104v2l-327 103v122zM534 161v-119h-484v119h484z" />
    <glyph glyph-name="lozenge" unicode="&#x25ca;" horiz-adv-x="616" 
d="M182 350l126 -167l127 167l-127 167zM581 350l-273 -363l-273 363l273 363z" />
    <glyph glyph-name="accent" unicode="&#xf400;" horiz-adv-x="0" 
d="M-94 740l-156 -147h-113l89 147h180z" />
    <glyph glyph-name="Accent" unicode="&#xf401;" horiz-adv-x="0" 
d="M-152 928l-169 -158h-118l94 158h193z" />
    <glyph glyph-name="Breve" unicode="&#xf406;" horiz-adv-x="768" 
d="M477 924l93 -22c-12 -85 -83 -142 -186 -142c-101 0 -173 57 -186 142l94 22c8 -34 27 -68 92 -68c64 0 85 34 93 68z" />
    <glyph glyph-name="Cedilla" unicode="&#xf407;" horiz-adv-x="599" 
d="M215 -248l11 70c19 -9 41 -13 65 -13c33 0 61 13 61 42c0 31 -33 38 -64 38c-11 0 -24 1 -35 -2l18 113h88l-11 -54c60 0 120 -27 120 -98c0 -68 -65 -113 -149 -113c-47 0 -77 6 -104 17z" />
    <glyph glyph-name="Circumflex" unicode="&#xf408;" horiz-adv-x="768" 
d="M465 918l119 -148h-125l-75 75l-74 -75h-125l118 148h162z" />
    <glyph glyph-name="Commaaccent" unicode="&#xf409;" horiz-adv-x="702" 
d="M283 -239v55c43 -3 78 3 83 34c-63 -7 -102 11 -102 50c0 33 35 55 88 55c56 0 94 -28 94 -84c0 -69 -63 -118 -163 -110z" />
    <glyph glyph-name="Apostrophe" unicode="&#xf40a;" horiz-adv-x="266" 
d="M244 700l-92 -213h-112l48 213h156z" />
    <glyph glyph-name="Dotaccent" unicode="&#xf40b;" horiz-adv-x="533" 
d="M361 851c0 -53 -32 -83 -95 -83c-60 0 -93 30 -93 83c0 51 33 80 93 80c63 0 95 -27 95 -80z" />
    <glyph glyph-name="Ring" unicode="&#xf40c;" horiz-adv-x="768" 
d="M383 831c29 0 52 22 52 50c0 27 -23 50 -52 50c-27 0 -48 -23 -48 -50c0 -28 21 -50 48 -50zM383 755c-70 0 -124 54 -124 126c0 68 54 125 124 125c72 0 127 -57 127 -125c0 -72 -55 -126 -127 -126z" />
    <glyph glyph-name="Tilde" unicode="&#xf40d;" horiz-adv-x="768" 
d="M506 920l80 -12c-5 -87 -50 -136 -111 -136c-33 0 -55 7 -94 26c-31 12 -45 24 -68 24c-19 0 -35 -17 -39 -50l-81 12c4 91 47 136 110 136c33 0 61 -12 93 -27c36 -16 51 -22 70 -22c23 0 36 16 40 49z" />
    <glyph glyph-name="Ogonek" unicode="&#xf40e;" horiz-adv-x="680" 
d="M491 -168v-75c-23 -11 -56 -22 -100 -22c-106 0 -136 59 -136 110c0 71 64 131 132 165l68 -10c-56 -37 -87 -78 -87 -131c0 -36 26 -55 61 -55c23 0 43 7 62 18z" />
    <glyph glyph-name="zero.tab" unicode="&#xf4e0;" horiz-adv-x="600" 
d="M307 127c77 0 108 64 108 221c0 159 -30 225 -115 225c-80 0 -111 -68 -111 -225s34 -221 118 -221zM303 -13c-188 0 -289 112 -289 363s105 363 286 363c199 0 289 -114 289 -363c0 -254 -103 -363 -286 -363z" />
    <glyph glyph-name="one.tab" unicode="&#xf4e1;" horiz-adv-x="600" 
d="M435 700v-700h-165v522l-121 -79l-68 117l217 140h137z" />
    <glyph glyph-name="two.tab" unicode="&#xf4e2;" horiz-adv-x="600" 
d="M549 145v-145h-499v148l106 80c144 99 207 163 207 237c0 60 -37 99 -125 99c-61 0 -120 -16 -168 -40v153c80 28 147 36 214 36c189 0 260 -97 260 -205c0 -131 -91 -231 -251 -338l-38 -24v-1h294z" />
    <glyph glyph-name="three.tab" unicode="&#xf4e3;" horiz-adv-x="600" 
d="M52 19v147c71 -27 126 -33 178 -33c96 0 136 31 136 80c0 57 -44 79 -124 79h-109v131h95c80 0 121 20 121 75c0 44 -35 70 -118 70c-65 0 -123 -11 -167 -30v144c68 23 136 31 208 31c197 0 254 -91 254 -187c0 -87 -49 -140 -140 -163v-2c115 -19 156 -80 156 -160
c0 -124 -89 -214 -289 -214c-51 0 -125 8 -201 32z" />
    <glyph glyph-name="four.tab" unicode="&#xf4e4;" horiz-adv-x="600" 
d="M149 288h193v267h-2zM505 143v-143h-165v143h-333v139l296 418h202v-411h90v-146h-90z" />
    <glyph glyph-name="five.tab" unicode="&#xf4e5;" horiz-adv-x="600" 
d="M64 16v142c47 -16 88 -26 148 -26c100 0 152 29 152 100c0 64 -42 97 -137 97c-56 0 -114 -10 -155 -22l20 393h418v-139h-291l-7 -119c32 7 54 9 89 9c168 0 238 -105 238 -218c0 -132 -75 -246 -299 -246c-53 0 -112 8 -176 29z" />
    <glyph glyph-name="six.tab" unicode="&#xf4e6;" horiz-adv-x="600" 
d="M312 116c60 0 101 38 101 110s-45 110 -102 110c-67 0 -107 -42 -107 -95c0 -76 40 -125 108 -125zM519 693v-144c-47 15 -91 23 -147 23c-101 0 -184 -62 -184 -185c30 33 73 66 166 66c127 0 229 -72 229 -223c0 -146 -107 -243 -268 -243c-208 0 -287 151 -287 339
c0 210 85 387 337 387c36 0 91 -4 154 -20z" />
    <glyph glyph-name="seven.tab" unicode="&#xf4e7;" horiz-adv-x="600" 
d="M549 576l-237 -576h-188l243 559h-317v141h499v-124z" />
    <glyph glyph-name="eight.tab" unicode="&#xf4e8;" horiz-adv-x="600" 
d="M320 410c56 31 81 59 81 102c0 53 -42 74 -102 74c-64 0 -99 -29 -99 -70c0 -55 57 -87 120 -106zM286 313c-48 -21 -98 -50 -98 -107c0 -55 43 -92 119 -92c63 0 108 30 108 89c0 64 -73 91 -129 110zM440 372c109 -40 143 -97 143 -181c0 -124 -107 -204 -278 -204
c-160 0 -284 68 -284 201c0 92 51 147 144 178c-80 36 -128 83 -128 170c0 112 105 177 267 177c145 0 260 -52 260 -176c0 -81 -44 -132 -124 -165z" />
    <glyph glyph-name="nine.tab" unicode="&#xf4e9;" horiz-adv-x="600" 
d="M288 584c-59 0 -99 -38 -99 -110s45 -112 102 -112c65 0 106 40 106 100c0 80 -40 122 -109 122zM84 7v145c47 -16 91 -23 147 -23c101 0 184 51 184 187c-28 -39 -74 -71 -166 -71c-127 0 -229 75 -229 226c0 146 107 242 268 242c209 0 287 -137 287 -332
c0 -220 -85 -394 -337 -394c-36 0 -91 4 -154 20z" />
    <glyph glyph-name="dollar.tab" unicode="&#xf4ec;" horiz-adv-x="600" 
d="M76 29v142c31 -20 103 -45 184 -45c77 0 106 28 106 75c0 54 -31 67 -109 94l-25 8c-120 40 -163 100 -163 211c0 105 67 173 182 193v104h94v-98c64 -3 115 -16 151 -31v-138c-52 21 -121 30 -173 30c-65 0 -97 -22 -97 -65c0 -45 32 -61 132 -96l27 -10
c120 -43 150 -110 150 -202c0 -117 -69 -187 -190 -207v-105h-94v99c-68 3 -128 17 -175 41z" />
    <glyph glyph-name="Euro.tab" unicode="&#xf4ed;" horiz-adv-x="600" 
d="M591 151v-138c-36 -16 -91 -26 -175 -26c-197 0 -300 94 -327 258h-85l22 77h56v21v38h-78l23 77h65c31 167 135 255 342 255c75 0 125 -13 156 -21v-136c-43 15 -95 21 -134 21c-105 0 -160 -43 -187 -119h272l-24 -77h-267c-1 -11 -1 -20 -1 -31s0 -19 1 -28h249
l-23 -77h-206c24 -76 79 -121 183 -121c51 0 90 7 138 27z" />
    <glyph glyph-name="cent.tab" unicode="&#xf4ee;" horiz-adv-x="600" 
d="M387 -113h-88v105c-158 19 -220 120 -220 267c0 141 71 240 220 259v106h88v-103c67 -4 102 -18 129 -27v-124c-35 13 -72 26 -135 26c-93 0 -147 -38 -147 -133c0 -100 52 -148 165 -148c52 0 96 13 124 28v-123c-25 -12 -68 -28 -136 -31v-102z" />
    <glyph glyph-name="sterling.tab" unicode="&#xf4ef;" horiz-adv-x="600" 
d="M558 135v-135h-503v135h87v173h-87v111h87v53c0 122 69 241 258 241c51 0 103 -7 155 -20v-134c-51 15 -84 19 -125 19c-88 0 -123 -48 -123 -121v-38h163v-111h-163v-173h251z" />
    <glyph glyph-name="yen.tab" unicode="&#xf4fa;" horiz-adv-x="600" 
d="M532 140h-147v-140h-165v140h-148v84h148v41l-11 21h-137v84h94l-170 330h190l118 -260l114 260h190l-169 -330h93v-84h-136l-11 -21v-41h147v-84z" />
    <glyph glyph-name="florin.tab" unicode="&#xf4fb;" horiz-adv-x="600" 
d="M138 1l77 383h-91l26 126h91l12 61c24 114 90 187 225 187c37 0 62 -4 91 -9l-25 -122c-8 3 -26 6 -47 6c-64 0 -88 -25 -101 -94l-6 -29h125l-25 -126h-126l-77 -377c-29 -148 -97 -226 -240 -226c-32 0 -52 3 -67 6l27 127c11 -3 23 -4 38 -4c39 0 77 11 93 91z" />
    <glyph glyph-name="uni20B4.tab" unicode="&#xf4fc;" horiz-adv-x="600" 
d="M521 143v-131c-75 -20 -141 -25 -201 -25c-208 0 -245 121 -245 174c0 37 12 65 24 85h-59v78h119c10 10 63 52 75 62h-194v79h279c25 23 38 46 38 66c0 46 -43 55 -77 55c-63 0 -102 -4 -161 -25v132c74 16 160 20 197 20c181 0 218 -94 218 -154c0 -41 -15 -71 -34 -94
h66v-79h-131c-12 -10 -65 -51 -76 -62h207v-78h-287c-20 -19 -27 -45 -27 -62c0 -48 39 -69 114 -69c37 0 98 5 155 28z" />
    <glyph glyph-name="uni20BD.tab" unicode="&#xf4fd;" horiz-adv-x="600" 
d="M260 589v-212h66c83 0 109 40 109 108c0 69 -26 104 -109 104h-66zM463 213v-100h-200v-113h-165v113h-89v100h89v62h-89v102h89v323h243c188 0 261 -79 261 -212c0 -131 -78 -213 -270 -213h-69v-62h200z" />
    <glyph glyph-name="uni20B8.tab" unicode="&#xf5f3;" horiz-adv-x="600" 
d="M571 700v-94h-542v94h542zM383 462v-462h-165v462h-189v95h542v-95h-188z" />
    <glyph glyph-name="uniF643" unicode="&#xf643;" horiz-adv-x="600" 
d="M303 116c72 0 97 47 97 138c0 95 -28 138 -100 138c-68 0 -98 -42 -98 -138c0 -92 29 -138 101 -138zM300 -13c-188 0 -284 99 -284 268c0 175 109 267 283 267c181 0 285 -91 285 -267c0 -172 -96 -268 -284 -268z" />
    <glyph glyph-name="uniF644" unicode="&#xf644;" horiz-adv-x="600" 
d="M435 510v-510h-165v332l-117 -75l-68 117l213 136h137z" />
    <glyph glyph-name="uniF645" unicode="&#xf645;" horiz-adv-x="600" 
d="M551 138v-138h-502v144l113 59c113 51 176 78 176 131c0 41 -36 55 -99 55c-52 0 -115 -10 -171 -33v133c77 24 153 33 250 33c200 0 228 -90 228 -148c0 -103 -89 -144 -209 -203l-62 -31v-2h276z" />
    <glyph glyph-name="uniF646" unicode="&#xf646;" horiz-adv-x="600" 
d="M50 -171v147c71 -27 126 -33 178 -33c96 0 136 31 136 80c0 57 -44 79 -124 79h-109v131h95c80 0 121 20 121 75c0 44 -35 70 -118 70c-65 0 -123 -11 -167 -30v144c68 23 136 31 208 31c197 0 254 -91 254 -187c0 -87 -49 -140 -140 -163v-2c115 -19 156 -80 156 -160
c0 -124 -89 -214 -289 -214c-51 0 -125 8 -201 32z" />
    <glyph glyph-name="uniF647" unicode="&#xf647;" horiz-adv-x="600" 
d="M162 144h177v228h-2zM502 0v-190h-165v190h-328v139l290 371h203v-364h92v-146h-92z" />
    <glyph glyph-name="uniF648" unicode="&#xf648;" horiz-adv-x="600" 
d="M67 -173v142c47 -16 88 -26 148 -26c100 0 152 29 152 100c0 64 -42 97 -137 97c-56 0 -114 -10 -155 -22l20 393h418v-139h-291l-7 -119c32 7 54 9 89 9c168 0 238 -105 238 -218c0 -132 -75 -246 -299 -246c-53 0 -112 8 -176 29z" />
    <glyph glyph-name="uniF649" unicode="&#xf649;" horiz-adv-x="600" 
d="M312 116c60 0 101 38 101 110s-45 110 -102 110c-67 0 -107 -42 -107 -95c0 -76 40 -125 108 -125zM519 693v-144c-47 15 -91 23 -147 23c-101 0 -184 -62 -184 -185c30 33 73 66 166 66c127 0 229 -72 229 -223c0 -146 -107 -243 -268 -243c-208 0 -287 151 -287 339
c0 210 85 387 337 387c36 0 91 -4 154 -20z" />
    <glyph glyph-name="uniF64A" unicode="&#xf64a;" horiz-adv-x="600" 
d="M551 387l-237 -576h-188l243 559h-317v141h499v-124z" />
    <glyph glyph-name="uniF64B" unicode="&#xf64b;" horiz-adv-x="600" 
d="M320 410c56 31 81 59 81 102c0 53 -42 74 -102 74c-64 0 -99 -29 -99 -70c0 -55 57 -87 120 -106zM286 313c-48 -21 -98 -50 -98 -107c0 -55 43 -92 119 -92c63 0 108 30 108 89c0 64 -73 91 -129 110zM440 372c109 -40 143 -97 143 -181c0 -124 -107 -204 -278 -204
c-160 0 -284 68 -284 201c0 92 51 147 144 178c-80 36 -128 83 -128 170c0 112 105 177 267 177c145 0 260 -52 260 -176c0 -81 -44 -132 -124 -165z" />
    <glyph glyph-name="uniF64C" unicode="&#xf64c;" horiz-adv-x="600" 
d="M289 394c-59 0 -99 -38 -99 -110s45 -112 102 -112c65 0 106 40 106 100c0 80 -40 122 -109 122zM85 -183v145c47 -16 91 -23 147 -23c101 0 184 51 184 187c-28 -39 -74 -71 -166 -71c-127 0 -229 75 -229 226c0 146 107 242 268 242c209 0 287 -137 287 -332
c0 -220 -85 -394 -337 -394c-36 0 -91 4 -154 20z" />
    <glyph glyph-name="zero.denominator" unicode="&#xf655;" 
d="M205 85c39 0 55 34 55 126c0 91 -15 128 -58 128s-57 -39 -57 -128c0 -91 17 -126 60 -126zM203 -6c-117 0 -178 66 -178 218s65 219 177 219c123 0 178 -67 178 -219c0 -155 -64 -218 -177 -218z" />
    <glyph glyph-name="one.denominator" unicode="&#xf656;" 
d="M298 420v-419h-117v298l-82 -55l-48 79l152 97h95z" />
    <glyph glyph-name="two.denominator" unicode="&#xf657;" 
d="M359 98v-97h-318v101l70 49c88 59 118 86 118 129c0 29 -15 54 -70 54c-33 0 -73 -9 -104 -24v99c47 16 88 22 137 22c118 0 164 -55 164 -123c0 -70 -43 -121 -149 -190l-30 -19v-1h182z" />
    <glyph glyph-name="three.denominator" unicode="&#xf658;" 
d="M49 13v96c43 -16 80 -20 111 -20c56 0 78 15 78 42c0 29 -23 44 -69 44h-72v83h62c43 0 69 11 69 39c0 27 -19 39 -68 39c-39 0 -76 -8 -104 -19v94c41 15 93 20 136 20c121 0 157 -56 157 -110c0 -53 -30 -84 -86 -100v-2c75 -13 96 -56 96 -99
c0 -72 -60 -126 -185 -126c-31 0 -78 4 -125 19z" />
    <glyph glyph-name="four.denominator" unicode="&#xf659;" 
d="M113 177h108v149h-1zM335 83v-82h-115v82h-203v90l181 247h137v-242h57v-95h-57z" />
    <glyph glyph-name="five.denominator" unicode="&#xf65a;" 
d="M57 13v93c32 -13 60 -17 100 -17c55 0 78 19 78 54c0 32 -19 51 -74 51c-40 0 -65 -5 -98 -13l13 239h258v-91h-174l-4 -61c16 5 35 7 58 7c98 0 141 -63 141 -131c0 -81 -46 -150 -181 -150c-37 0 -78 4 -117 19z" />
    <glyph glyph-name="six.denominator" unicode="&#xf65b;" 
d="M213 78c28 0 51 22 51 62c0 39 -21 59 -52 59s-55 -14 -55 -53c0 -43 21 -68 56 -68zM343 418v-94c-32 11 -63 14 -94 14c-46 0 -103 -17 -103 -97c19 19 48 36 97 36c74 0 136 -42 136 -135c0 -89 -67 -148 -166 -148c-130 0 -177 91 -177 199c0 131 54 238 208 238
c21 0 56 -2 99 -13z" />
    <glyph glyph-name="seven.denominator" unicode="&#xf65c;" 
d="M354 343l-142 -342h-127l147 328h-189v91h311v-77z" />
    <glyph glyph-name="eight.denominator" unicode="&#xf65d;" 
d="M210 250c25 16 42 33 42 56c0 24 -18 41 -50 41c-31 0 -49 -18 -49 -41c0 -27 24 -45 57 -56zM196 187c-29 -15 -50 -30 -50 -61c0 -27 18 -49 57 -49c33 0 56 18 56 50c0 33 -35 49 -63 60zM292 225c63 -24 85 -57 85 -105c0 -77 -68 -126 -173 -126
c-100 0 -175 44 -175 121c0 55 28 87 84 107c-52 21 -75 50 -75 98c0 68 66 111 166 111c91 0 162 -35 162 -108c0 -45 -30 -79 -74 -98z" />
    <glyph glyph-name="nine.denominator" unicode="&#xf65e;" 
d="M194 346c-29 0 -51 -22 -51 -62c0 -39 21 -59 52 -59s55 16 55 53c0 44 -21 68 -56 68zM62 6v94c32 -11 63 -14 94 -14c45 0 105 18 105 98c-20 -20 -47 -37 -98 -37c-74 0 -136 43 -136 135c0 88 67 149 167 149c128 0 176 -92 176 -199c0 -131 -55 -238 -209 -238
c-21 0 -56 1 -99 12z" />
    <glyph glyph-name="zero.numerator" unicode="&#xf661;" 
d="M205 366c39 0 55 34 55 126c0 91 -15 128 -58 128s-57 -39 -57 -128c0 -91 17 -126 60 -126zM203 275c-117 0 -178 66 -178 218s65 219 177 219c123 0 178 -67 178 -219c0 -155 -64 -218 -177 -218z" />
    <glyph glyph-name="one.numerator" unicode="&#xf662;" 
d="M298 701v-419h-117v298l-82 -55l-48 79l152 97h95z" />
    <glyph glyph-name="two.numerator" unicode="&#xf663;" 
d="M359 379v-97h-318v101l70 49c88 59 118 86 118 129c0 29 -15 54 -70 54c-33 0 -73 -9 -104 -24v99c47 16 88 22 137 22c118 0 164 -55 164 -123c0 -70 -43 -121 -149 -190l-30 -19v-1h182z" />
    <glyph glyph-name="three.numerator" unicode="&#xf664;" 
d="M49 294v96c43 -16 80 -20 111 -20c56 0 78 15 78 42c0 29 -23 44 -69 44h-72v83h62c43 0 69 11 69 39c0 27 -19 39 -68 39c-39 0 -76 -8 -104 -19v94c41 15 93 20 136 20c121 0 157 -56 157 -110c0 -53 -30 -84 -86 -100v-2c75 -13 96 -56 96 -99
c0 -72 -60 -126 -185 -126c-31 0 -78 4 -125 19z" />
    <glyph glyph-name="four.numerator" unicode="&#xf665;" 
d="M113 458h108v149h-1zM335 364v-82h-115v82h-203v90l181 247h137v-242h57v-95h-57z" />
    <glyph glyph-name="five.numerator" unicode="&#xf666;" 
d="M57 294v93c32 -13 60 -17 100 -17c55 0 78 19 78 54c0 32 -19 51 -74 51c-40 0 -65 -5 -98 -13l13 239h258v-91h-174l-4 -61c16 5 35 7 58 7c98 0 141 -63 141 -131c0 -81 -46 -150 -181 -150c-37 0 -78 4 -117 19z" />
    <glyph glyph-name="six.numerator" unicode="&#xf667;" 
d="M213 359c28 0 51 22 51 62c0 39 -21 59 -52 59s-55 -14 -55 -53c0 -43 21 -68 56 -68zM343 699v-94c-32 11 -63 14 -94 14c-46 0 -103 -17 -103 -97c19 19 48 36 97 36c74 0 136 -42 136 -135c0 -89 -67 -148 -166 -148c-130 0 -177 91 -177 199c0 131 54 238 208 238
c21 0 56 -2 99 -13z" />
    <glyph glyph-name="seven.numerator" unicode="&#xf668;" 
d="M354 624l-142 -342h-127l147 328h-189v91h311v-77z" />
    <glyph glyph-name="eight.numerator" unicode="&#xf669;" 
d="M210 531c25 16 42 33 42 56c0 24 -18 41 -50 41c-31 0 -49 -18 -49 -41c0 -27 24 -45 57 -56zM196 468c-29 -15 -50 -30 -50 -61c0 -27 18 -49 57 -49c33 0 56 18 56 50c0 33 -35 49 -63 60zM292 506c63 -24 85 -57 85 -105c0 -77 -68 -126 -173 -126
c-100 0 -175 44 -175 121c0 55 28 87 84 107c-52 21 -75 50 -75 98c0 68 66 111 166 111c91 0 162 -35 162 -108c0 -45 -30 -79 -74 -98z" />
    <glyph glyph-name="nine.numerator" unicode="&#xf66a;" 
d="M194 627c-29 0 -51 -22 -51 -62c0 -39 21 -59 52 -59s55 16 55 53c0 44 -21 68 -56 68zM62 287v94c32 -11 63 -14 94 -14c45 0 105 18 105 98c-20 -20 -47 -37 -98 -37c-74 0 -136 43 -136 135c0 88 67 149 167 149c128 0 176 -92 176 -199c0 -131 -55 -238 -209 -238
c-21 0 -56 1 -99 12z" />
    <glyph glyph-name="uniF6BA" unicode="&#xf6ba;" horiz-adv-x="475" 
d="M405 407v-120h-335v120h335z" />
    <glyph glyph-name="uniF6BB" unicode="&#xf6bb;" horiz-adv-x="647" 
d="M603 400v-110h-558v110h558z" />
    <glyph glyph-name="uniF6BC" unicode="&#xf6bc;" horiz-adv-x="808" 
d="M764 400v-110h-719v110h719z" />
    <glyph glyph-name="commaaccent" unicode="&#xf6c3;" horiz-adv-x="588" 
d="M225 -239v55c43 -3 77 3 82 34c-61 -7 -101 11 -101 50c0 33 34 55 87 55c56 0 95 -28 95 -84c0 -69 -63 -118 -163 -110z" />
    <glyph glyph-name="Acute" unicode="&#xf6c9;" horiz-adv-x="768" 
d="M608 928l-169 -158h-118l94 158h193z" />
    <glyph glyph-name="Caron" unicode="&#xf6ca;" horiz-adv-x="768" 
d="M584 918l-119 -148h-162l-118 148h125l74 -75l75 75h125z" />
    <glyph glyph-name="Dieresis" unicode="&#xf6cb;" horiz-adv-x="681" 
d="M546 842c0 -47 -27 -75 -82 -75c-57 0 -86 28 -86 75s29 74 85 74s83 -27 83 -74zM303 842c0 -47 -27 -75 -86 -75c-52 0 -82 28 -82 75s30 74 82 74c59 0 86 -27 86 -74z" />
    <glyph glyph-name="DieresisAcute" unicode="&#xf6cc;" horiz-adv-x="596" 
d="M425 925l-119 -162h-94l67 162h146zM550 836c0 -41 -24 -69 -73 -69c-52 0 -76 28 -76 69c0 43 24 70 75 70s74 -27 74 -70zM210 836c0 -41 -25 -69 -77 -69c-47 0 -73 28 -73 69c0 43 26 70 73 70c52 0 77 -27 77 -70z" />
    <glyph glyph-name="Grave" unicode="&#xf6ce;" horiz-adv-x="768" 
d="M376 928l94 -158h-118l-169 158h193z" />
    <glyph glyph-name="Hungarumlaut" unicode="&#xf6cf;" horiz-adv-x="768" 
d="M538 927h173l-172 -157h-107zM314 927h173l-172 -157h-107z" />
    <glyph glyph-name="Macron" unicode="&#xf6d0;" horiz-adv-x="768" 
d="M566 884v-98h-364v98h364z" />
    <glyph glyph-name="cyrBreve" unicode="&#xf6d1;" horiz-adv-x="619" 
d="M396 920l129 -12c-5 -111 -96 -157 -211 -157s-208 46 -213 157l129 12c11 -48 39 -64 84 -64c43 0 73 16 82 64z" />
    <glyph glyph-name="cyrbreve" unicode="&#xf6d4;" horiz-adv-x="611" 
d="M376 744l114 -13c-5 -108 -86 -152 -183 -152c-96 0 -182 44 -185 152l109 13c7 -45 35 -65 76 -65c40 0 63 22 69 65z" />
    <glyph glyph-name="dieresisacute" unicode="&#xf6d7;" horiz-adv-x="586" 
d="M419 743l-116 -158h-90l65 158h141zM542 657c0 -40 -24 -67 -71 -67c-51 0 -75 27 -75 67s23 67 74 67c48 0 72 -26 72 -67zM211 657c0 -40 -24 -67 -75 -67c-45 0 -71 27 -71 67s26 67 71 67c51 0 75 -26 75 -67z" />
    <glyph glyph-name="zerooldstyle" unicode="&#xf730;" horiz-adv-x="665" 
d="M335 116c72 0 97 47 97 138c0 95 -28 138 -100 138c-68 0 -98 -42 -98 -138c0 -92 29 -138 101 -138zM332 -13c-188 0 -284 99 -284 268c0 175 109 267 283 267c181 0 285 -91 285 -267c0 -172 -96 -268 -284 -268z" />
    <glyph glyph-name="oneoldstyle" unicode="&#xf731;" horiz-adv-x="479" 
d="M379 510v-510h-165v332l-117 -75l-68 117l213 136h137z" />
    <glyph glyph-name="twooldstyle" unicode="&#xf732;" horiz-adv-x="622" 
d="M560 138v-138h-502v144l113 59c113 51 176 78 176 131c0 41 -36 55 -99 55c-52 0 -115 -10 -171 -33v133c77 24 153 33 250 33c200 0 228 -90 228 -148c0 -103 -89 -144 -209 -203l-62 -31v-2h276z" />
    <glyph glyph-name="threeoldstyle" unicode="&#xf733;" horiz-adv-x="568" 
d="M35 -171v147c71 -27 126 -33 178 -33c96 0 136 31 136 80c0 57 -44 79 -124 79h-109v131h95c80 0 121 20 121 75c0 44 -35 70 -118 70c-65 0 -123 -11 -167 -30v144c68 23 136 31 208 31c197 0 254 -91 254 -187c0 -87 -49 -140 -140 -163v-2c115 -19 156 -80 156 -160
c0 -124 -89 -214 -289 -214c-51 0 -125 8 -201 32z" />
    <glyph glyph-name="fouroldstyle" unicode="&#xf734;" horiz-adv-x="643" 
d="M192 144h177v228h-2zM532 0v-190h-165v190h-328v139l290 371h203v-364h92v-146h-92z" />
    <glyph glyph-name="fiveoldstyle" unicode="&#xf735;" horiz-adv-x="565" 
d="M55 -173v142c47 -16 88 -26 148 -26c100 0 152 29 152 100c0 64 -42 97 -137 97c-56 0 -114 -10 -155 -22l20 393h418v-139h-291l-7 -119c32 7 54 9 89 9c168 0 238 -105 238 -218c0 -132 -75 -246 -299 -246c-53 0 -112 8 -176 29z" />
    <glyph glyph-name="sixoldstyle" unicode="&#xf736;" horiz-adv-x="647" 
d="M334 116c60 0 101 38 101 110s-45 110 -102 110c-67 0 -107 -42 -107 -95c0 -76 40 -125 108 -125zM541 693v-144c-47 15 -91 23 -147 23c-101 0 -184 -62 -184 -185c30 33 73 66 166 66c127 0 229 -72 229 -223c0 -146 -107 -243 -268 -243c-208 0 -287 151 -287 339
c0 210 85 387 337 387c36 0 91 -4 154 -20z" />
    <glyph glyph-name="sevenoldstyle" unicode="&#xf737;" horiz-adv-x="568" 
d="M529 387l-237 -576h-188l243 559h-317v141h499v-124z" />
    <glyph glyph-name="eightoldstyle" unicode="&#xf738;" horiz-adv-x="652" 
d="M344 410c56 31 81 59 81 102c0 53 -42 74 -102 74c-64 0 -99 -29 -99 -70c0 -55 57 -87 120 -106zM310 313c-48 -21 -98 -50 -98 -107c0 -55 43 -92 119 -92c63 0 108 30 108 89c0 64 -73 91 -129 110zM464 372c109 -40 143 -97 143 -181c0 -124 -107 -204 -278 -204
c-160 0 -284 68 -284 201c0 92 51 147 144 178c-80 36 -128 83 -128 170c0 112 105 177 267 177c145 0 260 -52 260 -176c0 -81 -44 -132 -124 -165z" />
    <glyph glyph-name="nineoldstyle" unicode="&#xf739;" horiz-adv-x="645" 
d="M308 394c-59 0 -99 -38 -99 -110s45 -112 102 -112c65 0 106 40 106 100c0 80 -40 122 -109 122zM104 -183v145c47 -16 91 -23 147 -23c101 0 184 51 184 187c-28 -39 -74 -71 -166 -71c-127 0 -229 75 -229 226c0 146 107 242 268 242c209 0 287 -137 287 -332
c0 -220 -85 -394 -337 -394c-36 0 -91 4 -154 20z" />
    <glyph glyph-name="uniFEFF" unicode="&#xfeff;" horiz-adv-x="0" 
 />
    <glyph glyph-name="exclam.ss01" horiz-adv-x="364" 
d="M275 700l-26 -455h-133l-26 455h185zM267 156v-156h-170v156h170z" />
    <glyph glyph-name="dollar.ss02" horiz-adv-x="562" 
d="M59 29v142c31 -20 103 -45 184 -45c77 0 106 28 106 75c0 54 -31 67 -109 94l-25 8c-120 40 -163 100 -163 211c0 105 67 173 182 193v104h94v-98c64 -3 115 -16 151 -31v-138c-52 21 -121 30 -173 30c-65 0 -97 -22 -97 -65c0 -45 32 -61 132 -96l27 -10
c120 -43 150 -110 150 -202c0 -117 -69 -187 -190 -207v-105h-94v99c-68 3 -128 17 -175 41z" />
    <glyph glyph-name="dollar.tab.ss02" horiz-adv-x="600" 
d="M76 29v142c31 -20 103 -45 184 -45c77 0 106 28 106 75c0 54 -31 67 -109 94l-25 8c-120 40 -163 100 -163 211c0 105 67 173 182 193v104h94v-98c64 -3 115 -16 151 -31v-138c-52 21 -121 30 -173 30c-65 0 -97 -22 -97 -65c0 -45 32 -61 132 -96l27 -10
c120 -43 150 -110 150 -202c0 -117 -69 -187 -190 -207v-105h-94v99c-68 3 -128 17 -175 41z" />
    <glyph glyph-name="comma.ss01" horiz-adv-x="293" 
d="M239 156l-96 -289h-127l52 289h171z" />
    <glyph glyph-name="period.ss01" horiz-adv-x="293" 
d="M232 156v-156h-170v156h170z" />
    <glyph glyph-name="colon.ss01" horiz-adv-x="293" 
d="M232 510v-155h-170v155h170zM232 156v-156h-170v156h170z" />
    <glyph glyph-name="semicolon.ss01" horiz-adv-x="293" 
d="M239 156l-95 -289h-128l52 289h171zM232 510v-155h-170v155h170z" />
    <glyph glyph-name="question.ss01" horiz-adv-x="502" 
d="M285 241v-12h-146v18c0 145 146 166 146 253c0 47 -36 73 -103 73c-53 0 -97 -11 -148 -34v141c53 21 122 33 202 33c179 0 234 -91 234 -178c0 -170 -185 -177 -185 -294zM294 156v-156h-170v156h170z" />
    <glyph glyph-name="R.ss01" horiz-adv-x="645" 
d="M546 205l86 -205h-182l-68 176c-32 74 -56 87 -109 87h-45v-263h-165v700h289c124 0 237 -53 237 -201c0 -99 -49 -162 -141 -185v-2c40 -11 67 -35 98 -107zM224 566v-168h92c46 0 103 18 103 85c0 60 -40 83 -96 83h-99z" />
    <glyph glyph-name="i.ss01" horiz-adv-x="264" 
d="M207 510v-510h-149v510h149zM52 742h161v-128h-161v128z" />
    <glyph glyph-name="j.ss01" horiz-adv-x="264" 
d="M-58 -213l2 127c13 -3 27 -4 43 -4c37 0 71 15 71 91v509h149v-503c0 -149 -57 -226 -196 -226c-32 0 -54 3 -69 6zM52 742h161v-128h-161v128z" />
    <glyph glyph-name="exclamdown.ss01" horiz-adv-x="364" 
d="M90 -193l26 455h133l26 -455h-185zM267 510v-156h-170v156h170z" />
    <glyph glyph-name="cent.ss02" horiz-adv-x="557" 
d="M367 -113h-88v105c-158 19 -220 120 -220 267c0 141 71 240 220 259v106h88v-103c67 -4 102 -18 129 -27v-124c-35 13 -72 26 -135 26c-93 0 -147 -38 -147 -133c0 -100 52 -148 165 -148c52 0 96 13 124 28v-123c-25 -12 -68 -28 -136 -31v-102z" />
    <glyph glyph-name="cent.tab.ss02" horiz-adv-x="600" 
d="M387 -113h-88v105c-158 19 -220 120 -220 267c0 141 71 240 220 259v106h88v-103c67 -4 102 -18 129 -27v-124c-35 13 -72 26 -135 26c-93 0 -147 -38 -147 -133c0 -100 52 -148 165 -148c52 0 96 13 124 28v-123c-25 -12 -68 -28 -136 -31v-102z" />
    <glyph glyph-name="dieresis.ss01" horiz-adv-x="584" 
d="M102 730h151v-128h-151v128zM331 730h151v-128h-151v128z" />
    <glyph glyph-name="periodcentered.ss01" horiz-adv-x="241" 
d="M205 437v-156h-170v156h170z" />
    <glyph glyph-name="questiondown.ss01" horiz-adv-x="502" 
d="M218 266v12h146v-18c0 -145 -146 -166 -146 -253c0 -47 35 -73 102 -73c55 0 97 10 148 34v-141c-52 -23 -122 -33 -202 -33c-181 0 -234 90 -234 178c0 170 186 176 186 294zM376 510v-156h-170v156h170z" />
    <glyph glyph-name="Adieresis.ss01" horiz-adv-x="694" 
d="M521 0l-45 146h-262l-45 -146h-163l232 700h222l229 -700h-168zM345 574l-87 -285h174zM142 920h161v-138h-161v138zM391 920h161v-138h-161v138z" />
    <glyph glyph-name="Edieresis.ss01" horiz-adv-x="568" 
d="M526 144v-144h-463v700h463v-144h-298v-133h260v-133h-260v-146h298zM86 920h161v-138h-161v138zM335 920h161v-138h-161v138z" />
    <glyph glyph-name="Idieresis.ss01" horiz-adv-x="290" 
d="M228 700v-700h-165v700h165zM-59 920h161v-138h-161v138zM190 920h161v-138h-161v138z" />
    <glyph glyph-name="Odieresis.ss01" horiz-adv-x="768" 
d="M390 132c109 0 163 69 163 218s-55 219 -172 219c-108 0 -166 -72 -166 -219c0 -148 63 -218 175 -218zM386 -13c-224 0 -346 126 -346 363c0 236 129 363 341 363c236 0 347 -137 347 -363c0 -251 -131 -363 -342 -363zM179 920h161v-138h-161v138zM428 920h161v-138
h-161v138z" />
    <glyph glyph-name="Udieresis.ss01" horiz-adv-x="694" 
d="M472 313v387h165v-410c0 -219 -103 -303 -290 -303c-176 0 -289 77 -289 304v409h165v-387c0 -117 25 -174 124 -174c104 0 125 58 125 174zM142 920h161v-138h-161v138zM391 920h161v-138h-161v138z" />
    <glyph glyph-name="adieresis.ss01" horiz-adv-x="560" 
d="M359 192v25c-19 3 -37 6 -76 6c-77 0 -101 -22 -101 -57s23 -61 79 -61c67 0 98 34 98 87zM508 310v-310h-139v73h-2c-21 -40 -71 -82 -161 -82c-109 0 -176 58 -176 158c0 108 73 157 232 157c44 0 80 -5 97 -8v23c0 52 -26 77 -109 77c-64 0 -131 -19 -171 -39v124
c43 19 113 39 197 39c165 0 232 -57 232 -212zM91 730h151v-128h-151v128zM320 730h151v-128h-151v128z" />
    <glyph glyph-name="edieresis.ss01" horiz-adv-x="574" 
d="M511 145v-114c-27 -21 -101 -43 -189 -43c-203 0 -289 97 -289 274c0 161 96 260 263 260c186 0 249 -117 249 -261v-39h-359c11 -80 57 -115 154 -115c76 0 136 17 171 38zM186 307h209c1 59 -29 101 -97 101c-65 0 -103 -34 -112 -101zM104 730h151v-128h-151v128z
M333 730h151v-128h-151v128z" />
    <glyph glyph-name="idieresis.ss01" horiz-adv-x="264" 
d="M207 510v-510h-149v510h149zM-57 730h151v-128h-151v128zM172 730h151v-128h-151v128z" />
    <glyph glyph-name="odieresis.ss01" horiz-adv-x="611" 
d="M306 110c79 0 118 45 118 145c0 103 -38 146 -118 146c-76 0 -118 -45 -118 -146c0 -100 46 -145 118 -145zM306 -12c-175 0 -273 84 -273 267c0 175 104 267 273 267c173 0 273 -87 273 -267c0 -175 -98 -267 -273 -267zM115 730h151v-128h-151v128zM344 730h151v-128
h-151v128z" />
    <glyph glyph-name="udieresis.ss01" horiz-adv-x="605" 
d="M52 192v318h149v-264c0 -100 23 -129 91 -129c77 0 110 53 110 157v236h149v-510h-149v72h-2c-37 -57 -98 -81 -166 -81c-117 0 -182 60 -182 201zM109 730h151v-128h-151v128zM338 730h151v-128h-151v128z" />
    <glyph glyph-name="ydieresis.ss01" horiz-adv-x="542" 
d="M73 -207l3 123c16 -6 32 -9 49 -9c51 0 73 23 88 70l5 15l-213 518h165l121 -345l94 345h152l-171 -505c-54 -156 -100 -224 -218 -224c-27 0 -54 4 -75 12zM85 730h151v-128h-151v128zM314 730h151v-128h-151v128z" />
    <glyph glyph-name="Cdotaccent.ss01" horiz-adv-x="621" 
d="M579 172v-154c-37 -17 -97 -31 -182 -31c-241 0 -357 123 -357 354c0 240 115 372 370 372c80 0 136 -17 168 -26v-152c-44 16 -104 26 -143 26c-149 0 -220 -58 -220 -211c0 -145 71 -210 220 -210c51 0 93 9 144 32zM309 920h171v-138h-171v138z" />
    <glyph glyph-name="cdotaccent.ss01" horiz-adv-x="507" 
d="M477 143v-123c-28 -13 -79 -32 -164 -32c-202 0 -280 107 -280 271c0 157 87 263 275 263c87 0 132 -17 162 -28v-124c-35 13 -72 26 -135 26c-93 0 -147 -38 -147 -133c0 -100 52 -148 165 -148c52 0 96 13 124 28zM225 730h161v-128h-161v128z" />
    <glyph glyph-name="Edotaccent.ss01" horiz-adv-x="568" 
d="M526 144v-144h-463v700h463v-144h-298v-133h260v-133h-260v-146h298zM220 920h171v-138h-171v138z" />
    <glyph glyph-name="edotaccent.ss01" horiz-adv-x="574" 
d="M511 145v-114c-27 -21 -101 -43 -189 -43c-203 0 -289 97 -289 274c0 161 96 260 263 260c186 0 249 -117 249 -261v-39h-359c11 -80 57 -115 154 -115c76 0 136 17 171 38zM186 307h209c1 59 -29 101 -97 101c-65 0 -103 -34 -112 -101zM214 730h161v-128h-161v128z" />
    <glyph glyph-name="Gdotaccent.ss01" horiz-adv-x="691" 
d="M495 146v120h-123v134h269v-359c-49 -27 -130 -54 -230 -54c-248 0 -371 132 -371 354c0 241 114 372 370 372c96 0 154 -15 186 -27v-145c-45 17 -111 24 -163 24c-149 0 -223 -60 -223 -215c0 -151 76 -214 209 -214c27 0 53 3 76 10zM313 920h171v-138h-171v138z" />
    <glyph glyph-name="gdotaccent.ss01" horiz-adv-x="626" 
d="M426 439v71h145v-479c0 -192 -131 -250 -291 -250c-74 0 -157 13 -196 29v130c35 -15 96 -33 177 -33c124 0 161 46 161 135v41h-2c-27 -48 -90 -83 -159 -83c-145 0 -228 78 -228 249c0 175 71 270 228 270c80 0 136 -35 163 -80h2zM303 398c-76 0 -113 -43 -113 -139
c0 -92 42 -138 114 -138c76 0 118 53 118 137c0 88 -38 140 -119 140zM227 730h161v-128h-161v128z" />
    <glyph glyph-name="Idotaccent.ss01" horiz-adv-x="290" 
d="M228 700v-700h-165v700h165zM59 920h171v-138h-171v138z" />
    <glyph glyph-name="Ldot.ss01" horiz-adv-x="537" 
d="M507 152v-152h-444v700h165v-548h279zM338 442h171v-138h-171v138z" />
    <glyph glyph-name="ldot.ss01" horiz-adv-x="440" 
d="M204 750v-750h-149v750h149zM268 405h161v-128h-161v128z" />
    <glyph glyph-name="Racute.ss01" horiz-adv-x="645" 
d="M546 205l86 -205h-182l-68 176c-32 74 -56 87 -109 87h-45v-263h-165v700h289c124 0 237 -53 237 -201c0 -99 -49 -162 -141 -185v-2c40 -11 67 -35 98 -107zM224 566v-168h92c46 0 103 18 103 85c0 60 -40 83 -96 83h-99zM518 928l-169 -158h-118l94 158h193z" />
    <glyph glyph-name="Rcommaaccent.ss01" horiz-adv-x="645" 
d="M546 205l86 -205h-182l-68 176c-32 74 -56 87 -109 87h-45v-263h-165v700h289c124 0 237 -53 237 -201c0 -99 -49 -162 -141 -185v-2c40 -11 67 -35 98 -107zM224 566v-168h92c46 0 103 18 103 85c0 60 -40 83 -96 83h-99zM256 -239v55c43 -3 78 3 83 34
c-63 -7 -102 11 -102 50c0 33 35 55 88 55c56 0 94 -28 94 -84c0 -69 -63 -118 -163 -110z" />
    <glyph glyph-name="Rcaron.ss01" horiz-adv-x="645" 
d="M546 205l86 -205h-182l-68 176c-32 74 -56 87 -109 87h-45v-263h-165v700h289c124 0 237 -53 237 -201c0 -99 -49 -162 -141 -185v-2c40 -11 67 -35 98 -107zM224 566v-168h92c46 0 103 18 103 85c0 60 -40 83 -96 83h-99zM494 918l-119 -148h-162l-118 148h125l74 -75
l75 75h125z" />
    <glyph glyph-name="Ydieresis.ss01" horiz-adv-x="647" 
d="M407 260v-260h-165v260l-243 440h191l136 -255l132 255h190zM119 920h161v-138h-161v138zM368 920h161v-138h-161v138z" />
    <glyph glyph-name="Zdotaccent.ss01" horiz-adv-x="603" 
d="M573 144v-144h-543v145l337 411h-325v144h525v-145l-336 -411h342zM230 920h171v-138h-171v138z" />
    <glyph glyph-name="zdotaccent.ss01" horiz-adv-x="508" 
d="M476 126v-126h-443v129l251 255h-243v126h431v-129l-252 -255h256zM180 730h161v-128h-161v128z" />
    <glyph glyph-name="dotaccent.ss01" horiz-adv-x="264" 
d="M52 730h161v-128h-161v128z" />
    <glyph glyph-name="afii10023.ss01" horiz-adv-x="568" 
d="M526 144v-144h-463v700h463v-144h-298v-133h260v-133h-260v-146h298zM86 920h161v-138h-161v138zM335 920h161v-138h-161v138z" />
    <glyph glyph-name="afii10056.ss01" horiz-adv-x="290" 
d="M228 700v-700h-165v700h165zM-59 920h161v-138h-161v138zM190 920h161v-138h-161v138z" />
    <glyph glyph-name="afii10071.ss01" horiz-adv-x="574" 
d="M511 145v-114c-27 -21 -101 -43 -189 -43c-203 0 -289 97 -289 274c0 161 96 260 263 260c186 0 249 -117 249 -261v-39h-359c11 -80 57 -115 154 -115c76 0 136 17 171 38zM186 307h209c1 59 -29 101 -97 101c-65 0 -103 -34 -112 -101zM104 730h151v-128h-151v128z
M333 730h151v-128h-151v128z" />
    <glyph glyph-name="afii10103.ss01" horiz-adv-x="264" 
d="M207 510v-510h-149v510h149zM52 742h161v-128h-161v128z" />
    <glyph glyph-name="afii10104.ss01" horiz-adv-x="264" 
d="M207 510v-510h-149v510h149zM-57 730h151v-128h-151v128zM172 730h151v-128h-151v128z" />
    <glyph glyph-name="afii10105.ss01" horiz-adv-x="264" 
d="M-58 -213l2 127c13 -3 27 -4 43 -4c37 0 71 15 71 91v509h149v-503c0 -149 -57 -226 -196 -226c-32 0 -54 3 -69 6zM52 742h161v-128h-161v128z" />
    <glyph glyph-name="ellipsis.ss01" horiz-adv-x="885" 
d="M244 156v-156h-170v156h170zM528 156v-156h-170v156h170zM812 156v-156h-170v156h170z" />
    <glyph glyph-name="Dotaccent.ss01" horiz-adv-x="269" 
d="M49 920h171v-138h-171v138z" />
    <glyph glyph-name="Dieresis.ss01" horiz-adv-x="681" 
d="M136 920h161v-138h-161v138zM385 920h161v-138h-161v138z" />
    <glyph glyph-name="fi.ss01" horiz-adv-x="629" 
d="M573 510v-510h-149v384h-171v-384h-149v384h-91v126h91v61c0 115 54 187 182 187c24 0 42 -2 65 -5v-123c-7 1 -21 3 -33 3c-54 0 -65 -26 -65 -94v-29h320zM418 742h161v-128h-161v128z" />
    </font>
</defs>
</svg>
