<svg width="154" height="16" viewBox="0 0 154 16" fill="none" xmlns="http://www.w3.org/2000/svg">
    <path d="M0.189819 13.6205L7.04283 1.62996C7.57178 0.705427 8.87517 0.705427 9.40413 1.62996L16.2557 13.619C16.7905 14.554 16.1329 15.7318 15.075 15.7318H1.37047C0.314021 15.7333 -0.344979 14.5555 0.189819 13.6205Z" fill="#FF312C"/>
    <path d="M22.4485 0.00117396C19.3377 -0.0527698 16.6344 1.76334 15.3354 4.42456C14.9906 5.13033 15.0198 5.96796 15.41 6.64825L20.3766 15.3392C20.5563 15.6539 20.8675 15.8681 21.2211 15.9206C21.5791 15.973 21.9444 16 22.3156 16C26.613 16 30.0979 12.4367 30.1169 8.0358C30.1344 3.67984 26.6933 0.073099 22.4485 0.00117396Z" fill="#FF312C"/>
    <path d="M42.1021 0.266403H31.5143C30.845 0.266403 30.4593 1.0411 30.8494 1.59852C32.1251 3.42062 32.8732 5.65179 32.863 8.04779C32.8527 10.4108 32.1119 12.6001 30.8626 14.3937C30.471 14.9541 30.8538 15.7333 31.526 15.7333H42.1021C43.0563 15.7333 43.8307 14.9406 43.8307 13.9606V2.03906C43.8293 1.06058 43.0563 0.266403 42.1021 0.266403Z" fill="#FF312C"/>
    <path d="M87.859 9.95891C86.802 9.95891 86.1246 9.09965 86.1246 8.03452C86.1246 6.96939 86.7757 6.0952 87.859 6.0952C88.9422 6.0952 89.5802 6.96789 89.5802 8.03452C89.5802 9.10114 88.9159 9.95891 87.859 9.95891ZM88.3057 4.12904C87.3028 4.12904 86.5173 4.55867 86.0969 5.11212V4.33639H84.1319V14.03H86.1918V10.9972C86.6385 11.5372 87.4517 11.9251 88.2648 11.9251C90.4064 11.9251 91.6663 10.3184 91.6663 8.00617C91.6663 5.83265 90.3787 4.12904 88.3057 4.12904ZM98.7131 4.30954L96.8022 9.3085H96.5306L94.6474 4.30954H92.2619L95.135 11.1225L95.5145 11.7595L95.3656 11.9818H93.0211V14.0315H94.3758C96.097 14.0315 97.1803 13.2423 97.9131 11.4835L100.907 4.31103H98.7131V4.30954ZM81.3275 9.22496C80.5961 9.22496 79.999 9.8336 79.999 10.5825C79.999 11.3448 80.5946 11.9534 81.3275 11.9534C82.0735 11.9534 82.6691 11.3448 82.6691 10.5825C82.6691 9.8336 82.072 9.22496 81.3275 9.22496ZM76.1785 4.30954L74.1858 7.28713H73.9683L72.0033 4.30954H69.5638V11.7595H71.596V7.66008H71.8807L73.561 10.1946H74.5362L76.2442 7.66008H76.5012V11.7595H78.5333V4.30954H76.1785ZM64.3755 9.90372C63.3185 9.90372 62.6674 9.0728 62.6674 8.03452C62.6674 7.00966 63.3039 6.17874 64.3755 6.17874C65.4601 6.17874 66.0966 7.00966 66.0966 8.03452C66.0952 9.0728 65.4324 9.90372 64.3755 9.90372ZM64.3755 4.12904C61.9769 4.12904 60.5404 5.88785 60.5404 8.03452C60.5404 10.1946 62.0309 11.94 64.3755 11.94C66.7332 11.94 68.2105 10.1946 68.2105 8.03452C68.2105 5.88785 66.7872 4.12904 64.3755 4.12904ZM55.3899 6.20559L56.7038 9.76498H53.8439L55.1447 6.20559H55.3899ZM58.8323 9.76498L56.787 4.30954H53.6834L51.6366 9.76498H50.457V13.49H52.422V11.7595H57.9506V13.49H59.9287V9.76498H58.8323Z" fill="#FF312C"/>
    <path d="M112.365 2.6678C112.001 2.70894 111.596 2.75523 111.151 2.80667C110.706 2.84781 110.251 2.8941 109.786 2.94553C108.907 3.0484 108.229 3.31584 107.754 3.74787C107.289 4.16961 107.056 4.87423 107.056 5.86173C107.309 5.45027 107.673 5.13139 108.148 4.90509C108.634 4.67879 109.139 4.56564 109.665 4.56564C110.585 4.56564 111.323 4.86909 111.879 5.47599C112.436 6.0726 112.714 6.96237 112.714 8.14531C112.714 9.2871 112.395 10.2026 111.758 10.8918C111.121 11.5707 110.241 11.9101 109.119 11.9101C107.997 11.9101 107.112 11.5707 106.465 10.8918C105.818 10.2129 105.494 9.16366 105.494 7.74414V6.23204C105.494 5.35769 105.59 4.62222 105.782 4.0256C105.974 3.41871 106.247 2.9301 106.601 2.55979C106.965 2.1792 107.4 1.89632 107.906 1.71116C108.421 1.51572 108.998 1.382 109.635 1.30999C110.14 1.25856 110.605 1.21227 111.03 1.17113C111.455 1.1197 111.834 1.07341 112.168 1.03226L112.365 2.6678ZM109.149 10.4752C109.746 10.4752 110.206 10.2695 110.53 9.85799C110.853 9.43625 111.015 8.87564 111.015 8.17617C111.015 7.46641 110.858 6.92123 110.545 6.54063C110.231 6.16003 109.786 5.96973 109.21 5.96973C108.664 5.96973 108.194 6.13946 107.8 6.47891C107.415 6.80808 107.223 7.23496 107.223 7.75957V8.08359C107.223 8.87564 107.395 9.47225 107.739 9.87342C108.083 10.2746 108.553 10.4752 109.149 10.4752Z" fill="#A92424"/>
    <path d="M116.132 11.7558H114.357V4.28791H116.041V9.42597L119.196 4.28791H121.031V11.7558H119.332V6.58692L116.132 11.7558Z" fill="#A92424"/>
    <path d="M125.963 10.506C126.469 10.506 126.848 10.4135 127.101 10.2283C127.354 10.0431 127.48 9.79628 127.48 9.48768C127.48 9.19967 127.379 8.98365 127.177 8.83964C126.985 8.69563 126.666 8.62363 126.221 8.62363H124.978V7.34297H126.191C126.595 7.34297 126.889 7.26582 127.071 7.11153C127.253 6.95723 127.344 6.74636 127.344 6.47891C127.344 6.19089 127.237 5.96459 127.025 5.80001C126.813 5.63543 126.479 5.55314 126.024 5.55314C125.508 5.55314 125.104 5.67657 124.811 5.92345C124.517 6.16003 124.32 6.46863 124.219 6.84922L122.627 6.55606C122.788 5.79487 123.168 5.2034 123.764 4.78165C124.361 4.34963 125.114 4.13361 126.024 4.13361C126.954 4.13361 127.682 4.32391 128.208 4.70451C128.744 5.07482 129.012 5.60457 129.012 6.29376C129.012 6.67435 128.921 7.00866 128.739 7.29668C128.557 7.5847 128.289 7.79557 127.935 7.92929C128.319 8.04244 128.623 8.24303 128.845 8.53105C129.067 8.81907 129.179 9.18424 129.179 9.62655C129.179 10.3363 128.896 10.8969 128.329 11.3084C127.763 11.7095 126.974 11.9101 125.963 11.9101C124.993 11.9101 124.214 11.7044 123.628 11.2929C123.051 10.8712 122.697 10.2643 122.566 9.47225L124.189 9.17909C124.27 9.55969 124.452 9.87857 124.735 10.1357C125.018 10.3826 125.427 10.506 125.963 10.506Z" fill="#A92424"/>
    <path d="M130.768 11.7558V4.28791H132.513V7.14238H135.698V4.28791H137.442V11.7558H135.698V8.7162H132.513V11.7558H130.768Z" fill="#A92424"/>
    <path d="M145.908 8.42304H140.721C140.762 9.10194 140.949 9.61626 141.282 9.966C141.616 10.3157 142.041 10.4906 142.556 10.4906C143.032 10.4906 143.401 10.3775 143.664 10.1512C143.937 9.91457 144.129 9.64712 144.24 9.34882L145.757 9.65741C145.595 10.2643 145.246 10.7941 144.71 11.2467C144.184 11.689 143.456 11.9101 142.526 11.9101C141.505 11.9101 140.671 11.581 140.023 10.9226C139.386 10.2643 139.068 9.29739 139.068 8.02187C139.068 7.38411 139.159 6.82351 139.341 6.34004C139.523 5.8463 139.771 5.43998 140.084 5.12111C140.408 4.79194 140.787 4.54507 141.222 4.38049C141.656 4.2159 142.127 4.13361 142.632 4.13361C143.613 4.13361 144.407 4.45249 145.013 5.09025C145.63 5.71772 145.939 6.59721 145.939 7.72871C145.939 7.86243 145.934 7.99616 145.923 8.12988C145.923 8.25332 145.918 8.35104 145.908 8.42304ZM142.632 5.55314C142.147 5.55314 141.737 5.69714 141.404 5.98516C141.07 6.2629 140.858 6.6795 140.767 7.23496H144.331C144.301 6.7515 144.139 6.35033 143.846 6.03145C143.552 5.71257 143.148 5.55314 142.632 5.55314Z" fill="#A92424"/>
    <path d="M152.268 9.1328L153.891 9.41054C153.749 10.1512 153.406 10.7529 152.86 11.2158C152.324 11.6787 151.575 11.9101 150.615 11.9101C150.099 11.9101 149.624 11.8278 149.189 11.6633C148.754 11.4987 148.38 11.2569 148.067 10.9381C147.763 10.6192 147.521 10.218 147.339 9.73456C147.167 9.24081 147.081 8.66992 147.081 8.02187C147.081 7.38411 147.167 6.82351 147.339 6.34004C147.521 5.8463 147.763 5.43998 148.067 5.12111C148.38 4.79194 148.754 4.54507 149.189 4.38049C149.624 4.2159 150.099 4.13361 150.615 4.13361C151.575 4.13361 152.329 4.36506 152.875 4.82794C153.421 5.29083 153.764 5.89259 153.906 6.63321L152.283 6.89551C152.192 6.56635 152.02 6.27318 151.767 6.01602C151.525 5.75886 151.146 5.63028 150.63 5.63028C150.054 5.63028 149.604 5.8463 149.28 6.27833C148.967 6.70007 148.81 7.28125 148.81 8.02187C148.81 8.76249 148.967 9.34882 149.28 9.78085C149.604 10.2026 150.054 10.4135 150.63 10.4135C151.146 10.4135 151.525 10.2849 151.767 10.0277C152.02 9.77056 152.187 9.47225 152.268 9.1328Z" fill="#A92424"/>
</svg>
