<svg width="99" height="16" viewBox="0 0 99 16" fill="none" xmlns="http://www.w3.org/2000/svg">
    <path d="M0.189028 13.6205L7.01347 1.62996C7.54022 0.70542 8.83817 0.70542 9.36492 1.62996L16.1879 13.619C16.7205 14.554 16.0657 15.7318 15.0122 15.7318H1.36475C0.312712 15.7333 -0.343541 14.5555 0.189028 13.6205Z" fill="#FF312C"/>
    <path d="M22.3554 0.00117015C19.2575 -0.0527737 16.5655 1.76333 15.2719 4.42456C14.9285 5.13033 14.9576 5.96795 15.3461 6.64824L20.292 15.3392C20.471 15.6539 20.781 15.8681 21.1331 15.9206C21.4896 15.973 21.8534 16 22.223 16C26.5024 16 29.9729 12.4367 29.9918 8.0358C30.0092 3.67984 26.5825 0.0730952 22.3554 0.00117015Z" fill="#FF312C"/>
    <path d="M41.9276 0.266388H31.3839C30.7175 0.266388 30.3333 1.04108 30.7218 1.5985C31.9921 3.4206 32.7372 5.65178 32.727 8.04778C32.7168 10.4108 31.979 12.6 30.7349 14.3937C30.345 14.9541 30.7262 15.7333 31.3955 15.7333H41.9276C42.8778 15.7333 43.649 14.9406 43.649 13.9606V2.03904C43.6475 1.06056 42.8778 0.266388 41.9276 0.266388Z" fill="#FF312C"/>
    <path d="M57.2423 2.6678C56.8798 2.70894 56.4771 2.75523 56.034 2.80666C55.591 2.84781 55.1379 2.8941 54.6747 2.94553C53.7987 3.04839 53.1241 3.31584 52.6508 3.74787C52.1877 4.16961 51.9561 4.87423 51.9561 5.86172C52.2078 5.45027 52.5703 5.13139 53.0435 4.90509C53.5268 4.67879 54.0303 4.56564 54.5539 4.56564C55.4702 4.56564 56.2052 4.86909 56.759 5.47598C57.3128 6.0726 57.5897 6.96237 57.5897 8.1453C57.5897 9.2871 57.2725 10.2026 56.6382 10.8918C56.0038 11.5707 55.1278 11.9101 54.0102 11.9101C52.8925 11.9101 52.0114 11.5707 51.367 10.8918C50.7226 10.2129 50.4004 9.16366 50.4004 7.74413V6.23203C50.4004 5.35769 50.496 4.62221 50.6874 4.0256C50.8787 3.4187 51.1505 2.9301 51.503 2.55979C51.8654 2.17919 52.2984 1.89632 52.8019 1.71116C53.3154 1.51572 53.8893 1.382 54.5237 1.30999C55.0271 1.25856 55.4903 1.21227 55.9132 1.17112C56.3361 1.11969 56.7137 1.0734 57.046 1.03226L57.2423 2.6678ZM54.0404 10.4752C54.6344 10.4752 55.0926 10.2694 55.4148 9.85799C55.737 9.43625 55.8981 8.87564 55.8981 8.17616C55.8981 7.4664 55.742 6.92122 55.4299 6.54063C55.1178 6.16003 54.6747 5.96973 54.1008 5.96973C53.557 5.96973 53.0888 6.13946 52.6961 6.47891C52.3135 6.80807 52.1222 7.23496 52.1222 7.75956V8.08359C52.1222 8.87564 52.2934 9.47225 52.6357 9.87342C52.9781 10.2746 53.4463 10.4752 54.0404 10.4752Z" fill="#A92424"/>
    <path d="M60.9938 11.7558H59.2267V4.2879H60.9032V9.42596L64.0447 4.2879H65.8723V11.7558H64.1807V6.58691L60.9938 11.7558Z" fill="#A92424"/>
    <path d="M70.7843 10.506C71.2877 10.506 71.6653 10.4135 71.917 10.2283C72.1688 10.0431 72.2946 9.79627 72.2946 9.48768C72.2946 9.19966 72.1939 8.98365 71.9926 8.83964C71.8012 8.69563 71.4841 8.62362 71.041 8.62362H69.8025V7.34297H71.0108C71.4136 7.34297 71.7056 7.26582 71.8868 7.11152C72.0681 6.95723 72.1587 6.74635 72.1587 6.47891C72.1587 6.19089 72.053 5.96459 71.8415 5.80001C71.6301 5.63542 71.2978 5.55313 70.8447 5.55313C70.3312 5.55313 69.9284 5.67657 69.6364 5.92344C69.3444 6.16003 69.148 6.46862 69.0474 6.84922L67.4615 6.55606C67.6226 5.79486 68.0002 5.20339 68.5942 4.78165C69.1883 4.34962 69.9385 4.13361 70.8447 4.13361C71.771 4.13361 72.496 4.32391 73.0196 4.7045C73.5533 5.07481 73.8201 5.60456 73.8201 6.29375C73.8201 6.67435 73.7295 7.00866 73.5482 7.29668C73.367 7.5847 73.1002 7.79557 72.7477 7.92929C73.1304 8.04244 73.4324 8.24303 73.654 8.53104C73.8755 8.81906 73.9862 9.18423 73.9862 9.62655C73.9862 10.3363 73.7043 10.8969 73.1404 11.3084C72.5766 11.7095 71.7912 11.9101 70.7843 11.9101C69.8176 11.9101 69.0423 11.7044 68.4583 11.2929C67.8844 10.8712 67.532 10.2643 67.4011 9.47225L69.0171 9.17909C69.0977 9.55969 69.2789 9.87856 69.5609 10.1357C69.8428 10.3826 70.2506 10.506 70.7843 10.506Z" fill="#A92424"/>
    <path d="M75.5693 11.7558V4.2879H77.3062V7.14238H80.478V4.2879H82.2149V11.7558H80.478V8.7162H77.3062V11.7558H75.5693Z" fill="#A92424"/>
    <path d="M90.646 8.42304H85.4806C85.5208 9.10194 85.7071 9.61626 86.0394 9.966C86.3717 10.3157 86.7946 10.4906 87.3081 10.4906C87.7814 10.4906 88.1489 10.3775 88.4107 10.1512C88.6825 9.91457 88.8739 9.64712 88.9846 9.34881L90.495 9.65741C90.3339 10.2643 89.9865 10.7941 89.4528 11.2467C88.9292 11.689 88.2043 11.9101 87.2779 11.9101C86.2609 11.9101 85.4302 11.581 84.7858 10.9226C84.1514 10.2643 83.8343 9.29738 83.8343 8.02187C83.8343 7.38411 83.9249 6.8235 84.1061 6.34004C84.2874 5.84629 84.5341 5.43998 84.8462 5.1211C85.1684 4.79194 85.546 4.54506 85.979 4.38048C86.412 4.2159 86.8802 4.13361 87.3836 4.13361C88.3603 4.13361 89.1507 4.45249 89.7549 5.09024C90.3691 5.71771 90.6762 6.5972 90.6762 7.72871C90.6762 7.86243 90.6712 7.99615 90.6611 8.12987C90.6611 8.25331 90.6561 8.35103 90.646 8.42304ZM87.3836 5.55313C86.9003 5.55313 86.4925 5.69714 86.1602 5.98516C85.828 6.26289 85.6165 6.67949 85.5259 7.23496H89.0752C89.045 6.7515 88.8839 6.35033 88.5919 6.03145C88.2999 5.71257 87.8971 5.55313 87.3836 5.55313Z" fill="#A92424"/>
    <path d="M96.9793 9.1328L98.5954 9.41053C98.4544 10.1512 98.112 10.7529 97.5683 11.2158C97.0346 11.6787 96.2895 11.9101 95.333 11.9101C94.8194 11.9101 94.3462 11.8278 93.9132 11.6633C93.4803 11.4987 93.1077 11.2569 92.7956 10.9381C92.4935 10.6192 92.2518 10.218 92.0706 9.73455C91.8994 9.24081 91.8138 8.66991 91.8138 8.02187C91.8138 7.38411 91.8994 6.8235 92.0706 6.34004C92.2518 5.84629 92.4935 5.43998 92.7956 5.1211C93.1077 4.79194 93.4803 4.54506 93.9132 4.38048C94.3462 4.2159 94.8194 4.13361 95.333 4.13361C96.2895 4.13361 97.0397 4.36505 97.5834 4.82794C98.1271 5.29083 98.4695 5.89258 98.6105 6.6332L96.9944 6.89551C96.9037 6.56634 96.7326 6.27318 96.4808 6.01602C96.2392 5.75886 95.8616 5.63028 95.3481 5.63028C94.7741 5.63028 94.3261 5.84629 94.0039 6.27832C93.6917 6.70007 93.5356 7.28125 93.5356 8.02187C93.5356 8.76249 93.6917 9.34881 94.0039 9.78084C94.3261 10.2026 94.7741 10.4135 95.3481 10.4135C95.8616 10.4135 96.2392 10.2849 96.4808 10.0277C96.7326 9.77056 96.8987 9.47225 96.9793 9.1328Z" fill="#A92424"/>
</svg>
