<?xml version="1.0" standalone="no"?>
<!DOCTYPE svg PUBLIC "-//W3C//DTD SVG 20010904//EN"
 "http://www.w3.org/TR/2001/REC-SVG-20010904/DTD/svg10.dtd">
<svg version="1.0" xmlns="http://www.w3.org/2000/svg"
 width="229.000000pt" height="175.000000pt" viewBox="0 0 229.000000 175.000000"
 preserveAspectRatio="xMidYMid meet">

<g transform="translate(0.000000,175.000000) scale(0.100000,-0.100000)"
fill="#000000" stroke="none">
<path d="M180 1709 c-55 -25 -114 -80 -143 -134 -21 -39 -22 -52 -25 -442 l-3
-401 58 -22 c74 -28 179 -45 225 -36 20 3 48 16 63 28 48 38 55 71 55 268 l0
180 125 0 125 0 0 -187 c0 -104 -5 -205 -11 -226 -16 -60 -76 -112 -156 -137
-101 -32 -347 -29 -465 6 -17 5 -18 -14 -18 -298 l0 -303 252 5 253 5 54 30
c52 28 99 80 124 135 9 18 13 243 17 788 l5 762 -245 0 c-225 0 -249 -2 -290
-21z"/>
<path d="M980 1709 c-55 -25 -114 -80 -143 -134 -20 -37 -22 -59 -27 -268 -3
-125 -4 -227 -3 -227 0 0 23 11 50 25 91 47 162 58 333 52 85 -3 176 -11 203
-17 l47 -12 0 -60 c0 -68 9 -65 -95 -27 -45 17 -83 22 -150 23 -98 1 -129 -10
-177 -61 -35 -37 -48 -73 -48 -135 0 -74 31 -132 88 -166 42 -24 56 -27 137
-26 67 0 105 6 150 23 104 38 95 41 95 -28 0 -33 -1 -61 -2 -61 -2 0 -39 -7
-83 -15 -94 -19 -297 -21 -375 -5 -30 7 -82 25 -114 41 -33 16 -60 29 -60 29
-1 0 0 -147 1 -326 l2 -325 243 1 c218 1 246 3 287 21 72 32 107 64 140 130
l31 62 0 754 0 753 -242 0 c-223 0 -247 -2 -288 -21z"/>
<path d="M1810 1721 c-75 -23 -146 -87 -179 -161 -18 -40 -21 -66 -21 -227 l0
-183 234 0 c141 0 246 -4 263 -11 15 -5 43 -25 62 -42 32 -30 33 -30 17 -5
-19 29 -89 68 -124 68 l-22 0 0 280 0 279 128 4 c70 1 24 3 -103 4 -126 1
-241 -2 -255 -6z"/>
<path d="M1750 989 l0 -72 92 7 c51 4 98 12 106 18 8 7 12 27 10 52 -4 53 -29
66 -130 66 l-78 0 0 -71z"/>
<path d="M2182 939 c-7 -11 -29 -30 -48 -41 l-36 -21 37 -13 c21 -7 51 -25 69
-41 l31 -28 -25 28 c-14 16 -37 35 -52 43 l-27 14 37 34 c20 19 35 37 32 40
-3 3 -11 -4 -18 -15z"/>
<path d="M1750 760 l0 -70 98 0 c113 0 132 10 132 73 0 55 -25 67 -137 67
l-93 0 0 -70z"/>
<path d="M2242 740 c0 -14 2 -19 5 -12 2 6 2 18 0 25 -3 6 -5 1 -5 -13z"/>
<path d="M2194 638 l-29 -33 33 29 c30 28 37 36 29 36 -2 0 -16 -15 -33 -32z"/>
<path d="M1868 593 l-258 -3 0 -291 0 -290 248 3 247 3 52 29 c29 16 62 40 75
54 23 25 22 25 -11 -1 -44 -37 -97 -63 -143 -71 l-38 -7 0 274 c0 297 -2 287
53 287 12 0 29 5 37 10 8 5 11 9 5 8 -5 -2 -126 -4 -267 -5z"/>
</g>
</svg>
