<svg width="60" height="18" viewBox="0 0 60 18" fill="none" xmlns="http://www.w3.org/2000/svg">
<path d="M28.8384 14.5755V14.2264H28.7474L28.6421 14.4662L28.5374 14.2264H28.4458V14.5755H28.5105V14.3123L28.6089 14.5394H28.6759L28.7743 14.3117V14.5755H28.8384ZM28.261 14.5755V14.2859H28.3777V14.227H28.0802V14.2859H28.1969V14.5755H28.261Z" fill="#0099DF"/>
<path d="M18.4933 16.0768H10.619V1.92535H18.4933V16.0768Z" fill="#6C6BBD"/>
<path d="M11.1234 9C11.1234 6.12932 12.4675 3.57219 14.5606 1.92428C13.0299 0.719247 11.0982 2.94013e-06 8.99886 2.94013e-06C4.0288 2.94013e-06 0 4.02937 0 9C0 13.9706 4.0288 18 8.99886 18C11.0982 18 13.0299 17.2808 14.5606 16.0757C12.4675 14.4278 11.1234 11.8707 11.1234 9Z" fill="#EB001B"/>
<path d="M29.113 9C29.113 13.9706 25.0842 18 20.1142 18C18.0148 18 16.0831 17.2808 14.5519 16.0757C16.6455 14.4278 17.9896 11.8707 17.9896 9C17.9896 6.12932 16.6455 3.57219 14.5519 1.92428C16.0831 0.719247 18.0148 2.94013e-06 20.1142 2.94013e-06C25.0842 2.94013e-06 29.113 4.02937 29.113 9Z" fill="#0099DF"/>
</svg>
