<svg width="60" height="18" viewBox="0 0 60 18" fill="none" xmlns="http://www.w3.org/2000/svg">
<path d="M18.4964 1.9248H10.6223V16.0757H18.4964V1.9248Z" fill="#FF5F00"/>
<path d="M11.1224 9.00125C11.1209 7.63822 11.4296 6.29274 12.0251 5.06668C12.6206 3.84062 13.4873 2.76612 14.5595 1.92457C13.2319 0.881245 11.6376 0.232463 9.95876 0.0523742C8.27992 -0.127715 6.58427 0.168155 5.06562 0.906168C3.54697 1.64418 2.26659 2.79456 1.37081 4.22583C0.475035 5.6571 0 7.31152 0 9C0 10.6885 0.475035 12.3429 1.37081 13.7742C2.26659 15.2054 3.54697 16.3558 5.06562 17.0938C6.58427 17.8318 8.27992 18.1277 9.95876 17.9476C11.6376 17.7675 13.2319 17.1187 14.5595 16.0754C13.4876 15.2341 12.6212 14.16 12.0257 12.9344C11.4302 11.7088 11.1213 10.3638 11.1224 9.00125V9.00125Z" fill="#EB001B"/>
<path d="M29.1206 9.00125C29.1206 10.6899 28.6454 12.3444 27.7495 13.7757C26.8536 15.207 25.573 16.3574 24.0541 17.0953C22.5353 17.8332 20.8395 18.1289 19.1606 17.9485C17.4816 17.7682 15.8873 17.1191 14.5598 16.0754C15.6313 15.2334 16.4975 14.159 17.0931 12.9333C17.6887 11.7077 17.9982 10.3627 17.9982 9C17.9982 7.63727 17.6887 6.29233 17.0931 5.06667C16.4975 3.841 15.6313 2.76662 14.5598 1.92457C15.8873 0.880921 17.4816 0.231824 19.1606 0.0514769C20.8395 -0.128871 22.5353 0.166808 24.0541 0.904716C25.573 1.64262 26.8536 2.79299 27.7495 4.22431C28.6454 5.65562 29.1206 7.31015 29.1206 8.99875V9.00125Z" fill="#F79E1B"/>
</svg>
