<svg width="61" height="18" viewBox="0 0 61 18" fill="none" xmlns="http://www.w3.org/2000/svg">
<path fill-rule="evenodd" clip-rule="evenodd" d="M16.183 1.00012V1.00755C16.1756 1.00755 13.8372 1.00012 13.2136 3.23456C12.642 5.28342 11.0312 10.94 10.9866 11.0959H10.5412C10.5412 11.0959 8.89322 5.31311 8.31419 3.22714C7.69063 0.992699 5.34484 1.00012 5.34484 1.00012H0V17.9997H5.34484V7.90387H5.56754H5.79024L8.90806 17.9997H12.6198L15.7376 7.91129H16.183V17.9997H21.5278V1.00012H16.183Z" fill="#4DB45E"/>
<path fill-rule="evenodd" clip-rule="evenodd" d="M35.7057 1C35.7057 1 34.1393 1.14104 33.4044 2.78161L29.6185 11.0958H29.1731V1H23.8282V17.9996H28.8761C28.8761 17.9996 30.5167 17.8511 31.2516 16.2179L34.9633 7.90375H35.4087V17.9996H40.7536V1H35.7057Z" fill="#4DB45E"/>
<path fill-rule="evenodd" clip-rule="evenodd" d="M43.1302 8.72076V18H48.4751V12.5809H54.2653C56.7893 12.5809 58.9272 10.9701 59.7215 8.72076H43.1302Z" fill="#4DB45E"/>
<path fill-rule="evenodd" clip-rule="evenodd" d="M54.2647 1H42.3799C42.9738 4.2366 45.4012 6.83478 48.5413 7.68105C49.2539 7.87406 50.0037 7.97798 50.7757 7.97798H59.9362C60.0178 7.59197 60.055 7.19853 60.055 6.79024C60.055 3.59076 57.4642 1 54.2647 1Z" fill="url(#paint0_linear_35326_215241)"/>
<defs>
<linearGradient id="paint0_linear_35326_215241" x1="42.3813" y1="4.48899" x2="60.055" y2="4.48899" gradientUnits="userSpaceOnUse">
<stop offset="0.3" stop-color="#00B4E6"/>
<stop offset="1" stop-color="#088CCB"/>
</linearGradient>
</defs>
</svg>
