<svg width="60" height="18" viewBox="0 0 60 18" fill="none" xmlns="http://www.w3.org/2000/svg">
<path d="M22.1116 1.28323L19.3051 17.7533H23.7937L26.6026 1.28323H22.1116Z" fill="#2672CB"/>
<path d="M15.5405 1.30128L11.1441 12.5334L10.6754 10.8374C9.80838 8.79399 7.34699 5.85925 4.45728 4.00974L8.47724 17.7448L13.2269 17.7367L20.2959 1.29782L15.5405 1.30128Z" fill="#2672CB"/>
<path d="M8.97277 2.48043C8.71185 1.47717 7.95565 1.17815 7.01705 1.14236H0.057725L0 1.47024C5.41576 2.78406 8.99932 5.9497 10.4863 9.75608L8.97277 2.48043Z" fill="#FF9900"/>
<path d="M35.7012 4.44041C37.1697 4.41732 38.2342 4.73827 39.0608 5.07076L39.466 5.26126L40.0733 1.69154C39.1843 1.35789 37.7909 1 36.0522 1C31.6166 1 28.4902 3.23395 28.466 6.43538C28.4371 8.80095 30.693 10.1217 32.397 10.9102C34.1461 11.7184 34.7326 12.2321 34.7245 12.9537C34.7107 14.0562 33.3299 14.5619 32.0403 14.5619C30.2427 14.5619 29.288 14.3137 27.8137 13.6995L27.2353 13.4363L26.6038 17.1226C27.6544 17.5832 29.5928 17.9792 31.6051 18C36.3235 18 39.3898 15.7926 39.4222 12.3718C39.4418 10.5004 38.2446 9.07226 35.6504 7.90044C34.0803 7.13616 33.1198 6.62818 33.129 5.85698C33.129 5.17236 33.9441 4.44041 35.7012 4.44041Z" fill="#2672CB"/>
<path d="M51.591 1.30084H48.1228C47.0457 1.30084 46.2445 1.59409 45.7711 2.66777L39.1062 17.7617H43.82C43.82 17.7617 44.5889 15.7321 44.7632 15.2876C45.2793 15.2876 49.8592 15.2945 50.5115 15.2945C50.6454 15.8695 51.0587 17.7617 51.0587 17.7617H55.223L51.591 1.30084ZM46.0551 11.9165C46.4246 10.9709 47.8435 7.31347 47.8435 7.31347C47.8192 7.3585 48.2094 6.36101 48.4415 5.74104L48.744 7.16108C48.744 7.16108 49.6041 11.0933 49.7842 11.9165H46.0551Z" fill="#2672CB"/>
</svg>
